  0
SECTION
  2
HEADER
  9
$ACADVER
  1
AC1009
  9
$DWGCODEPAGE
  3
ANSI_1252
  9
$INSBASE
 10
0.0
 20
0.0
 30
0.0
  9
$EXTMIN
 10
1e+20
 20
1e+20
 30
1e+20
  9
$EXTMAX
 10
-1e+20
 20
-1e+20
 30
-1e+20
  9
$LIMMIN
 10
0.0
 20
0.0
  9
$LIMMAX
 10
420.0
 20
297.0
  9
$ORTHOMODE
 70
0
  9
$REGENMODE
 70
1
  9
$FILLMODE
 70
1
  9
$DRAGMODE
 70
2
  9
$QTEXTMODE
 70
0
  9
$MIRRTEXT
 70
1
  9
$OSMODE
 70
20583
  9
$LTSCALE
 40
1.0
  9
$ATTMODE
 70
1
  9
$TEXTSIZE
 40
2.5
  9
$TRACEWID
 40
1.0
  9
$TEXTSTYLE
  7
Standard
  9
$CLAYER
  8
0
  9
$CELTYPE
  6
ByLayer
  9
$CECOLOR
 62
256
  9
$DIMSCALE
 40
1.0
  9
$DIMASZ
 40
2.5
  9
$DIMEXO
 40
0.625
  9
$DIMDLI
 40
3.75
  9
$DIMRND
 40
0.0
  9
$DIMDLE
 40
0.0
  9
$DIMEXE
 40
1.25
  9
$DIMTP
 40
0.0
  9
$DIMTM
 40
0.0
  9
$DIMTXT
 40
2.5
  9
$DIMCEN
 40
2.5
  9
$DIMTSZ
 40
0.0
  9
$DIMTOL
 70
0
  9
$DIMLIM
 70
0
  9
$DIMTIH
 70
0
  9
$DIMTOH
 70
0
  9
$DIMSE1
 70
0
  9
$DIMSE2
 70
0
  9
$DIMTAD
 70
1
  9
$DIMZIN
 70
8
  9
$DIMBLK
  1

  9
$DIMASO
 70
1
  9
$DIMSHO
 70
1
  9
$DIMPOST
  1

  9
$DIMAPOST
  1

  9
$DIMALT
 70
0
  9
$DIMALTD
 70
3
  9
$DIMALTF
 40
0.03937007874
  9
$DIMLFAC
 40
1.0
  9
$DIMTOFL
 70
1
  9
$DIMTVP
 40
0.0
  9
$DIMTIX
 70
0
  9
$DIMSOXD
 70
0
  9
$DIMSAH
 70
0
  9
$DIMBLK1
  1

  9
$DIMBLK2
  1

  9
$DIMSTYLE
  2
ISO-25
  9
$DIMCLRD
 70
0
  9
$DIMCLRE
 70
0
  9
$DIMCLRT
 70
0
  9
$DIMTFAC
 40
1.0
  9
$DIMGAP
 40
0.625
  9
$COORDS
 70
1
  9
$ATTDIA
 70
0
  9
$ATTREQ
 70
1
  9
$HANDLING
 70
1
  9
$LUNITS
 70
2
  9
$LUPREC
 70
4
  9
$SKETCHINC
 40
1.0
  9
$FILLETRAD
 40
10.0
  9
$AUNITS
 70
0
  9
$AUPREC
 70
2
  9
$MENU
  1
.
  9
$ELEVATION
 40
0.0
  9
$PELEVATION
 40
0.0
  9
$THICKNESS
 40
0.0
  9
$LIMCHECK
 70
0
  9
$CHAMFERA
 40
0.0
  9
$CHAMFERB
 40
0.0
  9
$SKPOLY
 70
0
  9
$TDCREATE
 40
2461262.742384259
  9
$TDUPDATE
 40
2461262.742384259
  9
$TDINDWG
 40
0.0
  9
$TDUSRTIMER
 40
0.0
  9
$USRTIMER
 70
1
  9
$ANGBASE
 50
0.0
  9
$ANGDIR
 70
0
  9
$PDMODE
 70
0
  9
$PDSIZE
 40
0.0
  9
$PLINEWID
 40
0.0
  9
$SPLFRAME
 70
0
  9
$SPLINETYPE
 70
6
  9
$SPLINESEGS
 70
8
  9
$HANDSEED
  5
2C1
  9
$SURFTAB1
 70
6
  9
$SURFTAB2
 70
6
  9
$SURFTYPE
 70
6
  9
$SURFU
 70
6
  9
$SURFV
 70
6
  9
$UCSNAME
  2

  9
$UCSORG
 10
0.0
 20
0.0
 30
0.0
  9
$UCSXDIR
 10
1.0
 20
0.0
 30
0.0
  9
$UCSYDIR
 10
0.0
 20
1.0
 30
0.0
  9
$PUCSNAME
  2

  9
$PUCSORG
 10
0.0
 20
0.0
 30
0.0
  9
$PUCSXDIR
 10
1.0
 20
0.0
 30
0.0
  9
$PUCSYDIR
 10
0.0
 20
1.0
 30
0.0
  9
$USERI1
 70
0
  9
$USERI2
 70
0
  9
$USERI3
 70
0
  9
$USERI4
 70
0
  9
$USERI5
 70
0
  9
$USERR1
 40
0.0
  9
$USERR2
 40
0.0
  9
$USERR3
 40
0.0
  9
$USERR4
 40
0.0
  9
$USERR5
 40
0.0
  9
$WORLDVIEW
 70
1
  9
$SHADEDGE
 70
3
  9
$SHADEDIF
 70
70
  9
$TILEMODE
 70
1
  9
$MAXACTVP
 70
64
  9
$PLIMCHECK
 70
0
  9
$PEXTMIN
 10
1e+20
 20
1e+20
 30
1e+20
  9
$PEXTMAX
 10
-1e+20
 20
-1e+20
 30
-1e+20
  9
$PLIMMIN
 10
0.0
 20
0.0
  9
$PLIMMAX
 10
420.0
 20
297.0
  9
$UNITMODE
 70
0
  9
$VISRETAIN
 70
1
  9
$PLINEGEN
 70
0
  9
$PSLTSCALE
 70
1
  0
ENDSEC
  0
SECTION
  2
TABLES
  0
TABLE
  2
VPORT
 70
1
  0
VPORT
  5
23
  2
*Active
 70
0
 10
0.0
 20
0.0
 11
1.0
 21
1.0
 12
0.0
 22
0.0
 13
0.0
 23
0.0
 14
0.5
 24
0.5
 15
0.5
 25
0.5
 16
0.0
 26
0.0
 36
1.0
 17
0.0
 27
0.0
 37
0.0
 40
1000.0
 41
1.34
 42
50.0
 43
0.0
 44
0.0
 50
0.0
 51
0.0
 71
0
 72
1000
 73
1
 74
3
 75
0
 76
0
 77
0
 78
0
  0
ENDTAB
  0
TABLE
  2
LTYPE
 70
3
  0
LTYPE
  5
24
  2
ByBlock
 70
0
  3

 72
65
 73
0
 40
0.0
  0
LTYPE
  5
25
  2
ByLayer
 70
0
  3

 72
65
 73
0
 40
0.0
  0
LTYPE
  5
26
  2
Continuous
 70
0
  3

 72
65
 73
0
 40
0.0
  0
ENDTAB
  0
TABLE
  2
LAYER
 70
4
  0
LAYER
  5
27
  2
0
 70
0
 62
7
  6
Continuous
  0
LAYER
  5
28
  2
Defpoints
 70
0
 62
7
  6
Continuous
  0
LAYER
  5
2D
  2
CUT
 70
0
 62
1
  6
Continuous
  0
LAYER
  5
2E
  2
ENGRAVE
 70
0
 62
5
  6
Continuous
  0
ENDTAB
  0
TABLE
  2
STYLE
 70
1
  0
STYLE
  5
29
  2
Standard
 70
0
 40
0.0
 41
1.0
 50
0.0
 71
0
 42
2.5
  3
txt
  4

  0
ENDTAB
  0
TABLE
  2
VIEW
 70
0
  0
ENDTAB
  0
TABLE
  2
UCS
 70
0
  0
ENDTAB
  0
TABLE
  2
APPID
 70
3
  0
APPID
  5
2A
  2
ACAD
 70
0
  0
APPID
  5
2BF
  2
HATCHBACKGROUNDCOLOR
 70
0
  0
APPID
  5
2C0
  2
EZDXF
 70
0
  0
ENDTAB
  0
TABLE
  2
DIMSTYLE
 70
1
  0
DIMSTYLE
105
2B
  2
Standard
 70
0
  3

  4

  5

  6

  7

 40
1.0
 41
2.5
 42
0.625
 43
3.75
 44
1.25
 45
0.0
 46
0.0
 47
0.0
 48
0.0
140
2.5
141
2.5
142
0.0
143
0.03937007874
144
1.0
145
0.0
146
1.0
147
0.625
 71
0
 72
0
 73
0
 74
0
 75
0
 76
0
 77
1
 78
8
170
0
171
3
172
1
173
0
174
0
175
0
176
0
177
0
178
0
  0
ENDTAB
  0
ENDSEC
  0
SECTION
  2
BLOCKS
  0
BLOCK
  5
18
  8
0
  2
$Model_Space
 70
0
 10
0.0
 20
0.0
 30
0.0
  3
$Model_Space
  1

1001
EZDXF
1000
CREATED_BY_EZDXF
1000
1.4.4 @ 2026-08-09T15:49:02.739156+00:00
1000
WRITTEN_BY_EZDXF
1000
1.4.4 @ 2026-08-09T15:49:02.764120+00:00
  0
ENDBLK
  5
19
  8
0
  0
BLOCK
  5
1C
  8
0
  2
$Paper_Space
 70
0
 10
0.0
 20
0.0
 30
0.0
  3
$Paper_Space
  1

  0
ENDBLK
  5
1D
  8
0
  0
ENDSEC
  0
SECTION
  2
ENTITIES
  0
POLYLINE
  5
2F
  8
CUT
 66
1
 10
0.0
 20
0.0
 30
0.0
 70
1
  0
VERTEX
  5
31
  8
CUT
 10
19.0
 20
10.0
 30
0.0
 70
0
  0
VERTEX
  5
32
  8
CUT
 10
19.0
 20
0.0
 30
0.0
 70
0
  0
VERTEX
  5
33
  8
CUT
 10
30.0
 20
0.0
 30
0.0
 70
0
  0
VERTEX
  5
34
  8
CUT
 10
30.0
 20
72.0
 30
0.0
 70
0
  0
VERTEX
  5
35
  8
CUT
 10
56.0
 20
72.0
 30
0.0
 70
0
  0
VERTEX
  5
36
  8
CUT
 10
56.0
 20
82.0
 30
0.0
 70
0
  0
VERTEX
  5
37
  8
CUT
 10
64.0
 20
82.0
 30
0.0
 70
0
  0
VERTEX
  5
38
  8
CUT
 10
64.0
 20
72.0
 30
0.0
 70
0
  0
VERTEX
  5
39
  8
CUT
 10
90.0
 20
72.0
 30
0.0
 70
0
  0
VERTEX
  5
3A
  8
CUT
 10
90.0
 20
0.0
 30
0.0
 70
0
  0
VERTEX
  5
3B
  8
CUT
 10
101.0
 20
0.0
 30
0.0
 70
0
  0
VERTEX
  5
3C
  8
CUT
 10
101.0
 20
10.0
 30
0.0
 70
0
  0
VERTEX
  5
3D
  8
CUT
 10
109.0
 20
10.0
 30
0.0
 70
0
  0
VERTEX
  5
3E
  8
CUT
 10
109.0
 20
0.0
 30
0.0
 70
0
  0
VERTEX
  5
3F
  8
CUT
 10
120.0
 20
0.0
 30
0.0
 70
0
  0
VERTEX
  5
40
  8
CUT
 10
120.0
 20
72.0
 30
0.0
 70
0
  0
VERTEX
  5
41
  8
CUT
 10
120.0
 20
94.0
 30
0.0
 70
0
  0
VERTEX
  5
42
  8
CUT
 10
64.0
 20
94.0
 30
0.0
 70
0
  0
VERTEX
  5
43
  8
CUT
 10
64.0
 20
84.0
 30
0.0
 70
0
  0
VERTEX
  5
44
  8
CUT
 10
56.0
 20
84.0
 30
0.0
 70
0
  0
VERTEX
  5
45
  8
CUT
 10
56.0
 20
94.0
 30
0.0
 70
0
  0
VERTEX
  5
46
  8
CUT
 10
0.0
 20
94.0
 30
0.0
 70
0
  0
VERTEX
  5
47
  8
CUT
 10
0.0
 20
72.0
 30
0.0
 70
0
  0
VERTEX
  5
48
  8
CUT
 10
0.0
 20
0.0
 30
0.0
 70
0
  0
VERTEX
  5
49
  8
CUT
 10
11.0
 20
0.0
 30
0.0
 70
0
  0
VERTEX
  5
4A
  8
CUT
 10
11.0
 20
10.0
 30
0.0
 70
0
  0
SEQEND
  5
30
  8
CUT
  0
POLYLINE
  5
4B
  8
CUT
 66
1
 10
0.0
 20
0.0
 30
0.0
 70
1
  0
VERTEX
  5
4D
  8
CUT
 10
11.0
 20
12.0
 30
0.0
 70
0
  0
VERTEX
  5
4E
  8
CUT
 10
11.0
 20
22.0
 30
0.0
 70
0
  0
VERTEX
  5
4F
  8
CUT
 10
19.0
 20
22.0
 30
0.0
 70
0
  0
VERTEX
  5
50
  8
CUT
 10
19.0
 20
12.0
 30
0.0
 70
0
  0
SEQEND
  5
4C
  8
CUT
  0
POLYLINE
  5
51
  8
CUT
 66
1
 10
0.0
 20
0.0
 30
0.0
 70
1
  0
VERTEX
  5
53
  8
CUT
 10
101.0
 20
22.0
 30
0.0
 70
0
  0
VERTEX
  5
54
  8
CUT
 10
109.0
 20
22.0
 30
0.0
 70
0
  0
VERTEX
  5
55
  8
CUT
 10
109.0
 20
12.0
 30
0.0
 70
0
  0
VERTEX
  5
56
  8
CUT
 10
101.0
 20
12.0
 30
0.0
 70
0
  0
SEQEND
  5
52
  8
CUT
  0
POLYLINE
  5
57
  8
CUT
 66
1
 10
0.0
 20
0.0
 30
0.0
 70
1
  0
VERTEX
  5
59
  8
CUT
 10
19.0
 20
34.0
 30
0.0
 70
0
  0
VERTEX
  5
5A
  8
CUT
 10
19.0
 20
24.0
 30
0.0
 70
0
  0
VERTEX
  5
5B
  8
CUT
 10
11.0
 20
24.0
 30
0.0
 70
0
  0
VERTEX
  5
5C
  8
CUT
 10
11.0
 20
34.0
 30
0.0
 70
0
  0
SEQEND
  5
58
  8
CUT
  0
POLYLINE
  5
5D
  8
CUT
 66
1
 10
0.0
 20
0.0
 30
0.0
 70
1
  0
VERTEX
  5
5F
  8
CUT
 10
109.0
 20
24.0
 30
0.0
 70
0
  0
VERTEX
  5
60
  8
CUT
 10
101.0
 20
24.0
 30
0.0
 70
0
  0
VERTEX
  5
61
  8
CUT
 10
101.0
 20
34.0
 30
0.0
 70
0
  0
VERTEX
  5
62
  8
CUT
 10
109.0
 20
34.0
 30
0.0
 70
0
  0
SEQEND
  5
5E
  8
CUT
  0
POLYLINE
  5
63
  8
CUT
 66
1
 10
0.0
 20
0.0
 30
0.0
 70
1
  0
VERTEX
  5
65
  8
CUT
 10
11.0
 20
36.0
 30
0.0
 70
0
  0
VERTEX
  5
66
  8
CUT
 10
11.0
 20
46.0
 30
0.0
 70
0
  0
VERTEX
  5
67
  8
CUT
 10
19.0
 20
46.0
 30
0.0
 70
0
  0
VERTEX
  5
68
  8
CUT
 10
19.0
 20
36.0
 30
0.0
 70
0
  0
SEQEND
  5
64
  8
CUT
  0
POLYLINE
  5
69
  8
CUT
 66
1
 10
0.0
 20
0.0
 30
0.0
 70
1
  0
VERTEX
  5
6B
  8
CUT
 10
101.0
 20
46.0
 30
0.0
 70
0
  0
VERTEX
  5
6C
  8
CUT
 10
109.0
 20
46.0
 30
0.0
 70
0
  0
VERTEX
  5
6D
  8
CUT
 10
109.0
 20
36.0
 30
0.0
 70
0
  0
VERTEX
  5
6E
  8
CUT
 10
101.0
 20
36.0
 30
0.0
 70
0
  0
SEQEND
  5
6A
  8
CUT
  0
POLYLINE
  5
6F
  8
CUT
 66
1
 10
0.0
 20
0.0
 30
0.0
 70
1
  0
VERTEX
  5
71
  8
CUT
 10
109.0
 20
58.0
 30
0.0
 70
0
  0
VERTEX
  5
72
  8
CUT
 10
109.0
 20
48.0
 30
0.0
 70
0
  0
VERTEX
  5
73
  8
CUT
 10
101.0
 20
48.0
 30
0.0
 70
0
  0
VERTEX
  5
74
  8
CUT
 10
101.0
 20
58.0
 30
0.0
 70
0
  0
SEQEND
  5
70
  8
CUT
  0
POLYLINE
  5
75
  8
CUT
 66
1
 10
0.0
 20
0.0
 30
0.0
 70
1
  0
VERTEX
  5
77
  8
CUT
 10
19.0
 20
48.0
 30
0.0
 70
0
  0
VERTEX
  5
78
  8
CUT
 10
11.0
 20
48.0
 30
0.0
 70
0
  0
VERTEX
  5
79
  8
CUT
 10
11.0
 20
58.0
 30
0.0
 70
0
  0
VERTEX
  5
7A
  8
CUT
 10
19.0
 20
58.0
 30
0.0
 70
0
  0
SEQEND
  5
76
  8
CUT
  0
POLYLINE
  5
7B
  8
CUT
 66
1
 10
0.0
 20
0.0
 30
0.0
 70
1
  0
VERTEX
  5
7D
  8
CUT
 10
101.0
 20
60.0
 30
0.0
 70
0
  0
VERTEX
  5
7E
  8
CUT
 10
101.0
 20
70.0
 30
0.0
 70
0
  0
VERTEX
  5
7F
  8
CUT
 10
109.0
 20
70.0
 30
0.0
 70
0
  0
VERTEX
  5
80
  8
CUT
 10
109.0
 20
60.0
 30
0.0
 70
0
  0
SEQEND
  5
7C
  8
CUT
  0
POLYLINE
  5
81
  8
CUT
 66
1
 10
0.0
 20
0.0
 30
0.0
 70
1
  0
VERTEX
  5
83
  8
CUT
 10
11.0
 20
70.0
 30
0.0
 70
0
  0
VERTEX
  5
84
  8
CUT
 10
19.0
 20
70.0
 30
0.0
 70
0
  0
VERTEX
  5
85
  8
CUT
 10
19.0
 20
60.0
 30
0.0
 70
0
  0
VERTEX
  5
86
  8
CUT
 10
11.0
 20
60.0
 30
0.0
 70
0
  0
SEQEND
  5
82
  8
CUT
  0
POLYLINE
  5
87
  8
ENGRAVE
 66
1
 10
0.0
 20
0.0
 30
0.0
 70
0
  0
VERTEX
  5
89
  8
ENGRAVE
 10
113.4
 20
8.0
 30
0.0
 70
0
  0
VERTEX
  5
8A
  8
ENGRAVE
 10
113.4
 20
6.0
 30
0.0
 70
0
  0
SEQEND
  5
88
  8
ENGRAVE
  0
POLYLINE
  5
8B
  8
ENGRAVE
 66
1
 10
0.0
 20
0.0
 30
0.0
 70
0
  0
VERTEX
  5
8D
  8
ENGRAVE
 10
113.4
 20
6.0
 30
0.0
 70
0
  0
VERTEX
  5
8E
  8
ENGRAVE
 10
113.4
 20
4.0
 30
0.0
 70
0
  0
SEQEND
  5
8C
  8
ENGRAVE
  0
POLYLINE
  5
8F
  8
ENGRAVE
 66
1
 10
0.0
 20
0.0
 30
0.0
 70
0
  0
VERTEX
  5
91
  8
ENGRAVE
 10
114.2
 20
4.0
 30
0.0
 70
0
  0
VERTEX
  5
92
  8
ENGRAVE
 10
116.6
 20
8.0
 30
0.0
 70
0
  0
SEQEND
  5
90
  8
ENGRAVE
  0
POLYLINE
  5
93
  8
ENGRAVE
 66
1
 10
0.0
 20
0.0
 30
0.0
 70
0
  0
VERTEX
  5
95
  8
ENGRAVE
 10
117.4
 20
8.0
 30
0.0
 70
0
  0
VERTEX
  5
96
  8
ENGRAVE
 10
119.8
 20
8.0
 30
0.0
 70
0
  0
SEQEND
  5
94
  8
ENGRAVE
  0
POLYLINE
  5
97
  8
ENGRAVE
 66
1
 10
0.0
 20
0.0
 30
0.0
 70
0
  0
VERTEX
  5
99
  8
ENGRAVE
 10
119.8
 20
8.0
 30
0.0
 70
0
  0
VERTEX
  5
9A
  8
ENGRAVE
 10
119.8
 20
6.0
 30
0.0
 70
0
  0
SEQEND
  5
98
  8
ENGRAVE
  0
POLYLINE
  5
9B
  8
ENGRAVE
 66
1
 10
0.0
 20
0.0
 30
0.0
 70
0
  0
VERTEX
  5
9D
  8
ENGRAVE
 10
119.8
 20
6.0
 30
0.0
 70
0
  0
VERTEX
  5
9E
  8
ENGRAVE
 10
119.8
 20
4.0
 30
0.0
 70
0
  0
SEQEND
  5
9C
  8
ENGRAVE
  0
POLYLINE
  5
9F
  8
ENGRAVE
 66
1
 10
0.0
 20
0.0
 30
0.0
 70
0
  0
VERTEX
  5
A1
  8
ENGRAVE
 10
117.4
 20
6.0
 30
0.0
 70
0
  0
VERTEX
  5
A2
  8
ENGRAVE
 10
117.4
 20
4.0
 30
0.0
 70
0
  0
SEQEND
  5
A0
  8
ENGRAVE
  0
POLYLINE
  5
A3
  8
ENGRAVE
 66
1
 10
0.0
 20
0.0
 30
0.0
 70
0
  0
VERTEX
  5
A5
  8
ENGRAVE
 10
117.4
 20
8.0
 30
0.0
 70
0
  0
VERTEX
  5
A6
  8
ENGRAVE
 10
117.4
 20
6.0
 30
0.0
 70
0
  0
SEQEND
  5
A4
  8
ENGRAVE
  0
POLYLINE
  5
A7
  8
ENGRAVE
 66
1
 10
0.0
 20
0.0
 30
0.0
 70
0
  0
VERTEX
  5
A9
  8
ENGRAVE
 10
117.4
 20
6.0
 30
0.0
 70
0
  0
VERTEX
  5
AA
  8
ENGRAVE
 10
119.8
 20
6.0
 30
0.0
 70
0
  0
SEQEND
  5
A8
  8
ENGRAVE
  0
POLYLINE
  5
AB
  8
ENGRAVE
 66
1
 10
0.0
 20
0.0
 30
0.0
 70
0
  0
VERTEX
  5
AD
  8
ENGRAVE
 10
23.4
 20
8.0
 30
0.0
 70
0
  0
VERTEX
  5
AE
  8
ENGRAVE
 10
23.4
 20
6.0
 30
0.0
 70
0
  0
SEQEND
  5
AC
  8
ENGRAVE
  0
POLYLINE
  5
AF
  8
ENGRAVE
 66
1
 10
0.0
 20
0.0
 30
0.0
 70
0
  0
VERTEX
  5
B1
  8
ENGRAVE
 10
23.4
 20
6.0
 30
0.0
 70
0
  0
VERTEX
  5
B2
  8
ENGRAVE
 10
23.4
 20
4.0
 30
0.0
 70
0
  0
SEQEND
  5
B0
  8
ENGRAVE
  0
POLYLINE
  5
B3
  8
ENGRAVE
 66
1
 10
0.0
 20
0.0
 30
0.0
 70
0
  0
VERTEX
  5
B5
  8
ENGRAVE
 10
24.200000000000003
 20
4.0
 30
0.0
 70
0
  0
VERTEX
  5
B6
  8
ENGRAVE
 10
26.6
 20
8.0
 30
0.0
 70
0
  0
SEQEND
  5
B4
  8
ENGRAVE
  0
POLYLINE
  5
B7
  8
ENGRAVE
 66
1
 10
0.0
 20
0.0
 30
0.0
 70
0
  0
VERTEX
  5
B9
  8
ENGRAVE
 10
29.8
 20
6.0
 30
0.0
 70
0
  0
VERTEX
  5
BA
  8
ENGRAVE
 10
29.8
 20
4.0
 30
0.0
 70
0
  0
SEQEND
  5
B8
  8
ENGRAVE
  0
POLYLINE
  5
BB
  8
ENGRAVE
 66
1
 10
0.0
 20
0.0
 30
0.0
 70
0
  0
VERTEX
  5
BD
  8
ENGRAVE
 10
27.4
 20
4.0
 30
0.0
 70
0
  0
VERTEX
  5
BE
  8
ENGRAVE
 10
29.8
 20
4.0
 30
0.0
 70
0
  0
SEQEND
  5
BC
  8
ENGRAVE
  0
POLYLINE
  5
BF
  8
ENGRAVE
 66
1
 10
0.0
 20
0.0
 30
0.0
 70
0
  0
VERTEX
  5
C1
  8
ENGRAVE
 10
27.4
 20
6.0
 30
0.0
 70
0
  0
VERTEX
  5
C2
  8
ENGRAVE
 10
27.4
 20
4.0
 30
0.0
 70
0
  0
SEQEND
  5
C0
  8
ENGRAVE
  0
POLYLINE
  5
C3
  8
ENGRAVE
 66
1
 10
0.0
 20
0.0
 30
0.0
 70
0
  0
VERTEX
  5
C5
  8
ENGRAVE
 10
27.4
 20
8.0
 30
0.0
 70
0
  0
VERTEX
  5
C6
  8
ENGRAVE
 10
27.4
 20
6.0
 30
0.0
 70
0
  0
SEQEND
  5
C4
  8
ENGRAVE
  0
POLYLINE
  5
C7
  8
ENGRAVE
 66
1
 10
0.0
 20
0.0
 30
0.0
 70
0
  0
VERTEX
  5
C9
  8
ENGRAVE
 10
27.4
 20
6.0
 30
0.0
 70
0
  0
VERTEX
  5
CA
  8
ENGRAVE
 10
29.8
 20
6.0
 30
0.0
 70
0
  0
SEQEND
  5
C8
  8
ENGRAVE
  0
POLYLINE
  5
CB
  8
ENGRAVE
 66
1
 10
0.0
 20
0.0
 30
0.0
 70
0
  0
VERTEX
  5
CD
  8
ENGRAVE
 10
119.0
 20
20.0
 30
0.0
 70
0
  0
VERTEX
  5
CE
  8
ENGRAVE
 10
119.0
 20
15.200000000000003
 30
0.0
 70
0
  0
SEQEND
  5
CC
  8
ENGRAVE
  0
POLYLINE
  5
CF
  8
ENGRAVE
 66
1
 10
0.0
 20
0.0
 30
0.0
 70
0
  0
VERTEX
  5
D1
  8
ENGRAVE
 10
119.0
 20
15.200000000000003
 30
0.0
 70
0
  0
VERTEX
  5
D2
  8
ENGRAVE
 10
115.0
 20
15.200000000000003
 30
0.0
 70
0
  0
SEQEND
  5
D0
  8
ENGRAVE
  0
POLYLINE
  5
D3
  8
ENGRAVE
 66
1
 10
0.0
 20
0.0
 30
0.0
 70
0
  0
VERTEX
  5
D5
  8
ENGRAVE
 10
115.0
 20
20.0
 30
0.0
 70
0
  0
VERTEX
  5
D6
  8
ENGRAVE
 10
115.0
 20
15.200000000000003
 30
0.0
 70
0
  0
SEQEND
  5
D4
  8
ENGRAVE
  0
POLYLINE
  5
D7
  8
ENGRAVE
 66
1
 10
0.0
 20
0.0
 30
0.0
 70
0
  0
VERTEX
  5
D9
  8
ENGRAVE
 10
115.0
 20
20.0
 30
0.0
 70
0
  0
VERTEX
  5
DA
  8
ENGRAVE
 10
111.0
 20
20.0
 30
0.0
 70
0
  0
SEQEND
  5
D8
  8
ENGRAVE
  0
POLYLINE
  5
DB
  8
ENGRAVE
 66
1
 10
0.0
 20
0.0
 30
0.0
 70
0
  0
VERTEX
  5
DD
  8
ENGRAVE
 10
111.0
 20
20.0
 30
0.0
 70
0
  0
VERTEX
  5
DE
  8
ENGRAVE
 10
111.0
 20
15.200000000000003
 30
0.0
 70
0
  0
SEQEND
  5
DC
  8
ENGRAVE
  0
POLYLINE
  5
DF
  8
ENGRAVE
 66
1
 10
0.0
 20
0.0
 30
0.0
 70
0
  0
VERTEX
  5
E1
  8
ENGRAVE
 10
111.0
 20
13.600000000000001
 30
0.0
 70
0
  0
VERTEX
  5
E2
  8
ENGRAVE
 10
119.0
 20
8.799999999999997
 30
0.0
 70
0
  0
SEQEND
  5
E0
  8
ENGRAVE
  0
POLYLINE
  5
E3
  8
ENGRAVE
 66
1
 10
0.0
 20
0.0
 30
0.0
 70
0
  0
VERTEX
  5
E5
  8
ENGRAVE
 10
119.0
 20
7.200000000000003
 30
0.0
 70
0
  0
VERTEX
  5
E6
  8
ENGRAVE
 10
119.0
 20
2.3999999999999986
 30
0.0
 70
0
  0
SEQEND
  5
E4
  8
ENGRAVE
  0
POLYLINE
  5
E7
  8
ENGRAVE
 66
1
 10
0.0
 20
0.0
 30
0.0
 70
0
  0
VERTEX
  5
E9
  8
ENGRAVE
 10
119.0
 20
2.3999999999999986
 30
0.0
 70
0
  0
VERTEX
  5
EA
  8
ENGRAVE
 10
115.0
 20
2.3999999999999986
 30
0.0
 70
0
  0
SEQEND
  5
E8
  8
ENGRAVE
  0
POLYLINE
  5
EB
  8
ENGRAVE
 66
1
 10
0.0
 20
0.0
 30
0.0
 70
0
  0
VERTEX
  5
ED
  8
ENGRAVE
 10
115.0
 20
2.3999999999999986
 30
0.0
 70
0
  0
VERTEX
  5
EE
  8
ENGRAVE
 10
111.0
 20
2.3999999999999986
 30
0.0
 70
0
  0
SEQEND
  5
EC
  8
ENGRAVE
  0
POLYLINE
  5
EF
  8
ENGRAVE
 66
1
 10
0.0
 20
0.0
 30
0.0
 70
0
  0
VERTEX
  5
F1
  8
ENGRAVE
 10
115.0
 20
7.200000000000003
 30
0.0
 70
0
  0
VERTEX
  5
F2
  8
ENGRAVE
 10
111.0
 20
7.200000000000003
 30
0.0
 70
0
  0
SEQEND
  5
F0
  8
ENGRAVE
  0
POLYLINE
  5
F3
  8
ENGRAVE
 66
1
 10
0.0
 20
0.0
 30
0.0
 70
0
  0
VERTEX
  5
F5
  8
ENGRAVE
 10
119.0
 20
7.200000000000003
 30
0.0
 70
0
  0
VERTEX
  5
F6
  8
ENGRAVE
 10
115.0
 20
7.200000000000003
 30
0.0
 70
0
  0
SEQEND
  5
F4
  8
ENGRAVE
  0
POLYLINE
  5
F7
  8
ENGRAVE
 66
1
 10
0.0
 20
0.0
 30
0.0
 70
0
  0
VERTEX
  5
F9
  8
ENGRAVE
 10
115.0
 20
7.200000000000003
 30
0.0
 70
0
  0
VERTEX
  5
FA
  8
ENGRAVE
 10
115.0
 20
2.3999999999999986
 30
0.0
 70
0
  0
SEQEND
  5
F8
  8
ENGRAVE
  0
POLYLINE
  5
FB
  8
ENGRAVE
 66
1
 10
0.0
 20
0.0
 30
0.0
 70
0
  0
VERTEX
  5
FD
  8
ENGRAVE
 10
29.0
 20
20.0
 30
0.0
 70
0
  0
VERTEX
  5
FE
  8
ENGRAVE
 10
29.0
 20
15.200000000000003
 30
0.0
 70
0
  0
SEQEND
  5
FC
  8
ENGRAVE
  0
POLYLINE
  5
FF
  8
ENGRAVE
 66
1
 10
0.0
 20
0.0
 30
0.0
 70
0
  0
VERTEX
  5
101
  8
ENGRAVE
 10
29.0
 20
15.200000000000003
 30
0.0
 70
0
  0
VERTEX
  5
102
  8
ENGRAVE
 10
25.0
 20
15.200000000000003
 30
0.0
 70
0
  0
SEQEND
  5
100
  8
ENGRAVE
  0
POLYLINE
  5
103
  8
ENGRAVE
 66
1
 10
0.0
 20
0.0
 30
0.0
 70
0
  0
VERTEX
  5
105
  8
ENGRAVE
 10
25.0
 20
20.0
 30
0.0
 70
0
  0
VERTEX
  5
106
  8
ENGRAVE
 10
25.0
 20
15.200000000000003
 30
0.0
 70
0
  0
SEQEND
  5
104
  8
ENGRAVE
  0
POLYLINE
  5
107
  8
ENGRAVE
 66
1
 10
0.0
 20
0.0
 30
0.0
 70
0
  0
VERTEX
  5
109
  8
ENGRAVE
 10
25.0
 20
20.0
 30
0.0
 70
0
  0
VERTEX
  5
10A
  8
ENGRAVE
 10
21.0
 20
20.0
 30
0.0
 70
0
  0
SEQEND
  5
108
  8
ENGRAVE
  0
POLYLINE
  5
10B
  8
ENGRAVE
 66
1
 10
0.0
 20
0.0
 30
0.0
 70
0
  0
VERTEX
  5
10D
  8
ENGRAVE
 10
21.0
 20
20.0
 30
0.0
 70
0
  0
VERTEX
  5
10E
  8
ENGRAVE
 10
21.0
 20
15.200000000000003
 30
0.0
 70
0
  0
SEQEND
  5
10C
  8
ENGRAVE
  0
POLYLINE
  5
10F
  8
ENGRAVE
 66
1
 10
0.0
 20
0.0
 30
0.0
 70
0
  0
VERTEX
  5
111
  8
ENGRAVE
 10
21.0
 20
13.600000000000001
 30
0.0
 70
0
  0
VERTEX
  5
112
  8
ENGRAVE
 10
29.0
 20
8.799999999999997
 30
0.0
 70
0
  0
SEQEND
  5
110
  8
ENGRAVE
  0
POLYLINE
  5
113
  8
ENGRAVE
 66
1
 10
0.0
 20
0.0
 30
0.0
 70
0
  0
VERTEX
  5
115
  8
ENGRAVE
 10
25.0
 20
2.3999999999999986
 30
0.0
 70
0
  0
VERTEX
  5
116
  8
ENGRAVE
 10
21.0
 20
2.3999999999999986
 30
0.0
 70
0
  0
SEQEND
  5
114
  8
ENGRAVE
  0
POLYLINE
  5
117
  8
ENGRAVE
 66
1
 10
0.0
 20
0.0
 30
0.0
 70
0
  0
VERTEX
  5
119
  8
ENGRAVE
 10
21.0
 20
7.200000000000003
 30
0.0
 70
0
  0
VERTEX
  5
11A
  8
ENGRAVE
 10
21.0
 20
2.3999999999999986
 30
0.0
 70
0
  0
SEQEND
  5
118
  8
ENGRAVE
  0
POLYLINE
  5
11B
  8
ENGRAVE
 66
1
 10
0.0
 20
0.0
 30
0.0
 70
0
  0
VERTEX
  5
11D
  8
ENGRAVE
 10
25.0
 20
7.200000000000003
 30
0.0
 70
0
  0
VERTEX
  5
11E
  8
ENGRAVE
 10
21.0
 20
7.200000000000003
 30
0.0
 70
0
  0
SEQEND
  5
11C
  8
ENGRAVE
  0
POLYLINE
  5
11F
  8
ENGRAVE
 66
1
 10
0.0
 20
0.0
 30
0.0
 70
0
  0
VERTEX
  5
121
  8
ENGRAVE
 10
29.0
 20
7.200000000000003
 30
0.0
 70
0
  0
VERTEX
  5
122
  8
ENGRAVE
 10
25.0
 20
7.200000000000003
 30
0.0
 70
0
  0
SEQEND
  5
120
  8
ENGRAVE
  0
POLYLINE
  5
123
  8
ENGRAVE
 66
1
 10
0.0
 20
0.0
 30
0.0
 70
0
  0
VERTEX
  5
125
  8
ENGRAVE
 10
25.0
 20
7.200000000000003
 30
0.0
 70
0
  0
VERTEX
  5
126
  8
ENGRAVE
 10
25.0
 20
2.3999999999999986
 30
0.0
 70
0
  0
SEQEND
  5
124
  8
ENGRAVE
  0
POLYLINE
  5
127
  8
ENGRAVE
 66
1
 10
0.0
 20
0.0
 30
0.0
 70
0
  0
VERTEX
  5
129
  8
ENGRAVE
 10
119.0
 20
32.0
 30
0.0
 70
0
  0
VERTEX
  5
12A
  8
ENGRAVE
 10
119.0
 20
27.2
 30
0.0
 70
0
  0
SEQEND
  5
128
  8
ENGRAVE
  0
POLYLINE
  5
12B
  8
ENGRAVE
 66
1
 10
0.0
 20
0.0
 30
0.0
 70
0
  0
VERTEX
  5
12D
  8
ENGRAVE
 10
119.0
 20
27.2
 30
0.0
 70
0
  0
VERTEX
  5
12E
  8
ENGRAVE
 10
115.0
 20
27.2
 30
0.0
 70
0
  0
SEQEND
  5
12C
  8
ENGRAVE
  0
POLYLINE
  5
12F
  8
ENGRAVE
 66
1
 10
0.0
 20
0.0
 30
0.0
 70
0
  0
VERTEX
  5
131
  8
ENGRAVE
 10
115.0
 20
32.0
 30
0.0
 70
0
  0
VERTEX
  5
132
  8
ENGRAVE
 10
115.0
 20
27.2
 30
0.0
 70
0
  0
SEQEND
  5
130
  8
ENGRAVE
  0
POLYLINE
  5
133
  8
ENGRAVE
 66
1
 10
0.0
 20
0.0
 30
0.0
 70
0
  0
VERTEX
  5
135
  8
ENGRAVE
 10
115.0
 20
27.2
 30
0.0
 70
0
  0
VERTEX
  5
136
  8
ENGRAVE
 10
111.0
 20
27.2
 30
0.0
 70
0
  0
SEQEND
  5
134
  8
ENGRAVE
  0
POLYLINE
  5
137
  8
ENGRAVE
 66
1
 10
0.0
 20
0.0
 30
0.0
 70
0
  0
VERTEX
  5
139
  8
ENGRAVE
 10
111.0
 20
32.0
 30
0.0
 70
0
  0
VERTEX
  5
13A
  8
ENGRAVE
 10
111.0
 20
27.2
 30
0.0
 70
0
  0
SEQEND
  5
138
  8
ENGRAVE
  0
POLYLINE
  5
13B
  8
ENGRAVE
 66
1
 10
0.0
 20
0.0
 30
0.0
 70
0
  0
VERTEX
  5
13D
  8
ENGRAVE
 10
111.0
 20
25.6
 30
0.0
 70
0
  0
VERTEX
  5
13E
  8
ENGRAVE
 10
119.0
 20
20.799999999999997
 30
0.0
 70
0
  0
SEQEND
  5
13C
  8
ENGRAVE
  0
POLYLINE
  5
13F
  8
ENGRAVE
 66
1
 10
0.0
 20
0.0
 30
0.0
 70
0
  0
VERTEX
  5
141
  8
ENGRAVE
 10
119.0
 20
19.200000000000003
 30
0.0
 70
0
  0
VERTEX
  5
142
  8
ENGRAVE
 10
119.0
 20
14.399999999999999
 30
0.0
 70
0
  0
SEQEND
  5
140
  8
ENGRAVE
  0
POLYLINE
  5
143
  8
ENGRAVE
 66
1
 10
0.0
 20
0.0
 30
0.0
 70
0
  0
VERTEX
  5
145
  8
ENGRAVE
 10
119.0
 20
14.399999999999999
 30
0.0
 70
0
  0
VERTEX
  5
146
  8
ENGRAVE
 10
115.0
 20
14.399999999999999
 30
0.0
 70
0
  0
SEQEND
  5
144
  8
ENGRAVE
  0
POLYLINE
  5
147
  8
ENGRAVE
 66
1
 10
0.0
 20
0.0
 30
0.0
 70
0
  0
VERTEX
  5
149
  8
ENGRAVE
 10
115.0
 20
14.399999999999999
 30
0.0
 70
0
  0
VERTEX
  5
14A
  8
ENGRAVE
 10
111.0
 20
14.399999999999999
 30
0.0
 70
0
  0
SEQEND
  5
148
  8
ENGRAVE
  0
POLYLINE
  5
14B
  8
ENGRAVE
 66
1
 10
0.0
 20
0.0
 30
0.0
 70
0
  0
VERTEX
  5
14D
  8
ENGRAVE
 10
115.0
 20
19.200000000000003
 30
0.0
 70
0
  0
VERTEX
  5
14E
  8
ENGRAVE
 10
111.0
 20
19.200000000000003
 30
0.0
 70
0
  0
SEQEND
  5
14C
  8
ENGRAVE
  0
POLYLINE
  5
14F
  8
ENGRAVE
 66
1
 10
0.0
 20
0.0
 30
0.0
 70
0
  0
VERTEX
  5
151
  8
ENGRAVE
 10
119.0
 20
19.200000000000003
 30
0.0
 70
0
  0
VERTEX
  5
152
  8
ENGRAVE
 10
115.0
 20
19.200000000000003
 30
0.0
 70
0
  0
SEQEND
  5
150
  8
ENGRAVE
  0
POLYLINE
  5
153
  8
ENGRAVE
 66
1
 10
0.0
 20
0.0
 30
0.0
 70
0
  0
VERTEX
  5
155
  8
ENGRAVE
 10
115.0
 20
19.200000000000003
 30
0.0
 70
0
  0
VERTEX
  5
156
  8
ENGRAVE
 10
115.0
 20
14.399999999999999
 30
0.0
 70
0
  0
SEQEND
  5
154
  8
ENGRAVE
  0
POLYLINE
  5
157
  8
ENGRAVE
 66
1
 10
0.0
 20
0.0
 30
0.0
 70
0
  0
VERTEX
  5
159
  8
ENGRAVE
 10
29.0
 20
32.0
 30
0.0
 70
0
  0
VERTEX
  5
15A
  8
ENGRAVE
 10
29.0
 20
27.2
 30
0.0
 70
0
  0
SEQEND
  5
158
  8
ENGRAVE
  0
POLYLINE
  5
15B
  8
ENGRAVE
 66
1
 10
0.0
 20
0.0
 30
0.0
 70
0
  0
VERTEX
  5
15D
  8
ENGRAVE
 10
29.0
 20
27.2
 30
0.0
 70
0
  0
VERTEX
  5
15E
  8
ENGRAVE
 10
25.0
 20
27.2
 30
0.0
 70
0
  0
SEQEND
  5
15C
  8
ENGRAVE
  0
POLYLINE
  5
15F
  8
ENGRAVE
 66
1
 10
0.0
 20
0.0
 30
0.0
 70
0
  0
VERTEX
  5
161
  8
ENGRAVE
 10
25.0
 20
32.0
 30
0.0
 70
0
  0
VERTEX
  5
162
  8
ENGRAVE
 10
25.0
 20
27.2
 30
0.0
 70
0
  0
SEQEND
  5
160
  8
ENGRAVE
  0
POLYLINE
  5
163
  8
ENGRAVE
 66
1
 10
0.0
 20
0.0
 30
0.0
 70
0
  0
VERTEX
  5
165
  8
ENGRAVE
 10
25.0
 20
27.2
 30
0.0
 70
0
  0
VERTEX
  5
166
  8
ENGRAVE
 10
21.0
 20
27.2
 30
0.0
 70
0
  0
SEQEND
  5
164
  8
ENGRAVE
  0
POLYLINE
  5
167
  8
ENGRAVE
 66
1
 10
0.0
 20
0.0
 30
0.0
 70
0
  0
VERTEX
  5
169
  8
ENGRAVE
 10
21.0
 20
32.0
 30
0.0
 70
0
  0
VERTEX
  5
16A
  8
ENGRAVE
 10
21.0
 20
27.2
 30
0.0
 70
0
  0
SEQEND
  5
168
  8
ENGRAVE
  0
POLYLINE
  5
16B
  8
ENGRAVE
 66
1
 10
0.0
 20
0.0
 30
0.0
 70
0
  0
VERTEX
  5
16D
  8
ENGRAVE
 10
21.0
 20
25.6
 30
0.0
 70
0
  0
VERTEX
  5
16E
  8
ENGRAVE
 10
29.0
 20
20.799999999999997
 30
0.0
 70
0
  0
SEQEND
  5
16C
  8
ENGRAVE
  0
POLYLINE
  5
16F
  8
ENGRAVE
 66
1
 10
0.0
 20
0.0
 30
0.0
 70
0
  0
VERTEX
  5
171
  8
ENGRAVE
 10
25.0
 20
14.399999999999999
 30
0.0
 70
0
  0
VERTEX
  5
172
  8
ENGRAVE
 10
21.0
 20
14.399999999999999
 30
0.0
 70
0
  0
SEQEND
  5
170
  8
ENGRAVE
  0
POLYLINE
  5
173
  8
ENGRAVE
 66
1
 10
0.0
 20
0.0
 30
0.0
 70
0
  0
VERTEX
  5
175
  8
ENGRAVE
 10
21.0
 20
19.200000000000003
 30
0.0
 70
0
  0
VERTEX
  5
176
  8
ENGRAVE
 10
21.0
 20
14.399999999999999
 30
0.0
 70
0
  0
SEQEND
  5
174
  8
ENGRAVE
  0
POLYLINE
  5
177
  8
ENGRAVE
 66
1
 10
0.0
 20
0.0
 30
0.0
 70
0
  0
VERTEX
  5
179
  8
ENGRAVE
 10
25.0
 20
19.200000000000003
 30
0.0
 70
0
  0
VERTEX
  5
17A
  8
ENGRAVE
 10
21.0
 20
19.200000000000003
 30
0.0
 70
0
  0
SEQEND
  5
178
  8
ENGRAVE
  0
POLYLINE
  5
17B
  8
ENGRAVE
 66
1
 10
0.0
 20
0.0
 30
0.0
 70
0
  0
VERTEX
  5
17D
  8
ENGRAVE
 10
29.0
 20
19.200000000000003
 30
0.0
 70
0
  0
VERTEX
  5
17E
  8
ENGRAVE
 10
25.0
 20
19.200000000000003
 30
0.0
 70
0
  0
SEQEND
  5
17C
  8
ENGRAVE
  0
POLYLINE
  5
17F
  8
ENGRAVE
 66
1
 10
0.0
 20
0.0
 30
0.0
 70
0
  0
VERTEX
  5
181
  8
ENGRAVE
 10
25.0
 20
19.200000000000003
 30
0.0
 70
0
  0
VERTEX
  5
182
  8
ENGRAVE
 10
25.0
 20
14.399999999999999
 30
0.0
 70
0
  0
SEQEND
  5
180
  8
ENGRAVE
  0
POLYLINE
  5
183
  8
ENGRAVE
 66
1
 10
0.0
 20
0.0
 30
0.0
 70
0
  0
VERTEX
  5
185
  8
ENGRAVE
 10
119.0
 20
44.0
 30
0.0
 70
0
  0
VERTEX
  5
186
  8
ENGRAVE
 10
115.0
 20
44.0
 30
0.0
 70
0
  0
SEQEND
  5
184
  8
ENGRAVE
  0
POLYLINE
  5
187
  8
ENGRAVE
 66
1
 10
0.0
 20
0.0
 30
0.0
 70
0
  0
VERTEX
  5
189
  8
ENGRAVE
 10
115.0
 20
44.0
 30
0.0
 70
0
  0
VERTEX
  5
18A
  8
ENGRAVE
 10
115.0
 20
39.2
 30
0.0
 70
0
  0
SEQEND
  5
188
  8
ENGRAVE
  0
POLYLINE
  5
18B
  8
ENGRAVE
 66
1
 10
0.0
 20
0.0
 30
0.0
 70
0
  0
VERTEX
  5
18D
  8
ENGRAVE
 10
119.0
 20
39.2
 30
0.0
 70
0
  0
VERTEX
  5
18E
  8
ENGRAVE
 10
115.0
 20
39.2
 30
0.0
 70
0
  0
SEQEND
  5
18C
  8
ENGRAVE
  0
POLYLINE
  5
18F
  8
ENGRAVE
 66
1
 10
0.0
 20
0.0
 30
0.0
 70
0
  0
VERTEX
  5
191
  8
ENGRAVE
 10
115.0
 20
39.2
 30
0.0
 70
0
  0
VERTEX
  5
192
  8
ENGRAVE
 10
111.0
 20
39.2
 30
0.0
 70
0
  0
SEQEND
  5
190
  8
ENGRAVE
  0
POLYLINE
  5
193
  8
ENGRAVE
 66
1
 10
0.0
 20
0.0
 30
0.0
 70
0
  0
VERTEX
  5
195
  8
ENGRAVE
 10
111.0
 20
37.6
 30
0.0
 70
0
  0
VERTEX
  5
196
  8
ENGRAVE
 10
119.0
 20
32.8
 30
0.0
 70
0
  0
SEQEND
  5
194
  8
ENGRAVE
  0
POLYLINE
  5
197
  8
ENGRAVE
 66
1
 10
0.0
 20
0.0
 30
0.0
 70
0
  0
VERTEX
  5
199
  8
ENGRAVE
 10
119.0
 20
31.2
 30
0.0
 70
0
  0
VERTEX
  5
19A
  8
ENGRAVE
 10
119.0
 20
26.4
 30
0.0
 70
0
  0
SEQEND
  5
198
  8
ENGRAVE
  0
POLYLINE
  5
19B
  8
ENGRAVE
 66
1
 10
0.0
 20
0.0
 30
0.0
 70
0
  0
VERTEX
  5
19D
  8
ENGRAVE
 10
119.0
 20
26.4
 30
0.0
 70
0
  0
VERTEX
  5
19E
  8
ENGRAVE
 10
115.0
 20
26.4
 30
0.0
 70
0
  0
SEQEND
  5
19C
  8
ENGRAVE
  0
POLYLINE
  5
19F
  8
ENGRAVE
 66
1
 10
0.0
 20
0.0
 30
0.0
 70
0
  0
VERTEX
  5
1A1
  8
ENGRAVE
 10
115.0
 20
26.4
 30
0.0
 70
0
  0
VERTEX
  5
1A2
  8
ENGRAVE
 10
111.0
 20
26.4
 30
0.0
 70
0
  0
SEQEND
  5
1A0
  8
ENGRAVE
  0
POLYLINE
  5
1A3
  8
ENGRAVE
 66
1
 10
0.0
 20
0.0
 30
0.0
 70
0
  0
VERTEX
  5
1A5
  8
ENGRAVE
 10
115.0
 20
31.2
 30
0.0
 70
0
  0
VERTEX
  5
1A6
  8
ENGRAVE
 10
111.0
 20
31.2
 30
0.0
 70
0
  0
SEQEND
  5
1A4
  8
ENGRAVE
  0
POLYLINE
  5
1A7
  8
ENGRAVE
 66
1
 10
0.0
 20
0.0
 30
0.0
 70
0
  0
VERTEX
  5
1A9
  8
ENGRAVE
 10
119.0
 20
31.2
 30
0.0
 70
0
  0
VERTEX
  5
1AA
  8
ENGRAVE
 10
115.0
 20
31.2
 30
0.0
 70
0
  0
SEQEND
  5
1A8
  8
ENGRAVE
  0
POLYLINE
  5
1AB
  8
ENGRAVE
 66
1
 10
0.0
 20
0.0
 30
0.0
 70
0
  0
VERTEX
  5
1AD
  8
ENGRAVE
 10
115.0
 20
31.2
 30
0.0
 70
0
  0
VERTEX
  5
1AE
  8
ENGRAVE
 10
115.0
 20
26.4
 30
0.0
 70
0
  0
SEQEND
  5
1AC
  8
ENGRAVE
  0
POLYLINE
  5
1AF
  8
ENGRAVE
 66
1
 10
0.0
 20
0.0
 30
0.0
 70
0
  0
VERTEX
  5
1B1
  8
ENGRAVE
 10
29.0
 20
44.0
 30
0.0
 70
0
  0
VERTEX
  5
1B2
  8
ENGRAVE
 10
25.0
 20
44.0
 30
0.0
 70
0
  0
SEQEND
  5
1B0
  8
ENGRAVE
  0
POLYLINE
  5
1B3
  8
ENGRAVE
 66
1
 10
0.0
 20
0.0
 30
0.0
 70
0
  0
VERTEX
  5
1B5
  8
ENGRAVE
 10
25.0
 20
44.0
 30
0.0
 70
0
  0
VERTEX
  5
1B6
  8
ENGRAVE
 10
25.0
 20
39.2
 30
0.0
 70
0
  0
SEQEND
  5
1B4
  8
ENGRAVE
  0
POLYLINE
  5
1B7
  8
ENGRAVE
 66
1
 10
0.0
 20
0.0
 30
0.0
 70
0
  0
VERTEX
  5
1B9
  8
ENGRAVE
 10
29.0
 20
39.2
 30
0.0
 70
0
  0
VERTEX
  5
1BA
  8
ENGRAVE
 10
25.0
 20
39.2
 30
0.0
 70
0
  0
SEQEND
  5
1B8
  8
ENGRAVE
  0
POLYLINE
  5
1BB
  8
ENGRAVE
 66
1
 10
0.0
 20
0.0
 30
0.0
 70
0
  0
VERTEX
  5
1BD
  8
ENGRAVE
 10
25.0
 20
39.2
 30
0.0
 70
0
  0
VERTEX
  5
1BE
  8
ENGRAVE
 10
21.0
 20
39.2
 30
0.0
 70
0
  0
SEQEND
  5
1BC
  8
ENGRAVE
  0
POLYLINE
  5
1BF
  8
ENGRAVE
 66
1
 10
0.0
 20
0.0
 30
0.0
 70
0
  0
VERTEX
  5
1C1
  8
ENGRAVE
 10
21.0
 20
37.6
 30
0.0
 70
0
  0
VERTEX
  5
1C2
  8
ENGRAVE
 10
29.0
 20
32.8
 30
0.0
 70
0
  0
SEQEND
  5
1C0
  8
ENGRAVE
  0
POLYLINE
  5
1C3
  8
ENGRAVE
 66
1
 10
0.0
 20
0.0
 30
0.0
 70
0
  0
VERTEX
  5
1C5
  8
ENGRAVE
 10
25.0
 20
26.4
 30
0.0
 70
0
  0
VERTEX
  5
1C6
  8
ENGRAVE
 10
21.0
 20
26.4
 30
0.0
 70
0
  0
SEQEND
  5
1C4
  8
ENGRAVE
  0
POLYLINE
  5
1C7
  8
ENGRAVE
 66
1
 10
0.0
 20
0.0
 30
0.0
 70
0
  0
VERTEX
  5
1C9
  8
ENGRAVE
 10
21.0
 20
31.2
 30
0.0
 70
0
  0
VERTEX
  5
1CA
  8
ENGRAVE
 10
21.0
 20
26.4
 30
0.0
 70
0
  0
SEQEND
  5
1C8
  8
ENGRAVE
  0
POLYLINE
  5
1CB
  8
ENGRAVE
 66
1
 10
0.0
 20
0.0
 30
0.0
 70
0
  0
VERTEX
  5
1CD
  8
ENGRAVE
 10
25.0
 20
31.2
 30
0.0
 70
0
  0
VERTEX
  5
1CE
  8
ENGRAVE
 10
21.0
 20
31.2
 30
0.0
 70
0
  0
SEQEND
  5
1CC
  8
ENGRAVE
  0
POLYLINE
  5
1CF
  8
ENGRAVE
 66
1
 10
0.0
 20
0.0
 30
0.0
 70
0
  0
VERTEX
  5
1D1
  8
ENGRAVE
 10
29.0
 20
31.2
 30
0.0
 70
0
  0
VERTEX
  5
1D2
  8
ENGRAVE
 10
25.0
 20
31.2
 30
0.0
 70
0
  0
SEQEND
  5
1D0
  8
ENGRAVE
  0
POLYLINE
  5
1D3
  8
ENGRAVE
 66
1
 10
0.0
 20
0.0
 30
0.0
 70
0
  0
VERTEX
  5
1D5
  8
ENGRAVE
 10
25.0
 20
31.2
 30
0.0
 70
0
  0
VERTEX
  5
1D6
  8
ENGRAVE
 10
25.0
 20
26.4
 30
0.0
 70
0
  0
SEQEND
  5
1D4
  8
ENGRAVE
  0
POLYLINE
  5
1D7
  8
ENGRAVE
 66
1
 10
0.0
 20
0.0
 30
0.0
 70
0
  0
VERTEX
  5
1D9
  8
ENGRAVE
 10
119.0
 20
56.0
 30
0.0
 70
0
  0
VERTEX
  5
1DA
  8
ENGRAVE
 10
119.0
 20
51.2
 30
0.0
 70
0
  0
SEQEND
  5
1D8
  8
ENGRAVE
  0
POLYLINE
  5
1DB
  8
ENGRAVE
 66
1
 10
0.0
 20
0.0
 30
0.0
 70
0
  0
VERTEX
  5
1DD
  8
ENGRAVE
 10
119.0
 20
56.0
 30
0.0
 70
0
  0
VERTEX
  5
1DE
  8
ENGRAVE
 10
115.0
 20
56.0
 30
0.0
 70
0
  0
SEQEND
  5
1DC
  8
ENGRAVE
  0
POLYLINE
  5
1DF
  8
ENGRAVE
 66
1
 10
0.0
 20
0.0
 30
0.0
 70
0
  0
VERTEX
  5
1E1
  8
ENGRAVE
 10
115.0
 20
56.0
 30
0.0
 70
0
  0
VERTEX
  5
1E2
  8
ENGRAVE
 10
115.0
 20
51.2
 30
0.0
 70
0
  0
SEQEND
  5
1E0
  8
ENGRAVE
  0
POLYLINE
  5
1E3
  8
ENGRAVE
 66
1
 10
0.0
 20
0.0
 30
0.0
 70
0
  0
VERTEX
  5
1E5
  8
ENGRAVE
 10
115.0
 20
51.2
 30
0.0
 70
0
  0
VERTEX
  5
1E6
  8
ENGRAVE
 10
111.0
 20
51.2
 30
0.0
 70
0
  0
SEQEND
  5
1E4
  8
ENGRAVE
  0
POLYLINE
  5
1E7
  8
ENGRAVE
 66
1
 10
0.0
 20
0.0
 30
0.0
 70
0
  0
VERTEX
  5
1E9
  8
ENGRAVE
 10
111.0
 20
56.0
 30
0.0
 70
0
  0
VERTEX
  5
1EA
  8
ENGRAVE
 10
111.0
 20
51.2
 30
0.0
 70
0
  0
SEQEND
  5
1E8
  8
ENGRAVE
  0
POLYLINE
  5
1EB
  8
ENGRAVE
 66
1
 10
0.0
 20
0.0
 30
0.0
 70
0
  0
VERTEX
  5
1ED
  8
ENGRAVE
 10
111.0
 20
49.6
 30
0.0
 70
0
  0
VERTEX
  5
1EE
  8
ENGRAVE
 10
119.0
 20
44.8
 30
0.0
 70
0
  0
SEQEND
  5
1EC
  8
ENGRAVE
  0
POLYLINE
  5
1EF
  8
ENGRAVE
 66
1
 10
0.0
 20
0.0
 30
0.0
 70
0
  0
VERTEX
  5
1F1
  8
ENGRAVE
 10
119.0
 20
43.2
 30
0.0
 70
0
  0
VERTEX
  5
1F2
  8
ENGRAVE
 10
119.0
 20
38.4
 30
0.0
 70
0
  0
SEQEND
  5
1F0
  8
ENGRAVE
  0
POLYLINE
  5
1F3
  8
ENGRAVE
 66
1
 10
0.0
 20
0.0
 30
0.0
 70
0
  0
VERTEX
  5
1F5
  8
ENGRAVE
 10
119.0
 20
38.4
 30
0.0
 70
0
  0
VERTEX
  5
1F6
  8
ENGRAVE
 10
115.0
 20
38.4
 30
0.0
 70
0
  0
SEQEND
  5
1F4
  8
ENGRAVE
  0
POLYLINE
  5
1F7
  8
ENGRAVE
 66
1
 10
0.0
 20
0.0
 30
0.0
 70
0
  0
VERTEX
  5
1F9
  8
ENGRAVE
 10
115.0
 20
38.4
 30
0.0
 70
0
  0
VERTEX
  5
1FA
  8
ENGRAVE
 10
111.0
 20
38.4
 30
0.0
 70
0
  0
SEQEND
  5
1F8
  8
ENGRAVE
  0
POLYLINE
  5
1FB
  8
ENGRAVE
 66
1
 10
0.0
 20
0.0
 30
0.0
 70
0
  0
VERTEX
  5
1FD
  8
ENGRAVE
 10
115.0
 20
43.2
 30
0.0
 70
0
  0
VERTEX
  5
1FE
  8
ENGRAVE
 10
111.0
 20
43.2
 30
0.0
 70
0
  0
SEQEND
  5
1FC
  8
ENGRAVE
  0
POLYLINE
  5
1FF
  8
ENGRAVE
 66
1
 10
0.0
 20
0.0
 30
0.0
 70
0
  0
VERTEX
  5
201
  8
ENGRAVE
 10
119.0
 20
43.2
 30
0.0
 70
0
  0
VERTEX
  5
202
  8
ENGRAVE
 10
115.0
 20
43.2
 30
0.0
 70
0
  0
SEQEND
  5
200
  8
ENGRAVE
  0
POLYLINE
  5
203
  8
ENGRAVE
 66
1
 10
0.0
 20
0.0
 30
0.0
 70
0
  0
VERTEX
  5
205
  8
ENGRAVE
 10
115.0
 20
43.2
 30
0.0
 70
0
  0
VERTEX
  5
206
  8
ENGRAVE
 10
115.0
 20
38.4
 30
0.0
 70
0
  0
SEQEND
  5
204
  8
ENGRAVE
  0
POLYLINE
  5
207
  8
ENGRAVE
 66
1
 10
0.0
 20
0.0
 30
0.0
 70
0
  0
VERTEX
  5
209
  8
ENGRAVE
 10
29.0
 20
56.0
 30
0.0
 70
0
  0
VERTEX
  5
20A
  8
ENGRAVE
 10
29.0
 20
51.2
 30
0.0
 70
0
  0
SEQEND
  5
208
  8
ENGRAVE
  0
POLYLINE
  5
20B
  8
ENGRAVE
 66
1
 10
0.0
 20
0.0
 30
0.0
 70
0
  0
VERTEX
  5
20D
  8
ENGRAVE
 10
29.0
 20
56.0
 30
0.0
 70
0
  0
VERTEX
  5
20E
  8
ENGRAVE
 10
25.0
 20
56.0
 30
0.0
 70
0
  0
SEQEND
  5
20C
  8
ENGRAVE
  0
POLYLINE
  5
20F
  8
ENGRAVE
 66
1
 10
0.0
 20
0.0
 30
0.0
 70
0
  0
VERTEX
  5
211
  8
ENGRAVE
 10
25.0
 20
56.0
 30
0.0
 70
0
  0
VERTEX
  5
212
  8
ENGRAVE
 10
25.0
 20
51.2
 30
0.0
 70
0
  0
SEQEND
  5
210
  8
ENGRAVE
  0
POLYLINE
  5
213
  8
ENGRAVE
 66
1
 10
0.0
 20
0.0
 30
0.0
 70
0
  0
VERTEX
  5
215
  8
ENGRAVE
 10
25.0
 20
51.2
 30
0.0
 70
0
  0
VERTEX
  5
216
  8
ENGRAVE
 10
21.0
 20
51.2
 30
0.0
 70
0
  0
SEQEND
  5
214
  8
ENGRAVE
  0
POLYLINE
  5
217
  8
ENGRAVE
 66
1
 10
0.0
 20
0.0
 30
0.0
 70
0
  0
VERTEX
  5
219
  8
ENGRAVE
 10
21.0
 20
56.0
 30
0.0
 70
0
  0
VERTEX
  5
21A
  8
ENGRAVE
 10
21.0
 20
51.2
 30
0.0
 70
0
  0
SEQEND
  5
218
  8
ENGRAVE
  0
POLYLINE
  5
21B
  8
ENGRAVE
 66
1
 10
0.0
 20
0.0
 30
0.0
 70
0
  0
VERTEX
  5
21D
  8
ENGRAVE
 10
21.0
 20
49.6
 30
0.0
 70
0
  0
VERTEX
  5
21E
  8
ENGRAVE
 10
29.0
 20
44.8
 30
0.0
 70
0
  0
SEQEND
  5
21C
  8
ENGRAVE
  0
POLYLINE
  5
21F
  8
ENGRAVE
 66
1
 10
0.0
 20
0.0
 30
0.0
 70
0
  0
VERTEX
  5
221
  8
ENGRAVE
 10
25.0
 20
38.4
 30
0.0
 70
0
  0
VERTEX
  5
222
  8
ENGRAVE
 10
21.0
 20
38.4
 30
0.0
 70
0
  0
SEQEND
  5
220
  8
ENGRAVE
  0
POLYLINE
  5
223
  8
ENGRAVE
 66
1
 10
0.0
 20
0.0
 30
0.0
 70
0
  0
VERTEX
  5
225
  8
ENGRAVE
 10
21.0
 20
43.2
 30
0.0
 70
0
  0
VERTEX
  5
226
  8
ENGRAVE
 10
21.0
 20
38.4
 30
0.0
 70
0
  0
SEQEND
  5
224
  8
ENGRAVE
  0
POLYLINE
  5
227
  8
ENGRAVE
 66
1
 10
0.0
 20
0.0
 30
0.0
 70
0
  0
VERTEX
  5
229
  8
ENGRAVE
 10
25.0
 20
43.2
 30
0.0
 70
0
  0
VERTEX
  5
22A
  8
ENGRAVE
 10
21.0
 20
43.2
 30
0.0
 70
0
  0
SEQEND
  5
228
  8
ENGRAVE
  0
POLYLINE
  5
22B
  8
ENGRAVE
 66
1
 10
0.0
 20
0.0
 30
0.0
 70
0
  0
VERTEX
  5
22D
  8
ENGRAVE
 10
29.0
 20
43.2
 30
0.0
 70
0
  0
VERTEX
  5
22E
  8
ENGRAVE
 10
25.0
 20
43.2
 30
0.0
 70
0
  0
SEQEND
  5
22C
  8
ENGRAVE
  0
POLYLINE
  5
22F
  8
ENGRAVE
 66
1
 10
0.0
 20
0.0
 30
0.0
 70
0
  0
VERTEX
  5
231
  8
ENGRAVE
 10
25.0
 20
43.2
 30
0.0
 70
0
  0
VERTEX
  5
232
  8
ENGRAVE
 10
25.0
 20
38.4
 30
0.0
 70
0
  0
SEQEND
  5
230
  8
ENGRAVE
  0
POLYLINE
  5
233
  8
ENGRAVE
 66
1
 10
0.0
 20
0.0
 30
0.0
 70
0
  0
VERTEX
  5
235
  8
ENGRAVE
 10
119.0
 20
68.0
 30
0.0
 70
0
  0
VERTEX
  5
236
  8
ENGRAVE
 10
119.0
 20
63.2
 30
0.0
 70
0
  0
SEQEND
  5
234
  8
ENGRAVE
  0
POLYLINE
  5
237
  8
ENGRAVE
 66
1
 10
0.0
 20
0.0
 30
0.0
 70
0
  0
VERTEX
  5
239
  8
ENGRAVE
 10
119.0
 20
68.0
 30
0.0
 70
0
  0
VERTEX
  5
23A
  8
ENGRAVE
 10
115.0
 20
68.0
 30
0.0
 70
0
  0
SEQEND
  5
238
  8
ENGRAVE
  0
POLYLINE
  5
23B
  8
ENGRAVE
 66
1
 10
0.0
 20
0.0
 30
0.0
 70
0
  0
VERTEX
  5
23D
  8
ENGRAVE
 10
115.0
 20
68.0
 30
0.0
 70
0
  0
VERTEX
  5
23E
  8
ENGRAVE
 10
115.0
 20
63.2
 30
0.0
 70
0
  0
SEQEND
  5
23C
  8
ENGRAVE
  0
POLYLINE
  5
23F
  8
ENGRAVE
 66
1
 10
0.0
 20
0.0
 30
0.0
 70
0
  0
VERTEX
  5
241
  8
ENGRAVE
 10
115.0
 20
68.0
 30
0.0
 70
0
  0
VERTEX
  5
242
  8
ENGRAVE
 10
111.0
 20
68.0
 30
0.0
 70
0
  0
SEQEND
  5
240
  8
ENGRAVE
  0
POLYLINE
  5
243
  8
ENGRAVE
 66
1
 10
0.0
 20
0.0
 30
0.0
 70
0
  0
VERTEX
  5
245
  8
ENGRAVE
 10
115.0
 20
63.2
 30
0.0
 70
0
  0
VERTEX
  5
246
  8
ENGRAVE
 10
111.0
 20
63.2
 30
0.0
 70
0
  0
SEQEND
  5
244
  8
ENGRAVE
  0
POLYLINE
  5
247
  8
ENGRAVE
 66
1
 10
0.0
 20
0.0
 30
0.0
 70
0
  0
VERTEX
  5
249
  8
ENGRAVE
 10
111.0
 20
68.0
 30
0.0
 70
0
  0
VERTEX
  5
24A
  8
ENGRAVE
 10
111.0
 20
63.2
 30
0.0
 70
0
  0
SEQEND
  5
248
  8
ENGRAVE
  0
POLYLINE
  5
24B
  8
ENGRAVE
 66
1
 10
0.0
 20
0.0
 30
0.0
 70
0
  0
VERTEX
  5
24D
  8
ENGRAVE
 10
111.0
 20
61.6
 30
0.0
 70
0
  0
VERTEX
  5
24E
  8
ENGRAVE
 10
119.0
 20
56.8
 30
0.0
 70
0
  0
SEQEND
  5
24C
  8
ENGRAVE
  0
POLYLINE
  5
24F
  8
ENGRAVE
 66
1
 10
0.0
 20
0.0
 30
0.0
 70
0
  0
VERTEX
  5
251
  8
ENGRAVE
 10
119.0
 20
55.2
 30
0.0
 70
0
  0
VERTEX
  5
252
  8
ENGRAVE
 10
119.0
 20
50.4
 30
0.0
 70
0
  0
SEQEND
  5
250
  8
ENGRAVE
  0
POLYLINE
  5
253
  8
ENGRAVE
 66
1
 10
0.0
 20
0.0
 30
0.0
 70
0
  0
VERTEX
  5
255
  8
ENGRAVE
 10
119.0
 20
50.4
 30
0.0
 70
0
  0
VERTEX
  5
256
  8
ENGRAVE
 10
115.0
 20
50.4
 30
0.0
 70
0
  0
SEQEND
  5
254
  8
ENGRAVE
  0
POLYLINE
  5
257
  8
ENGRAVE
 66
1
 10
0.0
 20
0.0
 30
0.0
 70
0
  0
VERTEX
  5
259
  8
ENGRAVE
 10
115.0
 20
50.4
 30
0.0
 70
0
  0
VERTEX
  5
25A
  8
ENGRAVE
 10
111.0
 20
50.4
 30
0.0
 70
0
  0
SEQEND
  5
258
  8
ENGRAVE
  0
POLYLINE
  5
25B
  8
ENGRAVE
 66
1
 10
0.0
 20
0.0
 30
0.0
 70
0
  0
VERTEX
  5
25D
  8
ENGRAVE
 10
115.0
 20
55.2
 30
0.0
 70
0
  0
VERTEX
  5
25E
  8
ENGRAVE
 10
111.0
 20
55.2
 30
0.0
 70
0
  0
SEQEND
  5
25C
  8
ENGRAVE
  0
POLYLINE
  5
25F
  8
ENGRAVE
 66
1
 10
0.0
 20
0.0
 30
0.0
 70
0
  0
VERTEX
  5
261
  8
ENGRAVE
 10
119.0
 20
55.2
 30
0.0
 70
0
  0
VERTEX
  5
262
  8
ENGRAVE
 10
115.0
 20
55.2
 30
0.0
 70
0
  0
SEQEND
  5
260
  8
ENGRAVE
  0
POLYLINE
  5
263
  8
ENGRAVE
 66
1
 10
0.0
 20
0.0
 30
0.0
 70
0
  0
VERTEX
  5
265
  8
ENGRAVE
 10
115.0
 20
55.2
 30
0.0
 70
0
  0
VERTEX
  5
266
  8
ENGRAVE
 10
115.0
 20
50.4
 30
0.0
 70
0
  0
SEQEND
  5
264
  8
ENGRAVE
  0
POLYLINE
  5
267
  8
ENGRAVE
 66
1
 10
0.0
 20
0.0
 30
0.0
 70
0
  0
VERTEX
  5
269
  8
ENGRAVE
 10
29.0
 20
68.0
 30
0.0
 70
0
  0
VERTEX
  5
26A
  8
ENGRAVE
 10
29.0
 20
63.2
 30
0.0
 70
0
  0
SEQEND
  5
268
  8
ENGRAVE
  0
POLYLINE
  5
26B
  8
ENGRAVE
 66
1
 10
0.0
 20
0.0
 30
0.0
 70
0
  0
VERTEX
  5
26D
  8
ENGRAVE
 10
29.0
 20
68.0
 30
0.0
 70
0
  0
VERTEX
  5
26E
  8
ENGRAVE
 10
25.0
 20
68.0
 30
0.0
 70
0
  0
SEQEND
  5
26C
  8
ENGRAVE
  0
POLYLINE
  5
26F
  8
ENGRAVE
 66
1
 10
0.0
 20
0.0
 30
0.0
 70
0
  0
VERTEX
  5
271
  8
ENGRAVE
 10
25.0
 20
68.0
 30
0.0
 70
0
  0
VERTEX
  5
272
  8
ENGRAVE
 10
25.0
 20
63.2
 30
0.0
 70
0
  0
SEQEND
  5
270
  8
ENGRAVE
  0
POLYLINE
  5
273
  8
ENGRAVE
 66
1
 10
0.0
 20
0.0
 30
0.0
 70
0
  0
VERTEX
  5
275
  8
ENGRAVE
 10
25.0
 20
68.0
 30
0.0
 70
0
  0
VERTEX
  5
276
  8
ENGRAVE
 10
21.0
 20
68.0
 30
0.0
 70
0
  0
SEQEND
  5
274
  8
ENGRAVE
  0
POLYLINE
  5
277
  8
ENGRAVE
 66
1
 10
0.0
 20
0.0
 30
0.0
 70
0
  0
VERTEX
  5
279
  8
ENGRAVE
 10
25.0
 20
63.2
 30
0.0
 70
0
  0
VERTEX
  5
27A
  8
ENGRAVE
 10
21.0
 20
63.2
 30
0.0
 70
0
  0
SEQEND
  5
278
  8
ENGRAVE
  0
POLYLINE
  5
27B
  8
ENGRAVE
 66
1
 10
0.0
 20
0.0
 30
0.0
 70
0
  0
VERTEX
  5
27D
  8
ENGRAVE
 10
21.0
 20
68.0
 30
0.0
 70
0
  0
VERTEX
  5
27E
  8
ENGRAVE
 10
21.0
 20
63.2
 30
0.0
 70
0
  0
SEQEND
  5
27C
  8
ENGRAVE
  0
POLYLINE
  5
27F
  8
ENGRAVE
 66
1
 10
0.0
 20
0.0
 30
0.0
 70
0
  0
VERTEX
  5
281
  8
ENGRAVE
 10
21.0
 20
61.6
 30
0.0
 70
0
  0
VERTEX
  5
282
  8
ENGRAVE
 10
29.0
 20
56.8
 30
0.0
 70
0
  0
SEQEND
  5
280
  8
ENGRAVE
  0
POLYLINE
  5
283
  8
ENGRAVE
 66
1
 10
0.0
 20
0.0
 30
0.0
 70
0
  0
VERTEX
  5
285
  8
ENGRAVE
 10
25.0
 20
50.4
 30
0.0
 70
0
  0
VERTEX
  5
286
  8
ENGRAVE
 10
21.0
 20
50.4
 30
0.0
 70
0
  0
SEQEND
  5
284
  8
ENGRAVE
  0
POLYLINE
  5
287
  8
ENGRAVE
 66
1
 10
0.0
 20
0.0
 30
0.0
 70
0
  0
VERTEX
  5
289
  8
ENGRAVE
 10
21.0
 20
55.2
 30
0.0
 70
0
  0
VERTEX
  5
28A
  8
ENGRAVE
 10
21.0
 20
50.4
 30
0.0
 70
0
  0
SEQEND
  5
288
  8
ENGRAVE
  0
POLYLINE
  5
28B
  8
ENGRAVE
 66
1
 10
0.0
 20
0.0
 30
0.0
 70
0
  0
VERTEX
  5
28D
  8
ENGRAVE
 10
25.0
 20
55.2
 30
0.0
 70
0
  0
VERTEX
  5
28E
  8
ENGRAVE
 10
21.0
 20
55.2
 30
0.0
 70
0
  0
SEQEND
  5
28C
  8
ENGRAVE
  0
POLYLINE
  5
28F
  8
ENGRAVE
 66
1
 10
0.0
 20
0.0
 30
0.0
 70
0
  0
VERTEX
  5
291
  8
ENGRAVE
 10
29.0
 20
55.2
 30
0.0
 70
0
  0
VERTEX
  5
292
  8
ENGRAVE
 10
25.0
 20
55.2
 30
0.0
 70
0
  0
SEQEND
  5
290
  8
ENGRAVE
  0
POLYLINE
  5
293
  8
ENGRAVE
 66
1
 10
0.0
 20
0.0
 30
0.0
 70
0
  0
VERTEX
  5
295
  8
ENGRAVE
 10
25.0
 20
55.2
 30
0.0
 70
0
  0
VERTEX
  5
296
  8
ENGRAVE
 10
25.0
 20
50.4
 30
0.0
 70
0
  0
SEQEND
  5
294
  8
ENGRAVE
  0
POLYLINE
  5
297
  8
ENGRAVE
 66
1
 10
0.0
 20
0.0
 30
0.0
 70
0
  0
VERTEX
  5
299
  8
ENGRAVE
 10
66.0
 20
80.0
 30
0.0
 70
0
  0
VERTEX
  5
29A
  8
ENGRAVE
 10
70.8
 20
80.0
 30
0.0
 70
0
  0
SEQEND
  5
298
  8
ENGRAVE
  0
POLYLINE
  5
29B
  8
ENGRAVE
 66
1
 10
0.0
 20
0.0
 30
0.0
 70
0
  0
VERTEX
  5
29D
  8
ENGRAVE
 10
70.8
 20
80.0
 30
0.0
 70
0
  0
VERTEX
  5
29E
  8
ENGRAVE
 10
70.8
 20
76.0
 30
0.0
 70
0
  0
SEQEND
  5
29C
  8
ENGRAVE
  0
POLYLINE
  5
29F
  8
ENGRAVE
 66
1
 10
0.0
 20
0.0
 30
0.0
 70
0
  0
VERTEX
  5
2A1
  8
ENGRAVE
 10
70.8
 20
76.0
 30
0.0
 70
0
  0
VERTEX
  5
2A2
  8
ENGRAVE
 10
70.8
 20
72.0
 30
0.0
 70
0
  0
SEQEND
  5
2A0
  8
ENGRAVE
  0
POLYLINE
  5
2A3
  8
ENGRAVE
 66
1
 10
0.0
 20
0.0
 30
0.0
 70
0
  0
VERTEX
  5
2A5
  8
ENGRAVE
 10
66.0
 20
92.0
 30
0.0
 70
0
  0
VERTEX
  5
2A6
  8
ENGRAVE
 10
70.8
 20
92.0
 30
0.0
 70
0
  0
SEQEND
  5
2A4
  8
ENGRAVE
  0
POLYLINE
  5
2A7
  8
ENGRAVE
 66
1
 10
0.0
 20
0.0
 30
0.0
 70
0
  0
VERTEX
  5
2A9
  8
ENGRAVE
 10
70.8
 20
92.0
 30
0.0
 70
0
  0
VERTEX
  5
2AA
  8
ENGRAVE
 10
70.8
 20
88.0
 30
0.0
 70
0
  0
SEQEND
  5
2A8
  8
ENGRAVE
  0
POLYLINE
  5
2AB
  8
ENGRAVE
 66
1
 10
0.0
 20
0.0
 30
0.0
 70
0
  0
VERTEX
  5
2AD
  8
ENGRAVE
 10
70.8
 20
88.0
 30
0.0
 70
0
  0
VERTEX
  5
2AE
  8
ENGRAVE
 10
70.8
 20
84.0
 30
0.0
 70
0
  0
SEQEND
  5
2AC
  8
ENGRAVE
  0
POLYLINE
  5
2AF
  8
ENGRAVE
 66
1
 10
0.0
 20
0.0
 30
0.0
 70
0
  0
VERTEX
  5
2B1
  8
ENGRAVE
 10
66.0
 20
84.0
 30
0.0
 70
0
  0
VERTEX
  5
2B2
  8
ENGRAVE
 10
70.8
 20
84.0
 30
0.0
 70
0
  0
SEQEND
  5
2B0
  8
ENGRAVE
  0
POLYLINE
  5
2B3
  8
ENGRAVE
 66
1
 10
0.0
 20
0.0
 30
0.0
 70
0
  0
VERTEX
  5
2B5
  8
ENGRAVE
 10
66.0
 20
88.0
 30
0.0
 70
0
  0
VERTEX
  5
2B6
  8
ENGRAVE
 10
66.0
 20
84.0
 30
0.0
 70
0
  0
SEQEND
  5
2B4
  8
ENGRAVE
  0
POLYLINE
  5
2B7
  8
ENGRAVE
 66
1
 10
0.0
 20
0.0
 30
0.0
 70
0
  0
VERTEX
  5
2B9
  8
ENGRAVE
 10
66.0
 20
92.0
 30
0.0
 70
0
  0
VERTEX
  5
2BA
  8
ENGRAVE
 10
66.0
 20
88.0
 30
0.0
 70
0
  0
SEQEND
  5
2B8
  8
ENGRAVE
  0
POLYLINE
  5
2BB
  8
ENGRAVE
 66
1
 10
0.0
 20
0.0
 30
0.0
 70
0
  0
VERTEX
  5
2BD
  8
ENGRAVE
 10
66.0
 20
88.0
 30
0.0
 70
0
  0
VERTEX
  5
2BE
  8
ENGRAVE
 10
70.8
 20
88.0
 30
0.0
 70
0
  0
SEQEND
  5
2BC
  8
ENGRAVE
  0
ENDSEC
  0
EOF
