  0
SECTION
  2
HEADER
  9
$ACADVER
  1
AC1009
  9
$DWGCODEPAGE
  3
ANSI_1252
  9
$INSBASE
 10
0.0
 20
0.0
 30
0.0
  9
$EXTMIN
 10
1e+20
 20
1e+20
 30
1e+20
  9
$EXTMAX
 10
-1e+20
 20
-1e+20
 30
-1e+20
  9
$LIMMIN
 10
0.0
 20
0.0
  9
$LIMMAX
 10
420.0
 20
297.0
  9
$ORTHOMODE
 70
0
  9
$REGENMODE
 70
1
  9
$FILLMODE
 70
1
  9
$DRAGMODE
 70
2
  9
$QTEXTMODE
 70
0
  9
$MIRRTEXT
 70
1
  9
$OSMODE
 70
20583
  9
$LTSCALE
 40
1.0
  9
$ATTMODE
 70
1
  9
$TEXTSIZE
 40
2.5
  9
$TRACEWID
 40
1.0
  9
$TEXTSTYLE
  7
Standard
  9
$CLAYER
  8
0
  9
$CELTYPE
  6
ByLayer
  9
$CECOLOR
 62
256
  9
$DIMSCALE
 40
1.0
  9
$DIMASZ
 40
2.5
  9
$DIMEXO
 40
0.625
  9
$DIMDLI
 40
3.75
  9
$DIMRND
 40
0.0
  9
$DIMDLE
 40
0.0
  9
$DIMEXE
 40
1.25
  9
$DIMTP
 40
0.0
  9
$DIMTM
 40
0.0
  9
$DIMTXT
 40
2.5
  9
$DIMCEN
 40
2.5
  9
$DIMTSZ
 40
0.0
  9
$DIMTOL
 70
0
  9
$DIMLIM
 70
0
  9
$DIMTIH
 70
0
  9
$DIMTOH
 70
0
  9
$DIMSE1
 70
0
  9
$DIMSE2
 70
0
  9
$DIMTAD
 70
1
  9
$DIMZIN
 70
8
  9
$DIMBLK
  1

  9
$DIMASO
 70
1
  9
$DIMSHO
 70
1
  9
$DIMPOST
  1

  9
$DIMAPOST
  1

  9
$DIMALT
 70
0
  9
$DIMALTD
 70
3
  9
$DIMALTF
 40
0.03937007874
  9
$DIMLFAC
 40
1.0
  9
$DIMTOFL
 70
1
  9
$DIMTVP
 40
0.0
  9
$DIMTIX
 70
0
  9
$DIMSOXD
 70
0
  9
$DIMSAH
 70
0
  9
$DIMBLK1
  1

  9
$DIMBLK2
  1

  9
$DIMSTYLE
  2
ISO-25
  9
$DIMCLRD
 70
0
  9
$DIMCLRE
 70
0
  9
$DIMCLRT
 70
0
  9
$DIMTFAC
 40
1.0
  9
$DIMGAP
 40
0.625
  9
$COORDS
 70
1
  9
$ATTDIA
 70
0
  9
$ATTREQ
 70
1
  9
$HANDLING
 70
1
  9
$LUNITS
 70
2
  9
$LUPREC
 70
4
  9
$SKETCHINC
 40
1.0
  9
$FILLETRAD
 40
10.0
  9
$AUNITS
 70
0
  9
$AUPREC
 70
2
  9
$MENU
  1
.
  9
$ELEVATION
 40
0.0
  9
$PELEVATION
 40
0.0
  9
$THICKNESS
 40
0.0
  9
$LIMCHECK
 70
0
  9
$CHAMFERA
 40
0.0
  9
$CHAMFERB
 40
0.0
  9
$SKPOLY
 70
0
  9
$TDCREATE
 40
2461262.742384259
  9
$TDUPDATE
 40
2461262.742384259
  9
$TDINDWG
 40
0.0
  9
$TDUSRTIMER
 40
0.0
  9
$USRTIMER
 70
1
  9
$ANGBASE
 50
0.0
  9
$ANGDIR
 70
0
  9
$PDMODE
 70
0
  9
$PDSIZE
 40
0.0
  9
$PLINEWID
 40
0.0
  9
$SPLFRAME
 70
0
  9
$SPLINETYPE
 70
6
  9
$SPLINESEGS
 70
8
  9
$HANDSEED
  5
595
  9
$SURFTAB1
 70
6
  9
$SURFTAB2
 70
6
  9
$SURFTYPE
 70
6
  9
$SURFU
 70
6
  9
$SURFV
 70
6
  9
$UCSNAME
  2

  9
$UCSORG
 10
0.0
 20
0.0
 30
0.0
  9
$UCSXDIR
 10
1.0
 20
0.0
 30
0.0
  9
$UCSYDIR
 10
0.0
 20
1.0
 30
0.0
  9
$PUCSNAME
  2

  9
$PUCSORG
 10
0.0
 20
0.0
 30
0.0
  9
$PUCSXDIR
 10
1.0
 20
0.0
 30
0.0
  9
$PUCSYDIR
 10
0.0
 20
1.0
 30
0.0
  9
$USERI1
 70
0
  9
$USERI2
 70
0
  9
$USERI3
 70
0
  9
$USERI4
 70
0
  9
$USERI5
 70
0
  9
$USERR1
 40
0.0
  9
$USERR2
 40
0.0
  9
$USERR3
 40
0.0
  9
$USERR4
 40
0.0
  9
$USERR5
 40
0.0
  9
$WORLDVIEW
 70
1
  9
$SHADEDGE
 70
3
  9
$SHADEDIF
 70
70
  9
$TILEMODE
 70
1
  9
$MAXACTVP
 70
64
  9
$PLIMCHECK
 70
0
  9
$PEXTMIN
 10
1e+20
 20
1e+20
 30
1e+20
  9
$PEXTMAX
 10
-1e+20
 20
-1e+20
 30
-1e+20
  9
$PLIMMIN
 10
0.0
 20
0.0
  9
$PLIMMAX
 10
420.0
 20
297.0
  9
$UNITMODE
 70
0
  9
$VISRETAIN
 70
1
  9
$PLINEGEN
 70
0
  9
$PSLTSCALE
 70
1
  0
ENDSEC
  0
SECTION
  2
TABLES
  0
TABLE
  2
VPORT
 70
1
  0
VPORT
  5
23
  2
*Active
 70
0
 10
0.0
 20
0.0
 11
1.0
 21
1.0
 12
0.0
 22
0.0
 13
0.0
 23
0.0
 14
0.5
 24
0.5
 15
0.5
 25
0.5
 16
0.0
 26
0.0
 36
1.0
 17
0.0
 27
0.0
 37
0.0
 40
1000.0
 41
1.34
 42
50.0
 43
0.0
 44
0.0
 50
0.0
 51
0.0
 71
0
 72
1000
 73
1
 74
3
 75
0
 76
0
 77
0
 78
0
  0
ENDTAB
  0
TABLE
  2
LTYPE
 70
3
  0
LTYPE
  5
24
  2
ByBlock
 70
0
  3

 72
65
 73
0
 40
0.0
  0
LTYPE
  5
25
  2
ByLayer
 70
0
  3

 72
65
 73
0
 40
0.0
  0
LTYPE
  5
26
  2
Continuous
 70
0
  3

 72
65
 73
0
 40
0.0
  0
ENDTAB
  0
TABLE
  2
LAYER
 70
4
  0
LAYER
  5
27
  2
0
 70
0
 62
7
  6
Continuous
  0
LAYER
  5
28
  2
Defpoints
 70
0
 62
7
  6
Continuous
  0
LAYER
  5
2D
  2
CUT
 70
0
 62
1
  6
Continuous
  0
LAYER
  5
2E
  2
ENGRAVE
 70
0
 62
5
  6
Continuous
  0
ENDTAB
  0
TABLE
  2
STYLE
 70
1
  0
STYLE
  5
29
  2
Standard
 70
0
 40
0.0
 41
1.0
 50
0.0
 71
0
 42
2.5
  3
txt
  4

  0
ENDTAB
  0
TABLE
  2
VIEW
 70
0
  0
ENDTAB
  0
TABLE
  2
UCS
 70
0
  0
ENDTAB
  0
TABLE
  2
APPID
 70
3
  0
APPID
  5
2A
  2
ACAD
 70
0
  0
APPID
  5
593
  2
HATCHBACKGROUNDCOLOR
 70
0
  0
APPID
  5
594
  2
EZDXF
 70
0
  0
ENDTAB
  0
TABLE
  2
DIMSTYLE
 70
1
  0
DIMSTYLE
105
2B
  2
Standard
 70
0
  3

  4

  5

  6

  7

 40
1.0
 41
2.5
 42
0.625
 43
3.75
 44
1.25
 45
0.0
 46
0.0
 47
0.0
 48
0.0
140
2.5
141
2.5
142
0.0
143
0.03937007874
144
1.0
145
0.0
146
1.0
147
0.625
 71
0
 72
0
 73
0
 74
0
 75
0
 76
0
 77
1
 78
8
170
0
171
3
172
1
173
0
174
0
175
0
176
0
177
0
178
0
  0
ENDTAB
  0
ENDSEC
  0
SECTION
  2
BLOCKS
  0
BLOCK
  5
18
  8
0
  2
$Model_Space
 70
0
 10
0.0
 20
0.0
 30
0.0
  3
$Model_Space
  1

1001
EZDXF
1000
CREATED_BY_EZDXF
1000
1.4.4 @ 2026-08-09T15:49:02.561368+00:00
1000
WRITTEN_BY_EZDXF
1000
1.4.4 @ 2026-08-09T15:49:02.631905+00:00
  0
ENDBLK
  5
19
  8
0
  0
BLOCK
  5
1C
  8
0
  2
$Paper_Space
 70
0
 10
0.0
 20
0.0
 30
0.0
  3
$Paper_Space
  1

  0
ENDBLK
  5
1D
  8
0
  0
ENDSEC
  0
SECTION
  2
ENTITIES
  0
POLYLINE
  5
2F
  8
CUT
 66
1
 10
0.0
 20
0.0
 30
0.0
 70
1
  0
VERTEX
  5
31
  8
CUT
 10
69.54545454545455
 20
40.0
 30
0.0
 70
0
  0
VERTEX
  5
32
  8
CUT
 10
64.0
 20
40.0
 30
0.0
 70
0
  0
VERTEX
  5
33
  8
CUT
 10
64.0
 20
46.0
 30
0.0
 70
0
  0
VERTEX
  5
34
  8
CUT
 10
56.0
 20
46.0
 30
0.0
 70
0
  0
VERTEX
  5
35
  8
CUT
 10
56.0
 20
40.0
 30
0.0
 70
0
  0
VERTEX
  5
36
  8
CUT
 10
23.18181818181818
 20
40.00000000000001
 30
0.0
 70
0
  0
VERTEX
  5
37
  8
CUT
 10
0.0
 20
40.00000000000001
 30
0.0
 70
0
  0
VERTEX
  5
38
  8
CUT
 10
0.0
 20
30.909090909090914
 30
0.0
 70
0
  0
VERTEX
  5
39
  8
CUT
 10
0.0
 20
7.105427357601002e-15
 30
0.0
 70
0
  0
VERTEX
  5
3A
  8
CUT
 10
27.272727272727266
 20
7.105427357601002e-15
 30
0.0
 70
0
  0
VERTEX
  5
3B
  8
CUT
 10
50.45454545454545
 20
3.552713678800501e-15
 30
0.0
 70
0
  0
VERTEX
  5
3C
  8
CUT
 10
96.81818181818181
 20
0.0
 30
0.0
 70
0
  0
VERTEX
  5
3D
  8
CUT
 10
120.0
 20
0.0
 30
0.0
 70
0
  0
VERTEX
  5
3E
  8
CUT
 10
120.0
 20
9.09090909090909
 30
0.0
 70
0
  0
VERTEX
  5
3F
  8
CUT
 10
120.0
 20
40.0
 30
0.0
 70
0
  0
VERTEX
  5
40
  8
CUT
 10
92.72727272727272
 20
40.0
 30
0.0
 70
0
  0
SEQEND
  5
30
  8
CUT
  0
POLYLINE
  5
41
  8
CUT
 66
1
 10
0.0
 20
0.0
 30
0.0
 70
1
  0
VERTEX
  5
43
  8
CUT
 10
111.41472903395162
 20
10.942355841209691
 30
0.0
 70
0
  0
VERTEX
  5
44
  8
CUT
 10
112.0
 20
11.0
 30
0.0
 70
0
  0
VERTEX
  5
45
  8
CUT
 10
112.58527096604838
 20
10.942355841209691
 30
0.0
 70
0
  0
VERTEX
  5
46
  8
CUT
 10
113.14805029709527
 20
10.77163859753386
 30
0.0
 70
0
  0
VERTEX
  5
47
  8
CUT
 10
113.6667106990588
 20
10.494408836907635
 30
0.0
 70
0
  0
VERTEX
  5
48
  8
CUT
 10
114.12132034355965
 20
10.121320343559642
 30
0.0
 70
0
  0
VERTEX
  5
49
  8
CUT
 10
114.49440883690764
 20
9.666710699058807
 30
0.0
 70
0
  0
VERTEX
  5
4A
  8
CUT
 10
114.77163859753387
 20
9.148050297095269
 30
0.0
 70
0
  0
VERTEX
  5
4B
  8
CUT
 10
114.94235584120969
 20
8.585270966048386
 30
0.0
 70
0
  0
VERTEX
  5
4C
  8
CUT
 10
115.0
 20
8.0
 30
0.0
 70
0
  0
VERTEX
  5
4D
  8
CUT
 10
114.94235584120969
 20
7.414729033951616
 30
0.0
 70
0
  0
VERTEX
  5
4E
  8
CUT
 10
114.77163859753387
 20
6.851949702904731
 30
0.0
 70
0
  0
VERTEX
  5
4F
  8
CUT
 10
114.49440883690764
 20
6.333289300941194
 30
0.0
 70
0
  0
VERTEX
  5
50
  8
CUT
 10
114.12132034355965
 20
5.878679656440358
 30
0.0
 70
0
  0
VERTEX
  5
51
  8
CUT
 10
113.6667106990588
 20
5.5055911630923635
 30
0.0
 70
0
  0
VERTEX
  5
52
  8
CUT
 10
113.14805029709527
 20
5.22836140246614
 30
0.0
 70
0
  0
VERTEX
  5
53
  8
CUT
 10
112.58527096604838
 20
5.057644158790309
 30
0.0
 70
0
  0
VERTEX
  5
54
  8
CUT
 10
112.0
 20
5.0
 30
0.0
 70
0
  0
VERTEX
  5
55
  8
CUT
 10
111.41472903395162
 20
5.057644158790309
 30
0.0
 70
0
  0
VERTEX
  5
56
  8
CUT
 10
110.85194970290473
 20
5.22836140246614
 30
0.0
 70
0
  0
VERTEX
  5
57
  8
CUT
 10
110.3332893009412
 20
5.5055911630923635
 30
0.0
 70
0
  0
VERTEX
  5
58
  8
CUT
 10
109.87867965644035
 20
5.878679656440358
 30
0.0
 70
0
  0
VERTEX
  5
59
  8
CUT
 10
109.50559116309236
 20
6.333289300941193
 30
0.0
 70
0
  0
VERTEX
  5
5A
  8
CUT
 10
109.22836140246613
 20
6.851949702904729
 30
0.0
 70
0
  0
VERTEX
  5
5B
  8
CUT
 10
109.05764415879031
 20
7.414729033951614
 30
0.0
 70
0
  0
VERTEX
  5
5C
  8
CUT
 10
109.0
 20
8.0
 30
0.0
 70
0
  0
VERTEX
  5
5D
  8
CUT
 10
109.05764415879031
 20
8.585270966048386
 30
0.0
 70
0
  0
VERTEX
  5
5E
  8
CUT
 10
109.22836140246613
 20
9.14805029709527
 30
0.0
 70
0
  0
VERTEX
  5
5F
  8
CUT
 10
109.50559116309236
 20
9.666710699058806
 30
0.0
 70
0
  0
VERTEX
  5
60
  8
CUT
 10
109.87867965644035
 20
10.121320343559642
 30
0.0
 70
0
  0
VERTEX
  5
61
  8
CUT
 10
110.3332893009412
 20
10.494408836907635
 30
0.0
 70
0
  0
VERTEX
  5
62
  8
CUT
 10
110.85194970290473
 20
10.77163859753386
 30
0.0
 70
0
  0
SEQEND
  5
42
  8
CUT
  0
POLYLINE
  5
63
  8
CUT
 66
1
 10
0.0
 20
0.0
 30
0.0
 70
1
  0
VERTEX
  5
65
  8
CUT
 10
7.414729033951616
 20
34.9423558412097
 30
0.0
 70
0
  0
VERTEX
  5
66
  8
CUT
 10
8.0
 20
35.00000000000001
 30
0.0
 70
0
  0
VERTEX
  5
67
  8
CUT
 10
8.585270966048384
 20
34.9423558412097
 30
0.0
 70
0
  0
VERTEX
  5
68
  8
CUT
 10
9.148050297095267
 20
34.771638597533865
 30
0.0
 70
0
  0
VERTEX
  5
69
  8
CUT
 10
9.666710699058804
 20
34.49440883690764
 30
0.0
 70
0
  0
VERTEX
  5
6A
  8
CUT
 10
10.121320343559645
 20
34.121320343559645
 30
0.0
 70
0
  0
VERTEX
  5
6B
  8
CUT
 10
10.494408836907638
 20
33.66671069905881
 30
0.0
 70
0
  0
VERTEX
  5
6C
  8
CUT
 10
10.771638597533858
 20
33.148050297095274
 30
0.0
 70
0
  0
VERTEX
  5
6D
  8
CUT
 10
10.94235584120969
 20
32.58527096604839
 30
0.0
 70
0
  0
VERTEX
  5
6E
  8
CUT
 10
11.0
 20
32.00000000000001
 30
0.0
 70
0
  0
VERTEX
  5
6F
  8
CUT
 10
10.94235584120969
 20
31.414729033951623
 30
0.0
 70
0
  0
VERTEX
  5
70
  8
CUT
 10
10.771638597533858
 20
30.85194970290474
 30
0.0
 70
0
  0
VERTEX
  5
71
  8
CUT
 10
10.494408836907638
 20
30.333289300941203
 30
0.0
 70
0
  0
VERTEX
  5
72
  8
CUT
 10
10.121320343559645
 20
29.878679656440365
 30
0.0
 70
0
  0
VERTEX
  5
73
  8
CUT
 10
9.666710699058804
 20
29.50559116309237
 30
0.0
 70
0
  0
VERTEX
  5
74
  8
CUT
 10
9.148050297095267
 20
29.22836140246615
 30
0.0
 70
0
  0
VERTEX
  5
75
  8
CUT
 10
8.585270966048384
 20
29.057644158790318
 30
0.0
 70
0
  0
VERTEX
  5
76
  8
CUT
 10
8.0
 20
29.000000000000007
 30
0.0
 70
0
  0
VERTEX
  5
77
  8
CUT
 10
7.414729033951616
 20
29.057644158790318
 30
0.0
 70
0
  0
VERTEX
  5
78
  8
CUT
 10
6.851949702904733
 20
29.22836140246615
 30
0.0
 70
0
  0
VERTEX
  5
79
  8
CUT
 10
6.333289300941196
 20
29.50559116309237
 30
0.0
 70
0
  0
VERTEX
  5
7A
  8
CUT
 10
5.8786796564403545
 20
29.878679656440365
 30
0.0
 70
0
  0
VERTEX
  5
7B
  8
CUT
 10
5.505591163092362
 20
30.3332893009412
 30
0.0
 70
0
  0
VERTEX
  5
7C
  8
CUT
 10
5.228361402466142
 20
30.851949702904736
 30
0.0
 70
0
  0
VERTEX
  5
7D
  8
CUT
 10
5.0576441587903105
 20
31.414729033951623
 30
0.0
 70
0
  0
VERTEX
  5
7E
  8
CUT
 10
5.0
 20
32.00000000000001
 30
0.0
 70
0
  0
VERTEX
  5
7F
  8
CUT
 10
5.0576441587903105
 20
32.58527096604839
 30
0.0
 70
0
  0
VERTEX
  5
80
  8
CUT
 10
5.228361402466142
 20
33.14805029709528
 30
0.0
 70
0
  0
VERTEX
  5
81
  8
CUT
 10
5.505591163092362
 20
33.66671069905881
 30
0.0
 70
0
  0
VERTEX
  5
82
  8
CUT
 10
5.8786796564403545
 20
34.121320343559645
 30
0.0
 70
0
  0
VERTEX
  5
83
  8
CUT
 10
6.333289300941196
 20
34.49440883690764
 30
0.0
 70
0
  0
VERTEX
  5
84
  8
CUT
 10
6.851949702904726
 20
34.771638597533865
 30
0.0
 70
0
  0
SEQEND
  5
64
  8
CUT
  0
POLYLINE
  5
85
  8
CUT
 66
1
 10
0.0
 20
0.0
 30
0.0
 70
1
  0
VERTEX
  5
87
  8
CUT
 10
61.414729033951616
 20
32.9423558412097
 30
0.0
 70
0
  0
VERTEX
  5
88
  8
CUT
 10
62.0
 20
33.0
 30
0.0
 70
0
  0
VERTEX
  5
89
  8
CUT
 10
62.585270966048384
 20
32.9423558412097
 30
0.0
 70
0
  0
VERTEX
  5
8A
  8
CUT
 10
63.14805029709527
 20
32.771638597533865
 30
0.0
 70
0
  0
VERTEX
  5
8B
  8
CUT
 10
63.66671069905881
 20
32.49440883690764
 30
0.0
 70
0
  0
VERTEX
  5
8C
  8
CUT
 10
64.12132034355965
 20
32.121320343559645
 30
0.0
 70
0
  0
VERTEX
  5
8D
  8
CUT
 10
64.49440883690764
 20
31.66671069905881
 30
0.0
 70
0
  0
VERTEX
  5
8E
  8
CUT
 10
64.77163859753387
 20
31.148050297095274
 30
0.0
 70
0
  0
VERTEX
  5
8F
  8
CUT
 10
64.94235584120969
 20
30.58527096604839
 30
0.0
 70
0
  0
VERTEX
  5
90
  8
CUT
 10
65.0
 20
30.000000000000004
 30
0.0
 70
0
  0
VERTEX
  5
91
  8
CUT
 10
64.94235584120969
 20
29.41472903395162
 30
0.0
 70
0
  0
VERTEX
  5
92
  8
CUT
 10
64.77163859753387
 20
28.851949702904733
 30
0.0
 70
0
  0
VERTEX
  5
93
  8
CUT
 10
64.49440883690764
 20
28.333289300941196
 30
0.0
 70
0
  0
VERTEX
  5
94
  8
CUT
 10
64.12132034355965
 20
27.87867965644036
 30
0.0
 70
0
  0
VERTEX
  5
95
  8
CUT
 10
63.666710699058804
 20
27.505591163092365
 30
0.0
 70
0
  0
VERTEX
  5
96
  8
CUT
 10
63.14805029709527
 20
27.228361402466142
 30
0.0
 70
0
  0
VERTEX
  5
97
  8
CUT
 10
62.585270966048384
 20
27.05764415879031
 30
0.0
 70
0
  0
VERTEX
  5
98
  8
CUT
 10
62.0
 20
27.000000000000004
 30
0.0
 70
0
  0
VERTEX
  5
99
  8
CUT
 10
61.414729033951616
 20
27.05764415879031
 30
0.0
 70
0
  0
VERTEX
  5
9A
  8
CUT
 10
60.85194970290473
 20
27.228361402466142
 30
0.0
 70
0
  0
VERTEX
  5
9B
  8
CUT
 10
60.333289300941196
 20
27.505591163092365
 30
0.0
 70
0
  0
VERTEX
  5
9C
  8
CUT
 10
59.87867965644036
 20
27.87867965644036
 30
0.0
 70
0
  0
VERTEX
  5
9D
  8
CUT
 10
59.50559116309236
 20
28.333289300941196
 30
0.0
 70
0
  0
VERTEX
  5
9E
  8
CUT
 10
59.22836140246614
 20
28.851949702904733
 30
0.0
 70
0
  0
VERTEX
  5
9F
  8
CUT
 10
59.05764415879031
 20
29.414729033951616
 30
0.0
 70
0
  0
VERTEX
  5
A0
  8
CUT
 10
59.0
 20
30.000000000000004
 30
0.0
 70
0
  0
VERTEX
  5
A1
  8
CUT
 10
59.05764415879031
 20
30.58527096604839
 30
0.0
 70
0
  0
VERTEX
  5
A2
  8
CUT
 10
59.22836140246614
 20
31.148050297095274
 30
0.0
 70
0
  0
VERTEX
  5
A3
  8
CUT
 10
59.50559116309236
 20
31.66671069905881
 30
0.0
 70
0
  0
VERTEX
  5
A4
  8
CUT
 10
59.878679656440355
 20
32.121320343559645
 30
0.0
 70
0
  0
VERTEX
  5
A5
  8
CUT
 10
60.333289300941196
 20
32.49440883690764
 30
0.0
 70
0
  0
VERTEX
  5
A6
  8
CUT
 10
60.85194970290473
 20
32.771638597533865
 30
0.0
 70
0
  0
SEQEND
  5
86
  8
CUT
  0
POLYLINE
  5
A7
  8
ENGRAVE
 66
1
 10
0.0
 20
0.0
 30
0.0
 70
0
  0
VERTEX
  5
A9
  8
ENGRAVE
 10
2.0
 20
2.000000000000007
 30
0.0
 70
0
  0
VERTEX
  5
AA
  8
ENGRAVE
 10
2.0
 20
6.800000000000008
 30
0.0
 70
0
  0
SEQEND
  5
A8
  8
ENGRAVE
  0
POLYLINE
  5
AB
  8
ENGRAVE
 66
1
 10
0.0
 20
0.0
 30
0.0
 70
0
  0
VERTEX
  5
AD
  8
ENGRAVE
 10
2.0
 20
6.800000000000008
 30
0.0
 70
0
  0
VERTEX
  5
AE
  8
ENGRAVE
 10
6.0
 20
6.800000000000008
 30
0.0
 70
0
  0
SEQEND
  5
AC
  8
ENGRAVE
  0
POLYLINE
  5
AF
  8
ENGRAVE
 66
1
 10
0.0
 20
0.0
 30
0.0
 70
0
  0
VERTEX
  5
B1
  8
ENGRAVE
 10
6.0
 20
6.800000000000008
 30
0.0
 70
0
  0
VERTEX
  5
B2
  8
ENGRAVE
 10
10.0
 20
6.800000000000008
 30
0.0
 70
0
  0
SEQEND
  5
B0
  8
ENGRAVE
  0
POLYLINE
  5
B3
  8
CUT
 66
1
 10
0.0
 20
0.0
 30
0.0
 70
1
  0
VERTEX
  5
B5
  8
CUT
 10
240.2
 20
40.0
 30
0.0
 70
0
  0
VERTEX
  5
B6
  8
CUT
 10
184.2
 20
40.0
 30
0.0
 70
0
  0
VERTEX
  5
B7
  8
CUT
 10
184.2
 20
46.0
 30
0.0
 70
0
  0
VERTEX
  5
B8
  8
CUT
 10
176.20000000000002
 20
46.0
 30
0.0
 70
0
  0
VERTEX
  5
B9
  8
CUT
 10
176.2
 20
40.0
 30
0.0
 70
0
  0
VERTEX
  5
BA
  8
CUT
 10
147.47272727272727
 20
40.00000000000001
 30
0.0
 70
0
  0
VERTEX
  5
BB
  8
CUT
 10
140.65454545454546
 20
40.00000000000001
 30
0.0
 70
0
  0
VERTEX
  5
BC
  8
CUT
 10
127.01818181818183
 20
40.00000000000001
 30
0.0
 70
0
  0
VERTEX
  5
BD
  8
CUT
 10
120.2
 20
40.00000000000001
 30
0.0
 70
0
  0
VERTEX
  5
BE
  8
CUT
 10
120.2
 20
9.090909090909099
 30
0.0
 70
0
  0
VERTEX
  5
BF
  8
CUT
 10
120.2
 20
7.105427357601002e-15
 30
0.0
 70
0
  0
VERTEX
  5
C0
  8
CUT
 10
212.92727272727274
 20
0.0
 30
0.0
 70
0
  0
VERTEX
  5
C1
  8
CUT
 10
219.74545454545455
 20
0.0
 30
0.0
 70
0
  0
VERTEX
  5
C2
  8
CUT
 10
233.38181818181818
 20
0.0
 30
0.0
 70
0
  0
VERTEX
  5
C3
  8
CUT
 10
240.2
 20
0.0
 30
0.0
 70
0
  0
VERTEX
  5
C4
  8
CUT
 10
240.2
 20
30.909090909090907
 30
0.0
 70
0
  0
SEQEND
  5
B4
  8
CUT
  0
POLYLINE
  5
C5
  8
CUT
 66
1
 10
0.0
 20
0.0
 30
0.0
 70
1
  0
VERTEX
  5
C7
  8
CUT
 10
231.61472903395162
 20
10.942355841209693
 30
0.0
 70
0
  0
VERTEX
  5
C8
  8
CUT
 10
232.2
 20
11.000000000000002
 30
0.0
 70
0
  0
VERTEX
  5
C9
  8
CUT
 10
232.7852709660484
 20
10.942355841209693
 30
0.0
 70
0
  0
VERTEX
  5
CA
  8
CUT
 10
233.34805029709526
 20
10.771638597533862
 30
0.0
 70
0
  0
VERTEX
  5
CB
  8
CUT
 10
233.8667106990588
 20
10.494408836907636
 30
0.0
 70
0
  0
VERTEX
  5
CC
  8
CUT
 10
234.32132034355965
 20
10.121320343559644
 30
0.0
 70
0
  0
VERTEX
  5
CD
  8
CUT
 10
234.69440883690766
 20
9.66671069905881
 30
0.0
 70
0
  0
VERTEX
  5
CE
  8
CUT
 10
234.97163859753385
 20
9.14805029709527
 30
0.0
 70
0
  0
VERTEX
  5
CF
  8
CUT
 10
235.14235584120968
 20
8.585270966048387
 30
0.0
 70
0
  0
VERTEX
  5
D0
  8
CUT
 10
235.2
 20
8.000000000000002
 30
0.0
 70
0
  0
VERTEX
  5
D1
  8
CUT
 10
235.14235584120968
 20
7.414729033951618
 30
0.0
 70
0
  0
VERTEX
  5
D2
  8
CUT
 10
234.97163859753385
 20
6.851949702904733
 30
0.0
 70
0
  0
VERTEX
  5
D3
  8
CUT
 10
234.69440883690766
 20
6.333289300941196
 30
0.0
 70
0
  0
VERTEX
  5
D4
  8
CUT
 10
234.32132034355965
 20
5.87867965644036
 30
0.0
 70
0
  0
VERTEX
  5
D5
  8
CUT
 10
233.8667106990588
 20
5.505591163092365
 30
0.0
 70
0
  0
VERTEX
  5
D6
  8
CUT
 10
233.34805029709526
 20
5.228361402466142
 30
0.0
 70
0
  0
VERTEX
  5
D7
  8
CUT
 10
232.7852709660484
 20
5.0576441587903105
 30
0.0
 70
0
  0
VERTEX
  5
D8
  8
CUT
 10
232.2
 20
5.000000000000002
 30
0.0
 70
0
  0
VERTEX
  5
D9
  8
CUT
 10
231.61472903395162
 20
5.0576441587903105
 30
0.0
 70
0
  0
VERTEX
  5
DA
  8
CUT
 10
231.05194970290472
 20
5.228361402466142
 30
0.0
 70
0
  0
VERTEX
  5
DB
  8
CUT
 10
230.5332893009412
 20
5.505591163092365
 30
0.0
 70
0
  0
VERTEX
  5
DC
  8
CUT
 10
230.07867965644036
 20
5.87867965644036
 30
0.0
 70
0
  0
VERTEX
  5
DD
  8
CUT
 10
229.70559116309238
 20
6.333289300941194
 30
0.0
 70
0
  0
VERTEX
  5
DE
  8
CUT
 10
229.42836140246615
 20
6.851949702904731
 30
0.0
 70
0
  0
VERTEX
  5
DF
  8
CUT
 10
229.2576441587903
 20
7.414729033951616
 30
0.0
 70
0
  0
VERTEX
  5
E0
  8
CUT
 10
229.2
 20
8.000000000000002
 30
0.0
 70
0
  0
VERTEX
  5
E1
  8
CUT
 10
229.2576441587903
 20
8.585270966048387
 30
0.0
 70
0
  0
VERTEX
  5
E2
  8
CUT
 10
229.42836140246615
 20
9.148050297095272
 30
0.0
 70
0
  0
VERTEX
  5
E3
  8
CUT
 10
229.70559116309238
 20
9.666710699058807
 30
0.0
 70
0
  0
VERTEX
  5
E4
  8
CUT
 10
230.07867965644036
 20
10.121320343559644
 30
0.0
 70
0
  0
VERTEX
  5
E5
  8
CUT
 10
230.5332893009412
 20
10.494408836907636
 30
0.0
 70
0
  0
VERTEX
  5
E6
  8
CUT
 10
231.05194970290472
 20
10.771638597533862
 30
0.0
 70
0
  0
SEQEND
  5
C6
  8
CUT
  0
POLYLINE
  5
E7
  8
CUT
 66
1
 10
0.0
 20
0.0
 30
0.0
 70
1
  0
VERTEX
  5
E9
  8
CUT
 10
127.61472903395162
 20
34.942355841209704
 30
0.0
 70
0
  0
VERTEX
  5
EA
  8
CUT
 10
128.2
 20
35.00000000000001
 30
0.0
 70
0
  0
VERTEX
  5
EB
  8
CUT
 10
128.7852709660484
 20
34.942355841209704
 30
0.0
 70
0
  0
VERTEX
  5
EC
  8
CUT
 10
129.34805029709526
 20
34.771638597533865
 30
0.0
 70
0
  0
VERTEX
  5
ED
  8
CUT
 10
129.8667106990588
 20
34.494408836907645
 30
0.0
 70
0
  0
VERTEX
  5
EE
  8
CUT
 10
130.32132034355965
 20
34.12132034355965
 30
0.0
 70
0
  0
VERTEX
  5
EF
  8
CUT
 10
130.69440883690766
 20
33.66671069905882
 30
0.0
 70
0
  0
VERTEX
  5
F0
  8
CUT
 10
130.97163859753385
 20
33.14805029709528
 30
0.0
 70
0
  0
VERTEX
  5
F1
  8
CUT
 10
131.14235584120968
 20
32.5852709660484
 30
0.0
 70
0
  0
VERTEX
  5
F2
  8
CUT
 10
131.2
 20
32.00000000000001
 30
0.0
 70
0
  0
VERTEX
  5
F3
  8
CUT
 10
131.14235584120968
 20
31.414729033951623
 30
0.0
 70
0
  0
VERTEX
  5
F4
  8
CUT
 10
130.97163859753385
 20
30.85194970290474
 30
0.0
 70
0
  0
VERTEX
  5
F5
  8
CUT
 10
130.69440883690766
 20
30.333289300941203
 30
0.0
 70
0
  0
VERTEX
  5
F6
  8
CUT
 10
130.32132034355965
 20
29.87867965644037
 30
0.0
 70
0
  0
VERTEX
  5
F7
  8
CUT
 10
129.8667106990588
 20
29.505591163092372
 30
0.0
 70
0
  0
VERTEX
  5
F8
  8
CUT
 10
129.34805029709526
 20
29.22836140246615
 30
0.0
 70
0
  0
VERTEX
  5
F9
  8
CUT
 10
128.7852709660484
 20
29.057644158790318
 30
0.0
 70
0
  0
VERTEX
  5
FA
  8
CUT
 10
128.2
 20
29.000000000000007
 30
0.0
 70
0
  0
VERTEX
  5
FB
  8
CUT
 10
127.61472903395162
 20
29.057644158790318
 30
0.0
 70
0
  0
VERTEX
  5
FC
  8
CUT
 10
127.05194970290474
 20
29.22836140246615
 30
0.0
 70
0
  0
VERTEX
  5
FD
  8
CUT
 10
126.53328930094119
 20
29.505591163092372
 30
0.0
 70
0
  0
VERTEX
  5
FE
  8
CUT
 10
126.07867965644036
 20
29.87867965644037
 30
0.0
 70
0
  0
VERTEX
  5
FF
  8
CUT
 10
125.70559116309236
 20
30.333289300941203
 30
0.0
 70
0
  0
VERTEX
  5
100
  8
CUT
 10
125.42836140246615
 20
30.85194970290474
 30
0.0
 70
0
  0
VERTEX
  5
101
  8
CUT
 10
125.25764415879031
 20
31.414729033951623
 30
0.0
 70
0
  0
VERTEX
  5
102
  8
CUT
 10
125.2
 20
32.00000000000001
 30
0.0
 70
0
  0
VERTEX
  5
103
  8
CUT
 10
125.25764415879031
 20
32.5852709660484
 30
0.0
 70
0
  0
VERTEX
  5
104
  8
CUT
 10
125.42836140246615
 20
33.14805029709528
 30
0.0
 70
0
  0
VERTEX
  5
105
  8
CUT
 10
125.70559116309236
 20
33.66671069905881
 30
0.0
 70
0
  0
VERTEX
  5
106
  8
CUT
 10
126.07867965644036
 20
34.12132034355965
 30
0.0
 70
0
  0
VERTEX
  5
107
  8
CUT
 10
126.53328930094119
 20
34.494408836907645
 30
0.0
 70
0
  0
VERTEX
  5
108
  8
CUT
 10
127.05194970290472
 20
34.771638597533865
 30
0.0
 70
0
  0
SEQEND
  5
E8
  8
CUT
  0
POLYLINE
  5
109
  8
CUT
 66
1
 10
0.0
 20
0.0
 30
0.0
 70
1
  0
VERTEX
  5
10B
  8
CUT
 10
181.61472903395162
 20
32.9423558412097
 30
0.0
 70
0
  0
VERTEX
  5
10C
  8
CUT
 10
182.2
 20
33.00000000000001
 30
0.0
 70
0
  0
VERTEX
  5
10D
  8
CUT
 10
182.7852709660484
 20
32.9423558412097
 30
0.0
 70
0
  0
VERTEX
  5
10E
  8
CUT
 10
183.34805029709528
 20
32.771638597533865
 30
0.0
 70
0
  0
VERTEX
  5
10F
  8
CUT
 10
183.8667106990588
 20
32.49440883690764
 30
0.0
 70
0
  0
VERTEX
  5
110
  8
CUT
 10
184.32132034355965
 20
32.121320343559645
 30
0.0
 70
0
  0
VERTEX
  5
111
  8
CUT
 10
184.69440883690763
 20
31.66671069905881
 30
0.0
 70
0
  0
VERTEX
  5
112
  8
CUT
 10
184.97163859753385
 20
31.148050297095274
 30
0.0
 70
0
  0
VERTEX
  5
113
  8
CUT
 10
185.1423558412097
 20
30.58527096604839
 30
0.0
 70
0
  0
VERTEX
  5
114
  8
CUT
 10
185.2
 20
30.000000000000007
 30
0.0
 70
0
  0
VERTEX
  5
115
  8
CUT
 10
185.1423558412097
 20
29.414729033951623
 30
0.0
 70
0
  0
VERTEX
  5
116
  8
CUT
 10
184.97163859753385
 20
28.851949702904736
 30
0.0
 70
0
  0
VERTEX
  5
117
  8
CUT
 10
184.69440883690763
 20
28.3332893009412
 30
0.0
 70
0
  0
VERTEX
  5
118
  8
CUT
 10
184.32132034355965
 20
27.87867965644036
 30
0.0
 70
0
  0
VERTEX
  5
119
  8
CUT
 10
183.8667106990588
 20
27.50559116309237
 30
0.0
 70
0
  0
VERTEX
  5
11A
  8
CUT
 10
183.34805029709528
 20
27.228361402466145
 30
0.0
 70
0
  0
VERTEX
  5
11B
  8
CUT
 10
182.7852709660484
 20
27.057644158790314
 30
0.0
 70
0
  0
VERTEX
  5
11C
  8
CUT
 10
182.2
 20
27.000000000000007
 30
0.0
 70
0
  0
VERTEX
  5
11D
  8
CUT
 10
181.61472903395162
 20
27.057644158790314
 30
0.0
 70
0
  0
VERTEX
  5
11E
  8
CUT
 10
181.05194970290472
 20
27.228361402466145
 30
0.0
 70
0
  0
VERTEX
  5
11F
  8
CUT
 10
180.5332893009412
 20
27.50559116309237
 30
0.0
 70
0
  0
VERTEX
  5
120
  8
CUT
 10
180.07867965644036
 20
27.87867965644036
 30
0.0
 70
0
  0
VERTEX
  5
121
  8
CUT
 10
179.70559116309238
 20
28.333289300941196
 30
0.0
 70
0
  0
VERTEX
  5
122
  8
CUT
 10
179.42836140246615
 20
28.851949702904733
 30
0.0
 70
0
  0
VERTEX
  5
123
  8
CUT
 10
179.2576441587903
 20
29.41472903395162
 30
0.0
 70
0
  0
VERTEX
  5
124
  8
CUT
 10
179.2
 20
30.000000000000007
 30
0.0
 70
0
  0
VERTEX
  5
125
  8
CUT
 10
179.2576441587903
 20
30.58527096604839
 30
0.0
 70
0
  0
VERTEX
  5
126
  8
CUT
 10
179.42836140246615
 20
31.148050297095274
 30
0.0
 70
0
  0
VERTEX
  5
127
  8
CUT
 10
179.70559116309238
 20
31.66671069905881
 30
0.0
 70
0
  0
VERTEX
  5
128
  8
CUT
 10
180.07867965644036
 20
32.121320343559645
 30
0.0
 70
0
  0
VERTEX
  5
129
  8
CUT
 10
180.5332893009412
 20
32.49440883690764
 30
0.0
 70
0
  0
VERTEX
  5
12A
  8
CUT
 10
181.05194970290472
 20
32.771638597533865
 30
0.0
 70
0
  0
SEQEND
  5
10A
  8
CUT
  0
POLYLINE
  5
12B
  8
ENGRAVE
 66
1
 10
0.0
 20
0.0
 30
0.0
 70
0
  0
VERTEX
  5
12D
  8
ENGRAVE
 10
122.2
 20
2.000000000000007
 30
0.0
 70
0
  0
VERTEX
  5
12E
  8
ENGRAVE
 10
122.2
 20
6.80000000000001
 30
0.0
 70
0
  0
SEQEND
  5
12C
  8
ENGRAVE
  0
POLYLINE
  5
12F
  8
ENGRAVE
 66
1
 10
0.0
 20
0.0
 30
0.0
 70
0
  0
VERTEX
  5
131
  8
ENGRAVE
 10
122.2
 20
6.80000000000001
 30
0.0
 70
0
  0
VERTEX
  5
132
  8
ENGRAVE
 10
126.2
 20
6.80000000000001
 30
0.0
 70
0
  0
SEQEND
  5
130
  8
ENGRAVE
  0
POLYLINE
  5
133
  8
ENGRAVE
 66
1
 10
0.0
 20
0.0
 30
0.0
 70
0
  0
VERTEX
  5
135
  8
ENGRAVE
 10
126.2
 20
6.80000000000001
 30
0.0
 70
0
  0
VERTEX
  5
136
  8
ENGRAVE
 10
130.2
 20
6.80000000000001
 30
0.0
 70
0
  0
SEQEND
  5
134
  8
ENGRAVE
  0
POLYLINE
  5
137
  8
ENGRAVE
 66
1
 10
0.0
 20
0.0
 30
0.0
 70
0
  0
VERTEX
  5
139
  8
ENGRAVE
 10
130.2
 20
2.000000000000007
 30
0.0
 70
0
  0
VERTEX
  5
13A
  8
ENGRAVE
 10
130.2
 20
6.80000000000001
 30
0.0
 70
0
  0
SEQEND
  5
138
  8
ENGRAVE
  0
POLYLINE
  5
13B
  8
ENGRAVE
 66
1
 10
0.0
 20
0.0
 30
0.0
 70
0
  0
VERTEX
  5
13D
  8
ENGRAVE
 10
126.2
 20
2.000000000000007
 30
0.0
 70
0
  0
VERTEX
  5
13E
  8
ENGRAVE
 10
130.2
 20
2.000000000000007
 30
0.0
 70
0
  0
SEQEND
  5
13C
  8
ENGRAVE
  0
POLYLINE
  5
13F
  8
ENGRAVE
 66
1
 10
0.0
 20
0.0
 30
0.0
 70
0
  0
VERTEX
  5
141
  8
ENGRAVE
 10
122.2
 20
2.000000000000007
 30
0.0
 70
0
  0
VERTEX
  5
142
  8
ENGRAVE
 10
126.2
 20
2.000000000000007
 30
0.0
 70
0
  0
SEQEND
  5
140
  8
ENGRAVE
  0
POLYLINE
  5
143
  8
ENGRAVE
 66
1
 10
0.0
 20
0.0
 30
0.0
 70
0
  0
VERTEX
  5
145
  8
ENGRAVE
 10
126.2
 20
2.000000000000007
 30
0.0
 70
0
  0
VERTEX
  5
146
  8
ENGRAVE
 10
126.2
 20
6.80000000000001
 30
0.0
 70
0
  0
SEQEND
  5
144
  8
ENGRAVE
  0
POLYLINE
  5
147
  8
CUT
 66
1
 10
0.0
 20
0.0
 30
0.0
 70
1
  0
VERTEX
  5
149
  8
CUT
 10
280.4
 20
2.0833333333333286
 30
0.0
 70
0
  0
VERTEX
  5
14A
  8
CUT
 10
280.4
 20
11.0
 30
0.0
 70
0
  0
VERTEX
  5
14B
  8
CUT
 10
286.4
 20
11.0
 30
0.0
 70
0
  0
VERTEX
  5
14C
  8
CUT
 10
286.4
 20
19.0
 30
0.0
 70
0
  0
VERTEX
  5
14D
  8
CUT
 10
280.4
 20
19.0
 30
0.0
 70
0
  0
VERTEX
  5
14E
  8
CUT
 10
280.4
 20
30.0
 30
0.0
 70
0
  0
VERTEX
  5
14F
  8
CUT
 10
277.6222222222222
 20
30.0
 30
0.0
 70
0
  0
VERTEX
  5
150
  8
CUT
 10
240.39999999999998
 20
30.0
 30
0.0
 70
0
  0
VERTEX
  5
151
  8
CUT
 10
240.39999999999998
 20
27.91666666666667
 30
0.0
 70
0
  0
VERTEX
  5
152
  8
CUT
 10
240.39999999999998
 20
0.0
 30
0.0
 70
0
  0
VERTEX
  5
153
  8
CUT
 10
243.17777777777775
 20
0.0
 30
0.0
 70
0
  0
VERTEX
  5
154
  8
CUT
 10
280.4
 20
0.0
 30
0.0
 70
0
  0
SEQEND
  5
148
  8
CUT
  0
POLYLINE
  5
155
  8
CUT
 66
1
 10
0.0
 20
0.0
 30
0.0
 70
1
  0
VERTEX
  5
157
  8
CUT
 10
251.34235584120967
 20
8.585270966048384
 30
0.0
 70
0
  0
VERTEX
  5
158
  8
CUT
 10
251.39999999999998
 20
8.0
 30
0.0
 70
0
  0
VERTEX
  5
159
  8
CUT
 10
251.34235584120967
 20
7.414729033951616
 30
0.0
 70
0
  0
VERTEX
  5
15A
  8
CUT
 10
251.17163859753384
 20
6.851949702904733
 30
0.0
 70
0
  0
VERTEX
  5
15B
  8
CUT
 10
250.89440883690762
 20
6.333289300941196
 30
0.0
 70
0
  0
VERTEX
  5
15C
  8
CUT
 10
250.5213203435596
 20
5.8786796564403545
 30
0.0
 70
0
  0
VERTEX
  5
15D
  8
CUT
 10
250.06671069905877
 20
5.505591163092362
 30
0.0
 70
0
  0
VERTEX
  5
15E
  8
CUT
 10
249.54805029709524
 20
5.228361402466142
 30
0.0
 70
0
  0
VERTEX
  5
15F
  8
CUT
 10
248.98527096604838
 20
5.0576441587903105
 30
0.0
 70
0
  0
VERTEX
  5
160
  8
CUT
 10
248.39999999999998
 20
5.0
 30
0.0
 70
0
  0
VERTEX
  5
161
  8
CUT
 10
247.8147290339516
 20
5.0576441587903105
 30
0.0
 70
0
  0
VERTEX
  5
162
  8
CUT
 10
247.2519497029047
 20
5.228361402466142
 30
0.0
 70
0
  0
VERTEX
  5
163
  8
CUT
 10
246.73328930094118
 20
5.505591163092362
 30
0.0
 70
0
  0
VERTEX
  5
164
  8
CUT
 10
246.27867965644035
 20
5.8786796564403545
 30
0.0
 70
0
  0
VERTEX
  5
165
  8
CUT
 10
245.90559116309234
 20
6.333289300941196
 30
0.0
 70
0
  0
VERTEX
  5
166
  8
CUT
 10
245.6283614024661
 20
6.851949702904733
 30
0.0
 70
0
  0
VERTEX
  5
167
  8
CUT
 10
245.4576441587903
 20
7.414729033951616
 30
0.0
 70
0
  0
VERTEX
  5
168
  8
CUT
 10
245.39999999999998
 20
8.0
 30
0.0
 70
0
  0
VERTEX
  5
169
  8
CUT
 10
245.4576441587903
 20
8.585270966048384
 30
0.0
 70
0
  0
VERTEX
  5
16A
  8
CUT
 10
245.6283614024661
 20
9.148050297095267
 30
0.0
 70
0
  0
VERTEX
  5
16B
  8
CUT
 10
245.90559116309234
 20
9.666710699058804
 30
0.0
 70
0
  0
VERTEX
  5
16C
  8
CUT
 10
246.27867965644035
 20
10.121320343559645
 30
0.0
 70
0
  0
VERTEX
  5
16D
  8
CUT
 10
246.73328930094118
 20
10.494408836907638
 30
0.0
 70
0
  0
VERTEX
  5
16E
  8
CUT
 10
247.2519497029047
 20
10.771638597533858
 30
0.0
 70
0
  0
VERTEX
  5
16F
  8
CUT
 10
247.81472903395158
 20
10.94235584120969
 30
0.0
 70
0
  0
VERTEX
  5
170
  8
CUT
 10
248.39999999999998
 20
11.0
 30
0.0
 70
0
  0
VERTEX
  5
171
  8
CUT
 10
248.98527096604838
 20
10.94235584120969
 30
0.0
 70
0
  0
VERTEX
  5
172
  8
CUT
 10
249.54805029709524
 20
10.771638597533858
 30
0.0
 70
0
  0
VERTEX
  5
173
  8
CUT
 10
250.06671069905877
 20
10.494408836907638
 30
0.0
 70
0
  0
VERTEX
  5
174
  8
CUT
 10
250.5213203435596
 20
10.121320343559645
 30
0.0
 70
0
  0
VERTEX
  5
175
  8
CUT
 10
250.89440883690762
 20
9.666710699058804
 30
0.0
 70
0
  0
VERTEX
  5
176
  8
CUT
 10
251.17163859753384
 20
9.148050297095274
 30
0.0
 70
0
  0
SEQEND
  5
156
  8
CUT
  0
POLYLINE
  5
177
  8
ENGRAVE
 66
1
 10
0.0
 20
0.0
 30
0.0
 70
0
  0
VERTEX
  5
179
  8
ENGRAVE
 10
247.2
 20
28.0
 30
0.0
 70
0
  0
VERTEX
  5
17A
  8
ENGRAVE
 10
247.2
 20
24.0
 30
0.0
 70
0
  0
SEQEND
  5
178
  8
ENGRAVE
  0
POLYLINE
  5
17B
  8
ENGRAVE
 66
1
 10
0.0
 20
0.0
 30
0.0
 70
0
  0
VERTEX
  5
17D
  8
ENGRAVE
 10
247.2
 20
24.0
 30
0.0
 70
0
  0
VERTEX
  5
17E
  8
ENGRAVE
 10
247.2
 20
20.0
 30
0.0
 70
0
  0
SEQEND
  5
17C
  8
ENGRAVE
  0
POLYLINE
  5
17F
  8
ENGRAVE
 66
1
 10
0.0
 20
0.0
 30
0.0
 70
0
  0
VERTEX
  5
181
  8
ENGRAVE
 10
248.79999999999998
 20
20.0
 30
0.0
 70
0
  0
VERTEX
  5
182
  8
ENGRAVE
 10
253.59999999999997
 20
28.0
 30
0.0
 70
0
  0
SEQEND
  5
180
  8
ENGRAVE
  0
POLYLINE
  5
183
  8
ENGRAVE
 66
1
 10
0.0
 20
0.0
 30
0.0
 70
0
  0
VERTEX
  5
185
  8
ENGRAVE
 10
260.0
 20
24.0
 30
0.0
 70
0
  0
VERTEX
  5
186
  8
ENGRAVE
 10
260.0
 20
20.0
 30
0.0
 70
0
  0
SEQEND
  5
184
  8
ENGRAVE
  0
POLYLINE
  5
187
  8
ENGRAVE
 66
1
 10
0.0
 20
0.0
 30
0.0
 70
0
  0
VERTEX
  5
189
  8
ENGRAVE
 10
255.2
 20
20.0
 30
0.0
 70
0
  0
VERTEX
  5
18A
  8
ENGRAVE
 10
260.0
 20
20.0
 30
0.0
 70
0
  0
SEQEND
  5
188
  8
ENGRAVE
  0
POLYLINE
  5
18B
  8
ENGRAVE
 66
1
 10
0.0
 20
0.0
 30
0.0
 70
0
  0
VERTEX
  5
18D
  8
ENGRAVE
 10
255.2
 20
24.0
 30
0.0
 70
0
  0
VERTEX
  5
18E
  8
ENGRAVE
 10
255.2
 20
20.0
 30
0.0
 70
0
  0
SEQEND
  5
18C
  8
ENGRAVE
  0
POLYLINE
  5
18F
  8
ENGRAVE
 66
1
 10
0.0
 20
0.0
 30
0.0
 70
0
  0
VERTEX
  5
191
  8
ENGRAVE
 10
255.2
 20
28.0
 30
0.0
 70
0
  0
VERTEX
  5
192
  8
ENGRAVE
 10
255.2
 20
24.0
 30
0.0
 70
0
  0
SEQEND
  5
190
  8
ENGRAVE
  0
POLYLINE
  5
193
  8
ENGRAVE
 66
1
 10
0.0
 20
0.0
 30
0.0
 70
0
  0
VERTEX
  5
195
  8
ENGRAVE
 10
255.2
 20
24.0
 30
0.0
 70
0
  0
VERTEX
  5
196
  8
ENGRAVE
 10
260.0
 20
24.0
 30
0.0
 70
0
  0
SEQEND
  5
194
  8
ENGRAVE
  0
POLYLINE
  5
197
  8
CUT
 66
1
 10
0.0
 20
0.0
 30
0.0
 70
1
  0
VERTEX
  5
199
  8
CUT
 10
326.6
 20
2.0833333333333286
 30
0.0
 70
0
  0
VERTEX
  5
19A
  8
CUT
 10
326.6
 20
11.0
 30
0.0
 70
0
  0
VERTEX
  5
19B
  8
CUT
 10
332.6
 20
11.0
 30
0.0
 70
0
  0
VERTEX
  5
19C
  8
CUT
 10
332.6
 20
19.0
 30
0.0
 70
0
  0
VERTEX
  5
19D
  8
CUT
 10
326.6
 20
19.0
 30
0.0
 70
0
  0
VERTEX
  5
19E
  8
CUT
 10
326.6
 20
30.0
 30
0.0
 70
0
  0
VERTEX
  5
19F
  8
CUT
 10
323.82222222222225
 20
30.0
 30
0.0
 70
0
  0
VERTEX
  5
1A0
  8
CUT
 10
286.6
 20
30.0
 30
0.0
 70
0
  0
VERTEX
  5
1A1
  8
CUT
 10
286.6
 20
27.91666666666667
 30
0.0
 70
0
  0
VERTEX
  5
1A2
  8
CUT
 10
286.6
 20
0.0
 30
0.0
 70
0
  0
VERTEX
  5
1A3
  8
CUT
 10
289.3777777777778
 20
0.0
 30
0.0
 70
0
  0
VERTEX
  5
1A4
  8
CUT
 10
326.6
 20
0.0
 30
0.0
 70
0
  0
SEQEND
  5
198
  8
CUT
  0
POLYLINE
  5
1A5
  8
CUT
 66
1
 10
0.0
 20
0.0
 30
0.0
 70
1
  0
VERTEX
  5
1A7
  8
CUT
 10
321.5423558412097
 20
22.585270966048384
 30
0.0
 70
0
  0
VERTEX
  5
1A8
  8
CUT
 10
321.6
 20
22.0
 30
0.0
 70
0
  0
VERTEX
  5
1A9
  8
CUT
 10
321.5423558412097
 20
21.414729033951616
 30
0.0
 70
0
  0
VERTEX
  5
1AA
  8
CUT
 10
321.3716385975339
 20
20.851949702904733
 30
0.0
 70
0
  0
VERTEX
  5
1AB
  8
CUT
 10
321.09440883690763
 20
20.333289300941196
 30
0.0
 70
0
  0
VERTEX
  5
1AC
  8
CUT
 10
320.7213203435597
 20
19.878679656440355
 30
0.0
 70
0
  0
VERTEX
  5
1AD
  8
CUT
 10
320.2667106990588
 20
19.50559116309236
 30
0.0
 70
0
  0
VERTEX
  5
1AE
  8
CUT
 10
319.7480502970953
 20
19.228361402466142
 30
0.0
 70
0
  0
VERTEX
  5
1AF
  8
CUT
 10
319.1852709660484
 20
19.05764415879031
 30
0.0
 70
0
  0
VERTEX
  5
1B0
  8
CUT
 10
318.6
 20
19.0
 30
0.0
 70
0
  0
VERTEX
  5
1B1
  8
CUT
 10
318.01472903395165
 20
19.05764415879031
 30
0.0
 70
0
  0
VERTEX
  5
1B2
  8
CUT
 10
317.45194970290476
 20
19.228361402466142
 30
0.0
 70
0
  0
VERTEX
  5
1B3
  8
CUT
 10
316.9332893009412
 20
19.50559116309236
 30
0.0
 70
0
  0
VERTEX
  5
1B4
  8
CUT
 10
316.47867965644036
 20
19.878679656440355
 30
0.0
 70
0
  0
VERTEX
  5
1B5
  8
CUT
 10
316.1055911630924
 20
20.333289300941196
 30
0.0
 70
0
  0
VERTEX
  5
1B6
  8
CUT
 10
315.82836140246616
 20
20.851949702904733
 30
0.0
 70
0
  0
VERTEX
  5
1B7
  8
CUT
 10
315.65764415879033
 20
21.414729033951616
 30
0.0
 70
0
  0
VERTEX
  5
1B8
  8
CUT
 10
315.6
 20
22.0
 30
0.0
 70
0
  0
VERTEX
  5
1B9
  8
CUT
 10
315.65764415879033
 20
22.585270966048384
 30
0.0
 70
0
  0
VERTEX
  5
1BA
  8
CUT
 10
315.82836140246616
 20
23.148050297095267
 30
0.0
 70
0
  0
VERTEX
  5
1BB
  8
CUT
 10
316.1055911630924
 20
23.666710699058804
 30
0.0
 70
0
  0
VERTEX
  5
1BC
  8
CUT
 10
316.47867965644036
 20
24.121320343559645
 30
0.0
 70
0
  0
VERTEX
  5
1BD
  8
CUT
 10
316.9332893009412
 20
24.49440883690764
 30
0.0
 70
0
  0
VERTEX
  5
1BE
  8
CUT
 10
317.45194970290476
 20
24.771638597533858
 30
0.0
 70
0
  0
VERTEX
  5
1BF
  8
CUT
 10
318.01472903395165
 20
24.94235584120969
 30
0.0
 70
0
  0
VERTEX
  5
1C0
  8
CUT
 10
318.6
 20
25.0
 30
0.0
 70
0
  0
VERTEX
  5
1C1
  8
CUT
 10
319.1852709660484
 20
24.94235584120969
 30
0.0
 70
0
  0
VERTEX
  5
1C2
  8
CUT
 10
319.7480502970953
 20
24.771638597533858
 30
0.0
 70
0
  0
VERTEX
  5
1C3
  8
CUT
 10
320.2667106990588
 20
24.49440883690764
 30
0.0
 70
0
  0
VERTEX
  5
1C4
  8
CUT
 10
320.7213203435597
 20
24.121320343559645
 30
0.0
 70
0
  0
VERTEX
  5
1C5
  8
CUT
 10
321.09440883690763
 20
23.666710699058804
 30
0.0
 70
0
  0
VERTEX
  5
1C6
  8
CUT
 10
321.3716385975339
 20
23.148050297095274
 30
0.0
 70
0
  0
SEQEND
  5
1A6
  8
CUT
  0
POLYLINE
  5
1C7
  8
ENGRAVE
 66
1
 10
0.0
 20
0.0
 30
0.0
 70
0
  0
VERTEX
  5
1C9
  8
ENGRAVE
 10
293.40000000000003
 20
28.0
 30
0.0
 70
0
  0
VERTEX
  5
1CA
  8
ENGRAVE
 10
293.40000000000003
 20
24.0
 30
0.0
 70
0
  0
SEQEND
  5
1C8
  8
ENGRAVE
  0
POLYLINE
  5
1CB
  8
ENGRAVE
 66
1
 10
0.0
 20
0.0
 30
0.0
 70
0
  0
VERTEX
  5
1CD
  8
ENGRAVE
 10
293.40000000000003
 20
24.0
 30
0.0
 70
0
  0
VERTEX
  5
1CE
  8
ENGRAVE
 10
293.40000000000003
 20
20.0
 30
0.0
 70
0
  0
SEQEND
  5
1CC
  8
ENGRAVE
  0
POLYLINE
  5
1CF
  8
ENGRAVE
 66
1
 10
0.0
 20
0.0
 30
0.0
 70
0
  0
VERTEX
  5
1D1
  8
ENGRAVE
 10
295.0
 20
20.0
 30
0.0
 70
0
  0
VERTEX
  5
1D2
  8
ENGRAVE
 10
299.8
 20
28.0
 30
0.0
 70
0
  0
SEQEND
  5
1D0
  8
ENGRAVE
  0
POLYLINE
  5
1D3
  8
ENGRAVE
 66
1
 10
0.0
 20
0.0
 30
0.0
 70
0
  0
VERTEX
  5
1D5
  8
ENGRAVE
 10
301.40000000000003
 20
28.0
 30
0.0
 70
0
  0
VERTEX
  5
1D6
  8
ENGRAVE
 10
306.20000000000005
 20
28.0
 30
0.0
 70
0
  0
SEQEND
  5
1D4
  8
ENGRAVE
  0
POLYLINE
  5
1D7
  8
ENGRAVE
 66
1
 10
0.0
 20
0.0
 30
0.0
 70
0
  0
VERTEX
  5
1D9
  8
ENGRAVE
 10
306.20000000000005
 20
28.0
 30
0.0
 70
0
  0
VERTEX
  5
1DA
  8
ENGRAVE
 10
306.20000000000005
 20
24.0
 30
0.0
 70
0
  0
SEQEND
  5
1D8
  8
ENGRAVE
  0
POLYLINE
  5
1DB
  8
ENGRAVE
 66
1
 10
0.0
 20
0.0
 30
0.0
 70
0
  0
VERTEX
  5
1DD
  8
ENGRAVE
 10
306.20000000000005
 20
24.0
 30
0.0
 70
0
  0
VERTEX
  5
1DE
  8
ENGRAVE
 10
306.20000000000005
 20
20.0
 30
0.0
 70
0
  0
SEQEND
  5
1DC
  8
ENGRAVE
  0
POLYLINE
  5
1DF
  8
ENGRAVE
 66
1
 10
0.0
 20
0.0
 30
0.0
 70
0
  0
VERTEX
  5
1E1
  8
ENGRAVE
 10
301.40000000000003
 20
24.0
 30
0.0
 70
0
  0
VERTEX
  5
1E2
  8
ENGRAVE
 10
301.40000000000003
 20
20.0
 30
0.0
 70
0
  0
SEQEND
  5
1E0
  8
ENGRAVE
  0
POLYLINE
  5
1E3
  8
ENGRAVE
 66
1
 10
0.0
 20
0.0
 30
0.0
 70
0
  0
VERTEX
  5
1E5
  8
ENGRAVE
 10
301.40000000000003
 20
28.0
 30
0.0
 70
0
  0
VERTEX
  5
1E6
  8
ENGRAVE
 10
301.40000000000003
 20
24.0
 30
0.0
 70
0
  0
SEQEND
  5
1E4
  8
ENGRAVE
  0
POLYLINE
  5
1E7
  8
ENGRAVE
 66
1
 10
0.0
 20
0.0
 30
0.0
 70
0
  0
VERTEX
  5
1E9
  8
ENGRAVE
 10
301.40000000000003
 20
24.0
 30
0.0
 70
0
  0
VERTEX
  5
1EA
  8
ENGRAVE
 10
306.20000000000005
 20
24.0
 30
0.0
 70
0
  0
SEQEND
  5
1E8
  8
ENGRAVE
  0
POLYLINE
  5
1EB
  8
CUT
 66
1
 10
0.0
 20
0.0
 30
0.0
 70
1
  0
VERTEX
  5
1ED
  8
CUT
 10
372.8
 20
7.083333333333336
 30
0.0
 70
0
  0
VERTEX
  5
1EE
  8
CUT
 10
372.8
 20
11.0
 30
0.0
 70
0
  0
VERTEX
  5
1EF
  8
CUT
 10
378.8
 20
11.0
 30
0.0
 70
0
  0
VERTEX
  5
1F0
  8
CUT
 10
378.8
 20
19.0
 30
0.0
 70
0
  0
VERTEX
  5
1F1
  8
CUT
 10
372.8
 20
19.0
 30
0.0
 70
0
  0
VERTEX
  5
1F2
  8
CUT
 10
372.8
 20
30.0
 30
0.0
 70
0
  0
VERTEX
  5
1F3
  8
CUT
 10
363.35555555555555
 20
30.0
 30
0.0
 70
0
  0
VERTEX
  5
1F4
  8
CUT
 10
332.8
 20
30.0
 30
0.0
 70
0
  0
VERTEX
  5
1F5
  8
CUT
 10
332.8
 20
22.916666666666664
 30
0.0
 70
0
  0
VERTEX
  5
1F6
  8
CUT
 10
332.8
 20
0.0
 30
0.0
 70
0
  0
VERTEX
  5
1F7
  8
CUT
 10
342.24444444444447
 20
0.0
 30
0.0
 70
0
  0
VERTEX
  5
1F8
  8
CUT
 10
372.8
 20
0.0
 30
0.0
 70
0
  0
SEQEND
  5
1EC
  8
CUT
  0
POLYLINE
  5
1F9
  8
CUT
 66
1
 10
0.0
 20
0.0
 30
0.0
 70
1
  0
VERTEX
  5
1FB
  8
CUT
 10
343.7423558412097
 20
8.585270966048384
 30
0.0
 70
0
  0
VERTEX
  5
1FC
  8
CUT
 10
343.8
 20
8.0
 30
0.0
 70
0
  0
VERTEX
  5
1FD
  8
CUT
 10
343.7423558412097
 20
7.414729033951616
 30
0.0
 70
0
  0
VERTEX
  5
1FE
  8
CUT
 10
343.5716385975339
 20
6.851949702904733
 30
0.0
 70
0
  0
VERTEX
  5
1FF
  8
CUT
 10
343.2944088369076
 20
6.333289300941196
 30
0.0
 70
0
  0
VERTEX
  5
200
  8
CUT
 10
342.92132034355967
 20
5.8786796564403545
 30
0.0
 70
0
  0
VERTEX
  5
201
  8
CUT
 10
342.4667106990588
 20
5.505591163092362
 30
0.0
 70
0
  0
VERTEX
  5
202
  8
CUT
 10
341.9480502970953
 20
5.228361402466142
 30
0.0
 70
0
  0
VERTEX
  5
203
  8
CUT
 10
341.3852709660484
 20
5.0576441587903105
 30
0.0
 70
0
  0
VERTEX
  5
204
  8
CUT
 10
340.8
 20
5.0
 30
0.0
 70
0
  0
VERTEX
  5
205
  8
CUT
 10
340.21472903395164
 20
5.0576441587903105
 30
0.0
 70
0
  0
VERTEX
  5
206
  8
CUT
 10
339.65194970290474
 20
5.228361402466142
 30
0.0
 70
0
  0
VERTEX
  5
207
  8
CUT
 10
339.1332893009412
 20
5.505591163092362
 30
0.0
 70
0
  0
VERTEX
  5
208
  8
CUT
 10
338.67867965644035
 20
5.8786796564403545
 30
0.0
 70
0
  0
VERTEX
  5
209
  8
CUT
 10
338.3055911630924
 20
6.333289300941196
 30
0.0
 70
0
  0
VERTEX
  5
20A
  8
CUT
 10
338.02836140246615
 20
6.851949702904733
 30
0.0
 70
0
  0
VERTEX
  5
20B
  8
CUT
 10
337.8576441587903
 20
7.414729033951616
 30
0.0
 70
0
  0
VERTEX
  5
20C
  8
CUT
 10
337.8
 20
8.0
 30
0.0
 70
0
  0
VERTEX
  5
20D
  8
CUT
 10
337.8576441587903
 20
8.585270966048384
 30
0.0
 70
0
  0
VERTEX
  5
20E
  8
CUT
 10
338.02836140246615
 20
9.148050297095267
 30
0.0
 70
0
  0
VERTEX
  5
20F
  8
CUT
 10
338.3055911630924
 20
9.666710699058804
 30
0.0
 70
0
  0
VERTEX
  5
210
  8
CUT
 10
338.67867965644035
 20
10.121320343559645
 30
0.0
 70
0
  0
VERTEX
  5
211
  8
CUT
 10
339.1332893009412
 20
10.494408836907638
 30
0.0
 70
0
  0
VERTEX
  5
212
  8
CUT
 10
339.65194970290474
 20
10.771638597533858
 30
0.0
 70
0
  0
VERTEX
  5
213
  8
CUT
 10
340.21472903395164
 20
10.94235584120969
 30
0.0
 70
0
  0
VERTEX
  5
214
  8
CUT
 10
340.8
 20
11.0
 30
0.0
 70
0
  0
VERTEX
  5
215
  8
CUT
 10
341.3852709660484
 20
10.94235584120969
 30
0.0
 70
0
  0
VERTEX
  5
216
  8
CUT
 10
341.9480502970953
 20
10.771638597533858
 30
0.0
 70
0
  0
VERTEX
  5
217
  8
CUT
 10
342.4667106990588
 20
10.494408836907638
 30
0.0
 70
0
  0
VERTEX
  5
218
  8
CUT
 10
342.92132034355967
 20
10.121320343559645
 30
0.0
 70
0
  0
VERTEX
  5
219
  8
CUT
 10
343.2944088369076
 20
9.666710699058804
 30
0.0
 70
0
  0
VERTEX
  5
21A
  8
CUT
 10
343.5716385975339
 20
9.148050297095274
 30
0.0
 70
0
  0
SEQEND
  5
1FA
  8
CUT
  0
POLYLINE
  5
21B
  8
ENGRAVE
 66
1
 10
0.0
 20
0.0
 30
0.0
 70
0
  0
VERTEX
  5
21D
  8
ENGRAVE
 10
334.8
 20
28.0
 30
0.0
 70
0
  0
VERTEX
  5
21E
  8
ENGRAVE
 10
339.6
 20
28.0
 30
0.0
 70
0
  0
SEQEND
  5
21C
  8
ENGRAVE
  0
POLYLINE
  5
21F
  8
ENGRAVE
 66
1
 10
0.0
 20
0.0
 30
0.0
 70
0
  0
VERTEX
  5
221
  8
ENGRAVE
 10
339.6
 20
28.0
 30
0.0
 70
0
  0
VERTEX
  5
222
  8
ENGRAVE
 10
339.6
 20
24.0
 30
0.0
 70
0
  0
SEQEND
  5
220
  8
ENGRAVE
  0
POLYLINE
  5
223
  8
ENGRAVE
 66
1
 10
0.0
 20
0.0
 30
0.0
 70
0
  0
VERTEX
  5
225
  8
ENGRAVE
 10
334.8
 20
24.0
 30
0.0
 70
0
  0
VERTEX
  5
226
  8
ENGRAVE
 10
339.6
 20
24.0
 30
0.0
 70
0
  0
SEQEND
  5
224
  8
ENGRAVE
  0
POLYLINE
  5
227
  8
ENGRAVE
 66
1
 10
0.0
 20
0.0
 30
0.0
 70
0
  0
VERTEX
  5
229
  8
ENGRAVE
 10
334.8
 20
24.0
 30
0.0
 70
0
  0
VERTEX
  5
22A
  8
ENGRAVE
 10
334.8
 20
20.0
 30
0.0
 70
0
  0
SEQEND
  5
228
  8
ENGRAVE
  0
POLYLINE
  5
22B
  8
ENGRAVE
 66
1
 10
0.0
 20
0.0
 30
0.0
 70
0
  0
VERTEX
  5
22D
  8
ENGRAVE
 10
334.8
 20
20.0
 30
0.0
 70
0
  0
VERTEX
  5
22E
  8
ENGRAVE
 10
339.6
 20
20.0
 30
0.0
 70
0
  0
SEQEND
  5
22C
  8
ENGRAVE
  0
POLYLINE
  5
22F
  8
ENGRAVE
 66
1
 10
0.0
 20
0.0
 30
0.0
 70
0
  0
VERTEX
  5
231
  8
ENGRAVE
 10
341.2
 20
20.0
 30
0.0
 70
0
  0
VERTEX
  5
232
  8
ENGRAVE
 10
346.0
 20
28.0
 30
0.0
 70
0
  0
SEQEND
  5
230
  8
ENGRAVE
  0
POLYLINE
  5
233
  8
ENGRAVE
 66
1
 10
0.0
 20
0.0
 30
0.0
 70
0
  0
VERTEX
  5
235
  8
ENGRAVE
 10
352.40000000000003
 20
24.0
 30
0.0
 70
0
  0
VERTEX
  5
236
  8
ENGRAVE
 10
352.40000000000003
 20
20.0
 30
0.0
 70
0
  0
SEQEND
  5
234
  8
ENGRAVE
  0
POLYLINE
  5
237
  8
ENGRAVE
 66
1
 10
0.0
 20
0.0
 30
0.0
 70
0
  0
VERTEX
  5
239
  8
ENGRAVE
 10
347.6
 20
20.0
 30
0.0
 70
0
  0
VERTEX
  5
23A
  8
ENGRAVE
 10
352.40000000000003
 20
20.0
 30
0.0
 70
0
  0
SEQEND
  5
238
  8
ENGRAVE
  0
POLYLINE
  5
23B
  8
ENGRAVE
 66
1
 10
0.0
 20
0.0
 30
0.0
 70
0
  0
VERTEX
  5
23D
  8
ENGRAVE
 10
347.6
 20
24.0
 30
0.0
 70
0
  0
VERTEX
  5
23E
  8
ENGRAVE
 10
347.6
 20
20.0
 30
0.0
 70
0
  0
SEQEND
  5
23C
  8
ENGRAVE
  0
POLYLINE
  5
23F
  8
ENGRAVE
 66
1
 10
0.0
 20
0.0
 30
0.0
 70
0
  0
VERTEX
  5
241
  8
ENGRAVE
 10
347.6
 20
28.0
 30
0.0
 70
0
  0
VERTEX
  5
242
  8
ENGRAVE
 10
347.6
 20
24.0
 30
0.0
 70
0
  0
SEQEND
  5
240
  8
ENGRAVE
  0
POLYLINE
  5
243
  8
ENGRAVE
 66
1
 10
0.0
 20
0.0
 30
0.0
 70
0
  0
VERTEX
  5
245
  8
ENGRAVE
 10
347.6
 20
24.0
 30
0.0
 70
0
  0
VERTEX
  5
246
  8
ENGRAVE
 10
352.40000000000003
 20
24.0
 30
0.0
 70
0
  0
SEQEND
  5
244
  8
ENGRAVE
  0
POLYLINE
  5
247
  8
CUT
 66
1
 10
0.0
 20
0.0
 30
0.0
 70
1
  0
VERTEX
  5
249
  8
CUT
 10
419.0
 20
7.083333333333336
 30
0.0
 70
0
  0
VERTEX
  5
24A
  8
CUT
 10
419.0
 20
11.0
 30
0.0
 70
0
  0
VERTEX
  5
24B
  8
CUT
 10
425.0
 20
11.0
 30
0.0
 70
0
  0
VERTEX
  5
24C
  8
CUT
 10
425.0
 20
19.0
 30
0.0
 70
0
  0
VERTEX
  5
24D
  8
CUT
 10
419.0
 20
19.0
 30
0.0
 70
0
  0
VERTEX
  5
24E
  8
CUT
 10
419.0
 20
30.0
 30
0.0
 70
0
  0
VERTEX
  5
24F
  8
CUT
 10
409.55555555555554
 20
30.0
 30
0.0
 70
0
  0
VERTEX
  5
250
  8
CUT
 10
379.0
 20
30.0
 30
0.0
 70
0
  0
VERTEX
  5
251
  8
CUT
 10
379.0
 20
22.916666666666664
 30
0.0
 70
0
  0
VERTEX
  5
252
  8
CUT
 10
379.0
 20
0.0
 30
0.0
 70
0
  0
VERTEX
  5
253
  8
CUT
 10
388.44444444444446
 20
0.0
 30
0.0
 70
0
  0
VERTEX
  5
254
  8
CUT
 10
419.0
 20
0.0
 30
0.0
 70
0
  0
SEQEND
  5
248
  8
CUT
  0
POLYLINE
  5
255
  8
CUT
 66
1
 10
0.0
 20
0.0
 30
0.0
 70
1
  0
VERTEX
  5
257
  8
CUT
 10
413.9423558412097
 20
22.585270966048384
 30
0.0
 70
0
  0
VERTEX
  5
258
  8
CUT
 10
414.0
 20
22.0
 30
0.0
 70
0
  0
VERTEX
  5
259
  8
CUT
 10
413.9423558412097
 20
21.414729033951616
 30
0.0
 70
0
  0
VERTEX
  5
25A
  8
CUT
 10
413.77163859753387
 20
20.851949702904733
 30
0.0
 70
0
  0
VERTEX
  5
25B
  8
CUT
 10
413.4944088369076
 20
20.333289300941196
 30
0.0
 70
0
  0
VERTEX
  5
25C
  8
CUT
 10
413.12132034355966
 20
19.878679656440355
 30
0.0
 70
0
  0
VERTEX
  5
25D
  8
CUT
 10
412.6667106990588
 20
19.50559116309236
 30
0.0
 70
0
  0
VERTEX
  5
25E
  8
CUT
 10
412.14805029709527
 20
19.228361402466142
 30
0.0
 70
0
  0
VERTEX
  5
25F
  8
CUT
 10
411.58527096604837
 20
19.05764415879031
 30
0.0
 70
0
  0
VERTEX
  5
260
  8
CUT
 10
411.0
 20
19.0
 30
0.0
 70
0
  0
VERTEX
  5
261
  8
CUT
 10
410.41472903395163
 20
19.05764415879031
 30
0.0
 70
0
  0
VERTEX
  5
262
  8
CUT
 10
409.85194970290473
 20
19.228361402466142
 30
0.0
 70
0
  0
VERTEX
  5
263
  8
CUT
 10
409.3332893009412
 20
19.50559116309236
 30
0.0
 70
0
  0
VERTEX
  5
264
  8
CUT
 10
408.87867965644034
 20
19.878679656440355
 30
0.0
 70
0
  0
VERTEX
  5
265
  8
CUT
 10
408.5055911630924
 20
20.333289300941196
 30
0.0
 70
0
  0
VERTEX
  5
266
  8
CUT
 10
408.22836140246613
 20
20.851949702904733
 30
0.0
 70
0
  0
VERTEX
  5
267
  8
CUT
 10
408.0576441587903
 20
21.414729033951616
 30
0.0
 70
0
  0
VERTEX
  5
268
  8
CUT
 10
408.0
 20
22.0
 30
0.0
 70
0
  0
VERTEX
  5
269
  8
CUT
 10
408.0576441587903
 20
22.585270966048384
 30
0.0
 70
0
  0
VERTEX
  5
26A
  8
CUT
 10
408.22836140246613
 20
23.148050297095267
 30
0.0
 70
0
  0
VERTEX
  5
26B
  8
CUT
 10
408.5055911630924
 20
23.666710699058804
 30
0.0
 70
0
  0
VERTEX
  5
26C
  8
CUT
 10
408.87867965644034
 20
24.121320343559645
 30
0.0
 70
0
  0
VERTEX
  5
26D
  8
CUT
 10
409.3332893009412
 20
24.49440883690764
 30
0.0
 70
0
  0
VERTEX
  5
26E
  8
CUT
 10
409.85194970290473
 20
24.771638597533858
 30
0.0
 70
0
  0
VERTEX
  5
26F
  8
CUT
 10
410.41472903395163
 20
24.94235584120969
 30
0.0
 70
0
  0
VERTEX
  5
270
  8
CUT
 10
411.0
 20
25.0
 30
0.0
 70
0
  0
VERTEX
  5
271
  8
CUT
 10
411.58527096604837
 20
24.94235584120969
 30
0.0
 70
0
  0
VERTEX
  5
272
  8
CUT
 10
412.14805029709527
 20
24.771638597533858
 30
0.0
 70
0
  0
VERTEX
  5
273
  8
CUT
 10
412.6667106990588
 20
24.49440883690764
 30
0.0
 70
0
  0
VERTEX
  5
274
  8
CUT
 10
413.12132034355966
 20
24.121320343559645
 30
0.0
 70
0
  0
VERTEX
  5
275
  8
CUT
 10
413.4944088369076
 20
23.666710699058804
 30
0.0
 70
0
  0
VERTEX
  5
276
  8
CUT
 10
413.77163859753387
 20
23.148050297095274
 30
0.0
 70
0
  0
SEQEND
  5
256
  8
CUT
  0
POLYLINE
  5
277
  8
ENGRAVE
 66
1
 10
0.0
 20
0.0
 30
0.0
 70
0
  0
VERTEX
  5
279
  8
ENGRAVE
 10
381.0
 20
28.0
 30
0.0
 70
0
  0
VERTEX
  5
27A
  8
ENGRAVE
 10
385.8
 20
28.0
 30
0.0
 70
0
  0
SEQEND
  5
278
  8
ENGRAVE
  0
POLYLINE
  5
27B
  8
ENGRAVE
 66
1
 10
0.0
 20
0.0
 30
0.0
 70
0
  0
VERTEX
  5
27D
  8
ENGRAVE
 10
385.8
 20
28.0
 30
0.0
 70
0
  0
VERTEX
  5
27E
  8
ENGRAVE
 10
385.8
 20
24.0
 30
0.0
 70
0
  0
SEQEND
  5
27C
  8
ENGRAVE
  0
POLYLINE
  5
27F
  8
ENGRAVE
 66
1
 10
0.0
 20
0.0
 30
0.0
 70
0
  0
VERTEX
  5
281
  8
ENGRAVE
 10
381.0
 20
24.0
 30
0.0
 70
0
  0
VERTEX
  5
282
  8
ENGRAVE
 10
385.8
 20
24.0
 30
0.0
 70
0
  0
SEQEND
  5
280
  8
ENGRAVE
  0
POLYLINE
  5
283
  8
ENGRAVE
 66
1
 10
0.0
 20
0.0
 30
0.0
 70
0
  0
VERTEX
  5
285
  8
ENGRAVE
 10
381.0
 20
24.0
 30
0.0
 70
0
  0
VERTEX
  5
286
  8
ENGRAVE
 10
381.0
 20
20.0
 30
0.0
 70
0
  0
SEQEND
  5
284
  8
ENGRAVE
  0
POLYLINE
  5
287
  8
ENGRAVE
 66
1
 10
0.0
 20
0.0
 30
0.0
 70
0
  0
VERTEX
  5
289
  8
ENGRAVE
 10
381.0
 20
20.0
 30
0.0
 70
0
  0
VERTEX
  5
28A
  8
ENGRAVE
 10
385.8
 20
20.0
 30
0.0
 70
0
  0
SEQEND
  5
288
  8
ENGRAVE
  0
POLYLINE
  5
28B
  8
ENGRAVE
 66
1
 10
0.0
 20
0.0
 30
0.0
 70
0
  0
VERTEX
  5
28D
  8
ENGRAVE
 10
387.4
 20
20.0
 30
0.0
 70
0
  0
VERTEX
  5
28E
  8
ENGRAVE
 10
392.2
 20
28.0
 30
0.0
 70
0
  0
SEQEND
  5
28C
  8
ENGRAVE
  0
POLYLINE
  5
28F
  8
ENGRAVE
 66
1
 10
0.0
 20
0.0
 30
0.0
 70
0
  0
VERTEX
  5
291
  8
ENGRAVE
 10
393.8
 20
28.0
 30
0.0
 70
0
  0
VERTEX
  5
292
  8
ENGRAVE
 10
398.6
 20
28.0
 30
0.0
 70
0
  0
SEQEND
  5
290
  8
ENGRAVE
  0
POLYLINE
  5
293
  8
ENGRAVE
 66
1
 10
0.0
 20
0.0
 30
0.0
 70
0
  0
VERTEX
  5
295
  8
ENGRAVE
 10
398.6
 20
28.0
 30
0.0
 70
0
  0
VERTEX
  5
296
  8
ENGRAVE
 10
398.6
 20
24.0
 30
0.0
 70
0
  0
SEQEND
  5
294
  8
ENGRAVE
  0
POLYLINE
  5
297
  8
ENGRAVE
 66
1
 10
0.0
 20
0.0
 30
0.0
 70
0
  0
VERTEX
  5
299
  8
ENGRAVE
 10
398.6
 20
24.0
 30
0.0
 70
0
  0
VERTEX
  5
29A
  8
ENGRAVE
 10
398.6
 20
20.0
 30
0.0
 70
0
  0
SEQEND
  5
298
  8
ENGRAVE
  0
POLYLINE
  5
29B
  8
ENGRAVE
 66
1
 10
0.0
 20
0.0
 30
0.0
 70
0
  0
VERTEX
  5
29D
  8
ENGRAVE
 10
393.8
 20
24.0
 30
0.0
 70
0
  0
VERTEX
  5
29E
  8
ENGRAVE
 10
393.8
 20
20.0
 30
0.0
 70
0
  0
SEQEND
  5
29C
  8
ENGRAVE
  0
POLYLINE
  5
29F
  8
ENGRAVE
 66
1
 10
0.0
 20
0.0
 30
0.0
 70
0
  0
VERTEX
  5
2A1
  8
ENGRAVE
 10
393.8
 20
28.0
 30
0.0
 70
0
  0
VERTEX
  5
2A2
  8
ENGRAVE
 10
393.8
 20
24.0
 30
0.0
 70
0
  0
SEQEND
  5
2A0
  8
ENGRAVE
  0
POLYLINE
  5
2A3
  8
ENGRAVE
 66
1
 10
0.0
 20
0.0
 30
0.0
 70
0
  0
VERTEX
  5
2A5
  8
ENGRAVE
 10
393.8
 20
24.0
 30
0.0
 70
0
  0
VERTEX
  5
2A6
  8
ENGRAVE
 10
398.6
 20
24.0
 30
0.0
 70
0
  0
SEQEND
  5
2A4
  8
ENGRAVE
  0
POLYLINE
  5
2A7
  8
CUT
 66
1
 10
0.0
 20
0.0
 30
0.0
 70
1
  0
VERTEX
  5
2A9
  8
CUT
 10
465.2
 20
0.0
 30
0.0
 70
0
  0
VERTEX
  5
2AA
  8
CUT
 10
465.2
 20
11.0
 30
0.0
 70
0
  0
VERTEX
  5
2AB
  8
CUT
 10
471.2
 20
11.0
 30
0.0
 70
0
  0
VERTEX
  5
2AC
  8
CUT
 10
471.2
 20
19.0
 30
0.0
 70
0
  0
VERTEX
  5
2AD
  8
CUT
 10
465.2
 20
19.0
 30
0.0
 70
0
  0
VERTEX
  5
2AE
  8
CUT
 10
465.2
 20
30.0
 30
0.0
 70
0
  0
VERTEX
  5
2AF
  8
CUT
 10
449.0888888888889
 20
30.0
 30
0.0
 70
0
  0
VERTEX
  5
2B0
  8
CUT
 10
425.2
 20
30.0
 30
0.0
 70
0
  0
VERTEX
  5
2B1
  8
CUT
 10
425.2
 20
17.916666666666664
 30
0.0
 70
0
  0
VERTEX
  5
2B2
  8
CUT
 10
425.2
 20
0.0
 30
0.0
 70
0
  0
VERTEX
  5
2B3
  8
CUT
 10
441.3111111111111
 20
0.0
 30
0.0
 70
0
  0
SEQEND
  5
2A8
  8
CUT
  0
POLYLINE
  5
2B4
  8
CUT
 66
1
 10
0.0
 20
0.0
 30
0.0
 70
1
  0
VERTEX
  5
2B6
  8
CUT
 10
436.1423558412097
 20
8.585270966048384
 30
0.0
 70
0
  0
VERTEX
  5
2B7
  8
CUT
 10
436.2
 20
8.0
 30
0.0
 70
0
  0
VERTEX
  5
2B8
  8
CUT
 10
436.1423558412097
 20
7.414729033951616
 30
0.0
 70
0
  0
VERTEX
  5
2B9
  8
CUT
 10
435.97163859753385
 20
6.851949702904733
 30
0.0
 70
0
  0
VERTEX
  5
2BA
  8
CUT
 10
435.6944088369076
 20
6.333289300941196
 30
0.0
 70
0
  0
VERTEX
  5
2BB
  8
CUT
 10
435.32132034355965
 20
5.8786796564403545
 30
0.0
 70
0
  0
VERTEX
  5
2BC
  8
CUT
 10
434.8667106990588
 20
5.505591163092362
 30
0.0
 70
0
  0
VERTEX
  5
2BD
  8
CUT
 10
434.34805029709526
 20
5.228361402466142
 30
0.0
 70
0
  0
VERTEX
  5
2BE
  8
CUT
 10
433.78527096604836
 20
5.0576441587903105
 30
0.0
 70
0
  0
VERTEX
  5
2BF
  8
CUT
 10
433.2
 20
5.0
 30
0.0
 70
0
  0
VERTEX
  5
2C0
  8
CUT
 10
432.6147290339516
 20
5.0576441587903105
 30
0.0
 70
0
  0
VERTEX
  5
2C1
  8
CUT
 10
432.0519497029047
 20
5.228361402466142
 30
0.0
 70
0
  0
VERTEX
  5
2C2
  8
CUT
 10
431.5332893009412
 20
5.505591163092362
 30
0.0
 70
0
  0
VERTEX
  5
2C3
  8
CUT
 10
431.07867965644033
 20
5.8786796564403545
 30
0.0
 70
0
  0
VERTEX
  5
2C4
  8
CUT
 10
430.7055911630924
 20
6.333289300941196
 30
0.0
 70
0
  0
VERTEX
  5
2C5
  8
CUT
 10
430.4283614024661
 20
6.851949702904733
 30
0.0
 70
0
  0
VERTEX
  5
2C6
  8
CUT
 10
430.2576441587903
 20
7.414729033951616
 30
0.0
 70
0
  0
VERTEX
  5
2C7
  8
CUT
 10
430.2
 20
8.0
 30
0.0
 70
0
  0
VERTEX
  5
2C8
  8
CUT
 10
430.2576441587903
 20
8.585270966048384
 30
0.0
 70
0
  0
VERTEX
  5
2C9
  8
CUT
 10
430.4283614024661
 20
9.148050297095267
 30
0.0
 70
0
  0
VERTEX
  5
2CA
  8
CUT
 10
430.7055911630924
 20
9.666710699058804
 30
0.0
 70
0
  0
VERTEX
  5
2CB
  8
CUT
 10
431.07867965644033
 20
10.121320343559645
 30
0.0
 70
0
  0
VERTEX
  5
2CC
  8
CUT
 10
431.5332893009412
 20
10.494408836907638
 30
0.0
 70
0
  0
VERTEX
  5
2CD
  8
CUT
 10
432.0519497029047
 20
10.771638597533858
 30
0.0
 70
0
  0
VERTEX
  5
2CE
  8
CUT
 10
432.6147290339516
 20
10.94235584120969
 30
0.0
 70
0
  0
VERTEX
  5
2CF
  8
CUT
 10
433.2
 20
11.0
 30
0.0
 70
0
  0
VERTEX
  5
2D0
  8
CUT
 10
433.78527096604836
 20
10.94235584120969
 30
0.0
 70
0
  0
VERTEX
  5
2D1
  8
CUT
 10
434.34805029709526
 20
10.771638597533858
 30
0.0
 70
0
  0
VERTEX
  5
2D2
  8
CUT
 10
434.8667106990588
 20
10.494408836907638
 30
0.0
 70
0
  0
VERTEX
  5
2D3
  8
CUT
 10
435.32132034355965
 20
10.121320343559645
 30
0.0
 70
0
  0
VERTEX
  5
2D4
  8
CUT
 10
435.6944088369076
 20
9.666710699058804
 30
0.0
 70
0
  0
VERTEX
  5
2D5
  8
CUT
 10
435.97163859753385
 20
9.148050297095274
 30
0.0
 70
0
  0
SEQEND
  5
2B5
  8
CUT
  0
POLYLINE
  5
2D6
  8
ENGRAVE
 66
1
 10
0.0
 20
0.0
 30
0.0
 70
0
  0
VERTEX
  5
2D8
  8
ENGRAVE
 10
427.2
 20
28.0
 30
0.0
 70
0
  0
VERTEX
  5
2D9
  8
ENGRAVE
 10
432.0
 20
28.0
 30
0.0
 70
0
  0
SEQEND
  5
2D7
  8
ENGRAVE
  0
POLYLINE
  5
2DA
  8
ENGRAVE
 66
1
 10
0.0
 20
0.0
 30
0.0
 70
0
  0
VERTEX
  5
2DC
  8
ENGRAVE
 10
432.0
 20
28.0
 30
0.0
 70
0
  0
VERTEX
  5
2DD
  8
ENGRAVE
 10
432.0
 20
24.0
 30
0.0
 70
0
  0
SEQEND
  5
2DB
  8
ENGRAVE
  0
POLYLINE
  5
2DE
  8
ENGRAVE
 66
1
 10
0.0
 20
0.0
 30
0.0
 70
0
  0
VERTEX
  5
2E0
  8
ENGRAVE
 10
427.2
 20
24.0
 30
0.0
 70
0
  0
VERTEX
  5
2E1
  8
ENGRAVE
 10
432.0
 20
24.0
 30
0.0
 70
0
  0
SEQEND
  5
2DF
  8
ENGRAVE
  0
POLYLINE
  5
2E2
  8
ENGRAVE
 66
1
 10
0.0
 20
0.0
 30
0.0
 70
0
  0
VERTEX
  5
2E4
  8
ENGRAVE
 10
432.0
 20
24.0
 30
0.0
 70
0
  0
VERTEX
  5
2E5
  8
ENGRAVE
 10
432.0
 20
20.0
 30
0.0
 70
0
  0
SEQEND
  5
2E3
  8
ENGRAVE
  0
POLYLINE
  5
2E6
  8
ENGRAVE
 66
1
 10
0.0
 20
0.0
 30
0.0
 70
0
  0
VERTEX
  5
2E8
  8
ENGRAVE
 10
427.2
 20
20.0
 30
0.0
 70
0
  0
VERTEX
  5
2E9
  8
ENGRAVE
 10
432.0
 20
20.0
 30
0.0
 70
0
  0
SEQEND
  5
2E7
  8
ENGRAVE
  0
POLYLINE
  5
2EA
  8
ENGRAVE
 66
1
 10
0.0
 20
0.0
 30
0.0
 70
0
  0
VERTEX
  5
2EC
  8
ENGRAVE
 10
433.59999999999997
 20
20.0
 30
0.0
 70
0
  0
VERTEX
  5
2ED
  8
ENGRAVE
 10
438.4
 20
28.0
 30
0.0
 70
0
  0
SEQEND
  5
2EB
  8
ENGRAVE
  0
POLYLINE
  5
2EE
  8
ENGRAVE
 66
1
 10
0.0
 20
0.0
 30
0.0
 70
0
  0
VERTEX
  5
2F0
  8
ENGRAVE
 10
444.8
 20
24.0
 30
0.0
 70
0
  0
VERTEX
  5
2F1
  8
ENGRAVE
 10
444.8
 20
20.0
 30
0.0
 70
0
  0
SEQEND
  5
2EF
  8
ENGRAVE
  0
POLYLINE
  5
2F2
  8
ENGRAVE
 66
1
 10
0.0
 20
0.0
 30
0.0
 70
0
  0
VERTEX
  5
2F4
  8
ENGRAVE
 10
440.0
 20
20.0
 30
0.0
 70
0
  0
VERTEX
  5
2F5
  8
ENGRAVE
 10
444.8
 20
20.0
 30
0.0
 70
0
  0
SEQEND
  5
2F3
  8
ENGRAVE
  0
POLYLINE
  5
2F6
  8
ENGRAVE
 66
1
 10
0.0
 20
0.0
 30
0.0
 70
0
  0
VERTEX
  5
2F8
  8
ENGRAVE
 10
440.0
 20
24.0
 30
0.0
 70
0
  0
VERTEX
  5
2F9
  8
ENGRAVE
 10
440.0
 20
20.0
 30
0.0
 70
0
  0
SEQEND
  5
2F7
  8
ENGRAVE
  0
POLYLINE
  5
2FA
  8
ENGRAVE
 66
1
 10
0.0
 20
0.0
 30
0.0
 70
0
  0
VERTEX
  5
2FC
  8
ENGRAVE
 10
440.0
 20
28.0
 30
0.0
 70
0
  0
VERTEX
  5
2FD
  8
ENGRAVE
 10
440.0
 20
24.0
 30
0.0
 70
0
  0
SEQEND
  5
2FB
  8
ENGRAVE
  0
POLYLINE
  5
2FE
  8
ENGRAVE
 66
1
 10
0.0
 20
0.0
 30
0.0
 70
0
  0
VERTEX
  5
300
  8
ENGRAVE
 10
440.0
 20
24.0
 30
0.0
 70
0
  0
VERTEX
  5
301
  8
ENGRAVE
 10
444.8
 20
24.0
 30
0.0
 70
0
  0
SEQEND
  5
2FF
  8
ENGRAVE
  0
POLYLINE
  5
302
  8
CUT
 66
1
 10
0.0
 20
0.0
 30
0.0
 70
1
  0
VERTEX
  5
304
  8
CUT
 10
511.4
 20
0.0
 30
0.0
 70
0
  0
VERTEX
  5
305
  8
CUT
 10
511.4
 20
11.0
 30
0.0
 70
0
  0
VERTEX
  5
306
  8
CUT
 10
517.4
 20
11.0
 30
0.0
 70
0
  0
VERTEX
  5
307
  8
CUT
 10
517.4
 20
19.0
 30
0.0
 70
0
  0
VERTEX
  5
308
  8
CUT
 10
511.4
 20
19.0
 30
0.0
 70
0
  0
VERTEX
  5
309
  8
CUT
 10
511.4
 20
30.0
 30
0.0
 70
0
  0
VERTEX
  5
30A
  8
CUT
 10
495.2888888888889
 20
30.0
 30
0.0
 70
0
  0
VERTEX
  5
30B
  8
CUT
 10
471.4
 20
30.0
 30
0.0
 70
0
  0
VERTEX
  5
30C
  8
CUT
 10
471.4
 20
17.916666666666664
 30
0.0
 70
0
  0
VERTEX
  5
30D
  8
CUT
 10
471.4
 20
0.0
 30
0.0
 70
0
  0
VERTEX
  5
30E
  8
CUT
 10
487.51111111111106
 20
0.0
 30
0.0
 70
0
  0
SEQEND
  5
303
  8
CUT
  0
POLYLINE
  5
30F
  8
CUT
 66
1
 10
0.0
 20
0.0
 30
0.0
 70
1
  0
VERTEX
  5
311
  8
CUT
 10
506.34235584120967
 20
22.585270966048384
 30
0.0
 70
0
  0
VERTEX
  5
312
  8
CUT
 10
506.4
 20
22.0
 30
0.0
 70
0
  0
VERTEX
  5
313
  8
CUT
 10
506.34235584120967
 20
21.414729033951616
 30
0.0
 70
0
  0
VERTEX
  5
314
  8
CUT
 10
506.17163859753384
 20
20.851949702904733
 30
0.0
 70
0
  0
VERTEX
  5
315
  8
CUT
 10
505.8944088369076
 20
20.333289300941196
 30
0.0
 70
0
  0
VERTEX
  5
316
  8
CUT
 10
505.52132034355964
 20
19.878679656440355
 30
0.0
 70
0
  0
VERTEX
  5
317
  8
CUT
 10
505.0667106990588
 20
19.50559116309236
 30
0.0
 70
0
  0
VERTEX
  5
318
  8
CUT
 10
504.54805029709524
 20
19.228361402466142
 30
0.0
 70
0
  0
VERTEX
  5
319
  8
CUT
 10
503.98527096604835
 20
19.05764415879031
 30
0.0
 70
0
  0
VERTEX
  5
31A
  8
CUT
 10
503.4
 20
19.0
 30
0.0
 70
0
  0
VERTEX
  5
31B
  8
CUT
 10
502.8147290339516
 20
19.05764415879031
 30
0.0
 70
0
  0
VERTEX
  5
31C
  8
CUT
 10
502.2519497029047
 20
19.228361402466142
 30
0.0
 70
0
  0
VERTEX
  5
31D
  8
CUT
 10
501.7332893009412
 20
19.50559116309236
 30
0.0
 70
0
  0
VERTEX
  5
31E
  8
CUT
 10
501.2786796564403
 20
19.878679656440355
 30
0.0
 70
0
  0
VERTEX
  5
31F
  8
CUT
 10
500.90559116309237
 20
20.333289300941196
 30
0.0
 70
0
  0
VERTEX
  5
320
  8
CUT
 10
500.6283614024661
 20
20.851949702904733
 30
0.0
 70
0
  0
VERTEX
  5
321
  8
CUT
 10
500.4576441587903
 20
21.414729033951616
 30
0.0
 70
0
  0
VERTEX
  5
322
  8
CUT
 10
500.4
 20
22.0
 30
0.0
 70
0
  0
VERTEX
  5
323
  8
CUT
 10
500.4576441587903
 20
22.585270966048384
 30
0.0
 70
0
  0
VERTEX
  5
324
  8
CUT
 10
500.6283614024661
 20
23.148050297095267
 30
0.0
 70
0
  0
VERTEX
  5
325
  8
CUT
 10
500.90559116309237
 20
23.666710699058804
 30
0.0
 70
0
  0
VERTEX
  5
326
  8
CUT
 10
501.2786796564403
 20
24.121320343559645
 30
0.0
 70
0
  0
VERTEX
  5
327
  8
CUT
 10
501.7332893009412
 20
24.49440883690764
 30
0.0
 70
0
  0
VERTEX
  5
328
  8
CUT
 10
502.2519497029047
 20
24.771638597533858
 30
0.0
 70
0
  0
VERTEX
  5
329
  8
CUT
 10
502.8147290339516
 20
24.94235584120969
 30
0.0
 70
0
  0
VERTEX
  5
32A
  8
CUT
 10
503.4
 20
25.0
 30
0.0
 70
0
  0
VERTEX
  5
32B
  8
CUT
 10
503.98527096604835
 20
24.94235584120969
 30
0.0
 70
0
  0
VERTEX
  5
32C
  8
CUT
 10
504.54805029709524
 20
24.771638597533858
 30
0.0
 70
0
  0
VERTEX
  5
32D
  8
CUT
 10
505.0667106990588
 20
24.49440883690764
 30
0.0
 70
0
  0
VERTEX
  5
32E
  8
CUT
 10
505.52132034355964
 20
24.121320343559645
 30
0.0
 70
0
  0
VERTEX
  5
32F
  8
CUT
 10
505.8944088369076
 20
23.666710699058804
 30
0.0
 70
0
  0
VERTEX
  5
330
  8
CUT
 10
506.17163859753384
 20
23.148050297095274
 30
0.0
 70
0
  0
SEQEND
  5
310
  8
CUT
  0
POLYLINE
  5
331
  8
ENGRAVE
 66
1
 10
0.0
 20
0.0
 30
0.0
 70
0
  0
VERTEX
  5
333
  8
ENGRAVE
 10
473.4
 20
28.0
 30
0.0
 70
0
  0
VERTEX
  5
334
  8
ENGRAVE
 10
478.2
 20
28.0
 30
0.0
 70
0
  0
SEQEND
  5
332
  8
ENGRAVE
  0
POLYLINE
  5
335
  8
ENGRAVE
 66
1
 10
0.0
 20
0.0
 30
0.0
 70
0
  0
VERTEX
  5
337
  8
ENGRAVE
 10
478.2
 20
28.0
 30
0.0
 70
0
  0
VERTEX
  5
338
  8
ENGRAVE
 10
478.2
 20
24.0
 30
0.0
 70
0
  0
SEQEND
  5
336
  8
ENGRAVE
  0
POLYLINE
  5
339
  8
ENGRAVE
 66
1
 10
0.0
 20
0.0
 30
0.0
 70
0
  0
VERTEX
  5
33B
  8
ENGRAVE
 10
473.4
 20
24.0
 30
0.0
 70
0
  0
VERTEX
  5
33C
  8
ENGRAVE
 10
478.2
 20
24.0
 30
0.0
 70
0
  0
SEQEND
  5
33A
  8
ENGRAVE
  0
POLYLINE
  5
33D
  8
ENGRAVE
 66
1
 10
0.0
 20
0.0
 30
0.0
 70
0
  0
VERTEX
  5
33F
  8
ENGRAVE
 10
478.2
 20
24.0
 30
0.0
 70
0
  0
VERTEX
  5
340
  8
ENGRAVE
 10
478.2
 20
20.0
 30
0.0
 70
0
  0
SEQEND
  5
33E
  8
ENGRAVE
  0
POLYLINE
  5
341
  8
ENGRAVE
 66
1
 10
0.0
 20
0.0
 30
0.0
 70
0
  0
VERTEX
  5
343
  8
ENGRAVE
 10
473.4
 20
20.0
 30
0.0
 70
0
  0
VERTEX
  5
344
  8
ENGRAVE
 10
478.2
 20
20.0
 30
0.0
 70
0
  0
SEQEND
  5
342
  8
ENGRAVE
  0
POLYLINE
  5
345
  8
ENGRAVE
 66
1
 10
0.0
 20
0.0
 30
0.0
 70
0
  0
VERTEX
  5
347
  8
ENGRAVE
 10
479.79999999999995
 20
20.0
 30
0.0
 70
0
  0
VERTEX
  5
348
  8
ENGRAVE
 10
484.59999999999997
 20
28.0
 30
0.0
 70
0
  0
SEQEND
  5
346
  8
ENGRAVE
  0
POLYLINE
  5
349
  8
ENGRAVE
 66
1
 10
0.0
 20
0.0
 30
0.0
 70
0
  0
VERTEX
  5
34B
  8
ENGRAVE
 10
486.2
 20
28.0
 30
0.0
 70
0
  0
VERTEX
  5
34C
  8
ENGRAVE
 10
491.0
 20
28.0
 30
0.0
 70
0
  0
SEQEND
  5
34A
  8
ENGRAVE
  0
POLYLINE
  5
34D
  8
ENGRAVE
 66
1
 10
0.0
 20
0.0
 30
0.0
 70
0
  0
VERTEX
  5
34F
  8
ENGRAVE
 10
491.0
 20
28.0
 30
0.0
 70
0
  0
VERTEX
  5
350
  8
ENGRAVE
 10
491.0
 20
24.0
 30
0.0
 70
0
  0
SEQEND
  5
34E
  8
ENGRAVE
  0
POLYLINE
  5
351
  8
ENGRAVE
 66
1
 10
0.0
 20
0.0
 30
0.0
 70
0
  0
VERTEX
  5
353
  8
ENGRAVE
 10
491.0
 20
24.0
 30
0.0
 70
0
  0
VERTEX
  5
354
  8
ENGRAVE
 10
491.0
 20
20.0
 30
0.0
 70
0
  0
SEQEND
  5
352
  8
ENGRAVE
  0
POLYLINE
  5
355
  8
ENGRAVE
 66
1
 10
0.0
 20
0.0
 30
0.0
 70
0
  0
VERTEX
  5
357
  8
ENGRAVE
 10
486.2
 20
24.0
 30
0.0
 70
0
  0
VERTEX
  5
358
  8
ENGRAVE
 10
486.2
 20
20.0
 30
0.0
 70
0
  0
SEQEND
  5
356
  8
ENGRAVE
  0
POLYLINE
  5
359
  8
ENGRAVE
 66
1
 10
0.0
 20
0.0
 30
0.0
 70
0
  0
VERTEX
  5
35B
  8
ENGRAVE
 10
486.2
 20
28.0
 30
0.0
 70
0
  0
VERTEX
  5
35C
  8
ENGRAVE
 10
486.2
 20
24.0
 30
0.0
 70
0
  0
SEQEND
  5
35A
  8
ENGRAVE
  0
POLYLINE
  5
35D
  8
ENGRAVE
 66
1
 10
0.0
 20
0.0
 30
0.0
 70
0
  0
VERTEX
  5
35F
  8
ENGRAVE
 10
486.2
 20
24.0
 30
0.0
 70
0
  0
VERTEX
  5
360
  8
ENGRAVE
 10
491.0
 20
24.0
 30
0.0
 70
0
  0
SEQEND
  5
35E
  8
ENGRAVE
  0
POLYLINE
  5
361
  8
CUT
 66
1
 10
0.0
 20
0.0
 30
0.0
 70
1
  0
VERTEX
  5
363
  8
CUT
 10
557.6
 20
0.0
 30
0.0
 70
0
  0
VERTEX
  5
364
  8
CUT
 10
557.6
 20
11.0
 30
0.0
 70
0
  0
VERTEX
  5
365
  8
CUT
 10
563.6
 20
11.0
 30
0.0
 70
0
  0
VERTEX
  5
366
  8
CUT
 10
563.6
 20
19.0
 30
0.0
 70
0
  0
VERTEX
  5
367
  8
CUT
 10
557.6
 20
19.0
 30
0.0
 70
0
  0
VERTEX
  5
368
  8
CUT
 10
557.6
 20
30.0
 30
0.0
 70
0
  0
VERTEX
  5
369
  8
CUT
 10
534.8222222222222
 20
30.0
 30
0.0
 70
0
  0
VERTEX
  5
36A
  8
CUT
 10
517.6
 20
30.0
 30
0.0
 70
0
  0
VERTEX
  5
36B
  8
CUT
 10
517.6
 20
12.916666666666664
 30
0.0
 70
0
  0
VERTEX
  5
36C
  8
CUT
 10
517.6
 20
0.0
 30
0.0
 70
0
  0
VERTEX
  5
36D
  8
CUT
 10
540.3777777777779
 20
0.0
 30
0.0
 70
0
  0
SEQEND
  5
362
  8
CUT
  0
POLYLINE
  5
36E
  8
CUT
 66
1
 10
0.0
 20
0.0
 30
0.0
 70
1
  0
VERTEX
  5
370
  8
CUT
 10
528.5423558412098
 20
8.585270966048384
 30
0.0
 70
0
  0
VERTEX
  5
371
  8
CUT
 10
528.6
 20
8.0
 30
0.0
 70
0
  0
VERTEX
  5
372
  8
CUT
 10
528.5423558412098
 20
7.414729033951616
 30
0.0
 70
0
  0
VERTEX
  5
373
  8
CUT
 10
528.3716385975339
 20
6.851949702904733
 30
0.0
 70
0
  0
VERTEX
  5
374
  8
CUT
 10
528.0944088369076
 20
6.333289300941196
 30
0.0
 70
0
  0
VERTEX
  5
375
  8
CUT
 10
527.7213203435597
 20
5.8786796564403545
 30
0.0
 70
0
  0
VERTEX
  5
376
  8
CUT
 10
527.2667106990589
 20
5.505591163092362
 30
0.0
 70
0
  0
VERTEX
  5
377
  8
CUT
 10
526.7480502970953
 20
5.228361402466142
 30
0.0
 70
0
  0
VERTEX
  5
378
  8
CUT
 10
526.1852709660484
 20
5.0576441587903105
 30
0.0
 70
0
  0
VERTEX
  5
379
  8
CUT
 10
525.6
 20
5.0
 30
0.0
 70
0
  0
VERTEX
  5
37A
  8
CUT
 10
525.0147290339517
 20
5.0576441587903105
 30
0.0
 70
0
  0
VERTEX
  5
37B
  8
CUT
 10
524.4519497029047
 20
5.228361402466142
 30
0.0
 70
0
  0
VERTEX
  5
37C
  8
CUT
 10
523.9332893009412
 20
5.505591163092362
 30
0.0
 70
0
  0
VERTEX
  5
37D
  8
CUT
 10
523.4786796564404
 20
5.8786796564403545
 30
0.0
 70
0
  0
VERTEX
  5
37E
  8
CUT
 10
523.1055911630924
 20
6.333289300941196
 30
0.0
 70
0
  0
VERTEX
  5
37F
  8
CUT
 10
522.8283614024662
 20
6.851949702904733
 30
0.0
 70
0
  0
VERTEX
  5
380
  8
CUT
 10
522.6576441587903
 20
7.414729033951616
 30
0.0
 70
0
  0
VERTEX
  5
381
  8
CUT
 10
522.6
 20
8.0
 30
0.0
 70
0
  0
VERTEX
  5
382
  8
CUT
 10
522.6576441587903
 20
8.585270966048384
 30
0.0
 70
0
  0
VERTEX
  5
383
  8
CUT
 10
522.8283614024662
 20
9.148050297095267
 30
0.0
 70
0
  0
VERTEX
  5
384
  8
CUT
 10
523.1055911630924
 20
9.666710699058804
 30
0.0
 70
0
  0
VERTEX
  5
385
  8
CUT
 10
523.4786796564404
 20
10.121320343559645
 30
0.0
 70
0
  0
VERTEX
  5
386
  8
CUT
 10
523.9332893009412
 20
10.494408836907638
 30
0.0
 70
0
  0
VERTEX
  5
387
  8
CUT
 10
524.4519497029047
 20
10.771638597533858
 30
0.0
 70
0
  0
VERTEX
  5
388
  8
CUT
 10
525.0147290339517
 20
10.94235584120969
 30
0.0
 70
0
  0
VERTEX
  5
389
  8
CUT
 10
525.6
 20
11.0
 30
0.0
 70
0
  0
VERTEX
  5
38A
  8
CUT
 10
526.1852709660484
 20
10.94235584120969
 30
0.0
 70
0
  0
VERTEX
  5
38B
  8
CUT
 10
526.7480502970953
 20
10.771638597533858
 30
0.0
 70
0
  0
VERTEX
  5
38C
  8
CUT
 10
527.2667106990589
 20
10.494408836907638
 30
0.0
 70
0
  0
VERTEX
  5
38D
  8
CUT
 10
527.7213203435597
 20
10.121320343559645
 30
0.0
 70
0
  0
VERTEX
  5
38E
  8
CUT
 10
528.0944088369076
 20
9.666710699058804
 30
0.0
 70
0
  0
VERTEX
  5
38F
  8
CUT
 10
528.3716385975339
 20
9.148050297095274
 30
0.0
 70
0
  0
SEQEND
  5
36F
  8
CUT
  0
POLYLINE
  5
390
  8
ENGRAVE
 66
1
 10
0.0
 20
0.0
 30
0.0
 70
0
  0
VERTEX
  5
392
  8
ENGRAVE
 10
519.6
 20
28.0
 30
0.0
 70
0
  0
VERTEX
  5
393
  8
ENGRAVE
 10
519.6
 20
24.0
 30
0.0
 70
0
  0
SEQEND
  5
391
  8
ENGRAVE
  0
POLYLINE
  5
394
  8
ENGRAVE
 66
1
 10
0.0
 20
0.0
 30
0.0
 70
0
  0
VERTEX
  5
396
  8
ENGRAVE
 10
519.6
 20
24.0
 30
0.0
 70
0
  0
VERTEX
  5
397
  8
ENGRAVE
 10
524.4
 20
24.0
 30
0.0
 70
0
  0
SEQEND
  5
395
  8
ENGRAVE
  0
POLYLINE
  5
398
  8
ENGRAVE
 66
1
 10
0.0
 20
0.0
 30
0.0
 70
0
  0
VERTEX
  5
39A
  8
ENGRAVE
 10
524.4
 20
28.0
 30
0.0
 70
0
  0
VERTEX
  5
39B
  8
ENGRAVE
 10
524.4
 20
24.0
 30
0.0
 70
0
  0
SEQEND
  5
399
  8
ENGRAVE
  0
POLYLINE
  5
39C
  8
ENGRAVE
 66
1
 10
0.0
 20
0.0
 30
0.0
 70
0
  0
VERTEX
  5
39E
  8
ENGRAVE
 10
524.4
 20
24.0
 30
0.0
 70
0
  0
VERTEX
  5
39F
  8
ENGRAVE
 10
524.4
 20
20.0
 30
0.0
 70
0
  0
SEQEND
  5
39D
  8
ENGRAVE
  0
POLYLINE
  5
3A0
  8
ENGRAVE
 66
1
 10
0.0
 20
0.0
 30
0.0
 70
0
  0
VERTEX
  5
3A2
  8
ENGRAVE
 10
526.0
 20
20.0
 30
0.0
 70
0
  0
VERTEX
  5
3A3
  8
ENGRAVE
 10
530.8000000000001
 20
28.0
 30
0.0
 70
0
  0
SEQEND
  5
3A1
  8
ENGRAVE
  0
POLYLINE
  5
3A4
  8
ENGRAVE
 66
1
 10
0.0
 20
0.0
 30
0.0
 70
0
  0
VERTEX
  5
3A6
  8
ENGRAVE
 10
537.2
 20
24.0
 30
0.0
 70
0
  0
VERTEX
  5
3A7
  8
ENGRAVE
 10
537.2
 20
20.0
 30
0.0
 70
0
  0
SEQEND
  5
3A5
  8
ENGRAVE
  0
POLYLINE
  5
3A8
  8
ENGRAVE
 66
1
 10
0.0
 20
0.0
 30
0.0
 70
0
  0
VERTEX
  5
3AA
  8
ENGRAVE
 10
532.4
 20
20.0
 30
0.0
 70
0
  0
VERTEX
  5
3AB
  8
ENGRAVE
 10
537.2
 20
20.0
 30
0.0
 70
0
  0
SEQEND
  5
3A9
  8
ENGRAVE
  0
POLYLINE
  5
3AC
  8
ENGRAVE
 66
1
 10
0.0
 20
0.0
 30
0.0
 70
0
  0
VERTEX
  5
3AE
  8
ENGRAVE
 10
532.4
 20
24.0
 30
0.0
 70
0
  0
VERTEX
  5
3AF
  8
ENGRAVE
 10
532.4
 20
20.0
 30
0.0
 70
0
  0
SEQEND
  5
3AD
  8
ENGRAVE
  0
POLYLINE
  5
3B0
  8
ENGRAVE
 66
1
 10
0.0
 20
0.0
 30
0.0
 70
0
  0
VERTEX
  5
3B2
  8
ENGRAVE
 10
532.4
 20
28.0
 30
0.0
 70
0
  0
VERTEX
  5
3B3
  8
ENGRAVE
 10
532.4
 20
24.0
 30
0.0
 70
0
  0
SEQEND
  5
3B1
  8
ENGRAVE
  0
POLYLINE
  5
3B4
  8
ENGRAVE
 66
1
 10
0.0
 20
0.0
 30
0.0
 70
0
  0
VERTEX
  5
3B6
  8
ENGRAVE
 10
532.4
 20
24.0
 30
0.0
 70
0
  0
VERTEX
  5
3B7
  8
ENGRAVE
 10
537.2
 20
24.0
 30
0.0
 70
0
  0
SEQEND
  5
3B5
  8
ENGRAVE
  0
POLYLINE
  5
3B8
  8
CUT
 66
1
 10
0.0
 20
0.0
 30
0.0
 70
1
  0
VERTEX
  5
3BA
  8
CUT
 10
40.0
 20
46.2
 30
0.0
 70
0
  0
VERTEX
  5
3BB
  8
CUT
 10
40.0
 20
57.2
 30
0.0
 70
0
  0
VERTEX
  5
3BC
  8
CUT
 10
46.0
 20
57.2
 30
0.0
 70
0
  0
VERTEX
  5
3BD
  8
CUT
 10
46.0
 20
65.2
 30
0.0
 70
0
  0
VERTEX
  5
3BE
  8
CUT
 10
40.0
 20
65.2
 30
0.0
 70
0
  0
VERTEX
  5
3BF
  8
CUT
 10
40.0
 20
76.2
 30
0.0
 70
0
  0
VERTEX
  5
3C0
  8
CUT
 10
17.22222222222222
 20
76.2
 30
0.0
 70
0
  0
VERTEX
  5
3C1
  8
CUT
 10
0.0
 20
76.2
 30
0.0
 70
0
  0
VERTEX
  5
3C2
  8
CUT
 10
0.0
 20
59.11666666666667
 30
0.0
 70
0
  0
VERTEX
  5
3C3
  8
CUT
 10
0.0
 20
46.2
 30
0.0
 70
0
  0
VERTEX
  5
3C4
  8
CUT
 10
22.77777777777778
 20
46.2
 30
0.0
 70
0
  0
SEQEND
  5
3B9
  8
CUT
  0
POLYLINE
  5
3C5
  8
CUT
 66
1
 10
0.0
 20
0.0
 30
0.0
 70
1
  0
VERTEX
  5
3C7
  8
CUT
 10
34.94235584120969
 20
68.78527096604839
 30
0.0
 70
0
  0
VERTEX
  5
3C8
  8
CUT
 10
35.0
 20
68.2
 30
0.0
 70
0
  0
VERTEX
  5
3C9
  8
CUT
 10
34.94235584120969
 20
67.61472903395162
 30
0.0
 70
0
  0
VERTEX
  5
3CA
  8
CUT
 10
34.77163859753386
 20
67.05194970290474
 30
0.0
 70
0
  0
VERTEX
  5
3CB
  8
CUT
 10
34.49440883690764
 20
66.53328930094119
 30
0.0
 70
0
  0
VERTEX
  5
3CC
  8
CUT
 10
34.121320343559645
 20
66.07867965644036
 30
0.0
 70
0
  0
VERTEX
  5
3CD
  8
CUT
 10
33.66671069905881
 20
65.70559116309236
 30
0.0
 70
0
  0
VERTEX
  5
3CE
  8
CUT
 10
33.14805029709527
 20
65.42836140246615
 30
0.0
 70
0
  0
VERTEX
  5
3CF
  8
CUT
 10
32.585270966048384
 20
65.25764415879031
 30
0.0
 70
0
  0
VERTEX
  5
3D0
  8
CUT
 10
32.0
 20
65.2
 30
0.0
 70
0
  0
VERTEX
  5
3D1
  8
CUT
 10
31.414729033951616
 20
65.25764415879031
 30
0.0
 70
0
  0
VERTEX
  5
3D2
  8
CUT
 10
30.851949702904733
 20
65.42836140246615
 30
0.0
 70
0
  0
VERTEX
  5
3D3
  8
CUT
 10
30.333289300941196
 20
65.70559116309236
 30
0.0
 70
0
  0
VERTEX
  5
3D4
  8
CUT
 10
29.878679656440358
 20
66.07867965644036
 30
0.0
 70
0
  0
VERTEX
  5
3D5
  8
CUT
 10
29.50559116309236
 20
66.53328930094119
 30
0.0
 70
0
  0
VERTEX
  5
3D6
  8
CUT
 10
29.228361402466142
 20
67.05194970290474
 30
0.0
 70
0
  0
VERTEX
  5
3D7
  8
CUT
 10
29.05764415879031
 20
67.61472903395162
 30
0.0
 70
0
  0
VERTEX
  5
3D8
  8
CUT
 10
29.0
 20
68.2
 30
0.0
 70
0
  0
VERTEX
  5
3D9
  8
CUT
 10
29.05764415879031
 20
68.78527096604839
 30
0.0
 70
0
  0
VERTEX
  5
3DA
  8
CUT
 10
29.228361402466142
 20
69.34805029709527
 30
0.0
 70
0
  0
VERTEX
  5
3DB
  8
CUT
 10
29.50559116309236
 20
69.86671069905881
 30
0.0
 70
0
  0
VERTEX
  5
3DC
  8
CUT
 10
29.878679656440358
 20
70.32132034355965
 30
0.0
 70
0
  0
VERTEX
  5
3DD
  8
CUT
 10
30.333289300941193
 20
70.69440883690764
 30
0.0
 70
0
  0
VERTEX
  5
3DE
  8
CUT
 10
30.85194970290473
 20
70.97163859753385
 30
0.0
 70
0
  0
VERTEX
  5
3DF
  8
CUT
 10
31.414729033951616
 20
71.14235584120969
 30
0.0
 70
0
  0
VERTEX
  5
3E0
  8
CUT
 10
32.0
 20
71.2
 30
0.0
 70
0
  0
VERTEX
  5
3E1
  8
CUT
 10
32.585270966048384
 20
71.14235584120969
 30
0.0
 70
0
  0
VERTEX
  5
3E2
  8
CUT
 10
33.14805029709527
 20
70.97163859753385
 30
0.0
 70
0
  0
VERTEX
  5
3E3
  8
CUT
 10
33.666710699058804
 20
70.69440883690764
 30
0.0
 70
0
  0
VERTEX
  5
3E4
  8
CUT
 10
34.121320343559645
 20
70.32132034355965
 30
0.0
 70
0
  0
VERTEX
  5
3E5
  8
CUT
 10
34.49440883690764
 20
69.86671069905881
 30
0.0
 70
0
  0
VERTEX
  5
3E6
  8
CUT
 10
34.77163859753386
 20
69.34805029709528
 30
0.0
 70
0
  0
SEQEND
  5
3C6
  8
CUT
  0
POLYLINE
  5
3E7
  8
ENGRAVE
 66
1
 10
0.0
 20
0.0
 30
0.0
 70
0
  0
VERTEX
  5
3E9
  8
ENGRAVE
 10
2.0
 20
74.2
 30
0.0
 70
0
  0
VERTEX
  5
3EA
  8
ENGRAVE
 10
2.0
 20
70.2
 30
0.0
 70
0
  0
SEQEND
  5
3E8
  8
ENGRAVE
  0
POLYLINE
  5
3EB
  8
ENGRAVE
 66
1
 10
0.0
 20
0.0
 30
0.0
 70
0
  0
VERTEX
  5
3ED
  8
ENGRAVE
 10
2.0
 20
70.2
 30
0.0
 70
0
  0
VERTEX
  5
3EE
  8
ENGRAVE
 10
6.800000000000001
 20
70.2
 30
0.0
 70
0
  0
SEQEND
  5
3EC
  8
ENGRAVE
  0
POLYLINE
  5
3EF
  8
ENGRAVE
 66
1
 10
0.0
 20
0.0
 30
0.0
 70
0
  0
VERTEX
  5
3F1
  8
ENGRAVE
 10
6.800000000000001
 20
74.2
 30
0.0
 70
0
  0
VERTEX
  5
3F2
  8
ENGRAVE
 10
6.800000000000001
 20
70.2
 30
0.0
 70
0
  0
SEQEND
  5
3F0
  8
ENGRAVE
  0
POLYLINE
  5
3F3
  8
ENGRAVE
 66
1
 10
0.0
 20
0.0
 30
0.0
 70
0
  0
VERTEX
  5
3F5
  8
ENGRAVE
 10
6.800000000000001
 20
70.2
 30
0.0
 70
0
  0
VERTEX
  5
3F6
  8
ENGRAVE
 10
6.800000000000001
 20
66.2
 30
0.0
 70
0
  0
SEQEND
  5
3F4
  8
ENGRAVE
  0
POLYLINE
  5
3F7
  8
ENGRAVE
 66
1
 10
0.0
 20
0.0
 30
0.0
 70
0
  0
VERTEX
  5
3F9
  8
ENGRAVE
 10
8.4
 20
66.2
 30
0.0
 70
0
  0
VERTEX
  5
3FA
  8
ENGRAVE
 10
13.2
 20
74.2
 30
0.0
 70
0
  0
SEQEND
  5
3F8
  8
ENGRAVE
  0
POLYLINE
  5
3FB
  8
ENGRAVE
 66
1
 10
0.0
 20
0.0
 30
0.0
 70
0
  0
VERTEX
  5
3FD
  8
ENGRAVE
 10
14.8
 20
74.2
 30
0.0
 70
0
  0
VERTEX
  5
3FE
  8
ENGRAVE
 10
19.6
 20
74.2
 30
0.0
 70
0
  0
SEQEND
  5
3FC
  8
ENGRAVE
  0
POLYLINE
  5
3FF
  8
ENGRAVE
 66
1
 10
0.0
 20
0.0
 30
0.0
 70
0
  0
VERTEX
  5
401
  8
ENGRAVE
 10
19.6
 20
74.2
 30
0.0
 70
0
  0
VERTEX
  5
402
  8
ENGRAVE
 10
19.6
 20
70.2
 30
0.0
 70
0
  0
SEQEND
  5
400
  8
ENGRAVE
  0
POLYLINE
  5
403
  8
ENGRAVE
 66
1
 10
0.0
 20
0.0
 30
0.0
 70
0
  0
VERTEX
  5
405
  8
ENGRAVE
 10
19.6
 20
70.2
 30
0.0
 70
0
  0
VERTEX
  5
406
  8
ENGRAVE
 10
19.6
 20
66.2
 30
0.0
 70
0
  0
SEQEND
  5
404
  8
ENGRAVE
  0
POLYLINE
  5
407
  8
ENGRAVE
 66
1
 10
0.0
 20
0.0
 30
0.0
 70
0
  0
VERTEX
  5
409
  8
ENGRAVE
 10
14.8
 20
70.2
 30
0.0
 70
0
  0
VERTEX
  5
40A
  8
ENGRAVE
 10
14.8
 20
66.2
 30
0.0
 70
0
  0
SEQEND
  5
408
  8
ENGRAVE
  0
POLYLINE
  5
40B
  8
ENGRAVE
 66
1
 10
0.0
 20
0.0
 30
0.0
 70
0
  0
VERTEX
  5
40D
  8
ENGRAVE
 10
14.8
 20
74.2
 30
0.0
 70
0
  0
VERTEX
  5
40E
  8
ENGRAVE
 10
14.8
 20
70.2
 30
0.0
 70
0
  0
SEQEND
  5
40C
  8
ENGRAVE
  0
POLYLINE
  5
40F
  8
ENGRAVE
 66
1
 10
0.0
 20
0.0
 30
0.0
 70
0
  0
VERTEX
  5
411
  8
ENGRAVE
 10
14.8
 20
70.2
 30
0.0
 70
0
  0
VERTEX
  5
412
  8
ENGRAVE
 10
19.6
 20
70.2
 30
0.0
 70
0
  0
SEQEND
  5
410
  8
ENGRAVE
  0
POLYLINE
  5
413
  8
CUT
 66
1
 10
0.0
 20
0.0
 30
0.0
 70
1
  0
VERTEX
  5
415
  8
CUT
 10
86.2
 20
46.2
 30
0.0
 70
0
  0
VERTEX
  5
416
  8
CUT
 10
86.2
 20
57.2
 30
0.0
 70
0
  0
VERTEX
  5
417
  8
CUT
 10
92.2
 20
57.2
 30
0.0
 70
0
  0
VERTEX
  5
418
  8
CUT
 10
92.2
 20
65.2
 30
0.0
 70
0
  0
VERTEX
  5
419
  8
CUT
 10
86.2
 20
65.2
 30
0.0
 70
0
  0
VERTEX
  5
41A
  8
CUT
 10
86.2
 20
68.28333333333333
 30
0.0
 70
0
  0
VERTEX
  5
41B
  8
CUT
 10
86.2
 20
76.2
 30
0.0
 70
0
  0
VERTEX
  5
41C
  8
CUT
 10
56.75555555555556
 20
76.2
 30
0.0
 70
0
  0
VERTEX
  5
41D
  8
CUT
 10
46.2
 20
76.2
 30
0.0
 70
0
  0
VERTEX
  5
41E
  8
CUT
 10
46.2
 20
54.11666666666667
 30
0.0
 70
0
  0
VERTEX
  5
41F
  8
CUT
 10
46.2
 20
46.2
 30
0.0
 70
0
  0
VERTEX
  5
420
  8
CUT
 10
75.64444444444445
 20
46.2
 30
0.0
 70
0
  0
SEQEND
  5
414
  8
CUT
  0
POLYLINE
  5
421
  8
CUT
 66
1
 10
0.0
 20
0.0
 30
0.0
 70
1
  0
VERTEX
  5
423
  8
CUT
 10
81.14235584120969
 20
68.78527096604839
 30
0.0
 70
0
  0
VERTEX
  5
424
  8
CUT
 10
81.2
 20
68.2
 30
0.0
 70
0
  0
VERTEX
  5
425
  8
CUT
 10
81.14235584120969
 20
67.61472903395162
 30
0.0
 70
0
  0
VERTEX
  5
426
  8
CUT
 10
80.97163859753387
 20
67.05194970290474
 30
0.0
 70
0
  0
VERTEX
  5
427
  8
CUT
 10
80.69440883690764
 20
66.53328930094119
 30
0.0
 70
0
  0
VERTEX
  5
428
  8
CUT
 10
80.32132034355965
 20
66.07867965644036
 30
0.0
 70
0
  0
VERTEX
  5
429
  8
CUT
 10
79.86671069905881
 20
65.70559116309236
 30
0.0
 70
0
  0
VERTEX
  5
42A
  8
CUT
 10
79.34805029709527
 20
65.42836140246615
 30
0.0
 70
0
  0
VERTEX
  5
42B
  8
CUT
 10
78.78527096604839
 20
65.25764415879031
 30
0.0
 70
0
  0
VERTEX
  5
42C
  8
CUT
 10
78.2
 20
65.2
 30
0.0
 70
0
  0
VERTEX
  5
42D
  8
CUT
 10
77.61472903395162
 20
65.25764415879031
 30
0.0
 70
0
  0
VERTEX
  5
42E
  8
CUT
 10
77.05194970290474
 20
65.42836140246615
 30
0.0
 70
0
  0
VERTEX
  5
42F
  8
CUT
 10
76.53328930094119
 20
65.70559116309236
 30
0.0
 70
0
  0
VERTEX
  5
430
  8
CUT
 10
76.07867965644036
 20
66.07867965644036
 30
0.0
 70
0
  0
VERTEX
  5
431
  8
CUT
 10
75.70559116309236
 20
66.53328930094119
 30
0.0
 70
0
  0
VERTEX
  5
432
  8
CUT
 10
75.42836140246614
 20
67.05194970290474
 30
0.0
 70
0
  0
VERTEX
  5
433
  8
CUT
 10
75.25764415879031
 20
67.61472903395162
 30
0.0
 70
0
  0
VERTEX
  5
434
  8
CUT
 10
75.2
 20
68.2
 30
0.0
 70
0
  0
VERTEX
  5
435
  8
CUT
 10
75.25764415879031
 20
68.78527096604839
 30
0.0
 70
0
  0
VERTEX
  5
436
  8
CUT
 10
75.42836140246614
 20
69.34805029709527
 30
0.0
 70
0
  0
VERTEX
  5
437
  8
CUT
 10
75.70559116309236
 20
69.86671069905881
 30
0.0
 70
0
  0
VERTEX
  5
438
  8
CUT
 10
76.07867965644036
 20
70.32132034355965
 30
0.0
 70
0
  0
VERTEX
  5
439
  8
CUT
 10
76.53328930094119
 20
70.69440883690764
 30
0.0
 70
0
  0
VERTEX
  5
43A
  8
CUT
 10
77.05194970290474
 20
70.97163859753385
 30
0.0
 70
0
  0
VERTEX
  5
43B
  8
CUT
 10
77.61472903395162
 20
71.14235584120969
 30
0.0
 70
0
  0
VERTEX
  5
43C
  8
CUT
 10
78.2
 20
71.2
 30
0.0
 70
0
  0
VERTEX
  5
43D
  8
CUT
 10
78.78527096604839
 20
71.14235584120969
 30
0.0
 70
0
  0
VERTEX
  5
43E
  8
CUT
 10
79.34805029709527
 20
70.97163859753385
 30
0.0
 70
0
  0
VERTEX
  5
43F
  8
CUT
 10
79.86671069905881
 20
70.69440883690764
 30
0.0
 70
0
  0
VERTEX
  5
440
  8
CUT
 10
80.32132034355965
 20
70.32132034355965
 30
0.0
 70
0
  0
VERTEX
  5
441
  8
CUT
 10
80.69440883690764
 20
69.86671069905881
 30
0.0
 70
0
  0
VERTEX
  5
442
  8
CUT
 10
80.97163859753387
 20
69.34805029709528
 30
0.0
 70
0
  0
SEQEND
  5
422
  8
CUT
  0
POLYLINE
  5
443
  8
ENGRAVE
 66
1
 10
0.0
 20
0.0
 30
0.0
 70
0
  0
VERTEX
  5
445
  8
ENGRAVE
 10
48.2
 20
74.2
 30
0.0
 70
0
  0
VERTEX
  5
446
  8
ENGRAVE
 10
53.0
 20
74.2
 30
0.0
 70
0
  0
SEQEND
  5
444
  8
ENGRAVE
  0
POLYLINE
  5
447
  8
ENGRAVE
 66
1
 10
0.0
 20
0.0
 30
0.0
 70
0
  0
VERTEX
  5
449
  8
ENGRAVE
 10
48.2
 20
74.2
 30
0.0
 70
0
  0
VERTEX
  5
44A
  8
ENGRAVE
 10
48.2
 20
70.2
 30
0.0
 70
0
  0
SEQEND
  5
448
  8
ENGRAVE
  0
POLYLINE
  5
44B
  8
ENGRAVE
 66
1
 10
0.0
 20
0.0
 30
0.0
 70
0
  0
VERTEX
  5
44D
  8
ENGRAVE
 10
48.2
 20
70.2
 30
0.0
 70
0
  0
VERTEX
  5
44E
  8
ENGRAVE
 10
53.0
 20
70.2
 30
0.0
 70
0
  0
SEQEND
  5
44C
  8
ENGRAVE
  0
POLYLINE
  5
44F
  8
ENGRAVE
 66
1
 10
0.0
 20
0.0
 30
0.0
 70
0
  0
VERTEX
  5
451
  8
ENGRAVE
 10
53.0
 20
70.2
 30
0.0
 70
0
  0
VERTEX
  5
452
  8
ENGRAVE
 10
53.0
 20
66.2
 30
0.0
 70
0
  0
SEQEND
  5
450
  8
ENGRAVE
  0
POLYLINE
  5
453
  8
ENGRAVE
 66
1
 10
0.0
 20
0.0
 30
0.0
 70
0
  0
VERTEX
  5
455
  8
ENGRAVE
 10
48.2
 20
66.2
 30
0.0
 70
0
  0
VERTEX
  5
456
  8
ENGRAVE
 10
53.0
 20
66.2
 30
0.0
 70
0
  0
SEQEND
  5
454
  8
ENGRAVE
  0
POLYLINE
  5
457
  8
ENGRAVE
 66
1
 10
0.0
 20
0.0
 30
0.0
 70
0
  0
VERTEX
  5
459
  8
ENGRAVE
 10
54.6
 20
66.2
 30
0.0
 70
0
  0
VERTEX
  5
45A
  8
ENGRAVE
 10
59.400000000000006
 20
74.2
 30
0.0
 70
0
  0
SEQEND
  5
458
  8
ENGRAVE
  0
POLYLINE
  5
45B
  8
ENGRAVE
 66
1
 10
0.0
 20
0.0
 30
0.0
 70
0
  0
VERTEX
  5
45D
  8
ENGRAVE
 10
61.0
 20
74.2
 30
0.0
 70
0
  0
VERTEX
  5
45E
  8
ENGRAVE
 10
65.8
 20
74.2
 30
0.0
 70
0
  0
SEQEND
  5
45C
  8
ENGRAVE
  0
POLYLINE
  5
45F
  8
ENGRAVE
 66
1
 10
0.0
 20
0.0
 30
0.0
 70
0
  0
VERTEX
  5
461
  8
ENGRAVE
 10
65.8
 20
74.2
 30
0.0
 70
0
  0
VERTEX
  5
462
  8
ENGRAVE
 10
65.8
 20
70.2
 30
0.0
 70
0
  0
SEQEND
  5
460
  8
ENGRAVE
  0
POLYLINE
  5
463
  8
ENGRAVE
 66
1
 10
0.0
 20
0.0
 30
0.0
 70
0
  0
VERTEX
  5
465
  8
ENGRAVE
 10
65.8
 20
70.2
 30
0.0
 70
0
  0
VERTEX
  5
466
  8
ENGRAVE
 10
65.8
 20
66.2
 30
0.0
 70
0
  0
SEQEND
  5
464
  8
ENGRAVE
  0
POLYLINE
  5
467
  8
ENGRAVE
 66
1
 10
0.0
 20
0.0
 30
0.0
 70
0
  0
VERTEX
  5
469
  8
ENGRAVE
 10
61.0
 20
70.2
 30
0.0
 70
0
  0
VERTEX
  5
46A
  8
ENGRAVE
 10
61.0
 20
66.2
 30
0.0
 70
0
  0
SEQEND
  5
468
  8
ENGRAVE
  0
POLYLINE
  5
46B
  8
ENGRAVE
 66
1
 10
0.0
 20
0.0
 30
0.0
 70
0
  0
VERTEX
  5
46D
  8
ENGRAVE
 10
61.0
 20
74.2
 30
0.0
 70
0
  0
VERTEX
  5
46E
  8
ENGRAVE
 10
61.0
 20
70.2
 30
0.0
 70
0
  0
SEQEND
  5
46C
  8
ENGRAVE
  0
POLYLINE
  5
46F
  8
ENGRAVE
 66
1
 10
0.0
 20
0.0
 30
0.0
 70
0
  0
VERTEX
  5
471
  8
ENGRAVE
 10
61.0
 20
70.2
 30
0.0
 70
0
  0
VERTEX
  5
472
  8
ENGRAVE
 10
65.8
 20
70.2
 30
0.0
 70
0
  0
SEQEND
  5
470
  8
ENGRAVE
  0
POLYLINE
  5
473
  8
CUT
 66
1
 10
0.0
 20
0.0
 30
0.0
 70
1
  0
VERTEX
  5
475
  8
CUT
 10
132.4
 20
46.2
 30
0.0
 70
0
  0
VERTEX
  5
476
  8
CUT
 10
132.4
 20
57.2
 30
0.0
 70
0
  0
VERTEX
  5
477
  8
CUT
 10
138.4
 20
57.2
 30
0.0
 70
0
  0
VERTEX
  5
478
  8
CUT
 10
138.4
 20
65.2
 30
0.0
 70
0
  0
VERTEX
  5
479
  8
CUT
 10
132.4
 20
65.2
 30
0.0
 70
0
  0
VERTEX
  5
47A
  8
CUT
 10
132.4
 20
68.28333333333333
 30
0.0
 70
0
  0
VERTEX
  5
47B
  8
CUT
 10
132.4
 20
76.2
 30
0.0
 70
0
  0
VERTEX
  5
47C
  8
CUT
 10
102.95555555555556
 20
76.2
 30
0.0
 70
0
  0
VERTEX
  5
47D
  8
CUT
 10
92.4
 20
76.2
 30
0.0
 70
0
  0
VERTEX
  5
47E
  8
CUT
 10
92.4
 20
54.11666666666667
 30
0.0
 70
0
  0
VERTEX
  5
47F
  8
CUT
 10
92.4
 20
46.2
 30
0.0
 70
0
  0
VERTEX
  5
480
  8
CUT
 10
121.84444444444445
 20
46.2
 30
0.0
 70
0
  0
SEQEND
  5
474
  8
CUT
  0
POLYLINE
  5
481
  8
CUT
 66
1
 10
0.0
 20
0.0
 30
0.0
 70
1
  0
VERTEX
  5
483
  8
CUT
 10
103.3423558412097
 20
54.78527096604839
 30
0.0
 70
0
  0
VERTEX
  5
484
  8
CUT
 10
103.4
 20
54.2
 30
0.0
 70
0
  0
VERTEX
  5
485
  8
CUT
 10
103.3423558412097
 20
53.61472903395162
 30
0.0
 70
0
  0
VERTEX
  5
486
  8
CUT
 10
103.17163859753387
 20
53.051949702904736
 30
0.0
 70
0
  0
VERTEX
  5
487
  8
CUT
 10
102.89440883690764
 20
52.5332893009412
 30
0.0
 70
0
  0
VERTEX
  5
488
  8
CUT
 10
102.52132034355965
 20
52.07867965644036
 30
0.0
 70
0
  0
VERTEX
  5
489
  8
CUT
 10
102.06671069905882
 20
51.705591163092365
 30
0.0
 70
0
  0
VERTEX
  5
48A
  8
CUT
 10
101.54805029709527
 20
51.428361402466145
 30
0.0
 70
0
  0
VERTEX
  5
48B
  8
CUT
 10
100.98527096604839
 20
51.25764415879031
 30
0.0
 70
0
  0
VERTEX
  5
48C
  8
CUT
 10
100.4
 20
51.2
 30
0.0
 70
0
  0
VERTEX
  5
48D
  8
CUT
 10
99.81472903395162
 20
51.25764415879031
 30
0.0
 70
0
  0
VERTEX
  5
48E
  8
CUT
 10
99.25194970290474
 20
51.428361402466145
 30
0.0
 70
0
  0
VERTEX
  5
48F
  8
CUT
 10
98.7332893009412
 20
51.705591163092365
 30
0.0
 70
0
  0
VERTEX
  5
490
  8
CUT
 10
98.27867965644036
 20
52.07867965644036
 30
0.0
 70
0
  0
VERTEX
  5
491
  8
CUT
 10
97.90559116309237
 20
52.5332893009412
 30
0.0
 70
0
  0
VERTEX
  5
492
  8
CUT
 10
97.62836140246614
 20
53.051949702904736
 30
0.0
 70
0
  0
VERTEX
  5
493
  8
CUT
 10
97.45764415879032
 20
53.61472903395162
 30
0.0
 70
0
  0
VERTEX
  5
494
  8
CUT
 10
97.4
 20
54.2
 30
0.0
 70
0
  0
VERTEX
  5
495
  8
CUT
 10
97.45764415879032
 20
54.78527096604839
 30
0.0
 70
0
  0
VERTEX
  5
496
  8
CUT
 10
97.62836140246614
 20
55.34805029709527
 30
0.0
 70
0
  0
VERTEX
  5
497
  8
CUT
 10
97.90559116309237
 20
55.86671069905881
 30
0.0
 70
0
  0
VERTEX
  5
498
  8
CUT
 10
98.27867965644036
 20
56.32132034355965
 30
0.0
 70
0
  0
VERTEX
  5
499
  8
CUT
 10
98.7332893009412
 20
56.69440883690764
 30
0.0
 70
0
  0
VERTEX
  5
49A
  8
CUT
 10
99.25194970290474
 20
56.97163859753386
 30
0.0
 70
0
  0
VERTEX
  5
49B
  8
CUT
 10
99.81472903395162
 20
57.14235584120969
 30
0.0
 70
0
  0
VERTEX
  5
49C
  8
CUT
 10
100.4
 20
57.2
 30
0.0
 70
0
  0
VERTEX
  5
49D
  8
CUT
 10
100.98527096604839
 20
57.14235584120969
 30
0.0
 70
0
  0
VERTEX
  5
49E
  8
CUT
 10
101.54805029709527
 20
56.97163859753386
 30
0.0
 70
0
  0
VERTEX
  5
49F
  8
CUT
 10
102.0667106990588
 20
56.69440883690764
 30
0.0
 70
0
  0
VERTEX
  5
4A0
  8
CUT
 10
102.52132034355965
 20
56.32132034355965
 30
0.0
 70
0
  0
VERTEX
  5
4A1
  8
CUT
 10
102.89440883690764
 20
55.86671069905881
 30
0.0
 70
0
  0
VERTEX
  5
4A2
  8
CUT
 10
103.17163859753387
 20
55.34805029709528
 30
0.0
 70
0
  0
SEQEND
  5
482
  8
CUT
  0
POLYLINE
  5
4A3
  8
ENGRAVE
 66
1
 10
0.0
 20
0.0
 30
0.0
 70
0
  0
VERTEX
  5
4A5
  8
ENGRAVE
 10
94.4
 20
74.2
 30
0.0
 70
0
  0
VERTEX
  5
4A6
  8
ENGRAVE
 10
99.2
 20
74.2
 30
0.0
 70
0
  0
SEQEND
  5
4A4
  8
ENGRAVE
  0
POLYLINE
  5
4A7
  8
ENGRAVE
 66
1
 10
0.0
 20
0.0
 30
0.0
 70
0
  0
VERTEX
  5
4A9
  8
ENGRAVE
 10
94.4
 20
74.2
 30
0.0
 70
0
  0
VERTEX
  5
4AA
  8
ENGRAVE
 10
94.4
 20
70.2
 30
0.0
 70
0
  0
SEQEND
  5
4A8
  8
ENGRAVE
  0
POLYLINE
  5
4AB
  8
ENGRAVE
 66
1
 10
0.0
 20
0.0
 30
0.0
 70
0
  0
VERTEX
  5
4AD
  8
ENGRAVE
 10
94.4
 20
70.2
 30
0.0
 70
0
  0
VERTEX
  5
4AE
  8
ENGRAVE
 10
99.2
 20
70.2
 30
0.0
 70
0
  0
SEQEND
  5
4AC
  8
ENGRAVE
  0
POLYLINE
  5
4AF
  8
ENGRAVE
 66
1
 10
0.0
 20
0.0
 30
0.0
 70
0
  0
VERTEX
  5
4B1
  8
ENGRAVE
 10
99.2
 20
70.2
 30
0.0
 70
0
  0
VERTEX
  5
4B2
  8
ENGRAVE
 10
99.2
 20
66.2
 30
0.0
 70
0
  0
SEQEND
  5
4B0
  8
ENGRAVE
  0
POLYLINE
  5
4B3
  8
ENGRAVE
 66
1
 10
0.0
 20
0.0
 30
0.0
 70
0
  0
VERTEX
  5
4B5
  8
ENGRAVE
 10
94.4
 20
66.2
 30
0.0
 70
0
  0
VERTEX
  5
4B6
  8
ENGRAVE
 10
99.2
 20
66.2
 30
0.0
 70
0
  0
SEQEND
  5
4B4
  8
ENGRAVE
  0
POLYLINE
  5
4B7
  8
ENGRAVE
 66
1
 10
0.0
 20
0.0
 30
0.0
 70
0
  0
VERTEX
  5
4B9
  8
ENGRAVE
 10
100.80000000000001
 20
66.2
 30
0.0
 70
0
  0
VERTEX
  5
4BA
  8
ENGRAVE
 10
105.60000000000001
 20
74.2
 30
0.0
 70
0
  0
SEQEND
  5
4B8
  8
ENGRAVE
  0
POLYLINE
  5
4BB
  8
ENGRAVE
 66
1
 10
0.0
 20
0.0
 30
0.0
 70
0
  0
VERTEX
  5
4BD
  8
ENGRAVE
 10
112.0
 20
70.2
 30
0.0
 70
0
  0
VERTEX
  5
4BE
  8
ENGRAVE
 10
112.0
 20
66.2
 30
0.0
 70
0
  0
SEQEND
  5
4BC
  8
ENGRAVE
  0
POLYLINE
  5
4BF
  8
ENGRAVE
 66
1
 10
0.0
 20
0.0
 30
0.0
 70
0
  0
VERTEX
  5
4C1
  8
ENGRAVE
 10
107.2
 20
66.2
 30
0.0
 70
0
  0
VERTEX
  5
4C2
  8
ENGRAVE
 10
112.0
 20
66.2
 30
0.0
 70
0
  0
SEQEND
  5
4C0
  8
ENGRAVE
  0
POLYLINE
  5
4C3
  8
ENGRAVE
 66
1
 10
0.0
 20
0.0
 30
0.0
 70
0
  0
VERTEX
  5
4C5
  8
ENGRAVE
 10
107.2
 20
70.2
 30
0.0
 70
0
  0
VERTEX
  5
4C6
  8
ENGRAVE
 10
107.2
 20
66.2
 30
0.0
 70
0
  0
SEQEND
  5
4C4
  8
ENGRAVE
  0
POLYLINE
  5
4C7
  8
ENGRAVE
 66
1
 10
0.0
 20
0.0
 30
0.0
 70
0
  0
VERTEX
  5
4C9
  8
ENGRAVE
 10
107.2
 20
74.2
 30
0.0
 70
0
  0
VERTEX
  5
4CA
  8
ENGRAVE
 10
107.2
 20
70.2
 30
0.0
 70
0
  0
SEQEND
  5
4C8
  8
ENGRAVE
  0
POLYLINE
  5
4CB
  8
ENGRAVE
 66
1
 10
0.0
 20
0.0
 30
0.0
 70
0
  0
VERTEX
  5
4CD
  8
ENGRAVE
 10
107.2
 20
70.2
 30
0.0
 70
0
  0
VERTEX
  5
4CE
  8
ENGRAVE
 10
112.0
 20
70.2
 30
0.0
 70
0
  0
SEQEND
  5
4CC
  8
ENGRAVE
  0
POLYLINE
  5
4CF
  8
CUT
 66
1
 10
0.0
 20
0.0
 30
0.0
 70
1
  0
VERTEX
  5
4D1
  8
CUT
 10
178.60000000000002
 20
46.2
 30
0.0
 70
0
  0
VERTEX
  5
4D2
  8
CUT
 10
178.60000000000002
 20
57.2
 30
0.0
 70
0
  0
VERTEX
  5
4D3
  8
CUT
 10
184.60000000000002
 20
57.2
 30
0.0
 70
0
  0
VERTEX
  5
4D4
  8
CUT
 10
184.60000000000002
 20
65.2
 30
0.0
 70
0
  0
VERTEX
  5
4D5
  8
CUT
 10
178.60000000000002
 20
65.2
 30
0.0
 70
0
  0
VERTEX
  5
4D6
  8
CUT
 10
178.60000000000002
 20
73.28333333333333
 30
0.0
 70
0
  0
VERTEX
  5
4D7
  8
CUT
 10
178.60000000000002
 20
76.2
 30
0.0
 70
0
  0
VERTEX
  5
4D8
  8
CUT
 10
142.4888888888889
 20
76.2
 30
0.0
 70
0
  0
VERTEX
  5
4D9
  8
CUT
 10
138.60000000000002
 20
76.2
 30
0.0
 70
0
  0
VERTEX
  5
4DA
  8
CUT
 10
138.60000000000002
 20
49.11666666666667
 30
0.0
 70
0
  0
VERTEX
  5
4DB
  8
CUT
 10
138.60000000000002
 20
46.2
 30
0.0
 70
0
  0
VERTEX
  5
4DC
  8
CUT
 10
174.71111111111114
 20
46.2
 30
0.0
 70
0
  0
SEQEND
  5
4D0
  8
CUT
  0
POLYLINE
  5
4DD
  8
CUT
 66
1
 10
0.0
 20
0.0
 30
0.0
 70
1
  0
VERTEX
  5
4DF
  8
CUT
 10
173.5423558412097
 20
68.78527096604839
 30
0.0
 70
0
  0
VERTEX
  5
4E0
  8
CUT
 10
173.60000000000002
 20
68.2
 30
0.0
 70
0
  0
VERTEX
  5
4E1
  8
CUT
 10
173.5423558412097
 20
67.61472903395162
 30
0.0
 70
0
  0
VERTEX
  5
4E2
  8
CUT
 10
173.3716385975339
 20
67.05194970290474
 30
0.0
 70
0
  0
VERTEX
  5
4E3
  8
CUT
 10
173.09440883690766
 20
66.53328930094119
 30
0.0
 70
0
  0
VERTEX
  5
4E4
  8
CUT
 10
172.72132034355965
 20
66.07867965644036
 30
0.0
 70
0
  0
VERTEX
  5
4E5
  8
CUT
 10
172.26671069905882
 20
65.70559116309236
 30
0.0
 70
0
  0
VERTEX
  5
4E6
  8
CUT
 10
171.7480502970953
 20
65.42836140246615
 30
0.0
 70
0
  0
VERTEX
  5
4E7
  8
CUT
 10
171.18527096604842
 20
65.25764415879031
 30
0.0
 70
0
  0
VERTEX
  5
4E8
  8
CUT
 10
170.60000000000002
 20
65.2
 30
0.0
 70
0
  0
VERTEX
  5
4E9
  8
CUT
 10
170.01472903395165
 20
65.25764415879031
 30
0.0
 70
0
  0
VERTEX
  5
4EA
  8
CUT
 10
169.45194970290476
 20
65.42836140246615
 30
0.0
 70
0
  0
VERTEX
  5
4EB
  8
CUT
 10
168.93328930094123
 20
65.70559116309236
 30
0.0
 70
0
  0
VERTEX
  5
4EC
  8
CUT
 10
168.4786796564404
 20
66.07867965644036
 30
0.0
 70
0
  0
VERTEX
  5
4ED
  8
CUT
 10
168.10559116309238
 20
66.53328930094119
 30
0.0
 70
0
  0
VERTEX
  5
4EE
  8
CUT
 10
167.82836140246616
 20
67.05194970290474
 30
0.0
 70
0
  0
VERTEX
  5
4EF
  8
CUT
 10
167.65764415879033
 20
67.61472903395162
 30
0.0
 70
0
  0
VERTEX
  5
4F0
  8
CUT
 10
167.60000000000002
 20
68.2
 30
0.0
 70
0
  0
VERTEX
  5
4F1
  8
CUT
 10
167.65764415879033
 20
68.78527096604839
 30
0.0
 70
0
  0
VERTEX
  5
4F2
  8
CUT
 10
167.82836140246616
 20
69.34805029709527
 30
0.0
 70
0
  0
VERTEX
  5
4F3
  8
CUT
 10
168.10559116309238
 20
69.86671069905881
 30
0.0
 70
0
  0
VERTEX
  5
4F4
  8
CUT
 10
168.4786796564404
 20
70.32132034355965
 30
0.0
 70
0
  0
VERTEX
  5
4F5
  8
CUT
 10
168.93328930094123
 20
70.69440883690764
 30
0.0
 70
0
  0
VERTEX
  5
4F6
  8
CUT
 10
169.45194970290476
 20
70.97163859753385
 30
0.0
 70
0
  0
VERTEX
  5
4F7
  8
CUT
 10
170.01472903395165
 20
71.14235584120969
 30
0.0
 70
0
  0
VERTEX
  5
4F8
  8
CUT
 10
170.60000000000002
 20
71.2
 30
0.0
 70
0
  0
VERTEX
  5
4F9
  8
CUT
 10
171.18527096604842
 20
71.14235584120969
 30
0.0
 70
0
  0
VERTEX
  5
4FA
  8
CUT
 10
171.7480502970953
 20
70.97163859753385
 30
0.0
 70
0
  0
VERTEX
  5
4FB
  8
CUT
 10
172.26671069905882
 20
70.69440883690764
 30
0.0
 70
0
  0
VERTEX
  5
4FC
  8
CUT
 10
172.72132034355965
 20
70.32132034355965
 30
0.0
 70
0
  0
VERTEX
  5
4FD
  8
CUT
 10
173.09440883690766
 20
69.86671069905881
 30
0.0
 70
0
  0
VERTEX
  5
4FE
  8
CUT
 10
173.3716385975339
 20
69.34805029709528
 30
0.0
 70
0
  0
SEQEND
  5
4DE
  8
CUT
  0
POLYLINE
  5
4FF
  8
ENGRAVE
 66
1
 10
0.0
 20
0.0
 30
0.0
 70
0
  0
VERTEX
  5
501
  8
ENGRAVE
 10
140.60000000000002
 20
74.2
 30
0.0
 70
0
  0
VERTEX
  5
502
  8
ENGRAVE
 10
145.40000000000003
 20
74.2
 30
0.0
 70
0
  0
SEQEND
  5
500
  8
ENGRAVE
  0
POLYLINE
  5
503
  8
ENGRAVE
 66
1
 10
0.0
 20
0.0
 30
0.0
 70
0
  0
VERTEX
  5
505
  8
ENGRAVE
 10
140.60000000000002
 20
74.2
 30
0.0
 70
0
  0
VERTEX
  5
506
  8
ENGRAVE
 10
140.60000000000002
 20
70.2
 30
0.0
 70
0
  0
SEQEND
  5
504
  8
ENGRAVE
  0
POLYLINE
  5
507
  8
ENGRAVE
 66
1
 10
0.0
 20
0.0
 30
0.0
 70
0
  0
VERTEX
  5
509
  8
ENGRAVE
 10
140.60000000000002
 20
70.2
 30
0.0
 70
0
  0
VERTEX
  5
50A
  8
ENGRAVE
 10
145.40000000000003
 20
70.2
 30
0.0
 70
0
  0
SEQEND
  5
508
  8
ENGRAVE
  0
POLYLINE
  5
50B
  8
ENGRAVE
 66
1
 10
0.0
 20
0.0
 30
0.0
 70
0
  0
VERTEX
  5
50D
  8
ENGRAVE
 10
140.60000000000002
 20
70.2
 30
0.0
 70
0
  0
VERTEX
  5
50E
  8
ENGRAVE
 10
140.60000000000002
 20
66.2
 30
0.0
 70
0
  0
SEQEND
  5
50C
  8
ENGRAVE
  0
POLYLINE
  5
50F
  8
ENGRAVE
 66
1
 10
0.0
 20
0.0
 30
0.0
 70
0
  0
VERTEX
  5
511
  8
ENGRAVE
 10
145.40000000000003
 20
70.2
 30
0.0
 70
0
  0
VERTEX
  5
512
  8
ENGRAVE
 10
145.40000000000003
 20
66.2
 30
0.0
 70
0
  0
SEQEND
  5
510
  8
ENGRAVE
  0
POLYLINE
  5
513
  8
ENGRAVE
 66
1
 10
0.0
 20
0.0
 30
0.0
 70
0
  0
VERTEX
  5
515
  8
ENGRAVE
 10
140.60000000000002
 20
66.2
 30
0.0
 70
0
  0
VERTEX
  5
516
  8
ENGRAVE
 10
145.40000000000003
 20
66.2
 30
0.0
 70
0
  0
SEQEND
  5
514
  8
ENGRAVE
  0
POLYLINE
  5
517
  8
ENGRAVE
 66
1
 10
0.0
 20
0.0
 30
0.0
 70
0
  0
VERTEX
  5
519
  8
ENGRAVE
 10
147.00000000000003
 20
66.2
 30
0.0
 70
0
  0
VERTEX
  5
51A
  8
ENGRAVE
 10
151.8
 20
74.2
 30
0.0
 70
0
  0
SEQEND
  5
518
  8
ENGRAVE
  0
POLYLINE
  5
51B
  8
ENGRAVE
 66
1
 10
0.0
 20
0.0
 30
0.0
 70
0
  0
VERTEX
  5
51D
  8
ENGRAVE
 10
153.40000000000003
 20
74.2
 30
0.0
 70
0
  0
VERTEX
  5
51E
  8
ENGRAVE
 10
158.20000000000002
 20
74.2
 30
0.0
 70
0
  0
SEQEND
  5
51C
  8
ENGRAVE
  0
POLYLINE
  5
51F
  8
ENGRAVE
 66
1
 10
0.0
 20
0.0
 30
0.0
 70
0
  0
VERTEX
  5
521
  8
ENGRAVE
 10
158.20000000000002
 20
74.2
 30
0.0
 70
0
  0
VERTEX
  5
522
  8
ENGRAVE
 10
158.20000000000002
 20
70.2
 30
0.0
 70
0
  0
SEQEND
  5
520
  8
ENGRAVE
  0
POLYLINE
  5
523
  8
ENGRAVE
 66
1
 10
0.0
 20
0.0
 30
0.0
 70
0
  0
VERTEX
  5
525
  8
ENGRAVE
 10
158.20000000000002
 20
70.2
 30
0.0
 70
0
  0
VERTEX
  5
526
  8
ENGRAVE
 10
158.20000000000002
 20
66.2
 30
0.0
 70
0
  0
SEQEND
  5
524
  8
ENGRAVE
  0
POLYLINE
  5
527
  8
ENGRAVE
 66
1
 10
0.0
 20
0.0
 30
0.0
 70
0
  0
VERTEX
  5
529
  8
ENGRAVE
 10
153.40000000000003
 20
70.2
 30
0.0
 70
0
  0
VERTEX
  5
52A
  8
ENGRAVE
 10
153.40000000000003
 20
66.2
 30
0.0
 70
0
  0
SEQEND
  5
528
  8
ENGRAVE
  0
POLYLINE
  5
52B
  8
ENGRAVE
 66
1
 10
0.0
 20
0.0
 30
0.0
 70
0
  0
VERTEX
  5
52D
  8
ENGRAVE
 10
153.40000000000003
 20
74.2
 30
0.0
 70
0
  0
VERTEX
  5
52E
  8
ENGRAVE
 10
153.40000000000003
 20
70.2
 30
0.0
 70
0
  0
SEQEND
  5
52C
  8
ENGRAVE
  0
POLYLINE
  5
52F
  8
ENGRAVE
 66
1
 10
0.0
 20
0.0
 30
0.0
 70
0
  0
VERTEX
  5
531
  8
ENGRAVE
 10
153.40000000000003
 20
70.2
 30
0.0
 70
0
  0
VERTEX
  5
532
  8
ENGRAVE
 10
158.20000000000002
 20
70.2
 30
0.0
 70
0
  0
SEQEND
  5
530
  8
ENGRAVE
  0
POLYLINE
  5
533
  8
CUT
 66
1
 10
0.0
 20
0.0
 30
0.0
 70
1
  0
VERTEX
  5
535
  8
CUT
 10
224.8
 20
46.2
 30
0.0
 70
0
  0
VERTEX
  5
536
  8
CUT
 10
224.8
 20
57.2
 30
0.0
 70
0
  0
VERTEX
  5
537
  8
CUT
 10
230.8
 20
57.2
 30
0.0
 70
0
  0
VERTEX
  5
538
  8
CUT
 10
230.8
 20
65.2
 30
0.0
 70
0
  0
VERTEX
  5
539
  8
CUT
 10
224.8
 20
65.2
 30
0.0
 70
0
  0
VERTEX
  5
53A
  8
CUT
 10
224.8
 20
73.28333333333333
 30
0.0
 70
0
  0
VERTEX
  5
53B
  8
CUT
 10
224.8
 20
76.2
 30
0.0
 70
0
  0
VERTEX
  5
53C
  8
CUT
 10
188.6888888888889
 20
76.2
 30
0.0
 70
0
  0
VERTEX
  5
53D
  8
CUT
 10
184.8
 20
76.2
 30
0.0
 70
0
  0
VERTEX
  5
53E
  8
CUT
 10
184.8
 20
49.11666666666667
 30
0.0
 70
0
  0
VERTEX
  5
53F
  8
CUT
 10
184.8
 20
46.2
 30
0.0
 70
0
  0
VERTEX
  5
540
  8
CUT
 10
220.91111111111113
 20
46.2
 30
0.0
 70
0
  0
SEQEND
  5
534
  8
CUT
  0
POLYLINE
  5
541
  8
CUT
 66
1
 10
0.0
 20
0.0
 30
0.0
 70
1
  0
VERTEX
  5
543
  8
CUT
 10
195.7423558412097
 20
54.78527096604839
 30
0.0
 70
0
  0
VERTEX
  5
544
  8
CUT
 10
195.8
 20
54.2
 30
0.0
 70
0
  0
VERTEX
  5
545
  8
CUT
 10
195.7423558412097
 20
53.61472903395162
 30
0.0
 70
0
  0
VERTEX
  5
546
  8
CUT
 10
195.57163859753388
 20
53.051949702904736
 30
0.0
 70
0
  0
VERTEX
  5
547
  8
CUT
 10
195.29440883690765
 20
52.5332893009412
 30
0.0
 70
0
  0
VERTEX
  5
548
  8
CUT
 10
194.92132034355964
 20
52.07867965644036
 30
0.0
 70
0
  0
VERTEX
  5
549
  8
CUT
 10
194.4667106990588
 20
51.705591163092365
 30
0.0
 70
0
  0
VERTEX
  5
54A
  8
CUT
 10
193.94805029709528
 20
51.428361402466145
 30
0.0
 70
0
  0
VERTEX
  5
54B
  8
CUT
 10
193.3852709660484
 20
51.25764415879031
 30
0.0
 70
0
  0
VERTEX
  5
54C
  8
CUT
 10
192.8
 20
51.2
 30
0.0
 70
0
  0
VERTEX
  5
54D
  8
CUT
 10
192.21472903395164
 20
51.25764415879031
 30
0.0
 70
0
  0
VERTEX
  5
54E
  8
CUT
 10
191.65194970290474
 20
51.428361402466145
 30
0.0
 70
0
  0
VERTEX
  5
54F
  8
CUT
 10
191.13328930094121
 20
51.705591163092365
 30
0.0
 70
0
  0
VERTEX
  5
550
  8
CUT
 10
190.67867965644038
 20
52.07867965644036
 30
0.0
 70
0
  0
VERTEX
  5
551
  8
CUT
 10
190.30559116309237
 20
52.5332893009412
 30
0.0
 70
0
  0
VERTEX
  5
552
  8
CUT
 10
190.02836140246615
 20
53.051949702904736
 30
0.0
 70
0
  0
VERTEX
  5
553
  8
CUT
 10
189.85764415879032
 20
53.61472903395162
 30
0.0
 70
0
  0
VERTEX
  5
554
  8
CUT
 10
189.8
 20
54.2
 30
0.0
 70
0
  0
VERTEX
  5
555
  8
CUT
 10
189.85764415879032
 20
54.78527096604839
 30
0.0
 70
0
  0
VERTEX
  5
556
  8
CUT
 10
190.02836140246615
 20
55.34805029709527
 30
0.0
 70
0
  0
VERTEX
  5
557
  8
CUT
 10
190.30559116309237
 20
55.86671069905881
 30
0.0
 70
0
  0
VERTEX
  5
558
  8
CUT
 10
190.67867965644038
 20
56.32132034355965
 30
0.0
 70
0
  0
VERTEX
  5
559
  8
CUT
 10
191.13328930094121
 20
56.69440883690764
 30
0.0
 70
0
  0
VERTEX
  5
55A
  8
CUT
 10
191.65194970290474
 20
56.97163859753386
 30
0.0
 70
0
  0
VERTEX
  5
55B
  8
CUT
 10
192.2147290339516
 20
57.14235584120969
 30
0.0
 70
0
  0
VERTEX
  5
55C
  8
CUT
 10
192.8
 20
57.2
 30
0.0
 70
0
  0
VERTEX
  5
55D
  8
CUT
 10
193.3852709660484
 20
57.14235584120969
 30
0.0
 70
0
  0
VERTEX
  5
55E
  8
CUT
 10
193.94805029709528
 20
56.97163859753386
 30
0.0
 70
0
  0
VERTEX
  5
55F
  8
CUT
 10
194.4667106990588
 20
56.69440883690764
 30
0.0
 70
0
  0
VERTEX
  5
560
  8
CUT
 10
194.92132034355964
 20
56.32132034355965
 30
0.0
 70
0
  0
VERTEX
  5
561
  8
CUT
 10
195.29440883690765
 20
55.86671069905881
 30
0.0
 70
0
  0
VERTEX
  5
562
  8
CUT
 10
195.57163859753388
 20
55.34805029709528
 30
0.0
 70
0
  0
SEQEND
  5
542
  8
CUT
  0
POLYLINE
  5
563
  8
ENGRAVE
 66
1
 10
0.0
 20
0.0
 30
0.0
 70
0
  0
VERTEX
  5
565
  8
ENGRAVE
 10
186.8
 20
74.2
 30
0.0
 70
0
  0
VERTEX
  5
566
  8
ENGRAVE
 10
191.60000000000002
 20
74.2
 30
0.0
 70
0
  0
SEQEND
  5
564
  8
ENGRAVE
  0
POLYLINE
  5
567
  8
ENGRAVE
 66
1
 10
0.0
 20
0.0
 30
0.0
 70
0
  0
VERTEX
  5
569
  8
ENGRAVE
 10
186.8
 20
74.2
 30
0.0
 70
0
  0
VERTEX
  5
56A
  8
ENGRAVE
 10
186.8
 20
70.2
 30
0.0
 70
0
  0
SEQEND
  5
568
  8
ENGRAVE
  0
POLYLINE
  5
56B
  8
ENGRAVE
 66
1
 10
0.0
 20
0.0
 30
0.0
 70
0
  0
VERTEX
  5
56D
  8
ENGRAVE
 10
186.8
 20
70.2
 30
0.0
 70
0
  0
VERTEX
  5
56E
  8
ENGRAVE
 10
191.60000000000002
 20
70.2
 30
0.0
 70
0
  0
SEQEND
  5
56C
  8
ENGRAVE
  0
POLYLINE
  5
56F
  8
ENGRAVE
 66
1
 10
0.0
 20
0.0
 30
0.0
 70
0
  0
VERTEX
  5
571
  8
ENGRAVE
 10
186.8
 20
70.2
 30
0.0
 70
0
  0
VERTEX
  5
572
  8
ENGRAVE
 10
186.8
 20
66.2
 30
0.0
 70
0
  0
SEQEND
  5
570
  8
ENGRAVE
  0
POLYLINE
  5
573
  8
ENGRAVE
 66
1
 10
0.0
 20
0.0
 30
0.0
 70
0
  0
VERTEX
  5
575
  8
ENGRAVE
 10
191.60000000000002
 20
70.2
 30
0.0
 70
0
  0
VERTEX
  5
576
  8
ENGRAVE
 10
191.60000000000002
 20
66.2
 30
0.0
 70
0
  0
SEQEND
  5
574
  8
ENGRAVE
  0
POLYLINE
  5
577
  8
ENGRAVE
 66
1
 10
0.0
 20
0.0
 30
0.0
 70
0
  0
VERTEX
  5
579
  8
ENGRAVE
 10
186.8
 20
66.2
 30
0.0
 70
0
  0
VERTEX
  5
57A
  8
ENGRAVE
 10
191.60000000000002
 20
66.2
 30
0.0
 70
0
  0
SEQEND
  5
578
  8
ENGRAVE
  0
POLYLINE
  5
57B
  8
ENGRAVE
 66
1
 10
0.0
 20
0.0
 30
0.0
 70
0
  0
VERTEX
  5
57D
  8
ENGRAVE
 10
193.20000000000002
 20
66.2
 30
0.0
 70
0
  0
VERTEX
  5
57E
  8
ENGRAVE
 10
198.0
 20
74.2
 30
0.0
 70
0
  0
SEQEND
  5
57C
  8
ENGRAVE
  0
POLYLINE
  5
57F
  8
ENGRAVE
 66
1
 10
0.0
 20
0.0
 30
0.0
 70
0
  0
VERTEX
  5
581
  8
ENGRAVE
 10
204.4
 20
70.2
 30
0.0
 70
0
  0
VERTEX
  5
582
  8
ENGRAVE
 10
204.4
 20
66.2
 30
0.0
 70
0
  0
SEQEND
  5
580
  8
ENGRAVE
  0
POLYLINE
  5
583
  8
ENGRAVE
 66
1
 10
0.0
 20
0.0
 30
0.0
 70
0
  0
VERTEX
  5
585
  8
ENGRAVE
 10
199.60000000000002
 20
66.2
 30
0.0
 70
0
  0
VERTEX
  5
586
  8
ENGRAVE
 10
204.4
 20
66.2
 30
0.0
 70
0
  0
SEQEND
  5
584
  8
ENGRAVE
  0
POLYLINE
  5
587
  8
ENGRAVE
 66
1
 10
0.0
 20
0.0
 30
0.0
 70
0
  0
VERTEX
  5
589
  8
ENGRAVE
 10
199.60000000000002
 20
70.2
 30
0.0
 70
0
  0
VERTEX
  5
58A
  8
ENGRAVE
 10
199.60000000000002
 20
66.2
 30
0.0
 70
0
  0
SEQEND
  5
588
  8
ENGRAVE
  0
POLYLINE
  5
58B
  8
ENGRAVE
 66
1
 10
0.0
 20
0.0
 30
0.0
 70
0
  0
VERTEX
  5
58D
  8
ENGRAVE
 10
199.60000000000002
 20
74.2
 30
0.0
 70
0
  0
VERTEX
  5
58E
  8
ENGRAVE
 10
199.60000000000002
 20
70.2
 30
0.0
 70
0
  0
SEQEND
  5
58C
  8
ENGRAVE
  0
POLYLINE
  5
58F
  8
ENGRAVE
 66
1
 10
0.0
 20
0.0
 30
0.0
 70
0
  0
VERTEX
  5
591
  8
ENGRAVE
 10
199.60000000000002
 20
70.2
 30
0.0
 70
0
  0
VERTEX
  5
592
  8
ENGRAVE
 10
204.4
 20
70.2
 30
0.0
 70
0
  0
SEQEND
  5
590
  8
ENGRAVE
  0
ENDSEC
  0
EOF
