  0
SECTION
  2
HEADER
  9
$ACADVER
  1
AC1009
  9
$DWGCODEPAGE
  3
ANSI_1252
  9
$INSBASE
 10
0.0
 20
0.0
 30
0.0
  9
$EXTMIN
 10
1e+20
 20
1e+20
 30
1e+20
  9
$EXTMAX
 10
-1e+20
 20
-1e+20
 30
-1e+20
  9
$LIMMIN
 10
0.0
 20
0.0
  9
$LIMMAX
 10
420.0
 20
297.0
  9
$ORTHOMODE
 70
0
  9
$REGENMODE
 70
1
  9
$FILLMODE
 70
1
  9
$DRAGMODE
 70
2
  9
$QTEXTMODE
 70
0
  9
$MIRRTEXT
 70
1
  9
$OSMODE
 70
20583
  9
$LTSCALE
 40
1.0
  9
$ATTMODE
 70
1
  9
$TEXTSIZE
 40
2.5
  9
$TRACEWID
 40
1.0
  9
$TEXTSTYLE
  7
Standard
  9
$CLAYER
  8
0
  9
$CELTYPE
  6
ByLayer
  9
$CECOLOR
 62
256
  9
$DIMSCALE
 40
1.0
  9
$DIMASZ
 40
2.5
  9
$DIMEXO
 40
0.625
  9
$DIMDLI
 40
3.75
  9
$DIMRND
 40
0.0
  9
$DIMDLE
 40
0.0
  9
$DIMEXE
 40
1.25
  9
$DIMTP
 40
0.0
  9
$DIMTM
 40
0.0
  9
$DIMTXT
 40
2.5
  9
$DIMCEN
 40
2.5
  9
$DIMTSZ
 40
0.0
  9
$DIMTOL
 70
0
  9
$DIMLIM
 70
0
  9
$DIMTIH
 70
0
  9
$DIMTOH
 70
0
  9
$DIMSE1
 70
0
  9
$DIMSE2
 70
0
  9
$DIMTAD
 70
1
  9
$DIMZIN
 70
8
  9
$DIMBLK
  1

  9
$DIMASO
 70
1
  9
$DIMSHO
 70
1
  9
$DIMPOST
  1

  9
$DIMAPOST
  1

  9
$DIMALT
 70
0
  9
$DIMALTD
 70
3
  9
$DIMALTF
 40
0.03937007874
  9
$DIMLFAC
 40
1.0
  9
$DIMTOFL
 70
1
  9
$DIMTVP
 40
0.0
  9
$DIMTIX
 70
0
  9
$DIMSOXD
 70
0
  9
$DIMSAH
 70
0
  9
$DIMBLK1
  1

  9
$DIMBLK2
  1

  9
$DIMSTYLE
  2
ISO-25
  9
$DIMCLRD
 70
0
  9
$DIMCLRE
 70
0
  9
$DIMCLRT
 70
0
  9
$DIMTFAC
 40
1.0
  9
$DIMGAP
 40
0.625
  9
$COORDS
 70
1
  9
$ATTDIA
 70
0
  9
$ATTREQ
 70
1
  9
$HANDLING
 70
1
  9
$LUNITS
 70
2
  9
$LUPREC
 70
4
  9
$SKETCHINC
 40
1.0
  9
$FILLETRAD
 40
10.0
  9
$AUNITS
 70
0
  9
$AUPREC
 70
2
  9
$MENU
  1
.
  9
$ELEVATION
 40
0.0
  9
$PELEVATION
 40
0.0
  9
$THICKNESS
 40
0.0
  9
$LIMCHECK
 70
0
  9
$CHAMFERA
 40
0.0
  9
$CHAMFERB
 40
0.0
  9
$SKPOLY
 70
0
  9
$TDCREATE
 40
2461262.742384259
  9
$TDUPDATE
 40
2461262.742384259
  9
$TDINDWG
 40
0.0
  9
$TDUSRTIMER
 40
0.0
  9
$USRTIMER
 70
1
  9
$ANGBASE
 50
0.0
  9
$ANGDIR
 70
0
  9
$PDMODE
 70
0
  9
$PDSIZE
 40
0.0
  9
$PLINEWID
 40
0.0
  9
$SPLFRAME
 70
0
  9
$SPLINETYPE
 70
6
  9
$SPLINESEGS
 70
8
  9
$HANDSEED
  5
75D
  9
$SURFTAB1
 70
6
  9
$SURFTAB2
 70
6
  9
$SURFTYPE
 70
6
  9
$SURFU
 70
6
  9
$SURFV
 70
6
  9
$UCSNAME
  2

  9
$UCSORG
 10
0.0
 20
0.0
 30
0.0
  9
$UCSXDIR
 10
1.0
 20
0.0
 30
0.0
  9
$UCSYDIR
 10
0.0
 20
1.0
 30
0.0
  9
$PUCSNAME
  2

  9
$PUCSORG
 10
0.0
 20
0.0
 30
0.0
  9
$PUCSXDIR
 10
1.0
 20
0.0
 30
0.0
  9
$PUCSYDIR
 10
0.0
 20
1.0
 30
0.0
  9
$USERI1
 70
0
  9
$USERI2
 70
0
  9
$USERI3
 70
0
  9
$USERI4
 70
0
  9
$USERI5
 70
0
  9
$USERR1
 40
0.0
  9
$USERR2
 40
0.0
  9
$USERR3
 40
0.0
  9
$USERR4
 40
0.0
  9
$USERR5
 40
0.0
  9
$WORLDVIEW
 70
1
  9
$SHADEDGE
 70
3
  9
$SHADEDIF
 70
70
  9
$TILEMODE
 70
1
  9
$MAXACTVP
 70
64
  9
$PLIMCHECK
 70
0
  9
$PEXTMIN
 10
1e+20
 20
1e+20
 30
1e+20
  9
$PEXTMAX
 10
-1e+20
 20
-1e+20
 30
-1e+20
  9
$PLIMMIN
 10
0.0
 20
0.0
  9
$PLIMMAX
 10
420.0
 20
297.0
  9
$UNITMODE
 70
0
  9
$VISRETAIN
 70
1
  9
$PLINEGEN
 70
0
  9
$PSLTSCALE
 70
1
  0
ENDSEC
  0
SECTION
  2
TABLES
  0
TABLE
  2
VPORT
 70
1
  0
VPORT
  5
23
  2
*Active
 70
0
 10
0.0
 20
0.0
 11
1.0
 21
1.0
 12
0.0
 22
0.0
 13
0.0
 23
0.0
 14
0.5
 24
0.5
 15
0.5
 25
0.5
 16
0.0
 26
0.0
 36
1.0
 17
0.0
 27
0.0
 37
0.0
 40
1000.0
 41
1.34
 42
50.0
 43
0.0
 44
0.0
 50
0.0
 51
0.0
 71
0
 72
1000
 73
1
 74
3
 75
0
 76
0
 77
0
 78
0
  0
ENDTAB
  0
TABLE
  2
LTYPE
 70
3
  0
LTYPE
  5
24
  2
ByBlock
 70
0
  3

 72
65
 73
0
 40
0.0
  0
LTYPE
  5
25
  2
ByLayer
 70
0
  3

 72
65
 73
0
 40
0.0
  0
LTYPE
  5
26
  2
Continuous
 70
0
  3

 72
65
 73
0
 40
0.0
  0
ENDTAB
  0
TABLE
  2
LAYER
 70
4
  0
LAYER
  5
27
  2
0
 70
0
 62
7
  6
Continuous
  0
LAYER
  5
28
  2
Defpoints
 70
0
 62
7
  6
Continuous
  0
LAYER
  5
2D
  2
CUT
 70
0
 62
1
  6
Continuous
  0
LAYER
  5
2E
  2
ENGRAVE
 70
0
 62
5
  6
Continuous
  0
ENDTAB
  0
TABLE
  2
STYLE
 70
1
  0
STYLE
  5
29
  2
Standard
 70
0
 40
0.0
 41
1.0
 50
0.0
 71
0
 42
2.5
  3
txt
  4

  0
ENDTAB
  0
TABLE
  2
VIEW
 70
0
  0
ENDTAB
  0
TABLE
  2
UCS
 70
0
  0
ENDTAB
  0
TABLE
  2
APPID
 70
3
  0
APPID
  5
2A
  2
ACAD
 70
0
  0
APPID
  5
75B
  2
HATCHBACKGROUNDCOLOR
 70
0
  0
APPID
  5
75C
  2
EZDXF
 70
0
  0
ENDTAB
  0
TABLE
  2
DIMSTYLE
 70
1
  0
DIMSTYLE
105
2B
  2
Standard
 70
0
  3

  4

  5

  6

  7

 40
1.0
 41
2.5
 42
0.625
 43
3.75
 44
1.25
 45
0.0
 46
0.0
 47
0.0
 48
0.0
140
2.5
141
2.5
142
0.0
143
0.03937007874
144
1.0
145
0.0
146
1.0
147
0.625
 71
0
 72
0
 73
0
 74
0
 75
0
 76
0
 77
1
 78
8
170
0
171
3
172
1
173
0
174
0
175
0
176
0
177
0
178
0
  0
ENDTAB
  0
ENDSEC
  0
SECTION
  2
BLOCKS
  0
BLOCK
  5
18
  8
0
  2
$Model_Space
 70
0
 10
0.0
 20
0.0
 30
0.0
  3
$Model_Space
  1

1001
EZDXF
1000
CREATED_BY_EZDXF
1000
1.4.4 @ 2026-08-09T15:49:02.815221+00:00
1000
WRITTEN_BY_EZDXF
1000
1.4.4 @ 2026-08-09T15:49:02.871405+00:00
  0
ENDBLK
  5
19
  8
0
  0
BLOCK
  5
1C
  8
0
  2
$Paper_Space
 70
0
 10
0.0
 20
0.0
 30
0.0
  3
$Paper_Space
  1

  0
ENDBLK
  5
1D
  8
0
  0
ENDSEC
  0
SECTION
  2
ENTITIES
  0
POLYLINE
  5
2F
  8
CUT
 66
1
 10
0.0
 20
0.0
 30
0.0
 70
1
  0
VERTEX
  5
31
  8
CUT
 10
10.0
 20
5.0
 30
0.0
 70
0
  0
VERTEX
  5
32
  8
CUT
 10
9.903926402016152
 20
5.97545161008064
 30
0.0
 70
0
  0
VERTEX
  5
33
  8
CUT
 10
9.619397662556434
 20
6.91341716182545
 30
0.0
 70
0
  0
VERTEX
  5
34
  8
CUT
 10
9.157348061512726
 20
7.7778511650980136
 30
0.0
 70
0
  0
VERTEX
  5
35
  8
CUT
 10
8.535533905932738
 20
8.535533905932738
 30
0.0
 70
0
  0
VERTEX
  5
36
  8
CUT
 10
7.777851165098012
 20
9.157348061512728
 30
0.0
 70
0
  0
VERTEX
  5
37
  8
CUT
 10
6.91341716182545
 20
9.619397662556437
 30
0.0
 70
0
  0
VERTEX
  5
38
  8
CUT
 10
5.975451610080642
 20
9.903926402016154
 30
0.0
 70
0
  0
VERTEX
  5
39
  8
CUT
 10
5.0
 20
10.0
 30
0.0
 70
0
  0
VERTEX
  5
3A
  8
CUT
 10
4.024548389919358
 20
9.903926402016154
 30
0.0
 70
0
  0
VERTEX
  5
3B
  8
CUT
 10
3.086582838174552
 20
9.619397662556437
 30
0.0
 70
0
  0
VERTEX
  5
3C
  8
CUT
 10
2.22214883490199
 20
9.157348061512728
 30
0.0
 70
0
  0
VERTEX
  5
3D
  8
CUT
 10
1.4644660940672622
 20
8.535533905932738
 30
0.0
 70
0
  0
VERTEX
  5
3E
  8
CUT
 10
0.8426519384872719
 20
7.7778511650980136
 30
0.0
 70
0
  0
VERTEX
  5
3F
  8
CUT
 10
0.3806023374435661
 20
6.91341716182545
 30
0.0
 70
0
  0
VERTEX
  5
40
  8
CUT
 10
0.09607359798384607
 20
5.97545161008064
 30
0.0
 70
0
  0
VERTEX
  5
41
  8
CUT
 10
0.0
 20
5.0
 30
0.0
 70
0
  0
VERTEX
  5
42
  8
CUT
 10
0.09607359798384607
 20
4.02454838991936
 30
0.0
 70
0
  0
VERTEX
  5
43
  8
CUT
 10
0.3806023374435661
 20
3.08658283817455
 30
0.0
 70
0
  0
VERTEX
  5
44
  8
CUT
 10
0.8426519384872719
 20
2.2221488349019864
 30
0.0
 70
0
  0
VERTEX
  5
45
  8
CUT
 10
1.4644660940672622
 20
1.4644660940672622
 30
0.0
 70
0
  0
VERTEX
  5
46
  8
CUT
 10
2.22214883490199
 20
0.8426519384872719
 30
0.0
 70
0
  0
VERTEX
  5
47
  8
CUT
 10
3.0865828381745484
 20
0.38060233744356964
 30
0.0
 70
0
  0
VERTEX
  5
48
  8
CUT
 10
4.024548389919357
 20
0.09607359798384607
 30
0.0
 70
0
  0
VERTEX
  5
49
  8
CUT
 10
4.999999999999998
 20
0.0
 30
0.0
 70
0
  0
VERTEX
  5
4A
  8
CUT
 10
5.975451610080642
 20
0.09607359798384607
 30
0.0
 70
0
  0
VERTEX
  5
4B
  8
CUT
 10
6.91341716182545
 20
0.38060233744356964
 30
0.0
 70
0
  0
VERTEX
  5
4C
  8
CUT
 10
7.77785116509801
 20
0.8426519384872719
 30
0.0
 70
0
  0
VERTEX
  5
4D
  8
CUT
 10
8.535533905932738
 20
1.4644660940672622
 30
0.0
 70
0
  0
VERTEX
  5
4E
  8
CUT
 10
9.157348061512726
 20
2.2221488349019864
 30
0.0
 70
0
  0
VERTEX
  5
4F
  8
CUT
 10
9.619397662556432
 20
3.08658283817455
 30
0.0
 70
0
  0
VERTEX
  5
50
  8
CUT
 10
9.90392640201615
 20
4.024548389919353
 30
0.0
 70
0
  0
SEQEND
  5
30
  8
CUT
  0
POLYLINE
  5
51
  8
CUT
 66
1
 10
0.0
 20
0.0
 30
0.0
 70
1
  0
VERTEX
  5
53
  8
CUT
 10
8.0
 20
5.0
 30
0.0
 70
0
  0
VERTEX
  5
54
  8
CUT
 10
7.942355841209691
 20
4.414729033951616
 30
0.0
 70
0
  0
VERTEX
  5
55
  8
CUT
 10
7.77163859753386
 20
3.851949702904733
 30
0.0
 70
0
  0
VERTEX
  5
56
  8
CUT
 10
7.494408836907635
 20
3.333289300941196
 30
0.0
 70
0
  0
VERTEX
  5
57
  8
CUT
 10
7.121320343559642
 20
2.8786796564403545
 30
0.0
 70
0
  0
VERTEX
  5
58
  8
CUT
 10
6.666710699058807
 20
2.5055911630923617
 30
0.0
 70
0
  0
VERTEX
  5
59
  8
CUT
 10
6.148050297095269
 20
2.228361402466142
 30
0.0
 70
0
  0
VERTEX
  5
5A
  8
CUT
 10
5.585270966048386
 20
2.0576441587903105
 30
0.0
 70
0
  0
VERTEX
  5
5B
  8
CUT
 10
5.0
 20
2.0
 30
0.0
 70
0
  0
VERTEX
  5
5C
  8
CUT
 10
4.414729033951616
 20
2.0576441587903105
 30
0.0
 70
0
  0
VERTEX
  5
5D
  8
CUT
 10
3.851949702904731
 20
2.228361402466142
 30
0.0
 70
0
  0
VERTEX
  5
5E
  8
CUT
 10
3.3332893009411944
 20
2.5055911630923617
 30
0.0
 70
0
  0
VERTEX
  5
5F
  8
CUT
 10
2.878679656440358
 20
2.8786796564403545
 30
0.0
 70
0
  0
VERTEX
  5
60
  8
CUT
 10
2.5055911630923635
 20
3.333289300941196
 30
0.0
 70
0
  0
VERTEX
  5
61
  8
CUT
 10
2.22836140246614
 20
3.851949702904733
 30
0.0
 70
0
  0
VERTEX
  5
62
  8
CUT
 10
2.0576441587903087
 20
4.414729033951616
 30
0.0
 70
0
  0
VERTEX
  5
63
  8
CUT
 10
2.0
 20
5.0
 30
0.0
 70
0
  0
VERTEX
  5
64
  8
CUT
 10
2.0576441587903087
 20
5.585270966048384
 30
0.0
 70
0
  0
VERTEX
  5
65
  8
CUT
 10
2.22836140246614
 20
6.148050297095267
 30
0.0
 70
0
  0
VERTEX
  5
66
  8
CUT
 10
2.5055911630923635
 20
6.666710699058804
 30
0.0
 70
0
  0
VERTEX
  5
67
  8
CUT
 10
2.878679656440358
 20
7.1213203435596455
 30
0.0
 70
0
  0
VERTEX
  5
68
  8
CUT
 10
3.3332893009411926
 20
7.494408836907638
 30
0.0
 70
0
  0
VERTEX
  5
69
  8
CUT
 10
3.8519497029047294
 20
7.771638597533858
 30
0.0
 70
0
  0
VERTEX
  5
6A
  8
CUT
 10
4.414729033951614
 20
7.9423558412096895
 30
0.0
 70
0
  0
VERTEX
  5
6B
  8
CUT
 10
5.0
 20
8.0
 30
0.0
 70
0
  0
VERTEX
  5
6C
  8
CUT
 10
5.585270966048386
 20
7.9423558412096895
 30
0.0
 70
0
  0
VERTEX
  5
6D
  8
CUT
 10
6.148050297095271
 20
7.771638597533858
 30
0.0
 70
0
  0
VERTEX
  5
6E
  8
CUT
 10
6.666710699058806
 20
7.494408836907638
 30
0.0
 70
0
  0
VERTEX
  5
6F
  8
CUT
 10
7.121320343559642
 20
7.1213203435596455
 30
0.0
 70
0
  0
VERTEX
  5
70
  8
CUT
 10
7.494408836907635
 20
6.666710699058804
 30
0.0
 70
0
  0
VERTEX
  5
71
  8
CUT
 10
7.77163859753386
 20
6.148050297095274
 30
0.0
 70
0
  0
VERTEX
  5
72
  8
CUT
 10
7.942355841209691
 20
5.585270966048384
 30
0.0
 70
0
  0
SEQEND
  5
52
  8
CUT
  0
POLYLINE
  5
73
  8
CUT
 66
1
 10
0.0
 20
0.0
 30
0.0
 70
1
  0
VERTEX
  5
75
  8
CUT
 10
20.2
 20
5.0
 30
0.0
 70
0
  0
VERTEX
  5
76
  8
CUT
 10
20.10392640201615
 20
5.97545161008064
 30
0.0
 70
0
  0
VERTEX
  5
77
  8
CUT
 10
19.819397662556433
 20
6.91341716182545
 30
0.0
 70
0
  0
VERTEX
  5
78
  8
CUT
 10
19.357348061512724
 20
7.7778511650980136
 30
0.0
 70
0
  0
VERTEX
  5
79
  8
CUT
 10
18.735533905932737
 20
8.535533905932738
 30
0.0
 70
0
  0
VERTEX
  5
7A
  8
CUT
 10
17.97785116509801
 20
9.157348061512728
 30
0.0
 70
0
  0
VERTEX
  5
7B
  8
CUT
 10
17.11341716182545
 20
9.619397662556437
 30
0.0
 70
0
  0
VERTEX
  5
7C
  8
CUT
 10
16.175451610080643
 20
9.903926402016154
 30
0.0
 70
0
  0
VERTEX
  5
7D
  8
CUT
 10
15.2
 20
10.0
 30
0.0
 70
0
  0
VERTEX
  5
7E
  8
CUT
 10
14.22454838991936
 20
9.903926402016154
 30
0.0
 70
0
  0
VERTEX
  5
7F
  8
CUT
 10
13.286582838174551
 20
9.619397662556437
 30
0.0
 70
0
  0
VERTEX
  5
80
  8
CUT
 10
12.42214883490199
 20
9.157348061512728
 30
0.0
 70
0
  0
VERTEX
  5
81
  8
CUT
 10
11.664466094067262
 20
8.535533905932738
 30
0.0
 70
0
  0
VERTEX
  5
82
  8
CUT
 10
11.042651938487273
 20
7.7778511650980136
 30
0.0
 70
0
  0
VERTEX
  5
83
  8
CUT
 10
10.580602337443565
 20
6.91341716182545
 30
0.0
 70
0
  0
VERTEX
  5
84
  8
CUT
 10
10.296073597983847
 20
5.97545161008064
 30
0.0
 70
0
  0
VERTEX
  5
85
  8
CUT
 10
10.2
 20
5.0
 30
0.0
 70
0
  0
VERTEX
  5
86
  8
CUT
 10
10.296073597983847
 20
4.02454838991936
 30
0.0
 70
0
  0
VERTEX
  5
87
  8
CUT
 10
10.580602337443565
 20
3.08658283817455
 30
0.0
 70
0
  0
VERTEX
  5
88
  8
CUT
 10
11.042651938487271
 20
2.2221488349019864
 30
0.0
 70
0
  0
VERTEX
  5
89
  8
CUT
 10
11.664466094067262
 20
1.4644660940672622
 30
0.0
 70
0
  0
VERTEX
  5
8A
  8
CUT
 10
12.42214883490199
 20
0.8426519384872719
 30
0.0
 70
0
  0
VERTEX
  5
8B
  8
CUT
 10
13.286582838174548
 20
0.38060233744356964
 30
0.0
 70
0
  0
VERTEX
  5
8C
  8
CUT
 10
14.224548389919356
 20
0.09607359798384607
 30
0.0
 70
0
  0
VERTEX
  5
8D
  8
CUT
 10
15.2
 20
0.0
 30
0.0
 70
0
  0
VERTEX
  5
8E
  8
CUT
 10
16.175451610080643
 20
0.09607359798384607
 30
0.0
 70
0
  0
VERTEX
  5
8F
  8
CUT
 10
17.11341716182545
 20
0.38060233744356964
 30
0.0
 70
0
  0
VERTEX
  5
90
  8
CUT
 10
17.97785116509801
 20
0.8426519384872719
 30
0.0
 70
0
  0
VERTEX
  5
91
  8
CUT
 10
18.735533905932737
 20
1.4644660940672622
 30
0.0
 70
0
  0
VERTEX
  5
92
  8
CUT
 10
19.357348061512724
 20
2.2221488349019864
 30
0.0
 70
0
  0
VERTEX
  5
93
  8
CUT
 10
19.819397662556433
 20
3.08658283817455
 30
0.0
 70
0
  0
VERTEX
  5
94
  8
CUT
 10
20.10392640201615
 20
4.024548389919353
 30
0.0
 70
0
  0
SEQEND
  5
74
  8
CUT
  0
POLYLINE
  5
95
  8
CUT
 66
1
 10
0.0
 20
0.0
 30
0.0
 70
1
  0
VERTEX
  5
97
  8
CUT
 10
30.4
 20
5.0
 30
0.0
 70
0
  0
VERTEX
  5
98
  8
CUT
 10
30.303926402016153
 20
5.97545161008064
 30
0.0
 70
0
  0
VERTEX
  5
99
  8
CUT
 10
30.019397662556432
 20
6.91341716182545
 30
0.0
 70
0
  0
VERTEX
  5
9A
  8
CUT
 10
29.557348061512727
 20
7.7778511650980136
 30
0.0
 70
0
  0
VERTEX
  5
9B
  8
CUT
 10
28.935533905932736
 20
8.535533905932738
 30
0.0
 70
0
  0
VERTEX
  5
9C
  8
CUT
 10
28.177851165098012
 20
9.157348061512728
 30
0.0
 70
0
  0
VERTEX
  5
9D
  8
CUT
 10
27.31341716182545
 20
9.619397662556437
 30
0.0
 70
0
  0
VERTEX
  5
9E
  8
CUT
 10
26.37545161008064
 20
9.903926402016154
 30
0.0
 70
0
  0
VERTEX
  5
9F
  8
CUT
 10
25.4
 20
10.0
 30
0.0
 70
0
  0
VERTEX
  5
A0
  8
CUT
 10
24.42454838991936
 20
9.903926402016154
 30
0.0
 70
0
  0
VERTEX
  5
A1
  8
CUT
 10
23.48658283817455
 20
9.619397662556437
 30
0.0
 70
0
  0
VERTEX
  5
A2
  8
CUT
 10
22.62214883490199
 20
9.157348061512728
 30
0.0
 70
0
  0
VERTEX
  5
A3
  8
CUT
 10
21.86446609406726
 20
8.535533905932738
 30
0.0
 70
0
  0
VERTEX
  5
A4
  8
CUT
 10
21.24265193848727
 20
7.7778511650980136
 30
0.0
 70
0
  0
VERTEX
  5
A5
  8
CUT
 10
20.780602337443565
 20
6.91341716182545
 30
0.0
 70
0
  0
VERTEX
  5
A6
  8
CUT
 10
20.496073597983845
 20
5.97545161008064
 30
0.0
 70
0
  0
VERTEX
  5
A7
  8
CUT
 10
20.4
 20
5.0
 30
0.0
 70
0
  0
VERTEX
  5
A8
  8
CUT
 10
20.496073597983845
 20
4.02454838991936
 30
0.0
 70
0
  0
VERTEX
  5
A9
  8
CUT
 10
20.780602337443565
 20
3.08658283817455
 30
0.0
 70
0
  0
VERTEX
  5
AA
  8
CUT
 10
21.24265193848727
 20
2.2221488349019864
 30
0.0
 70
0
  0
VERTEX
  5
AB
  8
CUT
 10
21.86446609406726
 20
1.4644660940672622
 30
0.0
 70
0
  0
VERTEX
  5
AC
  8
CUT
 10
22.62214883490199
 20
0.8426519384872719
 30
0.0
 70
0
  0
VERTEX
  5
AD
  8
CUT
 10
23.48658283817455
 20
0.38060233744356964
 30
0.0
 70
0
  0
VERTEX
  5
AE
  8
CUT
 10
24.424548389919355
 20
0.09607359798384607
 30
0.0
 70
0
  0
VERTEX
  5
AF
  8
CUT
 10
25.4
 20
0.0
 30
0.0
 70
0
  0
VERTEX
  5
B0
  8
CUT
 10
26.37545161008064
 20
0.09607359798384607
 30
0.0
 70
0
  0
VERTEX
  5
B1
  8
CUT
 10
27.31341716182545
 20
0.38060233744356964
 30
0.0
 70
0
  0
VERTEX
  5
B2
  8
CUT
 10
28.17785116509801
 20
0.8426519384872719
 30
0.0
 70
0
  0
VERTEX
  5
B3
  8
CUT
 10
28.935533905932736
 20
1.4644660940672622
 30
0.0
 70
0
  0
VERTEX
  5
B4
  8
CUT
 10
29.557348061512727
 20
2.2221488349019864
 30
0.0
 70
0
  0
VERTEX
  5
B5
  8
CUT
 10
30.01939766255643
 20
3.08658283817455
 30
0.0
 70
0
  0
VERTEX
  5
B6
  8
CUT
 10
30.30392640201615
 20
4.024548389919353
 30
0.0
 70
0
  0
SEQEND
  5
96
  8
CUT
  0
POLYLINE
  5
B7
  8
CUT
 66
1
 10
0.0
 20
0.0
 30
0.0
 70
1
  0
VERTEX
  5
B9
  8
CUT
 10
40.599999999999994
 20
5.0
 30
0.0
 70
0
  0
VERTEX
  5
BA
  8
CUT
 10
40.50392640201615
 20
5.97545161008064
 30
0.0
 70
0
  0
VERTEX
  5
BB
  8
CUT
 10
40.21939766255643
 20
6.91341716182545
 30
0.0
 70
0
  0
VERTEX
  5
BC
  8
CUT
 10
39.75734806151273
 20
7.7778511650980136
 30
0.0
 70
0
  0
VERTEX
  5
BD
  8
CUT
 10
39.13553390593273
 20
8.535533905932738
 30
0.0
 70
0
  0
VERTEX
  5
BE
  8
CUT
 10
38.37785116509801
 20
9.157348061512728
 30
0.0
 70
0
  0
VERTEX
  5
BF
  8
CUT
 10
37.513417161825444
 20
9.619397662556437
 30
0.0
 70
0
  0
VERTEX
  5
C0
  8
CUT
 10
36.57545161008064
 20
9.903926402016154
 30
0.0
 70
0
  0
VERTEX
  5
C1
  8
CUT
 10
35.599999999999994
 20
10.0
 30
0.0
 70
0
  0
VERTEX
  5
C2
  8
CUT
 10
34.624548389919354
 20
9.903926402016154
 30
0.0
 70
0
  0
VERTEX
  5
C3
  8
CUT
 10
33.68658283817455
 20
9.619397662556437
 30
0.0
 70
0
  0
VERTEX
  5
C4
  8
CUT
 10
32.82214883490199
 20
9.157348061512728
 30
0.0
 70
0
  0
VERTEX
  5
C5
  8
CUT
 10
32.06446609406726
 20
8.535533905932738
 30
0.0
 70
0
  0
VERTEX
  5
C6
  8
CUT
 10
31.442651938487273
 20
7.7778511650980136
 30
0.0
 70
0
  0
VERTEX
  5
C7
  8
CUT
 10
30.980602337443564
 20
6.91341716182545
 30
0.0
 70
0
  0
VERTEX
  5
C8
  8
CUT
 10
30.696073597983847
 20
5.97545161008064
 30
0.0
 70
0
  0
VERTEX
  5
C9
  8
CUT
 10
30.599999999999998
 20
5.0
 30
0.0
 70
0
  0
VERTEX
  5
CA
  8
CUT
 10
30.696073597983847
 20
4.02454838991936
 30
0.0
 70
0
  0
VERTEX
  5
CB
  8
CUT
 10
30.980602337443564
 20
3.08658283817455
 30
0.0
 70
0
  0
VERTEX
  5
CC
  8
CUT
 10
31.44265193848727
 20
2.2221488349019864
 30
0.0
 70
0
  0
VERTEX
  5
CD
  8
CUT
 10
32.06446609406726
 20
1.4644660940672622
 30
0.0
 70
0
  0
VERTEX
  5
CE
  8
CUT
 10
32.82214883490199
 20
0.8426519384872719
 30
0.0
 70
0
  0
VERTEX
  5
CF
  8
CUT
 10
33.686582838174544
 20
0.38060233744356964
 30
0.0
 70
0
  0
VERTEX
  5
D0
  8
CUT
 10
34.624548389919354
 20
0.09607359798384607
 30
0.0
 70
0
  0
VERTEX
  5
D1
  8
CUT
 10
35.599999999999994
 20
0.0
 30
0.0
 70
0
  0
VERTEX
  5
D2
  8
CUT
 10
36.57545161008064
 20
0.09607359798384607
 30
0.0
 70
0
  0
VERTEX
  5
D3
  8
CUT
 10
37.513417161825444
 20
0.38060233744356964
 30
0.0
 70
0
  0
VERTEX
  5
D4
  8
CUT
 10
38.37785116509801
 20
0.8426519384872719
 30
0.0
 70
0
  0
VERTEX
  5
D5
  8
CUT
 10
39.13553390593273
 20
1.4644660940672622
 30
0.0
 70
0
  0
VERTEX
  5
D6
  8
CUT
 10
39.75734806151273
 20
2.2221488349019864
 30
0.0
 70
0
  0
VERTEX
  5
D7
  8
CUT
 10
40.21939766255643
 20
3.08658283817455
 30
0.0
 70
0
  0
VERTEX
  5
D8
  8
CUT
 10
40.50392640201615
 20
4.024548389919353
 30
0.0
 70
0
  0
SEQEND
  5
B8
  8
CUT
  0
POLYLINE
  5
D9
  8
CUT
 66
1
 10
0.0
 20
0.0
 30
0.0
 70
1
  0
VERTEX
  5
DB
  8
CUT
 10
38.599999999999994
 20
5.0
 30
0.0
 70
0
  0
VERTEX
  5
DC
  8
CUT
 10
38.54235584120969
 20
4.414729033951616
 30
0.0
 70
0
  0
VERTEX
  5
DD
  8
CUT
 10
38.37163859753386
 20
3.851949702904733
 30
0.0
 70
0
  0
VERTEX
  5
DE
  8
CUT
 10
38.09440883690763
 20
3.333289300941196
 30
0.0
 70
0
  0
VERTEX
  5
DF
  8
CUT
 10
37.72132034355964
 20
2.8786796564403545
 30
0.0
 70
0
  0
VERTEX
  5
E0
  8
CUT
 10
37.266710699058805
 20
2.5055911630923617
 30
0.0
 70
0
  0
VERTEX
  5
E1
  8
CUT
 10
36.74805029709527
 20
2.228361402466142
 30
0.0
 70
0
  0
VERTEX
  5
E2
  8
CUT
 10
36.185270966048385
 20
2.0576441587903105
 30
0.0
 70
0
  0
VERTEX
  5
E3
  8
CUT
 10
35.599999999999994
 20
2.0
 30
0.0
 70
0
  0
VERTEX
  5
E4
  8
CUT
 10
35.01472903395161
 20
2.0576441587903105
 30
0.0
 70
0
  0
VERTEX
  5
E5
  8
CUT
 10
34.45194970290473
 20
2.228361402466142
 30
0.0
 70
0
  0
VERTEX
  5
E6
  8
CUT
 10
33.93328930094119
 20
2.5055911630923617
 30
0.0
 70
0
  0
VERTEX
  5
E7
  8
CUT
 10
33.478679656440356
 20
2.8786796564403545
 30
0.0
 70
0
  0
VERTEX
  5
E8
  8
CUT
 10
33.10559116309236
 20
3.333289300941196
 30
0.0
 70
0
  0
VERTEX
  5
E9
  8
CUT
 10
32.828361402466136
 20
3.851949702904733
 30
0.0
 70
0
  0
VERTEX
  5
EA
  8
CUT
 10
32.657644158790305
 20
4.414729033951616
 30
0.0
 70
0
  0
VERTEX
  5
EB
  8
CUT
 10
32.599999999999994
 20
5.0
 30
0.0
 70
0
  0
VERTEX
  5
EC
  8
CUT
 10
32.657644158790305
 20
5.585270966048384
 30
0.0
 70
0
  0
VERTEX
  5
ED
  8
CUT
 10
32.828361402466136
 20
6.148050297095267
 30
0.0
 70
0
  0
VERTEX
  5
EE
  8
CUT
 10
33.10559116309236
 20
6.666710699058804
 30
0.0
 70
0
  0
VERTEX
  5
EF
  8
CUT
 10
33.478679656440356
 20
7.1213203435596455
 30
0.0
 70
0
  0
VERTEX
  5
F0
  8
CUT
 10
33.93328930094119
 20
7.494408836907638
 30
0.0
 70
0
  0
VERTEX
  5
F1
  8
CUT
 10
34.45194970290473
 20
7.771638597533858
 30
0.0
 70
0
  0
VERTEX
  5
F2
  8
CUT
 10
35.01472903395161
 20
7.9423558412096895
 30
0.0
 70
0
  0
VERTEX
  5
F3
  8
CUT
 10
35.599999999999994
 20
8.0
 30
0.0
 70
0
  0
VERTEX
  5
F4
  8
CUT
 10
36.185270966048385
 20
7.9423558412096895
 30
0.0
 70
0
  0
VERTEX
  5
F5
  8
CUT
 10
36.74805029709527
 20
7.771638597533858
 30
0.0
 70
0
  0
VERTEX
  5
F6
  8
CUT
 10
37.266710699058805
 20
7.494408836907638
 30
0.0
 70
0
  0
VERTEX
  5
F7
  8
CUT
 10
37.72132034355964
 20
7.1213203435596455
 30
0.0
 70
0
  0
VERTEX
  5
F8
  8
CUT
 10
38.09440883690763
 20
6.666710699058804
 30
0.0
 70
0
  0
VERTEX
  5
F9
  8
CUT
 10
38.37163859753386
 20
6.148050297095274
 30
0.0
 70
0
  0
VERTEX
  5
FA
  8
CUT
 10
38.54235584120969
 20
5.585270966048384
 30
0.0
 70
0
  0
SEQEND
  5
DA
  8
CUT
  0
POLYLINE
  5
FB
  8
CUT
 66
1
 10
0.0
 20
0.0
 30
0.0
 70
1
  0
VERTEX
  5
FD
  8
CUT
 10
50.8
 20
5.0
 30
0.0
 70
0
  0
VERTEX
  5
FE
  8
CUT
 10
50.70392640201615
 20
5.97545161008064
 30
0.0
 70
0
  0
VERTEX
  5
FF
  8
CUT
 10
50.419397662556435
 20
6.91341716182545
 30
0.0
 70
0
  0
VERTEX
  5
100
  8
CUT
 10
49.957348061512725
 20
7.7778511650980136
 30
0.0
 70
0
  0
VERTEX
  5
101
  8
CUT
 10
49.335533905932735
 20
8.535533905932738
 30
0.0
 70
0
  0
VERTEX
  5
102
  8
CUT
 10
48.57785116509801
 20
9.157348061512728
 30
0.0
 70
0
  0
VERTEX
  5
103
  8
CUT
 10
47.71341716182545
 20
9.619397662556437
 30
0.0
 70
0
  0
VERTEX
  5
104
  8
CUT
 10
46.77545161008064
 20
9.903926402016154
 30
0.0
 70
0
  0
VERTEX
  5
105
  8
CUT
 10
45.8
 20
10.0
 30
0.0
 70
0
  0
VERTEX
  5
106
  8
CUT
 10
44.82454838991936
 20
9.903926402016154
 30
0.0
 70
0
  0
VERTEX
  5
107
  8
CUT
 10
43.88658283817455
 20
9.619397662556437
 30
0.0
 70
0
  0
VERTEX
  5
108
  8
CUT
 10
43.022148834901984
 20
9.157348061512728
 30
0.0
 70
0
  0
VERTEX
  5
109
  8
CUT
 10
42.26446609406726
 20
8.535533905932738
 30
0.0
 70
0
  0
VERTEX
  5
10A
  8
CUT
 10
41.64265193848727
 20
7.7778511650980136
 30
0.0
 70
0
  0
VERTEX
  5
10B
  8
CUT
 10
41.18060233744356
 20
6.91341716182545
 30
0.0
 70
0
  0
VERTEX
  5
10C
  8
CUT
 10
40.89607359798384
 20
5.97545161008064
 30
0.0
 70
0
  0
VERTEX
  5
10D
  8
CUT
 10
40.8
 20
5.0
 30
0.0
 70
0
  0
VERTEX
  5
10E
  8
CUT
 10
40.89607359798384
 20
4.02454838991936
 30
0.0
 70
0
  0
VERTEX
  5
10F
  8
CUT
 10
41.18060233744356
 20
3.08658283817455
 30
0.0
 70
0
  0
VERTEX
  5
110
  8
CUT
 10
41.64265193848727
 20
2.2221488349019864
 30
0.0
 70
0
  0
VERTEX
  5
111
  8
CUT
 10
42.26446609406726
 20
1.4644660940672622
 30
0.0
 70
0
  0
VERTEX
  5
112
  8
CUT
 10
43.022148834901984
 20
0.8426519384872719
 30
0.0
 70
0
  0
VERTEX
  5
113
  8
CUT
 10
43.88658283817455
 20
0.38060233744356964
 30
0.0
 70
0
  0
VERTEX
  5
114
  8
CUT
 10
44.82454838991936
 20
0.09607359798384962
 30
0.0
 70
0
  0
VERTEX
  5
115
  8
CUT
 10
45.8
 20
0.0
 30
0.0
 70
0
  0
VERTEX
  5
116
  8
CUT
 10
46.77545161008064
 20
0.09607359798384607
 30
0.0
 70
0
  0
VERTEX
  5
117
  8
CUT
 10
47.71341716182545
 20
0.3806023374435661
 30
0.0
 70
0
  0
VERTEX
  5
118
  8
CUT
 10
48.57785116509801
 20
0.8426519384872719
 30
0.0
 70
0
  0
VERTEX
  5
119
  8
CUT
 10
49.335533905932735
 20
1.4644660940672622
 30
0.0
 70
0
  0
VERTEX
  5
11A
  8
CUT
 10
49.957348061512725
 20
2.2221488349019864
 30
0.0
 70
0
  0
VERTEX
  5
11B
  8
CUT
 10
50.41939766255643
 20
3.08658283817455
 30
0.0
 70
0
  0
VERTEX
  5
11C
  8
CUT
 10
50.70392640201615
 20
4.024548389919353
 30
0.0
 70
0
  0
SEQEND
  5
FC
  8
CUT
  0
POLYLINE
  5
11D
  8
CUT
 66
1
 10
0.0
 20
0.0
 30
0.0
 70
1
  0
VERTEX
  5
11F
  8
CUT
 10
61.0
 20
5.0
 30
0.0
 70
0
  0
VERTEX
  5
120
  8
CUT
 10
60.903926402016154
 20
5.97545161008064
 30
0.0
 70
0
  0
VERTEX
  5
121
  8
CUT
 10
60.61939766255644
 20
6.91341716182545
 30
0.0
 70
0
  0
VERTEX
  5
122
  8
CUT
 10
60.15734806151273
 20
7.7778511650980136
 30
0.0
 70
0
  0
VERTEX
  5
123
  8
CUT
 10
59.53553390593274
 20
8.535533905932738
 30
0.0
 70
0
  0
VERTEX
  5
124
  8
CUT
 10
58.777851165098014
 20
9.157348061512728
 30
0.0
 70
0
  0
VERTEX
  5
125
  8
CUT
 10
57.91341716182545
 20
9.619397662556437
 30
0.0
 70
0
  0
VERTEX
  5
126
  8
CUT
 10
56.97545161008064
 20
9.903926402016154
 30
0.0
 70
0
  0
VERTEX
  5
127
  8
CUT
 10
56.0
 20
10.0
 30
0.0
 70
0
  0
VERTEX
  5
128
  8
CUT
 10
55.02454838991936
 20
9.903926402016154
 30
0.0
 70
0
  0
VERTEX
  5
129
  8
CUT
 10
54.08658283817455
 20
9.619397662556437
 30
0.0
 70
0
  0
VERTEX
  5
12A
  8
CUT
 10
53.222148834901986
 20
9.157348061512728
 30
0.0
 70
0
  0
VERTEX
  5
12B
  8
CUT
 10
52.46446609406726
 20
8.535533905932738
 30
0.0
 70
0
  0
VERTEX
  5
12C
  8
CUT
 10
51.84265193848727
 20
7.7778511650980136
 30
0.0
 70
0
  0
VERTEX
  5
12D
  8
CUT
 10
51.38060233744356
 20
6.91341716182545
 30
0.0
 70
0
  0
VERTEX
  5
12E
  8
CUT
 10
51.096073597983846
 20
5.97545161008064
 30
0.0
 70
0
  0
VERTEX
  5
12F
  8
CUT
 10
51.0
 20
5.0
 30
0.0
 70
0
  0
VERTEX
  5
130
  8
CUT
 10
51.096073597983846
 20
4.02454838991936
 30
0.0
 70
0
  0
VERTEX
  5
131
  8
CUT
 10
51.38060233744356
 20
3.08658283817455
 30
0.0
 70
0
  0
VERTEX
  5
132
  8
CUT
 10
51.84265193848727
 20
2.2221488349019864
 30
0.0
 70
0
  0
VERTEX
  5
133
  8
CUT
 10
52.46446609406726
 20
1.4644660940672622
 30
0.0
 70
0
  0
VERTEX
  5
134
  8
CUT
 10
53.222148834901986
 20
0.8426519384872719
 30
0.0
 70
0
  0
VERTEX
  5
135
  8
CUT
 10
54.08658283817455
 20
0.38060233744356964
 30
0.0
 70
0
  0
VERTEX
  5
136
  8
CUT
 10
55.02454838991936
 20
0.09607359798384962
 30
0.0
 70
0
  0
VERTEX
  5
137
  8
CUT
 10
56.0
 20
0.0
 30
0.0
 70
0
  0
VERTEX
  5
138
  8
CUT
 10
56.97545161008064
 20
0.09607359798384607
 30
0.0
 70
0
  0
VERTEX
  5
139
  8
CUT
 10
57.91341716182545
 20
0.3806023374435661
 30
0.0
 70
0
  0
VERTEX
  5
13A
  8
CUT
 10
58.77785116509801
 20
0.8426519384872719
 30
0.0
 70
0
  0
VERTEX
  5
13B
  8
CUT
 10
59.53553390593274
 20
1.4644660940672622
 30
0.0
 70
0
  0
VERTEX
  5
13C
  8
CUT
 10
60.15734806151273
 20
2.2221488349019864
 30
0.0
 70
0
  0
VERTEX
  5
13D
  8
CUT
 10
60.61939766255643
 20
3.08658283817455
 30
0.0
 70
0
  0
VERTEX
  5
13E
  8
CUT
 10
60.903926402016154
 20
4.024548389919353
 30
0.0
 70
0
  0
SEQEND
  5
11E
  8
CUT
  0
POLYLINE
  5
13F
  8
CUT
 66
1
 10
0.0
 20
0.0
 30
0.0
 70
1
  0
VERTEX
  5
141
  8
CUT
 10
71.2
 20
5.0
 30
0.0
 70
0
  0
VERTEX
  5
142
  8
CUT
 10
71.10392640201616
 20
5.97545161008064
 30
0.0
 70
0
  0
VERTEX
  5
143
  8
CUT
 10
70.81939766255644
 20
6.91341716182545
 30
0.0
 70
0
  0
VERTEX
  5
144
  8
CUT
 10
70.35734806151272
 20
7.7778511650980136
 30
0.0
 70
0
  0
VERTEX
  5
145
  8
CUT
 10
69.73553390593274
 20
8.535533905932738
 30
0.0
 70
0
  0
VERTEX
  5
146
  8
CUT
 10
68.97785116509802
 20
9.157348061512728
 30
0.0
 70
0
  0
VERTEX
  5
147
  8
CUT
 10
68.11341716182545
 20
9.619397662556437
 30
0.0
 70
0
  0
VERTEX
  5
148
  8
CUT
 10
67.17545161008064
 20
9.903926402016154
 30
0.0
 70
0
  0
VERTEX
  5
149
  8
CUT
 10
66.2
 20
10.0
 30
0.0
 70
0
  0
VERTEX
  5
14A
  8
CUT
 10
65.22454838991936
 20
9.903926402016154
 30
0.0
 70
0
  0
VERTEX
  5
14B
  8
CUT
 10
64.28658283817455
 20
9.619397662556437
 30
0.0
 70
0
  0
VERTEX
  5
14C
  8
CUT
 10
63.42214883490199
 20
9.157348061512728
 30
0.0
 70
0
  0
VERTEX
  5
14D
  8
CUT
 10
62.664466094067265
 20
8.535533905932738
 30
0.0
 70
0
  0
VERTEX
  5
14E
  8
CUT
 10
62.042651938487275
 20
7.7778511650980136
 30
0.0
 70
0
  0
VERTEX
  5
14F
  8
CUT
 10
61.580602337443565
 20
6.91341716182545
 30
0.0
 70
0
  0
VERTEX
  5
150
  8
CUT
 10
61.29607359798385
 20
5.97545161008064
 30
0.0
 70
0
  0
VERTEX
  5
151
  8
CUT
 10
61.2
 20
5.0
 30
0.0
 70
0
  0
VERTEX
  5
152
  8
CUT
 10
61.29607359798385
 20
4.02454838991936
 30
0.0
 70
0
  0
VERTEX
  5
153
  8
CUT
 10
61.580602337443565
 20
3.08658283817455
 30
0.0
 70
0
  0
VERTEX
  5
154
  8
CUT
 10
62.042651938487275
 20
2.2221488349019864
 30
0.0
 70
0
  0
VERTEX
  5
155
  8
CUT
 10
62.664466094067265
 20
1.4644660940672622
 30
0.0
 70
0
  0
VERTEX
  5
156
  8
CUT
 10
63.42214883490199
 20
0.8426519384872719
 30
0.0
 70
0
  0
VERTEX
  5
157
  8
CUT
 10
64.28658283817455
 20
0.38060233744356964
 30
0.0
 70
0
  0
VERTEX
  5
158
  8
CUT
 10
65.22454838991936
 20
0.09607359798384607
 30
0.0
 70
0
  0
VERTEX
  5
159
  8
CUT
 10
66.2
 20
0.0
 30
0.0
 70
0
  0
VERTEX
  5
15A
  8
CUT
 10
67.17545161008064
 20
0.09607359798384607
 30
0.0
 70
0
  0
VERTEX
  5
15B
  8
CUT
 10
68.11341716182545
 20
0.38060233744356964
 30
0.0
 70
0
  0
VERTEX
  5
15C
  8
CUT
 10
68.97785116509802
 20
0.8426519384872719
 30
0.0
 70
0
  0
VERTEX
  5
15D
  8
CUT
 10
69.73553390593274
 20
1.4644660940672622
 30
0.0
 70
0
  0
VERTEX
  5
15E
  8
CUT
 10
70.35734806151272
 20
2.2221488349019864
 30
0.0
 70
0
  0
VERTEX
  5
15F
  8
CUT
 10
70.81939766255644
 20
3.08658283817455
 30
0.0
 70
0
  0
VERTEX
  5
160
  8
CUT
 10
71.10392640201616
 20
4.024548389919353
 30
0.0
 70
0
  0
SEQEND
  5
140
  8
CUT
  0
POLYLINE
  5
161
  8
CUT
 66
1
 10
0.0
 20
0.0
 30
0.0
 70
1
  0
VERTEX
  5
163
  8
CUT
 10
69.2
 20
5.0
 30
0.0
 70
0
  0
VERTEX
  5
164
  8
CUT
 10
69.14235584120969
 20
4.414729033951616
 30
0.0
 70
0
  0
VERTEX
  5
165
  8
CUT
 10
68.97163859753387
 20
3.851949702904733
 30
0.0
 70
0
  0
VERTEX
  5
166
  8
CUT
 10
68.69440883690764
 20
3.333289300941196
 30
0.0
 70
0
  0
VERTEX
  5
167
  8
CUT
 10
68.32132034355965
 20
2.8786796564403545
 30
0.0
 70
0
  0
VERTEX
  5
168
  8
CUT
 10
67.86671069905881
 20
2.5055911630923617
 30
0.0
 70
0
  0
VERTEX
  5
169
  8
CUT
 10
67.34805029709527
 20
2.228361402466142
 30
0.0
 70
0
  0
VERTEX
  5
16A
  8
CUT
 10
66.78527096604839
 20
2.0576441587903105
 30
0.0
 70
0
  0
VERTEX
  5
16B
  8
CUT
 10
66.2
 20
2.0
 30
0.0
 70
0
  0
VERTEX
  5
16C
  8
CUT
 10
65.61472903395162
 20
2.0576441587903105
 30
0.0
 70
0
  0
VERTEX
  5
16D
  8
CUT
 10
65.05194970290474
 20
2.228361402466142
 30
0.0
 70
0
  0
VERTEX
  5
16E
  8
CUT
 10
64.53328930094119
 20
2.5055911630923617
 30
0.0
 70
0
  0
VERTEX
  5
16F
  8
CUT
 10
64.07867965644036
 20
2.8786796564403545
 30
0.0
 70
0
  0
VERTEX
  5
170
  8
CUT
 10
63.705591163092365
 20
3.333289300941196
 30
0.0
 70
0
  0
VERTEX
  5
171
  8
CUT
 10
63.428361402466145
 20
3.851949702904733
 30
0.0
 70
0
  0
VERTEX
  5
172
  8
CUT
 10
63.25764415879031
 20
4.414729033951616
 30
0.0
 70
0
  0
VERTEX
  5
173
  8
CUT
 10
63.2
 20
5.0
 30
0.0
 70
0
  0
VERTEX
  5
174
  8
CUT
 10
63.25764415879031
 20
5.585270966048384
 30
0.0
 70
0
  0
VERTEX
  5
175
  8
CUT
 10
63.428361402466145
 20
6.148050297095267
 30
0.0
 70
0
  0
VERTEX
  5
176
  8
CUT
 10
63.705591163092365
 20
6.666710699058804
 30
0.0
 70
0
  0
VERTEX
  5
177
  8
CUT
 10
64.07867965644036
 20
7.1213203435596455
 30
0.0
 70
0
  0
VERTEX
  5
178
  8
CUT
 10
64.53328930094119
 20
7.494408836907638
 30
0.0
 70
0
  0
VERTEX
  5
179
  8
CUT
 10
65.05194970290474
 20
7.771638597533858
 30
0.0
 70
0
  0
VERTEX
  5
17A
  8
CUT
 10
65.61472903395162
 20
7.9423558412096895
 30
0.0
 70
0
  0
VERTEX
  5
17B
  8
CUT
 10
66.2
 20
8.0
 30
0.0
 70
0
  0
VERTEX
  5
17C
  8
CUT
 10
66.78527096604839
 20
7.9423558412096895
 30
0.0
 70
0
  0
VERTEX
  5
17D
  8
CUT
 10
67.34805029709527
 20
7.771638597533858
 30
0.0
 70
0
  0
VERTEX
  5
17E
  8
CUT
 10
67.86671069905881
 20
7.494408836907638
 30
0.0
 70
0
  0
VERTEX
  5
17F
  8
CUT
 10
68.32132034355965
 20
7.1213203435596455
 30
0.0
 70
0
  0
VERTEX
  5
180
  8
CUT
 10
68.69440883690764
 20
6.666710699058804
 30
0.0
 70
0
  0
VERTEX
  5
181
  8
CUT
 10
68.97163859753387
 20
6.148050297095274
 30
0.0
 70
0
  0
VERTEX
  5
182
  8
CUT
 10
69.14235584120969
 20
5.585270966048384
 30
0.0
 70
0
  0
SEQEND
  5
162
  8
CUT
  0
POLYLINE
  5
183
  8
CUT
 66
1
 10
0.0
 20
0.0
 30
0.0
 70
1
  0
VERTEX
  5
185
  8
CUT
 10
81.4
 20
5.0
 30
0.0
 70
0
  0
VERTEX
  5
186
  8
CUT
 10
81.30392640201616
 20
5.97545161008064
 30
0.0
 70
0
  0
VERTEX
  5
187
  8
CUT
 10
81.01939766255644
 20
6.91341716182545
 30
0.0
 70
0
  0
VERTEX
  5
188
  8
CUT
 10
80.55734806151273
 20
7.7778511650980136
 30
0.0
 70
0
  0
VERTEX
  5
189
  8
CUT
 10
79.93553390593274
 20
8.535533905932738
 30
0.0
 70
0
  0
VERTEX
  5
18A
  8
CUT
 10
79.17785116509802
 20
9.157348061512728
 30
0.0
 70
0
  0
VERTEX
  5
18B
  8
CUT
 10
78.31341716182546
 20
9.619397662556437
 30
0.0
 70
0
  0
VERTEX
  5
18C
  8
CUT
 10
77.37545161008065
 20
9.903926402016154
 30
0.0
 70
0
  0
VERTEX
  5
18D
  8
CUT
 10
76.4
 20
10.0
 30
0.0
 70
0
  0
VERTEX
  5
18E
  8
CUT
 10
75.42454838991937
 20
9.903926402016154
 30
0.0
 70
0
  0
VERTEX
  5
18F
  8
CUT
 10
74.48658283817456
 20
9.619397662556437
 30
0.0
 70
0
  0
VERTEX
  5
190
  8
CUT
 10
73.62214883490199
 20
9.157348061512728
 30
0.0
 70
0
  0
VERTEX
  5
191
  8
CUT
 10
72.86446609406727
 20
8.535533905932738
 30
0.0
 70
0
  0
VERTEX
  5
192
  8
CUT
 10
72.24265193848728
 20
7.7778511650980136
 30
0.0
 70
0
  0
VERTEX
  5
193
  8
CUT
 10
71.78060233744357
 20
6.91341716182545
 30
0.0
 70
0
  0
VERTEX
  5
194
  8
CUT
 10
71.49607359798385
 20
5.97545161008064
 30
0.0
 70
0
  0
VERTEX
  5
195
  8
CUT
 10
71.4
 20
5.0
 30
0.0
 70
0
  0
VERTEX
  5
196
  8
CUT
 10
71.49607359798385
 20
4.02454838991936
 30
0.0
 70
0
  0
VERTEX
  5
197
  8
CUT
 10
71.78060233744357
 20
3.08658283817455
 30
0.0
 70
0
  0
VERTEX
  5
198
  8
CUT
 10
72.24265193848728
 20
2.2221488349019864
 30
0.0
 70
0
  0
VERTEX
  5
199
  8
CUT
 10
72.86446609406727
 20
1.4644660940672622
 30
0.0
 70
0
  0
VERTEX
  5
19A
  8
CUT
 10
73.62214883490199
 20
0.8426519384872719
 30
0.0
 70
0
  0
VERTEX
  5
19B
  8
CUT
 10
74.48658283817456
 20
0.38060233744356964
 30
0.0
 70
0
  0
VERTEX
  5
19C
  8
CUT
 10
75.42454838991937
 20
0.09607359798384607
 30
0.0
 70
0
  0
VERTEX
  5
19D
  8
CUT
 10
76.4
 20
0.0
 30
0.0
 70
0
  0
VERTEX
  5
19E
  8
CUT
 10
77.37545161008065
 20
0.09607359798384607
 30
0.0
 70
0
  0
VERTEX
  5
19F
  8
CUT
 10
78.31341716182546
 20
0.38060233744356964
 30
0.0
 70
0
  0
VERTEX
  5
1A0
  8
CUT
 10
79.17785116509802
 20
0.8426519384872719
 30
0.0
 70
0
  0
VERTEX
  5
1A1
  8
CUT
 10
79.93553390593274
 20
1.4644660940672622
 30
0.0
 70
0
  0
VERTEX
  5
1A2
  8
CUT
 10
80.55734806151273
 20
2.2221488349019864
 30
0.0
 70
0
  0
VERTEX
  5
1A3
  8
CUT
 10
81.01939766255644
 20
3.08658283817455
 30
0.0
 70
0
  0
VERTEX
  5
1A4
  8
CUT
 10
81.30392640201616
 20
4.024548389919353
 30
0.0
 70
0
  0
SEQEND
  5
184
  8
CUT
  0
POLYLINE
  5
1A5
  8
CUT
 66
1
 10
0.0
 20
0.0
 30
0.0
 70
1
  0
VERTEX
  5
1A7
  8
CUT
 10
91.60000000000001
 20
5.0
 30
0.0
 70
0
  0
VERTEX
  5
1A8
  8
CUT
 10
91.50392640201616
 20
5.97545161008064
 30
0.0
 70
0
  0
VERTEX
  5
1A9
  8
CUT
 10
91.21939766255645
 20
6.91341716182545
 30
0.0
 70
0
  0
VERTEX
  5
1AA
  8
CUT
 10
90.75734806151273
 20
7.7778511650980136
 30
0.0
 70
0
  0
VERTEX
  5
1AB
  8
CUT
 10
90.13553390593275
 20
8.535533905932738
 30
0.0
 70
0
  0
VERTEX
  5
1AC
  8
CUT
 10
89.37785116509802
 20
9.157348061512728
 30
0.0
 70
0
  0
VERTEX
  5
1AD
  8
CUT
 10
88.51341716182546
 20
9.619397662556437
 30
0.0
 70
0
  0
VERTEX
  5
1AE
  8
CUT
 10
87.57545161008065
 20
9.903926402016154
 30
0.0
 70
0
  0
VERTEX
  5
1AF
  8
CUT
 10
86.60000000000001
 20
10.0
 30
0.0
 70
0
  0
VERTEX
  5
1B0
  8
CUT
 10
85.62454838991937
 20
9.903926402016154
 30
0.0
 70
0
  0
VERTEX
  5
1B1
  8
CUT
 10
84.68658283817456
 20
9.619397662556437
 30
0.0
 70
0
  0
VERTEX
  5
1B2
  8
CUT
 10
83.822148834902
 20
9.157348061512728
 30
0.0
 70
0
  0
VERTEX
  5
1B3
  8
CUT
 10
83.06446609406727
 20
8.535533905932738
 30
0.0
 70
0
  0
VERTEX
  5
1B4
  8
CUT
 10
82.44265193848729
 20
7.7778511650980136
 30
0.0
 70
0
  0
VERTEX
  5
1B5
  8
CUT
 10
81.98060233744357
 20
6.91341716182545
 30
0.0
 70
0
  0
VERTEX
  5
1B6
  8
CUT
 10
81.69607359798385
 20
5.97545161008064
 30
0.0
 70
0
  0
VERTEX
  5
1B7
  8
CUT
 10
81.60000000000001
 20
5.0
 30
0.0
 70
0
  0
VERTEX
  5
1B8
  8
CUT
 10
81.69607359798385
 20
4.02454838991936
 30
0.0
 70
0
  0
VERTEX
  5
1B9
  8
CUT
 10
81.98060233744357
 20
3.08658283817455
 30
0.0
 70
0
  0
VERTEX
  5
1BA
  8
CUT
 10
82.44265193848729
 20
2.2221488349019864
 30
0.0
 70
0
  0
VERTEX
  5
1BB
  8
CUT
 10
83.06446609406727
 20
1.4644660940672622
 30
0.0
 70
0
  0
VERTEX
  5
1BC
  8
CUT
 10
83.822148834902
 20
0.8426519384872719
 30
0.0
 70
0
  0
VERTEX
  5
1BD
  8
CUT
 10
84.68658283817456
 20
0.38060233744356964
 30
0.0
 70
0
  0
VERTEX
  5
1BE
  8
CUT
 10
85.62454838991937
 20
0.09607359798384607
 30
0.0
 70
0
  0
VERTEX
  5
1BF
  8
CUT
 10
86.60000000000001
 20
0.0
 30
0.0
 70
0
  0
VERTEX
  5
1C0
  8
CUT
 10
87.57545161008065
 20
0.09607359798384607
 30
0.0
 70
0
  0
VERTEX
  5
1C1
  8
CUT
 10
88.51341716182546
 20
0.38060233744356964
 30
0.0
 70
0
  0
VERTEX
  5
1C2
  8
CUT
 10
89.37785116509802
 20
0.8426519384872719
 30
0.0
 70
0
  0
VERTEX
  5
1C3
  8
CUT
 10
90.13553390593275
 20
1.4644660940672622
 30
0.0
 70
0
  0
VERTEX
  5
1C4
  8
CUT
 10
90.75734806151273
 20
2.2221488349019864
 30
0.0
 70
0
  0
VERTEX
  5
1C5
  8
CUT
 10
91.21939766255645
 20
3.08658283817455
 30
0.0
 70
0
  0
VERTEX
  5
1C6
  8
CUT
 10
91.50392640201616
 20
4.024548389919353
 30
0.0
 70
0
  0
SEQEND
  5
1A6
  8
CUT
  0
POLYLINE
  5
1C7
  8
CUT
 66
1
 10
0.0
 20
0.0
 30
0.0
 70
1
  0
VERTEX
  5
1C9
  8
CUT
 10
101.80000000000001
 20
5.0
 30
0.0
 70
0
  0
VERTEX
  5
1CA
  8
CUT
 10
101.70392640201617
 20
5.97545161008064
 30
0.0
 70
0
  0
VERTEX
  5
1CB
  8
CUT
 10
101.41939766255645
 20
6.91341716182545
 30
0.0
 70
0
  0
VERTEX
  5
1CC
  8
CUT
 10
100.95734806151273
 20
7.7778511650980136
 30
0.0
 70
0
  0
VERTEX
  5
1CD
  8
CUT
 10
100.33553390593275
 20
8.535533905932738
 30
0.0
 70
0
  0
VERTEX
  5
1CE
  8
CUT
 10
99.57785116509802
 20
9.157348061512728
 30
0.0
 70
0
  0
VERTEX
  5
1CF
  8
CUT
 10
98.71341716182546
 20
9.619397662556437
 30
0.0
 70
0
  0
VERTEX
  5
1D0
  8
CUT
 10
97.77545161008065
 20
9.903926402016154
 30
0.0
 70
0
  0
VERTEX
  5
1D1
  8
CUT
 10
96.80000000000001
 20
10.0
 30
0.0
 70
0
  0
VERTEX
  5
1D2
  8
CUT
 10
95.82454838991937
 20
9.903926402016154
 30
0.0
 70
0
  0
VERTEX
  5
1D3
  8
CUT
 10
94.88658283817456
 20
9.619397662556437
 30
0.0
 70
0
  0
VERTEX
  5
1D4
  8
CUT
 10
94.022148834902
 20
9.157348061512728
 30
0.0
 70
0
  0
VERTEX
  5
1D5
  8
CUT
 10
93.26446609406727
 20
8.535533905932738
 30
0.0
 70
0
  0
VERTEX
  5
1D6
  8
CUT
 10
92.64265193848729
 20
7.7778511650980136
 30
0.0
 70
0
  0
VERTEX
  5
1D7
  8
CUT
 10
92.18060233744357
 20
6.91341716182545
 30
0.0
 70
0
  0
VERTEX
  5
1D8
  8
CUT
 10
91.89607359798386
 20
5.97545161008064
 30
0.0
 70
0
  0
VERTEX
  5
1D9
  8
CUT
 10
91.80000000000001
 20
5.0
 30
0.0
 70
0
  0
VERTEX
  5
1DA
  8
CUT
 10
91.89607359798386
 20
4.02454838991936
 30
0.0
 70
0
  0
VERTEX
  5
1DB
  8
CUT
 10
92.18060233744357
 20
3.08658283817455
 30
0.0
 70
0
  0
VERTEX
  5
1DC
  8
CUT
 10
92.64265193848729
 20
2.2221488349019864
 30
0.0
 70
0
  0
VERTEX
  5
1DD
  8
CUT
 10
93.26446609406727
 20
1.4644660940672622
 30
0.0
 70
0
  0
VERTEX
  5
1DE
  8
CUT
 10
94.022148834902
 20
0.8426519384872719
 30
0.0
 70
0
  0
VERTEX
  5
1DF
  8
CUT
 10
94.88658283817456
 20
0.38060233744356964
 30
0.0
 70
0
  0
VERTEX
  5
1E0
  8
CUT
 10
95.82454838991937
 20
0.09607359798384607
 30
0.0
 70
0
  0
VERTEX
  5
1E1
  8
CUT
 10
96.80000000000001
 20
0.0
 30
0.0
 70
0
  0
VERTEX
  5
1E2
  8
CUT
 10
97.77545161008065
 20
0.09607359798384607
 30
0.0
 70
0
  0
VERTEX
  5
1E3
  8
CUT
 10
98.71341716182546
 20
0.38060233744356964
 30
0.0
 70
0
  0
VERTEX
  5
1E4
  8
CUT
 10
99.57785116509802
 20
0.8426519384872719
 30
0.0
 70
0
  0
VERTEX
  5
1E5
  8
CUT
 10
100.33553390593275
 20
1.4644660940672622
 30
0.0
 70
0
  0
VERTEX
  5
1E6
  8
CUT
 10
100.95734806151273
 20
2.2221488349019864
 30
0.0
 70
0
  0
VERTEX
  5
1E7
  8
CUT
 10
101.41939766255643
 20
3.08658283817455
 30
0.0
 70
0
  0
VERTEX
  5
1E8
  8
CUT
 10
101.70392640201617
 20
4.024548389919353
 30
0.0
 70
0
  0
SEQEND
  5
1C8
  8
CUT
  0
POLYLINE
  5
1E9
  8
CUT
 66
1
 10
0.0
 20
0.0
 30
0.0
 70
1
  0
VERTEX
  5
1EB
  8
CUT
 10
99.80000000000001
 20
5.0
 30
0.0
 70
0
  0
VERTEX
  5
1EC
  8
CUT
 10
99.7423558412097
 20
4.414729033951616
 30
0.0
 70
0
  0
VERTEX
  5
1ED
  8
CUT
 10
99.57163859753388
 20
3.851949702904733
 30
0.0
 70
0
  0
VERTEX
  5
1EE
  8
CUT
 10
99.29440883690765
 20
3.333289300941196
 30
0.0
 70
0
  0
VERTEX
  5
1EF
  8
CUT
 10
98.92132034355966
 20
2.8786796564403545
 30
0.0
 70
0
  0
VERTEX
  5
1F0
  8
CUT
 10
98.46671069905882
 20
2.5055911630923617
 30
0.0
 70
0
  0
VERTEX
  5
1F1
  8
CUT
 10
97.94805029709528
 20
2.228361402466142
 30
0.0
 70
0
  0
VERTEX
  5
1F2
  8
CUT
 10
97.3852709660484
 20
2.0576441587903105
 30
0.0
 70
0
  0
VERTEX
  5
1F3
  8
CUT
 10
96.80000000000001
 20
2.0
 30
0.0
 70
0
  0
VERTEX
  5
1F4
  8
CUT
 10
96.21472903395163
 20
2.0576441587903105
 30
0.0
 70
0
  0
VERTEX
  5
1F5
  8
CUT
 10
95.65194970290474
 20
2.228361402466142
 30
0.0
 70
0
  0
VERTEX
  5
1F6
  8
CUT
 10
95.1332893009412
 20
2.5055911630923617
 30
0.0
 70
0
  0
VERTEX
  5
1F7
  8
CUT
 10
94.67867965644037
 20
2.8786796564403545
 30
0.0
 70
0
  0
VERTEX
  5
1F8
  8
CUT
 10
94.30559116309237
 20
3.333289300941196
 30
0.0
 70
0
  0
VERTEX
  5
1F9
  8
CUT
 10
94.02836140246615
 20
3.851949702904733
 30
0.0
 70
0
  0
VERTEX
  5
1FA
  8
CUT
 10
93.85764415879032
 20
4.414729033951616
 30
0.0
 70
0
  0
VERTEX
  5
1FB
  8
CUT
 10
93.80000000000001
 20
5.0
 30
0.0
 70
0
  0
VERTEX
  5
1FC
  8
CUT
 10
93.85764415879032
 20
5.585270966048384
 30
0.0
 70
0
  0
VERTEX
  5
1FD
  8
CUT
 10
94.02836140246615
 20
6.148050297095267
 30
0.0
 70
0
  0
VERTEX
  5
1FE
  8
CUT
 10
94.30559116309237
 20
6.666710699058804
 30
0.0
 70
0
  0
VERTEX
  5
1FF
  8
CUT
 10
94.67867965644037
 20
7.1213203435596455
 30
0.0
 70
0
  0
VERTEX
  5
200
  8
CUT
 10
95.1332893009412
 20
7.494408836907638
 30
0.0
 70
0
  0
VERTEX
  5
201
  8
CUT
 10
95.65194970290474
 20
7.771638597533858
 30
0.0
 70
0
  0
VERTEX
  5
202
  8
CUT
 10
96.21472903395163
 20
7.9423558412096895
 30
0.0
 70
0
  0
VERTEX
  5
203
  8
CUT
 10
96.80000000000001
 20
8.0
 30
0.0
 70
0
  0
VERTEX
  5
204
  8
CUT
 10
97.3852709660484
 20
7.9423558412096895
 30
0.0
 70
0
  0
VERTEX
  5
205
  8
CUT
 10
97.94805029709528
 20
7.771638597533858
 30
0.0
 70
0
  0
VERTEX
  5
206
  8
CUT
 10
98.46671069905882
 20
7.494408836907638
 30
0.0
 70
0
  0
VERTEX
  5
207
  8
CUT
 10
98.92132034355966
 20
7.1213203435596455
 30
0.0
 70
0
  0
VERTEX
  5
208
  8
CUT
 10
99.29440883690765
 20
6.666710699058804
 30
0.0
 70
0
  0
VERTEX
  5
209
  8
CUT
 10
99.57163859753388
 20
6.148050297095274
 30
0.0
 70
0
  0
VERTEX
  5
20A
  8
CUT
 10
99.7423558412097
 20
5.585270966048384
 30
0.0
 70
0
  0
SEQEND
  5
1EA
  8
CUT
  0
POLYLINE
  5
20B
  8
CUT
 66
1
 10
0.0
 20
0.0
 30
0.0
 70
1
  0
VERTEX
  5
20D
  8
CUT
 10
112.00000000000001
 20
5.0
 30
0.0
 70
0
  0
VERTEX
  5
20E
  8
CUT
 10
111.90392640201617
 20
5.97545161008064
 30
0.0
 70
0
  0
VERTEX
  5
20F
  8
CUT
 10
111.61939766255645
 20
6.91341716182545
 30
0.0
 70
0
  0
VERTEX
  5
210
  8
CUT
 10
111.15734806151274
 20
7.7778511650980136
 30
0.0
 70
0
  0
VERTEX
  5
211
  8
CUT
 10
110.53553390593275
 20
8.535533905932738
 30
0.0
 70
0
  0
VERTEX
  5
212
  8
CUT
 10
109.77785116509803
 20
9.157348061512728
 30
0.0
 70
0
  0
VERTEX
  5
213
  8
CUT
 10
108.91341716182546
 20
9.619397662556437
 30
0.0
 70
0
  0
VERTEX
  5
214
  8
CUT
 10
107.97545161008065
 20
9.903926402016154
 30
0.0
 70
0
  0
VERTEX
  5
215
  8
CUT
 10
107.00000000000001
 20
10.0
 30
0.0
 70
0
  0
VERTEX
  5
216
  8
CUT
 10
106.02454838991937
 20
9.903926402016154
 30
0.0
 70
0
  0
VERTEX
  5
217
  8
CUT
 10
105.08658283817456
 20
9.619397662556437
 30
0.0
 70
0
  0
VERTEX
  5
218
  8
CUT
 10
104.222148834902
 20
9.157348061512728
 30
0.0
 70
0
  0
VERTEX
  5
219
  8
CUT
 10
103.46446609406728
 20
8.535533905932738
 30
0.0
 70
0
  0
VERTEX
  5
21A
  8
CUT
 10
102.84265193848728
 20
7.7778511650980136
 30
0.0
 70
0
  0
VERTEX
  5
21B
  8
CUT
 10
102.38060233744358
 20
6.91341716182545
 30
0.0
 70
0
  0
VERTEX
  5
21C
  8
CUT
 10
102.09607359798386
 20
5.97545161008064
 30
0.0
 70
0
  0
VERTEX
  5
21D
  8
CUT
 10
102.00000000000001
 20
5.0
 30
0.0
 70
0
  0
VERTEX
  5
21E
  8
CUT
 10
102.09607359798386
 20
4.02454838991936
 30
0.0
 70
0
  0
VERTEX
  5
21F
  8
CUT
 10
102.38060233744358
 20
3.08658283817455
 30
0.0
 70
0
  0
VERTEX
  5
220
  8
CUT
 10
102.84265193848728
 20
2.2221488349019864
 30
0.0
 70
0
  0
VERTEX
  5
221
  8
CUT
 10
103.46446609406728
 20
1.4644660940672622
 30
0.0
 70
0
  0
VERTEX
  5
222
  8
CUT
 10
104.222148834902
 20
0.8426519384872719
 30
0.0
 70
0
  0
VERTEX
  5
223
  8
CUT
 10
105.08658283817456
 20
0.38060233744356964
 30
0.0
 70
0
  0
VERTEX
  5
224
  8
CUT
 10
106.02454838991937
 20
0.09607359798384962
 30
0.0
 70
0
  0
VERTEX
  5
225
  8
CUT
 10
107.00000000000001
 20
0.0
 30
0.0
 70
0
  0
VERTEX
  5
226
  8
CUT
 10
107.97545161008065
 20
0.09607359798384607
 30
0.0
 70
0
  0
VERTEX
  5
227
  8
CUT
 10
108.91341716182546
 20
0.3806023374435661
 30
0.0
 70
0
  0
VERTEX
  5
228
  8
CUT
 10
109.77785116509803
 20
0.8426519384872719
 30
0.0
 70
0
  0
VERTEX
  5
229
  8
CUT
 10
110.53553390593275
 20
1.4644660940672622
 30
0.0
 70
0
  0
VERTEX
  5
22A
  8
CUT
 10
111.15734806151274
 20
2.2221488349019864
 30
0.0
 70
0
  0
VERTEX
  5
22B
  8
CUT
 10
111.61939766255645
 20
3.08658283817455
 30
0.0
 70
0
  0
VERTEX
  5
22C
  8
CUT
 10
111.90392640201617
 20
4.024548389919353
 30
0.0
 70
0
  0
SEQEND
  5
20C
  8
CUT
  0
POLYLINE
  5
22D
  8
CUT
 66
1
 10
0.0
 20
0.0
 30
0.0
 70
1
  0
VERTEX
  5
22F
  8
CUT
 10
122.20000000000002
 20
5.0
 30
0.0
 70
0
  0
VERTEX
  5
230
  8
CUT
 10
122.10392640201617
 20
5.97545161008064
 30
0.0
 70
0
  0
VERTEX
  5
231
  8
CUT
 10
121.81939766255645
 20
6.91341716182545
 30
0.0
 70
0
  0
VERTEX
  5
232
  8
CUT
 10
121.35734806151274
 20
7.7778511650980136
 30
0.0
 70
0
  0
VERTEX
  5
233
  8
CUT
 10
120.73553390593275
 20
8.535533905932738
 30
0.0
 70
0
  0
VERTEX
  5
234
  8
CUT
 10
119.97785116509803
 20
9.157348061512728
 30
0.0
 70
0
  0
VERTEX
  5
235
  8
CUT
 10
119.11341716182547
 20
9.619397662556437
 30
0.0
 70
0
  0
VERTEX
  5
236
  8
CUT
 10
118.17545161008066
 20
9.903926402016154
 30
0.0
 70
0
  0
VERTEX
  5
237
  8
CUT
 10
117.20000000000002
 20
10.0
 30
0.0
 70
0
  0
VERTEX
  5
238
  8
CUT
 10
116.22454838991938
 20
9.903926402016154
 30
0.0
 70
0
  0
VERTEX
  5
239
  8
CUT
 10
115.28658283817457
 20
9.619397662556437
 30
0.0
 70
0
  0
VERTEX
  5
23A
  8
CUT
 10
114.422148834902
 20
9.157348061512728
 30
0.0
 70
0
  0
VERTEX
  5
23B
  8
CUT
 10
113.66446609406728
 20
8.535533905932738
 30
0.0
 70
0
  0
VERTEX
  5
23C
  8
CUT
 10
113.0426519384873
 20
7.7778511650980136
 30
0.0
 70
0
  0
VERTEX
  5
23D
  8
CUT
 10
112.58060233744358
 20
6.91341716182545
 30
0.0
 70
0
  0
VERTEX
  5
23E
  8
CUT
 10
112.29607359798386
 20
5.97545161008064
 30
0.0
 70
0
  0
VERTEX
  5
23F
  8
CUT
 10
112.20000000000002
 20
5.0
 30
0.0
 70
0
  0
VERTEX
  5
240
  8
CUT
 10
112.29607359798386
 20
4.02454838991936
 30
0.0
 70
0
  0
VERTEX
  5
241
  8
CUT
 10
112.58060233744358
 20
3.08658283817455
 30
0.0
 70
0
  0
VERTEX
  5
242
  8
CUT
 10
113.0426519384873
 20
2.2221488349019864
 30
0.0
 70
0
  0
VERTEX
  5
243
  8
CUT
 10
113.66446609406728
 20
1.4644660940672622
 30
0.0
 70
0
  0
VERTEX
  5
244
  8
CUT
 10
114.422148834902
 20
0.8426519384872719
 30
0.0
 70
0
  0
VERTEX
  5
245
  8
CUT
 10
115.28658283817457
 20
0.38060233744356964
 30
0.0
 70
0
  0
VERTEX
  5
246
  8
CUT
 10
116.22454838991938
 20
0.09607359798384962
 30
0.0
 70
0
  0
VERTEX
  5
247
  8
CUT
 10
117.20000000000002
 20
0.0
 30
0.0
 70
0
  0
VERTEX
  5
248
  8
CUT
 10
118.17545161008066
 20
0.09607359798384607
 30
0.0
 70
0
  0
VERTEX
  5
249
  8
CUT
 10
119.11341716182547
 20
0.3806023374435661
 30
0.0
 70
0
  0
VERTEX
  5
24A
  8
CUT
 10
119.97785116509803
 20
0.8426519384872719
 30
0.0
 70
0
  0
VERTEX
  5
24B
  8
CUT
 10
120.73553390593275
 20
1.4644660940672622
 30
0.0
 70
0
  0
VERTEX
  5
24C
  8
CUT
 10
121.35734806151274
 20
2.2221488349019864
 30
0.0
 70
0
  0
VERTEX
  5
24D
  8
CUT
 10
121.81939766255645
 20
3.08658283817455
 30
0.0
 70
0
  0
VERTEX
  5
24E
  8
CUT
 10
122.10392640201617
 20
4.024548389919353
 30
0.0
 70
0
  0
SEQEND
  5
22E
  8
CUT
  0
POLYLINE
  5
24F
  8
CUT
 66
1
 10
0.0
 20
0.0
 30
0.0
 70
1
  0
VERTEX
  5
251
  8
CUT
 10
132.40000000000003
 20
5.0
 30
0.0
 70
0
  0
VERTEX
  5
252
  8
CUT
 10
132.30392640201617
 20
5.97545161008064
 30
0.0
 70
0
  0
VERTEX
  5
253
  8
CUT
 10
132.01939766255646
 20
6.91341716182545
 30
0.0
 70
0
  0
VERTEX
  5
254
  8
CUT
 10
131.55734806151276
 20
7.7778511650980136
 30
0.0
 70
0
  0
VERTEX
  5
255
  8
CUT
 10
130.93553390593277
 20
8.535533905932738
 30
0.0
 70
0
  0
VERTEX
  5
256
  8
CUT
 10
130.17785116509805
 20
9.157348061512728
 30
0.0
 70
0
  0
VERTEX
  5
257
  8
CUT
 10
129.3134171618255
 20
9.619397662556437
 30
0.0
 70
0
  0
VERTEX
  5
258
  8
CUT
 10
128.3754516100807
 20
9.903926402016154
 30
0.0
 70
0
  0
VERTEX
  5
259
  8
CUT
 10
127.40000000000003
 20
10.0
 30
0.0
 70
0
  0
VERTEX
  5
25A
  8
CUT
 10
126.4245483899194
 20
9.903926402016154
 30
0.0
 70
0
  0
VERTEX
  5
25B
  8
CUT
 10
125.48658283817458
 20
9.619397662556437
 30
0.0
 70
0
  0
VERTEX
  5
25C
  8
CUT
 10
124.62214883490202
 20
9.157348061512728
 30
0.0
 70
0
  0
VERTEX
  5
25D
  8
CUT
 10
123.8644660940673
 20
8.535533905932738
 30
0.0
 70
0
  0
VERTEX
  5
25E
  8
CUT
 10
123.24265193848731
 20
7.7778511650980136
 30
0.0
 70
0
  0
VERTEX
  5
25F
  8
CUT
 10
122.7806023374436
 20
6.91341716182545
 30
0.0
 70
0
  0
VERTEX
  5
260
  8
CUT
 10
122.49607359798388
 20
5.97545161008064
 30
0.0
 70
0
  0
VERTEX
  5
261
  8
CUT
 10
122.40000000000003
 20
5.0
 30
0.0
 70
0
  0
VERTEX
  5
262
  8
CUT
 10
122.49607359798388
 20
4.02454838991936
 30
0.0
 70
0
  0
VERTEX
  5
263
  8
CUT
 10
122.7806023374436
 20
3.08658283817455
 30
0.0
 70
0
  0
VERTEX
  5
264
  8
CUT
 10
123.24265193848731
 20
2.2221488349019864
 30
0.0
 70
0
  0
VERTEX
  5
265
  8
CUT
 10
123.8644660940673
 20
1.4644660940672622
 30
0.0
 70
0
  0
VERTEX
  5
266
  8
CUT
 10
124.62214883490202
 20
0.8426519384872719
 30
0.0
 70
0
  0
VERTEX
  5
267
  8
CUT
 10
125.48658283817458
 20
0.38060233744356964
 30
0.0
 70
0
  0
VERTEX
  5
268
  8
CUT
 10
126.4245483899194
 20
0.09607359798384607
 30
0.0
 70
0
  0
VERTEX
  5
269
  8
CUT
 10
127.40000000000003
 20
0.0
 30
0.0
 70
0
  0
VERTEX
  5
26A
  8
CUT
 10
128.3754516100807
 20
0.09607359798384607
 30
0.0
 70
0
  0
VERTEX
  5
26B
  8
CUT
 10
129.3134171618255
 20
0.38060233744356964
 30
0.0
 70
0
  0
VERTEX
  5
26C
  8
CUT
 10
130.17785116509805
 20
0.8426519384872719
 30
0.0
 70
0
  0
VERTEX
  5
26D
  8
CUT
 10
130.93553390593277
 20
1.4644660940672622
 30
0.0
 70
0
  0
VERTEX
  5
26E
  8
CUT
 10
131.55734806151276
 20
2.2221488349019864
 30
0.0
 70
0
  0
VERTEX
  5
26F
  8
CUT
 10
132.01939766255646
 20
3.08658283817455
 30
0.0
 70
0
  0
VERTEX
  5
270
  8
CUT
 10
132.30392640201617
 20
4.024548389919353
 30
0.0
 70
0
  0
SEQEND
  5
250
  8
CUT
  0
POLYLINE
  5
271
  8
CUT
 66
1
 10
0.0
 20
0.0
 30
0.0
 70
1
  0
VERTEX
  5
273
  8
CUT
 10
130.40000000000003
 20
5.0
 30
0.0
 70
0
  0
VERTEX
  5
274
  8
CUT
 10
130.34235584120972
 20
4.414729033951616
 30
0.0
 70
0
  0
VERTEX
  5
275
  8
CUT
 10
130.1716385975339
 20
3.851949702904733
 30
0.0
 70
0
  0
VERTEX
  5
276
  8
CUT
 10
129.89440883690767
 20
3.333289300941196
 30
0.0
 70
0
  0
VERTEX
  5
277
  8
CUT
 10
129.52132034355967
 20
2.8786796564403545
 30
0.0
 70
0
  0
VERTEX
  5
278
  8
CUT
 10
129.06671069905883
 20
2.5055911630923617
 30
0.0
 70
0
  0
VERTEX
  5
279
  8
CUT
 10
128.5480502970953
 20
2.228361402466142
 30
0.0
 70
0
  0
VERTEX
  5
27A
  8
CUT
 10
127.98527096604842
 20
2.0576441587903105
 30
0.0
 70
0
  0
VERTEX
  5
27B
  8
CUT
 10
127.40000000000003
 20
2.0
 30
0.0
 70
0
  0
VERTEX
  5
27C
  8
CUT
 10
126.81472903395165
 20
2.0576441587903105
 30
0.0
 70
0
  0
VERTEX
  5
27D
  8
CUT
 10
126.25194970290477
 20
2.228361402466142
 30
0.0
 70
0
  0
VERTEX
  5
27E
  8
CUT
 10
125.73328930094122
 20
2.5055911630923617
 30
0.0
 70
0
  0
VERTEX
  5
27F
  8
CUT
 10
125.27867965644039
 20
2.8786796564403545
 30
0.0
 70
0
  0
VERTEX
  5
280
  8
CUT
 10
124.9055911630924
 20
3.333289300941196
 30
0.0
 70
0
  0
VERTEX
  5
281
  8
CUT
 10
124.62836140246617
 20
3.851949702904733
 30
0.0
 70
0
  0
VERTEX
  5
282
  8
CUT
 10
124.45764415879034
 20
4.414729033951616
 30
0.0
 70
0
  0
VERTEX
  5
283
  8
CUT
 10
124.40000000000003
 20
5.0
 30
0.0
 70
0
  0
VERTEX
  5
284
  8
CUT
 10
124.45764415879034
 20
5.585270966048384
 30
0.0
 70
0
  0
VERTEX
  5
285
  8
CUT
 10
124.62836140246617
 20
6.148050297095267
 30
0.0
 70
0
  0
VERTEX
  5
286
  8
CUT
 10
124.9055911630924
 20
6.666710699058804
 30
0.0
 70
0
  0
VERTEX
  5
287
  8
CUT
 10
125.27867965644039
 20
7.1213203435596455
 30
0.0
 70
0
  0
VERTEX
  5
288
  8
CUT
 10
125.73328930094122
 20
7.494408836907638
 30
0.0
 70
0
  0
VERTEX
  5
289
  8
CUT
 10
126.25194970290477
 20
7.771638597533858
 30
0.0
 70
0
  0
VERTEX
  5
28A
  8
CUT
 10
126.81472903395165
 20
7.9423558412096895
 30
0.0
 70
0
  0
VERTEX
  5
28B
  8
CUT
 10
127.40000000000003
 20
8.0
 30
0.0
 70
0
  0
VERTEX
  5
28C
  8
CUT
 10
127.98527096604842
 20
7.9423558412096895
 30
0.0
 70
0
  0
VERTEX
  5
28D
  8
CUT
 10
128.5480502970953
 20
7.771638597533858
 30
0.0
 70
0
  0
VERTEX
  5
28E
  8
CUT
 10
129.06671069905883
 20
7.494408836907638
 30
0.0
 70
0
  0
VERTEX
  5
28F
  8
CUT
 10
129.52132034355967
 20
7.1213203435596455
 30
0.0
 70
0
  0
VERTEX
  5
290
  8
CUT
 10
129.89440883690767
 20
6.666710699058804
 30
0.0
 70
0
  0
VERTEX
  5
291
  8
CUT
 10
130.1716385975339
 20
6.148050297095274
 30
0.0
 70
0
  0
VERTEX
  5
292
  8
CUT
 10
130.34235584120972
 20
5.585270966048384
 30
0.0
 70
0
  0
SEQEND
  5
272
  8
CUT
  0
POLYLINE
  5
293
  8
CUT
 66
1
 10
0.0
 20
0.0
 30
0.0
 70
1
  0
VERTEX
  5
295
  8
CUT
 10
142.60000000000002
 20
5.0
 30
0.0
 70
0
  0
VERTEX
  5
296
  8
CUT
 10
142.50392640201616
 20
5.97545161008064
 30
0.0
 70
0
  0
VERTEX
  5
297
  8
CUT
 10
142.21939766255645
 20
6.91341716182545
 30
0.0
 70
0
  0
VERTEX
  5
298
  8
CUT
 10
141.75734806151274
 20
7.7778511650980136
 30
0.0
 70
0
  0
VERTEX
  5
299
  8
CUT
 10
141.13553390593276
 20
8.535533905932738
 30
0.0
 70
0
  0
VERTEX
  5
29A
  8
CUT
 10
140.37785116509804
 20
9.157348061512728
 30
0.0
 70
0
  0
VERTEX
  5
29B
  8
CUT
 10
139.51341716182546
 20
9.619397662556437
 30
0.0
 70
0
  0
VERTEX
  5
29C
  8
CUT
 10
138.57545161008068
 20
9.903926402016154
 30
0.0
 70
0
  0
VERTEX
  5
29D
  8
CUT
 10
137.60000000000002
 20
10.0
 30
0.0
 70
0
  0
VERTEX
  5
29E
  8
CUT
 10
136.62454838991937
 20
9.903926402016154
 30
0.0
 70
0
  0
VERTEX
  5
29F
  8
CUT
 10
135.6865828381746
 20
9.619397662556437
 30
0.0
 70
0
  0
VERTEX
  5
2A0
  8
CUT
 10
134.822148834902
 20
9.157348061512728
 30
0.0
 70
0
  0
VERTEX
  5
2A1
  8
CUT
 10
134.06446609406728
 20
8.535533905932738
 30
0.0
 70
0
  0
VERTEX
  5
2A2
  8
CUT
 10
133.4426519384873
 20
7.7778511650980136
 30
0.0
 70
0
  0
VERTEX
  5
2A3
  8
CUT
 10
132.9806023374436
 20
6.91341716182545
 30
0.0
 70
0
  0
VERTEX
  5
2A4
  8
CUT
 10
132.69607359798388
 20
5.97545161008064
 30
0.0
 70
0
  0
VERTEX
  5
2A5
  8
CUT
 10
132.60000000000002
 20
5.0
 30
0.0
 70
0
  0
VERTEX
  5
2A6
  8
CUT
 10
132.69607359798388
 20
4.02454838991936
 30
0.0
 70
0
  0
VERTEX
  5
2A7
  8
CUT
 10
132.9806023374436
 20
3.08658283817455
 30
0.0
 70
0
  0
VERTEX
  5
2A8
  8
CUT
 10
133.4426519384873
 20
2.2221488349019864
 30
0.0
 70
0
  0
VERTEX
  5
2A9
  8
CUT
 10
134.06446609406728
 20
1.4644660940672622
 30
0.0
 70
0
  0
VERTEX
  5
2AA
  8
CUT
 10
134.822148834902
 20
0.8426519384872719
 30
0.0
 70
0
  0
VERTEX
  5
2AB
  8
CUT
 10
135.68658283817456
 20
0.38060233744356964
 30
0.0
 70
0
  0
VERTEX
  5
2AC
  8
CUT
 10
136.62454838991937
 20
0.09607359798384607
 30
0.0
 70
0
  0
VERTEX
  5
2AD
  8
CUT
 10
137.60000000000002
 20
0.0
 30
0.0
 70
0
  0
VERTEX
  5
2AE
  8
CUT
 10
138.57545161008068
 20
0.09607359798384607
 30
0.0
 70
0
  0
VERTEX
  5
2AF
  8
CUT
 10
139.5134171618255
 20
0.38060233744356964
 30
0.0
 70
0
  0
VERTEX
  5
2B0
  8
CUT
 10
140.37785116509804
 20
0.8426519384872719
 30
0.0
 70
0
  0
VERTEX
  5
2B1
  8
CUT
 10
141.13553390593276
 20
1.4644660940672622
 30
0.0
 70
0
  0
VERTEX
  5
2B2
  8
CUT
 10
141.75734806151274
 20
2.2221488349019864
 30
0.0
 70
0
  0
VERTEX
  5
2B3
  8
CUT
 10
142.21939766255645
 20
3.08658283817455
 30
0.0
 70
0
  0
VERTEX
  5
2B4
  8
CUT
 10
142.50392640201616
 20
4.024548389919353
 30
0.0
 70
0
  0
SEQEND
  5
294
  8
CUT
  0
POLYLINE
  5
2B5
  8
CUT
 66
1
 10
0.0
 20
0.0
 30
0.0
 70
1
  0
VERTEX
  5
2B7
  8
CUT
 10
152.8
 20
5.0
 30
0.0
 70
0
  0
VERTEX
  5
2B8
  8
CUT
 10
152.70392640201615
 20
5.97545161008064
 30
0.0
 70
0
  0
VERTEX
  5
2B9
  8
CUT
 10
152.41939766255643
 20
6.91341716182545
 30
0.0
 70
0
  0
VERTEX
  5
2BA
  8
CUT
 10
151.95734806151273
 20
7.7778511650980136
 30
0.0
 70
0
  0
VERTEX
  5
2BB
  8
CUT
 10
151.33553390593275
 20
8.535533905932738
 30
0.0
 70
0
  0
VERTEX
  5
2BC
  8
CUT
 10
150.57785116509802
 20
9.157348061512728
 30
0.0
 70
0
  0
VERTEX
  5
2BD
  8
CUT
 10
149.71341716182548
 20
9.619397662556437
 30
0.0
 70
0
  0
VERTEX
  5
2BE
  8
CUT
 10
148.77545161008067
 20
9.903926402016154
 30
0.0
 70
0
  0
VERTEX
  5
2BF
  8
CUT
 10
147.8
 20
10.0
 30
0.0
 70
0
  0
VERTEX
  5
2C0
  8
CUT
 10
146.82454838991936
 20
9.903926402016154
 30
0.0
 70
0
  0
VERTEX
  5
2C1
  8
CUT
 10
145.88658283817458
 20
9.619397662556437
 30
0.0
 70
0
  0
VERTEX
  5
2C2
  8
CUT
 10
145.022148834902
 20
9.157348061512728
 30
0.0
 70
0
  0
VERTEX
  5
2C3
  8
CUT
 10
144.26446609406727
 20
8.535533905932738
 30
0.0
 70
0
  0
VERTEX
  5
2C4
  8
CUT
 10
143.6426519384873
 20
7.7778511650980136
 30
0.0
 70
0
  0
VERTEX
  5
2C5
  8
CUT
 10
143.1806023374436
 20
6.91341716182545
 30
0.0
 70
0
  0
VERTEX
  5
2C6
  8
CUT
 10
142.89607359798387
 20
5.97545161008064
 30
0.0
 70
0
  0
VERTEX
  5
2C7
  8
CUT
 10
142.8
 20
5.0
 30
0.0
 70
0
  0
VERTEX
  5
2C8
  8
CUT
 10
142.89607359798387
 20
4.02454838991936
 30
0.0
 70
0
  0
VERTEX
  5
2C9
  8
CUT
 10
143.1806023374436
 20
3.08658283817455
 30
0.0
 70
0
  0
VERTEX
  5
2CA
  8
CUT
 10
143.6426519384873
 20
2.2221488349019864
 30
0.0
 70
0
  0
VERTEX
  5
2CB
  8
CUT
 10
144.26446609406727
 20
1.4644660940672622
 30
0.0
 70
0
  0
VERTEX
  5
2CC
  8
CUT
 10
145.022148834902
 20
0.8426519384872719
 30
0.0
 70
0
  0
VERTEX
  5
2CD
  8
CUT
 10
145.88658283817455
 20
0.38060233744356964
 30
0.0
 70
0
  0
VERTEX
  5
2CE
  8
CUT
 10
146.82454838991936
 20
0.09607359798384607
 30
0.0
 70
0
  0
VERTEX
  5
2CF
  8
CUT
 10
147.8
 20
0.0
 30
0.0
 70
0
  0
VERTEX
  5
2D0
  8
CUT
 10
148.77545161008067
 20
0.09607359798384607
 30
0.0
 70
0
  0
VERTEX
  5
2D1
  8
CUT
 10
149.71341716182548
 20
0.38060233744356964
 30
0.0
 70
0
  0
VERTEX
  5
2D2
  8
CUT
 10
150.57785116509802
 20
0.8426519384872719
 30
0.0
 70
0
  0
VERTEX
  5
2D3
  8
CUT
 10
151.33553390593275
 20
1.4644660940672622
 30
0.0
 70
0
  0
VERTEX
  5
2D4
  8
CUT
 10
151.95734806151273
 20
2.2221488349019864
 30
0.0
 70
0
  0
VERTEX
  5
2D5
  8
CUT
 10
152.41939766255643
 20
3.08658283817455
 30
0.0
 70
0
  0
VERTEX
  5
2D6
  8
CUT
 10
152.70392640201615
 20
4.024548389919353
 30
0.0
 70
0
  0
SEQEND
  5
2B6
  8
CUT
  0
POLYLINE
  5
2D7
  8
CUT
 66
1
 10
0.0
 20
0.0
 30
0.0
 70
1
  0
VERTEX
  5
2D9
  8
CUT
 10
163.0
 20
5.0
 30
0.0
 70
0
  0
VERTEX
  5
2DA
  8
CUT
 10
162.90392640201617
 20
5.97545161008064
 30
0.0
 70
0
  0
VERTEX
  5
2DB
  8
CUT
 10
162.61939766255642
 20
6.91341716182545
 30
0.0
 70
0
  0
VERTEX
  5
2DC
  8
CUT
 10
162.15734806151272
 20
7.7778511650980136
 30
0.0
 70
0
  0
VERTEX
  5
2DD
  8
CUT
 10
161.53553390593274
 20
8.535533905932738
 30
0.0
 70
0
  0
VERTEX
  5
2DE
  8
CUT
 10
160.777851165098
 20
9.157348061512728
 30
0.0
 70
0
  0
VERTEX
  5
2DF
  8
CUT
 10
159.91341716182546
 20
9.619397662556437
 30
0.0
 70
0
  0
VERTEX
  5
2E0
  8
CUT
 10
158.97545161008065
 20
9.903926402016154
 30
0.0
 70
0
  0
VERTEX
  5
2E1
  8
CUT
 10
158.0
 20
10.0
 30
0.0
 70
0
  0
VERTEX
  5
2E2
  8
CUT
 10
157.02454838991935
 20
9.903926402016154
 30
0.0
 70
0
  0
VERTEX
  5
2E3
  8
CUT
 10
156.08658283817456
 20
9.619397662556437
 30
0.0
 70
0
  0
VERTEX
  5
2E4
  8
CUT
 10
155.222148834902
 20
9.157348061512728
 30
0.0
 70
0
  0
VERTEX
  5
2E5
  8
CUT
 10
154.46446609406726
 20
8.535533905932738
 30
0.0
 70
0
  0
VERTEX
  5
2E6
  8
CUT
 10
153.84265193848728
 20
7.7778511650980136
 30
0.0
 70
0
  0
VERTEX
  5
2E7
  8
CUT
 10
153.38060233744358
 20
6.91341716182545
 30
0.0
 70
0
  0
VERTEX
  5
2E8
  8
CUT
 10
153.09607359798386
 20
5.97545161008064
 30
0.0
 70
0
  0
VERTEX
  5
2E9
  8
CUT
 10
153.0
 20
5.0
 30
0.0
 70
0
  0
VERTEX
  5
2EA
  8
CUT
 10
153.09607359798386
 20
4.02454838991936
 30
0.0
 70
0
  0
VERTEX
  5
2EB
  8
CUT
 10
153.38060233744358
 20
3.08658283817455
 30
0.0
 70
0
  0
VERTEX
  5
2EC
  8
CUT
 10
153.84265193848728
 20
2.2221488349019864
 30
0.0
 70
0
  0
VERTEX
  5
2ED
  8
CUT
 10
154.46446609406726
 20
1.4644660940672622
 30
0.0
 70
0
  0
VERTEX
  5
2EE
  8
CUT
 10
155.222148834902
 20
0.8426519384872719
 30
0.0
 70
0
  0
VERTEX
  5
2EF
  8
CUT
 10
156.08658283817454
 20
0.38060233744356964
 30
0.0
 70
0
  0
VERTEX
  5
2F0
  8
CUT
 10
157.02454838991935
 20
0.09607359798384607
 30
0.0
 70
0
  0
VERTEX
  5
2F1
  8
CUT
 10
158.0
 20
0.0
 30
0.0
 70
0
  0
VERTEX
  5
2F2
  8
CUT
 10
158.97545161008065
 20
0.09607359798384607
 30
0.0
 70
0
  0
VERTEX
  5
2F3
  8
CUT
 10
159.91341716182546
 20
0.38060233744356964
 30
0.0
 70
0
  0
VERTEX
  5
2F4
  8
CUT
 10
160.777851165098
 20
0.8426519384872719
 30
0.0
 70
0
  0
VERTEX
  5
2F5
  8
CUT
 10
161.53553390593274
 20
1.4644660940672622
 30
0.0
 70
0
  0
VERTEX
  5
2F6
  8
CUT
 10
162.15734806151272
 20
2.2221488349019864
 30
0.0
 70
0
  0
VERTEX
  5
2F7
  8
CUT
 10
162.61939766255642
 20
3.08658283817455
 30
0.0
 70
0
  0
VERTEX
  5
2F8
  8
CUT
 10
162.90392640201614
 20
4.024548389919353
 30
0.0
 70
0
  0
SEQEND
  5
2D8
  8
CUT
  0
POLYLINE
  5
2F9
  8
CUT
 66
1
 10
0.0
 20
0.0
 30
0.0
 70
1
  0
VERTEX
  5
2FB
  8
CUT
 10
161.0
 20
5.0
 30
0.0
 70
0
  0
VERTEX
  5
2FC
  8
CUT
 10
160.9423558412097
 20
4.414729033951616
 30
0.0
 70
0
  0
VERTEX
  5
2FD
  8
CUT
 10
160.77163859753387
 20
3.851949702904733
 30
0.0
 70
0
  0
VERTEX
  5
2FE
  8
CUT
 10
160.49440883690764
 20
3.333289300941196
 30
0.0
 70
0
  0
VERTEX
  5
2FF
  8
CUT
 10
160.12132034355963
 20
2.8786796564403545
 30
0.0
 70
0
  0
VERTEX
  5
300
  8
CUT
 10
159.6667106990588
 20
2.5055911630923617
 30
0.0
 70
0
  0
VERTEX
  5
301
  8
CUT
 10
159.14805029709527
 20
2.228361402466142
 30
0.0
 70
0
  0
VERTEX
  5
302
  8
CUT
 10
158.5852709660484
 20
2.0576441587903105
 30
0.0
 70
0
  0
VERTEX
  5
303
  8
CUT
 10
158.0
 20
2.0
 30
0.0
 70
0
  0
VERTEX
  5
304
  8
CUT
 10
157.41472903395163
 20
2.0576441587903105
 30
0.0
 70
0
  0
VERTEX
  5
305
  8
CUT
 10
156.85194970290473
 20
2.228361402466142
 30
0.0
 70
0
  0
VERTEX
  5
306
  8
CUT
 10
156.3332893009412
 20
2.5055911630923617
 30
0.0
 70
0
  0
VERTEX
  5
307
  8
CUT
 10
155.87867965644037
 20
2.8786796564403545
 30
0.0
 70
0
  0
VERTEX
  5
308
  8
CUT
 10
155.50559116309236
 20
3.333289300941196
 30
0.0
 70
0
  0
VERTEX
  5
309
  8
CUT
 10
155.22836140246613
 20
3.851949702904733
 30
0.0
 70
0
  0
VERTEX
  5
30A
  8
CUT
 10
155.0576441587903
 20
4.414729033951616
 30
0.0
 70
0
  0
VERTEX
  5
30B
  8
CUT
 10
155.0
 20
5.0
 30
0.0
 70
0
  0
VERTEX
  5
30C
  8
CUT
 10
155.0576441587903
 20
5.585270966048384
 30
0.0
 70
0
  0
VERTEX
  5
30D
  8
CUT
 10
155.22836140246613
 20
6.148050297095267
 30
0.0
 70
0
  0
VERTEX
  5
30E
  8
CUT
 10
155.50559116309236
 20
6.666710699058804
 30
0.0
 70
0
  0
VERTEX
  5
30F
  8
CUT
 10
155.87867965644037
 20
7.1213203435596455
 30
0.0
 70
0
  0
VERTEX
  5
310
  8
CUT
 10
156.3332893009412
 20
7.494408836907638
 30
0.0
 70
0
  0
VERTEX
  5
311
  8
CUT
 10
156.85194970290473
 20
7.771638597533858
 30
0.0
 70
0
  0
VERTEX
  5
312
  8
CUT
 10
157.4147290339516
 20
7.9423558412096895
 30
0.0
 70
0
  0
VERTEX
  5
313
  8
CUT
 10
158.0
 20
8.0
 30
0.0
 70
0
  0
VERTEX
  5
314
  8
CUT
 10
158.5852709660484
 20
7.9423558412096895
 30
0.0
 70
0
  0
VERTEX
  5
315
  8
CUT
 10
159.14805029709527
 20
7.771638597533858
 30
0.0
 70
0
  0
VERTEX
  5
316
  8
CUT
 10
159.6667106990588
 20
7.494408836907638
 30
0.0
 70
0
  0
VERTEX
  5
317
  8
CUT
 10
160.12132034355963
 20
7.1213203435596455
 30
0.0
 70
0
  0
VERTEX
  5
318
  8
CUT
 10
160.49440883690764
 20
6.666710699058804
 30
0.0
 70
0
  0
VERTEX
  5
319
  8
CUT
 10
160.77163859753387
 20
6.148050297095274
 30
0.0
 70
0
  0
VERTEX
  5
31A
  8
CUT
 10
160.9423558412097
 20
5.585270966048384
 30
0.0
 70
0
  0
SEQEND
  5
2FA
  8
CUT
  0
POLYLINE
  5
31B
  8
CUT
 66
1
 10
0.0
 20
0.0
 30
0.0
 70
1
  0
VERTEX
  5
31D
  8
CUT
 10
173.2
 20
5.0
 30
0.0
 70
0
  0
VERTEX
  5
31E
  8
CUT
 10
173.10392640201613
 20
5.97545161008064
 30
0.0
 70
0
  0
VERTEX
  5
31F
  8
CUT
 10
172.8193976625564
 20
6.91341716182545
 30
0.0
 70
0
  0
VERTEX
  5
320
  8
CUT
 10
172.3573480615127
 20
7.7778511650980136
 30
0.0
 70
0
  0
VERTEX
  5
321
  8
CUT
 10
171.73553390593273
 20
8.535533905932738
 30
0.0
 70
0
  0
VERTEX
  5
322
  8
CUT
 10
170.977851165098
 20
9.157348061512728
 30
0.0
 70
0
  0
VERTEX
  5
323
  8
CUT
 10
170.11341716182545
 20
9.619397662556437
 30
0.0
 70
0
  0
VERTEX
  5
324
  8
CUT
 10
169.17545161008064
 20
9.903926402016154
 30
0.0
 70
0
  0
VERTEX
  5
325
  8
CUT
 10
168.2
 20
10.0
 30
0.0
 70
0
  0
VERTEX
  5
326
  8
CUT
 10
167.22454838991933
 20
9.903926402016154
 30
0.0
 70
0
  0
VERTEX
  5
327
  8
CUT
 10
166.28658283817455
 20
9.619397662556437
 30
0.0
 70
0
  0
VERTEX
  5
328
  8
CUT
 10
165.42214883490198
 20
9.157348061512728
 30
0.0
 70
0
  0
VERTEX
  5
329
  8
CUT
 10
164.66446609406725
 20
8.535533905932738
 30
0.0
 70
0
  0
VERTEX
  5
32A
  8
CUT
 10
164.04265193848727
 20
7.7778511650980136
 30
0.0
 70
0
  0
VERTEX
  5
32B
  8
CUT
 10
163.58060233744357
 20
6.91341716182545
 30
0.0
 70
0
  0
VERTEX
  5
32C
  8
CUT
 10
163.29607359798382
 20
5.97545161008064
 30
0.0
 70
0
  0
VERTEX
  5
32D
  8
CUT
 10
163.2
 20
5.0
 30
0.0
 70
0
  0
VERTEX
  5
32E
  8
CUT
 10
163.29607359798382
 20
4.02454838991936
 30
0.0
 70
0
  0
VERTEX
  5
32F
  8
CUT
 10
163.58060233744357
 20
3.08658283817455
 30
0.0
 70
0
  0
VERTEX
  5
330
  8
CUT
 10
164.04265193848727
 20
2.2221488349019864
 30
0.0
 70
0
  0
VERTEX
  5
331
  8
CUT
 10
164.66446609406725
 20
1.4644660940672622
 30
0.0
 70
0
  0
VERTEX
  5
332
  8
CUT
 10
165.42214883490198
 20
0.8426519384872719
 30
0.0
 70
0
  0
VERTEX
  5
333
  8
CUT
 10
166.28658283817452
 20
0.38060233744356964
 30
0.0
 70
0
  0
VERTEX
  5
334
  8
CUT
 10
167.22454838991933
 20
0.09607359798384962
 30
0.0
 70
0
  0
VERTEX
  5
335
  8
CUT
 10
168.2
 20
0.0
 30
0.0
 70
0
  0
VERTEX
  5
336
  8
CUT
 10
169.17545161008064
 20
0.09607359798384607
 30
0.0
 70
0
  0
VERTEX
  5
337
  8
CUT
 10
170.11341716182545
 20
0.3806023374435661
 30
0.0
 70
0
  0
VERTEX
  5
338
  8
CUT
 10
170.977851165098
 20
0.8426519384872719
 30
0.0
 70
0
  0
VERTEX
  5
339
  8
CUT
 10
171.73553390593273
 20
1.4644660940672622
 30
0.0
 70
0
  0
VERTEX
  5
33A
  8
CUT
 10
172.3573480615127
 20
2.2221488349019864
 30
0.0
 70
0
  0
VERTEX
  5
33B
  8
CUT
 10
172.8193976625564
 20
3.08658283817455
 30
0.0
 70
0
  0
VERTEX
  5
33C
  8
CUT
 10
173.10392640201613
 20
4.024548389919353
 30
0.0
 70
0
  0
SEQEND
  5
31C
  8
CUT
  0
POLYLINE
  5
33D
  8
CUT
 66
1
 10
0.0
 20
0.0
 30
0.0
 70
1
  0
VERTEX
  5
33F
  8
CUT
 10
183.39999999999998
 20
5.0
 30
0.0
 70
0
  0
VERTEX
  5
340
  8
CUT
 10
183.30392640201612
 20
5.97545161008064
 30
0.0
 70
0
  0
VERTEX
  5
341
  8
CUT
 10
183.0193976625564
 20
6.91341716182545
 30
0.0
 70
0
  0
VERTEX
  5
342
  8
CUT
 10
182.5573480615127
 20
7.7778511650980136
 30
0.0
 70
0
  0
VERTEX
  5
343
  8
CUT
 10
181.93553390593272
 20
8.535533905932738
 30
0.0
 70
0
  0
VERTEX
  5
344
  8
CUT
 10
181.177851165098
 20
9.157348061512728
 30
0.0
 70
0
  0
VERTEX
  5
345
  8
CUT
 10
180.3134171618254
 20
9.619397662556437
 30
0.0
 70
0
  0
VERTEX
  5
346
  8
CUT
 10
179.37545161008063
 20
9.903926402016154
 30
0.0
 70
0
  0
VERTEX
  5
347
  8
CUT
 10
178.39999999999998
 20
10.0
 30
0.0
 70
0
  0
VERTEX
  5
348
  8
CUT
 10
177.42454838991932
 20
9.903926402016154
 30
0.0
 70
0
  0
VERTEX
  5
349
  8
CUT
 10
176.48658283817454
 20
9.619397662556437
 30
0.0
 70
0
  0
VERTEX
  5
34A
  8
CUT
 10
175.62214883490196
 20
9.157348061512728
 30
0.0
 70
0
  0
VERTEX
  5
34B
  8
CUT
 10
174.86446609406724
 20
8.535533905932738
 30
0.0
 70
0
  0
VERTEX
  5
34C
  8
CUT
 10
174.24265193848726
 20
7.7778511650980136
 30
0.0
 70
0
  0
VERTEX
  5
34D
  8
CUT
 10
173.78060233744355
 20
6.91341716182545
 30
0.0
 70
0
  0
VERTEX
  5
34E
  8
CUT
 10
173.49607359798384
 20
5.97545161008064
 30
0.0
 70
0
  0
VERTEX
  5
34F
  8
CUT
 10
173.39999999999998
 20
5.0
 30
0.0
 70
0
  0
VERTEX
  5
350
  8
CUT
 10
173.49607359798384
 20
4.02454838991936
 30
0.0
 70
0
  0
VERTEX
  5
351
  8
CUT
 10
173.78060233744355
 20
3.08658283817455
 30
0.0
 70
0
  0
VERTEX
  5
352
  8
CUT
 10
174.24265193848726
 20
2.2221488349019864
 30
0.0
 70
0
  0
VERTEX
  5
353
  8
CUT
 10
174.86446609406724
 20
1.4644660940672622
 30
0.0
 70
0
  0
VERTEX
  5
354
  8
CUT
 10
175.62214883490196
 20
0.8426519384872719
 30
0.0
 70
0
  0
VERTEX
  5
355
  8
CUT
 10
176.4865828381745
 20
0.38060233744356964
 30
0.0
 70
0
  0
VERTEX
  5
356
  8
CUT
 10
177.42454838991932
 20
0.09607359798384962
 30
0.0
 70
0
  0
VERTEX
  5
357
  8
CUT
 10
178.39999999999998
 20
0.0
 30
0.0
 70
0
  0
VERTEX
  5
358
  8
CUT
 10
179.37545161008063
 20
0.09607359798384607
 30
0.0
 70
0
  0
VERTEX
  5
359
  8
CUT
 10
180.31341716182544
 20
0.3806023374435661
 30
0.0
 70
0
  0
VERTEX
  5
35A
  8
CUT
 10
181.177851165098
 20
0.8426519384872719
 30
0.0
 70
0
  0
VERTEX
  5
35B
  8
CUT
 10
181.93553390593272
 20
1.4644660940672622
 30
0.0
 70
0
  0
VERTEX
  5
35C
  8
CUT
 10
182.5573480615127
 20
2.2221488349019864
 30
0.0
 70
0
  0
VERTEX
  5
35D
  8
CUT
 10
183.0193976625564
 20
3.08658283817455
 30
0.0
 70
0
  0
VERTEX
  5
35E
  8
CUT
 10
183.30392640201612
 20
4.024548389919353
 30
0.0
 70
0
  0
SEQEND
  5
33E
  8
CUT
  0
POLYLINE
  5
35F
  8
CUT
 66
1
 10
0.0
 20
0.0
 30
0.0
 70
1
  0
VERTEX
  5
361
  8
CUT
 10
193.59999999999997
 20
5.0
 30
0.0
 70
0
  0
VERTEX
  5
362
  8
CUT
 10
193.5039264020161
 20
5.97545161008064
 30
0.0
 70
0
  0
VERTEX
  5
363
  8
CUT
 10
193.2193976625564
 20
6.91341716182545
 30
0.0
 70
0
  0
VERTEX
  5
364
  8
CUT
 10
192.7573480615127
 20
7.7778511650980136
 30
0.0
 70
0
  0
VERTEX
  5
365
  8
CUT
 10
192.1355339059327
 20
8.535533905932738
 30
0.0
 70
0
  0
VERTEX
  5
366
  8
CUT
 10
191.37785116509798
 20
9.157348061512728
 30
0.0
 70
0
  0
VERTEX
  5
367
  8
CUT
 10
190.51341716182543
 20
9.619397662556437
 30
0.0
 70
0
  0
VERTEX
  5
368
  8
CUT
 10
189.57545161008062
 20
9.903926402016154
 30
0.0
 70
0
  0
VERTEX
  5
369
  8
CUT
 10
188.59999999999997
 20
10.0
 30
0.0
 70
0
  0
VERTEX
  5
36A
  8
CUT
 10
187.6245483899193
 20
9.903926402016154
 30
0.0
 70
0
  0
VERTEX
  5
36B
  8
CUT
 10
186.68658283817453
 20
9.619397662556437
 30
0.0
 70
0
  0
VERTEX
  5
36C
  8
CUT
 10
185.82214883490195
 20
9.157348061512728
 30
0.0
 70
0
  0
VERTEX
  5
36D
  8
CUT
 10
185.06446609406723
 20
8.535533905932738
 30
0.0
 70
0
  0
VERTEX
  5
36E
  8
CUT
 10
184.44265193848724
 20
7.7778511650980136
 30
0.0
 70
0
  0
VERTEX
  5
36F
  8
CUT
 10
183.98060233744354
 20
6.91341716182545
 30
0.0
 70
0
  0
VERTEX
  5
370
  8
CUT
 10
183.6960735979838
 20
5.97545161008064
 30
0.0
 70
0
  0
VERTEX
  5
371
  8
CUT
 10
183.59999999999997
 20
5.0
 30
0.0
 70
0
  0
VERTEX
  5
372
  8
CUT
 10
183.6960735979838
 20
4.02454838991936
 30
0.0
 70
0
  0
VERTEX
  5
373
  8
CUT
 10
183.98060233744354
 20
3.08658283817455
 30
0.0
 70
0
  0
VERTEX
  5
374
  8
CUT
 10
184.44265193848724
 20
2.2221488349019864
 30
0.0
 70
0
  0
VERTEX
  5
375
  8
CUT
 10
185.06446609406723
 20
1.4644660940672622
 30
0.0
 70
0
  0
VERTEX
  5
376
  8
CUT
 10
185.82214883490195
 20
0.8426519384872719
 30
0.0
 70
0
  0
VERTEX
  5
377
  8
CUT
 10
186.6865828381745
 20
0.38060233744356964
 30
0.0
 70
0
  0
VERTEX
  5
378
  8
CUT
 10
187.6245483899193
 20
0.09607359798384607
 30
0.0
 70
0
  0
VERTEX
  5
379
  8
CUT
 10
188.59999999999997
 20
0.0
 30
0.0
 70
0
  0
VERTEX
  5
37A
  8
CUT
 10
189.57545161008062
 20
0.09607359798384607
 30
0.0
 70
0
  0
VERTEX
  5
37B
  8
CUT
 10
190.51341716182543
 20
0.38060233744356964
 30
0.0
 70
0
  0
VERTEX
  5
37C
  8
CUT
 10
191.37785116509798
 20
0.8426519384872719
 30
0.0
 70
0
  0
VERTEX
  5
37D
  8
CUT
 10
192.1355339059327
 20
1.4644660940672622
 30
0.0
 70
0
  0
VERTEX
  5
37E
  8
CUT
 10
192.7573480615127
 20
2.2221488349019864
 30
0.0
 70
0
  0
VERTEX
  5
37F
  8
CUT
 10
193.2193976625564
 20
3.08658283817455
 30
0.0
 70
0
  0
VERTEX
  5
380
  8
CUT
 10
193.5039264020161
 20
4.024548389919353
 30
0.0
 70
0
  0
SEQEND
  5
360
  8
CUT
  0
POLYLINE
  5
381
  8
CUT
 66
1
 10
0.0
 20
0.0
 30
0.0
 70
1
  0
VERTEX
  5
383
  8
CUT
 10
191.59999999999997
 20
5.0
 30
0.0
 70
0
  0
VERTEX
  5
384
  8
CUT
 10
191.54235584120966
 20
4.414729033951616
 30
0.0
 70
0
  0
VERTEX
  5
385
  8
CUT
 10
191.37163859753383
 20
3.851949702904733
 30
0.0
 70
0
  0
VERTEX
  5
386
  8
CUT
 10
191.0944088369076
 20
3.333289300941196
 30
0.0
 70
0
  0
VERTEX
  5
387
  8
CUT
 10
190.7213203435596
 20
2.8786796564403545
 30
0.0
 70
0
  0
VERTEX
  5
388
  8
CUT
 10
190.26671069905876
 20
2.5055911630923617
 30
0.0
 70
0
  0
VERTEX
  5
389
  8
CUT
 10
189.74805029709523
 20
2.228361402466142
 30
0.0
 70
0
  0
VERTEX
  5
38A
  8
CUT
 10
189.18527096604836
 20
2.0576441587903105
 30
0.0
 70
0
  0
VERTEX
  5
38B
  8
CUT
 10
188.59999999999997
 20
2.0
 30
0.0
 70
0
  0
VERTEX
  5
38C
  8
CUT
 10
188.0147290339516
 20
2.0576441587903105
 30
0.0
 70
0
  0
VERTEX
  5
38D
  8
CUT
 10
187.4519497029047
 20
2.228361402466142
 30
0.0
 70
0
  0
VERTEX
  5
38E
  8
CUT
 10
186.93328930094117
 20
2.5055911630923617
 30
0.0
 70
0
  0
VERTEX
  5
38F
  8
CUT
 10
186.47867965644033
 20
2.8786796564403545
 30
0.0
 70
0
  0
VERTEX
  5
390
  8
CUT
 10
186.10559116309233
 20
3.333289300941196
 30
0.0
 70
0
  0
VERTEX
  5
391
  8
CUT
 10
185.8283614024661
 20
3.851949702904733
 30
0.0
 70
0
  0
VERTEX
  5
392
  8
CUT
 10
185.65764415879028
 20
4.414729033951616
 30
0.0
 70
0
  0
VERTEX
  5
393
  8
CUT
 10
185.59999999999997
 20
5.0
 30
0.0
 70
0
  0
VERTEX
  5
394
  8
CUT
 10
185.65764415879028
 20
5.585270966048384
 30
0.0
 70
0
  0
VERTEX
  5
395
  8
CUT
 10
185.8283614024661
 20
6.148050297095267
 30
0.0
 70
0
  0
VERTEX
  5
396
  8
CUT
 10
186.10559116309233
 20
6.666710699058804
 30
0.0
 70
0
  0
VERTEX
  5
397
  8
CUT
 10
186.47867965644033
 20
7.1213203435596455
 30
0.0
 70
0
  0
VERTEX
  5
398
  8
CUT
 10
186.93328930094117
 20
7.494408836907638
 30
0.0
 70
0
  0
VERTEX
  5
399
  8
CUT
 10
187.4519497029047
 20
7.771638597533858
 30
0.0
 70
0
  0
VERTEX
  5
39A
  8
CUT
 10
188.01472903395157
 20
7.9423558412096895
 30
0.0
 70
0
  0
VERTEX
  5
39B
  8
CUT
 10
188.59999999999997
 20
8.0
 30
0.0
 70
0
  0
VERTEX
  5
39C
  8
CUT
 10
189.18527096604836
 20
7.9423558412096895
 30
0.0
 70
0
  0
VERTEX
  5
39D
  8
CUT
 10
189.74805029709523
 20
7.771638597533858
 30
0.0
 70
0
  0
VERTEX
  5
39E
  8
CUT
 10
190.26671069905876
 20
7.494408836907638
 30
0.0
 70
0
  0
VERTEX
  5
39F
  8
CUT
 10
190.7213203435596
 20
7.1213203435596455
 30
0.0
 70
0
  0
VERTEX
  5
3A0
  8
CUT
 10
191.0944088369076
 20
6.666710699058804
 30
0.0
 70
0
  0
VERTEX
  5
3A1
  8
CUT
 10
191.37163859753383
 20
6.148050297095274
 30
0.0
 70
0
  0
VERTEX
  5
3A2
  8
CUT
 10
191.54235584120966
 20
5.585270966048384
 30
0.0
 70
0
  0
SEQEND
  5
382
  8
CUT
  0
POLYLINE
  5
3A3
  8
CUT
 66
1
 10
0.0
 20
0.0
 30
0.0
 70
1
  0
VERTEX
  5
3A5
  8
CUT
 10
203.79999999999995
 20
5.0
 30
0.0
 70
0
  0
VERTEX
  5
3A6
  8
CUT
 10
203.7039264020161
 20
5.97545161008064
 30
0.0
 70
0
  0
VERTEX
  5
3A7
  8
CUT
 10
203.41939766255638
 20
6.91341716182545
 30
0.0
 70
0
  0
VERTEX
  5
3A8
  8
CUT
 10
202.95734806151268
 20
7.7778511650980136
 30
0.0
 70
0
  0
VERTEX
  5
3A9
  8
CUT
 10
202.3355339059327
 20
8.535533905932738
 30
0.0
 70
0
  0
VERTEX
  5
3AA
  8
CUT
 10
201.57785116509797
 20
9.157348061512728
 30
0.0
 70
0
  0
VERTEX
  5
3AB
  8
CUT
 10
200.7134171618254
 20
9.619397662556437
 30
0.0
 70
0
  0
VERTEX
  5
3AC
  8
CUT
 10
199.7754516100806
 20
9.903926402016154
 30
0.0
 70
0
  0
VERTEX
  5
3AD
  8
CUT
 10
198.79999999999995
 20
10.0
 30
0.0
 70
0
  0
VERTEX
  5
3AE
  8
CUT
 10
197.8245483899193
 20
9.903926402016154
 30
0.0
 70
0
  0
VERTEX
  5
3AF
  8
CUT
 10
196.88658283817452
 20
9.619397662556437
 30
0.0
 70
0
  0
VERTEX
  5
3B0
  8
CUT
 10
196.02214883490194
 20
9.157348061512728
 30
0.0
 70
0
  0
VERTEX
  5
3B1
  8
CUT
 10
195.26446609406722
 20
8.535533905932738
 30
0.0
 70
0
  0
VERTEX
  5
3B2
  8
CUT
 10
194.64265193848723
 20
7.7778511650980136
 30
0.0
 70
0
  0
VERTEX
  5
3B3
  8
CUT
 10
194.18060233744353
 20
6.91341716182545
 30
0.0
 70
0
  0
VERTEX
  5
3B4
  8
CUT
 10
193.89607359798381
 20
5.97545161008064
 30
0.0
 70
0
  0
VERTEX
  5
3B5
  8
CUT
 10
193.79999999999995
 20
5.0
 30
0.0
 70
0
  0
VERTEX
  5
3B6
  8
CUT
 10
193.89607359798381
 20
4.02454838991936
 30
0.0
 70
0
  0
VERTEX
  5
3B7
  8
CUT
 10
194.18060233744353
 20
3.08658283817455
 30
0.0
 70
0
  0
VERTEX
  5
3B8
  8
CUT
 10
194.64265193848723
 20
2.2221488349019864
 30
0.0
 70
0
  0
VERTEX
  5
3B9
  8
CUT
 10
195.26446609406722
 20
1.4644660940672622
 30
0.0
 70
0
  0
VERTEX
  5
3BA
  8
CUT
 10
196.02214883490194
 20
0.8426519384872719
 30
0.0
 70
0
  0
VERTEX
  5
3BB
  8
CUT
 10
196.8865828381745
 20
0.38060233744356964
 30
0.0
 70
0
  0
VERTEX
  5
3BC
  8
CUT
 10
197.8245483899193
 20
0.09607359798384607
 30
0.0
 70
0
  0
VERTEX
  5
3BD
  8
CUT
 10
198.79999999999995
 20
0.0
 30
0.0
 70
0
  0
VERTEX
  5
3BE
  8
CUT
 10
199.7754516100806
 20
0.09607359798384607
 30
0.0
 70
0
  0
VERTEX
  5
3BF
  8
CUT
 10
200.71341716182542
 20
0.38060233744356964
 30
0.0
 70
0
  0
VERTEX
  5
3C0
  8
CUT
 10
201.57785116509797
 20
0.8426519384872719
 30
0.0
 70
0
  0
VERTEX
  5
3C1
  8
CUT
 10
202.3355339059327
 20
1.4644660940672622
 30
0.0
 70
0
  0
VERTEX
  5
3C2
  8
CUT
 10
202.95734806151268
 20
2.2221488349019864
 30
0.0
 70
0
  0
VERTEX
  5
3C3
  8
CUT
 10
203.41939766255638
 20
3.08658283817455
 30
0.0
 70
0
  0
VERTEX
  5
3C4
  8
CUT
 10
203.7039264020161
 20
4.024548389919353
 30
0.0
 70
0
  0
SEQEND
  5
3A4
  8
CUT
  0
POLYLINE
  5
3C5
  8
CUT
 66
1
 10
0.0
 20
0.0
 30
0.0
 70
1
  0
VERTEX
  5
3C7
  8
CUT
 10
213.99999999999994
 20
5.0
 30
0.0
 70
0
  0
VERTEX
  5
3C8
  8
CUT
 10
213.90392640201608
 20
5.97545161008064
 30
0.0
 70
0
  0
VERTEX
  5
3C9
  8
CUT
 10
213.61939766255637
 20
6.91341716182545
 30
0.0
 70
0
  0
VERTEX
  5
3CA
  8
CUT
 10
213.15734806151266
 20
7.7778511650980136
 30
0.0
 70
0
  0
VERTEX
  5
3CB
  8
CUT
 10
212.53553390593268
 20
8.535533905932738
 30
0.0
 70
0
  0
VERTEX
  5
3CC
  8
CUT
 10
211.77785116509796
 20
9.157348061512728
 30
0.0
 70
0
  0
VERTEX
  5
3CD
  8
CUT
 10
210.9134171618254
 20
9.619397662556437
 30
0.0
 70
0
  0
VERTEX
  5
3CE
  8
CUT
 10
209.9754516100806
 20
9.903926402016154
 30
0.0
 70
0
  0
VERTEX
  5
3CF
  8
CUT
 10
208.99999999999994
 20
10.0
 30
0.0
 70
0
  0
VERTEX
  5
3D0
  8
CUT
 10
208.0245483899193
 20
9.903926402016154
 30
0.0
 70
0
  0
VERTEX
  5
3D1
  8
CUT
 10
207.0865828381745
 20
9.619397662556437
 30
0.0
 70
0
  0
VERTEX
  5
3D2
  8
CUT
 10
206.22214883490193
 20
9.157348061512728
 30
0.0
 70
0
  0
VERTEX
  5
3D3
  8
CUT
 10
205.4644660940672
 20
8.535533905932738
 30
0.0
 70
0
  0
VERTEX
  5
3D4
  8
CUT
 10
204.84265193848722
 20
7.7778511650980136
 30
0.0
 70
0
  0
VERTEX
  5
3D5
  8
CUT
 10
204.38060233744352
 20
6.91341716182545
 30
0.0
 70
0
  0
VERTEX
  5
3D6
  8
CUT
 10
204.0960735979838
 20
5.97545161008064
 30
0.0
 70
0
  0
VERTEX
  5
3D7
  8
CUT
 10
203.99999999999994
 20
5.0
 30
0.0
 70
0
  0
VERTEX
  5
3D8
  8
CUT
 10
204.0960735979838
 20
4.02454838991936
 30
0.0
 70
0
  0
VERTEX
  5
3D9
  8
CUT
 10
204.38060233744352
 20
3.08658283817455
 30
0.0
 70
0
  0
VERTEX
  5
3DA
  8
CUT
 10
204.84265193848722
 20
2.2221488349019864
 30
0.0
 70
0
  0
VERTEX
  5
3DB
  8
CUT
 10
205.4644660940672
 20
1.4644660940672622
 30
0.0
 70
0
  0
VERTEX
  5
3DC
  8
CUT
 10
206.22214883490193
 20
0.8426519384872719
 30
0.0
 70
0
  0
VERTEX
  5
3DD
  8
CUT
 10
207.08658283817448
 20
0.38060233744356964
 30
0.0
 70
0
  0
VERTEX
  5
3DE
  8
CUT
 10
208.0245483899193
 20
0.09607359798384607
 30
0.0
 70
0
  0
VERTEX
  5
3DF
  8
CUT
 10
208.99999999999994
 20
0.0
 30
0.0
 70
0
  0
VERTEX
  5
3E0
  8
CUT
 10
209.9754516100806
 20
0.09607359798384607
 30
0.0
 70
0
  0
VERTEX
  5
3E1
  8
CUT
 10
210.9134171618254
 20
0.38060233744356964
 30
0.0
 70
0
  0
VERTEX
  5
3E2
  8
CUT
 10
211.77785116509796
 20
0.8426519384872719
 30
0.0
 70
0
  0
VERTEX
  5
3E3
  8
CUT
 10
212.53553390593268
 20
1.4644660940672622
 30
0.0
 70
0
  0
VERTEX
  5
3E4
  8
CUT
 10
213.15734806151266
 20
2.2221488349019864
 30
0.0
 70
0
  0
VERTEX
  5
3E5
  8
CUT
 10
213.61939766255637
 20
3.08658283817455
 30
0.0
 70
0
  0
VERTEX
  5
3E6
  8
CUT
 10
213.90392640201608
 20
4.024548389919353
 30
0.0
 70
0
  0
SEQEND
  5
3C6
  8
CUT
  0
POLYLINE
  5
3E7
  8
CUT
 66
1
 10
0.0
 20
0.0
 30
0.0
 70
1
  0
VERTEX
  5
3E9
  8
CUT
 10
224.19999999999993
 20
5.0
 30
0.0
 70
0
  0
VERTEX
  5
3EA
  8
CUT
 10
224.1039264020161
 20
5.97545161008064
 30
0.0
 70
0
  0
VERTEX
  5
3EB
  8
CUT
 10
223.81939766255636
 20
6.91341716182545
 30
0.0
 70
0
  0
VERTEX
  5
3EC
  8
CUT
 10
223.35734806151265
 20
7.7778511650980136
 30
0.0
 70
0
  0
VERTEX
  5
3ED
  8
CUT
 10
222.73553390593267
 20
8.535533905932738
 30
0.0
 70
0
  0
VERTEX
  5
3EE
  8
CUT
 10
221.97785116509795
 20
9.157348061512728
 30
0.0
 70
0
  0
VERTEX
  5
3EF
  8
CUT
 10
221.1134171618254
 20
9.619397662556437
 30
0.0
 70
0
  0
VERTEX
  5
3F0
  8
CUT
 10
220.1754516100806
 20
9.903926402016154
 30
0.0
 70
0
  0
VERTEX
  5
3F1
  8
CUT
 10
219.19999999999993
 20
10.0
 30
0.0
 70
0
  0
VERTEX
  5
3F2
  8
CUT
 10
218.22454838991928
 20
9.903926402016154
 30
0.0
 70
0
  0
VERTEX
  5
3F3
  8
CUT
 10
217.2865828381745
 20
9.619397662556437
 30
0.0
 70
0
  0
VERTEX
  5
3F4
  8
CUT
 10
216.42214883490192
 20
9.157348061512728
 30
0.0
 70
0
  0
VERTEX
  5
3F5
  8
CUT
 10
215.6644660940672
 20
8.535533905932738
 30
0.0
 70
0
  0
VERTEX
  5
3F6
  8
CUT
 10
215.0426519384872
 20
7.7778511650980136
 30
0.0
 70
0
  0
VERTEX
  5
3F7
  8
CUT
 10
214.5806023374435
 20
6.91341716182545
 30
0.0
 70
0
  0
VERTEX
  5
3F8
  8
CUT
 10
214.2960735979838
 20
5.97545161008064
 30
0.0
 70
0
  0
VERTEX
  5
3F9
  8
CUT
 10
214.19999999999993
 20
5.0
 30
0.0
 70
0
  0
VERTEX
  5
3FA
  8
CUT
 10
214.2960735979838
 20
4.02454838991936
 30
0.0
 70
0
  0
VERTEX
  5
3FB
  8
CUT
 10
214.5806023374435
 20
3.08658283817455
 30
0.0
 70
0
  0
VERTEX
  5
3FC
  8
CUT
 10
215.0426519384872
 20
2.2221488349019864
 30
0.0
 70
0
  0
VERTEX
  5
3FD
  8
CUT
 10
215.6644660940672
 20
1.4644660940672622
 30
0.0
 70
0
  0
VERTEX
  5
3FE
  8
CUT
 10
216.42214883490192
 20
0.8426519384872719
 30
0.0
 70
0
  0
VERTEX
  5
3FF
  8
CUT
 10
217.28658283817447
 20
0.38060233744356964
 30
0.0
 70
0
  0
VERTEX
  5
400
  8
CUT
 10
218.22454838991928
 20
0.09607359798384607
 30
0.0
 70
0
  0
VERTEX
  5
401
  8
CUT
 10
219.19999999999993
 20
0.0
 30
0.0
 70
0
  0
VERTEX
  5
402
  8
CUT
 10
220.1754516100806
 20
0.09607359798384607
 30
0.0
 70
0
  0
VERTEX
  5
403
  8
CUT
 10
221.1134171618254
 20
0.38060233744356964
 30
0.0
 70
0
  0
VERTEX
  5
404
  8
CUT
 10
221.97785116509795
 20
0.8426519384872719
 30
0.0
 70
0
  0
VERTEX
  5
405
  8
CUT
 10
222.73553390593267
 20
1.4644660940672622
 30
0.0
 70
0
  0
VERTEX
  5
406
  8
CUT
 10
223.35734806151265
 20
2.2221488349019864
 30
0.0
 70
0
  0
VERTEX
  5
407
  8
CUT
 10
223.81939766255636
 20
3.08658283817455
 30
0.0
 70
0
  0
VERTEX
  5
408
  8
CUT
 10
224.10392640201607
 20
4.024548389919353
 30
0.0
 70
0
  0
SEQEND
  5
3E8
  8
CUT
  0
POLYLINE
  5
409
  8
CUT
 66
1
 10
0.0
 20
0.0
 30
0.0
 70
1
  0
VERTEX
  5
40B
  8
CUT
 10
222.19999999999993
 20
5.0
 30
0.0
 70
0
  0
VERTEX
  5
40C
  8
CUT
 10
222.14235584120962
 20
4.414729033951616
 30
0.0
 70
0
  0
VERTEX
  5
40D
  8
CUT
 10
221.9716385975338
 20
3.851949702904733
 30
0.0
 70
0
  0
VERTEX
  5
40E
  8
CUT
 10
221.69440883690757
 20
3.333289300941196
 30
0.0
 70
0
  0
VERTEX
  5
40F
  8
CUT
 10
221.32132034355956
 20
2.8786796564403545
 30
0.0
 70
0
  0
VERTEX
  5
410
  8
CUT
 10
220.86671069905873
 20
2.5055911630923617
 30
0.0
 70
0
  0
VERTEX
  5
411
  8
CUT
 10
220.3480502970952
 20
2.228361402466142
 30
0.0
 70
0
  0
VERTEX
  5
412
  8
CUT
 10
219.78527096604833
 20
2.0576441587903105
 30
0.0
 70
0
  0
VERTEX
  5
413
  8
CUT
 10
219.19999999999993
 20
2.0
 30
0.0
 70
0
  0
VERTEX
  5
414
  8
CUT
 10
218.61472903395156
 20
2.0576441587903105
 30
0.0
 70
0
  0
VERTEX
  5
415
  8
CUT
 10
218.05194970290466
 20
2.228361402466142
 30
0.0
 70
0
  0
VERTEX
  5
416
  8
CUT
 10
217.53328930094114
 20
2.5055911630923617
 30
0.0
 70
0
  0
VERTEX
  5
417
  8
CUT
 10
217.0786796564403
 20
2.8786796564403545
 30
0.0
 70
0
  0
VERTEX
  5
418
  8
CUT
 10
216.7055911630923
 20
3.333289300941196
 30
0.0
 70
0
  0
VERTEX
  5
419
  8
CUT
 10
216.42836140246607
 20
3.851949702904733
 30
0.0
 70
0
  0
VERTEX
  5
41A
  8
CUT
 10
216.25764415879024
 20
4.414729033951616
 30
0.0
 70
0
  0
VERTEX
  5
41B
  8
CUT
 10
216.19999999999993
 20
5.0
 30
0.0
 70
0
  0
VERTEX
  5
41C
  8
CUT
 10
216.25764415879024
 20
5.585270966048384
 30
0.0
 70
0
  0
VERTEX
  5
41D
  8
CUT
 10
216.42836140246607
 20
6.148050297095267
 30
0.0
 70
0
  0
VERTEX
  5
41E
  8
CUT
 10
216.7055911630923
 20
6.666710699058804
 30
0.0
 70
0
  0
VERTEX
  5
41F
  8
CUT
 10
217.0786796564403
 20
7.1213203435596455
 30
0.0
 70
0
  0
VERTEX
  5
420
  8
CUT
 10
217.53328930094114
 20
7.494408836907638
 30
0.0
 70
0
  0
VERTEX
  5
421
  8
CUT
 10
218.05194970290466
 20
7.771638597533858
 30
0.0
 70
0
  0
VERTEX
  5
422
  8
CUT
 10
218.61472903395153
 20
7.9423558412096895
 30
0.0
 70
0
  0
VERTEX
  5
423
  8
CUT
 10
219.19999999999993
 20
8.0
 30
0.0
 70
0
  0
VERTEX
  5
424
  8
CUT
 10
219.78527096604833
 20
7.9423558412096895
 30
0.0
 70
0
  0
VERTEX
  5
425
  8
CUT
 10
220.3480502970952
 20
7.771638597533858
 30
0.0
 70
0
  0
VERTEX
  5
426
  8
CUT
 10
220.86671069905873
 20
7.494408836907638
 30
0.0
 70
0
  0
VERTEX
  5
427
  8
CUT
 10
221.32132034355956
 20
7.1213203435596455
 30
0.0
 70
0
  0
VERTEX
  5
428
  8
CUT
 10
221.69440883690757
 20
6.666710699058804
 30
0.0
 70
0
  0
VERTEX
  5
429
  8
CUT
 10
221.9716385975338
 20
6.148050297095274
 30
0.0
 70
0
  0
VERTEX
  5
42A
  8
CUT
 10
222.14235584120962
 20
5.585270966048384
 30
0.0
 70
0
  0
SEQEND
  5
40A
  8
CUT
  0
POLYLINE
  5
42B
  8
CUT
 66
1
 10
0.0
 20
0.0
 30
0.0
 70
1
  0
VERTEX
  5
42D
  8
CUT
 10
234.39999999999992
 20
5.0
 30
0.0
 70
0
  0
VERTEX
  5
42E
  8
CUT
 10
234.30392640201606
 20
5.97545161008064
 30
0.0
 70
0
  0
VERTEX
  5
42F
  8
CUT
 10
234.01939766255634
 20
6.91341716182545
 30
0.0
 70
0
  0
VERTEX
  5
430
  8
CUT
 10
233.55734806151264
 20
7.7778511650980136
 30
0.0
 70
0
  0
VERTEX
  5
431
  8
CUT
 10
232.93553390593266
 20
8.535533905932738
 30
0.0
 70
0
  0
VERTEX
  5
432
  8
CUT
 10
232.17785116509793
 20
9.157348061512728
 30
0.0
 70
0
  0
VERTEX
  5
433
  8
CUT
 10
231.31341716182538
 20
9.619397662556437
 30
0.0
 70
0
  0
VERTEX
  5
434
  8
CUT
 10
230.37545161008057
 20
9.903926402016154
 30
0.0
 70
0
  0
VERTEX
  5
435
  8
CUT
 10
229.39999999999992
 20
10.0
 30
0.0
 70
0
  0
VERTEX
  5
436
  8
CUT
 10
228.42454838991927
 20
9.903926402016154
 30
0.0
 70
0
  0
VERTEX
  5
437
  8
CUT
 10
227.48658283817448
 20
9.619397662556437
 30
0.0
 70
0
  0
VERTEX
  5
438
  8
CUT
 10
226.6221488349019
 20
9.157348061512728
 30
0.0
 70
0
  0
VERTEX
  5
439
  8
CUT
 10
225.86446609406718
 20
8.535533905932738
 30
0.0
 70
0
  0
VERTEX
  5
43A
  8
CUT
 10
225.2426519384872
 20
7.7778511650980136
 30
0.0
 70
0
  0
VERTEX
  5
43B
  8
CUT
 10
224.7806023374435
 20
6.91341716182545
 30
0.0
 70
0
  0
VERTEX
  5
43C
  8
CUT
 10
224.49607359798375
 20
5.97545161008064
 30
0.0
 70
0
  0
VERTEX
  5
43D
  8
CUT
 10
224.39999999999992
 20
5.0
 30
0.0
 70
0
  0
VERTEX
  5
43E
  8
CUT
 10
224.49607359798375
 20
4.02454838991936
 30
0.0
 70
0
  0
VERTEX
  5
43F
  8
CUT
 10
224.7806023374435
 20
3.08658283817455
 30
0.0
 70
0
  0
VERTEX
  5
440
  8
CUT
 10
225.2426519384872
 20
2.2221488349019864
 30
0.0
 70
0
  0
VERTEX
  5
441
  8
CUT
 10
225.86446609406718
 20
1.4644660940672622
 30
0.0
 70
0
  0
VERTEX
  5
442
  8
CUT
 10
226.6221488349019
 20
0.8426519384872719
 30
0.0
 70
0
  0
VERTEX
  5
443
  8
CUT
 10
227.48658283817446
 20
0.38060233744356964
 30
0.0
 70
0
  0
VERTEX
  5
444
  8
CUT
 10
228.42454838991927
 20
0.09607359798384962
 30
0.0
 70
0
  0
VERTEX
  5
445
  8
CUT
 10
229.39999999999992
 20
0.0
 30
0.0
 70
0
  0
VERTEX
  5
446
  8
CUT
 10
230.37545161008057
 20
0.09607359798384607
 30
0.0
 70
0
  0
VERTEX
  5
447
  8
CUT
 10
231.31341716182538
 20
0.3806023374435661
 30
0.0
 70
0
  0
VERTEX
  5
448
  8
CUT
 10
232.17785116509793
 20
0.8426519384872719
 30
0.0
 70
0
  0
VERTEX
  5
449
  8
CUT
 10
232.93553390593266
 20
1.4644660940672622
 30
0.0
 70
0
  0
VERTEX
  5
44A
  8
CUT
 10
233.55734806151264
 20
2.2221488349019864
 30
0.0
 70
0
  0
VERTEX
  5
44B
  8
CUT
 10
234.01939766255634
 20
3.08658283817455
 30
0.0
 70
0
  0
VERTEX
  5
44C
  8
CUT
 10
234.30392640201606
 20
4.024548389919353
 30
0.0
 70
0
  0
SEQEND
  5
42C
  8
CUT
  0
POLYLINE
  5
44D
  8
CUT
 66
1
 10
0.0
 20
0.0
 30
0.0
 70
1
  0
VERTEX
  5
44F
  8
CUT
 10
244.5999999999999
 20
5.0
 30
0.0
 70
0
  0
VERTEX
  5
450
  8
CUT
 10
244.50392640201605
 20
5.97545161008064
 30
0.0
 70
0
  0
VERTEX
  5
451
  8
CUT
 10
244.21939766255633
 20
6.91341716182545
 30
0.0
 70
0
  0
VERTEX
  5
452
  8
CUT
 10
243.75734806151263
 20
7.7778511650980136
 30
0.0
 70
0
  0
VERTEX
  5
453
  8
CUT
 10
243.13553390593265
 20
8.535533905932738
 30
0.0
 70
0
  0
VERTEX
  5
454
  8
CUT
 10
242.37785116509792
 20
9.157348061512728
 30
0.0
 70
0
  0
VERTEX
  5
455
  8
CUT
 10
241.51341716182534
 20
9.619397662556437
 30
0.0
 70
0
  0
VERTEX
  5
456
  8
CUT
 10
240.57545161008056
 20
9.903926402016154
 30
0.0
 70
0
  0
VERTEX
  5
457
  8
CUT
 10
239.5999999999999
 20
10.0
 30
0.0
 70
0
  0
VERTEX
  5
458
  8
CUT
 10
238.62454838991925
 20
9.903926402016154
 30
0.0
 70
0
  0
VERTEX
  5
459
  8
CUT
 10
237.68658283817447
 20
9.619397662556437
 30
0.0
 70
0
  0
VERTEX
  5
45A
  8
CUT
 10
236.8221488349019
 20
9.157348061512728
 30
0.0
 70
0
  0
VERTEX
  5
45B
  8
CUT
 10
236.06446609406717
 20
8.535533905932738
 30
0.0
 70
0
  0
VERTEX
  5
45C
  8
CUT
 10
235.4426519384872
 20
7.7778511650980136
 30
0.0
 70
0
  0
VERTEX
  5
45D
  8
CUT
 10
234.9806023374435
 20
6.91341716182545
 30
0.0
 70
0
  0
VERTEX
  5
45E
  8
CUT
 10
234.69607359798377
 20
5.97545161008064
 30
0.0
 70
0
  0
VERTEX
  5
45F
  8
CUT
 10
234.5999999999999
 20
5.0
 30
0.0
 70
0
  0
VERTEX
  5
460
  8
CUT
 10
234.69607359798377
 20
4.02454838991936
 30
0.0
 70
0
  0
VERTEX
  5
461
  8
CUT
 10
234.9806023374435
 20
3.08658283817455
 30
0.0
 70
0
  0
VERTEX
  5
462
  8
CUT
 10
235.4426519384872
 20
2.2221488349019864
 30
0.0
 70
0
  0
VERTEX
  5
463
  8
CUT
 10
236.06446609406717
 20
1.4644660940672622
 30
0.0
 70
0
  0
VERTEX
  5
464
  8
CUT
 10
236.8221488349019
 20
0.8426519384872719
 30
0.0
 70
0
  0
VERTEX
  5
465
  8
CUT
 10
237.68658283817444
 20
0.38060233744356964
 30
0.0
 70
0
  0
VERTEX
  5
466
  8
CUT
 10
238.62454838991925
 20
0.09607359798384962
 30
0.0
 70
0
  0
VERTEX
  5
467
  8
CUT
 10
239.5999999999999
 20
0.0
 30
0.0
 70
0
  0
VERTEX
  5
468
  8
CUT
 10
240.57545161008056
 20
0.09607359798384607
 30
0.0
 70
0
  0
VERTEX
  5
469
  8
CUT
 10
241.51341716182537
 20
0.3806023374435661
 30
0.0
 70
0
  0
VERTEX
  5
46A
  8
CUT
 10
242.37785116509792
 20
0.8426519384872719
 30
0.0
 70
0
  0
VERTEX
  5
46B
  8
CUT
 10
243.13553390593265
 20
1.4644660940672622
 30
0.0
 70
0
  0
VERTEX
  5
46C
  8
CUT
 10
243.75734806151263
 20
2.2221488349019864
 30
0.0
 70
0
  0
VERTEX
  5
46D
  8
CUT
 10
244.21939766255633
 20
3.08658283817455
 30
0.0
 70
0
  0
VERTEX
  5
46E
  8
CUT
 10
244.50392640201605
 20
4.024548389919353
 30
0.0
 70
0
  0
SEQEND
  5
44E
  8
CUT
  0
POLYLINE
  5
46F
  8
CUT
 66
1
 10
0.0
 20
0.0
 30
0.0
 70
1
  0
VERTEX
  5
471
  8
CUT
 10
254.7999999999999
 20
5.0
 30
0.0
 70
0
  0
VERTEX
  5
472
  8
CUT
 10
254.70392640201604
 20
5.97545161008064
 30
0.0
 70
0
  0
VERTEX
  5
473
  8
CUT
 10
254.41939766255632
 20
6.91341716182545
 30
0.0
 70
0
  0
VERTEX
  5
474
  8
CUT
 10
253.95734806151262
 20
7.7778511650980136
 30
0.0
 70
0
  0
VERTEX
  5
475
  8
CUT
 10
253.33553390593264
 20
8.535533905932738
 30
0.0
 70
0
  0
VERTEX
  5
476
  8
CUT
 10
252.5778511650979
 20
9.157348061512728
 30
0.0
 70
0
  0
VERTEX
  5
477
  8
CUT
 10
251.71341716182536
 20
9.619397662556437
 30
0.0
 70
0
  0
VERTEX
  5
478
  8
CUT
 10
250.77545161008055
 20
9.903926402016154
 30
0.0
 70
0
  0
VERTEX
  5
479
  8
CUT
 10
249.7999999999999
 20
10.0
 30
0.0
 70
0
  0
VERTEX
  5
47A
  8
CUT
 10
248.82454838991924
 20
9.903926402016154
 30
0.0
 70
0
  0
VERTEX
  5
47B
  8
CUT
 10
247.88658283817446
 20
9.619397662556437
 30
0.0
 70
0
  0
VERTEX
  5
47C
  8
CUT
 10
247.02214883490188
 20
9.157348061512728
 30
0.0
 70
0
  0
VERTEX
  5
47D
  8
CUT
 10
246.26446609406716
 20
8.535533905932738
 30
0.0
 70
0
  0
VERTEX
  5
47E
  8
CUT
 10
245.64265193848718
 20
7.7778511650980136
 30
0.0
 70
0
  0
VERTEX
  5
47F
  8
CUT
 10
245.18060233744347
 20
6.91341716182545
 30
0.0
 70
0
  0
VERTEX
  5
480
  8
CUT
 10
244.89607359798373
 20
5.97545161008064
 30
0.0
 70
0
  0
VERTEX
  5
481
  8
CUT
 10
244.7999999999999
 20
5.0
 30
0.0
 70
0
  0
VERTEX
  5
482
  8
CUT
 10
244.89607359798373
 20
4.02454838991936
 30
0.0
 70
0
  0
VERTEX
  5
483
  8
CUT
 10
245.18060233744347
 20
3.08658283817455
 30
0.0
 70
0
  0
VERTEX
  5
484
  8
CUT
 10
245.64265193848718
 20
2.2221488349019864
 30
0.0
 70
0
  0
VERTEX
  5
485
  8
CUT
 10
246.26446609406716
 20
1.4644660940672622
 30
0.0
 70
0
  0
VERTEX
  5
486
  8
CUT
 10
247.02214883490188
 20
0.8426519384872719
 30
0.0
 70
0
  0
VERTEX
  5
487
  8
CUT
 10
247.88658283817443
 20
0.38060233744356964
 30
0.0
 70
0
  0
VERTEX
  5
488
  8
CUT
 10
248.82454838991924
 20
0.09607359798384607
 30
0.0
 70
0
  0
VERTEX
  5
489
  8
CUT
 10
249.7999999999999
 20
0.0
 30
0.0
 70
0
  0
VERTEX
  5
48A
  8
CUT
 10
250.77545161008055
 20
0.09607359798384607
 30
0.0
 70
0
  0
VERTEX
  5
48B
  8
CUT
 10
251.71341716182536
 20
0.38060233744356964
 30
0.0
 70
0
  0
VERTEX
  5
48C
  8
CUT
 10
252.5778511650979
 20
0.8426519384872719
 30
0.0
 70
0
  0
VERTEX
  5
48D
  8
CUT
 10
253.33553390593264
 20
1.4644660940672622
 30
0.0
 70
0
  0
VERTEX
  5
48E
  8
CUT
 10
253.95734806151262
 20
2.2221488349019864
 30
0.0
 70
0
  0
VERTEX
  5
48F
  8
CUT
 10
254.41939766255632
 20
3.08658283817455
 30
0.0
 70
0
  0
VERTEX
  5
490
  8
CUT
 10
254.70392640201604
 20
4.024548389919353
 30
0.0
 70
0
  0
SEQEND
  5
470
  8
CUT
  0
POLYLINE
  5
491
  8
CUT
 66
1
 10
0.0
 20
0.0
 30
0.0
 70
1
  0
VERTEX
  5
493
  8
CUT
 10
252.7999999999999
 20
5.0
 30
0.0
 70
0
  0
VERTEX
  5
494
  8
CUT
 10
252.7423558412096
 20
4.414729033951616
 30
0.0
 70
0
  0
VERTEX
  5
495
  8
CUT
 10
252.57163859753376
 20
3.851949702904733
 30
0.0
 70
0
  0
VERTEX
  5
496
  8
CUT
 10
252.29440883690754
 20
3.333289300941196
 30
0.0
 70
0
  0
VERTEX
  5
497
  8
CUT
 10
251.92132034355953
 20
2.8786796564403545
 30
0.0
 70
0
  0
VERTEX
  5
498
  8
CUT
 10
251.4667106990587
 20
2.5055911630923617
 30
0.0
 70
0
  0
VERTEX
  5
499
  8
CUT
 10
250.94805029709516
 20
2.228361402466142
 30
0.0
 70
0
  0
VERTEX
  5
49A
  8
CUT
 10
250.3852709660483
 20
2.0576441587903105
 30
0.0
 70
0
  0
VERTEX
  5
49B
  8
CUT
 10
249.7999999999999
 20
2.0
 30
0.0
 70
0
  0
VERTEX
  5
49C
  8
CUT
 10
249.21472903395153
 20
2.0576441587903105
 30
0.0
 70
0
  0
VERTEX
  5
49D
  8
CUT
 10
248.65194970290463
 20
2.228361402466142
 30
0.0
 70
0
  0
VERTEX
  5
49E
  8
CUT
 10
248.1332893009411
 20
2.5055911630923617
 30
0.0
 70
0
  0
VERTEX
  5
49F
  8
CUT
 10
247.67867965644027
 20
2.8786796564403545
 30
0.0
 70
0
  0
VERTEX
  5
4A0
  8
CUT
 10
247.30559116309226
 20
3.333289300941196
 30
0.0
 70
0
  0
VERTEX
  5
4A1
  8
CUT
 10
247.02836140246603
 20
3.851949702904733
 30
0.0
 70
0
  0
VERTEX
  5
4A2
  8
CUT
 10
246.8576441587902
 20
4.414729033951616
 30
0.0
 70
0
  0
VERTEX
  5
4A3
  8
CUT
 10
246.7999999999999
 20
5.0
 30
0.0
 70
0
  0
VERTEX
  5
4A4
  8
CUT
 10
246.8576441587902
 20
5.585270966048384
 30
0.0
 70
0
  0
VERTEX
  5
4A5
  8
CUT
 10
247.02836140246603
 20
6.148050297095267
 30
0.0
 70
0
  0
VERTEX
  5
4A6
  8
CUT
 10
247.30559116309226
 20
6.666710699058804
 30
0.0
 70
0
  0
VERTEX
  5
4A7
  8
CUT
 10
247.67867965644027
 20
7.1213203435596455
 30
0.0
 70
0
  0
VERTEX
  5
4A8
  8
CUT
 10
248.1332893009411
 20
7.494408836907638
 30
0.0
 70
0
  0
VERTEX
  5
4A9
  8
CUT
 10
248.65194970290463
 20
7.771638597533858
 30
0.0
 70
0
  0
VERTEX
  5
4AA
  8
CUT
 10
249.2147290339515
 20
7.9423558412096895
 30
0.0
 70
0
  0
VERTEX
  5
4AB
  8
CUT
 10
249.7999999999999
 20
8.0
 30
0.0
 70
0
  0
VERTEX
  5
4AC
  8
CUT
 10
250.3852709660483
 20
7.9423558412096895
 30
0.0
 70
0
  0
VERTEX
  5
4AD
  8
CUT
 10
250.94805029709516
 20
7.771638597533858
 30
0.0
 70
0
  0
VERTEX
  5
4AE
  8
CUT
 10
251.4667106990587
 20
7.494408836907638
 30
0.0
 70
0
  0
VERTEX
  5
4AF
  8
CUT
 10
251.92132034355953
 20
7.1213203435596455
 30
0.0
 70
0
  0
VERTEX
  5
4B0
  8
CUT
 10
252.29440883690754
 20
6.666710699058804
 30
0.0
 70
0
  0
VERTEX
  5
4B1
  8
CUT
 10
252.57163859753376
 20
6.148050297095274
 30
0.0
 70
0
  0
VERTEX
  5
4B2
  8
CUT
 10
252.7423558412096
 20
5.585270966048384
 30
0.0
 70
0
  0
SEQEND
  5
492
  8
CUT
  0
POLYLINE
  5
4B3
  8
CUT
 66
1
 10
0.0
 20
0.0
 30
0.0
 70
1
  0
VERTEX
  5
4B5
  8
CUT
 10
264.9999999999999
 20
5.0
 30
0.0
 70
0
  0
VERTEX
  5
4B6
  8
CUT
 10
264.90392640201605
 20
5.97545161008064
 30
0.0
 70
0
  0
VERTEX
  5
4B7
  8
CUT
 10
264.6193976625563
 20
6.91341716182545
 30
0.0
 70
0
  0
VERTEX
  5
4B8
  8
CUT
 10
264.1573480615126
 20
7.7778511650980136
 30
0.0
 70
0
  0
VERTEX
  5
4B9
  8
CUT
 10
263.53553390593265
 20
8.535533905932738
 30
0.0
 70
0
  0
VERTEX
  5
4BA
  8
CUT
 10
262.7778511650979
 20
9.157348061512728
 30
0.0
 70
0
  0
VERTEX
  5
4BB
  8
CUT
 10
261.91341716182535
 20
9.619397662556437
 30
0.0
 70
0
  0
VERTEX
  5
4BC
  8
CUT
 10
260.97545161008054
 20
9.903926402016154
 30
0.0
 70
0
  0
VERTEX
  5
4BD
  8
CUT
 10
259.9999999999999
 20
10.0
 30
0.0
 70
0
  0
VERTEX
  5
4BE
  8
CUT
 10
259.02454838991923
 20
9.903926402016154
 30
0.0
 70
0
  0
VERTEX
  5
4BF
  8
CUT
 10
258.0865828381744
 20
9.619397662556437
 30
0.0
 70
0
  0
VERTEX
  5
4C0
  8
CUT
 10
257.2221488349019
 20
9.157348061512728
 30
0.0
 70
0
  0
VERTEX
  5
4C1
  8
CUT
 10
256.4644660940671
 20
8.535533905932738
 30
0.0
 70
0
  0
VERTEX
  5
4C2
  8
CUT
 10
255.84265193848717
 20
7.7778511650980136
 30
0.0
 70
0
  0
VERTEX
  5
4C3
  8
CUT
 10
255.38060233744346
 20
6.91341716182545
 30
0.0
 70
0
  0
VERTEX
  5
4C4
  8
CUT
 10
255.09607359798375
 20
5.97545161008064
 30
0.0
 70
0
  0
VERTEX
  5
4C5
  8
CUT
 10
254.9999999999999
 20
5.0
 30
0.0
 70
0
  0
VERTEX
  5
4C6
  8
CUT
 10
255.09607359798375
 20
4.02454838991936
 30
0.0
 70
0
  0
VERTEX
  5
4C7
  8
CUT
 10
255.38060233744346
 20
3.08658283817455
 30
0.0
 70
0
  0
VERTEX
  5
4C8
  8
CUT
 10
255.84265193848717
 20
2.2221488349019864
 30
0.0
 70
0
  0
VERTEX
  5
4C9
  8
CUT
 10
256.4644660940671
 20
1.4644660940672622
 30
0.0
 70
0
  0
VERTEX
  5
4CA
  8
CUT
 10
257.2221488349019
 20
0.8426519384872719
 30
0.0
 70
0
  0
VERTEX
  5
4CB
  8
CUT
 10
258.0865828381744
 20
0.38060233744356964
 30
0.0
 70
0
  0
VERTEX
  5
4CC
  8
CUT
 10
259.02454838991923
 20
0.09607359798384607
 30
0.0
 70
0
  0
VERTEX
  5
4CD
  8
CUT
 10
259.9999999999999
 20
0.0
 30
0.0
 70
0
  0
VERTEX
  5
4CE
  8
CUT
 10
260.97545161008054
 20
0.09607359798384607
 30
0.0
 70
0
  0
VERTEX
  5
4CF
  8
CUT
 10
261.91341716182535
 20
0.38060233744356964
 30
0.0
 70
0
  0
VERTEX
  5
4D0
  8
CUT
 10
262.7778511650979
 20
0.8426519384872719
 30
0.0
 70
0
  0
VERTEX
  5
4D1
  8
CUT
 10
263.5355339059326
 20
1.4644660940672622
 30
0.0
 70
0
  0
VERTEX
  5
4D2
  8
CUT
 10
264.1573480615126
 20
2.2221488349019864
 30
0.0
 70
0
  0
VERTEX
  5
4D3
  8
CUT
 10
264.6193976625563
 20
3.08658283817455
 30
0.0
 70
0
  0
VERTEX
  5
4D4
  8
CUT
 10
264.90392640201605
 20
4.024548389919353
 30
0.0
 70
0
  0
SEQEND
  5
4B4
  8
CUT
  0
POLYLINE
  5
4D5
  8
CUT
 66
1
 10
0.0
 20
0.0
 30
0.0
 70
1
  0
VERTEX
  5
4D7
  8
CUT
 10
275.1999999999999
 20
5.0
 30
0.0
 70
0
  0
VERTEX
  5
4D8
  8
CUT
 10
275.10392640201604
 20
5.97545161008064
 30
0.0
 70
0
  0
VERTEX
  5
4D9
  8
CUT
 10
274.8193976625563
 20
6.91341716182545
 30
0.0
 70
0
  0
VERTEX
  5
4DA
  8
CUT
 10
274.3573480615126
 20
7.7778511650980136
 30
0.0
 70
0
  0
VERTEX
  5
4DB
  8
CUT
 10
273.7355339059326
 20
8.535533905932738
 30
0.0
 70
0
  0
VERTEX
  5
4DC
  8
CUT
 10
272.9778511650979
 20
9.157348061512728
 30
0.0
 70
0
  0
VERTEX
  5
4DD
  8
CUT
 10
272.11341716182534
 20
9.619397662556437
 30
0.0
 70
0
  0
VERTEX
  5
4DE
  8
CUT
 10
271.17545161008053
 20
9.903926402016154
 30
0.0
 70
0
  0
VERTEX
  5
4DF
  8
CUT
 10
270.1999999999999
 20
10.0
 30
0.0
 70
0
  0
VERTEX
  5
4E0
  8
CUT
 10
269.2245483899192
 20
9.903926402016154
 30
0.0
 70
0
  0
VERTEX
  5
4E1
  8
CUT
 10
268.2865828381744
 20
9.619397662556437
 30
0.0
 70
0
  0
VERTEX
  5
4E2
  8
CUT
 10
267.42214883490186
 20
9.157348061512728
 30
0.0
 70
0
  0
VERTEX
  5
4E3
  8
CUT
 10
266.66446609406717
 20
8.535533905932738
 30
0.0
 70
0
  0
VERTEX
  5
4E4
  8
CUT
 10
266.04265193848715
 20
7.7778511650980136
 30
0.0
 70
0
  0
VERTEX
  5
4E5
  8
CUT
 10
265.58060233744345
 20
6.91341716182545
 30
0.0
 70
0
  0
VERTEX
  5
4E6
  8
CUT
 10
265.2960735979837
 20
5.97545161008064
 30
0.0
 70
0
  0
VERTEX
  5
4E7
  8
CUT
 10
265.1999999999999
 20
5.0
 30
0.0
 70
0
  0
VERTEX
  5
4E8
  8
CUT
 10
265.2960735979837
 20
4.02454838991936
 30
0.0
 70
0
  0
VERTEX
  5
4E9
  8
CUT
 10
265.58060233744345
 20
3.08658283817455
 30
0.0
 70
0
  0
VERTEX
  5
4EA
  8
CUT
 10
266.04265193848715
 20
2.2221488349019864
 30
0.0
 70
0
  0
VERTEX
  5
4EB
  8
CUT
 10
266.6644660940671
 20
1.4644660940672622
 30
0.0
 70
0
  0
VERTEX
  5
4EC
  8
CUT
 10
267.42214883490186
 20
0.8426519384872719
 30
0.0
 70
0
  0
VERTEX
  5
4ED
  8
CUT
 10
268.2865828381744
 20
0.38060233744356964
 30
0.0
 70
0
  0
VERTEX
  5
4EE
  8
CUT
 10
269.2245483899192
 20
0.09607359798384607
 30
0.0
 70
0
  0
VERTEX
  5
4EF
  8
CUT
 10
270.1999999999999
 20
0.0
 30
0.0
 70
0
  0
VERTEX
  5
4F0
  8
CUT
 10
271.17545161008053
 20
0.09607359798384607
 30
0.0
 70
0
  0
VERTEX
  5
4F1
  8
CUT
 10
272.11341716182534
 20
0.38060233744356964
 30
0.0
 70
0
  0
VERTEX
  5
4F2
  8
CUT
 10
272.9778511650979
 20
0.8426519384872719
 30
0.0
 70
0
  0
VERTEX
  5
4F3
  8
CUT
 10
273.7355339059326
 20
1.4644660940672622
 30
0.0
 70
0
  0
VERTEX
  5
4F4
  8
CUT
 10
274.3573480615126
 20
2.2221488349019864
 30
0.0
 70
0
  0
VERTEX
  5
4F5
  8
CUT
 10
274.8193976625563
 20
3.08658283817455
 30
0.0
 70
0
  0
VERTEX
  5
4F6
  8
CUT
 10
275.10392640201604
 20
4.024548389919353
 30
0.0
 70
0
  0
SEQEND
  5
4D6
  8
CUT
  0
POLYLINE
  5
4F7
  8
CUT
 66
1
 10
0.0
 20
0.0
 30
0.0
 70
1
  0
VERTEX
  5
4F9
  8
CUT
 10
285.39999999999986
 20
5.0
 30
0.0
 70
0
  0
VERTEX
  5
4FA
  8
CUT
 10
285.30392640201603
 20
5.97545161008064
 30
0.0
 70
0
  0
VERTEX
  5
4FB
  8
CUT
 10
285.0193976625563
 20
6.91341716182545
 30
0.0
 70
0
  0
VERTEX
  5
4FC
  8
CUT
 10
284.5573480615126
 20
7.7778511650980136
 30
0.0
 70
0
  0
VERTEX
  5
4FD
  8
CUT
 10
283.93553390593263
 20
8.535533905932738
 30
0.0
 70
0
  0
VERTEX
  5
4FE
  8
CUT
 10
283.1778511650979
 20
9.157348061512728
 30
0.0
 70
0
  0
VERTEX
  5
4FF
  8
CUT
 10
282.3134171618253
 20
9.619397662556437
 30
0.0
 70
0
  0
VERTEX
  5
500
  8
CUT
 10
281.3754516100805
 20
9.903926402016154
 30
0.0
 70
0
  0
VERTEX
  5
501
  8
CUT
 10
280.39999999999986
 20
10.0
 30
0.0
 70
0
  0
VERTEX
  5
502
  8
CUT
 10
279.4245483899192
 20
9.903926402016154
 30
0.0
 70
0
  0
VERTEX
  5
503
  8
CUT
 10
278.4865828381744
 20
9.619397662556437
 30
0.0
 70
0
  0
VERTEX
  5
504
  8
CUT
 10
277.62214883490185
 20
9.157348061512728
 30
0.0
 70
0
  0
VERTEX
  5
505
  8
CUT
 10
276.8644660940671
 20
8.535533905932738
 30
0.0
 70
0
  0
VERTEX
  5
506
  8
CUT
 10
276.24265193848714
 20
7.7778511650980136
 30
0.0
 70
0
  0
VERTEX
  5
507
  8
CUT
 10
275.78060233744344
 20
6.91341716182545
 30
0.0
 70
0
  0
VERTEX
  5
508
  8
CUT
 10
275.4960735979837
 20
5.97545161008064
 30
0.0
 70
0
  0
VERTEX
  5
509
  8
CUT
 10
275.39999999999986
 20
5.0
 30
0.0
 70
0
  0
VERTEX
  5
50A
  8
CUT
 10
275.4960735979837
 20
4.02454838991936
 30
0.0
 70
0
  0
VERTEX
  5
50B
  8
CUT
 10
275.78060233744344
 20
3.08658283817455
 30
0.0
 70
0
  0
VERTEX
  5
50C
  8
CUT
 10
276.24265193848714
 20
2.2221488349019864
 30
0.0
 70
0
  0
VERTEX
  5
50D
  8
CUT
 10
276.8644660940671
 20
1.4644660940672622
 30
0.0
 70
0
  0
VERTEX
  5
50E
  8
CUT
 10
277.62214883490185
 20
0.8426519384872719
 30
0.0
 70
0
  0
VERTEX
  5
50F
  8
CUT
 10
278.4865828381744
 20
0.38060233744356964
 30
0.0
 70
0
  0
VERTEX
  5
510
  8
CUT
 10
279.4245483899192
 20
0.09607359798384607
 30
0.0
 70
0
  0
VERTEX
  5
511
  8
CUT
 10
280.39999999999986
 20
0.0
 30
0.0
 70
0
  0
VERTEX
  5
512
  8
CUT
 10
281.3754516100805
 20
0.09607359798384607
 30
0.0
 70
0
  0
VERTEX
  5
513
  8
CUT
 10
282.3134171618253
 20
0.38060233744356964
 30
0.0
 70
0
  0
VERTEX
  5
514
  8
CUT
 10
283.1778511650979
 20
0.8426519384872719
 30
0.0
 70
0
  0
VERTEX
  5
515
  8
CUT
 10
283.93553390593263
 20
1.4644660940672622
 30
0.0
 70
0
  0
VERTEX
  5
516
  8
CUT
 10
284.5573480615126
 20
2.2221488349019864
 30
0.0
 70
0
  0
VERTEX
  5
517
  8
CUT
 10
285.0193976625563
 20
3.08658283817455
 30
0.0
 70
0
  0
VERTEX
  5
518
  8
CUT
 10
285.30392640201603
 20
4.024548389919353
 30
0.0
 70
0
  0
SEQEND
  5
4F8
  8
CUT
  0
POLYLINE
  5
519
  8
CUT
 66
1
 10
0.0
 20
0.0
 30
0.0
 70
1
  0
VERTEX
  5
51B
  8
CUT
 10
283.39999999999986
 20
5.0
 30
0.0
 70
0
  0
VERTEX
  5
51C
  8
CUT
 10
283.34235584120955
 20
4.414729033951616
 30
0.0
 70
0
  0
VERTEX
  5
51D
  8
CUT
 10
283.17163859753373
 20
3.851949702904733
 30
0.0
 70
0
  0
VERTEX
  5
51E
  8
CUT
 10
282.8944088369075
 20
3.333289300941196
 30
0.0
 70
0
  0
VERTEX
  5
51F
  8
CUT
 10
282.5213203435595
 20
2.8786796564403545
 30
0.0
 70
0
  0
VERTEX
  5
520
  8
CUT
 10
282.06671069905866
 20
2.5055911630923617
 30
0.0
 70
0
  0
VERTEX
  5
521
  8
CUT
 10
281.54805029709513
 20
2.228361402466142
 30
0.0
 70
0
  0
VERTEX
  5
522
  8
CUT
 10
280.98527096604823
 20
2.0576441587903105
 30
0.0
 70
0
  0
VERTEX
  5
523
  8
CUT
 10
280.39999999999986
 20
2.0
 30
0.0
 70
0
  0
VERTEX
  5
524
  8
CUT
 10
279.8147290339515
 20
2.0576441587903105
 30
0.0
 70
0
  0
VERTEX
  5
525
  8
CUT
 10
279.2519497029046
 20
2.228361402466142
 30
0.0
 70
0
  0
VERTEX
  5
526
  8
CUT
 10
278.73328930094107
 20
2.5055911630923617
 30
0.0
 70
0
  0
VERTEX
  5
527
  8
CUT
 10
278.2786796564402
 20
2.8786796564403545
 30
0.0
 70
0
  0
VERTEX
  5
528
  8
CUT
 10
277.90559116309225
 20
3.333289300941196
 30
0.0
 70
0
  0
VERTEX
  5
529
  8
CUT
 10
277.628361402466
 20
3.851949702904733
 30
0.0
 70
0
  0
VERTEX
  5
52A
  8
CUT
 10
277.4576441587902
 20
4.414729033951616
 30
0.0
 70
0
  0
VERTEX
  5
52B
  8
CUT
 10
277.39999999999986
 20
5.0
 30
0.0
 70
0
  0
VERTEX
  5
52C
  8
CUT
 10
277.4576441587902
 20
5.585270966048384
 30
0.0
 70
0
  0
VERTEX
  5
52D
  8
CUT
 10
277.628361402466
 20
6.148050297095267
 30
0.0
 70
0
  0
VERTEX
  5
52E
  8
CUT
 10
277.90559116309225
 20
6.666710699058804
 30
0.0
 70
0
  0
VERTEX
  5
52F
  8
CUT
 10
278.2786796564402
 20
7.1213203435596455
 30
0.0
 70
0
  0
VERTEX
  5
530
  8
CUT
 10
278.73328930094107
 20
7.494408836907638
 30
0.0
 70
0
  0
VERTEX
  5
531
  8
CUT
 10
279.2519497029046
 20
7.771638597533858
 30
0.0
 70
0
  0
VERTEX
  5
532
  8
CUT
 10
279.8147290339515
 20
7.9423558412096895
 30
0.0
 70
0
  0
VERTEX
  5
533
  8
CUT
 10
280.39999999999986
 20
8.0
 30
0.0
 70
0
  0
VERTEX
  5
534
  8
CUT
 10
280.98527096604823
 20
7.9423558412096895
 30
0.0
 70
0
  0
VERTEX
  5
535
  8
CUT
 10
281.54805029709513
 20
7.771638597533858
 30
0.0
 70
0
  0
VERTEX
  5
536
  8
CUT
 10
282.06671069905866
 20
7.494408836907638
 30
0.0
 70
0
  0
VERTEX
  5
537
  8
CUT
 10
282.5213203435595
 20
7.1213203435596455
 30
0.0
 70
0
  0
VERTEX
  5
538
  8
CUT
 10
282.8944088369075
 20
6.666710699058804
 30
0.0
 70
0
  0
VERTEX
  5
539
  8
CUT
 10
283.17163859753373
 20
6.148050297095274
 30
0.0
 70
0
  0
VERTEX
  5
53A
  8
CUT
 10
283.34235584120955
 20
5.585270966048384
 30
0.0
 70
0
  0
SEQEND
  5
51A
  8
CUT
  0
POLYLINE
  5
53B
  8
CUT
 66
1
 10
0.0
 20
0.0
 30
0.0
 70
1
  0
VERTEX
  5
53D
  8
CUT
 10
295.59999999999985
 20
5.0
 30
0.0
 70
0
  0
VERTEX
  5
53E
  8
CUT
 10
295.503926402016
 20
5.97545161008064
 30
0.0
 70
0
  0
VERTEX
  5
53F
  8
CUT
 10
295.2193976625563
 20
6.91341716182545
 30
0.0
 70
0
  0
VERTEX
  5
540
  8
CUT
 10
294.7573480615126
 20
7.7778511650980136
 30
0.0
 70
0
  0
VERTEX
  5
541
  8
CUT
 10
294.13553390593256
 20
8.535533905932738
 30
0.0
 70
0
  0
VERTEX
  5
542
  8
CUT
 10
293.37785116509787
 20
9.157348061512728
 30
0.0
 70
0
  0
VERTEX
  5
543
  8
CUT
 10
292.5134171618253
 20
9.619397662556437
 30
0.0
 70
0
  0
VERTEX
  5
544
  8
CUT
 10
291.5754516100805
 20
9.903926402016154
 30
0.0
 70
0
  0
VERTEX
  5
545
  8
CUT
 10
290.59999999999985
 20
10.0
 30
0.0
 70
0
  0
VERTEX
  5
546
  8
CUT
 10
289.6245483899192
 20
9.903926402016154
 30
0.0
 70
0
  0
VERTEX
  5
547
  8
CUT
 10
288.6865828381744
 20
9.619397662556437
 30
0.0
 70
0
  0
VERTEX
  5
548
  8
CUT
 10
287.82214883490184
 20
9.157348061512728
 30
0.0
 70
0
  0
VERTEX
  5
549
  8
CUT
 10
287.06446609406714
 20
8.535533905932738
 30
0.0
 70
0
  0
VERTEX
  5
54A
  8
CUT
 10
286.44265193848713
 20
7.7778511650980136
 30
0.0
 70
0
  0
VERTEX
  5
54B
  8
CUT
 10
285.98060233744343
 20
6.91341716182545
 30
0.0
 70
0
  0
VERTEX
  5
54C
  8
CUT
 10
285.6960735979837
 20
5.97545161008064
 30
0.0
 70
0
  0
VERTEX
  5
54D
  8
CUT
 10
285.59999999999985
 20
5.0
 30
0.0
 70
0
  0
VERTEX
  5
54E
  8
CUT
 10
285.6960735979837
 20
4.02454838991936
 30
0.0
 70
0
  0
VERTEX
  5
54F
  8
CUT
 10
285.98060233744343
 20
3.08658283817455
 30
0.0
 70
0
  0
VERTEX
  5
550
  8
CUT
 10
286.44265193848713
 20
2.2221488349019864
 30
0.0
 70
0
  0
VERTEX
  5
551
  8
CUT
 10
287.06446609406714
 20
1.4644660940672622
 30
0.0
 70
0
  0
VERTEX
  5
552
  8
CUT
 10
287.82214883490184
 20
0.8426519384872719
 30
0.0
 70
0
  0
VERTEX
  5
553
  8
CUT
 10
288.6865828381744
 20
0.38060233744356964
 30
0.0
 70
0
  0
VERTEX
  5
554
  8
CUT
 10
289.6245483899192
 20
0.09607359798384962
 30
0.0
 70
0
  0
VERTEX
  5
555
  8
CUT
 10
290.59999999999985
 20
0.0
 30
0.0
 70
0
  0
VERTEX
  5
556
  8
CUT
 10
291.5754516100805
 20
0.09607359798384607
 30
0.0
 70
0
  0
VERTEX
  5
557
  8
CUT
 10
292.5134171618253
 20
0.3806023374435661
 30
0.0
 70
0
  0
VERTEX
  5
558
  8
CUT
 10
293.37785116509787
 20
0.8426519384872719
 30
0.0
 70
0
  0
VERTEX
  5
559
  8
CUT
 10
294.13553390593256
 20
1.4644660940672622
 30
0.0
 70
0
  0
VERTEX
  5
55A
  8
CUT
 10
294.7573480615126
 20
2.2221488349019864
 30
0.0
 70
0
  0
VERTEX
  5
55B
  8
CUT
 10
295.2193976625563
 20
3.08658283817455
 30
0.0
 70
0
  0
VERTEX
  5
55C
  8
CUT
 10
295.503926402016
 20
4.024548389919353
 30
0.0
 70
0
  0
SEQEND
  5
53C
  8
CUT
  0
POLYLINE
  5
55D
  8
CUT
 66
1
 10
0.0
 20
0.0
 30
0.0
 70
1
  0
VERTEX
  5
55F
  8
CUT
 10
305.79999999999984
 20
5.0
 30
0.0
 70
0
  0
VERTEX
  5
560
  8
CUT
 10
305.703926402016
 20
5.97545161008064
 30
0.0
 70
0
  0
VERTEX
  5
561
  8
CUT
 10
305.41939766255626
 20
6.91341716182545
 30
0.0
 70
0
  0
VERTEX
  5
562
  8
CUT
 10
304.95734806151256
 20
7.7778511650980136
 30
0.0
 70
0
  0
VERTEX
  5
563
  8
CUT
 10
304.3355339059326
 20
8.535533905932738
 30
0.0
 70
0
  0
VERTEX
  5
564
  8
CUT
 10
303.57785116509785
 20
9.157348061512728
 30
0.0
 70
0
  0
VERTEX
  5
565
  8
CUT
 10
302.7134171618253
 20
9.619397662556437
 30
0.0
 70
0
  0
VERTEX
  5
566
  8
CUT
 10
301.7754516100805
 20
9.903926402016154
 30
0.0
 70
0
  0
VERTEX
  5
567
  8
CUT
 10
300.79999999999984
 20
10.0
 30
0.0
 70
0
  0
VERTEX
  5
568
  8
CUT
 10
299.8245483899192
 20
9.903926402016154
 30
0.0
 70
0
  0
VERTEX
  5
569
  8
CUT
 10
298.8865828381744
 20
9.619397662556437
 30
0.0
 70
0
  0
VERTEX
  5
56A
  8
CUT
 10
298.0221488349018
 20
9.157348061512728
 30
0.0
 70
0
  0
VERTEX
  5
56B
  8
CUT
 10
297.2644660940671
 20
8.535533905932738
 30
0.0
 70
0
  0
VERTEX
  5
56C
  8
CUT
 10
296.6426519384871
 20
7.7778511650980136
 30
0.0
 70
0
  0
VERTEX
  5
56D
  8
CUT
 10
296.1806023374434
 20
6.91341716182545
 30
0.0
 70
0
  0
VERTEX
  5
56E
  8
CUT
 10
295.8960735979837
 20
5.97545161008064
 30
0.0
 70
0
  0
VERTEX
  5
56F
  8
CUT
 10
295.79999999999984
 20
5.0
 30
0.0
 70
0
  0
VERTEX
  5
570
  8
CUT
 10
295.8960735979837
 20
4.02454838991936
 30
0.0
 70
0
  0
VERTEX
  5
571
  8
CUT
 10
296.1806023374434
 20
3.08658283817455
 30
0.0
 70
0
  0
VERTEX
  5
572
  8
CUT
 10
296.6426519384871
 20
2.2221488349019864
 30
0.0
 70
0
  0
VERTEX
  5
573
  8
CUT
 10
297.2644660940671
 20
1.4644660940672622
 30
0.0
 70
0
  0
VERTEX
  5
574
  8
CUT
 10
298.0221488349018
 20
0.8426519384872719
 30
0.0
 70
0
  0
VERTEX
  5
575
  8
CUT
 10
298.8865828381744
 20
0.38060233744356964
 30
0.0
 70
0
  0
VERTEX
  5
576
  8
CUT
 10
299.8245483899192
 20
0.09607359798384962
 30
0.0
 70
0
  0
VERTEX
  5
577
  8
CUT
 10
300.79999999999984
 20
0.0
 30
0.0
 70
0
  0
VERTEX
  5
578
  8
CUT
 10
301.7754516100805
 20
0.09607359798384607
 30
0.0
 70
0
  0
VERTEX
  5
579
  8
CUT
 10
302.7134171618253
 20
0.3806023374435661
 30
0.0
 70
0
  0
VERTEX
  5
57A
  8
CUT
 10
303.57785116509785
 20
0.8426519384872719
 30
0.0
 70
0
  0
VERTEX
  5
57B
  8
CUT
 10
304.33553390593255
 20
1.4644660940672622
 30
0.0
 70
0
  0
VERTEX
  5
57C
  8
CUT
 10
304.95734806151256
 20
2.2221488349019864
 30
0.0
 70
0
  0
VERTEX
  5
57D
  8
CUT
 10
305.41939766255626
 20
3.08658283817455
 30
0.0
 70
0
  0
VERTEX
  5
57E
  8
CUT
 10
305.703926402016
 20
4.024548389919353
 30
0.0
 70
0
  0
SEQEND
  5
55E
  8
CUT
  0
POLYLINE
  5
57F
  8
CUT
 66
1
 10
0.0
 20
0.0
 30
0.0
 70
1
  0
VERTEX
  5
581
  8
CUT
 10
315.99999999999983
 20
5.0
 30
0.0
 70
0
  0
VERTEX
  5
582
  8
CUT
 10
315.903926402016
 20
5.97545161008064
 30
0.0
 70
0
  0
VERTEX
  5
583
  8
CUT
 10
315.61939766255625
 20
6.91341716182545
 30
0.0
 70
0
  0
VERTEX
  5
584
  8
CUT
 10
315.15734806151255
 20
7.7778511650980136
 30
0.0
 70
0
  0
VERTEX
  5
585
  8
CUT
 10
314.53553390593254
 20
8.535533905932738
 30
0.0
 70
0
  0
VERTEX
  5
586
  8
CUT
 10
313.77785116509784
 20
9.157348061512728
 30
0.0
 70
0
  0
VERTEX
  5
587
  8
CUT
 10
312.9134171618253
 20
9.619397662556437
 30
0.0
 70
0
  0
VERTEX
  5
588
  8
CUT
 10
311.9754516100805
 20
9.903926402016154
 30
0.0
 70
0
  0
VERTEX
  5
589
  8
CUT
 10
310.99999999999983
 20
10.0
 30
0.0
 70
0
  0
VERTEX
  5
58A
  8
CUT
 10
310.0245483899192
 20
9.903926402016154
 30
0.0
 70
0
  0
VERTEX
  5
58B
  8
CUT
 10
309.08658283817437
 20
9.619397662556437
 30
0.0
 70
0
  0
VERTEX
  5
58C
  8
CUT
 10
308.2221488349018
 20
9.157348061512728
 30
0.0
 70
0
  0
VERTEX
  5
58D
  8
CUT
 10
307.4644660940671
 20
8.535533905932738
 30
0.0
 70
0
  0
VERTEX
  5
58E
  8
CUT
 10
306.8426519384871
 20
7.7778511650980136
 30
0.0
 70
0
  0
VERTEX
  5
58F
  8
CUT
 10
306.3806023374434
 20
6.91341716182545
 30
0.0
 70
0
  0
VERTEX
  5
590
  8
CUT
 10
306.09607359798366
 20
5.97545161008064
 30
0.0
 70
0
  0
VERTEX
  5
591
  8
CUT
 10
305.99999999999983
 20
5.0
 30
0.0
 70
0
  0
VERTEX
  5
592
  8
CUT
 10
306.09607359798366
 20
4.02454838991936
 30
0.0
 70
0
  0
VERTEX
  5
593
  8
CUT
 10
306.3806023374434
 20
3.08658283817455
 30
0.0
 70
0
  0
VERTEX
  5
594
  8
CUT
 10
306.8426519384871
 20
2.2221488349019864
 30
0.0
 70
0
  0
VERTEX
  5
595
  8
CUT
 10
307.4644660940671
 20
1.4644660940672622
 30
0.0
 70
0
  0
VERTEX
  5
596
  8
CUT
 10
308.2221488349018
 20
0.8426519384872719
 30
0.0
 70
0
  0
VERTEX
  5
597
  8
CUT
 10
309.08658283817437
 20
0.38060233744356964
 30
0.0
 70
0
  0
VERTEX
  5
598
  8
CUT
 10
310.0245483899192
 20
0.09607359798384607
 30
0.0
 70
0
  0
VERTEX
  5
599
  8
CUT
 10
310.99999999999983
 20
0.0
 30
0.0
 70
0
  0
VERTEX
  5
59A
  8
CUT
 10
311.9754516100805
 20
0.09607359798384607
 30
0.0
 70
0
  0
VERTEX
  5
59B
  8
CUT
 10
312.9134171618253
 20
0.38060233744356964
 30
0.0
 70
0
  0
VERTEX
  5
59C
  8
CUT
 10
313.77785116509784
 20
0.8426519384872719
 30
0.0
 70
0
  0
VERTEX
  5
59D
  8
CUT
 10
314.53553390593254
 20
1.4644660940672622
 30
0.0
 70
0
  0
VERTEX
  5
59E
  8
CUT
 10
315.15734806151255
 20
2.2221488349019864
 30
0.0
 70
0
  0
VERTEX
  5
59F
  8
CUT
 10
315.61939766255625
 20
3.08658283817455
 30
0.0
 70
0
  0
VERTEX
  5
5A0
  8
CUT
 10
315.903926402016
 20
4.024548389919353
 30
0.0
 70
0
  0
SEQEND
  5
580
  8
CUT
  0
POLYLINE
  5
5A1
  8
CUT
 66
1
 10
0.0
 20
0.0
 30
0.0
 70
1
  0
VERTEX
  5
5A3
  8
CUT
 10
313.99999999999983
 20
5.0
 30
0.0
 70
0
  0
VERTEX
  5
5A4
  8
CUT
 10
313.9423558412095
 20
4.414729033951616
 30
0.0
 70
0
  0
VERTEX
  5
5A5
  8
CUT
 10
313.7716385975337
 20
3.851949702904733
 30
0.0
 70
0
  0
VERTEX
  5
5A6
  8
CUT
 10
313.49440883690744
 20
3.333289300941196
 30
0.0
 70
0
  0
VERTEX
  5
5A7
  8
CUT
 10
313.1213203435595
 20
2.8786796564403545
 30
0.0
 70
0
  0
VERTEX
  5
5A8
  8
CUT
 10
312.6667106990586
 20
2.5055911630923617
 30
0.0
 70
0
  0
VERTEX
  5
5A9
  8
CUT
 10
312.1480502970951
 20
2.228361402466142
 30
0.0
 70
0
  0
VERTEX
  5
5AA
  8
CUT
 10
311.5852709660482
 20
2.0576441587903105
 30
0.0
 70
0
  0
VERTEX
  5
5AB
  8
CUT
 10
310.99999999999983
 20
2.0
 30
0.0
 70
0
  0
VERTEX
  5
5AC
  8
CUT
 10
310.41472903395146
 20
2.0576441587903105
 30
0.0
 70
0
  0
VERTEX
  5
5AD
  8
CUT
 10
309.85194970290456
 20
2.228361402466142
 30
0.0
 70
0
  0
VERTEX
  5
5AE
  8
CUT
 10
309.33328930094103
 20
2.5055911630923617
 30
0.0
 70
0
  0
VERTEX
  5
5AF
  8
CUT
 10
308.87867965644017
 20
2.8786796564403545
 30
0.0
 70
0
  0
VERTEX
  5
5B0
  8
CUT
 10
308.5055911630922
 20
3.333289300941196
 30
0.0
 70
0
  0
VERTEX
  5
5B1
  8
CUT
 10
308.22836140246596
 20
3.851949702904733
 30
0.0
 70
0
  0
VERTEX
  5
5B2
  8
CUT
 10
308.05764415879014
 20
4.414729033951616
 30
0.0
 70
0
  0
VERTEX
  5
5B3
  8
CUT
 10
307.99999999999983
 20
5.0
 30
0.0
 70
0
  0
VERTEX
  5
5B4
  8
CUT
 10
308.05764415879014
 20
5.585270966048384
 30
0.0
 70
0
  0
VERTEX
  5
5B5
  8
CUT
 10
308.22836140246596
 20
6.148050297095267
 30
0.0
 70
0
  0
VERTEX
  5
5B6
  8
CUT
 10
308.5055911630922
 20
6.666710699058804
 30
0.0
 70
0
  0
VERTEX
  5
5B7
  8
CUT
 10
308.87867965644017
 20
7.1213203435596455
 30
0.0
 70
0
  0
VERTEX
  5
5B8
  8
CUT
 10
309.33328930094103
 20
7.494408836907638
 30
0.0
 70
0
  0
VERTEX
  5
5B9
  8
CUT
 10
309.85194970290456
 20
7.771638597533858
 30
0.0
 70
0
  0
VERTEX
  5
5BA
  8
CUT
 10
310.41472903395146
 20
7.9423558412096895
 30
0.0
 70
0
  0
VERTEX
  5
5BB
  8
CUT
 10
310.99999999999983
 20
8.0
 30
0.0
 70
0
  0
VERTEX
  5
5BC
  8
CUT
 10
311.5852709660482
 20
7.9423558412096895
 30
0.0
 70
0
  0
VERTEX
  5
5BD
  8
CUT
 10
312.1480502970951
 20
7.771638597533858
 30
0.0
 70
0
  0
VERTEX
  5
5BE
  8
CUT
 10
312.6667106990586
 20
7.494408836907638
 30
0.0
 70
0
  0
VERTEX
  5
5BF
  8
CUT
 10
313.1213203435595
 20
7.1213203435596455
 30
0.0
 70
0
  0
VERTEX
  5
5C0
  8
CUT
 10
313.49440883690744
 20
6.666710699058804
 30
0.0
 70
0
  0
VERTEX
  5
5C1
  8
CUT
 10
313.7716385975337
 20
6.148050297095274
 30
0.0
 70
0
  0
VERTEX
  5
5C2
  8
CUT
 10
313.9423558412095
 20
5.585270966048384
 30
0.0
 70
0
  0
SEQEND
  5
5A2
  8
CUT
  0
POLYLINE
  5
5C3
  8
CUT
 66
1
 10
0.0
 20
0.0
 30
0.0
 70
1
  0
VERTEX
  5
5C5
  8
CUT
 10
326.1999999999998
 20
5.0
 30
0.0
 70
0
  0
VERTEX
  5
5C6
  8
CUT
 10
326.103926402016
 20
5.97545161008064
 30
0.0
 70
0
  0
VERTEX
  5
5C7
  8
CUT
 10
325.81939766255624
 20
6.91341716182545
 30
0.0
 70
0
  0
VERTEX
  5
5C8
  8
CUT
 10
325.35734806151254
 20
7.7778511650980136
 30
0.0
 70
0
  0
VERTEX
  5
5C9
  8
CUT
 10
324.7355339059326
 20
8.535533905932738
 30
0.0
 70
0
  0
VERTEX
  5
5CA
  8
CUT
 10
323.97785116509783
 20
9.157348061512728
 30
0.0
 70
0
  0
VERTEX
  5
5CB
  8
CUT
 10
323.1134171618253
 20
9.619397662556437
 30
0.0
 70
0
  0
VERTEX
  5
5CC
  8
CUT
 10
322.1754516100805
 20
9.903926402016154
 30
0.0
 70
0
  0
VERTEX
  5
5CD
  8
CUT
 10
321.1999999999998
 20
10.0
 30
0.0
 70
0
  0
VERTEX
  5
5CE
  8
CUT
 10
320.22454838991916
 20
9.903926402016154
 30
0.0
 70
0
  0
VERTEX
  5
5CF
  8
CUT
 10
319.28658283817435
 20
9.619397662556437
 30
0.0
 70
0
  0
VERTEX
  5
5D0
  8
CUT
 10
318.4221488349018
 20
9.157348061512728
 30
0.0
 70
0
  0
VERTEX
  5
5D1
  8
CUT
 10
317.66446609406705
 20
8.535533905932738
 30
0.0
 70
0
  0
VERTEX
  5
5D2
  8
CUT
 10
317.0426519384871
 20
7.7778511650980136
 30
0.0
 70
0
  0
VERTEX
  5
5D3
  8
CUT
 10
316.5806023374434
 20
6.91341716182545
 30
0.0
 70
0
  0
VERTEX
  5
5D4
  8
CUT
 10
316.29607359798365
 20
5.97545161008064
 30
0.0
 70
0
  0
VERTEX
  5
5D5
  8
CUT
 10
316.1999999999998
 20
5.0
 30
0.0
 70
0
  0
VERTEX
  5
5D6
  8
CUT
 10
316.29607359798365
 20
4.02454838991936
 30
0.0
 70
0
  0
VERTEX
  5
5D7
  8
CUT
 10
316.5806023374434
 20
3.08658283817455
 30
0.0
 70
0
  0
VERTEX
  5
5D8
  8
CUT
 10
317.0426519384871
 20
2.2221488349019864
 30
0.0
 70
0
  0
VERTEX
  5
5D9
  8
CUT
 10
317.66446609406705
 20
1.4644660940672622
 30
0.0
 70
0
  0
VERTEX
  5
5DA
  8
CUT
 10
318.4221488349018
 20
0.8426519384872719
 30
0.0
 70
0
  0
VERTEX
  5
5DB
  8
CUT
 10
319.28658283817435
 20
0.38060233744356964
 30
0.0
 70
0
  0
VERTEX
  5
5DC
  8
CUT
 10
320.22454838991916
 20
0.09607359798384607
 30
0.0
 70
0
  0
VERTEX
  5
5DD
  8
CUT
 10
321.1999999999998
 20
0.0
 30
0.0
 70
0
  0
VERTEX
  5
5DE
  8
CUT
 10
322.1754516100805
 20
0.09607359798384607
 30
0.0
 70
0
  0
VERTEX
  5
5DF
  8
CUT
 10
323.1134171618253
 20
0.38060233744356964
 30
0.0
 70
0
  0
VERTEX
  5
5E0
  8
CUT
 10
323.97785116509783
 20
0.8426519384872719
 30
0.0
 70
0
  0
VERTEX
  5
5E1
  8
CUT
 10
324.7355339059325
 20
1.4644660940672622
 30
0.0
 70
0
  0
VERTEX
  5
5E2
  8
CUT
 10
325.35734806151254
 20
2.2221488349019864
 30
0.0
 70
0
  0
VERTEX
  5
5E3
  8
CUT
 10
325.81939766255624
 20
3.08658283817455
 30
0.0
 70
0
  0
VERTEX
  5
5E4
  8
CUT
 10
326.103926402016
 20
4.024548389919353
 30
0.0
 70
0
  0
SEQEND
  5
5C4
  8
CUT
  0
POLYLINE
  5
5E5
  8
CUT
 66
1
 10
0.0
 20
0.0
 30
0.0
 70
1
  0
VERTEX
  5
5E7
  8
CUT
 10
336.3999999999998
 20
5.0
 30
0.0
 70
0
  0
VERTEX
  5
5E8
  8
CUT
 10
336.303926402016
 20
5.97545161008064
 30
0.0
 70
0
  0
VERTEX
  5
5E9
  8
CUT
 10
336.01939766255623
 20
6.91341716182545
 30
0.0
 70
0
  0
VERTEX
  5
5EA
  8
CUT
 10
335.5573480615125
 20
7.7778511650980136
 30
0.0
 70
0
  0
VERTEX
  5
5EB
  8
CUT
 10
334.9355339059325
 20
8.535533905932738
 30
0.0
 70
0
  0
VERTEX
  5
5EC
  8
CUT
 10
334.1778511650978
 20
9.157348061512728
 30
0.0
 70
0
  0
VERTEX
  5
5ED
  8
CUT
 10
333.31341716182527
 20
9.619397662556437
 30
0.0
 70
0
  0
VERTEX
  5
5EE
  8
CUT
 10
332.37545161008046
 20
9.903926402016154
 30
0.0
 70
0
  0
VERTEX
  5
5EF
  8
CUT
 10
331.3999999999998
 20
10.0
 30
0.0
 70
0
  0
VERTEX
  5
5F0
  8
CUT
 10
330.42454838991915
 20
9.903926402016154
 30
0.0
 70
0
  0
VERTEX
  5
5F1
  8
CUT
 10
329.48658283817434
 20
9.619397662556437
 30
0.0
 70
0
  0
VERTEX
  5
5F2
  8
CUT
 10
328.6221488349018
 20
9.157348061512728
 30
0.0
 70
0
  0
VERTEX
  5
5F3
  8
CUT
 10
327.8644660940671
 20
8.535533905932738
 30
0.0
 70
0
  0
VERTEX
  5
5F4
  8
CUT
 10
327.2426519384871
 20
7.7778511650980136
 30
0.0
 70
0
  0
VERTEX
  5
5F5
  8
CUT
 10
326.7806023374434
 20
6.91341716182545
 30
0.0
 70
0
  0
VERTEX
  5
5F6
  8
CUT
 10
326.49607359798364
 20
5.97545161008064
 30
0.0
 70
0
  0
VERTEX
  5
5F7
  8
CUT
 10
326.3999999999998
 20
5.0
 30
0.0
 70
0
  0
VERTEX
  5
5F8
  8
CUT
 10
326.49607359798364
 20
4.02454838991936
 30
0.0
 70
0
  0
VERTEX
  5
5F9
  8
CUT
 10
326.7806023374434
 20
3.08658283817455
 30
0.0
 70
0
  0
VERTEX
  5
5FA
  8
CUT
 10
327.2426519384871
 20
2.2221488349019864
 30
0.0
 70
0
  0
VERTEX
  5
5FB
  8
CUT
 10
327.86446609406704
 20
1.4644660940672622
 30
0.0
 70
0
  0
VERTEX
  5
5FC
  8
CUT
 10
328.6221488349018
 20
0.8426519384872719
 30
0.0
 70
0
  0
VERTEX
  5
5FD
  8
CUT
 10
329.48658283817434
 20
0.38060233744356964
 30
0.0
 70
0
  0
VERTEX
  5
5FE
  8
CUT
 10
330.42454838991915
 20
0.09607359798384607
 30
0.0
 70
0
  0
VERTEX
  5
5FF
  8
CUT
 10
331.3999999999998
 20
0.0
 30
0.0
 70
0
  0
VERTEX
  5
600
  8
CUT
 10
332.37545161008046
 20
0.09607359798384607
 30
0.0
 70
0
  0
VERTEX
  5
601
  8
CUT
 10
333.31341716182527
 20
0.38060233744356964
 30
0.0
 70
0
  0
VERTEX
  5
602
  8
CUT
 10
334.1778511650978
 20
0.8426519384872719
 30
0.0
 70
0
  0
VERTEX
  5
603
  8
CUT
 10
334.9355339059325
 20
1.4644660940672622
 30
0.0
 70
0
  0
VERTEX
  5
604
  8
CUT
 10
335.5573480615125
 20
2.2221488349019864
 30
0.0
 70
0
  0
VERTEX
  5
605
  8
CUT
 10
336.01939766255623
 20
3.08658283817455
 30
0.0
 70
0
  0
VERTEX
  5
606
  8
CUT
 10
336.303926402016
 20
4.024548389919353
 30
0.0
 70
0
  0
SEQEND
  5
5E6
  8
CUT
  0
POLYLINE
  5
607
  8
CUT
 66
1
 10
0.0
 20
0.0
 30
0.0
 70
1
  0
VERTEX
  5
609
  8
CUT
 10
346.5999999999998
 20
5.0
 30
0.0
 70
0
  0
VERTEX
  5
60A
  8
CUT
 10
346.50392640201596
 20
5.97545161008064
 30
0.0
 70
0
  0
VERTEX
  5
60B
  8
CUT
 10
346.2193976625562
 20
6.91341716182545
 30
0.0
 70
0
  0
VERTEX
  5
60C
  8
CUT
 10
345.7573480615125
 20
7.7778511650980136
 30
0.0
 70
0
  0
VERTEX
  5
60D
  8
CUT
 10
345.13553390593256
 20
8.535533905932738
 30
0.0
 70
0
  0
VERTEX
  5
60E
  8
CUT
 10
344.3778511650978
 20
9.157348061512728
 30
0.0
 70
0
  0
VERTEX
  5
60F
  8
CUT
 10
343.51341716182526
 20
9.619397662556437
 30
0.0
 70
0
  0
VERTEX
  5
610
  8
CUT
 10
342.57545161008045
 20
9.903926402016154
 30
0.0
 70
0
  0
VERTEX
  5
611
  8
CUT
 10
341.5999999999998
 20
10.0
 30
0.0
 70
0
  0
VERTEX
  5
612
  8
CUT
 10
340.62454838991914
 20
9.903926402016154
 30
0.0
 70
0
  0
VERTEX
  5
613
  8
CUT
 10
339.68658283817433
 20
9.619397662556437
 30
0.0
 70
0
  0
VERTEX
  5
614
  8
CUT
 10
338.8221488349018
 20
9.157348061512728
 30
0.0
 70
0
  0
VERTEX
  5
615
  8
CUT
 10
338.06446609406703
 20
8.535533905932738
 30
0.0
 70
0
  0
VERTEX
  5
616
  8
CUT
 10
337.4426519384871
 20
7.7778511650980136
 30
0.0
 70
0
  0
VERTEX
  5
617
  8
CUT
 10
336.9806023374434
 20
6.91341716182545
 30
0.0
 70
0
  0
VERTEX
  5
618
  8
CUT
 10
336.6960735979836
 20
5.97545161008064
 30
0.0
 70
0
  0
VERTEX
  5
619
  8
CUT
 10
336.5999999999998
 20
5.0
 30
0.0
 70
0
  0
VERTEX
  5
61A
  8
CUT
 10
336.6960735979836
 20
4.02454838991936
 30
0.0
 70
0
  0
VERTEX
  5
61B
  8
CUT
 10
336.9806023374434
 20
3.08658283817455
 30
0.0
 70
0
  0
VERTEX
  5
61C
  8
CUT
 10
337.4426519384871
 20
2.2221488349019864
 30
0.0
 70
0
  0
VERTEX
  5
61D
  8
CUT
 10
338.06446609406703
 20
1.4644660940672622
 30
0.0
 70
0
  0
VERTEX
  5
61E
  8
CUT
 10
338.8221488349018
 20
0.8426519384872719
 30
0.0
 70
0
  0
VERTEX
  5
61F
  8
CUT
 10
339.68658283817433
 20
0.38060233744356964
 30
0.0
 70
0
  0
VERTEX
  5
620
  8
CUT
 10
340.62454838991914
 20
0.09607359798384607
 30
0.0
 70
0
  0
VERTEX
  5
621
  8
CUT
 10
341.5999999999998
 20
0.0
 30
0.0
 70
0
  0
VERTEX
  5
622
  8
CUT
 10
342.57545161008045
 20
0.09607359798384607
 30
0.0
 70
0
  0
VERTEX
  5
623
  8
CUT
 10
343.51341716182526
 20
0.38060233744356964
 30
0.0
 70
0
  0
VERTEX
  5
624
  8
CUT
 10
344.3778511650978
 20
0.8426519384872719
 30
0.0
 70
0
  0
VERTEX
  5
625
  8
CUT
 10
345.13553390593256
 20
1.4644660940672622
 30
0.0
 70
0
  0
VERTEX
  5
626
  8
CUT
 10
345.7573480615125
 20
2.2221488349019864
 30
0.0
 70
0
  0
VERTEX
  5
627
  8
CUT
 10
346.2193976625562
 20
3.08658283817455
 30
0.0
 70
0
  0
VERTEX
  5
628
  8
CUT
 10
346.50392640201596
 20
4.024548389919353
 30
0.0
 70
0
  0
SEQEND
  5
608
  8
CUT
  0
POLYLINE
  5
629
  8
CUT
 66
1
 10
0.0
 20
0.0
 30
0.0
 70
1
  0
VERTEX
  5
62B
  8
CUT
 10
344.5999999999998
 20
5.0
 30
0.0
 70
0
  0
VERTEX
  5
62C
  8
CUT
 10
344.5423558412095
 20
4.414729033951616
 30
0.0
 70
0
  0
VERTEX
  5
62D
  8
CUT
 10
344.37163859753366
 20
3.851949702904733
 30
0.0
 70
0
  0
VERTEX
  5
62E
  8
CUT
 10
344.0944088369074
 20
3.333289300941196
 30
0.0
 70
0
  0
VERTEX
  5
62F
  8
CUT
 10
343.72132034355946
 20
2.8786796564403545
 30
0.0
 70
0
  0
VERTEX
  5
630
  8
CUT
 10
343.2667106990586
 20
2.5055911630923617
 30
0.0
 70
0
  0
VERTEX
  5
631
  8
CUT
 10
342.74805029709506
 20
2.228361402466142
 30
0.0
 70
0
  0
VERTEX
  5
632
  8
CUT
 10
342.18527096604817
 20
2.0576441587903105
 30
0.0
 70
0
  0
VERTEX
  5
633
  8
CUT
 10
341.5999999999998
 20
2.0
 30
0.0
 70
0
  0
VERTEX
  5
634
  8
CUT
 10
341.0147290339514
 20
2.0576441587903105
 30
0.0
 70
0
  0
VERTEX
  5
635
  8
CUT
 10
340.4519497029045
 20
2.228361402466142
 30
0.0
 70
0
  0
VERTEX
  5
636
  8
CUT
 10
339.933289300941
 20
2.5055911630923617
 30
0.0
 70
0
  0
VERTEX
  5
637
  8
CUT
 10
339.47867965644014
 20
2.8786796564403545
 30
0.0
 70
0
  0
VERTEX
  5
638
  8
CUT
 10
339.1055911630922
 20
3.333289300941196
 30
0.0
 70
0
  0
VERTEX
  5
639
  8
CUT
 10
338.82836140246593
 20
3.851949702904733
 30
0.0
 70
0
  0
VERTEX
  5
63A
  8
CUT
 10
338.6576441587901
 20
4.414729033951616
 30
0.0
 70
0
  0
VERTEX
  5
63B
  8
CUT
 10
338.5999999999998
 20
5.0
 30
0.0
 70
0
  0
VERTEX
  5
63C
  8
CUT
 10
338.6576441587901
 20
5.585270966048384
 30
0.0
 70
0
  0
VERTEX
  5
63D
  8
CUT
 10
338.82836140246593
 20
6.148050297095267
 30
0.0
 70
0
  0
VERTEX
  5
63E
  8
CUT
 10
339.1055911630922
 20
6.666710699058804
 30
0.0
 70
0
  0
VERTEX
  5
63F
  8
CUT
 10
339.47867965644014
 20
7.1213203435596455
 30
0.0
 70
0
  0
VERTEX
  5
640
  8
CUT
 10
339.933289300941
 20
7.494408836907638
 30
0.0
 70
0
  0
VERTEX
  5
641
  8
CUT
 10
340.4519497029045
 20
7.771638597533858
 30
0.0
 70
0
  0
VERTEX
  5
642
  8
CUT
 10
341.0147290339514
 20
7.9423558412096895
 30
0.0
 70
0
  0
VERTEX
  5
643
  8
CUT
 10
341.5999999999998
 20
8.0
 30
0.0
 70
0
  0
VERTEX
  5
644
  8
CUT
 10
342.18527096604817
 20
7.9423558412096895
 30
0.0
 70
0
  0
VERTEX
  5
645
  8
CUT
 10
342.74805029709506
 20
7.771638597533858
 30
0.0
 70
0
  0
VERTEX
  5
646
  8
CUT
 10
343.2667106990586
 20
7.494408836907638
 30
0.0
 70
0
  0
VERTEX
  5
647
  8
CUT
 10
343.72132034355946
 20
7.1213203435596455
 30
0.0
 70
0
  0
VERTEX
  5
648
  8
CUT
 10
344.0944088369074
 20
6.666710699058804
 30
0.0
 70
0
  0
VERTEX
  5
649
  8
CUT
 10
344.37163859753366
 20
6.148050297095274
 30
0.0
 70
0
  0
VERTEX
  5
64A
  8
CUT
 10
344.5423558412095
 20
5.585270966048384
 30
0.0
 70
0
  0
SEQEND
  5
62A
  8
CUT
  0
POLYLINE
  5
64B
  8
CUT
 66
1
 10
0.0
 20
0.0
 30
0.0
 70
1
  0
VERTEX
  5
64D
  8
CUT
 10
356.7999999999998
 20
5.0
 30
0.0
 70
0
  0
VERTEX
  5
64E
  8
CUT
 10
356.70392640201595
 20
5.97545161008064
 30
0.0
 70
0
  0
VERTEX
  5
64F
  8
CUT
 10
356.4193976625562
 20
6.91341716182545
 30
0.0
 70
0
  0
VERTEX
  5
650
  8
CUT
 10
355.9573480615125
 20
7.7778511650980136
 30
0.0
 70
0
  0
VERTEX
  5
651
  8
CUT
 10
355.3355339059325
 20
8.535533905932738
 30
0.0
 70
0
  0
VERTEX
  5
652
  8
CUT
 10
354.5778511650978
 20
9.157348061512728
 30
0.0
 70
0
  0
VERTEX
  5
653
  8
CUT
 10
353.71341716182525
 20
9.619397662556437
 30
0.0
 70
0
  0
VERTEX
  5
654
  8
CUT
 10
352.77545161008044
 20
9.903926402016154
 30
0.0
 70
0
  0
VERTEX
  5
655
  8
CUT
 10
351.7999999999998
 20
10.0
 30
0.0
 70
0
  0
VERTEX
  5
656
  8
CUT
 10
350.82454838991913
 20
9.903926402016154
 30
0.0
 70
0
  0
VERTEX
  5
657
  8
CUT
 10
349.8865828381743
 20
9.619397662556437
 30
0.0
 70
0
  0
VERTEX
  5
658
  8
CUT
 10
349.02214883490177
 20
9.157348061512728
 30
0.0
 70
0
  0
VERTEX
  5
659
  8
CUT
 10
348.2644660940671
 20
8.535533905932738
 30
0.0
 70
0
  0
VERTEX
  5
65A
  8
CUT
 10
347.64265193848706
 20
7.7778511650980136
 30
0.0
 70
0
  0
VERTEX
  5
65B
  8
CUT
 10
347.18060233744336
 20
6.91341716182545
 30
0.0
 70
0
  0
VERTEX
  5
65C
  8
CUT
 10
346.8960735979836
 20
5.97545161008064
 30
0.0
 70
0
  0
VERTEX
  5
65D
  8
CUT
 10
346.7999999999998
 20
5.0
 30
0.0
 70
0
  0
VERTEX
  5
65E
  8
CUT
 10
346.8960735979836
 20
4.02454838991936
 30
0.0
 70
0
  0
VERTEX
  5
65F
  8
CUT
 10
347.18060233744336
 20
3.08658283817455
 30
0.0
 70
0
  0
VERTEX
  5
660
  8
CUT
 10
347.64265193848706
 20
2.2221488349019864
 30
0.0
 70
0
  0
VERTEX
  5
661
  8
CUT
 10
348.2644660940671
 20
1.4644660940672622
 30
0.0
 70
0
  0
VERTEX
  5
662
  8
CUT
 10
349.02214883490177
 20
0.8426519384872719
 30
0.0
 70
0
  0
VERTEX
  5
663
  8
CUT
 10
349.8865828381743
 20
0.38060233744356964
 30
0.0
 70
0
  0
VERTEX
  5
664
  8
CUT
 10
350.82454838991913
 20
0.09607359798384962
 30
0.0
 70
0
  0
VERTEX
  5
665
  8
CUT
 10
351.7999999999998
 20
0.0
 30
0.0
 70
0
  0
VERTEX
  5
666
  8
CUT
 10
352.77545161008044
 20
0.09607359798384607
 30
0.0
 70
0
  0
VERTEX
  5
667
  8
CUT
 10
353.71341716182525
 20
0.3806023374435661
 30
0.0
 70
0
  0
VERTEX
  5
668
  8
CUT
 10
354.5778511650978
 20
0.8426519384872719
 30
0.0
 70
0
  0
VERTEX
  5
669
  8
CUT
 10
355.3355339059325
 20
1.4644660940672622
 30
0.0
 70
0
  0
VERTEX
  5
66A
  8
CUT
 10
355.9573480615125
 20
2.2221488349019864
 30
0.0
 70
0
  0
VERTEX
  5
66B
  8
CUT
 10
356.4193976625562
 20
3.08658283817455
 30
0.0
 70
0
  0
VERTEX
  5
66C
  8
CUT
 10
356.70392640201595
 20
4.024548389919353
 30
0.0
 70
0
  0
SEQEND
  5
64C
  8
CUT
  0
POLYLINE
  5
66D
  8
CUT
 66
1
 10
0.0
 20
0.0
 30
0.0
 70
1
  0
VERTEX
  5
66F
  8
CUT
 10
366.9999999999998
 20
5.0
 30
0.0
 70
0
  0
VERTEX
  5
670
  8
CUT
 10
366.90392640201594
 20
5.97545161008064
 30
0.0
 70
0
  0
VERTEX
  5
671
  8
CUT
 10
366.6193976625562
 20
6.91341716182545
 30
0.0
 70
0
  0
VERTEX
  5
672
  8
CUT
 10
366.1573480615125
 20
7.7778511650980136
 30
0.0
 70
0
  0
VERTEX
  5
673
  8
CUT
 10
365.53553390593254
 20
8.535533905932738
 30
0.0
 70
0
  0
VERTEX
  5
674
  8
CUT
 10
364.7778511650978
 20
9.157348061512728
 30
0.0
 70
0
  0
VERTEX
  5
675
  8
CUT
 10
363.91341716182524
 20
9.619397662556437
 30
0.0
 70
0
  0
VERTEX
  5
676
  8
CUT
 10
362.9754516100804
 20
9.903926402016154
 30
0.0
 70
0
  0
VERTEX
  5
677
  8
CUT
 10
361.9999999999998
 20
10.0
 30
0.0
 70
0
  0
VERTEX
  5
678
  8
CUT
 10
361.0245483899191
 20
9.903926402016154
 30
0.0
 70
0
  0
VERTEX
  5
679
  8
CUT
 10
360.0865828381743
 20
9.619397662556437
 30
0.0
 70
0
  0
VERTEX
  5
67A
  8
CUT
 10
359.22214883490176
 20
9.157348061512728
 30
0.0
 70
0
  0
VERTEX
  5
67B
  8
CUT
 10
358.464466094067
 20
8.535533905932738
 30
0.0
 70
0
  0
VERTEX
  5
67C
  8
CUT
 10
357.84265193848705
 20
7.7778511650980136
 30
0.0
 70
0
  0
VERTEX
  5
67D
  8
CUT
 10
357.38060233744335
 20
6.91341716182545
 30
0.0
 70
0
  0
VERTEX
  5
67E
  8
CUT
 10
357.0960735979836
 20
5.97545161008064
 30
0.0
 70
0
  0
VERTEX
  5
67F
  8
CUT
 10
356.9999999999998
 20
5.0
 30
0.0
 70
0
  0
VERTEX
  5
680
  8
CUT
 10
357.0960735979836
 20
4.02454838991936
 30
0.0
 70
0
  0
VERTEX
  5
681
  8
CUT
 10
357.38060233744335
 20
3.08658283817455
 30
0.0
 70
0
  0
VERTEX
  5
682
  8
CUT
 10
357.84265193848705
 20
2.2221488349019864
 30
0.0
 70
0
  0
VERTEX
  5
683
  8
CUT
 10
358.464466094067
 20
1.4644660940672622
 30
0.0
 70
0
  0
VERTEX
  5
684
  8
CUT
 10
359.22214883490176
 20
0.8426519384872719
 30
0.0
 70
0
  0
VERTEX
  5
685
  8
CUT
 10
360.0865828381743
 20
0.38060233744356964
 30
0.0
 70
0
  0
VERTEX
  5
686
  8
CUT
 10
361.0245483899191
 20
0.09607359798384962
 30
0.0
 70
0
  0
VERTEX
  5
687
  8
CUT
 10
361.9999999999998
 20
0.0
 30
0.0
 70
0
  0
VERTEX
  5
688
  8
CUT
 10
362.9754516100804
 20
0.09607359798384607
 30
0.0
 70
0
  0
VERTEX
  5
689
  8
CUT
 10
363.91341716182524
 20
0.3806023374435661
 30
0.0
 70
0
  0
VERTEX
  5
68A
  8
CUT
 10
364.7778511650978
 20
0.8426519384872719
 30
0.0
 70
0
  0
VERTEX
  5
68B
  8
CUT
 10
365.5355339059325
 20
1.4644660940672622
 30
0.0
 70
0
  0
VERTEX
  5
68C
  8
CUT
 10
366.1573480615125
 20
2.2221488349019864
 30
0.0
 70
0
  0
VERTEX
  5
68D
  8
CUT
 10
366.6193976625562
 20
3.08658283817455
 30
0.0
 70
0
  0
VERTEX
  5
68E
  8
CUT
 10
366.90392640201594
 20
4.024548389919353
 30
0.0
 70
0
  0
SEQEND
  5
66E
  8
CUT
  0
POLYLINE
  5
68F
  8
CUT
 66
1
 10
0.0
 20
0.0
 30
0.0
 70
1
  0
VERTEX
  5
691
  8
CUT
 10
377.19999999999976
 20
5.0
 30
0.0
 70
0
  0
VERTEX
  5
692
  8
CUT
 10
377.10392640201593
 20
5.97545161008064
 30
0.0
 70
0
  0
VERTEX
  5
693
  8
CUT
 10
376.8193976625562
 20
6.91341716182545
 30
0.0
 70
0
  0
VERTEX
  5
694
  8
CUT
 10
376.3573480615125
 20
7.7778511650980136
 30
0.0
 70
0
  0
VERTEX
  5
695
  8
CUT
 10
375.73553390593247
 20
8.535533905932738
 30
0.0
 70
0
  0
VERTEX
  5
696
  8
CUT
 10
374.9778511650978
 20
9.157348061512728
 30
0.0
 70
0
  0
VERTEX
  5
697
  8
CUT
 10
374.1134171618252
 20
9.619397662556437
 30
0.0
 70
0
  0
VERTEX
  5
698
  8
CUT
 10
373.1754516100804
 20
9.903926402016154
 30
0.0
 70
0
  0
VERTEX
  5
699
  8
CUT
 10
372.19999999999976
 20
10.0
 30
0.0
 70
0
  0
VERTEX
  5
69A
  8
CUT
 10
371.2245483899191
 20
9.903926402016154
 30
0.0
 70
0
  0
VERTEX
  5
69B
  8
CUT
 10
370.2865828381743
 20
9.619397662556437
 30
0.0
 70
0
  0
VERTEX
  5
69C
  8
CUT
 10
369.42214883490175
 20
9.157348061512728
 30
0.0
 70
0
  0
VERTEX
  5
69D
  8
CUT
 10
368.66446609406705
 20
8.535533905932738
 30
0.0
 70
0
  0
VERTEX
  5
69E
  8
CUT
 10
368.04265193848704
 20
7.7778511650980136
 30
0.0
 70
0
  0
VERTEX
  5
69F
  8
CUT
 10
367.58060233744334
 20
6.91341716182545
 30
0.0
 70
0
  0
VERTEX
  5
6A0
  8
CUT
 10
367.2960735979836
 20
5.97545161008064
 30
0.0
 70
0
  0
VERTEX
  5
6A1
  8
CUT
 10
367.19999999999976
 20
5.0
 30
0.0
 70
0
  0
VERTEX
  5
6A2
  8
CUT
 10
367.2960735979836
 20
4.02454838991936
 30
0.0
 70
0
  0
VERTEX
  5
6A3
  8
CUT
 10
367.58060233744334
 20
3.08658283817455
 30
0.0
 70
0
  0
VERTEX
  5
6A4
  8
CUT
 10
368.04265193848704
 20
2.2221488349019864
 30
0.0
 70
0
  0
VERTEX
  5
6A5
  8
CUT
 10
368.66446609406705
 20
1.4644660940672622
 30
0.0
 70
0
  0
VERTEX
  5
6A6
  8
CUT
 10
369.42214883490175
 20
0.8426519384872719
 30
0.0
 70
0
  0
VERTEX
  5
6A7
  8
CUT
 10
370.2865828381743
 20
0.38060233744356964
 30
0.0
 70
0
  0
VERTEX
  5
6A8
  8
CUT
 10
371.2245483899191
 20
0.09607359798384607
 30
0.0
 70
0
  0
VERTEX
  5
6A9
  8
CUT
 10
372.19999999999976
 20
0.0
 30
0.0
 70
0
  0
VERTEX
  5
6AA
  8
CUT
 10
373.1754516100804
 20
0.09607359798384607
 30
0.0
 70
0
  0
VERTEX
  5
6AB
  8
CUT
 10
374.1134171618252
 20
0.38060233744356964
 30
0.0
 70
0
  0
VERTEX
  5
6AC
  8
CUT
 10
374.9778511650978
 20
0.8426519384872719
 30
0.0
 70
0
  0
VERTEX
  5
6AD
  8
CUT
 10
375.73553390593247
 20
1.4644660940672622
 30
0.0
 70
0
  0
VERTEX
  5
6AE
  8
CUT
 10
376.3573480615125
 20
2.2221488349019864
 30
0.0
 70
0
  0
VERTEX
  5
6AF
  8
CUT
 10
376.8193976625562
 20
3.08658283817455
 30
0.0
 70
0
  0
VERTEX
  5
6B0
  8
CUT
 10
377.10392640201593
 20
4.024548389919353
 30
0.0
 70
0
  0
SEQEND
  5
690
  8
CUT
  0
POLYLINE
  5
6B1
  8
CUT
 66
1
 10
0.0
 20
0.0
 30
0.0
 70
1
  0
VERTEX
  5
6B3
  8
CUT
 10
375.19999999999976
 20
5.0
 30
0.0
 70
0
  0
VERTEX
  5
6B4
  8
CUT
 10
375.14235584120945
 20
4.414729033951616
 30
0.0
 70
0
  0
VERTEX
  5
6B5
  8
CUT
 10
374.9716385975336
 20
3.851949702904733
 30
0.0
 70
0
  0
VERTEX
  5
6B6
  8
CUT
 10
374.69440883690737
 20
3.333289300941196
 30
0.0
 70
0
  0
VERTEX
  5
6B7
  8
CUT
 10
374.3213203435594
 20
2.8786796564403545
 30
0.0
 70
0
  0
VERTEX
  5
6B8
  8
CUT
 10
373.86671069905856
 20
2.5055911630923617
 30
0.0
 70
0
  0
VERTEX
  5
6B9
  8
CUT
 10
373.348050297095
 20
2.228361402466142
 30
0.0
 70
0
  0
VERTEX
  5
6BA
  8
CUT
 10
372.78527096604813
 20
2.0576441587903105
 30
0.0
 70
0
  0
VERTEX
  5
6BB
  8
CUT
 10
372.19999999999976
 20
2.0
 30
0.0
 70
0
  0
VERTEX
  5
6BC
  8
CUT
 10
371.6147290339514
 20
2.0576441587903105
 30
0.0
 70
0
  0
VERTEX
  5
6BD
  8
CUT
 10
371.0519497029045
 20
2.228361402466142
 30
0.0
 70
0
  0
VERTEX
  5
6BE
  8
CUT
 10
370.53328930094096
 20
2.5055911630923617
 30
0.0
 70
0
  0
VERTEX
  5
6BF
  8
CUT
 10
370.0786796564401
 20
2.8786796564403545
 30
0.0
 70
0
  0
VERTEX
  5
6C0
  8
CUT
 10
369.70559116309215
 20
3.333289300941196
 30
0.0
 70
0
  0
VERTEX
  5
6C1
  8
CUT
 10
369.4283614024659
 20
3.851949702904733
 30
0.0
 70
0
  0
VERTEX
  5
6C2
  8
CUT
 10
369.2576441587901
 20
4.414729033951616
 30
0.0
 70
0
  0
VERTEX
  5
6C3
  8
CUT
 10
369.19999999999976
 20
5.0
 30
0.0
 70
0
  0
VERTEX
  5
6C4
  8
CUT
 10
369.2576441587901
 20
5.585270966048384
 30
0.0
 70
0
  0
VERTEX
  5
6C5
  8
CUT
 10
369.4283614024659
 20
6.148050297095267
 30
0.0
 70
0
  0
VERTEX
  5
6C6
  8
CUT
 10
369.70559116309215
 20
6.666710699058804
 30
0.0
 70
0
  0
VERTEX
  5
6C7
  8
CUT
 10
370.0786796564401
 20
7.1213203435596455
 30
0.0
 70
0
  0
VERTEX
  5
6C8
  8
CUT
 10
370.53328930094096
 20
7.494408836907638
 30
0.0
 70
0
  0
VERTEX
  5
6C9
  8
CUT
 10
371.0519497029045
 20
7.771638597533858
 30
0.0
 70
0
  0
VERTEX
  5
6CA
  8
CUT
 10
371.6147290339514
 20
7.9423558412096895
 30
0.0
 70
0
  0
VERTEX
  5
6CB
  8
CUT
 10
372.19999999999976
 20
8.0
 30
0.0
 70
0
  0
VERTEX
  5
6CC
  8
CUT
 10
372.78527096604813
 20
7.9423558412096895
 30
0.0
 70
0
  0
VERTEX
  5
6CD
  8
CUT
 10
373.348050297095
 20
7.771638597533858
 30
0.0
 70
0
  0
VERTEX
  5
6CE
  8
CUT
 10
373.86671069905856
 20
7.494408836907638
 30
0.0
 70
0
  0
VERTEX
  5
6CF
  8
CUT
 10
374.3213203435594
 20
7.1213203435596455
 30
0.0
 70
0
  0
VERTEX
  5
6D0
  8
CUT
 10
374.69440883690737
 20
6.666710699058804
 30
0.0
 70
0
  0
VERTEX
  5
6D1
  8
CUT
 10
374.9716385975336
 20
6.148050297095274
 30
0.0
 70
0
  0
VERTEX
  5
6D2
  8
CUT
 10
375.14235584120945
 20
5.585270966048384
 30
0.0
 70
0
  0
SEQEND
  5
6B2
  8
CUT
  0
POLYLINE
  5
6D3
  8
CUT
 66
1
 10
0.0
 20
0.0
 30
0.0
 70
1
  0
VERTEX
  5
6D5
  8
CUT
 10
387.39999999999975
 20
5.0
 30
0.0
 70
0
  0
VERTEX
  5
6D6
  8
CUT
 10
387.3039264020159
 20
5.97545161008064
 30
0.0
 70
0
  0
VERTEX
  5
6D7
  8
CUT
 10
387.0193976625562
 20
6.91341716182545
 30
0.0
 70
0
  0
VERTEX
  5
6D8
  8
CUT
 10
386.55734806151247
 20
7.7778511650980136
 30
0.0
 70
0
  0
VERTEX
  5
6D9
  8
CUT
 10
385.9355339059325
 20
8.535533905932738
 30
0.0
 70
0
  0
VERTEX
  5
6DA
  8
CUT
 10
385.17785116509776
 20
9.157348061512728
 30
0.0
 70
0
  0
VERTEX
  5
6DB
  8
CUT
 10
384.3134171618252
 20
9.619397662556437
 30
0.0
 70
0
  0
VERTEX
  5
6DC
  8
CUT
 10
383.3754516100804
 20
9.903926402016154
 30
0.0
 70
0
  0
VERTEX
  5
6DD
  8
CUT
 10
382.39999999999975
 20
10.0
 30
0.0
 70
0
  0
VERTEX
  5
6DE
  8
CUT
 10
381.4245483899191
 20
9.903926402016154
 30
0.0
 70
0
  0
VERTEX
  5
6DF
  8
CUT
 10
380.4865828381743
 20
9.619397662556437
 30
0.0
 70
0
  0
VERTEX
  5
6E0
  8
CUT
 10
379.62214883490174
 20
9.157348061512728
 30
0.0
 70
0
  0
VERTEX
  5
6E1
  8
CUT
 10
378.864466094067
 20
8.535533905932738
 30
0.0
 70
0
  0
VERTEX
  5
6E2
  8
CUT
 10
378.24265193848703
 20
7.7778511650980136
 30
0.0
 70
0
  0
VERTEX
  5
6E3
  8
CUT
 10
377.7806023374433
 20
6.91341716182545
 30
0.0
 70
0
  0
VERTEX
  5
6E4
  8
CUT
 10
377.4960735979836
 20
5.97545161008064
 30
0.0
 70
0
  0
VERTEX
  5
6E5
  8
CUT
 10
377.39999999999975
 20
5.0
 30
0.0
 70
0
  0
VERTEX
  5
6E6
  8
CUT
 10
377.4960735979836
 20
4.02454838991936
 30
0.0
 70
0
  0
VERTEX
  5
6E7
  8
CUT
 10
377.7806023374433
 20
3.08658283817455
 30
0.0
 70
0
  0
VERTEX
  5
6E8
  8
CUT
 10
378.24265193848703
 20
2.2221488349019864
 30
0.0
 70
0
  0
VERTEX
  5
6E9
  8
CUT
 10
378.864466094067
 20
1.4644660940672622
 30
0.0
 70
0
  0
VERTEX
  5
6EA
  8
CUT
 10
379.62214883490174
 20
0.8426519384872719
 30
0.0
 70
0
  0
VERTEX
  5
6EB
  8
CUT
 10
380.4865828381743
 20
0.38060233744356964
 30
0.0
 70
0
  0
VERTEX
  5
6EC
  8
CUT
 10
381.4245483899191
 20
0.09607359798384607
 30
0.0
 70
0
  0
VERTEX
  5
6ED
  8
CUT
 10
382.39999999999975
 20
0.0
 30
0.0
 70
0
  0
VERTEX
  5
6EE
  8
CUT
 10
383.3754516100804
 20
0.09607359798384607
 30
0.0
 70
0
  0
VERTEX
  5
6EF
  8
CUT
 10
384.3134171618252
 20
0.38060233744356964
 30
0.0
 70
0
  0
VERTEX
  5
6F0
  8
CUT
 10
385.17785116509776
 20
0.8426519384872719
 30
0.0
 70
0
  0
VERTEX
  5
6F1
  8
CUT
 10
385.9355339059325
 20
1.4644660940672622
 30
0.0
 70
0
  0
VERTEX
  5
6F2
  8
CUT
 10
386.55734806151247
 20
2.2221488349019864
 30
0.0
 70
0
  0
VERTEX
  5
6F3
  8
CUT
 10
387.0193976625562
 20
3.08658283817455
 30
0.0
 70
0
  0
VERTEX
  5
6F4
  8
CUT
 10
387.3039264020159
 20
4.024548389919353
 30
0.0
 70
0
  0
SEQEND
  5
6D4
  8
CUT
  0
POLYLINE
  5
6F5
  8
CUT
 66
1
 10
0.0
 20
0.0
 30
0.0
 70
1
  0
VERTEX
  5
6F7
  8
CUT
 10
385.39999999999975
 20
5.0
 30
0.0
 70
0
  0
VERTEX
  5
6F8
  8
CUT
 10
385.34235584120944
 20
4.414729033951616
 30
0.0
 70
0
  0
VERTEX
  5
6F9
  8
CUT
 10
385.1716385975336
 20
3.851949702904733
 30
0.0
 70
0
  0
VERTEX
  5
6FA
  8
CUT
 10
384.89440883690736
 20
3.333289300941196
 30
0.0
 70
0
  0
VERTEX
  5
6FB
  8
CUT
 10
384.5213203435594
 20
2.8786796564403545
 30
0.0
 70
0
  0
VERTEX
  5
6FC
  8
CUT
 10
384.06671069905855
 20
2.5055911630923617
 30
0.0
 70
0
  0
VERTEX
  5
6FD
  8
CUT
 10
383.548050297095
 20
2.228361402466142
 30
0.0
 70
0
  0
VERTEX
  5
6FE
  8
CUT
 10
382.9852709660481
 20
2.0576441587903105
 30
0.0
 70
0
  0
VERTEX
  5
6FF
  8
CUT
 10
382.39999999999975
 20
2.0
 30
0.0
 70
0
  0
VERTEX
  5
700
  8
CUT
 10
381.8147290339514
 20
2.0576441587903105
 30
0.0
 70
0
  0
VERTEX
  5
701
  8
CUT
 10
381.2519497029045
 20
2.228361402466142
 30
0.0
 70
0
  0
VERTEX
  5
702
  8
CUT
 10
380.73328930094095
 20
2.5055911630923617
 30
0.0
 70
0
  0
VERTEX
  5
703
  8
CUT
 10
380.2786796564401
 20
2.8786796564403545
 30
0.0
 70
0
  0
VERTEX
  5
704
  8
CUT
 10
379.90559116309214
 20
3.333289300941196
 30
0.0
 70
0
  0
VERTEX
  5
705
  8
CUT
 10
379.6283614024659
 20
3.851949702904733
 30
0.0
 70
0
  0
VERTEX
  5
706
  8
CUT
 10
379.45764415879006
 20
4.414729033951616
 30
0.0
 70
0
  0
VERTEX
  5
707
  8
CUT
 10
379.39999999999975
 20
5.0
 30
0.0
 70
0
  0
VERTEX
  5
708
  8
CUT
 10
379.45764415879006
 20
5.585270966048384
 30
0.0
 70
0
  0
VERTEX
  5
709
  8
CUT
 10
379.6283614024659
 20
6.148050297095267
 30
0.0
 70
0
  0
VERTEX
  5
70A
  8
CUT
 10
379.90559116309214
 20
6.666710699058804
 30
0.0
 70
0
  0
VERTEX
  5
70B
  8
CUT
 10
380.2786796564401
 20
7.1213203435596455
 30
0.0
 70
0
  0
VERTEX
  5
70C
  8
CUT
 10
380.73328930094095
 20
7.494408836907638
 30
0.0
 70
0
  0
VERTEX
  5
70D
  8
CUT
 10
381.2519497029045
 20
7.771638597533858
 30
0.0
 70
0
  0
VERTEX
  5
70E
  8
CUT
 10
381.8147290339514
 20
7.9423558412096895
 30
0.0
 70
0
  0
VERTEX
  5
70F
  8
CUT
 10
382.39999999999975
 20
8.0
 30
0.0
 70
0
  0
VERTEX
  5
710
  8
CUT
 10
382.9852709660481
 20
7.9423558412096895
 30
0.0
 70
0
  0
VERTEX
  5
711
  8
CUT
 10
383.548050297095
 20
7.771638597533858
 30
0.0
 70
0
  0
VERTEX
  5
712
  8
CUT
 10
384.06671069905855
 20
7.494408836907638
 30
0.0
 70
0
  0
VERTEX
  5
713
  8
CUT
 10
384.5213203435594
 20
7.1213203435596455
 30
0.0
 70
0
  0
VERTEX
  5
714
  8
CUT
 10
384.89440883690736
 20
6.666710699058804
 30
0.0
 70
0
  0
VERTEX
  5
715
  8
CUT
 10
385.1716385975336
 20
6.148050297095274
 30
0.0
 70
0
  0
VERTEX
  5
716
  8
CUT
 10
385.34235584120944
 20
5.585270966048384
 30
0.0
 70
0
  0
SEQEND
  5
6F6
  8
CUT
  0
POLYLINE
  5
717
  8
CUT
 66
1
 10
0.0
 20
0.0
 30
0.0
 70
1
  0
VERTEX
  5
719
  8
CUT
 10
397.59999999999974
 20
5.0
 30
0.0
 70
0
  0
VERTEX
  5
71A
  8
CUT
 10
397.5039264020159
 20
5.975451610080642
 30
0.0
 70
0
  0
VERTEX
  5
71B
  8
CUT
 10
397.21939766255616
 20
6.913417161825449
 30
0.0
 70
0
  0
VERTEX
  5
71C
  8
CUT
 10
396.75734806151246
 20
7.777851165098011
 30
0.0
 70
0
  0
VERTEX
  5
71D
  8
CUT
 10
396.13553390593245
 20
8.535533905932738
 30
0.0
 70
0
  0
VERTEX
  5
71E
  8
CUT
 10
395.37785116509775
 20
9.157348061512726
 30
0.0
 70
0
  0
VERTEX
  5
71F
  8
CUT
 10
394.5134171618252
 20
9.619397662556434
 30
0.0
 70
0
  0
VERTEX
  5
720
  8
CUT
 10
393.5754516100804
 20
9.903926402016152
 30
0.0
 70
0
  0
VERTEX
  5
721
  8
CUT
 10
392.59999999999974
 20
10.0
 30
0.0
 70
0
  0
VERTEX
  5
722
  8
CUT
 10
391.6245483899191
 20
9.903926402016152
 30
0.0
 70
0
  0
VERTEX
  5
723
  8
CUT
 10
390.6865828381743
 20
9.619397662556434
 30
0.0
 70
0
  0
VERTEX
  5
724
  8
CUT
 10
389.8221488349017
 20
9.157348061512726
 30
0.0
 70
0
  0
VERTEX
  5
725
  8
CUT
 10
389.06446609406703
 20
8.535533905932738
 30
0.0
 70
0
  0
VERTEX
  5
726
  8
CUT
 10
388.442651938487
 20
7.777851165098011
 30
0.0
 70
0
  0
VERTEX
  5
727
  8
CUT
 10
387.9806023374433
 20
6.91341716182545
 30
0.0
 70
0
  0
VERTEX
  5
728
  8
CUT
 10
387.69607359798357
 20
5.975451610080643
 30
0.0
 70
0
  0
VERTEX
  5
729
  8
CUT
 10
387.59999999999974
 20
5.000000000000001
 30
0.0
 70
0
  0
VERTEX
  5
72A
  8
CUT
 10
387.69607359798357
 20
4.024548389919358
 30
0.0
 70
0
  0
VERTEX
  5
72B
  8
CUT
 10
387.9806023374433
 20
3.086582838174552
 30
0.0
 70
0
  0
VERTEX
  5
72C
  8
CUT
 10
388.442651938487
 20
2.22214883490199
 30
0.0
 70
0
  0
VERTEX
  5
72D
  8
CUT
 10
389.064466094067
 20
1.4644660940672622
 30
0.0
 70
0
  0
VERTEX
  5
72E
  8
CUT
 10
389.8221488349017
 20
0.8426519384872737
 30
0.0
 70
0
  0
VERTEX
  5
72F
  8
CUT
 10
390.6865828381743
 20
0.38060233744356786
 30
0.0
 70
0
  0
VERTEX
  5
730
  8
CUT
 10
391.6245483899191
 20
0.09607359798384874
 30
0.0
 70
0
  0
VERTEX
  5
731
  8
CUT
 10
392.59999999999974
 20
0.0
 30
0.0
 70
0
  0
VERTEX
  5
732
  8
CUT
 10
393.5754516100804
 20
0.09607359798384785
 30
0.0
 70
0
  0
VERTEX
  5
733
  8
CUT
 10
394.5134171618252
 20
0.380602337443567
 30
0.0
 70
0
  0
VERTEX
  5
734
  8
CUT
 10
395.37785116509775
 20
0.8426519384872728
 30
0.0
 70
0
  0
VERTEX
  5
735
  8
CUT
 10
396.13553390593245
 20
1.4644660940672614
 30
0.0
 70
0
  0
VERTEX
  5
736
  8
CUT
 10
396.75734806151246
 20
2.222148834901989
 30
0.0
 70
0
  0
VERTEX
  5
737
  8
CUT
 10
397.21939766255616
 20
3.086582838174548
 30
0.0
 70
0
  0
VERTEX
  5
738
  8
CUT
 10
397.5039264020159
 20
4.024548389919357
 30
0.0
 70
0
  0
SEQEND
  5
718
  8
CUT
  0
POLYLINE
  5
739
  8
CUT
 66
1
 10
0.0
 20
0.0
 30
0.0
 70
1
  0
VERTEX
  5
73B
  8
CUT
 10
395.59999999999974
 20
5.0
 30
0.0
 70
0
  0
VERTEX
  5
73C
  8
CUT
 10
395.5423558412094
 20
4.414729033951615
 30
0.0
 70
0
  0
VERTEX
  5
73D
  8
CUT
 10
395.3716385975336
 20
3.8519497029047307
 30
0.0
 70
0
  0
VERTEX
  5
73E
  8
CUT
 10
395.09440883690735
 20
3.3332893009411935
 30
0.0
 70
0
  0
VERTEX
  5
73F
  8
CUT
 10
394.7213203435594
 20
2.878679656440357
 30
0.0
 70
0
  0
VERTEX
  5
740
  8
CUT
 10
394.26671069905854
 20
2.5055911630923644
 30
0.0
 70
0
  0
VERTEX
  5
741
  8
CUT
 10
393.748050297095
 20
2.22836140246614
 30
0.0
 70
0
  0
VERTEX
  5
742
  8
CUT
 10
393.1852709660481
 20
2.0576441587903087
 30
0.0
 70
0
  0
VERTEX
  5
743
  8
CUT
 10
392.59999999999974
 20
2.0
 30
0.0
 70
0
  0
VERTEX
  5
744
  8
CUT
 10
392.01472903395137
 20
2.0576441587903087
 30
0.0
 70
0
  0
VERTEX
  5
745
  8
CUT
 10
391.45194970290447
 20
2.22836140246614
 30
0.0
 70
0
  0
VERTEX
  5
746
  8
CUT
 10
390.93328930094094
 20
2.5055911630923635
 30
0.0
 70
0
  0
VERTEX
  5
747
  8
CUT
 10
390.4786796564401
 20
2.878679656440357
 30
0.0
 70
0
  0
VERTEX
  5
748
  8
CUT
 10
390.10559116309213
 20
3.3332893009411935
 30
0.0
 70
0
  0
VERTEX
  5
749
  8
CUT
 10
389.8283614024659
 20
3.8519497029047303
 30
0.0
 70
0
  0
VERTEX
  5
74A
  8
CUT
 10
389.65764415879005
 20
4.414729033951614
 30
0.0
 70
0
  0
VERTEX
  5
74B
  8
CUT
 10
389.59999999999974
 20
5.0
 30
0.0
 70
0
  0
VERTEX
  5
74C
  8
CUT
 10
389.65764415879005
 20
5.585270966048385
 30
0.0
 70
0
  0
VERTEX
  5
74D
  8
CUT
 10
389.8283614024659
 20
6.148050297095269
 30
0.0
 70
0
  0
VERTEX
  5
74E
  8
CUT
 10
390.10559116309213
 20
6.666710699058806
 30
0.0
 70
0
  0
VERTEX
  5
74F
  8
CUT
 10
390.4786796564401
 20
7.121320343559643
 30
0.0
 70
0
  0
VERTEX
  5
750
  8
CUT
 10
390.93328930094094
 20
7.494408836907636
 30
0.0
 70
0
  0
VERTEX
  5
751
  8
CUT
 10
391.45194970290447
 20
7.77163859753386
 30
0.0
 70
0
  0
VERTEX
  5
752
  8
CUT
 10
392.01472903395137
 20
7.942355841209691
 30
0.0
 70
0
  0
VERTEX
  5
753
  8
CUT
 10
392.59999999999974
 20
8.0
 30
0.0
 70
0
  0
VERTEX
  5
754
  8
CUT
 10
393.1852709660481
 20
7.942355841209691
 30
0.0
 70
0
  0
VERTEX
  5
755
  8
CUT
 10
393.748050297095
 20
7.77163859753386
 30
0.0
 70
0
  0
VERTEX
  5
756
  8
CUT
 10
394.26671069905854
 20
7.4944088369076365
 30
0.0
 70
0
  0
VERTEX
  5
757
  8
CUT
 10
394.7213203435594
 20
7.121320343559643
 30
0.0
 70
0
  0
VERTEX
  5
758
  8
CUT
 10
395.09440883690735
 20
6.6667106990588065
 30
0.0
 70
0
  0
VERTEX
  5
759
  8
CUT
 10
395.3716385975336
 20
6.148050297095271
 30
0.0
 70
0
  0
VERTEX
  5
75A
  8
CUT
 10
395.5423558412094
 20
5.585270966048386
 30
0.0
 70
0
  0
SEQEND
  5
73A
  8
CUT
  0
ENDSEC
  0
EOF
