  0
SECTION
  2
HEADER
  9
$ACADVER
  1
AC1009
  9
$DWGCODEPAGE
  3
ANSI_1252
  9
$INSBASE
 10
0.0
 20
0.0
 30
0.0
  9
$EXTMIN
 10
1e+20
 20
1e+20
 30
1e+20
  9
$EXTMAX
 10
-1e+20
 20
-1e+20
 30
-1e+20
  9
$LIMMIN
 10
0.0
 20
0.0
  9
$LIMMAX
 10
420.0
 20
297.0
  9
$ORTHOMODE
 70
0
  9
$REGENMODE
 70
1
  9
$FILLMODE
 70
1
  9
$DRAGMODE
 70
2
  9
$QTEXTMODE
 70
0
  9
$MIRRTEXT
 70
1
  9
$OSMODE
 70
20583
  9
$LTSCALE
 40
1.0
  9
$ATTMODE
 70
1
  9
$TEXTSIZE
 40
2.5
  9
$TRACEWID
 40
1.0
  9
$TEXTSTYLE
  7
Standard
  9
$CLAYER
  8
0
  9
$CELTYPE
  6
ByLayer
  9
$CECOLOR
 62
256
  9
$DIMSCALE
 40
1.0
  9
$DIMASZ
 40
2.5
  9
$DIMEXO
 40
0.625
  9
$DIMDLI
 40
3.75
  9
$DIMRND
 40
0.0
  9
$DIMDLE
 40
0.0
  9
$DIMEXE
 40
1.25
  9
$DIMTP
 40
0.0
  9
$DIMTM
 40
0.0
  9
$DIMTXT
 40
2.5
  9
$DIMCEN
 40
2.5
  9
$DIMTSZ
 40
0.0
  9
$DIMTOL
 70
0
  9
$DIMLIM
 70
0
  9
$DIMTIH
 70
0
  9
$DIMTOH
 70
0
  9
$DIMSE1
 70
0
  9
$DIMSE2
 70
0
  9
$DIMTAD
 70
1
  9
$DIMZIN
 70
8
  9
$DIMBLK
  1

  9
$DIMASO
 70
1
  9
$DIMSHO
 70
1
  9
$DIMPOST
  1

  9
$DIMAPOST
  1

  9
$DIMALT
 70
0
  9
$DIMALTD
 70
3
  9
$DIMALTF
 40
0.03937007874
  9
$DIMLFAC
 40
1.0
  9
$DIMTOFL
 70
1
  9
$DIMTVP
 40
0.0
  9
$DIMTIX
 70
0
  9
$DIMSOXD
 70
0
  9
$DIMSAH
 70
0
  9
$DIMBLK1
  1

  9
$DIMBLK2
  1

  9
$DIMSTYLE
  2
ISO-25
  9
$DIMCLRD
 70
0
  9
$DIMCLRE
 70
0
  9
$DIMCLRT
 70
0
  9
$DIMTFAC
 40
1.0
  9
$DIMGAP
 40
0.625
  9
$COORDS
 70
1
  9
$ATTDIA
 70
0
  9
$ATTREQ
 70
1
  9
$HANDLING
 70
1
  9
$LUNITS
 70
2
  9
$LUPREC
 70
4
  9
$SKETCHINC
 40
1.0
  9
$FILLETRAD
 40
10.0
  9
$AUNITS
 70
0
  9
$AUPREC
 70
2
  9
$MENU
  1
.
  9
$ELEVATION
 40
0.0
  9
$PELEVATION
 40
0.0
  9
$THICKNESS
 40
0.0
  9
$LIMCHECK
 70
0
  9
$CHAMFERA
 40
0.0
  9
$CHAMFERB
 40
0.0
  9
$SKPOLY
 70
0
  9
$TDCREATE
 40
2461262.7422916666
  9
$TDUPDATE
 40
2461262.7422916666
  9
$TDINDWG
 40
0.0
  9
$TDUSRTIMER
 40
0.0
  9
$USRTIMER
 70
1
  9
$ANGBASE
 50
0.0
  9
$ANGDIR
 70
0
  9
$PDMODE
 70
0
  9
$PDSIZE
 40
0.0
  9
$PLINEWID
 40
0.0
  9
$SPLFRAME
 70
0
  9
$SPLINETYPE
 70
6
  9
$SPLINESEGS
 70
8
  9
$HANDSEED
  5
62D
  9
$SURFTAB1
 70
6
  9
$SURFTAB2
 70
6
  9
$SURFTYPE
 70
6
  9
$SURFU
 70
6
  9
$SURFV
 70
6
  9
$UCSNAME
  2

  9
$UCSORG
 10
0.0
 20
0.0
 30
0.0
  9
$UCSXDIR
 10
1.0
 20
0.0
 30
0.0
  9
$UCSYDIR
 10
0.0
 20
1.0
 30
0.0
  9
$PUCSNAME
  2

  9
$PUCSORG
 10
0.0
 20
0.0
 30
0.0
  9
$PUCSXDIR
 10
1.0
 20
0.0
 30
0.0
  9
$PUCSYDIR
 10
0.0
 20
1.0
 30
0.0
  9
$USERI1
 70
0
  9
$USERI2
 70
0
  9
$USERI3
 70
0
  9
$USERI4
 70
0
  9
$USERI5
 70
0
  9
$USERR1
 40
0.0
  9
$USERR2
 40
0.0
  9
$USERR3
 40
0.0
  9
$USERR4
 40
0.0
  9
$USERR5
 40
0.0
  9
$WORLDVIEW
 70
1
  9
$SHADEDGE
 70
3
  9
$SHADEDIF
 70
70
  9
$TILEMODE
 70
1
  9
$MAXACTVP
 70
64
  9
$PLIMCHECK
 70
0
  9
$PEXTMIN
 10
1e+20
 20
1e+20
 30
1e+20
  9
$PEXTMAX
 10
-1e+20
 20
-1e+20
 30
-1e+20
  9
$PLIMMIN
 10
0.0
 20
0.0
  9
$PLIMMAX
 10
420.0
 20
297.0
  9
$UNITMODE
 70
0
  9
$VISRETAIN
 70
1
  9
$PLINEGEN
 70
0
  9
$PSLTSCALE
 70
1
  0
ENDSEC
  0
SECTION
  2
TABLES
  0
TABLE
  2
VPORT
 70
1
  0
VPORT
  5
23
  2
*Active
 70
0
 10
0.0
 20
0.0
 11
1.0
 21
1.0
 12
0.0
 22
0.0
 13
0.0
 23
0.0
 14
0.5
 24
0.5
 15
0.5
 25
0.5
 16
0.0
 26
0.0
 36
1.0
 17
0.0
 27
0.0
 37
0.0
 40
1000.0
 41
1.34
 42
50.0
 43
0.0
 44
0.0
 50
0.0
 51
0.0
 71
0
 72
1000
 73
1
 74
3
 75
0
 76
0
 77
0
 78
0
  0
ENDTAB
  0
TABLE
  2
LTYPE
 70
3
  0
LTYPE
  5
24
  2
ByBlock
 70
0
  3

 72
65
 73
0
 40
0.0
  0
LTYPE
  5
25
  2
ByLayer
 70
0
  3

 72
65
 73
0
 40
0.0
  0
LTYPE
  5
26
  2
Continuous
 70
0
  3

 72
65
 73
0
 40
0.0
  0
ENDTAB
  0
TABLE
  2
LAYER
 70
4
  0
LAYER
  5
27
  2
0
 70
0
 62
7
  6
Continuous
  0
LAYER
  5
28
  2
Defpoints
 70
0
 62
7
  6
Continuous
  0
LAYER
  5
2D
  2
CUT
 70
0
 62
1
  6
Continuous
  0
LAYER
  5
2E
  2
ENGRAVE
 70
0
 62
5
  6
Continuous
  0
ENDTAB
  0
TABLE
  2
STYLE
 70
1
  0
STYLE
  5
29
  2
Standard
 70
0
 40
0.0
 41
1.0
 50
0.0
 71
0
 42
2.5
  3
txt
  4

  0
ENDTAB
  0
TABLE
  2
VIEW
 70
0
  0
ENDTAB
  0
TABLE
  2
UCS
 70
0
  0
ENDTAB
  0
TABLE
  2
APPID
 70
3
  0
APPID
  5
2A
  2
ACAD
 70
0
  0
APPID
  5
62B
  2
HATCHBACKGROUNDCOLOR
 70
0
  0
APPID
  5
62C
  2
EZDXF
 70
0
  0
ENDTAB
  0
TABLE
  2
DIMSTYLE
 70
1
  0
DIMSTYLE
105
2B
  2
Standard
 70
0
  3

  4

  5

  6

  7

 40
1.0
 41
2.5
 42
0.625
 43
3.75
 44
1.25
 45
0.0
 46
0.0
 47
0.0
 48
0.0
140
2.5
141
2.5
142
0.0
143
0.03937007874
144
1.0
145
0.0
146
1.0
147
0.625
 71
0
 72
0
 73
0
 74
0
 75
0
 76
0
 77
1
 78
8
170
0
171
3
172
1
173
0
174
0
175
0
176
0
177
0
178
0
  0
ENDTAB
  0
ENDSEC
  0
SECTION
  2
BLOCKS
  0
BLOCK
  5
18
  8
0
  2
$Model_Space
 70
0
 10
0.0
 20
0.0
 30
0.0
  3
$Model_Space
  1

1001
EZDXF
1000
CREATED_BY_EZDXF
1000
1.4.4 @ 2026-08-09T15:48:54.284799+00:00
1000
WRITTEN_BY_EZDXF
1000
1.4.4 @ 2026-08-09T15:48:54.343283+00:00
  0
ENDBLK
  5
19
  8
0
  0
BLOCK
  5
1C
  8
0
  2
$Paper_Space
 70
0
 10
0.0
 20
0.0
 30
0.0
  3
$Paper_Space
  1

  0
ENDBLK
  5
1D
  8
0
  0
ENDSEC
  0
SECTION
  2
ENTITIES
  0
POLYLINE
  5
2F
  8
CUT
 66
1
 10
0.0
 20
0.0
 30
0.0
 70
1
  0
VERTEX
  5
31
  8
CUT
 10
80.0
 20
40.0
 30
0.0
 70
0
  0
VERTEX
  5
32
  8
CUT
 10
79.93740119934083
 20
41.27422279715538
 30
0.0
 70
0
  0
VERTEX
  5
33
  8
CUT
 10
79.80738830566406
 20
43.92068552970886
 30
0.0
 70
0
  0
VERTEX
  5
34
  8
CUT
 10
79.62019567489624
 20
45.18263686299324
 30
0.0
 70
0
  0
VERTEX
  5
35
  8
CUT
 10
79.23141098022461
 20
47.80361270904541
 30
0.0
 70
0
  0
VERTEX
  5
36
  8
CUT
 10
78.92142715454102
 20
49.04113943576813
 30
0.0
 70
0
  0
VERTEX
  5
37
  8
CUT
 10
78.27761459350586
 20
51.61138725280762
 30
0.0
 70
0
  0
VERTEX
  5
38
  8
CUT
 10
77.84782371520996
 20
52.81257116794586
 30
0.0
 70
0
  0
VERTEX
  5
39
  8
CUT
 10
76.95518112182617
 20
55.30733776092529
 30
0.0
 70
0
  0
VERTEX
  5
3A
  8
CUT
 10
76.4097240447998
 20
56.46061050891876
 30
0.0
 70
0
  0
VERTEX
  5
3B
  8
CUT
 10
75.27685165405273
 20
58.85586929321289
 30
0.0
 70
0
  0
VERTEX
  5
3C
  8
CUT
 10
74.62098007202148
 20
59.95012464523315
 30
0.0
 70
0
  0
VERTEX
  5
3D
  8
CUT
 10
73.25878524780273
 20
62.222808837890625
 30
0.0
 70
0
  0
VERTEX
  5
3E
  8
CUT
 10
72.49881582260132
 20
63.24750838279724
 30
0.0
 70
0
  0
VERTEX
  5
3F
  8
CUT
 10
70.92041778564453
 20
65.37573051452637
 30
0.0
 70
0
  0
VERTEX
  5
40
  8
CUT
 10
70.06367015838623
 20
66.32100625038147
 30
0.0
 70
0
  0
VERTEX
  5
41
  8
CUT
 10
68.28427124023438
 20
68.28427124023438
 30
0.0
 70
0
  0
VERTEX
  5
42
  8
CUT
 10
67.33899550437927
 20
69.14101886749268
 30
0.0
 70
0
  0
VERTEX
  5
43
  8
CUT
 10
65.37573051452637
 20
70.92041778564453
 30
0.0
 70
0
  0
VERTEX
  5
44
  8
CUT
 10
64.35103096961976
 20
71.68038721084595
 30
0.0
 70
0
  0
VERTEX
  5
45
  8
CUT
 10
62.222808837890625
 20
73.25878524780273
 30
0.0
 70
0
  0
VERTEX
  5
46
  8
CUT
 10
61.12855348587036
 20
73.91465682983399
 30
0.0
 70
0
  0
VERTEX
  5
47
  8
CUT
 10
58.85586929321289
 20
75.27685165405273
 30
0.0
 70
0
  0
VERTEX
  5
48
  8
CUT
 10
57.70259654521942
 20
75.8223087310791
 30
0.0
 70
0
  0
VERTEX
  5
49
  8
CUT
 10
55.30733776092529
 20
76.95518112182617
 30
0.0
 70
0
  0
VERTEX
  5
4A
  8
CUT
 10
54.10615384578705
 20
77.38497200012208
 30
0.0
 70
0
  0
VERTEX
  5
4B
  8
CUT
 10
51.61138725280762
 20
78.27761459350586
 30
0.0
 70
0
  0
VERTEX
  5
4C
  8
CUT
 10
50.3738605260849
 20
78.58759841918945
 30
0.0
 70
0
  0
VERTEX
  5
4D
  8
CUT
 10
47.80361270904541
 20
79.23141098022461
 30
0.0
 70
0
  0
VERTEX
  5
4E
  8
CUT
 10
46.54166137576103
 20
79.41860361099243
 30
0.0
 70
0
  0
VERTEX
  5
4F
  8
CUT
 10
43.92068552970886
 20
79.80738830566406
 30
0.0
 70
0
  0
VERTEX
  5
50
  8
CUT
 10
42.64646273255348
 20
79.86998710632324
 30
0.0
 70
0
  0
VERTEX
  5
51
  8
CUT
 10
40.0
 20
80.0
 30
0.0
 70
0
  0
VERTEX
  5
52
  8
CUT
 10
38.72577720284462
 20
79.93740119934083
 30
0.0
 70
0
  0
VERTEX
  5
53
  8
CUT
 10
36.07931447029114
 20
79.80738830566406
 30
0.0
 70
0
  0
VERTEX
  5
54
  8
CUT
 10
34.81736313700676
 20
79.62019567489624
 30
0.0
 70
0
  0
VERTEX
  5
55
  8
CUT
 10
32.19638729095459
 20
79.23141098022461
 30
0.0
 70
0
  0
VERTEX
  5
56
  8
CUT
 10
30.95886056423187
 20
78.92142715454102
 30
0.0
 70
0
  0
VERTEX
  5
57
  8
CUT
 10
28.388612747192383
 20
78.27761459350586
 30
0.0
 70
0
  0
VERTEX
  5
58
  8
CUT
 10
27.187428832054138
 20
77.84782371520996
 30
0.0
 70
0
  0
VERTEX
  5
59
  8
CUT
 10
24.692662239074707
 20
76.95518112182617
 30
0.0
 70
0
  0
VERTEX
  5
5A
  8
CUT
 10
23.539389491081238
 20
76.4097240447998
 30
0.0
 70
0
  0
VERTEX
  5
5B
  8
CUT
 10
21.14413070678711
 20
75.27685165405273
 30
0.0
 70
0
  0
VERTEX
  5
5C
  8
CUT
 10
20.049875354766847
 20
74.62098007202148
 30
0.0
 70
0
  0
VERTEX
  5
5D
  8
CUT
 10
17.777191162109375
 20
73.25878524780273
 30
0.0
 70
0
  0
VERTEX
  5
5E
  8
CUT
 10
16.752491617202757
 20
72.49881582260132
 30
0.0
 70
0
  0
VERTEX
  5
5F
  8
CUT
 10
14.624269485473633
 20
70.92041778564453
 30
0.0
 70
0
  0
VERTEX
  5
60
  8
CUT
 10
13.678993749618531
 20
70.06367015838623
 30
0.0
 70
0
  0
VERTEX
  5
61
  8
CUT
 10
11.715728759765625
 20
68.28427124023438
 30
0.0
 70
0
  0
VERTEX
  5
62
  8
CUT
 10
10.858981132507324
 20
67.33899550437927
 30
0.0
 70
0
  0
VERTEX
  5
63
  8
CUT
 10
9.079582214355469
 20
65.37573051452637
 30
0.0
 70
0
  0
VERTEX
  5
64
  8
CUT
 10
8.319612789154053
 20
64.35103096961976
 30
0.0
 70
0
  0
VERTEX
  5
65
  8
CUT
 10
6.741214752197266
 20
62.222808837890625
 30
0.0
 70
0
  0
VERTEX
  5
66
  8
CUT
 10
6.085343170166013
 20
61.12855348587036
 30
0.0
 70
0
  0
VERTEX
  5
67
  8
CUT
 10
4.723148345947266
 20
58.85586929321289
 30
0.0
 70
0
  0
VERTEX
  5
68
  8
CUT
 10
4.177691268920896
 20
57.70259654521942
 30
0.0
 70
0
  0
VERTEX
  5
69
  8
CUT
 10
3.044818878173828
 20
55.30733776092529
 30
0.0
 70
0
  0
VERTEX
  5
6A
  8
CUT
 10
2.615027999877931
 20
54.10615384578705
 30
0.0
 70
0
  0
VERTEX
  5
6B
  8
CUT
 10
1.7223854064941406
 20
51.61138725280762
 30
0.0
 70
0
  0
VERTEX
  5
6C
  8
CUT
 10
1.4124015808105455
 20
50.3738605260849
 30
0.0
 70
0
  0
VERTEX
  5
6D
  8
CUT
 10
0.7685890197753906
 20
47.80361270904541
 30
0.0
 70
0
  0
VERTEX
  5
6E
  8
CUT
 10
0.5813963890075655
 20
46.54166137576103
 30
0.0
 70
0
  0
VERTEX
  5
6F
  8
CUT
 10
0.1926116943359375
 20
43.92068552970886
 30
0.0
 70
0
  0
VERTEX
  5
70
  8
CUT
 10
0.1300128936767564
 20
42.64646273255348
 30
0.0
 70
0
  0
VERTEX
  5
71
  8
CUT
 10
0.0
 20
39.99999999999999
 30
0.0
 70
0
  0
VERTEX
  5
72
  8
CUT
 10
0.06259880065918111
 20
38.72577720284461
 30
0.0
 70
0
  0
VERTEX
  5
73
  8
CUT
 10
0.1926116943359375
 20
36.07931447029114
 30
0.0
 70
0
  0
VERTEX
  5
74
  8
CUT
 10
0.3798043251037626
 20
34.81736313700676
 30
0.0
 70
0
  0
VERTEX
  5
75
  8
CUT
 10
0.7685890197753906
 20
32.19638729095459
 30
0.0
 70
0
  0
VERTEX
  5
76
  8
CUT
 10
1.0785728454589858
 20
30.95886056423187
 30
0.0
 70
0
  0
VERTEX
  5
77
  8
CUT
 10
1.7223854064941406
 20
28.388612747192383
 30
0.0
 70
0
  0
VERTEX
  5
78
  8
CUT
 10
2.1521762847900376
 20
27.187428832054138
 30
0.0
 70
0
  0
VERTEX
  5
79
  8
CUT
 10
3.044818878173828
 20
24.692662239074707
 30
0.0
 70
0
  0
VERTEX
  5
7A
  8
CUT
 10
3.590275955200198
 20
23.539389491081238
 30
0.0
 70
0
  0
VERTEX
  5
7B
  8
CUT
 10
4.723148345947266
 20
21.14413070678711
 30
0.0
 70
0
  0
VERTEX
  5
7C
  8
CUT
 10
5.3790199279785185
 20
20.049875354766847
 30
0.0
 70
0
  0
VERTEX
  5
7D
  8
CUT
 10
6.741214752197266
 20
17.777191162109375
 30
0.0
 70
0
  0
VERTEX
  5
7E
  8
CUT
 10
7.5011841773986845
 20
16.752491617202757
 30
0.0
 70
0
  0
VERTEX
  5
7F
  8
CUT
 10
9.079582214355469
 20
14.624269485473633
 30
0.0
 70
0
  0
VERTEX
  5
80
  8
CUT
 10
9.93632984161377
 20
13.678993749618531
 30
0.0
 70
0
  0
VERTEX
  5
81
  8
CUT
 10
11.715728759765625
 20
11.715728759765625
 30
0.0
 70
0
  0
VERTEX
  5
82
  8
CUT
 10
12.661004495620727
 20
10.858981132507324
 30
0.0
 70
0
  0
VERTEX
  5
83
  8
CUT
 10
14.624269485473633
 20
9.079582214355469
 30
0.0
 70
0
  0
VERTEX
  5
84
  8
CUT
 10
15.64896903038025
 20
8.319612789154053
 30
0.0
 70
0
  0
VERTEX
  5
85
  8
CUT
 10
17.777191162109375
 20
6.741214752197266
 30
0.0
 70
0
  0
VERTEX
  5
86
  8
CUT
 10
18.871446514129637
 20
6.085343170166013
 30
0.0
 70
0
  0
VERTEX
  5
87
  8
CUT
 10
21.14413070678711
 20
4.723148345947266
 30
0.0
 70
0
  0
VERTEX
  5
88
  8
CUT
 10
22.29740345478058
 20
4.177691268920896
 30
0.0
 70
0
  0
VERTEX
  5
89
  8
CUT
 10
24.692662239074707
 20
3.044818878173828
 30
0.0
 70
0
  0
VERTEX
  5
8A
  8
CUT
 10
25.89384615421295
 20
2.615027999877931
 30
0.0
 70
0
  0
VERTEX
  5
8B
  8
CUT
 10
28.388612747192383
 20
1.7223854064941406
 30
0.0
 70
0
  0
VERTEX
  5
8C
  8
CUT
 10
29.626139473915103
 20
1.4124015808105455
 30
0.0
 70
0
  0
VERTEX
  5
8D
  8
CUT
 10
32.19638729095459
 20
0.7685890197753906
 30
0.0
 70
0
  0
VERTEX
  5
8E
  8
CUT
 10
33.45833862423897
 20
0.5813963890075655
 30
0.0
 70
0
  0
VERTEX
  5
8F
  8
CUT
 10
36.07931447029114
 20
0.1926116943359375
 30
0.0
 70
0
  0
VERTEX
  5
90
  8
CUT
 10
37.35353726744652
 20
0.1300128936767564
 30
0.0
 70
0
  0
VERTEX
  5
91
  8
CUT
 10
40.00000000000001
 20
0.0
 30
0.0
 70
0
  0
VERTEX
  5
92
  8
CUT
 10
41.27422279715538
 20
0.06259880065918111
 30
0.0
 70
0
  0
VERTEX
  5
93
  8
CUT
 10
43.92068552970886
 20
0.1926116943359375
 30
0.0
 70
0
  0
VERTEX
  5
94
  8
CUT
 10
45.18263686299324
 20
0.3798043251037626
 30
0.0
 70
0
  0
VERTEX
  5
95
  8
CUT
 10
47.80361270904541
 20
0.7685890197753906
 30
0.0
 70
0
  0
VERTEX
  5
96
  8
CUT
 10
49.04113943576813
 20
1.0785728454589858
 30
0.0
 70
0
  0
VERTEX
  5
97
  8
CUT
 10
51.61138725280762
 20
1.7223854064941406
 30
0.0
 70
0
  0
VERTEX
  5
98
  8
CUT
 10
52.81257116794586
 20
2.1521762847900376
 30
0.0
 70
0
  0
VERTEX
  5
99
  8
CUT
 10
55.30733776092529
 20
3.044818878173828
 30
0.0
 70
0
  0
VERTEX
  5
9A
  8
CUT
 10
56.46061050891876
 20
3.590275955200198
 30
0.0
 70
0
  0
VERTEX
  5
9B
  8
CUT
 10
58.85586929321289
 20
4.723148345947266
 30
0.0
 70
0
  0
VERTEX
  5
9C
  8
CUT
 10
59.95012464523315
 20
5.3790199279785185
 30
0.0
 70
0
  0
VERTEX
  5
9D
  8
CUT
 10
62.222808837890625
 20
6.741214752197266
 30
0.0
 70
0
  0
VERTEX
  5
9E
  8
CUT
 10
63.24750838279724
 20
7.5011841773986845
 30
0.0
 70
0
  0
VERTEX
  5
9F
  8
CUT
 10
65.37573051452637
 20
9.079582214355469
 30
0.0
 70
0
  0
VERTEX
  5
A0
  8
CUT
 10
66.32100625038147
 20
9.93632984161377
 30
0.0
 70
0
  0
VERTEX
  5
A1
  8
CUT
 10
68.28427124023438
 20
11.715728759765625
 30
0.0
 70
0
  0
VERTEX
  5
A2
  8
CUT
 10
69.14101886749268
 20
12.661004495620727
 30
0.0
 70
0
  0
VERTEX
  5
A3
  8
CUT
 10
70.92041778564453
 20
14.624269485473633
 30
0.0
 70
0
  0
VERTEX
  5
A4
  8
CUT
 10
71.68038721084595
 20
15.64896903038025
 30
0.0
 70
0
  0
VERTEX
  5
A5
  8
CUT
 10
73.25878524780273
 20
17.777191162109375
 30
0.0
 70
0
  0
VERTEX
  5
A6
  8
CUT
 10
73.91465682983399
 20
18.871446514129637
 30
0.0
 70
0
  0
VERTEX
  5
A7
  8
CUT
 10
75.27685165405273
 20
21.14413070678711
 30
0.0
 70
0
  0
VERTEX
  5
A8
  8
CUT
 10
75.8223087310791
 20
22.29740345478058
 30
0.0
 70
0
  0
VERTEX
  5
A9
  8
CUT
 10
76.95518112182617
 20
24.692662239074707
 30
0.0
 70
0
  0
VERTEX
  5
AA
  8
CUT
 10
77.38497200012208
 20
25.89384615421295
 30
0.0
 70
0
  0
VERTEX
  5
AB
  8
CUT
 10
78.27761459350586
 20
28.388612747192383
 30
0.0
 70
0
  0
VERTEX
  5
AC
  8
CUT
 10
78.58759841918945
 20
29.626139473915103
 30
0.0
 70
0
  0
VERTEX
  5
AD
  8
CUT
 10
79.23141098022461
 20
32.19638729095459
 30
0.0
 70
0
  0
VERTEX
  5
AE
  8
CUT
 10
79.41860361099243
 20
33.45833862423897
 30
0.0
 70
0
  0
VERTEX
  5
AF
  8
CUT
 10
79.80738830566406
 20
36.07931447029114
 30
0.0
 70
0
  0
VERTEX
  5
B0
  8
CUT
 10
79.86998710632324
 20
37.35353726744652
 30
0.0
 70
0
  0
SEQEND
  5
30
  8
CUT
  0
POLYLINE
  5
B1
  8
CUT
 66
1
 10
0.0
 20
0.0
 30
0.0
 70
1
  0
VERTEX
  5
B3
  8
CUT
 10
33.0
 20
8.000000000000004
 30
0.0
 70
0
  0
VERTEX
  5
B4
  8
CUT
 10
32.94235584120969
 20
7.414729033951616
 30
0.0
 70
0
  0
VERTEX
  5
B5
  8
CUT
 10
32.77163859753386
 20
6.851949702904733
 30
0.0
 70
0
  0
VERTEX
  5
B6
  8
CUT
 10
32.49440883690764
 20
6.333289300941196
 30
0.0
 70
0
  0
VERTEX
  5
B7
  8
CUT
 10
32.121320343559645
 20
5.8786796564403545
 30
0.0
 70
0
  0
VERTEX
  5
B8
  8
CUT
 10
31.666710699058807
 20
5.505591163092362
 30
0.0
 70
0
  0
VERTEX
  5
B9
  8
CUT
 10
31.148050297095267
 20
5.228361402466142
 30
0.0
 70
0
  0
VERTEX
  5
BA
  8
CUT
 10
30.585270966048384
 20
5.0576441587903105
 30
0.0
 70
0
  0
VERTEX
  5
BB
  8
CUT
 10
30.0
 20
5.0
 30
0.0
 70
0
  0
VERTEX
  5
BC
  8
CUT
 10
29.414729033951616
 20
5.0576441587903105
 30
0.0
 70
0
  0
VERTEX
  5
BD
  8
CUT
 10
28.851949702904733
 20
5.228361402466142
 30
0.0
 70
0
  0
VERTEX
  5
BE
  8
CUT
 10
28.333289300941196
 20
5.505591163092362
 30
0.0
 70
0
  0
VERTEX
  5
BF
  8
CUT
 10
27.878679656440358
 20
5.8786796564403545
 30
0.0
 70
0
  0
VERTEX
  5
C0
  8
CUT
 10
27.50559116309236
 20
6.333289300941196
 30
0.0
 70
0
  0
VERTEX
  5
C1
  8
CUT
 10
27.228361402466142
 20
6.851949702904733
 30
0.0
 70
0
  0
VERTEX
  5
C2
  8
CUT
 10
27.05764415879031
 20
7.414729033951616
 30
0.0
 70
0
  0
VERTEX
  5
C3
  8
CUT
 10
27.0
 20
8.000000000000004
 30
0.0
 70
0
  0
VERTEX
  5
C4
  8
CUT
 10
27.05764415879031
 20
8.585270966048384
 30
0.0
 70
0
  0
VERTEX
  5
C5
  8
CUT
 10
27.228361402466142
 20
9.14805029709527
 30
0.0
 70
0
  0
VERTEX
  5
C6
  8
CUT
 10
27.50559116309236
 20
9.666710699058807
 30
0.0
 70
0
  0
VERTEX
  5
C7
  8
CUT
 10
27.878679656440358
 20
10.121320343559642
 30
0.0
 70
0
  0
VERTEX
  5
C8
  8
CUT
 10
28.333289300941193
 20
10.494408836907635
 30
0.0
 70
0
  0
VERTEX
  5
C9
  8
CUT
 10
28.85194970290473
 20
10.771638597533858
 30
0.0
 70
0
  0
VERTEX
  5
CA
  8
CUT
 10
29.414729033951616
 20
10.94235584120969
 30
0.0
 70
0
  0
VERTEX
  5
CB
  8
CUT
 10
30.0
 20
11.0
 30
0.0
 70
0
  0
VERTEX
  5
CC
  8
CUT
 10
30.585270966048384
 20
10.94235584120969
 30
0.0
 70
0
  0
VERTEX
  5
CD
  8
CUT
 10
31.14805029709527
 20
10.771638597533858
 30
0.0
 70
0
  0
VERTEX
  5
CE
  8
CUT
 10
31.666710699058804
 20
10.494408836907638
 30
0.0
 70
0
  0
VERTEX
  5
CF
  8
CUT
 10
32.121320343559645
 20
10.121320343559642
 30
0.0
 70
0
  0
VERTEX
  5
D0
  8
CUT
 10
32.49440883690764
 20
9.666710699058807
 30
0.0
 70
0
  0
VERTEX
  5
D1
  8
CUT
 10
32.77163859753386
 20
9.14805029709527
 30
0.0
 70
0
  0
VERTEX
  5
D2
  8
CUT
 10
32.94235584120969
 20
8.585270966048387
 30
0.0
 70
0
  0
SEQEND
  5
B2
  8
CUT
  0
POLYLINE
  5
D3
  8
CUT
 66
1
 10
0.0
 20
0.0
 30
0.0
 70
1
  0
VERTEX
  5
D5
  8
CUT
 10
53.0
 20
72.0
 30
0.0
 70
0
  0
VERTEX
  5
D6
  8
CUT
 10
52.94235584120969
 20
71.41472903395162
 30
0.0
 70
0
  0
VERTEX
  5
D7
  8
CUT
 10
52.77163859753386
 20
70.85194970290473
 30
0.0
 70
0
  0
VERTEX
  5
D8
  8
CUT
 10
52.49440883690764
 20
70.33328930094119
 30
0.0
 70
0
  0
VERTEX
  5
D9
  8
CUT
 10
52.121320343559645
 20
69.87867965644035
 30
0.0
 70
0
  0
VERTEX
  5
DA
  8
CUT
 10
51.66671069905881
 20
69.50559116309236
 30
0.0
 70
0
  0
VERTEX
  5
DB
  8
CUT
 10
51.14805029709527
 20
69.22836140246613
 30
0.0
 70
0
  0
VERTEX
  5
DC
  8
CUT
 10
50.585270966048384
 20
69.05764415879031
 30
0.0
 70
0
  0
VERTEX
  5
DD
  8
CUT
 10
50.0
 20
69.0
 30
0.0
 70
0
  0
VERTEX
  5
DE
  8
CUT
 10
49.414729033951616
 20
69.05764415879031
 30
0.0
 70
0
  0
VERTEX
  5
DF
  8
CUT
 10
48.85194970290473
 20
69.22836140246613
 30
0.0
 70
0
  0
VERTEX
  5
E0
  8
CUT
 10
48.333289300941196
 20
69.50559116309236
 30
0.0
 70
0
  0
VERTEX
  5
E1
  8
CUT
 10
47.878679656440355
 20
69.87867965644035
 30
0.0
 70
0
  0
VERTEX
  5
E2
  8
CUT
 10
47.50559116309236
 20
70.33328930094119
 30
0.0
 70
0
  0
VERTEX
  5
E3
  8
CUT
 10
47.22836140246614
 20
70.85194970290473
 30
0.0
 70
0
  0
VERTEX
  5
E4
  8
CUT
 10
47.05764415879031
 20
71.41472903395162
 30
0.0
 70
0
  0
VERTEX
  5
E5
  8
CUT
 10
47.0
 20
72.0
 30
0.0
 70
0
  0
VERTEX
  5
E6
  8
CUT
 10
47.05764415879031
 20
72.58527096604838
 30
0.0
 70
0
  0
VERTEX
  5
E7
  8
CUT
 10
47.22836140246614
 20
73.14805029709527
 30
0.0
 70
0
  0
VERTEX
  5
E8
  8
CUT
 10
47.50559116309236
 20
73.6667106990588
 30
0.0
 70
0
  0
VERTEX
  5
E9
  8
CUT
 10
47.878679656440355
 20
74.12132034355965
 30
0.0
 70
0
  0
VERTEX
  5
EA
  8
CUT
 10
48.33328930094119
 20
74.49440883690764
 30
0.0
 70
0
  0
VERTEX
  5
EB
  8
CUT
 10
48.85194970290473
 20
74.77163859753387
 30
0.0
 70
0
  0
VERTEX
  5
EC
  8
CUT
 10
49.414729033951616
 20
74.94235584120969
 30
0.0
 70
0
  0
VERTEX
  5
ED
  8
CUT
 10
50.0
 20
75.0
 30
0.0
 70
0
  0
VERTEX
  5
EE
  8
CUT
 10
50.585270966048384
 20
74.94235584120969
 30
0.0
 70
0
  0
VERTEX
  5
EF
  8
CUT
 10
51.14805029709527
 20
74.77163859753387
 30
0.0
 70
0
  0
VERTEX
  5
F0
  8
CUT
 10
51.666710699058804
 20
74.49440883690764
 30
0.0
 70
0
  0
VERTEX
  5
F1
  8
CUT
 10
52.121320343559645
 20
74.12132034355965
 30
0.0
 70
0
  0
VERTEX
  5
F2
  8
CUT
 10
52.49440883690764
 20
73.6667106990588
 30
0.0
 70
0
  0
VERTEX
  5
F3
  8
CUT
 10
52.77163859753386
 20
73.14805029709527
 30
0.0
 70
0
  0
VERTEX
  5
F4
  8
CUT
 10
52.94235584120969
 20
72.58527096604838
 30
0.0
 70
0
  0
SEQEND
  5
D4
  8
CUT
  0
POLYLINE
  5
F5
  8
CUT
 66
1
 10
0.0
 20
0.0
 30
0.0
 70
1
  0
VERTEX
  5
F7
  8
CUT
 10
75.0
 20
30.0
 30
0.0
 70
0
  0
VERTEX
  5
F8
  8
CUT
 10
74.94235584120969
 20
29.414729033951616
 30
0.0
 70
0
  0
VERTEX
  5
F9
  8
CUT
 10
74.77163859753387
 20
28.851949702904733
 30
0.0
 70
0
  0
VERTEX
  5
FA
  8
CUT
 10
74.49440883690764
 20
28.333289300941193
 30
0.0
 70
0
  0
VERTEX
  5
FB
  8
CUT
 10
74.12132034355965
 20
27.878679656440358
 30
0.0
 70
0
  0
VERTEX
  5
FC
  8
CUT
 10
73.6667106990588
 20
27.505591163092365
 30
0.0
 70
0
  0
VERTEX
  5
FD
  8
CUT
 10
73.14805029709527
 20
27.228361402466142
 30
0.0
 70
0
  0
VERTEX
  5
FE
  8
CUT
 10
72.58527096604838
 20
27.05764415879031
 30
0.0
 70
0
  0
VERTEX
  5
FF
  8
CUT
 10
72.0
 20
27.0
 30
0.0
 70
0
  0
VERTEX
  5
100
  8
CUT
 10
71.41472903395162
 20
27.05764415879031
 30
0.0
 70
0
  0
VERTEX
  5
101
  8
CUT
 10
70.85194970290473
 20
27.228361402466142
 30
0.0
 70
0
  0
VERTEX
  5
102
  8
CUT
 10
70.33328930094119
 20
27.50559116309236
 30
0.0
 70
0
  0
VERTEX
  5
103
  8
CUT
 10
69.87867965644035
 20
27.878679656440358
 30
0.0
 70
0
  0
VERTEX
  5
104
  8
CUT
 10
69.50559116309236
 20
28.333289300941193
 30
0.0
 70
0
  0
VERTEX
  5
105
  8
CUT
 10
69.22836140246613
 20
28.85194970290473
 30
0.0
 70
0
  0
VERTEX
  5
106
  8
CUT
 10
69.05764415879031
 20
29.414729033951616
 30
0.0
 70
0
  0
VERTEX
  5
107
  8
CUT
 10
69.0
 20
30.0
 30
0.0
 70
0
  0
VERTEX
  5
108
  8
CUT
 10
69.05764415879031
 20
30.585270966048384
 30
0.0
 70
0
  0
VERTEX
  5
109
  8
CUT
 10
69.22836140246613
 20
31.148050297095267
 30
0.0
 70
0
  0
VERTEX
  5
10A
  8
CUT
 10
69.50559116309236
 20
31.666710699058804
 30
0.0
 70
0
  0
VERTEX
  5
10B
  8
CUT
 10
69.87867965644035
 20
32.121320343559645
 30
0.0
 70
0
  0
VERTEX
  5
10C
  8
CUT
 10
70.33328930094119
 20
32.49440883690764
 30
0.0
 70
0
  0
VERTEX
  5
10D
  8
CUT
 10
70.85194970290473
 20
32.77163859753386
 30
0.0
 70
0
  0
VERTEX
  5
10E
  8
CUT
 10
71.41472903395162
 20
32.94235584120969
 30
0.0
 70
0
  0
VERTEX
  5
10F
  8
CUT
 10
72.0
 20
33.0
 30
0.0
 70
0
  0
VERTEX
  5
110
  8
CUT
 10
72.58527096604838
 20
32.94235584120969
 30
0.0
 70
0
  0
VERTEX
  5
111
  8
CUT
 10
73.14805029709527
 20
32.77163859753386
 30
0.0
 70
0
  0
VERTEX
  5
112
  8
CUT
 10
73.6667106990588
 20
32.49440883690764
 30
0.0
 70
0
  0
VERTEX
  5
113
  8
CUT
 10
74.12132034355965
 20
32.121320343559645
 30
0.0
 70
0
  0
VERTEX
  5
114
  8
CUT
 10
74.49440883690764
 20
31.666710699058807
 30
0.0
 70
0
  0
VERTEX
  5
115
  8
CUT
 10
74.77163859753387
 20
31.14805029709527
 30
0.0
 70
0
  0
VERTEX
  5
116
  8
CUT
 10
74.94235584120969
 20
30.585270966048384
 30
0.0
 70
0
  0
SEQEND
  5
F6
  8
CUT
  0
POLYLINE
  5
117
  8
ENGRAVE
 66
1
 10
0.0
 20
0.0
 30
0.0
 70
0
  0
VERTEX
  5
119
  8
ENGRAVE
 10
55.0
 20
65.0
 30
0.0
 70
0
  0
VERTEX
  5
11A
  8
ENGRAVE
 10
55.0
 20
71.0
 30
0.0
 70
0
  0
SEQEND
  5
118
  8
ENGRAVE
  0
POLYLINE
  5
11B
  8
ENGRAVE
 66
1
 10
0.0
 20
0.0
 30
0.0
 70
0
  0
VERTEX
  5
11D
  8
ENGRAVE
 10
55.0
 20
71.0
 30
0.0
 70
0
  0
VERTEX
  5
11E
  8
ENGRAVE
 10
60.0
 20
71.0
 30
0.0
 70
0
  0
SEQEND
  5
11C
  8
ENGRAVE
  0
POLYLINE
  5
11F
  8
ENGRAVE
 66
1
 10
0.0
 20
0.0
 30
0.0
 70
0
  0
VERTEX
  5
121
  8
ENGRAVE
 10
60.0
 20
71.0
 30
0.0
 70
0
  0
VERTEX
  5
122
  8
ENGRAVE
 10
65.0
 20
71.0
 30
0.0
 70
0
  0
SEQEND
  5
120
  8
ENGRAVE
  0
POLYLINE
  5
123
  8
CUT
 66
1
 10
0.0
 20
0.0
 30
0.0
 70
1
  0
VERTEX
  5
125
  8
CUT
 10
160.2
 20
40.0
 30
0.0
 70
0
  0
VERTEX
  5
126
  8
CUT
 10
160.127770614624
 20
41.47025707364082
 30
0.0
 70
0
  0
VERTEX
  5
127
  8
CUT
 10
160.00738830566405
 20
43.92068552970886
 30
0.0
 70
0
  0
VERTEX
  5
128
  8
CUT
 10
159.79139680862426
 20
45.37678322196007
 30
0.0
 70
0
  0
VERTEX
  5
129
  8
CUT
 10
159.4314109802246
 20
47.80361270904541
 30
0.0
 70
0
  0
VERTEX
  5
12A
  8
CUT
 10
159.07373733520507
 20
49.23152816295624
 30
0.0
 70
0
  0
VERTEX
  5
12B
  8
CUT
 10
158.47761459350585
 20
51.61138725280762
 30
0.0
 70
0
  0
VERTEX
  5
12C
  8
CUT
 10
157.98170204162597
 20
52.997368693351746
 30
0.0
 70
0
  0
VERTEX
  5
12D
  8
CUT
 10
157.15518112182616
 20
55.30733776092529
 30
0.0
 70
0
  0
VERTEX
  5
12E
  8
CUT
 10
156.52580757141112
 20
56.63803708553314
 30
0.0
 70
0
  0
VERTEX
  5
12F
  8
CUT
 10
155.47685165405272
 20
58.85586929321289
 30
0.0
 70
0
  0
VERTEX
  5
130
  8
CUT
 10
154.72007675170897
 20
60.11847162246704
 30
0.0
 70
0
  0
VERTEX
  5
131
  8
CUT
 10
153.45878524780272
 20
62.222808837890625
 30
0.0
 70
0
  0
VERTEX
  5
132
  8
CUT
 10
152.5818974494934
 20
63.40515446662903
 30
0.0
 70
0
  0
VERTEX
  5
133
  8
CUT
 10
151.12041778564452
 20
65.37573051452637
 30
0.0
 70
0
  0
VERTEX
  5
134
  8
CUT
 10
150.1318628311157
 20
66.46643328666687
 30
0.0
 70
0
  0
VERTEX
  5
135
  8
CUT
 10
148.48427124023436
 20
68.28427124023438
 30
0.0
 70
0
  0
VERTEX
  5
136
  8
CUT
 10
147.39356846809386
 20
69.27282619476318
 30
0.0
 70
0
  0
VERTEX
  5
137
  8
CUT
 10
145.57573051452636
 20
70.92041778564453
 30
0.0
 70
0
  0
VERTEX
  5
138
  8
CUT
 10
144.39338488578795
 20
71.79730558395386
 30
0.0
 70
0
  0
VERTEX
  5
139
  8
CUT
 10
142.4228088378906
 20
73.25878524780273
 30
0.0
 70
0
  0
VERTEX
  5
13A
  8
CUT
 10
141.16020650863646
 20
74.01556015014648
 30
0.0
 70
0
  0
VERTEX
  5
13B
  8
CUT
 10
139.05586929321288
 20
75.27685165405273
 30
0.0
 70
0
  0
VERTEX
  5
13C
  8
CUT
 10
137.72516996860503
 20
75.90622520446777
 30
0.0
 70
0
  0
VERTEX
  5
13D
  8
CUT
 10
135.50733776092528
 20
76.95518112182617
 30
0.0
 70
0
  0
VERTEX
  5
13E
  8
CUT
 10
134.12135632038115
 20
77.45109367370605
 30
0.0
 70
0
  0
VERTEX
  5
13F
  8
CUT
 10
131.8113872528076
 20
78.27761459350586
 30
0.0
 70
0
  0
VERTEX
  5
140
  8
CUT
 10
130.38347179889678
 20
78.63528823852539
 30
0.0
 70
0
  0
VERTEX
  5
141
  8
CUT
 10
128.0036127090454
 20
79.23141098022461
 30
0.0
 70
0
  0
VERTEX
  5
142
  8
CUT
 10
126.54751501679421
 20
79.4474024772644
 30
0.0
 70
0
  0
VERTEX
  5
143
  8
CUT
 10
124.12068552970887
 20
79.80738830566406
 30
0.0
 70
0
  0
VERTEX
  5
144
  8
CUT
 10
122.65042845606804
 20
79.87961769104004
 30
0.0
 70
0
  0
VERTEX
  5
145
  8
CUT
 10
120.2
 20
80.0
 30
0.0
 70
0
  0
VERTEX
  5
146
  8
CUT
 10
118.72974292635918
 20
79.92777061462402
 30
0.0
 70
0
  0
VERTEX
  5
147
  8
CUT
 10
116.27931447029114
 20
79.80738830566406
 30
0.0
 70
0
  0
VERTEX
  5
148
  8
CUT
 10
114.82321677803994
 20
79.59139680862427
 30
0.0
 70
0
  0
VERTEX
  5
149
  8
CUT
 10
112.39638729095459
 20
79.23141098022461
 30
0.0
 70
0
  0
VERTEX
  5
14A
  8
CUT
 10
110.96847183704377
 20
78.87373733520508
 30
0.0
 70
0
  0
VERTEX
  5
14B
  8
CUT
 10
108.58861274719239
 20
78.27761459350586
 30
0.0
 70
0
  0
VERTEX
  5
14C
  8
CUT
 10
107.20263130664826
 20
77.78170204162598
 30
0.0
 70
0
  0
VERTEX
  5
14D
  8
CUT
 10
104.89266223907471
 20
76.95518112182617
 30
0.0
 70
0
  0
VERTEX
  5
14E
  8
CUT
 10
103.56196291446686
 20
76.32580757141113
 30
0.0
 70
0
  0
VERTEX
  5
14F
  8
CUT
 10
101.34413070678711
 20
75.27685165405273
 30
0.0
 70
0
  0
VERTEX
  5
150
  8
CUT
 10
100.08152837753296
 20
74.52007675170898
 30
0.0
 70
0
  0
VERTEX
  5
151
  8
CUT
 10
97.97719116210938
 20
73.25878524780273
 30
0.0
 70
0
  0
VERTEX
  5
152
  8
CUT
 10
96.79484553337097
 20
72.38189744949341
 30
0.0
 70
0
  0
VERTEX
  5
153
  8
CUT
 10
94.82426948547364
 20
70.92041778564453
 30
0.0
 70
0
  0
VERTEX
  5
154
  8
CUT
 10
93.73356671333313
 20
69.93186283111572
 30
0.0
 70
0
  0
VERTEX
  5
155
  8
CUT
 10
91.91572875976563
 20
68.28427124023438
 30
0.0
 70
0
  0
VERTEX
  5
156
  8
CUT
 10
90.92717380523682
 20
67.19356846809387
 30
0.0
 70
0
  0
VERTEX
  5
157
  8
CUT
 10
89.27958221435547
 20
65.37573051452637
 30
0.0
 70
0
  0
VERTEX
  5
158
  8
CUT
 10
88.40269441604615
 20
64.19338488578796
 30
0.0
 70
0
  0
VERTEX
  5
159
  8
CUT
 10
86.94121475219727
 20
62.222808837890625
 30
0.0
 70
0
  0
VERTEX
  5
15A
  8
CUT
 10
86.18443984985352
 20
60.960206508636475
 30
0.0
 70
0
  0
VERTEX
  5
15B
  8
CUT
 10
84.92314834594727
 20
58.85586929321289
 30
0.0
 70
0
  0
VERTEX
  5
15C
  8
CUT
 10
84.29377479553223
 20
57.52516996860504
 30
0.0
 70
0
  0
VERTEX
  5
15D
  8
CUT
 10
83.24481887817383
 20
55.30733776092529
 30
0.0
 70
0
  0
VERTEX
  5
15E
  8
CUT
 10
82.74890632629395
 20
53.921356320381165
 30
0.0
 70
0
  0
VERTEX
  5
15F
  8
CUT
 10
81.92238540649414
 20
51.61138725280762
 30
0.0
 70
0
  0
VERTEX
  5
160
  8
CUT
 10
81.56471176147461
 20
50.18347179889679
 30
0.0
 70
0
  0
VERTEX
  5
161
  8
CUT
 10
80.9685890197754
 20
47.80361270904541
 30
0.0
 70
0
  0
VERTEX
  5
162
  8
CUT
 10
80.7525975227356
 20
46.347515016794205
 30
0.0
 70
0
  0
VERTEX
  5
163
  8
CUT
 10
80.39261169433594
 20
43.92068552970886
 30
0.0
 70
0
  0
VERTEX
  5
164
  8
CUT
 10
80.32038230895996
 20
42.45042845606804
 30
0.0
 70
0
  0
VERTEX
  5
165
  8
CUT
 10
80.2
 20
39.99999999999999
 30
0.0
 70
0
  0
VERTEX
  5
166
  8
CUT
 10
80.27222938537598
 20
38.52974292635917
 30
0.0
 70
0
  0
VERTEX
  5
167
  8
CUT
 10
80.39261169433594
 20
36.07931447029114
 30
0.0
 70
0
  0
VERTEX
  5
168
  8
CUT
 10
80.60860319137574
 20
34.62321677803993
 30
0.0
 70
0
  0
VERTEX
  5
169
  8
CUT
 10
80.9685890197754
 20
32.19638729095459
 30
0.0
 70
0
  0
VERTEX
  5
16A
  8
CUT
 10
81.32626266479492
 20
30.768471837043762
 30
0.0
 70
0
  0
VERTEX
  5
16B
  8
CUT
 10
81.92238540649414
 20
28.388612747192383
 30
0.0
 70
0
  0
VERTEX
  5
16C
  8
CUT
 10
82.41829795837403
 20
27.002631306648254
 30
0.0
 70
0
  0
VERTEX
  5
16D
  8
CUT
 10
83.24481887817383
 20
24.692662239074707
 30
0.0
 70
0
  0
VERTEX
  5
16E
  8
CUT
 10
83.87419242858887
 20
23.361962914466858
 30
0.0
 70
0
  0
VERTEX
  5
16F
  8
CUT
 10
84.92314834594727
 20
21.14413070678711
 30
0.0
 70
0
  0
VERTEX
  5
170
  8
CUT
 10
85.67992324829102
 20
19.88152837753296
 30
0.0
 70
0
  0
VERTEX
  5
171
  8
CUT
 10
86.94121475219727
 20
17.777191162109375
 30
0.0
 70
0
  0
VERTEX
  5
172
  8
CUT
 10
87.8181025505066
 20
16.59484553337097
 30
0.0
 70
0
  0
VERTEX
  5
173
  8
CUT
 10
89.27958221435547
 20
14.624269485473633
 30
0.0
 70
0
  0
VERTEX
  5
174
  8
CUT
 10
90.26813716888428
 20
13.53356671333313
 30
0.0
 70
0
  0
VERTEX
  5
175
  8
CUT
 10
91.91572875976563
 20
11.715728759765625
 30
0.0
 70
0
  0
VERTEX
  5
176
  8
CUT
 10
93.00643153190613
 20
10.727173805236816
 30
0.0
 70
0
  0
VERTEX
  5
177
  8
CUT
 10
94.82426948547364
 20
9.079582214355469
 30
0.0
 70
0
  0
VERTEX
  5
178
  8
CUT
 10
96.00661511421204
 20
8.202694416046143
 30
0.0
 70
0
  0
VERTEX
  5
179
  8
CUT
 10
97.97719116210938
 20
6.741214752197266
 30
0.0
 70
0
  0
VERTEX
  5
17A
  8
CUT
 10
99.23979349136353
 20
5.984439849853516
 30
0.0
 70
0
  0
VERTEX
  5
17B
  8
CUT
 10
101.34413070678711
 20
4.723148345947266
 30
0.0
 70
0
  0
VERTEX
  5
17C
  8
CUT
 10
102.67483003139496
 20
4.093774795532227
 30
0.0
 70
0
  0
VERTEX
  5
17D
  8
CUT
 10
104.89266223907471
 20
3.044818878173828
 30
0.0
 70
0
  0
VERTEX
  5
17E
  8
CUT
 10
106.27864367961884
 20
2.5489063262939453
 30
0.0
 70
0
  0
VERTEX
  5
17F
  8
CUT
 10
108.58861274719239
 20
1.7223854064941406
 30
0.0
 70
0
  0
VERTEX
  5
180
  8
CUT
 10
110.01652820110321
 20
1.3647117614746094
 30
0.0
 70
0
  0
VERTEX
  5
181
  8
CUT
 10
112.39638729095459
 20
0.7685890197753906
 30
0.0
 70
0
  0
VERTEX
  5
182
  8
CUT
 10
113.8524849832058
 20
0.5525975227355957
 30
0.0
 70
0
  0
VERTEX
  5
183
  8
CUT
 10
116.27931447029114
 20
0.1926116943359375
 30
0.0
 70
0
  0
VERTEX
  5
184
  8
CUT
 10
117.74957154393196
 20
0.12038230895996094
 30
0.0
 70
0
  0
VERTEX
  5
185
  8
CUT
 10
120.2
 20
0.0
 30
0.0
 70
0
  0
VERTEX
  5
186
  8
CUT
 10
121.67025707364083
 20
0.07222938537597656
 30
0.0
 70
0
  0
VERTEX
  5
187
  8
CUT
 10
124.12068552970887
 20
0.1926116943359375
 30
0.0
 70
0
  0
VERTEX
  5
188
  8
CUT
 10
125.57678322196007
 20
0.4086031913757324
 30
0.0
 70
0
  0
VERTEX
  5
189
  8
CUT
 10
128.0036127090454
 20
0.7685890197753906
 30
0.0
 70
0
  0
VERTEX
  5
18A
  8
CUT
 10
129.43152816295623
 20
1.1262626647949219
 30
0.0
 70
0
  0
VERTEX
  5
18B
  8
CUT
 10
131.8113872528076
 20
1.7223854064941406
 30
0.0
 70
0
  0
VERTEX
  5
18C
  8
CUT
 10
133.19736869335173
 20
2.2182979583740234
 30
0.0
 70
0
  0
VERTEX
  5
18D
  8
CUT
 10
135.50733776092528
 20
3.044818878173828
 30
0.0
 70
0
  0
VERTEX
  5
18E
  8
CUT
 10
136.83803708553313
 20
3.674192428588867
 30
0.0
 70
0
  0
VERTEX
  5
18F
  8
CUT
 10
139.05586929321288
 20
4.723148345947266
 30
0.0
 70
0
  0
VERTEX
  5
190
  8
CUT
 10
140.31847162246703
 20
5.479923248291016
 30
0.0
 70
0
  0
VERTEX
  5
191
  8
CUT
 10
142.4228088378906
 20
6.741214752197266
 30
0.0
 70
0
  0
VERTEX
  5
192
  8
CUT
 10
143.60515446662902
 20
7.618102550506592
 30
0.0
 70
0
  0
VERTEX
  5
193
  8
CUT
 10
145.57573051452636
 20
9.079582214355469
 30
0.0
 70
0
  0
VERTEX
  5
194
  8
CUT
 10
146.66643328666686
 20
10.068137168884277
 30
0.0
 70
0
  0
VERTEX
  5
195
  8
CUT
 10
148.48427124023436
 20
11.715728759765625
 30
0.0
 70
0
  0
VERTEX
  5
196
  8
CUT
 10
149.47282619476317
 20
12.806431531906128
 30
0.0
 70
0
  0
VERTEX
  5
197
  8
CUT
 10
151.12041778564452
 20
14.624269485473633
 30
0.0
 70
0
  0
VERTEX
  5
198
  8
CUT
 10
151.99730558395385
 20
15.806615114212036
 30
0.0
 70
0
  0
VERTEX
  5
199
  8
CUT
 10
153.45878524780272
 20
17.777191162109375
 30
0.0
 70
0
  0
VERTEX
  5
19A
  8
CUT
 10
154.21556015014647
 20
19.039793491363525
 30
0.0
 70
0
  0
VERTEX
  5
19B
  8
CUT
 10
155.47685165405272
 20
21.14413070678711
 30
0.0
 70
0
  0
VERTEX
  5
19C
  8
CUT
 10
156.10622520446776
 20
22.47483003139496
 30
0.0
 70
0
  0
VERTEX
  5
19D
  8
CUT
 10
157.15518112182616
 20
24.692662239074707
 30
0.0
 70
0
  0
VERTEX
  5
19E
  8
CUT
 10
157.65109367370604
 20
26.078643679618835
 30
0.0
 70
0
  0
VERTEX
  5
19F
  8
CUT
 10
158.47761459350585
 20
28.388612747192383
 30
0.0
 70
0
  0
VERTEX
  5
1A0
  8
CUT
 10
158.83528823852538
 20
29.81652820110321
 30
0.0
 70
0
  0
VERTEX
  5
1A1
  8
CUT
 10
159.4314109802246
 20
32.19638729095459
 30
0.0
 70
0
  0
VERTEX
  5
1A2
  8
CUT
 10
159.6474024772644
 20
33.652484983205795
 30
0.0
 70
0
  0
VERTEX
  5
1A3
  8
CUT
 10
160.00738830566405
 20
36.07931447029114
 30
0.0
 70
0
  0
VERTEX
  5
1A4
  8
CUT
 10
160.07961769104003
 20
37.54957154393196
 30
0.0
 70
0
  0
SEQEND
  5
124
  8
CUT
  0
POLYLINE
  5
1A5
  8
CUT
 66
1
 10
0.0
 20
0.0
 30
0.0
 70
1
  0
VERTEX
  5
1A7
  8
CUT
 10
113.2
 20
8.000000000000004
 30
0.0
 70
0
  0
VERTEX
  5
1A8
  8
CUT
 10
113.14235584120969
 20
7.414729033951616
 30
0.0
 70
0
  0
VERTEX
  5
1A9
  8
CUT
 10
112.97163859753387
 20
6.851949702904733
 30
0.0
 70
0
  0
VERTEX
  5
1AA
  8
CUT
 10
112.69440883690764
 20
6.333289300941196
 30
0.0
 70
0
  0
VERTEX
  5
1AB
  8
CUT
 10
112.32132034355965
 20
5.8786796564403545
 30
0.0
 70
0
  0
VERTEX
  5
1AC
  8
CUT
 10
111.86671069905881
 20
5.505591163092362
 30
0.0
 70
0
  0
VERTEX
  5
1AD
  8
CUT
 10
111.34805029709527
 20
5.228361402466142
 30
0.0
 70
0
  0
VERTEX
  5
1AE
  8
CUT
 10
110.78527096604839
 20
5.0576441587903105
 30
0.0
 70
0
  0
VERTEX
  5
1AF
  8
CUT
 10
110.2
 20
5.0
 30
0.0
 70
0
  0
VERTEX
  5
1B0
  8
CUT
 10
109.61472903395162
 20
5.0576441587903105
 30
0.0
 70
0
  0
VERTEX
  5
1B1
  8
CUT
 10
109.05194970290474
 20
5.228361402466142
 30
0.0
 70
0
  0
VERTEX
  5
1B2
  8
CUT
 10
108.53328930094119
 20
5.505591163092362
 30
0.0
 70
0
  0
VERTEX
  5
1B3
  8
CUT
 10
108.07867965644036
 20
5.8786796564403545
 30
0.0
 70
0
  0
VERTEX
  5
1B4
  8
CUT
 10
107.70559116309236
 20
6.333289300941196
 30
0.0
 70
0
  0
VERTEX
  5
1B5
  8
CUT
 10
107.42836140246614
 20
6.851949702904733
 30
0.0
 70
0
  0
VERTEX
  5
1B6
  8
CUT
 10
107.25764415879031
 20
7.414729033951616
 30
0.0
 70
0
  0
VERTEX
  5
1B7
  8
CUT
 10
107.2
 20
8.000000000000004
 30
0.0
 70
0
  0
VERTEX
  5
1B8
  8
CUT
 10
107.25764415879031
 20
8.585270966048384
 30
0.0
 70
0
  0
VERTEX
  5
1B9
  8
CUT
 10
107.42836140246614
 20
9.14805029709527
 30
0.0
 70
0
  0
VERTEX
  5
1BA
  8
CUT
 10
107.70559116309236
 20
9.666710699058807
 30
0.0
 70
0
  0
VERTEX
  5
1BB
  8
CUT
 10
108.07867965644036
 20
10.121320343559642
 30
0.0
 70
0
  0
VERTEX
  5
1BC
  8
CUT
 10
108.53328930094119
 20
10.494408836907635
 30
0.0
 70
0
  0
VERTEX
  5
1BD
  8
CUT
 10
109.05194970290474
 20
10.771638597533858
 30
0.0
 70
0
  0
VERTEX
  5
1BE
  8
CUT
 10
109.61472903395162
 20
10.94235584120969
 30
0.0
 70
0
  0
VERTEX
  5
1BF
  8
CUT
 10
110.2
 20
11.0
 30
0.0
 70
0
  0
VERTEX
  5
1C0
  8
CUT
 10
110.78527096604839
 20
10.94235584120969
 30
0.0
 70
0
  0
VERTEX
  5
1C1
  8
CUT
 10
111.34805029709527
 20
10.771638597533858
 30
0.0
 70
0
  0
VERTEX
  5
1C2
  8
CUT
 10
111.86671069905881
 20
10.494408836907638
 30
0.0
 70
0
  0
VERTEX
  5
1C3
  8
CUT
 10
112.32132034355965
 20
10.121320343559642
 30
0.0
 70
0
  0
VERTEX
  5
1C4
  8
CUT
 10
112.69440883690764
 20
9.666710699058807
 30
0.0
 70
0
  0
VERTEX
  5
1C5
  8
CUT
 10
112.97163859753387
 20
9.14805029709527
 30
0.0
 70
0
  0
VERTEX
  5
1C6
  8
CUT
 10
113.14235584120969
 20
8.585270966048387
 30
0.0
 70
0
  0
SEQEND
  5
1A6
  8
CUT
  0
POLYLINE
  5
1C7
  8
CUT
 66
1
 10
0.0
 20
0.0
 30
0.0
 70
1
  0
VERTEX
  5
1C9
  8
CUT
 10
133.2
 20
72.0
 30
0.0
 70
0
  0
VERTEX
  5
1CA
  8
CUT
 10
133.1423558412097
 20
71.41472903395162
 30
0.0
 70
0
  0
VERTEX
  5
1CB
  8
CUT
 10
132.97163859753385
 20
70.85194970290473
 30
0.0
 70
0
  0
VERTEX
  5
1CC
  8
CUT
 10
132.69440883690763
 20
70.33328930094119
 30
0.0
 70
0
  0
VERTEX
  5
1CD
  8
CUT
 10
132.32132034355965
 20
69.87867965644035
 30
0.0
 70
0
  0
VERTEX
  5
1CE
  8
CUT
 10
131.8667106990588
 20
69.50559116309236
 30
0.0
 70
0
  0
VERTEX
  5
1CF
  8
CUT
 10
131.34805029709528
 20
69.22836140246613
 30
0.0
 70
0
  0
VERTEX
  5
1D0
  8
CUT
 10
130.7852709660484
 20
69.05764415879031
 30
0.0
 70
0
  0
VERTEX
  5
1D1
  8
CUT
 10
130.2
 20
69.0
 30
0.0
 70
0
  0
VERTEX
  5
1D2
  8
CUT
 10
129.61472903395162
 20
69.05764415879031
 30
0.0
 70
0
  0
VERTEX
  5
1D3
  8
CUT
 10
129.05194970290472
 20
69.22836140246613
 30
0.0
 70
0
  0
VERTEX
  5
1D4
  8
CUT
 10
128.5332893009412
 20
69.50559116309236
 30
0.0
 70
0
  0
VERTEX
  5
1D5
  8
CUT
 10
128.07867965644036
 20
69.87867965644035
 30
0.0
 70
0
  0
VERTEX
  5
1D6
  8
CUT
 10
127.70559116309236
 20
70.33328930094119
 30
0.0
 70
0
  0
VERTEX
  5
1D7
  8
CUT
 10
127.42836140246614
 20
70.85194970290473
 30
0.0
 70
0
  0
VERTEX
  5
1D8
  8
CUT
 10
127.25764415879031
 20
71.41472903395162
 30
0.0
 70
0
  0
VERTEX
  5
1D9
  8
CUT
 10
127.2
 20
72.0
 30
0.0
 70
0
  0
VERTEX
  5
1DA
  8
CUT
 10
127.25764415879031
 20
72.58527096604838
 30
0.0
 70
0
  0
VERTEX
  5
1DB
  8
CUT
 10
127.42836140246614
 20
73.14805029709527
 30
0.0
 70
0
  0
VERTEX
  5
1DC
  8
CUT
 10
127.70559116309236
 20
73.6667106990588
 30
0.0
 70
0
  0
VERTEX
  5
1DD
  8
CUT
 10
128.07867965644036
 20
74.12132034355965
 30
0.0
 70
0
  0
VERTEX
  5
1DE
  8
CUT
 10
128.5332893009412
 20
74.49440883690764
 30
0.0
 70
0
  0
VERTEX
  5
1DF
  8
CUT
 10
129.05194970290472
 20
74.77163859753387
 30
0.0
 70
0
  0
VERTEX
  5
1E0
  8
CUT
 10
129.61472903395162
 20
74.94235584120969
 30
0.0
 70
0
  0
VERTEX
  5
1E1
  8
CUT
 10
130.2
 20
75.0
 30
0.0
 70
0
  0
VERTEX
  5
1E2
  8
CUT
 10
130.7852709660484
 20
74.94235584120969
 30
0.0
 70
0
  0
VERTEX
  5
1E3
  8
CUT
 10
131.34805029709528
 20
74.77163859753387
 30
0.0
 70
0
  0
VERTEX
  5
1E4
  8
CUT
 10
131.8667106990588
 20
74.49440883690764
 30
0.0
 70
0
  0
VERTEX
  5
1E5
  8
CUT
 10
132.32132034355965
 20
74.12132034355965
 30
0.0
 70
0
  0
VERTEX
  5
1E6
  8
CUT
 10
132.69440883690763
 20
73.6667106990588
 30
0.0
 70
0
  0
VERTEX
  5
1E7
  8
CUT
 10
132.97163859753385
 20
73.14805029709527
 30
0.0
 70
0
  0
VERTEX
  5
1E8
  8
CUT
 10
133.1423558412097
 20
72.58527096604838
 30
0.0
 70
0
  0
SEQEND
  5
1C8
  8
CUT
  0
POLYLINE
  5
1E9
  8
CUT
 66
1
 10
0.0
 20
0.0
 30
0.0
 70
1
  0
VERTEX
  5
1EB
  8
CUT
 10
155.2
 20
30.0
 30
0.0
 70
0
  0
VERTEX
  5
1EC
  8
CUT
 10
155.14235584120968
 20
29.414729033951616
 30
0.0
 70
0
  0
VERTEX
  5
1ED
  8
CUT
 10
154.97163859753385
 20
28.851949702904733
 30
0.0
 70
0
  0
VERTEX
  5
1EE
  8
CUT
 10
154.69440883690766
 20
28.333289300941193
 30
0.0
 70
0
  0
VERTEX
  5
1EF
  8
CUT
 10
154.32132034355965
 20
27.878679656440358
 30
0.0
 70
0
  0
VERTEX
  5
1F0
  8
CUT
 10
153.8667106990588
 20
27.505591163092365
 30
0.0
 70
0
  0
VERTEX
  5
1F1
  8
CUT
 10
153.34805029709526
 20
27.228361402466142
 30
0.0
 70
0
  0
VERTEX
  5
1F2
  8
CUT
 10
152.7852709660484
 20
27.05764415879031
 30
0.0
 70
0
  0
VERTEX
  5
1F3
  8
CUT
 10
152.2
 20
27.0
 30
0.0
 70
0
  0
VERTEX
  5
1F4
  8
CUT
 10
151.61472903395162
 20
27.05764415879031
 30
0.0
 70
0
  0
VERTEX
  5
1F5
  8
CUT
 10
151.05194970290472
 20
27.228361402466142
 30
0.0
 70
0
  0
VERTEX
  5
1F6
  8
CUT
 10
150.5332893009412
 20
27.50559116309236
 30
0.0
 70
0
  0
VERTEX
  5
1F7
  8
CUT
 10
150.07867965644036
 20
27.878679656440358
 30
0.0
 70
0
  0
VERTEX
  5
1F8
  8
CUT
 10
149.70559116309238
 20
28.333289300941193
 30
0.0
 70
0
  0
VERTEX
  5
1F9
  8
CUT
 10
149.42836140246615
 20
28.85194970290473
 30
0.0
 70
0
  0
VERTEX
  5
1FA
  8
CUT
 10
149.2576441587903
 20
29.414729033951616
 30
0.0
 70
0
  0
VERTEX
  5
1FB
  8
CUT
 10
149.2
 20
30.0
 30
0.0
 70
0
  0
VERTEX
  5
1FC
  8
CUT
 10
149.2576441587903
 20
30.585270966048384
 30
0.0
 70
0
  0
VERTEX
  5
1FD
  8
CUT
 10
149.42836140246615
 20
31.148050297095267
 30
0.0
 70
0
  0
VERTEX
  5
1FE
  8
CUT
 10
149.70559116309238
 20
31.666710699058804
 30
0.0
 70
0
  0
VERTEX
  5
1FF
  8
CUT
 10
150.07867965644036
 20
32.121320343559645
 30
0.0
 70
0
  0
VERTEX
  5
200
  8
CUT
 10
150.5332893009412
 20
32.49440883690764
 30
0.0
 70
0
  0
VERTEX
  5
201
  8
CUT
 10
151.05194970290472
 20
32.77163859753386
 30
0.0
 70
0
  0
VERTEX
  5
202
  8
CUT
 10
151.61472903395162
 20
32.94235584120969
 30
0.0
 70
0
  0
VERTEX
  5
203
  8
CUT
 10
152.2
 20
33.0
 30
0.0
 70
0
  0
VERTEX
  5
204
  8
CUT
 10
152.7852709660484
 20
32.94235584120969
 30
0.0
 70
0
  0
VERTEX
  5
205
  8
CUT
 10
153.34805029709526
 20
32.77163859753386
 30
0.0
 70
0
  0
VERTEX
  5
206
  8
CUT
 10
153.8667106990588
 20
32.49440883690764
 30
0.0
 70
0
  0
VERTEX
  5
207
  8
CUT
 10
154.32132034355965
 20
32.121320343559645
 30
0.0
 70
0
  0
VERTEX
  5
208
  8
CUT
 10
154.69440883690766
 20
31.666710699058807
 30
0.0
 70
0
  0
VERTEX
  5
209
  8
CUT
 10
154.97163859753385
 20
31.14805029709527
 30
0.0
 70
0
  0
VERTEX
  5
20A
  8
CUT
 10
155.14235584120968
 20
30.585270966048384
 30
0.0
 70
0
  0
SEQEND
  5
1EA
  8
CUT
  0
POLYLINE
  5
20B
  8
ENGRAVE
 66
1
 10
0.0
 20
0.0
 30
0.0
 70
0
  0
VERTEX
  5
20D
  8
ENGRAVE
 10
135.2
 20
65.0
 30
0.0
 70
0
  0
VERTEX
  5
20E
  8
ENGRAVE
 10
135.2
 20
71.0
 30
0.0
 70
0
  0
SEQEND
  5
20C
  8
ENGRAVE
  0
POLYLINE
  5
20F
  8
ENGRAVE
 66
1
 10
0.0
 20
0.0
 30
0.0
 70
0
  0
VERTEX
  5
211
  8
ENGRAVE
 10
135.2
 20
71.0
 30
0.0
 70
0
  0
VERTEX
  5
212
  8
ENGRAVE
 10
140.2
 20
71.0
 30
0.0
 70
0
  0
SEQEND
  5
210
  8
ENGRAVE
  0
POLYLINE
  5
213
  8
ENGRAVE
 66
1
 10
0.0
 20
0.0
 30
0.0
 70
0
  0
VERTEX
  5
215
  8
ENGRAVE
 10
140.2
 20
71.0
 30
0.0
 70
0
  0
VERTEX
  5
216
  8
ENGRAVE
 10
145.2
 20
71.0
 30
0.0
 70
0
  0
SEQEND
  5
214
  8
ENGRAVE
  0
POLYLINE
  5
217
  8
ENGRAVE
 66
1
 10
0.0
 20
0.0
 30
0.0
 70
0
  0
VERTEX
  5
219
  8
ENGRAVE
 10
145.2
 20
65.0
 30
0.0
 70
0
  0
VERTEX
  5
21A
  8
ENGRAVE
 10
145.2
 20
71.0
 30
0.0
 70
0
  0
SEQEND
  5
218
  8
ENGRAVE
  0
POLYLINE
  5
21B
  8
ENGRAVE
 66
1
 10
0.0
 20
0.0
 30
0.0
 70
0
  0
VERTEX
  5
21D
  8
ENGRAVE
 10
140.2
 20
65.0
 30
0.0
 70
0
  0
VERTEX
  5
21E
  8
ENGRAVE
 10
145.2
 20
65.0
 30
0.0
 70
0
  0
SEQEND
  5
21C
  8
ENGRAVE
  0
POLYLINE
  5
21F
  8
ENGRAVE
 66
1
 10
0.0
 20
0.0
 30
0.0
 70
0
  0
VERTEX
  5
221
  8
ENGRAVE
 10
135.2
 20
65.0
 30
0.0
 70
0
  0
VERTEX
  5
222
  8
ENGRAVE
 10
140.2
 20
65.0
 30
0.0
 70
0
  0
SEQEND
  5
220
  8
ENGRAVE
  0
POLYLINE
  5
223
  8
ENGRAVE
 66
1
 10
0.0
 20
0.0
 30
0.0
 70
0
  0
VERTEX
  5
225
  8
ENGRAVE
 10
140.2
 20
65.0
 30
0.0
 70
0
  0
VERTEX
  5
226
  8
ENGRAVE
 10
140.2
 20
71.0
 30
0.0
 70
0
  0
SEQEND
  5
224
  8
ENGRAVE
  0
POLYLINE
  5
227
  8
CUT
 66
1
 10
0.0
 20
0.0
 30
0.0
 70
1
  0
VERTEX
  5
229
  8
CUT
 10
240.4
 20
40.0
 30
0.0
 70
0
  0
VERTEX
  5
22A
  8
CUT
 10
240.31814002990723
 20
41.666291350126265
 30
0.0
 70
0
  0
VERTEX
  5
22B
  8
CUT
 10
240.20738830566407
 20
43.92068552970886
 30
0.0
 70
0
  0
VERTEX
  5
22C
  8
CUT
 10
239.96259794235232
 20
45.570929580926894
 30
0.0
 70
0
  0
VERTEX
  5
22D
  8
CUT
 10
239.63141098022462
 20
47.80361270904541
 30
0.0
 70
0
  0
VERTEX
  5
22E
  8
CUT
 10
239.22604751586914
 20
49.421916890144345
 30
0.0
 70
0
  0
VERTEX
  5
22F
  8
CUT
 10
238.67761459350587
 20
51.61138725280762
 30
0.0
 70
0
  0
VERTEX
  5
230
  8
CUT
 10
238.115580368042
 20
53.18216621875763
 30
0.0
 70
0
  0
VERTEX
  5
231
  8
CUT
 10
237.35518112182618
 20
55.30733776092529
 30
0.0
 70
0
  0
VERTEX
  5
232
  8
CUT
 10
236.64189109802248
 20
56.81546366214752
 30
0.0
 70
0
  0
VERTEX
  5
233
  8
CUT
 10
235.67685165405274
 20
58.85586929321289
 30
0.0
 70
0
  0
VERTEX
  5
234
  8
CUT
 10
234.8191734313965
 20
60.28681859970093
 30
0.0
 70
0
  0
VERTEX
  5
235
  8
CUT
 10
233.65878524780274
 20
62.222808837890625
 30
0.0
 70
0
  0
VERTEX
  5
236
  8
CUT
 10
232.66497907638552
 20
63.562800550460814
 30
0.0
 70
0
  0
VERTEX
  5
237
  8
CUT
 10
231.32041778564454
 20
65.37573051452637
 30
0.0
 70
0
  0
VERTEX
  5
238
  8
CUT
 10
230.20005550384522
 20
66.61186032295227
 30
0.0
 70
0
  0
VERTEX
  5
239
  8
CUT
 10
228.68427124023438
 20
68.28427124023438
 30
0.0
 70
0
  0
VERTEX
  5
23A
  8
CUT
 10
227.44814143180847
 20
69.40463352203369
 30
0.0
 70
0
  0
VERTEX
  5
23B
  8
CUT
 10
225.77573051452637
 20
70.92041778564453
 30
0.0
 70
0
  0
VERTEX
  5
23C
  8
CUT
 10
224.43573880195618
 20
71.91422395706176
 30
0.0
 70
0
  0
VERTEX
  5
23D
  8
CUT
 10
222.62280883789063
 20
73.25878524780273
 30
0.0
 70
0
  0
VERTEX
  5
23E
  8
CUT
 10
221.1918595314026
 20
74.11646347045898
 30
0.0
 70
0
  0
VERTEX
  5
23F
  8
CUT
 10
219.2558692932129
 20
75.27685165405273
 30
0.0
 70
0
  0
VERTEX
  5
240
  8
CUT
 10
217.74774339199067
 20
75.99014167785644
 30
0.0
 70
0
  0
VERTEX
  5
241
  8
CUT
 10
215.7073377609253
 20
76.95518112182617
 30
0.0
 70
0
  0
VERTEX
  5
242
  8
CUT
 10
214.1365587949753
 20
77.51721534729003
 30
0.0
 70
0
  0
VERTEX
  5
243
  8
CUT
 10
212.01138725280762
 20
78.27761459350586
 30
0.0
 70
0
  0
VERTEX
  5
244
  8
CUT
 10
210.39308307170867
 20
78.68297805786133
 30
0.0
 70
0
  0
VERTEX
  5
245
  8
CUT
 10
208.20361270904542
 20
79.23141098022461
 30
0.0
 70
0
  0
VERTEX
  5
246
  8
CUT
 10
206.55336865782738
 20
79.47620134353637
 30
0.0
 70
0
  0
VERTEX
  5
247
  8
CUT
 10
204.32068552970887
 20
79.80738830566406
 30
0.0
 70
0
  0
VERTEX
  5
248
  8
CUT
 10
202.6543941795826
 20
79.88924827575684
 30
0.0
 70
0
  0
VERTEX
  5
249
  8
CUT
 10
200.4
 20
80.0
 30
0.0
 70
0
  0
VERTEX
  5
24A
  8
CUT
 10
198.73370864987373
 20
79.91814002990722
 30
0.0
 70
0
  0
VERTEX
  5
24B
  8
CUT
 10
196.47931447029114
 20
79.80738830566406
 30
0.0
 70
0
  0
VERTEX
  5
24C
  8
CUT
 10
194.8290704190731
 20
79.5625979423523
 30
0.0
 70
0
  0
VERTEX
  5
24D
  8
CUT
 10
192.5963872909546
 20
79.23141098022461
 30
0.0
 70
0
  0
VERTEX
  5
24E
  8
CUT
 10
190.97808310985565
 20
78.82604751586913
 30
0.0
 70
0
  0
VERTEX
  5
24F
  8
CUT
 10
188.7886127471924
 20
78.27761459350586
 30
0.0
 70
0
  0
VERTEX
  5
250
  8
CUT
 10
187.21783378124238
 20
77.715580368042
 30
0.0
 70
0
  0
VERTEX
  5
251
  8
CUT
 10
185.0926622390747
 20
76.95518112182617
 30
0.0
 70
0
  0
VERTEX
  5
252
  8
CUT
 10
183.58453633785248
 20
76.24189109802246
 30
0.0
 70
0
  0
VERTEX
  5
253
  8
CUT
 10
181.54413070678712
 20
75.27685165405273
 30
0.0
 70
0
  0
VERTEX
  5
254
  8
CUT
 10
180.11318140029908
 20
74.41917343139649
 30
0.0
 70
0
  0
VERTEX
  5
255
  8
CUT
 10
178.17719116210938
 20
73.25878524780273
 30
0.0
 70
0
  0
VERTEX
  5
256
  8
CUT
 10
176.83719944953918
 20
72.2649790763855
 30
0.0
 70
0
  0
VERTEX
  5
257
  8
CUT
 10
175.02426948547364
 20
70.92041778564453
 30
0.0
 70
0
  0
VERTEX
  5
258
  8
CUT
 10
173.78813967704772
 20
69.80005550384521
 30
0.0
 70
0
  0
VERTEX
  5
259
  8
CUT
 10
172.11572875976563
 20
68.28427124023438
 30
0.0
 70
0
  0
VERTEX
  5
25A
  8
CUT
 10
170.99536647796631
 20
67.04814143180847
 30
0.0
 70
0
  0
VERTEX
  5
25B
  8
CUT
 10
169.47958221435547
 20
65.37573051452637
 30
0.0
 70
0
  0
VERTEX
  5
25C
  8
CUT
 10
168.48577604293823
 20
64.03573880195617
 30
0.0
 70
0
  0
VERTEX
  5
25D
  8
CUT
 10
167.14121475219727
 20
62.222808837890625
 30
0.0
 70
0
  0
VERTEX
  5
25E
  8
CUT
 10
166.28353652954104
 20
60.79185953140259
 30
0.0
 70
0
  0
VERTEX
  5
25F
  8
CUT
 10
165.12314834594727
 20
58.85586929321289
 30
0.0
 70
0
  0
VERTEX
  5
260
  8
CUT
 10
164.40985832214358
 20
57.34774339199066
 30
0.0
 70
0
  0
VERTEX
  5
261
  8
CUT
 10
163.44481887817383
 20
55.30733776092529
 30
0.0
 70
0
  0
VERTEX
  5
262
  8
CUT
 10
162.88278465270997
 20
53.73655879497528
 30
0.0
 70
0
  0
VERTEX
  5
263
  8
CUT
 10
162.12238540649415
 20
51.61138725280762
 30
0.0
 70
0
  0
VERTEX
  5
264
  8
CUT
 10
161.71702194213867
 20
49.99308307170868
 30
0.0
 70
0
  0
VERTEX
  5
265
  8
CUT
 10
161.1685890197754
 20
47.80361270904541
 30
0.0
 70
0
  0
VERTEX
  5
266
  8
CUT
 10
160.92379865646365
 20
46.15336865782738
 30
0.0
 70
0
  0
VERTEX
  5
267
  8
CUT
 10
160.59261169433594
 20
43.92068552970886
 30
0.0
 70
0
  0
VERTEX
  5
268
  8
CUT
 10
160.51075172424316
 20
42.25439417958259
 30
0.0
 70
0
  0
VERTEX
  5
269
  8
CUT
 10
160.4
 20
39.99999999999999
 30
0.0
 70
0
  0
VERTEX
  5
26A
  8
CUT
 10
160.48185997009278
 20
38.33370864987373
 30
0.0
 70
0
  0
VERTEX
  5
26B
  8
CUT
 10
160.59261169433594
 20
36.07931447029114
 30
0.0
 70
0
  0
VERTEX
  5
26C
  8
CUT
 10
160.8374020576477
 20
34.429070419073106
 30
0.0
 70
0
  0
VERTEX
  5
26D
  8
CUT
 10
161.1685890197754
 20
32.19638729095459
 30
0.0
 70
0
  0
VERTEX
  5
26E
  8
CUT
 10
161.57395248413087
 20
30.57808310985565
 30
0.0
 70
0
  0
VERTEX
  5
26F
  8
CUT
 10
162.12238540649415
 20
28.388612747192383
 30
0.0
 70
0
  0
VERTEX
  5
270
  8
CUT
 10
162.684419631958
 20
26.81783378124237
 30
0.0
 70
0
  0
VERTEX
  5
271
  8
CUT
 10
163.44481887817383
 20
24.692662239074707
 30
0.0
 70
0
  0
VERTEX
  5
272
  8
CUT
 10
164.15810890197753
 20
23.184536337852478
 30
0.0
 70
0
  0
VERTEX
  5
273
  8
CUT
 10
165.12314834594727
 20
21.14413070678711
 30
0.0
 70
0
  0
VERTEX
  5
274
  8
CUT
 10
165.9808265686035
 20
19.71318140029907
 30
0.0
 70
0
  0
VERTEX
  5
275
  8
CUT
 10
167.14121475219727
 20
17.777191162109375
 30
0.0
 70
0
  0
VERTEX
  5
276
  8
CUT
 10
168.1350209236145
 20
16.437199449539186
 30
0.0
 70
0
  0
VERTEX
  5
277
  8
CUT
 10
169.47958221435547
 20
14.624269485473633
 30
0.0
 70
0
  0
VERTEX
  5
278
  8
CUT
 10
170.5999444961548
 20
13.388139677047729
 30
0.0
 70
0
  0
VERTEX
  5
279
  8
CUT
 10
172.11572875976563
 20
11.715728759765625
 30
0.0
 70
0
  0
VERTEX
  5
27A
  8
CUT
 10
173.35185856819155
 20
10.595366477966309
 30
0.0
 70
0
  0
VERTEX
  5
27B
  8
CUT
 10
175.02426948547364
 20
9.079582214355469
 30
0.0
 70
0
  0
VERTEX
  5
27C
  8
CUT
 10
176.36426119804383
 20
8.085776042938232
 30
0.0
 70
0
  0
VERTEX
  5
27D
  8
CUT
 10
178.17719116210938
 20
6.741214752197266
 30
0.0
 70
0
  0
VERTEX
  5
27E
  8
CUT
 10
179.6081404685974
 20
5.8835365295410185
 30
0.0
 70
0
  0
VERTEX
  5
27F
  8
CUT
 10
181.54413070678712
 20
4.723148345947266
 30
0.0
 70
0
  0
VERTEX
  5
280
  8
CUT
 10
183.05225660800934
 20
4.0098583221435575
 30
0.0
 70
0
  0
VERTEX
  5
281
  8
CUT
 10
185.0926622390747
 20
3.044818878173828
 30
0.0
 70
0
  0
VERTEX
  5
282
  8
CUT
 10
186.66344120502472
 20
2.4827846527099595
 30
0.0
 70
0
  0
VERTEX
  5
283
  8
CUT
 10
188.7886127471924
 20
1.7223854064941406
 30
0.0
 70
0
  0
VERTEX
  5
284
  8
CUT
 10
190.40691692829134
 20
1.3170219421386733
 30
0.0
 70
0
  0
VERTEX
  5
285
  8
CUT
 10
192.5963872909546
 20
0.7685890197753906
 30
0.0
 70
0
  0
VERTEX
  5
286
  8
CUT
 10
194.24663134217263
 20
0.5237986564636259
 30
0.0
 70
0
  0
VERTEX
  5
287
  8
CUT
 10
196.47931447029114
 20
0.1926116943359375
 30
0.0
 70
0
  0
VERTEX
  5
288
  8
CUT
 10
198.14560582041742
 20
0.11075172424316548
 30
0.0
 70
0
  0
VERTEX
  5
289
  8
CUT
 10
200.4
 20
0.0
 30
0.0
 70
0
  0
VERTEX
  5
28A
  8
CUT
 10
202.06629135012628
 20
0.08185997009277202
 30
0.0
 70
0
  0
VERTEX
  5
28B
  8
CUT
 10
204.32068552970887
 20
0.1926116943359375
 30
0.0
 70
0
  0
VERTEX
  5
28C
  8
CUT
 10
205.9709295809269
 20
0.43740205764770224
 30
0.0
 70
0
  0
VERTEX
  5
28D
  8
CUT
 10
208.20361270904542
 20
0.7685890197753906
 30
0.0
 70
0
  0
VERTEX
  5
28E
  8
CUT
 10
209.82191689014437
 20
1.173952484130858
 30
0.0
 70
0
  0
VERTEX
  5
28F
  8
CUT
 10
212.01138725280762
 20
1.7223854064941406
 30
0.0
 70
0
  0
VERTEX
  5
290
  8
CUT
 10
213.58216621875764
 20
2.2844196319580092
 30
0.0
 70
0
  0
VERTEX
  5
291
  8
CUT
 10
215.7073377609253
 20
3.044818878173828
 30
0.0
 70
0
  0
VERTEX
  5
292
  8
CUT
 10
217.21546366214753
 20
3.758108901977536
 30
0.0
 70
0
  0
VERTEX
  5
293
  8
CUT
 10
219.2558692932129
 20
4.723148345947266
 30
0.0
 70
0
  0
VERTEX
  5
294
  8
CUT
 10
220.68681859970093
 20
5.580826568603513
 30
0.0
 70
0
  0
VERTEX
  5
295
  8
CUT
 10
222.62280883789063
 20
6.741214752197266
 30
0.0
 70
0
  0
VERTEX
  5
296
  8
CUT
 10
223.96280055046083
 20
7.735020923614499
 30
0.0
 70
0
  0
VERTEX
  5
297
  8
CUT
 10
225.77573051452637
 20
9.079582214355469
 30
0.0
 70
0
  0
VERTEX
  5
298
  8
CUT
 10
227.0118603229523
 20
10.199944496154785
 30
0.0
 70
0
  0
VERTEX
  5
299
  8
CUT
 10
228.68427124023438
 20
11.715728759765625
 30
0.0
 70
0
  0
VERTEX
  5
29A
  8
CUT
 10
229.8046335220337
 20
12.951858568191529
 30
0.0
 70
0
  0
VERTEX
  5
29B
  8
CUT
 10
231.32041778564454
 20
14.624269485473633
 30
0.0
 70
0
  0
VERTEX
  5
29C
  8
CUT
 10
232.31422395706178
 20
15.964261198043822
 30
0.0
 70
0
  0
VERTEX
  5
29D
  8
CUT
 10
233.65878524780274
 20
17.777191162109375
 30
0.0
 70
0
  0
VERTEX
  5
29E
  8
CUT
 10
234.51646347045897
 20
19.208140468597414
 30
0.0
 70
0
  0
VERTEX
  5
29F
  8
CUT
 10
235.67685165405274
 20
21.14413070678711
 30
0.0
 70
0
  0
VERTEX
  5
2A0
  8
CUT
 10
236.39014167785643
 20
22.65225660800934
 30
0.0
 70
0
  0
VERTEX
  5
2A1
  8
CUT
 10
237.35518112182618
 20
24.692662239074707
 30
0.0
 70
0
  0
VERTEX
  5
2A2
  8
CUT
 10
237.91721534729004
 20
26.26344120502472
 30
0.0
 70
0
  0
VERTEX
  5
2A3
  8
CUT
 10
238.67761459350587
 20
28.388612747192383
 30
0.0
 70
0
  0
VERTEX
  5
2A4
  8
CUT
 10
239.08297805786134
 20
30.00691692829132
 30
0.0
 70
0
  0
VERTEX
  5
2A5
  8
CUT
 10
239.63141098022462
 20
32.19638729095459
 30
0.0
 70
0
  0
VERTEX
  5
2A6
  8
CUT
 10
239.87620134353637
 20
33.84663134217262
 30
0.0
 70
0
  0
VERTEX
  5
2A7
  8
CUT
 10
240.20738830566407
 20
36.07931447029114
 30
0.0
 70
0
  0
VERTEX
  5
2A8
  8
CUT
 10
240.28924827575685
 20
37.7456058204174
 30
0.0
 70
0
  0
SEQEND
  5
228
  8
CUT
  0
POLYLINE
  5
2A9
  8
CUT
 66
1
 10
0.0
 20
0.0
 30
0.0
 70
1
  0
VERTEX
  5
2AB
  8
CUT
 10
193.4
 20
8.000000000000004
 30
0.0
 70
0
  0
VERTEX
  5
2AC
  8
CUT
 10
193.3423558412097
 20
7.414729033951616
 30
0.0
 70
0
  0
VERTEX
  5
2AD
  8
CUT
 10
193.17163859753387
 20
6.851949702904733
 30
0.0
 70
0
  0
VERTEX
  5
2AE
  8
CUT
 10
192.89440883690764
 20
6.333289300941196
 30
0.0
 70
0
  0
VERTEX
  5
2AF
  8
CUT
 10
192.52132034355964
 20
5.8786796564403545
 30
0.0
 70
0
  0
VERTEX
  5
2B0
  8
CUT
 10
192.0667106990588
 20
5.505591163092362
 30
0.0
 70
0
  0
VERTEX
  5
2B1
  8
CUT
 10
191.54805029709527
 20
5.228361402466142
 30
0.0
 70
0
  0
VERTEX
  5
2B2
  8
CUT
 10
190.9852709660484
 20
5.0576441587903105
 30
0.0
 70
0
  0
VERTEX
  5
2B3
  8
CUT
 10
190.4
 20
5.0
 30
0.0
 70
0
  0
VERTEX
  5
2B4
  8
CUT
 10
189.8147290339516
 20
5.0576441587903105
 30
0.0
 70
0
  0
VERTEX
  5
2B5
  8
CUT
 10
189.25194970290474
 20
5.228361402466142
 30
0.0
 70
0
  0
VERTEX
  5
2B6
  8
CUT
 10
188.7332893009412
 20
5.505591163092362
 30
0.0
 70
0
  0
VERTEX
  5
2B7
  8
CUT
 10
188.27867965644037
 20
5.8786796564403545
 30
0.0
 70
0
  0
VERTEX
  5
2B8
  8
CUT
 10
187.90559116309237
 20
6.333289300941196
 30
0.0
 70
0
  0
VERTEX
  5
2B9
  8
CUT
 10
187.62836140246614
 20
6.851949702904733
 30
0.0
 70
0
  0
VERTEX
  5
2BA
  8
CUT
 10
187.45764415879032
 20
7.414729033951616
 30
0.0
 70
0
  0
VERTEX
  5
2BB
  8
CUT
 10
187.4
 20
8.000000000000004
 30
0.0
 70
0
  0
VERTEX
  5
2BC
  8
CUT
 10
187.45764415879032
 20
8.585270966048384
 30
0.0
 70
0
  0
VERTEX
  5
2BD
  8
CUT
 10
187.62836140246614
 20
9.14805029709527
 30
0.0
 70
0
  0
VERTEX
  5
2BE
  8
CUT
 10
187.90559116309237
 20
9.666710699058807
 30
0.0
 70
0
  0
VERTEX
  5
2BF
  8
CUT
 10
188.27867965644037
 20
10.121320343559642
 30
0.0
 70
0
  0
VERTEX
  5
2C0
  8
CUT
 10
188.7332893009412
 20
10.494408836907635
 30
0.0
 70
0
  0
VERTEX
  5
2C1
  8
CUT
 10
189.25194970290474
 20
10.771638597533858
 30
0.0
 70
0
  0
VERTEX
  5
2C2
  8
CUT
 10
189.8147290339516
 20
10.94235584120969
 30
0.0
 70
0
  0
VERTEX
  5
2C3
  8
CUT
 10
190.4
 20
11.0
 30
0.0
 70
0
  0
VERTEX
  5
2C4
  8
CUT
 10
190.9852709660484
 20
10.94235584120969
 30
0.0
 70
0
  0
VERTEX
  5
2C5
  8
CUT
 10
191.54805029709527
 20
10.771638597533858
 30
0.0
 70
0
  0
VERTEX
  5
2C6
  8
CUT
 10
192.0667106990588
 20
10.494408836907638
 30
0.0
 70
0
  0
VERTEX
  5
2C7
  8
CUT
 10
192.52132034355964
 20
10.121320343559642
 30
0.0
 70
0
  0
VERTEX
  5
2C8
  8
CUT
 10
192.89440883690764
 20
9.666710699058807
 30
0.0
 70
0
  0
VERTEX
  5
2C9
  8
CUT
 10
193.17163859753387
 20
9.14805029709527
 30
0.0
 70
0
  0
VERTEX
  5
2CA
  8
CUT
 10
193.3423558412097
 20
8.585270966048387
 30
0.0
 70
0
  0
SEQEND
  5
2AA
  8
CUT
  0
POLYLINE
  5
2CB
  8
CUT
 66
1
 10
0.0
 20
0.0
 30
0.0
 70
1
  0
VERTEX
  5
2CD
  8
CUT
 10
213.4
 20
72.0
 30
0.0
 70
0
  0
VERTEX
  5
2CE
  8
CUT
 10
213.3423558412097
 20
71.41472903395162
 30
0.0
 70
0
  0
VERTEX
  5
2CF
  8
CUT
 10
213.17163859753387
 20
70.85194970290473
 30
0.0
 70
0
  0
VERTEX
  5
2D0
  8
CUT
 10
212.89440883690764
 20
70.33328930094119
 30
0.0
 70
0
  0
VERTEX
  5
2D1
  8
CUT
 10
212.52132034355964
 20
69.87867965644035
 30
0.0
 70
0
  0
VERTEX
  5
2D2
  8
CUT
 10
212.0667106990588
 20
69.50559116309236
 30
0.0
 70
0
  0
VERTEX
  5
2D3
  8
CUT
 10
211.54805029709527
 20
69.22836140246613
 30
0.0
 70
0
  0
VERTEX
  5
2D4
  8
CUT
 10
210.9852709660484
 20
69.05764415879031
 30
0.0
 70
0
  0
VERTEX
  5
2D5
  8
CUT
 10
210.4
 20
69.0
 30
0.0
 70
0
  0
VERTEX
  5
2D6
  8
CUT
 10
209.8147290339516
 20
69.05764415879031
 30
0.0
 70
0
  0
VERTEX
  5
2D7
  8
CUT
 10
209.25194970290474
 20
69.22836140246613
 30
0.0
 70
0
  0
VERTEX
  5
2D8
  8
CUT
 10
208.7332893009412
 20
69.50559116309236
 30
0.0
 70
0
  0
VERTEX
  5
2D9
  8
CUT
 10
208.27867965644037
 20
69.87867965644035
 30
0.0
 70
0
  0
VERTEX
  5
2DA
  8
CUT
 10
207.90559116309237
 20
70.33328930094119
 30
0.0
 70
0
  0
VERTEX
  5
2DB
  8
CUT
 10
207.62836140246614
 20
70.85194970290473
 30
0.0
 70
0
  0
VERTEX
  5
2DC
  8
CUT
 10
207.45764415879032
 20
71.41472903395162
 30
0.0
 70
0
  0
VERTEX
  5
2DD
  8
CUT
 10
207.4
 20
72.0
 30
0.0
 70
0
  0
VERTEX
  5
2DE
  8
CUT
 10
207.45764415879032
 20
72.58527096604838
 30
0.0
 70
0
  0
VERTEX
  5
2DF
  8
CUT
 10
207.62836140246614
 20
73.14805029709527
 30
0.0
 70
0
  0
VERTEX
  5
2E0
  8
CUT
 10
207.90559116309237
 20
73.6667106990588
 30
0.0
 70
0
  0
VERTEX
  5
2E1
  8
CUT
 10
208.27867965644037
 20
74.12132034355965
 30
0.0
 70
0
  0
VERTEX
  5
2E2
  8
CUT
 10
208.7332893009412
 20
74.49440883690764
 30
0.0
 70
0
  0
VERTEX
  5
2E3
  8
CUT
 10
209.25194970290474
 20
74.77163859753387
 30
0.0
 70
0
  0
VERTEX
  5
2E4
  8
CUT
 10
209.8147290339516
 20
74.94235584120969
 30
0.0
 70
0
  0
VERTEX
  5
2E5
  8
CUT
 10
210.4
 20
75.0
 30
0.0
 70
0
  0
VERTEX
  5
2E6
  8
CUT
 10
210.9852709660484
 20
74.94235584120969
 30
0.0
 70
0
  0
VERTEX
  5
2E7
  8
CUT
 10
211.54805029709527
 20
74.77163859753387
 30
0.0
 70
0
  0
VERTEX
  5
2E8
  8
CUT
 10
212.0667106990588
 20
74.49440883690764
 30
0.0
 70
0
  0
VERTEX
  5
2E9
  8
CUT
 10
212.52132034355964
 20
74.12132034355965
 30
0.0
 70
0
  0
VERTEX
  5
2EA
  8
CUT
 10
212.89440883690764
 20
73.6667106990588
 30
0.0
 70
0
  0
VERTEX
  5
2EB
  8
CUT
 10
213.17163859753387
 20
73.14805029709527
 30
0.0
 70
0
  0
VERTEX
  5
2EC
  8
CUT
 10
213.3423558412097
 20
72.58527096604838
 30
0.0
 70
0
  0
SEQEND
  5
2CC
  8
CUT
  0
POLYLINE
  5
2ED
  8
CUT
 66
1
 10
0.0
 20
0.0
 30
0.0
 70
1
  0
VERTEX
  5
2EF
  8
CUT
 10
235.4
 20
30.0
 30
0.0
 70
0
  0
VERTEX
  5
2F0
  8
CUT
 10
235.3423558412097
 20
29.414729033951616
 30
0.0
 70
0
  0
VERTEX
  5
2F1
  8
CUT
 10
235.17163859753387
 20
28.851949702904733
 30
0.0
 70
0
  0
VERTEX
  5
2F2
  8
CUT
 10
234.89440883690764
 20
28.333289300941193
 30
0.0
 70
0
  0
VERTEX
  5
2F3
  8
CUT
 10
234.52132034355964
 20
27.878679656440358
 30
0.0
 70
0
  0
VERTEX
  5
2F4
  8
CUT
 10
234.0667106990588
 20
27.505591163092365
 30
0.0
 70
0
  0
VERTEX
  5
2F5
  8
CUT
 10
233.54805029709527
 20
27.228361402466142
 30
0.0
 70
0
  0
VERTEX
  5
2F6
  8
CUT
 10
232.9852709660484
 20
27.05764415879031
 30
0.0
 70
0
  0
VERTEX
  5
2F7
  8
CUT
 10
232.4
 20
27.0
 30
0.0
 70
0
  0
VERTEX
  5
2F8
  8
CUT
 10
231.8147290339516
 20
27.05764415879031
 30
0.0
 70
0
  0
VERTEX
  5
2F9
  8
CUT
 10
231.25194970290474
 20
27.228361402466142
 30
0.0
 70
0
  0
VERTEX
  5
2FA
  8
CUT
 10
230.7332893009412
 20
27.50559116309236
 30
0.0
 70
0
  0
VERTEX
  5
2FB
  8
CUT
 10
230.27867965644037
 20
27.878679656440358
 30
0.0
 70
0
  0
VERTEX
  5
2FC
  8
CUT
 10
229.90559116309237
 20
28.333289300941193
 30
0.0
 70
0
  0
VERTEX
  5
2FD
  8
CUT
 10
229.62836140246614
 20
28.85194970290473
 30
0.0
 70
0
  0
VERTEX
  5
2FE
  8
CUT
 10
229.45764415879032
 20
29.414729033951616
 30
0.0
 70
0
  0
VERTEX
  5
2FF
  8
CUT
 10
229.4
 20
30.0
 30
0.0
 70
0
  0
VERTEX
  5
300
  8
CUT
 10
229.45764415879032
 20
30.585270966048384
 30
0.0
 70
0
  0
VERTEX
  5
301
  8
CUT
 10
229.62836140246614
 20
31.148050297095267
 30
0.0
 70
0
  0
VERTEX
  5
302
  8
CUT
 10
229.90559116309237
 20
31.666710699058804
 30
0.0
 70
0
  0
VERTEX
  5
303
  8
CUT
 10
230.27867965644037
 20
32.121320343559645
 30
0.0
 70
0
  0
VERTEX
  5
304
  8
CUT
 10
230.7332893009412
 20
32.49440883690764
 30
0.0
 70
0
  0
VERTEX
  5
305
  8
CUT
 10
231.25194970290474
 20
32.77163859753386
 30
0.0
 70
0
  0
VERTEX
  5
306
  8
CUT
 10
231.8147290339516
 20
32.94235584120969
 30
0.0
 70
0
  0
VERTEX
  5
307
  8
CUT
 10
232.4
 20
33.0
 30
0.0
 70
0
  0
VERTEX
  5
308
  8
CUT
 10
232.9852709660484
 20
32.94235584120969
 30
0.0
 70
0
  0
VERTEX
  5
309
  8
CUT
 10
233.54805029709527
 20
32.77163859753386
 30
0.0
 70
0
  0
VERTEX
  5
30A
  8
CUT
 10
234.0667106990588
 20
32.49440883690764
 30
0.0
 70
0
  0
VERTEX
  5
30B
  8
CUT
 10
234.52132034355964
 20
32.121320343559645
 30
0.0
 70
0
  0
VERTEX
  5
30C
  8
CUT
 10
234.89440883690764
 20
31.666710699058807
 30
0.0
 70
0
  0
VERTEX
  5
30D
  8
CUT
 10
235.17163859753387
 20
31.14805029709527
 30
0.0
 70
0
  0
VERTEX
  5
30E
  8
CUT
 10
235.3423558412097
 20
30.585270966048384
 30
0.0
 70
0
  0
SEQEND
  5
2EE
  8
CUT
  0
POLYLINE
  5
30F
  8
ENGRAVE
 66
1
 10
0.0
 20
0.0
 30
0.0
 70
0
  0
VERTEX
  5
311
  8
ENGRAVE
 10
215.4
 20
65.0
 30
0.0
 70
0
  0
VERTEX
  5
312
  8
ENGRAVE
 10
215.4
 20
71.0
 30
0.0
 70
0
  0
SEQEND
  5
310
  8
ENGRAVE
  0
POLYLINE
  5
313
  8
ENGRAVE
 66
1
 10
0.0
 20
0.0
 30
0.0
 70
0
  0
VERTEX
  5
315
  8
ENGRAVE
 10
215.4
 20
71.0
 30
0.0
 70
0
  0
VERTEX
  5
316
  8
ENGRAVE
 10
220.4
 20
71.0
 30
0.0
 70
0
  0
SEQEND
  5
314
  8
ENGRAVE
  0
POLYLINE
  5
317
  8
ENGRAVE
 66
1
 10
0.0
 20
0.0
 30
0.0
 70
0
  0
VERTEX
  5
319
  8
ENGRAVE
 10
220.4
 20
71.0
 30
0.0
 70
0
  0
VERTEX
  5
31A
  8
ENGRAVE
 10
225.4
 20
71.0
 30
0.0
 70
0
  0
SEQEND
  5
318
  8
ENGRAVE
  0
POLYLINE
  5
31B
  8
ENGRAVE
 66
1
 10
0.0
 20
0.0
 30
0.0
 70
0
  0
VERTEX
  5
31D
  8
ENGRAVE
 10
225.4
 20
65.0
 30
0.0
 70
0
  0
VERTEX
  5
31E
  8
ENGRAVE
 10
225.4
 20
71.0
 30
0.0
 70
0
  0
SEQEND
  5
31C
  8
ENGRAVE
  0
POLYLINE
  5
31F
  8
ENGRAVE
 66
1
 10
0.0
 20
0.0
 30
0.0
 70
0
  0
VERTEX
  5
321
  8
ENGRAVE
 10
215.4
 20
65.0
 30
0.0
 70
0
  0
VERTEX
  5
322
  8
ENGRAVE
 10
220.4
 20
65.0
 30
0.0
 70
0
  0
SEQEND
  5
320
  8
ENGRAVE
  0
POLYLINE
  5
323
  8
ENGRAVE
 66
1
 10
0.0
 20
0.0
 30
0.0
 70
0
  0
VERTEX
  5
325
  8
ENGRAVE
 10
220.4
 20
65.0
 30
0.0
 70
0
  0
VERTEX
  5
326
  8
ENGRAVE
 10
220.4
 20
71.0
 30
0.0
 70
0
  0
SEQEND
  5
324
  8
ENGRAVE
  0
POLYLINE
  5
327
  8
CUT
 66
1
 10
0.0
 20
0.0
 30
0.0
 70
1
  0
VERTEX
  5
329
  8
CUT
 10
80.0
 20
120.2
 30
0.0
 70
0
  0
VERTEX
  5
32A
  8
CUT
 10
79.90850944519043
 20
122.06232562661171
 30
0.0
 70
0
  0
VERTEX
  5
32B
  8
CUT
 10
79.80738830566406
 20
124.12068552970887
 30
0.0
 70
0
  0
VERTEX
  5
32C
  8
CUT
 10
79.53379907608033
 20
125.96507593989372
 30
0.0
 70
0
  0
VERTEX
  5
32D
  8
CUT
 10
79.23141098022461
 20
128.0036127090454
 30
0.0
 70
0
  0
VERTEX
  5
32E
  8
CUT
 10
78.7783576965332
 20
129.81230561733247
 30
0.0
 70
0
  0
VERTEX
  5
32F
  8
CUT
 10
78.27761459350586
 20
131.8113872528076
 30
0.0
 70
0
  0
VERTEX
  5
330
  8
CUT
 10
77.649458694458
 20
133.5669637441635
 30
0.0
 70
0
  0
VERTEX
  5
331
  8
CUT
 10
76.95518112182617
 20
135.50733776092528
 30
0.0
 70
0
  0
VERTEX
  5
332
  8
CUT
 10
76.1579746246338
 20
137.1928902387619
 30
0.0
 70
0
  0
VERTEX
  5
333
  8
CUT
 10
75.27685165405273
 20
139.05586929321288
 30
0.0
 70
0
  0
VERTEX
  5
334
  8
CUT
 10
74.31827011108399
 20
140.65516557693482
 30
0.0
 70
0
  0
VERTEX
  5
335
  8
CUT
 10
73.25878524780273
 20
142.4228088378906
 30
0.0
 70
0
  0
VERTEX
  5
336
  8
CUT
 10
72.1480607032776
 20
143.9204466342926
 30
0.0
 70
0
  0
VERTEX
  5
337
  8
CUT
 10
70.92041778564453
 20
145.57573051452636
 30
0.0
 70
0
  0
VERTEX
  5
338
  8
CUT
 10
69.6682481765747
 20
146.95728735923768
 30
0.0
 70
0
  0
VERTEX
  5
339
  8
CUT
 10
68.28427124023438
 20
148.48427124023436
 30
0.0
 70
0
  0
VERTEX
  5
33A
  8
CUT
 10
66.90271439552308
 20
149.7364408493042
 30
0.0
 70
0
  0
VERTEX
  5
33B
  8
CUT
 10
65.37573051452637
 20
151.12041778564452
 30
0.0
 70
0
  0
VERTEX
  5
33C
  8
CUT
 10
63.87809271812439
 20
152.2311423301697
 30
0.0
 70
0
  0
VERTEX
  5
33D
  8
CUT
 10
62.222808837890625
 20
153.45878524780272
 30
0.0
 70
0
  0
VERTEX
  5
33E
  8
CUT
 10
60.6235125541687
 20
154.4173667907715
 30
0.0
 70
0
  0
VERTEX
  5
33F
  8
CUT
 10
58.85586929321289
 20
155.47685165405272
 30
0.0
 70
0
  0
VERTEX
  5
340
  8
CUT
 10
57.17031681537628
 20
156.27405815124513
 30
0.0
 70
0
  0
VERTEX
  5
341
  8
CUT
 10
55.30733776092529
 20
157.15518112182616
 30
0.0
 70
0
  0
VERTEX
  5
342
  8
CUT
 10
53.5517612695694
 20
157.78333702087403
 30
0.0
 70
0
  0
VERTEX
  5
343
  8
CUT
 10
51.61138725280762
 20
158.47761459350585
 30
0.0
 70
0
  0
VERTEX
  5
344
  8
CUT
 10
49.80269434452057
 20
158.93066787719727
 30
0.0
 70
0
  0
VERTEX
  5
345
  8
CUT
 10
47.80361270904541
 20
159.4314109802246
 30
0.0
 70
0
  0
VERTEX
  5
346
  8
CUT
 10
45.95922229886055
 20
159.70500020980836
 30
0.0
 70
0
  0
VERTEX
  5
347
  8
CUT
 10
43.92068552970886
 20
160.00738830566405
 30
0.0
 70
0
  0
VERTEX
  5
348
  8
CUT
 10
42.058359903097156
 20
160.09887886047363
 30
0.0
 70
0
  0
VERTEX
  5
349
  8
CUT
 10
40.0
 20
160.2
 30
0.0
 70
0
  0
VERTEX
  5
34A
  8
CUT
 10
38.13767437338829
 20
160.10850944519044
 30
0.0
 70
0
  0
VERTEX
  5
34B
  8
CUT
 10
36.07931447029114
 20
160.00738830566405
 30
0.0
 70
0
  0
VERTEX
  5
34C
  8
CUT
 10
34.23492406010628
 20
159.73379907608032
 30
0.0
 70
0
  0
VERTEX
  5
34D
  8
CUT
 10
32.19638729095459
 20
159.4314109802246
 30
0.0
 70
0
  0
VERTEX
  5
34E
  8
CUT
 10
30.38769438266754
 20
158.9783576965332
 30
0.0
 70
0
  0
VERTEX
  5
34F
  8
CUT
 10
28.388612747192383
 20
158.47761459350585
 30
0.0
 70
0
  0
VERTEX
  5
350
  8
CUT
 10
26.633036255836487
 20
157.849458694458
 30
0.0
 70
0
  0
VERTEX
  5
351
  8
CUT
 10
24.692662239074707
 20
157.15518112182616
 30
0.0
 70
0
  0
VERTEX
  5
352
  8
CUT
 10
23.007109761238098
 20
156.35797462463378
 30
0.0
 70
0
  0
VERTEX
  5
353
  8
CUT
 10
21.14413070678711
 20
155.47685165405272
 30
0.0
 70
0
  0
VERTEX
  5
354
  8
CUT
 10
19.544834423065186
 20
154.51827011108398
 30
0.0
 70
0
  0
VERTEX
  5
355
  8
CUT
 10
17.777191162109375
 20
153.45878524780272
 30
0.0
 70
0
  0
VERTEX
  5
356
  8
CUT
 10
16.279553365707397
 20
152.34806070327758
 30
0.0
 70
0
  0
VERTEX
  5
357
  8
CUT
 10
14.624269485473633
 20
151.12041778564452
 30
0.0
 70
0
  0
VERTEX
  5
358
  8
CUT
 10
13.242712640762328
 20
149.8682481765747
 30
0.0
 70
0
  0
VERTEX
  5
359
  8
CUT
 10
11.715728759765625
 20
148.48427124023436
 30
0.0
 70
0
  0
VERTEX
  5
35A
  8
CUT
 10
10.4635591506958
 20
147.10271439552307
 30
0.0
 70
0
  0
VERTEX
  5
35B
  8
CUT
 10
9.079582214355469
 20
145.57573051452636
 30
0.0
 70
0
  0
VERTEX
  5
35C
  8
CUT
 10
7.968857669830321
 20
144.0780927181244
 30
0.0
 70
0
  0
VERTEX
  5
35D
  8
CUT
 10
6.741214752197266
 20
142.4228088378906
 30
0.0
 70
0
  0
VERTEX
  5
35E
  8
CUT
 10
5.782633209228514
 20
140.8235125541687
 30
0.0
 70
0
  0
VERTEX
  5
35F
  8
CUT
 10
4.723148345947266
 20
139.05586929321288
 30
0.0
 70
0
  0
VERTEX
  5
360
  8
CUT
 10
3.9259418487548814
 20
137.37031681537627
 30
0.0
 70
0
  0
VERTEX
  5
361
  8
CUT
 10
3.044818878173828
 20
135.50733776092528
 30
0.0
 70
0
  0
VERTEX
  5
362
  8
CUT
 10
2.4166629791259737
 20
133.75176126956939
 30
0.0
 70
0
  0
VERTEX
  5
363
  8
CUT
 10
1.7223854064941406
 20
131.8113872528076
 30
0.0
 70
0
  0
VERTEX
  5
364
  8
CUT
 10
1.2693321228027372
 20
130.00269434452056
 30
0.0
 70
0
  0
VERTEX
  5
365
  8
CUT
 10
0.7685890197753906
 20
128.0036127090454
 30
0.0
 70
0
  0
VERTEX
  5
366
  8
CUT
 10
0.49499979019164897
 20
126.15922229886056
 30
0.0
 70
0
  0
VERTEX
  5
367
  8
CUT
 10
0.1926116943359375
 20
124.12068552970887
 30
0.0
 70
0
  0
VERTEX
  5
368
  8
CUT
 10
0.10112113952637003
 20
122.25835990309716
 30
0.0
 70
0
  0
VERTEX
  5
369
  8
CUT
 10
0.0
 20
120.19999999999999
 30
0.0
 70
0
  0
VERTEX
  5
36A
  8
CUT
 10
0.09149055480956747
 20
118.3376743733883
 30
0.0
 70
0
  0
VERTEX
  5
36B
  8
CUT
 10
0.1926116943359375
 20
116.27931447029114
 30
0.0
 70
0
  0
VERTEX
  5
36C
  8
CUT
 10
0.46620092391967916
 20
114.43492406010628
 30
0.0
 70
0
  0
VERTEX
  5
36D
  8
CUT
 10
0.7685890197753906
 20
112.39638729095459
 30
0.0
 70
0
  0
VERTEX
  5
36E
  8
CUT
 10
1.221642303466794
 20
110.58769438266755
 30
0.0
 70
0
  0
VERTEX
  5
36F
  8
CUT
 10
1.7223854064941406
 20
108.58861274719239
 30
0.0
 70
0
  0
VERTEX
  5
370
  8
CUT
 10
2.350541305541995
 20
106.83303625583649
 30
0.0
 70
0
  0
VERTEX
  5
371
  8
CUT
 10
3.044818878173828
 20
104.89266223907471
 30
0.0
 70
0
  0
VERTEX
  5
372
  8
CUT
 10
3.8420253753662124
 20
103.2071097612381
 30
0.0
 70
0
  0
VERTEX
  5
373
  8
CUT
 10
4.723148345947266
 20
101.34413070678711
 30
0.0
 70
0
  0
VERTEX
  5
374
  8
CUT
 10
5.681729888916017
 20
99.74483442306519
 30
0.0
 70
0
  0
VERTEX
  5
375
  8
CUT
 10
6.741214752197266
 20
97.97719116210938
 30
0.0
 70
0
  0
VERTEX
  5
376
  8
CUT
 10
7.8519392967224135
 20
96.4795533657074
 30
0.0
 70
0
  0
VERTEX
  5
377
  8
CUT
 10
9.079582214355469
 20
94.82426948547364
 30
0.0
 70
0
  0
VERTEX
  5
378
  8
CUT
 10
10.331751823425293
 20
93.44271264076232
 30
0.0
 70
0
  0
VERTEX
  5
379
  8
CUT
 10
11.715728759765625
 20
91.91572875976563
 30
0.0
 70
0
  0
VERTEX
  5
37A
  8
CUT
 10
13.09728560447693
 20
90.6635591506958
 30
0.0
 70
0
  0
VERTEX
  5
37B
  8
CUT
 10
14.624269485473633
 20
89.27958221435547
 30
0.0
 70
0
  0
VERTEX
  5
37C
  8
CUT
 10
16.12190728187561
 20
88.16885766983032
 30
0.0
 70
0
  0
VERTEX
  5
37D
  8
CUT
 10
17.777191162109375
 20
86.94121475219727
 30
0.0
 70
0
  0
VERTEX
  5
37E
  8
CUT
 10
19.376487445831298
 20
85.98263320922851
 30
0.0
 70
0
  0
VERTEX
  5
37F
  8
CUT
 10
21.14413070678711
 20
84.92314834594727
 30
0.0
 70
0
  0
VERTEX
  5
380
  8
CUT
 10
22.82968318462372
 20
84.12594184875488
 30
0.0
 70
0
  0
VERTEX
  5
381
  8
CUT
 10
24.692662239074707
 20
83.24481887817383
 30
0.0
 70
0
  0
VERTEX
  5
382
  8
CUT
 10
26.448238730430603
 20
82.61666297912598
 30
0.0
 70
0
  0
VERTEX
  5
383
  8
CUT
 10
28.388612747192383
 20
81.92238540649414
 30
0.0
 70
0
  0
VERTEX
  5
384
  8
CUT
 10
30.197305655479433
 20
81.46933212280274
 30
0.0
 70
0
  0
VERTEX
  5
385
  8
CUT
 10
32.19638729095459
 20
80.9685890197754
 30
0.0
 70
0
  0
VERTEX
  5
386
  8
CUT
 10
34.04077770113945
 20
80.69499979019164
 30
0.0
 70
0
  0
VERTEX
  5
387
  8
CUT
 10
36.07931447029114
 20
80.39261169433594
 30
0.0
 70
0
  0
VERTEX
  5
388
  8
CUT
 10
37.94164009690285
 20
80.30112113952637
 30
0.0
 70
0
  0
VERTEX
  5
389
  8
CUT
 10
40.00000000000001
 20
80.2
 30
0.0
 70
0
  0
VERTEX
  5
38A
  8
CUT
 10
41.862325626611714
 20
80.29149055480957
 30
0.0
 70
0
  0
VERTEX
  5
38B
  8
CUT
 10
43.92068552970886
 20
80.39261169433594
 30
0.0
 70
0
  0
VERTEX
  5
38C
  8
CUT
 10
45.76507593989372
 20
80.66620092391969
 30
0.0
 70
0
  0
VERTEX
  5
38D
  8
CUT
 10
47.80361270904541
 20
80.9685890197754
 30
0.0
 70
0
  0
VERTEX
  5
38E
  8
CUT
 10
49.61230561733246
 20
81.4216423034668
 30
0.0
 70
0
  0
VERTEX
  5
38F
  8
CUT
 10
51.61138725280762
 20
81.92238540649414
 30
0.0
 70
0
  0
VERTEX
  5
390
  8
CUT
 10
53.36696374416351
 20
82.550541305542
 30
0.0
 70
0
  0
VERTEX
  5
391
  8
CUT
 10
55.30733776092529
 20
83.24481887817383
 30
0.0
 70
0
  0
VERTEX
  5
392
  8
CUT
 10
56.9928902387619
 20
84.04202537536622
 30
0.0
 70
0
  0
VERTEX
  5
393
  8
CUT
 10
58.85586929321289
 20
84.92314834594727
 30
0.0
 70
0
  0
VERTEX
  5
394
  8
CUT
 10
60.45516557693482
 20
85.88172988891603
 30
0.0
 70
0
  0
VERTEX
  5
395
  8
CUT
 10
62.222808837890625
 20
86.94121475219727
 30
0.0
 70
0
  0
VERTEX
  5
396
  8
CUT
 10
63.7204466342926
 20
88.05193929672242
 30
0.0
 70
0
  0
VERTEX
  5
397
  8
CUT
 10
65.37573051452637
 20
89.27958221435547
 30
0.0
 70
0
  0
VERTEX
  5
398
  8
CUT
 10
66.75728735923767
 20
90.5317518234253
 30
0.0
 70
0
  0
VERTEX
  5
399
  8
CUT
 10
68.28427124023438
 20
91.91572875976563
 30
0.0
 70
0
  0
VERTEX
  5
39A
  8
CUT
 10
69.5364408493042
 20
93.29728560447694
 30
0.0
 70
0
  0
VERTEX
  5
39B
  8
CUT
 10
70.92041778564453
 20
94.82426948547364
 30
0.0
 70
0
  0
VERTEX
  5
39C
  8
CUT
 10
72.03114233016967
 20
96.32190728187561
 30
0.0
 70
0
  0
VERTEX
  5
39D
  8
CUT
 10
73.25878524780273
 20
97.97719116210938
 30
0.0
 70
0
  0
VERTEX
  5
39E
  8
CUT
 10
74.21736679077148
 20
99.5764874458313
 30
0.0
 70
0
  0
VERTEX
  5
39F
  8
CUT
 10
75.27685165405273
 20
101.34413070678711
 30
0.0
 70
0
  0
VERTEX
  5
3A0
  8
CUT
 10
76.07405815124511
 20
103.02968318462372
 30
0.0
 70
0
  0
VERTEX
  5
3A1
  8
CUT
 10
76.95518112182617
 20
104.89266223907471
 30
0.0
 70
0
  0
VERTEX
  5
3A2
  8
CUT
 10
77.58333702087403
 20
106.6482387304306
 30
0.0
 70
0
  0
VERTEX
  5
3A3
  8
CUT
 10
78.27761459350586
 20
108.58861274719239
 30
0.0
 70
0
  0
VERTEX
  5
3A4
  8
CUT
 10
78.73066787719726
 20
110.39730565547943
 30
0.0
 70
0
  0
VERTEX
  5
3A5
  8
CUT
 10
79.23141098022461
 20
112.39638729095459
 30
0.0
 70
0
  0
VERTEX
  5
3A6
  8
CUT
 10
79.50500020980834
 20
114.24077770113945
 30
0.0
 70
0
  0
VERTEX
  5
3A7
  8
CUT
 10
79.80738830566406
 20
116.27931447029114
 30
0.0
 70
0
  0
VERTEX
  5
3A8
  8
CUT
 10
79.89887886047363
 20
118.14164009690285
 30
0.0
 70
0
  0
SEQEND
  5
328
  8
CUT
  0
POLYLINE
  5
3A9
  8
CUT
 66
1
 10
0.0
 20
0.0
 30
0.0
 70
1
  0
VERTEX
  5
3AB
  8
CUT
 10
33.0
 20
88.2
 30
0.0
 70
0
  0
VERTEX
  5
3AC
  8
CUT
 10
32.94235584120969
 20
87.61472903395162
 30
0.0
 70
0
  0
VERTEX
  5
3AD
  8
CUT
 10
32.77163859753386
 20
87.05194970290474
 30
0.0
 70
0
  0
VERTEX
  5
3AE
  8
CUT
 10
32.49440883690764
 20
86.53328930094119
 30
0.0
 70
0
  0
VERTEX
  5
3AF
  8
CUT
 10
32.121320343559645
 20
86.07867965644036
 30
0.0
 70
0
  0
VERTEX
  5
3B0
  8
CUT
 10
31.666710699058807
 20
85.70559116309236
 30
0.0
 70
0
  0
VERTEX
  5
3B1
  8
CUT
 10
31.148050297095267
 20
85.42836140246615
 30
0.0
 70
0
  0
VERTEX
  5
3B2
  8
CUT
 10
30.585270966048384
 20
85.25764415879031
 30
0.0
 70
0
  0
VERTEX
  5
3B3
  8
CUT
 10
30.0
 20
85.2
 30
0.0
 70
0
  0
VERTEX
  5
3B4
  8
CUT
 10
29.414729033951616
 20
85.25764415879031
 30
0.0
 70
0
  0
VERTEX
  5
3B5
  8
CUT
 10
28.851949702904733
 20
85.42836140246615
 30
0.0
 70
0
  0
VERTEX
  5
3B6
  8
CUT
 10
28.333289300941196
 20
85.70559116309236
 30
0.0
 70
0
  0
VERTEX
  5
3B7
  8
CUT
 10
27.878679656440358
 20
86.07867965644036
 30
0.0
 70
0
  0
VERTEX
  5
3B8
  8
CUT
 10
27.50559116309236
 20
86.53328930094119
 30
0.0
 70
0
  0
VERTEX
  5
3B9
  8
CUT
 10
27.228361402466142
 20
87.05194970290474
 30
0.0
 70
0
  0
VERTEX
  5
3BA
  8
CUT
 10
27.05764415879031
 20
87.61472903395162
 30
0.0
 70
0
  0
VERTEX
  5
3BB
  8
CUT
 10
27.0
 20
88.2
 30
0.0
 70
0
  0
VERTEX
  5
3BC
  8
CUT
 10
27.05764415879031
 20
88.78527096604839
 30
0.0
 70
0
  0
VERTEX
  5
3BD
  8
CUT
 10
27.228361402466142
 20
89.34805029709527
 30
0.0
 70
0
  0
VERTEX
  5
3BE
  8
CUT
 10
27.50559116309236
 20
89.86671069905881
 30
0.0
 70
0
  0
VERTEX
  5
3BF
  8
CUT
 10
27.878679656440358
 20
90.32132034355965
 30
0.0
 70
0
  0
VERTEX
  5
3C0
  8
CUT
 10
28.333289300941193
 20
90.69440883690764
 30
0.0
 70
0
  0
VERTEX
  5
3C1
  8
CUT
 10
28.85194970290473
 20
90.97163859753385
 30
0.0
 70
0
  0
VERTEX
  5
3C2
  8
CUT
 10
29.414729033951616
 20
91.14235584120969
 30
0.0
 70
0
  0
VERTEX
  5
3C3
  8
CUT
 10
30.0
 20
91.2
 30
0.0
 70
0
  0
VERTEX
  5
3C4
  8
CUT
 10
30.585270966048384
 20
91.14235584120969
 30
0.0
 70
0
  0
VERTEX
  5
3C5
  8
CUT
 10
31.14805029709527
 20
90.97163859753385
 30
0.0
 70
0
  0
VERTEX
  5
3C6
  8
CUT
 10
31.666710699058804
 20
90.69440883690764
 30
0.0
 70
0
  0
VERTEX
  5
3C7
  8
CUT
 10
32.121320343559645
 20
90.32132034355965
 30
0.0
 70
0
  0
VERTEX
  5
3C8
  8
CUT
 10
32.49440883690764
 20
89.86671069905881
 30
0.0
 70
0
  0
VERTEX
  5
3C9
  8
CUT
 10
32.77163859753386
 20
89.34805029709527
 30
0.0
 70
0
  0
VERTEX
  5
3CA
  8
CUT
 10
32.94235584120969
 20
88.78527096604839
 30
0.0
 70
0
  0
SEQEND
  5
3AA
  8
CUT
  0
POLYLINE
  5
3CB
  8
CUT
 66
1
 10
0.0
 20
0.0
 30
0.0
 70
1
  0
VERTEX
  5
3CD
  8
CUT
 10
53.0
 20
152.2
 30
0.0
 70
0
  0
VERTEX
  5
3CE
  8
CUT
 10
52.94235584120969
 20
151.61472903395162
 30
0.0
 70
0
  0
VERTEX
  5
3CF
  8
CUT
 10
52.77163859753386
 20
151.05194970290472
 30
0.0
 70
0
  0
VERTEX
  5
3D0
  8
CUT
 10
52.49440883690764
 20
150.5332893009412
 30
0.0
 70
0
  0
VERTEX
  5
3D1
  8
CUT
 10
52.121320343559645
 20
150.07867965644036
 30
0.0
 70
0
  0
VERTEX
  5
3D2
  8
CUT
 10
51.66671069905881
 20
149.70559116309238
 30
0.0
 70
0
  0
VERTEX
  5
3D3
  8
CUT
 10
51.14805029709527
 20
149.42836140246615
 30
0.0
 70
0
  0
VERTEX
  5
3D4
  8
CUT
 10
50.585270966048384
 20
149.2576441587903
 30
0.0
 70
0
  0
VERTEX
  5
3D5
  8
CUT
 10
50.0
 20
149.2
 30
0.0
 70
0
  0
VERTEX
  5
3D6
  8
CUT
 10
49.414729033951616
 20
149.2576441587903
 30
0.0
 70
0
  0
VERTEX
  5
3D7
  8
CUT
 10
48.85194970290473
 20
149.42836140246615
 30
0.0
 70
0
  0
VERTEX
  5
3D8
  8
CUT
 10
48.333289300941196
 20
149.70559116309238
 30
0.0
 70
0
  0
VERTEX
  5
3D9
  8
CUT
 10
47.878679656440355
 20
150.07867965644036
 30
0.0
 70
0
  0
VERTEX
  5
3DA
  8
CUT
 10
47.50559116309236
 20
150.5332893009412
 30
0.0
 70
0
  0
VERTEX
  5
3DB
  8
CUT
 10
47.22836140246614
 20
151.05194970290472
 30
0.0
 70
0
  0
VERTEX
  5
3DC
  8
CUT
 10
47.05764415879031
 20
151.61472903395162
 30
0.0
 70
0
  0
VERTEX
  5
3DD
  8
CUT
 10
47.0
 20
152.2
 30
0.0
 70
0
  0
VERTEX
  5
3DE
  8
CUT
 10
47.05764415879031
 20
152.7852709660484
 30
0.0
 70
0
  0
VERTEX
  5
3DF
  8
CUT
 10
47.22836140246614
 20
153.34805029709526
 30
0.0
 70
0
  0
VERTEX
  5
3E0
  8
CUT
 10
47.50559116309236
 20
153.8667106990588
 30
0.0
 70
0
  0
VERTEX
  5
3E1
  8
CUT
 10
47.878679656440355
 20
154.32132034355965
 30
0.0
 70
0
  0
VERTEX
  5
3E2
  8
CUT
 10
48.33328930094119
 20
154.69440883690766
 30
0.0
 70
0
  0
VERTEX
  5
3E3
  8
CUT
 10
48.85194970290473
 20
154.97163859753385
 30
0.0
 70
0
  0
VERTEX
  5
3E4
  8
CUT
 10
49.414729033951616
 20
155.14235584120968
 30
0.0
 70
0
  0
VERTEX
  5
3E5
  8
CUT
 10
50.0
 20
155.2
 30
0.0
 70
0
  0
VERTEX
  5
3E6
  8
CUT
 10
50.585270966048384
 20
155.14235584120968
 30
0.0
 70
0
  0
VERTEX
  5
3E7
  8
CUT
 10
51.14805029709527
 20
154.97163859753385
 30
0.0
 70
0
  0
VERTEX
  5
3E8
  8
CUT
 10
51.666710699058804
 20
154.69440883690766
 30
0.0
 70
0
  0
VERTEX
  5
3E9
  8
CUT
 10
52.121320343559645
 20
154.32132034355965
 30
0.0
 70
0
  0
VERTEX
  5
3EA
  8
CUT
 10
52.49440883690764
 20
153.8667106990588
 30
0.0
 70
0
  0
VERTEX
  5
3EB
  8
CUT
 10
52.77163859753386
 20
153.34805029709528
 30
0.0
 70
0
  0
VERTEX
  5
3EC
  8
CUT
 10
52.94235584120969
 20
152.7852709660484
 30
0.0
 70
0
  0
SEQEND
  5
3CC
  8
CUT
  0
POLYLINE
  5
3ED
  8
CUT
 66
1
 10
0.0
 20
0.0
 30
0.0
 70
1
  0
VERTEX
  5
3EF
  8
CUT
 10
75.0
 20
110.2
 30
0.0
 70
0
  0
VERTEX
  5
3F0
  8
CUT
 10
74.94235584120969
 20
109.61472903395162
 30
0.0
 70
0
  0
VERTEX
  5
3F1
  8
CUT
 10
74.77163859753387
 20
109.05194970290474
 30
0.0
 70
0
  0
VERTEX
  5
3F2
  8
CUT
 10
74.49440883690764
 20
108.53328930094119
 30
0.0
 70
0
  0
VERTEX
  5
3F3
  8
CUT
 10
74.12132034355965
 20
108.07867965644036
 30
0.0
 70
0
  0
VERTEX
  5
3F4
  8
CUT
 10
73.6667106990588
 20
107.70559116309236
 30
0.0
 70
0
  0
VERTEX
  5
3F5
  8
CUT
 10
73.14805029709527
 20
107.42836140246614
 30
0.0
 70
0
  0
VERTEX
  5
3F6
  8
CUT
 10
72.58527096604838
 20
107.25764415879031
 30
0.0
 70
0
  0
VERTEX
  5
3F7
  8
CUT
 10
72.0
 20
107.2
 30
0.0
 70
0
  0
VERTEX
  5
3F8
  8
CUT
 10
71.41472903395162
 20
107.25764415879031
 30
0.0
 70
0
  0
VERTEX
  5
3F9
  8
CUT
 10
70.85194970290473
 20
107.42836140246614
 30
0.0
 70
0
  0
VERTEX
  5
3FA
  8
CUT
 10
70.33328930094119
 20
107.70559116309236
 30
0.0
 70
0
  0
VERTEX
  5
3FB
  8
CUT
 10
69.87867965644035
 20
108.07867965644036
 30
0.0
 70
0
  0
VERTEX
  5
3FC
  8
CUT
 10
69.50559116309236
 20
108.53328930094119
 30
0.0
 70
0
  0
VERTEX
  5
3FD
  8
CUT
 10
69.22836140246613
 20
109.05194970290474
 30
0.0
 70
0
  0
VERTEX
  5
3FE
  8
CUT
 10
69.05764415879031
 20
109.61472903395162
 30
0.0
 70
0
  0
VERTEX
  5
3FF
  8
CUT
 10
69.0
 20
110.2
 30
0.0
 70
0
  0
VERTEX
  5
400
  8
CUT
 10
69.05764415879031
 20
110.78527096604839
 30
0.0
 70
0
  0
VERTEX
  5
401
  8
CUT
 10
69.22836140246613
 20
111.34805029709527
 30
0.0
 70
0
  0
VERTEX
  5
402
  8
CUT
 10
69.50559116309236
 20
111.86671069905881
 30
0.0
 70
0
  0
VERTEX
  5
403
  8
CUT
 10
69.87867965644035
 20
112.32132034355965
 30
0.0
 70
0
  0
VERTEX
  5
404
  8
CUT
 10
70.33328930094119
 20
112.69440883690764
 30
0.0
 70
0
  0
VERTEX
  5
405
  8
CUT
 10
70.85194970290473
 20
112.97163859753387
 30
0.0
 70
0
  0
VERTEX
  5
406
  8
CUT
 10
71.41472903395162
 20
113.14235584120969
 30
0.0
 70
0
  0
VERTEX
  5
407
  8
CUT
 10
72.0
 20
113.2
 30
0.0
 70
0
  0
VERTEX
  5
408
  8
CUT
 10
72.58527096604838
 20
113.14235584120969
 30
0.0
 70
0
  0
VERTEX
  5
409
  8
CUT
 10
73.14805029709527
 20
112.97163859753387
 30
0.0
 70
0
  0
VERTEX
  5
40A
  8
CUT
 10
73.6667106990588
 20
112.69440883690764
 30
0.0
 70
0
  0
VERTEX
  5
40B
  8
CUT
 10
74.12132034355965
 20
112.32132034355965
 30
0.0
 70
0
  0
VERTEX
  5
40C
  8
CUT
 10
74.49440883690764
 20
111.86671069905881
 30
0.0
 70
0
  0
VERTEX
  5
40D
  8
CUT
 10
74.77163859753387
 20
111.34805029709527
 30
0.0
 70
0
  0
VERTEX
  5
40E
  8
CUT
 10
74.94235584120969
 20
110.78527096604839
 30
0.0
 70
0
  0
SEQEND
  5
3EE
  8
CUT
  0
POLYLINE
  5
40F
  8
ENGRAVE
 66
1
 10
0.0
 20
0.0
 30
0.0
 70
0
  0
VERTEX
  5
411
  8
ENGRAVE
 10
55.0
 20
143.2
 30
0.0
 70
0
  0
VERTEX
  5
412
  8
ENGRAVE
 10
60.0
 20
143.2
 30
0.0
 70
0
  0
SEQEND
  5
410
  8
ENGRAVE
  0
POLYLINE
  5
413
  8
ENGRAVE
 66
1
 10
0.0
 20
0.0
 30
0.0
 70
0
  0
VERTEX
  5
415
  8
ENGRAVE
 10
60.0
 20
143.2
 30
0.0
 70
0
  0
VERTEX
  5
416
  8
ENGRAVE
 10
65.0
 20
143.2
 30
0.0
 70
0
  0
SEQEND
  5
414
  8
ENGRAVE
  0
POLYLINE
  5
417
  8
ENGRAVE
 66
1
 10
0.0
 20
0.0
 30
0.0
 70
0
  0
VERTEX
  5
419
  8
ENGRAVE
 10
55.0
 20
145.2
 30
0.0
 70
0
  0
VERTEX
  5
41A
  8
ENGRAVE
 10
55.0
 20
151.2
 30
0.0
 70
0
  0
SEQEND
  5
418
  8
ENGRAVE
  0
POLYLINE
  5
41B
  8
ENGRAVE
 66
1
 10
0.0
 20
0.0
 30
0.0
 70
0
  0
VERTEX
  5
41D
  8
ENGRAVE
 10
55.0
 20
151.2
 30
0.0
 70
0
  0
VERTEX
  5
41E
  8
ENGRAVE
 10
60.0
 20
151.2
 30
0.0
 70
0
  0
SEQEND
  5
41C
  8
ENGRAVE
  0
POLYLINE
  5
41F
  8
ENGRAVE
 66
1
 10
0.0
 20
0.0
 30
0.0
 70
0
  0
VERTEX
  5
421
  8
ENGRAVE
 10
60.0
 20
151.2
 30
0.0
 70
0
  0
VERTEX
  5
422
  8
ENGRAVE
 10
65.0
 20
151.2
 30
0.0
 70
0
  0
SEQEND
  5
420
  8
ENGRAVE
  0
POLYLINE
  5
423
  8
ENGRAVE
 66
1
 10
0.0
 20
0.0
 30
0.0
 70
0
  0
VERTEX
  5
425
  8
ENGRAVE
 10
65.0
 20
145.2
 30
0.0
 70
0
  0
VERTEX
  5
426
  8
ENGRAVE
 10
65.0
 20
151.2
 30
0.0
 70
0
  0
SEQEND
  5
424
  8
ENGRAVE
  0
POLYLINE
  5
427
  8
ENGRAVE
 66
1
 10
0.0
 20
0.0
 30
0.0
 70
0
  0
VERTEX
  5
429
  8
ENGRAVE
 10
60.0
 20
145.2
 30
0.0
 70
0
  0
VERTEX
  5
42A
  8
ENGRAVE
 10
65.0
 20
145.2
 30
0.0
 70
0
  0
SEQEND
  5
428
  8
ENGRAVE
  0
POLYLINE
  5
42B
  8
ENGRAVE
 66
1
 10
0.0
 20
0.0
 30
0.0
 70
0
  0
VERTEX
  5
42D
  8
ENGRAVE
 10
55.0
 20
145.2
 30
0.0
 70
0
  0
VERTEX
  5
42E
  8
ENGRAVE
 10
60.0
 20
145.2
 30
0.0
 70
0
  0
SEQEND
  5
42C
  8
ENGRAVE
  0
POLYLINE
  5
42F
  8
CUT
 66
1
 10
0.0
 20
0.0
 30
0.0
 70
1
  0
VERTEX
  5
431
  8
CUT
 10
160.2
 20
120.2
 30
0.0
 70
0
  0
VERTEX
  5
432
  8
CUT
 10
160.09887886047363
 20
122.25835990309716
 30
0.0
 70
0
  0
VERTEX
  5
433
  8
CUT
 10
160.00738830566405
 20
124.12068552970887
 30
0.0
 70
0
  0
VERTEX
  5
434
  8
CUT
 10
159.70500020980836
 20
126.15922229886056
 30
0.0
 70
0
  0
VERTEX
  5
435
  8
CUT
 10
159.4314109802246
 20
128.0036127090454
 30
0.0
 70
0
  0
VERTEX
  5
436
  8
CUT
 10
158.93066787719727
 20
130.00269434452056
 30
0.0
 70
0
  0
VERTEX
  5
437
  8
CUT
 10
158.47761459350585
 20
131.8113872528076
 30
0.0
 70
0
  0
VERTEX
  5
438
  8
CUT
 10
157.78333702087403
 20
133.75176126956939
 30
0.0
 70
0
  0
VERTEX
  5
439
  8
CUT
 10
157.15518112182616
 20
135.50733776092528
 30
0.0
 70
0
  0
VERTEX
  5
43A
  8
CUT
 10
156.27405815124513
 20
137.37031681537627
 30
0.0
 70
0
  0
VERTEX
  5
43B
  8
CUT
 10
155.47685165405272
 20
139.05586929321288
 30
0.0
 70
0
  0
VERTEX
  5
43C
  8
CUT
 10
154.4173667907715
 20
140.8235125541687
 30
0.0
 70
0
  0
VERTEX
  5
43D
  8
CUT
 10
153.45878524780272
 20
142.4228088378906
 30
0.0
 70
0
  0
VERTEX
  5
43E
  8
CUT
 10
152.2311423301697
 20
144.0780927181244
 30
0.0
 70
0
  0
VERTEX
  5
43F
  8
CUT
 10
151.12041778564452
 20
145.57573051452636
 30
0.0
 70
0
  0
VERTEX
  5
440
  8
CUT
 10
149.7364408493042
 20
147.10271439552307
 30
0.0
 70
0
  0
VERTEX
  5
441
  8
CUT
 10
148.48427124023436
 20
148.48427124023436
 30
0.0
 70
0
  0
VERTEX
  5
442
  8
CUT
 10
146.95728735923768
 20
149.8682481765747
 30
0.0
 70
0
  0
VERTEX
  5
443
  8
CUT
 10
145.57573051452636
 20
151.12041778564452
 30
0.0
 70
0
  0
VERTEX
  5
444
  8
CUT
 10
143.9204466342926
 20
152.34806070327758
 30
0.0
 70
0
  0
VERTEX
  5
445
  8
CUT
 10
142.4228088378906
 20
153.45878524780272
 30
0.0
 70
0
  0
VERTEX
  5
446
  8
CUT
 10
140.65516557693482
 20
154.51827011108398
 30
0.0
 70
0
  0
VERTEX
  5
447
  8
CUT
 10
139.05586929321288
 20
155.47685165405272
 30
0.0
 70
0
  0
VERTEX
  5
448
  8
CUT
 10
137.1928902387619
 20
156.35797462463378
 30
0.0
 70
0
  0
VERTEX
  5
449
  8
CUT
 10
135.50733776092528
 20
157.15518112182616
 30
0.0
 70
0
  0
VERTEX
  5
44A
  8
CUT
 10
133.5669637441635
 20
157.849458694458
 30
0.0
 70
0
  0
VERTEX
  5
44B
  8
CUT
 10
131.8113872528076
 20
158.47761459350585
 30
0.0
 70
0
  0
VERTEX
  5
44C
  8
CUT
 10
129.81230561733247
 20
158.9783576965332
 30
0.0
 70
0
  0
VERTEX
  5
44D
  8
CUT
 10
128.0036127090454
 20
159.4314109802246
 30
0.0
 70
0
  0
VERTEX
  5
44E
  8
CUT
 10
125.96507593989372
 20
159.73379907608032
 30
0.0
 70
0
  0
VERTEX
  5
44F
  8
CUT
 10
124.12068552970887
 20
160.00738830566405
 30
0.0
 70
0
  0
VERTEX
  5
450
  8
CUT
 10
122.06232562661171
 20
160.10850944519044
 30
0.0
 70
0
  0
VERTEX
  5
451
  8
CUT
 10
120.2
 20
160.2
 30
0.0
 70
0
  0
VERTEX
  5
452
  8
CUT
 10
118.14164009690285
 20
160.09887886047363
 30
0.0
 70
0
  0
VERTEX
  5
453
  8
CUT
 10
116.27931447029114
 20
160.00738830566405
 30
0.0
 70
0
  0
VERTEX
  5
454
  8
CUT
 10
114.24077770113945
 20
159.70500020980836
 30
0.0
 70
0
  0
VERTEX
  5
455
  8
CUT
 10
112.39638729095459
 20
159.4314109802246
 30
0.0
 70
0
  0
VERTEX
  5
456
  8
CUT
 10
110.39730565547943
 20
158.93066787719727
 30
0.0
 70
0
  0
VERTEX
  5
457
  8
CUT
 10
108.58861274719239
 20
158.47761459350585
 30
0.0
 70
0
  0
VERTEX
  5
458
  8
CUT
 10
106.6482387304306
 20
157.78333702087403
 30
0.0
 70
0
  0
VERTEX
  5
459
  8
CUT
 10
104.89266223907471
 20
157.15518112182616
 30
0.0
 70
0
  0
VERTEX
  5
45A
  8
CUT
 10
103.02968318462372
 20
156.27405815124513
 30
0.0
 70
0
  0
VERTEX
  5
45B
  8
CUT
 10
101.34413070678711
 20
155.47685165405272
 30
0.0
 70
0
  0
VERTEX
  5
45C
  8
CUT
 10
99.5764874458313
 20
154.4173667907715
 30
0.0
 70
0
  0
VERTEX
  5
45D
  8
CUT
 10
97.97719116210938
 20
153.45878524780272
 30
0.0
 70
0
  0
VERTEX
  5
45E
  8
CUT
 10
96.32190728187561
 20
152.2311423301697
 30
0.0
 70
0
  0
VERTEX
  5
45F
  8
CUT
 10
94.82426948547364
 20
151.12041778564452
 30
0.0
 70
0
  0
VERTEX
  5
460
  8
CUT
 10
93.29728560447694
 20
149.7364408493042
 30
0.0
 70
0
  0
VERTEX
  5
461
  8
CUT
 10
91.91572875976563
 20
148.48427124023436
 30
0.0
 70
0
  0
VERTEX
  5
462
  8
CUT
 10
90.5317518234253
 20
146.95728735923768
 30
0.0
 70
0
  0
VERTEX
  5
463
  8
CUT
 10
89.27958221435547
 20
145.57573051452636
 30
0.0
 70
0
  0
VERTEX
  5
464
  8
CUT
 10
88.05193929672242
 20
143.9204466342926
 30
0.0
 70
0
  0
VERTEX
  5
465
  8
CUT
 10
86.94121475219727
 20
142.4228088378906
 30
0.0
 70
0
  0
VERTEX
  5
466
  8
CUT
 10
85.88172988891603
 20
140.65516557693482
 30
0.0
 70
0
  0
VERTEX
  5
467
  8
CUT
 10
84.92314834594727
 20
139.05586929321288
 30
0.0
 70
0
  0
VERTEX
  5
468
  8
CUT
 10
84.04202537536622
 20
137.1928902387619
 30
0.0
 70
0
  0
VERTEX
  5
469
  8
CUT
 10
83.24481887817383
 20
135.50733776092528
 30
0.0
 70
0
  0
VERTEX
  5
46A
  8
CUT
 10
82.550541305542
 20
133.5669637441635
 30
0.0
 70
0
  0
VERTEX
  5
46B
  8
CUT
 10
81.92238540649414
 20
131.8113872528076
 30
0.0
 70
0
  0
VERTEX
  5
46C
  8
CUT
 10
81.4216423034668
 20
129.81230561733247
 30
0.0
 70
0
  0
VERTEX
  5
46D
  8
CUT
 10
80.9685890197754
 20
128.0036127090454
 30
0.0
 70
0
  0
VERTEX
  5
46E
  8
CUT
 10
80.66620092391969
 20
125.96507593989372
 30
0.0
 70
0
  0
VERTEX
  5
46F
  8
CUT
 10
80.39261169433594
 20
124.12068552970887
 30
0.0
 70
0
  0
VERTEX
  5
470
  8
CUT
 10
80.29149055480957
 20
122.06232562661171
 30
0.0
 70
0
  0
VERTEX
  5
471
  8
CUT
 10
80.2
 20
120.19999999999999
 30
0.0
 70
0
  0
VERTEX
  5
472
  8
CUT
 10
80.30112113952637
 20
118.14164009690285
 30
0.0
 70
0
  0
VERTEX
  5
473
  8
CUT
 10
80.39261169433594
 20
116.27931447029114
 30
0.0
 70
0
  0
VERTEX
  5
474
  8
CUT
 10
80.69499979019164
 20
114.24077770113945
 30
0.0
 70
0
  0
VERTEX
  5
475
  8
CUT
 10
80.9685890197754
 20
112.39638729095459
 30
0.0
 70
0
  0
VERTEX
  5
476
  8
CUT
 10
81.46933212280274
 20
110.39730565547943
 30
0.0
 70
0
  0
VERTEX
  5
477
  8
CUT
 10
81.92238540649414
 20
108.58861274719239
 30
0.0
 70
0
  0
VERTEX
  5
478
  8
CUT
 10
82.61666297912598
 20
106.6482387304306
 30
0.0
 70
0
  0
VERTEX
  5
479
  8
CUT
 10
83.24481887817383
 20
104.89266223907471
 30
0.0
 70
0
  0
VERTEX
  5
47A
  8
CUT
 10
84.12594184875488
 20
103.02968318462372
 30
0.0
 70
0
  0
VERTEX
  5
47B
  8
CUT
 10
84.92314834594727
 20
101.34413070678711
 30
0.0
 70
0
  0
VERTEX
  5
47C
  8
CUT
 10
85.98263320922851
 20
99.5764874458313
 30
0.0
 70
0
  0
VERTEX
  5
47D
  8
CUT
 10
86.94121475219727
 20
97.97719116210938
 30
0.0
 70
0
  0
VERTEX
  5
47E
  8
CUT
 10
88.16885766983032
 20
96.32190728187561
 30
0.0
 70
0
  0
VERTEX
  5
47F
  8
CUT
 10
89.27958221435547
 20
94.82426948547364
 30
0.0
 70
0
  0
VERTEX
  5
480
  8
CUT
 10
90.6635591506958
 20
93.29728560447694
 30
0.0
 70
0
  0
VERTEX
  5
481
  8
CUT
 10
91.91572875976563
 20
91.91572875976563
 30
0.0
 70
0
  0
VERTEX
  5
482
  8
CUT
 10
93.44271264076232
 20
90.5317518234253
 30
0.0
 70
0
  0
VERTEX
  5
483
  8
CUT
 10
94.82426948547364
 20
89.27958221435547
 30
0.0
 70
0
  0
VERTEX
  5
484
  8
CUT
 10
96.4795533657074
 20
88.05193929672242
 30
0.0
 70
0
  0
VERTEX
  5
485
  8
CUT
 10
97.97719116210938
 20
86.94121475219727
 30
0.0
 70
0
  0
VERTEX
  5
486
  8
CUT
 10
99.74483442306519
 20
85.88172988891603
 30
0.0
 70
0
  0
VERTEX
  5
487
  8
CUT
 10
101.34413070678711
 20
84.92314834594727
 30
0.0
 70
0
  0
VERTEX
  5
488
  8
CUT
 10
103.2071097612381
 20
84.04202537536622
 30
0.0
 70
0
  0
VERTEX
  5
489
  8
CUT
 10
104.89266223907471
 20
83.24481887817383
 30
0.0
 70
0
  0
VERTEX
  5
48A
  8
CUT
 10
106.83303625583649
 20
82.550541305542
 30
0.0
 70
0
  0
VERTEX
  5
48B
  8
CUT
 10
108.58861274719239
 20
81.92238540649414
 30
0.0
 70
0
  0
VERTEX
  5
48C
  8
CUT
 10
110.58769438266755
 20
81.4216423034668
 30
0.0
 70
0
  0
VERTEX
  5
48D
  8
CUT
 10
112.39638729095459
 20
80.9685890197754
 30
0.0
 70
0
  0
VERTEX
  5
48E
  8
CUT
 10
114.43492406010628
 20
80.66620092391969
 30
0.0
 70
0
  0
VERTEX
  5
48F
  8
CUT
 10
116.27931447029114
 20
80.39261169433594
 30
0.0
 70
0
  0
VERTEX
  5
490
  8
CUT
 10
118.3376743733883
 20
80.29149055480957
 30
0.0
 70
0
  0
VERTEX
  5
491
  8
CUT
 10
120.2
 20
80.2
 30
0.0
 70
0
  0
VERTEX
  5
492
  8
CUT
 10
122.25835990309716
 20
80.30112113952637
 30
0.0
 70
0
  0
VERTEX
  5
493
  8
CUT
 10
124.12068552970887
 20
80.39261169433594
 30
0.0
 70
0
  0
VERTEX
  5
494
  8
CUT
 10
126.15922229886056
 20
80.69499979019164
 30
0.0
 70
0
  0
VERTEX
  5
495
  8
CUT
 10
128.0036127090454
 20
80.9685890197754
 30
0.0
 70
0
  0
VERTEX
  5
496
  8
CUT
 10
130.00269434452056
 20
81.46933212280274
 30
0.0
 70
0
  0
VERTEX
  5
497
  8
CUT
 10
131.8113872528076
 20
81.92238540649414
 30
0.0
 70
0
  0
VERTEX
  5
498
  8
CUT
 10
133.75176126956939
 20
82.61666297912598
 30
0.0
 70
0
  0
VERTEX
  5
499
  8
CUT
 10
135.50733776092528
 20
83.24481887817383
 30
0.0
 70
0
  0
VERTEX
  5
49A
  8
CUT
 10
137.37031681537627
 20
84.12594184875488
 30
0.0
 70
0
  0
VERTEX
  5
49B
  8
CUT
 10
139.05586929321288
 20
84.92314834594727
 30
0.0
 70
0
  0
VERTEX
  5
49C
  8
CUT
 10
140.8235125541687
 20
85.98263320922851
 30
0.0
 70
0
  0
VERTEX
  5
49D
  8
CUT
 10
142.4228088378906
 20
86.94121475219727
 30
0.0
 70
0
  0
VERTEX
  5
49E
  8
CUT
 10
144.0780927181244
 20
88.16885766983032
 30
0.0
 70
0
  0
VERTEX
  5
49F
  8
CUT
 10
145.57573051452636
 20
89.27958221435547
 30
0.0
 70
0
  0
VERTEX
  5
4A0
  8
CUT
 10
147.10271439552307
 20
90.6635591506958
 30
0.0
 70
0
  0
VERTEX
  5
4A1
  8
CUT
 10
148.48427124023436
 20
91.91572875976563
 30
0.0
 70
0
  0
VERTEX
  5
4A2
  8
CUT
 10
149.8682481765747
 20
93.44271264076232
 30
0.0
 70
0
  0
VERTEX
  5
4A3
  8
CUT
 10
151.12041778564452
 20
94.82426948547364
 30
0.0
 70
0
  0
VERTEX
  5
4A4
  8
CUT
 10
152.34806070327758
 20
96.4795533657074
 30
0.0
 70
0
  0
VERTEX
  5
4A5
  8
CUT
 10
153.45878524780272
 20
97.97719116210938
 30
0.0
 70
0
  0
VERTEX
  5
4A6
  8
CUT
 10
154.51827011108398
 20
99.74483442306519
 30
0.0
 70
0
  0
VERTEX
  5
4A7
  8
CUT
 10
155.47685165405272
 20
101.34413070678711
 30
0.0
 70
0
  0
VERTEX
  5
4A8
  8
CUT
 10
156.35797462463378
 20
103.2071097612381
 30
0.0
 70
0
  0
VERTEX
  5
4A9
  8
CUT
 10
157.15518112182616
 20
104.89266223907471
 30
0.0
 70
0
  0
VERTEX
  5
4AA
  8
CUT
 10
157.849458694458
 20
106.83303625583649
 30
0.0
 70
0
  0
VERTEX
  5
4AB
  8
CUT
 10
158.47761459350585
 20
108.58861274719239
 30
0.0
 70
0
  0
VERTEX
  5
4AC
  8
CUT
 10
158.9783576965332
 20
110.58769438266755
 30
0.0
 70
0
  0
VERTEX
  5
4AD
  8
CUT
 10
159.4314109802246
 20
112.39638729095459
 30
0.0
 70
0
  0
VERTEX
  5
4AE
  8
CUT
 10
159.73379907608032
 20
114.43492406010628
 30
0.0
 70
0
  0
VERTEX
  5
4AF
  8
CUT
 10
160.00738830566405
 20
116.27931447029114
 30
0.0
 70
0
  0
VERTEX
  5
4B0
  8
CUT
 10
160.10850944519044
 20
118.3376743733883
 30
0.0
 70
0
  0
SEQEND
  5
430
  8
CUT
  0
POLYLINE
  5
4B1
  8
CUT
 66
1
 10
0.0
 20
0.0
 30
0.0
 70
1
  0
VERTEX
  5
4B3
  8
CUT
 10
113.2
 20
88.2
 30
0.0
 70
0
  0
VERTEX
  5
4B4
  8
CUT
 10
113.14235584120969
 20
87.61472903395162
 30
0.0
 70
0
  0
VERTEX
  5
4B5
  8
CUT
 10
112.97163859753387
 20
87.05194970290474
 30
0.0
 70
0
  0
VERTEX
  5
4B6
  8
CUT
 10
112.69440883690764
 20
86.53328930094119
 30
0.0
 70
0
  0
VERTEX
  5
4B7
  8
CUT
 10
112.32132034355965
 20
86.07867965644036
 30
0.0
 70
0
  0
VERTEX
  5
4B8
  8
CUT
 10
111.86671069905881
 20
85.70559116309236
 30
0.0
 70
0
  0
VERTEX
  5
4B9
  8
CUT
 10
111.34805029709527
 20
85.42836140246615
 30
0.0
 70
0
  0
VERTEX
  5
4BA
  8
CUT
 10
110.78527096604839
 20
85.25764415879031
 30
0.0
 70
0
  0
VERTEX
  5
4BB
  8
CUT
 10
110.2
 20
85.2
 30
0.0
 70
0
  0
VERTEX
  5
4BC
  8
CUT
 10
109.61472903395162
 20
85.25764415879031
 30
0.0
 70
0
  0
VERTEX
  5
4BD
  8
CUT
 10
109.05194970290474
 20
85.42836140246615
 30
0.0
 70
0
  0
VERTEX
  5
4BE
  8
CUT
 10
108.53328930094119
 20
85.70559116309236
 30
0.0
 70
0
  0
VERTEX
  5
4BF
  8
CUT
 10
108.07867965644036
 20
86.07867965644036
 30
0.0
 70
0
  0
VERTEX
  5
4C0
  8
CUT
 10
107.70559116309236
 20
86.53328930094119
 30
0.0
 70
0
  0
VERTEX
  5
4C1
  8
CUT
 10
107.42836140246614
 20
87.05194970290474
 30
0.0
 70
0
  0
VERTEX
  5
4C2
  8
CUT
 10
107.25764415879031
 20
87.61472903395162
 30
0.0
 70
0
  0
VERTEX
  5
4C3
  8
CUT
 10
107.2
 20
88.2
 30
0.0
 70
0
  0
VERTEX
  5
4C4
  8
CUT
 10
107.25764415879031
 20
88.78527096604839
 30
0.0
 70
0
  0
VERTEX
  5
4C5
  8
CUT
 10
107.42836140246614
 20
89.34805029709527
 30
0.0
 70
0
  0
VERTEX
  5
4C6
  8
CUT
 10
107.70559116309236
 20
89.86671069905881
 30
0.0
 70
0
  0
VERTEX
  5
4C7
  8
CUT
 10
108.07867965644036
 20
90.32132034355965
 30
0.0
 70
0
  0
VERTEX
  5
4C8
  8
CUT
 10
108.53328930094119
 20
90.69440883690764
 30
0.0
 70
0
  0
VERTEX
  5
4C9
  8
CUT
 10
109.05194970290474
 20
90.97163859753385
 30
0.0
 70
0
  0
VERTEX
  5
4CA
  8
CUT
 10
109.61472903395162
 20
91.14235584120969
 30
0.0
 70
0
  0
VERTEX
  5
4CB
  8
CUT
 10
110.2
 20
91.2
 30
0.0
 70
0
  0
VERTEX
  5
4CC
  8
CUT
 10
110.78527096604839
 20
91.14235584120969
 30
0.0
 70
0
  0
VERTEX
  5
4CD
  8
CUT
 10
111.34805029709527
 20
90.97163859753385
 30
0.0
 70
0
  0
VERTEX
  5
4CE
  8
CUT
 10
111.86671069905881
 20
90.69440883690764
 30
0.0
 70
0
  0
VERTEX
  5
4CF
  8
CUT
 10
112.32132034355965
 20
90.32132034355965
 30
0.0
 70
0
  0
VERTEX
  5
4D0
  8
CUT
 10
112.69440883690764
 20
89.86671069905881
 30
0.0
 70
0
  0
VERTEX
  5
4D1
  8
CUT
 10
112.97163859753387
 20
89.34805029709527
 30
0.0
 70
0
  0
VERTEX
  5
4D2
  8
CUT
 10
113.14235584120969
 20
88.78527096604839
 30
0.0
 70
0
  0
SEQEND
  5
4B2
  8
CUT
  0
POLYLINE
  5
4D3
  8
CUT
 66
1
 10
0.0
 20
0.0
 30
0.0
 70
1
  0
VERTEX
  5
4D5
  8
CUT
 10
133.2
 20
152.2
 30
0.0
 70
0
  0
VERTEX
  5
4D6
  8
CUT
 10
133.1423558412097
 20
151.61472903395162
 30
0.0
 70
0
  0
VERTEX
  5
4D7
  8
CUT
 10
132.97163859753385
 20
151.05194970290472
 30
0.0
 70
0
  0
VERTEX
  5
4D8
  8
CUT
 10
132.69440883690763
 20
150.5332893009412
 30
0.0
 70
0
  0
VERTEX
  5
4D9
  8
CUT
 10
132.32132034355965
 20
150.07867965644036
 30
0.0
 70
0
  0
VERTEX
  5
4DA
  8
CUT
 10
131.8667106990588
 20
149.70559116309238
 30
0.0
 70
0
  0
VERTEX
  5
4DB
  8
CUT
 10
131.34805029709528
 20
149.42836140246615
 30
0.0
 70
0
  0
VERTEX
  5
4DC
  8
CUT
 10
130.7852709660484
 20
149.2576441587903
 30
0.0
 70
0
  0
VERTEX
  5
4DD
  8
CUT
 10
130.2
 20
149.2
 30
0.0
 70
0
  0
VERTEX
  5
4DE
  8
CUT
 10
129.61472903395162
 20
149.2576441587903
 30
0.0
 70
0
  0
VERTEX
  5
4DF
  8
CUT
 10
129.05194970290472
 20
149.42836140246615
 30
0.0
 70
0
  0
VERTEX
  5
4E0
  8
CUT
 10
128.5332893009412
 20
149.70559116309238
 30
0.0
 70
0
  0
VERTEX
  5
4E1
  8
CUT
 10
128.07867965644036
 20
150.07867965644036
 30
0.0
 70
0
  0
VERTEX
  5
4E2
  8
CUT
 10
127.70559116309236
 20
150.5332893009412
 30
0.0
 70
0
  0
VERTEX
  5
4E3
  8
CUT
 10
127.42836140246614
 20
151.05194970290472
 30
0.0
 70
0
  0
VERTEX
  5
4E4
  8
CUT
 10
127.25764415879031
 20
151.61472903395162
 30
0.0
 70
0
  0
VERTEX
  5
4E5
  8
CUT
 10
127.2
 20
152.2
 30
0.0
 70
0
  0
VERTEX
  5
4E6
  8
CUT
 10
127.25764415879031
 20
152.7852709660484
 30
0.0
 70
0
  0
VERTEX
  5
4E7
  8
CUT
 10
127.42836140246614
 20
153.34805029709526
 30
0.0
 70
0
  0
VERTEX
  5
4E8
  8
CUT
 10
127.70559116309236
 20
153.8667106990588
 30
0.0
 70
0
  0
VERTEX
  5
4E9
  8
CUT
 10
128.07867965644036
 20
154.32132034355965
 30
0.0
 70
0
  0
VERTEX
  5
4EA
  8
CUT
 10
128.5332893009412
 20
154.69440883690766
 30
0.0
 70
0
  0
VERTEX
  5
4EB
  8
CUT
 10
129.05194970290472
 20
154.97163859753385
 30
0.0
 70
0
  0
VERTEX
  5
4EC
  8
CUT
 10
129.61472903395162
 20
155.14235584120968
 30
0.0
 70
0
  0
VERTEX
  5
4ED
  8
CUT
 10
130.2
 20
155.2
 30
0.0
 70
0
  0
VERTEX
  5
4EE
  8
CUT
 10
130.7852709660484
 20
155.14235584120968
 30
0.0
 70
0
  0
VERTEX
  5
4EF
  8
CUT
 10
131.34805029709528
 20
154.97163859753385
 30
0.0
 70
0
  0
VERTEX
  5
4F0
  8
CUT
 10
131.8667106990588
 20
154.69440883690766
 30
0.0
 70
0
  0
VERTEX
  5
4F1
  8
CUT
 10
132.32132034355965
 20
154.32132034355965
 30
0.0
 70
0
  0
VERTEX
  5
4F2
  8
CUT
 10
132.69440883690763
 20
153.8667106990588
 30
0.0
 70
0
  0
VERTEX
  5
4F3
  8
CUT
 10
132.97163859753385
 20
153.34805029709528
 30
0.0
 70
0
  0
VERTEX
  5
4F4
  8
CUT
 10
133.1423558412097
 20
152.7852709660484
 30
0.0
 70
0
  0
SEQEND
  5
4D4
  8
CUT
  0
POLYLINE
  5
4F5
  8
CUT
 66
1
 10
0.0
 20
0.0
 30
0.0
 70
1
  0
VERTEX
  5
4F7
  8
CUT
 10
155.2
 20
110.2
 30
0.0
 70
0
  0
VERTEX
  5
4F8
  8
CUT
 10
155.14235584120968
 20
109.61472903395162
 30
0.0
 70
0
  0
VERTEX
  5
4F9
  8
CUT
 10
154.97163859753385
 20
109.05194970290474
 30
0.0
 70
0
  0
VERTEX
  5
4FA
  8
CUT
 10
154.69440883690766
 20
108.53328930094119
 30
0.0
 70
0
  0
VERTEX
  5
4FB
  8
CUT
 10
154.32132034355965
 20
108.07867965644036
 30
0.0
 70
0
  0
VERTEX
  5
4FC
  8
CUT
 10
153.8667106990588
 20
107.70559116309236
 30
0.0
 70
0
  0
VERTEX
  5
4FD
  8
CUT
 10
153.34805029709526
 20
107.42836140246614
 30
0.0
 70
0
  0
VERTEX
  5
4FE
  8
CUT
 10
152.7852709660484
 20
107.25764415879031
 30
0.0
 70
0
  0
VERTEX
  5
4FF
  8
CUT
 10
152.2
 20
107.2
 30
0.0
 70
0
  0
VERTEX
  5
500
  8
CUT
 10
151.61472903395162
 20
107.25764415879031
 30
0.0
 70
0
  0
VERTEX
  5
501
  8
CUT
 10
151.05194970290472
 20
107.42836140246614
 30
0.0
 70
0
  0
VERTEX
  5
502
  8
CUT
 10
150.5332893009412
 20
107.70559116309236
 30
0.0
 70
0
  0
VERTEX
  5
503
  8
CUT
 10
150.07867965644036
 20
108.07867965644036
 30
0.0
 70
0
  0
VERTEX
  5
504
  8
CUT
 10
149.70559116309238
 20
108.53328930094119
 30
0.0
 70
0
  0
VERTEX
  5
505
  8
CUT
 10
149.42836140246615
 20
109.05194970290474
 30
0.0
 70
0
  0
VERTEX
  5
506
  8
CUT
 10
149.2576441587903
 20
109.61472903395162
 30
0.0
 70
0
  0
VERTEX
  5
507
  8
CUT
 10
149.2
 20
110.2
 30
0.0
 70
0
  0
VERTEX
  5
508
  8
CUT
 10
149.2576441587903
 20
110.78527096604839
 30
0.0
 70
0
  0
VERTEX
  5
509
  8
CUT
 10
149.42836140246615
 20
111.34805029709527
 30
0.0
 70
0
  0
VERTEX
  5
50A
  8
CUT
 10
149.70559116309238
 20
111.86671069905881
 30
0.0
 70
0
  0
VERTEX
  5
50B
  8
CUT
 10
150.07867965644036
 20
112.32132034355965
 30
0.0
 70
0
  0
VERTEX
  5
50C
  8
CUT
 10
150.5332893009412
 20
112.69440883690764
 30
0.0
 70
0
  0
VERTEX
  5
50D
  8
CUT
 10
151.05194970290472
 20
112.97163859753387
 30
0.0
 70
0
  0
VERTEX
  5
50E
  8
CUT
 10
151.61472903395162
 20
113.14235584120969
 30
0.0
 70
0
  0
VERTEX
  5
50F
  8
CUT
 10
152.2
 20
113.2
 30
0.0
 70
0
  0
VERTEX
  5
510
  8
CUT
 10
152.7852709660484
 20
113.14235584120969
 30
0.0
 70
0
  0
VERTEX
  5
511
  8
CUT
 10
153.34805029709526
 20
112.97163859753387
 30
0.0
 70
0
  0
VERTEX
  5
512
  8
CUT
 10
153.8667106990588
 20
112.69440883690764
 30
0.0
 70
0
  0
VERTEX
  5
513
  8
CUT
 10
154.32132034355965
 20
112.32132034355965
 30
0.0
 70
0
  0
VERTEX
  5
514
  8
CUT
 10
154.69440883690766
 20
111.86671069905881
 30
0.0
 70
0
  0
VERTEX
  5
515
  8
CUT
 10
154.97163859753385
 20
111.34805029709527
 30
0.0
 70
0
  0
VERTEX
  5
516
  8
CUT
 10
155.14235584120968
 20
110.78527096604839
 30
0.0
 70
0
  0
SEQEND
  5
4F6
  8
CUT
  0
POLYLINE
  5
517
  8
ENGRAVE
 66
1
 10
0.0
 20
0.0
 30
0.0
 70
0
  0
VERTEX
  5
519
  8
ENGRAVE
 10
135.2
 20
143.2
 30
0.0
 70
0
  0
VERTEX
  5
51A
  8
ENGRAVE
 10
140.2
 20
143.2
 30
0.0
 70
0
  0
SEQEND
  5
518
  8
ENGRAVE
  0
POLYLINE
  5
51B
  8
ENGRAVE
 66
1
 10
0.0
 20
0.0
 30
0.0
 70
0
  0
VERTEX
  5
51D
  8
ENGRAVE
 10
140.2
 20
143.2
 30
0.0
 70
0
  0
VERTEX
  5
51E
  8
ENGRAVE
 10
145.2
 20
143.2
 30
0.0
 70
0
  0
SEQEND
  5
51C
  8
ENGRAVE
  0
POLYLINE
  5
51F
  8
ENGRAVE
 66
1
 10
0.0
 20
0.0
 30
0.0
 70
0
  0
VERTEX
  5
521
  8
ENGRAVE
 10
135.2
 20
151.2
 30
0.0
 70
0
  0
VERTEX
  5
522
  8
ENGRAVE
 10
140.2
 20
151.2
 30
0.0
 70
0
  0
SEQEND
  5
520
  8
ENGRAVE
  0
POLYLINE
  5
523
  8
ENGRAVE
 66
1
 10
0.0
 20
0.0
 30
0.0
 70
0
  0
VERTEX
  5
525
  8
ENGRAVE
 10
140.2
 20
151.2
 30
0.0
 70
0
  0
VERTEX
  5
526
  8
ENGRAVE
 10
145.2
 20
151.2
 30
0.0
 70
0
  0
SEQEND
  5
524
  8
ENGRAVE
  0
POLYLINE
  5
527
  8
CUT
 66
1
 10
0.0
 20
0.0
 30
0.0
 70
1
  0
VERTEX
  5
529
  8
CUT
 10
240.4
 20
120.2
 30
0.0
 70
0
  0
VERTEX
  5
52A
  8
CUT
 10
240.28924827575685
 20
122.4543941795826
 30
0.0
 70
0
  0
VERTEX
  5
52B
  8
CUT
 10
240.20738830566407
 20
124.12068552970887
 30
0.0
 70
0
  0
VERTEX
  5
52C
  8
CUT
 10
239.87620134353637
 20
126.35336865782737
 30
0.0
 70
0
  0
VERTEX
  5
52D
  8
CUT
 10
239.63141098022462
 20
128.0036127090454
 30
0.0
 70
0
  0
VERTEX
  5
52E
  8
CUT
 10
239.08297805786134
 20
130.19308307170868
 30
0.0
 70
0
  0
VERTEX
  5
52F
  8
CUT
 10
238.67761459350587
 20
131.8113872528076
 30
0.0
 70
0
  0
VERTEX
  5
530
  8
CUT
 10
237.91721534729004
 20
133.93655879497527
 30
0.0
 70
0
  0
VERTEX
  5
531
  8
CUT
 10
237.35518112182618
 20
135.50733776092528
 30
0.0
 70
0
  0
VERTEX
  5
532
  8
CUT
 10
236.39014167785643
 20
137.54774339199065
 30
0.0
 70
0
  0
VERTEX
  5
533
  8
CUT
 10
235.67685165405274
 20
139.05586929321288
 30
0.0
 70
0
  0
VERTEX
  5
534
  8
CUT
 10
234.51646347045897
 20
140.99185953140258
 30
0.0
 70
0
  0
VERTEX
  5
535
  8
CUT
 10
233.65878524780274
 20
142.4228088378906
 30
0.0
 70
0
  0
VERTEX
  5
536
  8
CUT
 10
232.31422395706176
 20
144.2357388019562
 30
0.0
 70
0
  0
VERTEX
  5
537
  8
CUT
 10
231.32041778564454
 20
145.57573051452636
 30
0.0
 70
0
  0
VERTEX
  5
538
  8
CUT
 10
229.8046335220337
 20
147.24814143180848
 30
0.0
 70
0
  0
VERTEX
  5
539
  8
CUT
 10
228.68427124023438
 20
148.48427124023436
 30
0.0
 70
0
  0
VERTEX
  5
53A
  8
CUT
 10
227.0118603229523
 20
150.0000555038452
 30
0.0
 70
0
  0
VERTEX
  5
53B
  8
CUT
 10
225.77573051452637
 20
151.12041778564452
 30
0.0
 70
0
  0
VERTEX
  5
53C
  8
CUT
 10
223.96280055046083
 20
152.4649790763855
 30
0.0
 70
0
  0
VERTEX
  5
53D
  8
CUT
 10
222.62280883789063
 20
153.45878524780272
 30
0.0
 70
0
  0
VERTEX
  5
53E
  8
CUT
 10
220.68681859970093
 20
154.6191734313965
 30
0.0
 70
0
  0
VERTEX
  5
53F
  8
CUT
 10
219.2558692932129
 20
155.47685165405272
 30
0.0
 70
0
  0
VERTEX
  5
540
  8
CUT
 10
217.21546366214753
 20
156.44189109802247
 30
0.0
 70
0
  0
VERTEX
  5
541
  8
CUT
 10
215.7073377609253
 20
157.15518112182616
 30
0.0
 70
0
  0
VERTEX
  5
542
  8
CUT
 10
213.58216621875764
 20
157.915580368042
 30
0.0
 70
0
  0
VERTEX
  5
543
  8
CUT
 10
212.01138725280762
 20
158.47761459350585
 30
0.0
 70
0
  0
VERTEX
  5
544
  8
CUT
 10
209.82191689014437
 20
159.02604751586915
 30
0.0
 70
0
  0
VERTEX
  5
545
  8
CUT
 10
208.20361270904542
 20
159.4314109802246
 30
0.0
 70
0
  0
VERTEX
  5
546
  8
CUT
 10
205.9709295809269
 20
159.7625979423523
 30
0.0
 70
0
  0
VERTEX
  5
547
  8
CUT
 10
204.32068552970887
 20
160.00738830566405
 30
0.0
 70
0
  0
VERTEX
  5
548
  8
CUT
 10
202.06629135012628
 20
160.11814002990724
 30
0.0
 70
0
  0
VERTEX
  5
549
  8
CUT
 10
200.4
 20
160.2
 30
0.0
 70
0
  0
VERTEX
  5
54A
  8
CUT
 10
198.14560582041742
 20
160.08924827575683
 30
0.0
 70
0
  0
VERTEX
  5
54B
  8
CUT
 10
196.47931447029114
 20
160.00738830566405
 30
0.0
 70
0
  0
VERTEX
  5
54C
  8
CUT
 10
194.24663134217263
 20
159.67620134353638
 30
0.0
 70
0
  0
VERTEX
  5
54D
  8
CUT
 10
192.5963872909546
 20
159.4314109802246
 30
0.0
 70
0
  0
VERTEX
  5
54E
  8
CUT
 10
190.40691692829134
 20
158.88297805786132
 30
0.0
 70
0
  0
VERTEX
  5
54F
  8
CUT
 10
188.7886127471924
 20
158.47761459350585
 30
0.0
 70
0
  0
VERTEX
  5
550
  8
CUT
 10
186.66344120502472
 20
157.71721534729005
 30
0.0
 70
0
  0
VERTEX
  5
551
  8
CUT
 10
185.0926622390747
 20
157.15518112182616
 30
0.0
 70
0
  0
VERTEX
  5
552
  8
CUT
 10
183.05225660800934
 20
156.19014167785645
 30
0.0
 70
0
  0
VERTEX
  5
553
  8
CUT
 10
181.54413070678712
 20
155.47685165405272
 30
0.0
 70
0
  0
VERTEX
  5
554
  8
CUT
 10
179.6081404685974
 20
154.31646347045898
 30
0.0
 70
0
  0
VERTEX
  5
555
  8
CUT
 10
178.17719116210938
 20
153.45878524780272
 30
0.0
 70
0
  0
VERTEX
  5
556
  8
CUT
 10
176.36426119804383
 20
152.11422395706177
 30
0.0
 70
0
  0
VERTEX
  5
557
  8
CUT
 10
175.02426948547364
 20
151.12041778564452
 30
0.0
 70
0
  0
VERTEX
  5
558
  8
CUT
 10
173.35185856819155
 20
149.60463352203368
 30
0.0
 70
0
  0
VERTEX
  5
559
  8
CUT
 10
172.11572875976563
 20
148.48427124023436
 30
0.0
 70
0
  0
VERTEX
  5
55A
  8
CUT
 10
170.5999444961548
 20
146.81186032295227
 30
0.0
 70
0
  0
VERTEX
  5
55B
  8
CUT
 10
169.47958221435547
 20
145.57573051452636
 30
0.0
 70
0
  0
VERTEX
  5
55C
  8
CUT
 10
168.1350209236145
 20
143.7628005504608
 30
0.0
 70
0
  0
VERTEX
  5
55D
  8
CUT
 10
167.14121475219727
 20
142.4228088378906
 30
0.0
 70
0
  0
VERTEX
  5
55E
  8
CUT
 10
165.9808265686035
 20
140.48681859970094
 30
0.0
 70
0
  0
VERTEX
  5
55F
  8
CUT
 10
165.12314834594727
 20
139.05586929321288
 30
0.0
 70
0
  0
VERTEX
  5
560
  8
CUT
 10
164.15810890197753
 20
137.0154636621475
 30
0.0
 70
0
  0
VERTEX
  5
561
  8
CUT
 10
163.44481887817383
 20
135.50733776092528
 30
0.0
 70
0
  0
VERTEX
  5
562
  8
CUT
 10
162.684419631958
 20
133.38216621875762
 30
0.0
 70
0
  0
VERTEX
  5
563
  8
CUT
 10
162.12238540649415
 20
131.8113872528076
 30
0.0
 70
0
  0
VERTEX
  5
564
  8
CUT
 10
161.57395248413087
 20
129.62191689014435
 30
0.0
 70
0
  0
VERTEX
  5
565
  8
CUT
 10
161.1685890197754
 20
128.0036127090454
 30
0.0
 70
0
  0
VERTEX
  5
566
  8
CUT
 10
160.8374020576477
 20
125.7709295809269
 30
0.0
 70
0
  0
VERTEX
  5
567
  8
CUT
 10
160.59261169433594
 20
124.12068552970887
 30
0.0
 70
0
  0
VERTEX
  5
568
  8
CUT
 10
160.48185997009278
 20
121.86629135012626
 30
0.0
 70
0
  0
VERTEX
  5
569
  8
CUT
 10
160.4
 20
120.19999999999999
 30
0.0
 70
0
  0
VERTEX
  5
56A
  8
CUT
 10
160.51075172424316
 20
117.9456058204174
 30
0.0
 70
0
  0
VERTEX
  5
56B
  8
CUT
 10
160.59261169433594
 20
116.27931447029114
 30
0.0
 70
0
  0
VERTEX
  5
56C
  8
CUT
 10
160.92379865646365
 20
114.04663134217263
 30
0.0
 70
0
  0
VERTEX
  5
56D
  8
CUT
 10
161.1685890197754
 20
112.39638729095459
 30
0.0
 70
0
  0
VERTEX
  5
56E
  8
CUT
 10
161.71702194213867
 20
110.20691692829132
 30
0.0
 70
0
  0
VERTEX
  5
56F
  8
CUT
 10
162.12238540649415
 20
108.58861274719239
 30
0.0
 70
0
  0
VERTEX
  5
570
  8
CUT
 10
162.88278465270997
 20
106.46344120502472
 30
0.0
 70
0
  0
VERTEX
  5
571
  8
CUT
 10
163.44481887817383
 20
104.89266223907471
 30
0.0
 70
0
  0
VERTEX
  5
572
  8
CUT
 10
164.40985832214358
 20
102.85225660800934
 30
0.0
 70
0
  0
VERTEX
  5
573
  8
CUT
 10
165.12314834594727
 20
101.34413070678711
 30
0.0
 70
0
  0
VERTEX
  5
574
  8
CUT
 10
166.28353652954104
 20
99.40814046859742
 30
0.0
 70
0
  0
VERTEX
  5
575
  8
CUT
 10
167.14121475219727
 20
97.97719116210938
 30
0.0
 70
0
  0
VERTEX
  5
576
  8
CUT
 10
168.48577604293823
 20
96.16426119804382
 30
0.0
 70
0
  0
VERTEX
  5
577
  8
CUT
 10
169.47958221435547
 20
94.82426948547364
 30
0.0
 70
0
  0
VERTEX
  5
578
  8
CUT
 10
170.99536647796631
 20
93.15185856819153
 30
0.0
 70
0
  0
VERTEX
  5
579
  8
CUT
 10
172.11572875976563
 20
91.91572875976563
 30
0.0
 70
0
  0
VERTEX
  5
57A
  8
CUT
 10
173.78813967704772
 20
90.39994449615479
 30
0.0
 70
0
  0
VERTEX
  5
57B
  8
CUT
 10
175.02426948547364
 20
89.27958221435547
 30
0.0
 70
0
  0
VERTEX
  5
57C
  8
CUT
 10
176.83719944953918
 20
87.9350209236145
 30
0.0
 70
0
  0
VERTEX
  5
57D
  8
CUT
 10
178.17719116210938
 20
86.94121475219727
 30
0.0
 70
0
  0
VERTEX
  5
57E
  8
CUT
 10
180.11318140029908
 20
85.78082656860352
 30
0.0
 70
0
  0
VERTEX
  5
57F
  8
CUT
 10
181.54413070678712
 20
84.92314834594727
 30
0.0
 70
0
  0
VERTEX
  5
580
  8
CUT
 10
183.58453633785248
 20
83.95810890197754
 30
0.0
 70
0
  0
VERTEX
  5
581
  8
CUT
 10
185.0926622390747
 20
83.24481887817383
 30
0.0
 70
0
  0
VERTEX
  5
582
  8
CUT
 10
187.21783378124238
 20
82.48441963195802
 30
0.0
 70
0
  0
VERTEX
  5
583
  8
CUT
 10
188.7886127471924
 20
81.92238540649414
 30
0.0
 70
0
  0
VERTEX
  5
584
  8
CUT
 10
190.97808310985565
 20
81.37395248413085
 30
0.0
 70
0
  0
VERTEX
  5
585
  8
CUT
 10
192.5963872909546
 20
80.9685890197754
 30
0.0
 70
0
  0
VERTEX
  5
586
  8
CUT
 10
194.8290704190731
 20
80.6374020576477
 30
0.0
 70
0
  0
VERTEX
  5
587
  8
CUT
 10
196.47931447029114
 20
80.39261169433594
 30
0.0
 70
0
  0
VERTEX
  5
588
  8
CUT
 10
198.73370864987373
 20
80.28185997009277
 30
0.0
 70
0
  0
VERTEX
  5
589
  8
CUT
 10
200.4
 20
80.2
 30
0.0
 70
0
  0
VERTEX
  5
58A
  8
CUT
 10
202.6543941795826
 20
80.31075172424318
 30
0.0
 70
0
  0
VERTEX
  5
58B
  8
CUT
 10
204.32068552970887
 20
80.39261169433594
 30
0.0
 70
0
  0
VERTEX
  5
58C
  8
CUT
 10
206.55336865782738
 20
80.72379865646363
 30
0.0
 70
0
  0
VERTEX
  5
58D
  8
CUT
 10
208.20361270904542
 20
80.9685890197754
 30
0.0
 70
0
  0
VERTEX
  5
58E
  8
CUT
 10
210.39308307170867
 20
81.51702194213868
 30
0.0
 70
0
  0
VERTEX
  5
58F
  8
CUT
 10
212.01138725280762
 20
81.92238540649414
 30
0.0
 70
0
  0
VERTEX
  5
590
  8
CUT
 10
214.1365587949753
 20
82.68278465270996
 30
0.0
 70
0
  0
VERTEX
  5
591
  8
CUT
 10
215.7073377609253
 20
83.24481887817383
 30
0.0
 70
0
  0
VERTEX
  5
592
  8
CUT
 10
217.74774339199067
 20
84.20985832214356
 30
0.0
 70
0
  0
VERTEX
  5
593
  8
CUT
 10
219.2558692932129
 20
84.92314834594727
 30
0.0
 70
0
  0
VERTEX
  5
594
  8
CUT
 10
221.1918595314026
 20
86.08353652954102
 30
0.0
 70
0
  0
VERTEX
  5
595
  8
CUT
 10
222.62280883789063
 20
86.94121475219727
 30
0.0
 70
0
  0
VERTEX
  5
596
  8
CUT
 10
224.43573880195618
 20
88.28577604293824
 30
0.0
 70
0
  0
VERTEX
  5
597
  8
CUT
 10
225.77573051452637
 20
89.27958221435547
 30
0.0
 70
0
  0
VERTEX
  5
598
  8
CUT
 10
227.44814143180847
 20
90.79536647796631
 30
0.0
 70
0
  0
VERTEX
  5
599
  8
CUT
 10
228.68427124023438
 20
91.91572875976563
 30
0.0
 70
0
  0
VERTEX
  5
59A
  8
CUT
 10
230.20005550384522
 20
93.58813967704774
 30
0.0
 70
0
  0
VERTEX
  5
59B
  8
CUT
 10
231.32041778564454
 20
94.82426948547364
 30
0.0
 70
0
  0
VERTEX
  5
59C
  8
CUT
 10
232.66497907638552
 20
96.6371994495392
 30
0.0
 70
0
  0
VERTEX
  5
59D
  8
CUT
 10
233.65878524780274
 20
97.97719116210938
 30
0.0
 70
0
  0
VERTEX
  5
59E
  8
CUT
 10
234.8191734313965
 20
99.91318140029907
 30
0.0
 70
0
  0
VERTEX
  5
59F
  8
CUT
 10
235.67685165405274
 20
101.34413070678711
 30
0.0
 70
0
  0
VERTEX
  5
5A0
  8
CUT
 10
236.64189109802248
 20
103.38453633785248
 30
0.0
 70
0
  0
VERTEX
  5
5A1
  8
CUT
 10
237.35518112182618
 20
104.89266223907471
 30
0.0
 70
0
  0
VERTEX
  5
5A2
  8
CUT
 10
238.115580368042
 20
107.01783378124237
 30
0.0
 70
0
  0
VERTEX
  5
5A3
  8
CUT
 10
238.67761459350587
 20
108.58861274719239
 30
0.0
 70
0
  0
VERTEX
  5
5A4
  8
CUT
 10
239.22604751586914
 20
110.77808310985566
 30
0.0
 70
0
  0
VERTEX
  5
5A5
  8
CUT
 10
239.63141098022462
 20
112.39638729095459
 30
0.0
 70
0
  0
VERTEX
  5
5A6
  8
CUT
 10
239.96259794235232
 20
114.6290704190731
 30
0.0
 70
0
  0
VERTEX
  5
5A7
  8
CUT
 10
240.20738830566407
 20
116.27931447029114
 30
0.0
 70
0
  0
VERTEX
  5
5A8
  8
CUT
 10
240.31814002990723
 20
118.53370864987373
 30
0.0
 70
0
  0
SEQEND
  5
528
  8
CUT
  0
POLYLINE
  5
5A9
  8
CUT
 66
1
 10
0.0
 20
0.0
 30
0.0
 70
1
  0
VERTEX
  5
5AB
  8
CUT
 10
193.4
 20
88.2
 30
0.0
 70
0
  0
VERTEX
  5
5AC
  8
CUT
 10
193.3423558412097
 20
87.61472903395162
 30
0.0
 70
0
  0
VERTEX
  5
5AD
  8
CUT
 10
193.17163859753387
 20
87.05194970290474
 30
0.0
 70
0
  0
VERTEX
  5
5AE
  8
CUT
 10
192.89440883690764
 20
86.53328930094119
 30
0.0
 70
0
  0
VERTEX
  5
5AF
  8
CUT
 10
192.52132034355964
 20
86.07867965644036
 30
0.0
 70
0
  0
VERTEX
  5
5B0
  8
CUT
 10
192.0667106990588
 20
85.70559116309236
 30
0.0
 70
0
  0
VERTEX
  5
5B1
  8
CUT
 10
191.54805029709527
 20
85.42836140246615
 30
0.0
 70
0
  0
VERTEX
  5
5B2
  8
CUT
 10
190.9852709660484
 20
85.25764415879031
 30
0.0
 70
0
  0
VERTEX
  5
5B3
  8
CUT
 10
190.4
 20
85.2
 30
0.0
 70
0
  0
VERTEX
  5
5B4
  8
CUT
 10
189.8147290339516
 20
85.25764415879031
 30
0.0
 70
0
  0
VERTEX
  5
5B5
  8
CUT
 10
189.25194970290474
 20
85.42836140246615
 30
0.0
 70
0
  0
VERTEX
  5
5B6
  8
CUT
 10
188.7332893009412
 20
85.70559116309236
 30
0.0
 70
0
  0
VERTEX
  5
5B7
  8
CUT
 10
188.27867965644037
 20
86.07867965644036
 30
0.0
 70
0
  0
VERTEX
  5
5B8
  8
CUT
 10
187.90559116309237
 20
86.53328930094119
 30
0.0
 70
0
  0
VERTEX
  5
5B9
  8
CUT
 10
187.62836140246614
 20
87.05194970290474
 30
0.0
 70
0
  0
VERTEX
  5
5BA
  8
CUT
 10
187.45764415879032
 20
87.61472903395162
 30
0.0
 70
0
  0
VERTEX
  5
5BB
  8
CUT
 10
187.4
 20
88.2
 30
0.0
 70
0
  0
VERTEX
  5
5BC
  8
CUT
 10
187.45764415879032
 20
88.78527096604839
 30
0.0
 70
0
  0
VERTEX
  5
5BD
  8
CUT
 10
187.62836140246614
 20
89.34805029709527
 30
0.0
 70
0
  0
VERTEX
  5
5BE
  8
CUT
 10
187.90559116309237
 20
89.86671069905881
 30
0.0
 70
0
  0
VERTEX
  5
5BF
  8
CUT
 10
188.27867965644037
 20
90.32132034355965
 30
0.0
 70
0
  0
VERTEX
  5
5C0
  8
CUT
 10
188.7332893009412
 20
90.69440883690764
 30
0.0
 70
0
  0
VERTEX
  5
5C1
  8
CUT
 10
189.25194970290474
 20
90.97163859753385
 30
0.0
 70
0
  0
VERTEX
  5
5C2
  8
CUT
 10
189.8147290339516
 20
91.14235584120969
 30
0.0
 70
0
  0
VERTEX
  5
5C3
  8
CUT
 10
190.4
 20
91.2
 30
0.0
 70
0
  0
VERTEX
  5
5C4
  8
CUT
 10
190.9852709660484
 20
91.14235584120969
 30
0.0
 70
0
  0
VERTEX
  5
5C5
  8
CUT
 10
191.54805029709527
 20
90.97163859753385
 30
0.0
 70
0
  0
VERTEX
  5
5C6
  8
CUT
 10
192.0667106990588
 20
90.69440883690764
 30
0.0
 70
0
  0
VERTEX
  5
5C7
  8
CUT
 10
192.52132034355964
 20
90.32132034355965
 30
0.0
 70
0
  0
VERTEX
  5
5C8
  8
CUT
 10
192.89440883690764
 20
89.86671069905881
 30
0.0
 70
0
  0
VERTEX
  5
5C9
  8
CUT
 10
193.17163859753387
 20
89.34805029709527
 30
0.0
 70
0
  0
VERTEX
  5
5CA
  8
CUT
 10
193.3423558412097
 20
88.78527096604839
 30
0.0
 70
0
  0
SEQEND
  5
5AA
  8
CUT
  0
POLYLINE
  5
5CB
  8
CUT
 66
1
 10
0.0
 20
0.0
 30
0.0
 70
1
  0
VERTEX
  5
5CD
  8
CUT
 10
213.4
 20
152.2
 30
0.0
 70
0
  0
VERTEX
  5
5CE
  8
CUT
 10
213.3423558412097
 20
151.61472903395162
 30
0.0
 70
0
  0
VERTEX
  5
5CF
  8
CUT
 10
213.17163859753387
 20
151.05194970290472
 30
0.0
 70
0
  0
VERTEX
  5
5D0
  8
CUT
 10
212.89440883690764
 20
150.5332893009412
 30
0.0
 70
0
  0
VERTEX
  5
5D1
  8
CUT
 10
212.52132034355964
 20
150.07867965644036
 30
0.0
 70
0
  0
VERTEX
  5
5D2
  8
CUT
 10
212.0667106990588
 20
149.70559116309238
 30
0.0
 70
0
  0
VERTEX
  5
5D3
  8
CUT
 10
211.54805029709527
 20
149.42836140246615
 30
0.0
 70
0
  0
VERTEX
  5
5D4
  8
CUT
 10
210.9852709660484
 20
149.2576441587903
 30
0.0
 70
0
  0
VERTEX
  5
5D5
  8
CUT
 10
210.4
 20
149.2
 30
0.0
 70
0
  0
VERTEX
  5
5D6
  8
CUT
 10
209.8147290339516
 20
149.2576441587903
 30
0.0
 70
0
  0
VERTEX
  5
5D7
  8
CUT
 10
209.25194970290474
 20
149.42836140246615
 30
0.0
 70
0
  0
VERTEX
  5
5D8
  8
CUT
 10
208.7332893009412
 20
149.70559116309238
 30
0.0
 70
0
  0
VERTEX
  5
5D9
  8
CUT
 10
208.27867965644037
 20
150.07867965644036
 30
0.0
 70
0
  0
VERTEX
  5
5DA
  8
CUT
 10
207.90559116309237
 20
150.5332893009412
 30
0.0
 70
0
  0
VERTEX
  5
5DB
  8
CUT
 10
207.62836140246614
 20
151.05194970290472
 30
0.0
 70
0
  0
VERTEX
  5
5DC
  8
CUT
 10
207.45764415879032
 20
151.61472903395162
 30
0.0
 70
0
  0
VERTEX
  5
5DD
  8
CUT
 10
207.4
 20
152.2
 30
0.0
 70
0
  0
VERTEX
  5
5DE
  8
CUT
 10
207.45764415879032
 20
152.7852709660484
 30
0.0
 70
0
  0
VERTEX
  5
5DF
  8
CUT
 10
207.62836140246614
 20
153.34805029709526
 30
0.0
 70
0
  0
VERTEX
  5
5E0
  8
CUT
 10
207.90559116309237
 20
153.8667106990588
 30
0.0
 70
0
  0
VERTEX
  5
5E1
  8
CUT
 10
208.27867965644037
 20
154.32132034355965
 30
0.0
 70
0
  0
VERTEX
  5
5E2
  8
CUT
 10
208.7332893009412
 20
154.69440883690766
 30
0.0
 70
0
  0
VERTEX
  5
5E3
  8
CUT
 10
209.25194970290474
 20
154.97163859753385
 30
0.0
 70
0
  0
VERTEX
  5
5E4
  8
CUT
 10
209.8147290339516
 20
155.14235584120968
 30
0.0
 70
0
  0
VERTEX
  5
5E5
  8
CUT
 10
210.4
 20
155.2
 30
0.0
 70
0
  0
VERTEX
  5
5E6
  8
CUT
 10
210.9852709660484
 20
155.14235584120968
 30
0.0
 70
0
  0
VERTEX
  5
5E7
  8
CUT
 10
211.54805029709527
 20
154.97163859753385
 30
0.0
 70
0
  0
VERTEX
  5
5E8
  8
CUT
 10
212.0667106990588
 20
154.69440883690766
 30
0.0
 70
0
  0
VERTEX
  5
5E9
  8
CUT
 10
212.52132034355964
 20
154.32132034355965
 30
0.0
 70
0
  0
VERTEX
  5
5EA
  8
CUT
 10
212.89440883690764
 20
153.8667106990588
 30
0.0
 70
0
  0
VERTEX
  5
5EB
  8
CUT
 10
213.17163859753387
 20
153.34805029709528
 30
0.0
 70
0
  0
VERTEX
  5
5EC
  8
CUT
 10
213.3423558412097
 20
152.7852709660484
 30
0.0
 70
0
  0
SEQEND
  5
5CC
  8
CUT
  0
POLYLINE
  5
5ED
  8
CUT
 66
1
 10
0.0
 20
0.0
 30
0.0
 70
1
  0
VERTEX
  5
5EF
  8
CUT
 10
235.4
 20
110.2
 30
0.0
 70
0
  0
VERTEX
  5
5F0
  8
CUT
 10
235.3423558412097
 20
109.61472903395162
 30
0.0
 70
0
  0
VERTEX
  5
5F1
  8
CUT
 10
235.17163859753387
 20
109.05194970290474
 30
0.0
 70
0
  0
VERTEX
  5
5F2
  8
CUT
 10
234.89440883690764
 20
108.53328930094119
 30
0.0
 70
0
  0
VERTEX
  5
5F3
  8
CUT
 10
234.52132034355964
 20
108.07867965644036
 30
0.0
 70
0
  0
VERTEX
  5
5F4
  8
CUT
 10
234.0667106990588
 20
107.70559116309236
 30
0.0
 70
0
  0
VERTEX
  5
5F5
  8
CUT
 10
233.54805029709527
 20
107.42836140246614
 30
0.0
 70
0
  0
VERTEX
  5
5F6
  8
CUT
 10
232.9852709660484
 20
107.25764415879031
 30
0.0
 70
0
  0
VERTEX
  5
5F7
  8
CUT
 10
232.4
 20
107.2
 30
0.0
 70
0
  0
VERTEX
  5
5F8
  8
CUT
 10
231.8147290339516
 20
107.25764415879031
 30
0.0
 70
0
  0
VERTEX
  5
5F9
  8
CUT
 10
231.25194970290474
 20
107.42836140246614
 30
0.0
 70
0
  0
VERTEX
  5
5FA
  8
CUT
 10
230.7332893009412
 20
107.70559116309236
 30
0.0
 70
0
  0
VERTEX
  5
5FB
  8
CUT
 10
230.27867965644037
 20
108.07867965644036
 30
0.0
 70
0
  0
VERTEX
  5
5FC
  8
CUT
 10
229.90559116309237
 20
108.53328930094119
 30
0.0
 70
0
  0
VERTEX
  5
5FD
  8
CUT
 10
229.62836140246614
 20
109.05194970290474
 30
0.0
 70
0
  0
VERTEX
  5
5FE
  8
CUT
 10
229.45764415879032
 20
109.61472903395162
 30
0.0
 70
0
  0
VERTEX
  5
5FF
  8
CUT
 10
229.4
 20
110.2
 30
0.0
 70
0
  0
VERTEX
  5
600
  8
CUT
 10
229.45764415879032
 20
110.78527096604839
 30
0.0
 70
0
  0
VERTEX
  5
601
  8
CUT
 10
229.62836140246614
 20
111.34805029709527
 30
0.0
 70
0
  0
VERTEX
  5
602
  8
CUT
 10
229.90559116309237
 20
111.86671069905881
 30
0.0
 70
0
  0
VERTEX
  5
603
  8
CUT
 10
230.27867965644037
 20
112.32132034355965
 30
0.0
 70
0
  0
VERTEX
  5
604
  8
CUT
 10
230.7332893009412
 20
112.69440883690764
 30
0.0
 70
0
  0
VERTEX
  5
605
  8
CUT
 10
231.25194970290474
 20
112.97163859753387
 30
0.0
 70
0
  0
VERTEX
  5
606
  8
CUT
 10
231.8147290339516
 20
113.14235584120969
 30
0.0
 70
0
  0
VERTEX
  5
607
  8
CUT
 10
232.4
 20
113.2
 30
0.0
 70
0
  0
VERTEX
  5
608
  8
CUT
 10
232.9852709660484
 20
113.14235584120969
 30
0.0
 70
0
  0
VERTEX
  5
609
  8
CUT
 10
233.54805029709527
 20
112.97163859753387
 30
0.0
 70
0
  0
VERTEX
  5
60A
  8
CUT
 10
234.0667106990588
 20
112.69440883690764
 30
0.0
 70
0
  0
VERTEX
  5
60B
  8
CUT
 10
234.52132034355964
 20
112.32132034355965
 30
0.0
 70
0
  0
VERTEX
  5
60C
  8
CUT
 10
234.89440883690764
 20
111.86671069905881
 30
0.0
 70
0
  0
VERTEX
  5
60D
  8
CUT
 10
235.17163859753387
 20
111.34805029709527
 30
0.0
 70
0
  0
VERTEX
  5
60E
  8
CUT
 10
235.3423558412097
 20
110.78527096604839
 30
0.0
 70
0
  0
SEQEND
  5
5EE
  8
CUT
  0
POLYLINE
  5
60F
  8
ENGRAVE
 66
1
 10
0.0
 20
0.0
 30
0.0
 70
0
  0
VERTEX
  5
611
  8
ENGRAVE
 10
215.4
 20
143.2
 30
0.0
 70
0
  0
VERTEX
  5
612
  8
ENGRAVE
 10
220.4
 20
143.2
 30
0.0
 70
0
  0
SEQEND
  5
610
  8
ENGRAVE
  0
POLYLINE
  5
613
  8
ENGRAVE
 66
1
 10
0.0
 20
0.0
 30
0.0
 70
0
  0
VERTEX
  5
615
  8
ENGRAVE
 10
220.4
 20
143.2
 30
0.0
 70
0
  0
VERTEX
  5
616
  8
ENGRAVE
 10
225.4
 20
143.2
 30
0.0
 70
0
  0
SEQEND
  5
614
  8
ENGRAVE
  0
POLYLINE
  5
617
  8
ENGRAVE
 66
1
 10
0.0
 20
0.0
 30
0.0
 70
0
  0
VERTEX
  5
619
  8
ENGRAVE
 10
215.4
 20
145.2
 30
0.0
 70
0
  0
VERTEX
  5
61A
  8
ENGRAVE
 10
215.4
 20
151.2
 30
0.0
 70
0
  0
SEQEND
  5
618
  8
ENGRAVE
  0
POLYLINE
  5
61B
  8
ENGRAVE
 66
1
 10
0.0
 20
0.0
 30
0.0
 70
0
  0
VERTEX
  5
61D
  8
ENGRAVE
 10
215.4
 20
151.2
 30
0.0
 70
0
  0
VERTEX
  5
61E
  8
ENGRAVE
 10
220.4
 20
151.2
 30
0.0
 70
0
  0
SEQEND
  5
61C
  8
ENGRAVE
  0
POLYLINE
  5
61F
  8
ENGRAVE
 66
1
 10
0.0
 20
0.0
 30
0.0
 70
0
  0
VERTEX
  5
621
  8
ENGRAVE
 10
220.4
 20
145.2
 30
0.0
 70
0
  0
VERTEX
  5
622
  8
ENGRAVE
 10
220.4
 20
151.2
 30
0.0
 70
0
  0
SEQEND
  5
620
  8
ENGRAVE
  0
POLYLINE
  5
623
  8
ENGRAVE
 66
1
 10
0.0
 20
0.0
 30
0.0
 70
0
  0
VERTEX
  5
625
  8
ENGRAVE
 10
220.4
 20
145.2
 30
0.0
 70
0
  0
VERTEX
  5
626
  8
ENGRAVE
 10
225.4
 20
145.2
 30
0.0
 70
0
  0
SEQEND
  5
624
  8
ENGRAVE
  0
POLYLINE
  5
627
  8
ENGRAVE
 66
1
 10
0.0
 20
0.0
 30
0.0
 70
0
  0
VERTEX
  5
629
  8
ENGRAVE
 10
225.4
 20
145.2
 30
0.0
 70
0
  0
VERTEX
  5
62A
  8
ENGRAVE
 10
225.4
 20
151.2
 30
0.0
 70
0
  0
SEQEND
  5
628
  8
ENGRAVE
  0
ENDSEC
  0
EOF
