  0
SECTION
  2
HEADER
  9
$ACADVER
  1
AC1009
  9
$DWGCODEPAGE
  3
ANSI_1252
  9
$INSBASE
 10
0.0
 20
0.0
 30
0.0
  9
$EXTMIN
 10
1e+20
 20
1e+20
 30
1e+20
  9
$EXTMAX
 10
-1e+20
 20
-1e+20
 30
-1e+20
  9
$LIMMIN
 10
0.0
 20
0.0
  9
$LIMMAX
 10
420.0
 20
297.0
  9
$ORTHOMODE
 70
0
  9
$REGENMODE
 70
1
  9
$FILLMODE
 70
1
  9
$DRAGMODE
 70
2
  9
$QTEXTMODE
 70
0
  9
$MIRRTEXT
 70
1
  9
$OSMODE
 70
20583
  9
$LTSCALE
 40
1.0
  9
$ATTMODE
 70
1
  9
$TEXTSIZE
 40
2.5
  9
$TRACEWID
 40
1.0
  9
$TEXTSTYLE
  7
Standard
  9
$CLAYER
  8
0
  9
$CELTYPE
  6
ByLayer
  9
$CECOLOR
 62
256
  9
$DIMSCALE
 40
1.0
  9
$DIMASZ
 40
2.5
  9
$DIMEXO
 40
0.625
  9
$DIMDLI
 40
3.75
  9
$DIMRND
 40
0.0
  9
$DIMDLE
 40
0.0
  9
$DIMEXE
 40
1.25
  9
$DIMTP
 40
0.0
  9
$DIMTM
 40
0.0
  9
$DIMTXT
 40
2.5
  9
$DIMCEN
 40
2.5
  9
$DIMTSZ
 40
0.0
  9
$DIMTOL
 70
0
  9
$DIMLIM
 70
0
  9
$DIMTIH
 70
0
  9
$DIMTOH
 70
0
  9
$DIMSE1
 70
0
  9
$DIMSE2
 70
0
  9
$DIMTAD
 70
1
  9
$DIMZIN
 70
8
  9
$DIMBLK
  1

  9
$DIMASO
 70
1
  9
$DIMSHO
 70
1
  9
$DIMPOST
  1

  9
$DIMAPOST
  1

  9
$DIMALT
 70
0
  9
$DIMALTD
 70
3
  9
$DIMALTF
 40
0.03937007874
  9
$DIMLFAC
 40
1.0
  9
$DIMTOFL
 70
1
  9
$DIMTVP
 40
0.0
  9
$DIMTIX
 70
0
  9
$DIMSOXD
 70
0
  9
$DIMSAH
 70
0
  9
$DIMBLK1
  1

  9
$DIMBLK2
  1

  9
$DIMSTYLE
  2
ISO-25
  9
$DIMCLRD
 70
0
  9
$DIMCLRE
 70
0
  9
$DIMCLRT
 70
0
  9
$DIMTFAC
 40
1.0
  9
$DIMGAP
 40
0.625
  9
$COORDS
 70
1
  9
$ATTDIA
 70
0
  9
$ATTREQ
 70
1
  9
$HANDLING
 70
1
  9
$LUNITS
 70
2
  9
$LUPREC
 70
4
  9
$SKETCHINC
 40
1.0
  9
$FILLETRAD
 40
10.0
  9
$AUNITS
 70
0
  9
$AUPREC
 70
2
  9
$MENU
  1
.
  9
$ELEVATION
 40
0.0
  9
$PELEVATION
 40
0.0
  9
$THICKNESS
 40
0.0
  9
$LIMCHECK
 70
0
  9
$CHAMFERA
 40
0.0
  9
$CHAMFERB
 40
0.0
  9
$SKPOLY
 70
0
  9
$TDCREATE
 40
2461262.7422916666
  9
$TDUPDATE
 40
2461262.7422916666
  9
$TDINDWG
 40
0.0
  9
$TDUSRTIMER
 40
0.0
  9
$USRTIMER
 70
1
  9
$ANGBASE
 50
0.0
  9
$ANGDIR
 70
0
  9
$PDMODE
 70
0
  9
$PDSIZE
 40
0.0
  9
$PLINEWID
 40
0.0
  9
$SPLFRAME
 70
0
  9
$SPLINETYPE
 70
6
  9
$SPLINESEGS
 70
8
  9
$HANDSEED
  5
60D
  9
$SURFTAB1
 70
6
  9
$SURFTAB2
 70
6
  9
$SURFTYPE
 70
6
  9
$SURFU
 70
6
  9
$SURFV
 70
6
  9
$UCSNAME
  2

  9
$UCSORG
 10
0.0
 20
0.0
 30
0.0
  9
$UCSXDIR
 10
1.0
 20
0.0
 30
0.0
  9
$UCSYDIR
 10
0.0
 20
1.0
 30
0.0
  9
$PUCSNAME
  2

  9
$PUCSORG
 10
0.0
 20
0.0
 30
0.0
  9
$PUCSXDIR
 10
1.0
 20
0.0
 30
0.0
  9
$PUCSYDIR
 10
0.0
 20
1.0
 30
0.0
  9
$USERI1
 70
0
  9
$USERI2
 70
0
  9
$USERI3
 70
0
  9
$USERI4
 70
0
  9
$USERI5
 70
0
  9
$USERR1
 40
0.0
  9
$USERR2
 40
0.0
  9
$USERR3
 40
0.0
  9
$USERR4
 40
0.0
  9
$USERR5
 40
0.0
  9
$WORLDVIEW
 70
1
  9
$SHADEDGE
 70
3
  9
$SHADEDIF
 70
70
  9
$TILEMODE
 70
1
  9
$MAXACTVP
 70
64
  9
$PLIMCHECK
 70
0
  9
$PEXTMIN
 10
1e+20
 20
1e+20
 30
1e+20
  9
$PEXTMAX
 10
-1e+20
 20
-1e+20
 30
-1e+20
  9
$PLIMMIN
 10
0.0
 20
0.0
  9
$PLIMMAX
 10
420.0
 20
297.0
  9
$UNITMODE
 70
0
  9
$VISRETAIN
 70
1
  9
$PLINEGEN
 70
0
  9
$PSLTSCALE
 70
1
  0
ENDSEC
  0
SECTION
  2
TABLES
  0
TABLE
  2
VPORT
 70
1
  0
VPORT
  5
23
  2
*Active
 70
0
 10
0.0
 20
0.0
 11
1.0
 21
1.0
 12
0.0
 22
0.0
 13
0.0
 23
0.0
 14
0.5
 24
0.5
 15
0.5
 25
0.5
 16
0.0
 26
0.0
 36
1.0
 17
0.0
 27
0.0
 37
0.0
 40
1000.0
 41
1.34
 42
50.0
 43
0.0
 44
0.0
 50
0.0
 51
0.0
 71
0
 72
1000
 73
1
 74
3
 75
0
 76
0
 77
0
 78
0
  0
ENDTAB
  0
TABLE
  2
LTYPE
 70
3
  0
LTYPE
  5
24
  2
ByBlock
 70
0
  3

 72
65
 73
0
 40
0.0
  0
LTYPE
  5
25
  2
ByLayer
 70
0
  3

 72
65
 73
0
 40
0.0
  0
LTYPE
  5
26
  2
Continuous
 70
0
  3

 72
65
 73
0
 40
0.0
  0
ENDTAB
  0
TABLE
  2
LAYER
 70
4
  0
LAYER
  5
27
  2
0
 70
0
 62
7
  6
Continuous
  0
LAYER
  5
28
  2
Defpoints
 70
0
 62
7
  6
Continuous
  0
LAYER
  5
2D
  2
CUT
 70
0
 62
1
  6
Continuous
  0
LAYER
  5
2E
  2
ENGRAVE
 70
0
 62
5
  6
Continuous
  0
ENDTAB
  0
TABLE
  2
STYLE
 70
1
  0
STYLE
  5
29
  2
Standard
 70
0
 40
0.0
 41
1.0
 50
0.0
 71
0
 42
2.5
  3
txt
  4

  0
ENDTAB
  0
TABLE
  2
VIEW
 70
0
  0
ENDTAB
  0
TABLE
  2
UCS
 70
0
  0
ENDTAB
  0
TABLE
  2
APPID
 70
3
  0
APPID
  5
2A
  2
ACAD
 70
0
  0
APPID
  5
60B
  2
HATCHBACKGROUNDCOLOR
 70
0
  0
APPID
  5
60C
  2
EZDXF
 70
0
  0
ENDTAB
  0
TABLE
  2
DIMSTYLE
 70
1
  0
DIMSTYLE
105
2B
  2
Standard
 70
0
  3

  4

  5

  6

  7

 40
1.0
 41
2.5
 42
0.625
 43
3.75
 44
1.25
 45
0.0
 46
0.0
 47
0.0
 48
0.0
140
2.5
141
2.5
142
0.0
143
0.03937007874
144
1.0
145
0.0
146
1.0
147
0.625
 71
0
 72
0
 73
0
 74
0
 75
0
 76
0
 77
1
 78
8
170
0
171
3
172
1
173
0
174
0
175
0
176
0
177
0
178
0
  0
ENDTAB
  0
ENDSEC
  0
SECTION
  2
BLOCKS
  0
BLOCK
  5
18
  8
0
  2
$Model_Space
 70
0
 10
0.0
 20
0.0
 30
0.0
  3
$Model_Space
  1

1001
EZDXF
1000
CREATED_BY_EZDXF
1000
1.4.4 @ 2026-08-09T15:48:54.117326+00:00
1000
WRITTEN_BY_EZDXF
1000
1.4.4 @ 2026-08-09T15:48:54.168450+00:00
  0
ENDBLK
  5
19
  8
0
  0
BLOCK
  5
1C
  8
0
  2
$Paper_Space
 70
0
 10
0.0
 20
0.0
 30
0.0
  3
$Paper_Space
  1

  0
ENDBLK
  5
1D
  8
0
  0
ENDSEC
  0
SECTION
  2
ENTITIES
  0
POLYLINE
  5
2F
  8
CUT
 66
1
 10
0.0
 20
0.0
 30
0.0
 70
1
  0
VERTEX
  5
31
  8
CUT
 10
80.0
 20
40.0
 30
0.0
 70
0
  0
VERTEX
  5
32
  8
CUT
 10
79.9951847076416
 20
40.098017138242724
 30
0.0
 70
0
  0
VERTEX
  5
33
  8
CUT
 10
79.80738830566406
 20
43.92068552970886
 30
0.0
 70
0
  0
VERTEX
  5
34
  8
CUT
 10
79.79298887252807
 20
44.01775870919228
 30
0.0
 70
0
  0
VERTEX
  5
35
  8
CUT
 10
79.23141098022461
 20
47.80361270904541
 30
0.0
 70
0
  0
VERTEX
  5
36
  8
CUT
 10
79.20756607055664
 20
47.898807072639464
 30
0.0
 70
0
  0
VERTEX
  5
37
  8
CUT
 10
78.27761459350586
 20
51.61138725280762
 30
0.0
 70
0
  0
VERTEX
  5
38
  8
CUT
 10
78.24455375671387
 20
51.70378601551056
 30
0.0
 70
0
  0
VERTEX
  5
39
  8
CUT
 10
76.95518112182617
 20
55.30733776092529
 30
0.0
 70
0
  0
VERTEX
  5
3A
  8
CUT
 10
76.91322288513183
 20
55.39605104923248
 30
0.0
 70
0
  0
VERTEX
  5
3B
  8
CUT
 10
75.27685165405273
 20
58.85586929321289
 30
0.0
 70
0
  0
VERTEX
  5
3C
  8
CUT
 10
75.22639999389648
 20
58.94004278182983
 30
0.0
 70
0
  0
VERTEX
  5
3D
  8
CUT
 10
73.25878524780273
 20
62.222808837890625
 30
0.0
 70
0
  0
VERTEX
  5
3E
  8
CUT
 10
73.20032606124877
 20
62.30163187980652
 30
0.0
 70
0
  0
VERTEX
  5
3F
  8
CUT
 10
70.92041778564453
 20
65.37573051452637
 30
0.0
 70
0
  0
VERTEX
  5
40
  8
CUT
 10
70.85451412200928
 20
65.44844403266907
 30
0.0
 70
0
  0
VERTEX
  5
41
  8
CUT
 10
68.28427124023438
 20
68.28427124023438
 30
0.0
 70
0
  0
VERTEX
  5
42
  8
CUT
 10
68.21155772209167
 20
68.35017490386963
 30
0.0
 70
0
  0
VERTEX
  5
43
  8
CUT
 10
65.37573051452637
 20
70.92041778564453
 30
0.0
 70
0
  0
VERTEX
  5
44
  8
CUT
 10
65.29690747261047
 20
70.97887697219849
 30
0.0
 70
0
  0
VERTEX
  5
45
  8
CUT
 10
62.222808837890625
 20
73.25878524780273
 30
0.0
 70
0
  0
VERTEX
  5
46
  8
CUT
 10
62.138635349273684
 20
73.30923690795899
 30
0.0
 70
0
  0
VERTEX
  5
47
  8
CUT
 10
58.85586929321289
 20
75.27685165405273
 30
0.0
 70
0
  0
VERTEX
  5
48
  8
CUT
 10
58.7671560049057
 20
75.31880989074708
 30
0.0
 70
0
  0
VERTEX
  5
49
  8
CUT
 10
55.30733776092529
 20
76.95518112182617
 30
0.0
 70
0
  0
VERTEX
  5
4A
  8
CUT
 10
55.21493899822235
 20
76.98824195861816
 30
0.0
 70
0
  0
VERTEX
  5
4B
  8
CUT
 10
51.61138725280762
 20
78.27761459350586
 30
0.0
 70
0
  0
VERTEX
  5
4C
  8
CUT
 10
51.51619288921356
 20
78.30145950317383
 30
0.0
 70
0
  0
VERTEX
  5
4D
  8
CUT
 10
47.80361270904541
 20
79.23141098022461
 30
0.0
 70
0
  0
VERTEX
  5
4E
  8
CUT
 10
47.706539529561994
 20
79.2458104133606
 30
0.0
 70
0
  0
VERTEX
  5
4F
  8
CUT
 10
43.92068552970886
 20
79.80738830566406
 30
0.0
 70
0
  0
VERTEX
  5
50
  8
CUT
 10
43.82266839146614
 20
79.81220359802246
 30
0.0
 70
0
  0
VERTEX
  5
51
  8
CUT
 10
40.0
 20
80.0
 30
0.0
 70
0
  0
VERTEX
  5
52
  8
CUT
 10
39.901982861757276
 20
79.9951847076416
 30
0.0
 70
0
  0
VERTEX
  5
53
  8
CUT
 10
36.07931447029114
 20
79.80738830566406
 30
0.0
 70
0
  0
VERTEX
  5
54
  8
CUT
 10
35.98224129080772
 20
79.79298887252807
 30
0.0
 70
0
  0
VERTEX
  5
55
  8
CUT
 10
32.19638729095459
 20
79.23141098022461
 30
0.0
 70
0
  0
VERTEX
  5
56
  8
CUT
 10
32.101192927360536
 20
79.20756607055664
 30
0.0
 70
0
  0
VERTEX
  5
57
  8
CUT
 10
28.388612747192383
 20
78.27761459350586
 30
0.0
 70
0
  0
VERTEX
  5
58
  8
CUT
 10
28.29621398448944
 20
78.24455375671387
 30
0.0
 70
0
  0
VERTEX
  5
59
  8
CUT
 10
24.692662239074707
 20
76.95518112182617
 30
0.0
 70
0
  0
VERTEX
  5
5A
  8
CUT
 10
24.603948950767517
 20
76.91322288513183
 30
0.0
 70
0
  0
VERTEX
  5
5B
  8
CUT
 10
21.14413070678711
 20
75.27685165405273
 30
0.0
 70
0
  0
VERTEX
  5
5C
  8
CUT
 10
21.059957218170165
 20
75.22639999389648
 30
0.0
 70
0
  0
VERTEX
  5
5D
  8
CUT
 10
17.777191162109375
 20
73.25878524780273
 30
0.0
 70
0
  0
VERTEX
  5
5E
  8
CUT
 10
17.698368120193482
 20
73.20032606124877
 30
0.0
 70
0
  0
VERTEX
  5
5F
  8
CUT
 10
14.624269485473633
 20
70.92041778564453
 30
0.0
 70
0
  0
VERTEX
  5
60
  8
CUT
 10
14.551555967330934
 20
70.85451412200928
 30
0.0
 70
0
  0
VERTEX
  5
61
  8
CUT
 10
11.715728759765625
 20
68.28427124023438
 30
0.0
 70
0
  0
VERTEX
  5
62
  8
CUT
 10
11.649825096130371
 20
68.21155772209167
 30
0.0
 70
0
  0
VERTEX
  5
63
  8
CUT
 10
9.079582214355469
 20
65.37573051452637
 30
0.0
 70
0
  0
VERTEX
  5
64
  8
CUT
 10
9.021123027801515
 20
65.29690747261047
 30
0.0
 70
0
  0
VERTEX
  5
65
  8
CUT
 10
6.741214752197266
 20
62.222808837890625
 30
0.0
 70
0
  0
VERTEX
  5
66
  8
CUT
 10
6.690763092041017
 20
62.138635349273684
 30
0.0
 70
0
  0
VERTEX
  5
67
  8
CUT
 10
4.723148345947266
 20
58.85586929321289
 30
0.0
 70
0
  0
VERTEX
  5
68
  8
CUT
 10
4.681190109252931
 20
58.7671560049057
 30
0.0
 70
0
  0
VERTEX
  5
69
  8
CUT
 10
3.044818878173828
 20
55.30733776092529
 30
0.0
 70
0
  0
VERTEX
  5
6A
  8
CUT
 10
3.011758041381839
 20
55.21493899822235
 30
0.0
 70
0
  0
VERTEX
  5
6B
  8
CUT
 10
1.7223854064941406
 20
51.61138725280762
 30
0.0
 70
0
  0
VERTEX
  5
6C
  8
CUT
 10
1.698540496826169
 20
51.51619288921356
 30
0.0
 70
0
  0
VERTEX
  5
6D
  8
CUT
 10
0.7685890197753906
 20
47.80361270904541
 30
0.0
 70
0
  0
VERTEX
  5
6E
  8
CUT
 10
0.7541895866394057
 20
47.706539529561994
 30
0.0
 70
0
  0
VERTEX
  5
6F
  8
CUT
 10
0.1926116943359375
 20
43.92068552970886
 30
0.0
 70
0
  0
VERTEX
  5
70
  8
CUT
 10
0.18779640197753622
 20
43.82266839146614
 30
0.0
 70
0
  0
VERTEX
  5
71
  8
CUT
 10
0.0
 20
39.99999999999999
 30
0.0
 70
0
  0
VERTEX
  5
72
  8
CUT
 10
0.00481529235840128
 20
39.90198286175727
 30
0.0
 70
0
  0
VERTEX
  5
73
  8
CUT
 10
0.1926116943359375
 20
36.07931447029114
 30
0.0
 70
0
  0
VERTEX
  5
74
  8
CUT
 10
0.2070111274719224
 20
35.98224129080772
 30
0.0
 70
0
  0
VERTEX
  5
75
  8
CUT
 10
0.7685890197753906
 20
32.19638729095459
 30
0.0
 70
0
  0
VERTEX
  5
76
  8
CUT
 10
0.7924339294433622
 20
32.101192927360536
 30
0.0
 70
0
  0
VERTEX
  5
77
  8
CUT
 10
1.7223854064941406
 20
28.388612747192383
 30
0.0
 70
0
  0
VERTEX
  5
78
  8
CUT
 10
1.75544624328613
 20
28.29621398448944
 30
0.0
 70
0
  0
VERTEX
  5
79
  8
CUT
 10
3.044818878173828
 20
24.692662239074707
 30
0.0
 70
0
  0
VERTEX
  5
7A
  8
CUT
 10
3.0867771148681626
 20
24.603948950767517
 30
0.0
 70
0
  0
VERTEX
  5
7B
  8
CUT
 10
4.723148345947266
 20
21.14413070678711
 30
0.0
 70
0
  0
VERTEX
  5
7C
  8
CUT
 10
4.773600006103514
 20
21.059957218170165
 30
0.0
 70
0
  0
VERTEX
  5
7D
  8
CUT
 10
6.741214752197266
 20
17.777191162109375
 30
0.0
 70
0
  0
VERTEX
  5
7E
  8
CUT
 10
6.799673938751219
 20
17.698368120193482
 30
0.0
 70
0
  0
VERTEX
  5
7F
  8
CUT
 10
9.079582214355469
 20
14.624269485473633
 30
0.0
 70
0
  0
VERTEX
  5
80
  8
CUT
 10
9.145485877990723
 20
14.551555967330934
 30
0.0
 70
0
  0
VERTEX
  5
81
  8
CUT
 10
11.715728759765625
 20
11.715728759765625
 30
0.0
 70
0
  0
VERTEX
  5
82
  8
CUT
 10
11.788442277908324
 20
11.649825096130371
 30
0.0
 70
0
  0
VERTEX
  5
83
  8
CUT
 10
14.624269485473633
 20
9.079582214355469
 30
0.0
 70
0
  0
VERTEX
  5
84
  8
CUT
 10
14.703092527389526
 20
9.021123027801515
 30
0.0
 70
0
  0
VERTEX
  5
85
  8
CUT
 10
17.777191162109375
 20
6.741214752197266
 30
0.0
 70
0
  0
VERTEX
  5
86
  8
CUT
 10
17.86136465072632
 20
6.690763092041017
 30
0.0
 70
0
  0
VERTEX
  5
87
  8
CUT
 10
21.14413070678711
 20
4.723148345947266
 30
0.0
 70
0
  0
VERTEX
  5
88
  8
CUT
 10
21.2328439950943
 20
4.681190109252931
 30
0.0
 70
0
  0
VERTEX
  5
89
  8
CUT
 10
24.692662239074707
 20
3.044818878173828
 30
0.0
 70
0
  0
VERTEX
  5
8A
  8
CUT
 10
24.78506100177765
 20
3.011758041381839
 30
0.0
 70
0
  0
VERTEX
  5
8B
  8
CUT
 10
28.388612747192383
 20
1.7223854064941406
 30
0.0
 70
0
  0
VERTEX
  5
8C
  8
CUT
 10
28.483807110786437
 20
1.698540496826169
 30
0.0
 70
0
  0
VERTEX
  5
8D
  8
CUT
 10
32.19638729095459
 20
0.7685890197753906
 30
0.0
 70
0
  0
VERTEX
  5
8E
  8
CUT
 10
32.293460470438006
 20
0.7541895866394057
 30
0.0
 70
0
  0
VERTEX
  5
8F
  8
CUT
 10
36.07931447029114
 20
0.1926116943359375
 30
0.0
 70
0
  0
VERTEX
  5
90
  8
CUT
 10
36.17733160853386
 20
0.18779640197753622
 30
0.0
 70
0
  0
VERTEX
  5
91
  8
CUT
 10
40.00000000000001
 20
0.0
 30
0.0
 70
0
  0
VERTEX
  5
92
  8
CUT
 10
40.098017138242724
 20
0.00481529235840128
 30
0.0
 70
0
  0
VERTEX
  5
93
  8
CUT
 10
43.92068552970886
 20
0.1926116943359375
 30
0.0
 70
0
  0
VERTEX
  5
94
  8
CUT
 10
44.01775870919228
 20
0.2070111274719224
 30
0.0
 70
0
  0
VERTEX
  5
95
  8
CUT
 10
47.80361270904541
 20
0.7685890197753906
 30
0.0
 70
0
  0
VERTEX
  5
96
  8
CUT
 10
47.898807072639464
 20
0.7924339294433622
 30
0.0
 70
0
  0
VERTEX
  5
97
  8
CUT
 10
51.61138725280762
 20
1.7223854064941406
 30
0.0
 70
0
  0
VERTEX
  5
98
  8
CUT
 10
51.70378601551056
 20
1.75544624328613
 30
0.0
 70
0
  0
VERTEX
  5
99
  8
CUT
 10
55.30733776092529
 20
3.044818878173828
 30
0.0
 70
0
  0
VERTEX
  5
9A
  8
CUT
 10
55.39605104923248
 20
3.0867771148681626
 30
0.0
 70
0
  0
VERTEX
  5
9B
  8
CUT
 10
58.85586929321289
 20
4.723148345947266
 30
0.0
 70
0
  0
VERTEX
  5
9C
  8
CUT
 10
58.94004278182983
 20
4.773600006103514
 30
0.0
 70
0
  0
VERTEX
  5
9D
  8
CUT
 10
62.222808837890625
 20
6.741214752197266
 30
0.0
 70
0
  0
VERTEX
  5
9E
  8
CUT
 10
62.30163187980652
 20
6.799673938751219
 30
0.0
 70
0
  0
VERTEX
  5
9F
  8
CUT
 10
65.37573051452637
 20
9.079582214355469
 30
0.0
 70
0
  0
VERTEX
  5
A0
  8
CUT
 10
65.44844403266907
 20
9.145485877990723
 30
0.0
 70
0
  0
VERTEX
  5
A1
  8
CUT
 10
68.28427124023438
 20
11.715728759765625
 30
0.0
 70
0
  0
VERTEX
  5
A2
  8
CUT
 10
68.35017490386963
 20
11.788442277908324
 30
0.0
 70
0
  0
VERTEX
  5
A3
  8
CUT
 10
70.92041778564453
 20
14.624269485473633
 30
0.0
 70
0
  0
VERTEX
  5
A4
  8
CUT
 10
70.97887697219849
 20
14.703092527389526
 30
0.0
 70
0
  0
VERTEX
  5
A5
  8
CUT
 10
73.25878524780273
 20
17.777191162109375
 30
0.0
 70
0
  0
VERTEX
  5
A6
  8
CUT
 10
73.30923690795899
 20
17.86136465072632
 30
0.0
 70
0
  0
VERTEX
  5
A7
  8
CUT
 10
75.27685165405273
 20
21.14413070678711
 30
0.0
 70
0
  0
VERTEX
  5
A8
  8
CUT
 10
75.31880989074708
 20
21.2328439950943
 30
0.0
 70
0
  0
VERTEX
  5
A9
  8
CUT
 10
76.95518112182617
 20
24.692662239074707
 30
0.0
 70
0
  0
VERTEX
  5
AA
  8
CUT
 10
76.98824195861816
 20
24.78506100177765
 30
0.0
 70
0
  0
VERTEX
  5
AB
  8
CUT
 10
78.27761459350586
 20
28.388612747192383
 30
0.0
 70
0
  0
VERTEX
  5
AC
  8
CUT
 10
78.30145950317383
 20
28.483807110786437
 30
0.0
 70
0
  0
VERTEX
  5
AD
  8
CUT
 10
79.23141098022461
 20
32.19638729095459
 30
0.0
 70
0
  0
VERTEX
  5
AE
  8
CUT
 10
79.2458104133606
 20
32.293460470438006
 30
0.0
 70
0
  0
VERTEX
  5
AF
  8
CUT
 10
79.80738830566406
 20
36.07931447029114
 30
0.0
 70
0
  0
VERTEX
  5
B0
  8
CUT
 10
79.81220359802246
 20
36.17733160853386
 30
0.0
 70
0
  0
SEQEND
  5
30
  8
CUT
  0
POLYLINE
  5
B1
  8
CUT
 66
1
 10
0.0
 20
0.0
 30
0.0
 70
1
  0
VERTEX
  5
B3
  8
CUT
 10
33.0
 20
8.0
 30
0.0
 70
0
  0
VERTEX
  5
B4
  8
CUT
 10
32.94235584120969
 20
7.414729033951616
 30
0.0
 70
0
  0
VERTEX
  5
B5
  8
CUT
 10
32.77163859753386
 20
6.851949702904733
 30
0.0
 70
0
  0
VERTEX
  5
B6
  8
CUT
 10
32.49440883690764
 20
6.333289300941196
 30
0.0
 70
0
  0
VERTEX
  5
B7
  8
CUT
 10
32.121320343559645
 20
5.8786796564403545
 30
0.0
 70
0
  0
VERTEX
  5
B8
  8
CUT
 10
31.666710699058807
 20
5.505591163092362
 30
0.0
 70
0
  0
VERTEX
  5
B9
  8
CUT
 10
31.148050297095267
 20
5.228361402466142
 30
0.0
 70
0
  0
VERTEX
  5
BA
  8
CUT
 10
30.585270966048384
 20
5.0576441587903105
 30
0.0
 70
0
  0
VERTEX
  5
BB
  8
CUT
 10
30.0
 20
5.0
 30
0.0
 70
0
  0
VERTEX
  5
BC
  8
CUT
 10
29.414729033951616
 20
5.0576441587903105
 30
0.0
 70
0
  0
VERTEX
  5
BD
  8
CUT
 10
28.851949702904733
 20
5.228361402466142
 30
0.0
 70
0
  0
VERTEX
  5
BE
  8
CUT
 10
28.333289300941196
 20
5.505591163092362
 30
0.0
 70
0
  0
VERTEX
  5
BF
  8
CUT
 10
27.878679656440358
 20
5.8786796564403545
 30
0.0
 70
0
  0
VERTEX
  5
C0
  8
CUT
 10
27.50559116309236
 20
6.333289300941196
 30
0.0
 70
0
  0
VERTEX
  5
C1
  8
CUT
 10
27.228361402466142
 20
6.851949702904733
 30
0.0
 70
0
  0
VERTEX
  5
C2
  8
CUT
 10
27.05764415879031
 20
7.414729033951616
 30
0.0
 70
0
  0
VERTEX
  5
C3
  8
CUT
 10
27.0
 20
8.0
 30
0.0
 70
0
  0
VERTEX
  5
C4
  8
CUT
 10
27.05764415879031
 20
8.585270966048384
 30
0.0
 70
0
  0
VERTEX
  5
C5
  8
CUT
 10
27.228361402466142
 20
9.14805029709527
 30
0.0
 70
0
  0
VERTEX
  5
C6
  8
CUT
 10
27.50559116309236
 20
9.666710699058807
 30
0.0
 70
0
  0
VERTEX
  5
C7
  8
CUT
 10
27.878679656440358
 20
10.121320343559642
 30
0.0
 70
0
  0
VERTEX
  5
C8
  8
CUT
 10
28.333289300941193
 20
10.494408836907635
 30
0.0
 70
0
  0
VERTEX
  5
C9
  8
CUT
 10
28.85194970290473
 20
10.771638597533858
 30
0.0
 70
0
  0
VERTEX
  5
CA
  8
CUT
 10
29.414729033951616
 20
10.94235584120969
 30
0.0
 70
0
  0
VERTEX
  5
CB
  8
CUT
 10
30.0
 20
11.0
 30
0.0
 70
0
  0
VERTEX
  5
CC
  8
CUT
 10
30.585270966048384
 20
10.94235584120969
 30
0.0
 70
0
  0
VERTEX
  5
CD
  8
CUT
 10
31.14805029709527
 20
10.771638597533858
 30
0.0
 70
0
  0
VERTEX
  5
CE
  8
CUT
 10
31.666710699058804
 20
10.494408836907638
 30
0.0
 70
0
  0
VERTEX
  5
CF
  8
CUT
 10
32.121320343559645
 20
10.121320343559642
 30
0.0
 70
0
  0
VERTEX
  5
D0
  8
CUT
 10
32.49440883690764
 20
9.666710699058807
 30
0.0
 70
0
  0
VERTEX
  5
D1
  8
CUT
 10
32.77163859753386
 20
9.14805029709527
 30
0.0
 70
0
  0
VERTEX
  5
D2
  8
CUT
 10
32.94235584120969
 20
8.585270966048387
 30
0.0
 70
0
  0
SEQEND
  5
B2
  8
CUT
  0
POLYLINE
  5
D3
  8
CUT
 66
1
 10
0.0
 20
0.0
 30
0.0
 70
1
  0
VERTEX
  5
D5
  8
CUT
 10
53.0
 20
72.0
 30
0.0
 70
0
  0
VERTEX
  5
D6
  8
CUT
 10
52.94235584120969
 20
71.41472903395162
 30
0.0
 70
0
  0
VERTEX
  5
D7
  8
CUT
 10
52.77163859753386
 20
70.85194970290473
 30
0.0
 70
0
  0
VERTEX
  5
D8
  8
CUT
 10
52.49440883690764
 20
70.33328930094119
 30
0.0
 70
0
  0
VERTEX
  5
D9
  8
CUT
 10
52.121320343559645
 20
69.87867965644035
 30
0.0
 70
0
  0
VERTEX
  5
DA
  8
CUT
 10
51.66671069905881
 20
69.50559116309236
 30
0.0
 70
0
  0
VERTEX
  5
DB
  8
CUT
 10
51.14805029709527
 20
69.22836140246613
 30
0.0
 70
0
  0
VERTEX
  5
DC
  8
CUT
 10
50.585270966048384
 20
69.05764415879031
 30
0.0
 70
0
  0
VERTEX
  5
DD
  8
CUT
 10
50.0
 20
69.0
 30
0.0
 70
0
  0
VERTEX
  5
DE
  8
CUT
 10
49.414729033951616
 20
69.05764415879031
 30
0.0
 70
0
  0
VERTEX
  5
DF
  8
CUT
 10
48.85194970290473
 20
69.22836140246613
 30
0.0
 70
0
  0
VERTEX
  5
E0
  8
CUT
 10
48.333289300941196
 20
69.50559116309236
 30
0.0
 70
0
  0
VERTEX
  5
E1
  8
CUT
 10
47.878679656440355
 20
69.87867965644035
 30
0.0
 70
0
  0
VERTEX
  5
E2
  8
CUT
 10
47.50559116309236
 20
70.33328930094119
 30
0.0
 70
0
  0
VERTEX
  5
E3
  8
CUT
 10
47.22836140246614
 20
70.85194970290473
 30
0.0
 70
0
  0
VERTEX
  5
E4
  8
CUT
 10
47.05764415879031
 20
71.41472903395162
 30
0.0
 70
0
  0
VERTEX
  5
E5
  8
CUT
 10
47.0
 20
72.0
 30
0.0
 70
0
  0
VERTEX
  5
E6
  8
CUT
 10
47.05764415879031
 20
72.58527096604838
 30
0.0
 70
0
  0
VERTEX
  5
E7
  8
CUT
 10
47.22836140246614
 20
73.14805029709527
 30
0.0
 70
0
  0
VERTEX
  5
E8
  8
CUT
 10
47.50559116309236
 20
73.6667106990588
 30
0.0
 70
0
  0
VERTEX
  5
E9
  8
CUT
 10
47.878679656440355
 20
74.12132034355965
 30
0.0
 70
0
  0
VERTEX
  5
EA
  8
CUT
 10
48.33328930094119
 20
74.49440883690764
 30
0.0
 70
0
  0
VERTEX
  5
EB
  8
CUT
 10
48.85194970290473
 20
74.77163859753387
 30
0.0
 70
0
  0
VERTEX
  5
EC
  8
CUT
 10
49.414729033951616
 20
74.94235584120969
 30
0.0
 70
0
  0
VERTEX
  5
ED
  8
CUT
 10
50.0
 20
75.0
 30
0.0
 70
0
  0
VERTEX
  5
EE
  8
CUT
 10
50.585270966048384
 20
74.94235584120969
 30
0.0
 70
0
  0
VERTEX
  5
EF
  8
CUT
 10
51.14805029709527
 20
74.77163859753387
 30
0.0
 70
0
  0
VERTEX
  5
F0
  8
CUT
 10
51.666710699058804
 20
74.49440883690764
 30
0.0
 70
0
  0
VERTEX
  5
F1
  8
CUT
 10
52.121320343559645
 20
74.12132034355965
 30
0.0
 70
0
  0
VERTEX
  5
F2
  8
CUT
 10
52.49440883690764
 20
73.6667106990588
 30
0.0
 70
0
  0
VERTEX
  5
F3
  8
CUT
 10
52.77163859753386
 20
73.14805029709527
 30
0.0
 70
0
  0
VERTEX
  5
F4
  8
CUT
 10
52.94235584120969
 20
72.58527096604838
 30
0.0
 70
0
  0
SEQEND
  5
D4
  8
CUT
  0
POLYLINE
  5
F5
  8
CUT
 66
1
 10
0.0
 20
0.0
 30
0.0
 70
1
  0
VERTEX
  5
F7
  8
CUT
 10
75.0
 20
30.0
 30
0.0
 70
0
  0
VERTEX
  5
F8
  8
CUT
 10
74.94235584120969
 20
29.414729033951616
 30
0.0
 70
0
  0
VERTEX
  5
F9
  8
CUT
 10
74.77163859753387
 20
28.851949702904733
 30
0.0
 70
0
  0
VERTEX
  5
FA
  8
CUT
 10
74.49440883690764
 20
28.333289300941193
 30
0.0
 70
0
  0
VERTEX
  5
FB
  8
CUT
 10
74.12132034355965
 20
27.878679656440358
 30
0.0
 70
0
  0
VERTEX
  5
FC
  8
CUT
 10
73.6667106990588
 20
27.505591163092365
 30
0.0
 70
0
  0
VERTEX
  5
FD
  8
CUT
 10
73.14805029709527
 20
27.228361402466142
 30
0.0
 70
0
  0
VERTEX
  5
FE
  8
CUT
 10
72.58527096604838
 20
27.05764415879031
 30
0.0
 70
0
  0
VERTEX
  5
FF
  8
CUT
 10
72.0
 20
27.0
 30
0.0
 70
0
  0
VERTEX
  5
100
  8
CUT
 10
71.41472903395162
 20
27.05764415879031
 30
0.0
 70
0
  0
VERTEX
  5
101
  8
CUT
 10
70.85194970290473
 20
27.228361402466142
 30
0.0
 70
0
  0
VERTEX
  5
102
  8
CUT
 10
70.33328930094119
 20
27.50559116309236
 30
0.0
 70
0
  0
VERTEX
  5
103
  8
CUT
 10
69.87867965644035
 20
27.878679656440358
 30
0.0
 70
0
  0
VERTEX
  5
104
  8
CUT
 10
69.50559116309236
 20
28.333289300941193
 30
0.0
 70
0
  0
VERTEX
  5
105
  8
CUT
 10
69.22836140246613
 20
28.85194970290473
 30
0.0
 70
0
  0
VERTEX
  5
106
  8
CUT
 10
69.05764415879031
 20
29.414729033951616
 30
0.0
 70
0
  0
VERTEX
  5
107
  8
CUT
 10
69.0
 20
30.0
 30
0.0
 70
0
  0
VERTEX
  5
108
  8
CUT
 10
69.05764415879031
 20
30.585270966048384
 30
0.0
 70
0
  0
VERTEX
  5
109
  8
CUT
 10
69.22836140246613
 20
31.148050297095267
 30
0.0
 70
0
  0
VERTEX
  5
10A
  8
CUT
 10
69.50559116309236
 20
31.666710699058804
 30
0.0
 70
0
  0
VERTEX
  5
10B
  8
CUT
 10
69.87867965644035
 20
32.121320343559645
 30
0.0
 70
0
  0
VERTEX
  5
10C
  8
CUT
 10
70.33328930094119
 20
32.49440883690764
 30
0.0
 70
0
  0
VERTEX
  5
10D
  8
CUT
 10
70.85194970290473
 20
32.77163859753386
 30
0.0
 70
0
  0
VERTEX
  5
10E
  8
CUT
 10
71.41472903395162
 20
32.94235584120969
 30
0.0
 70
0
  0
VERTEX
  5
10F
  8
CUT
 10
72.0
 20
33.0
 30
0.0
 70
0
  0
VERTEX
  5
110
  8
CUT
 10
72.58527096604838
 20
32.94235584120969
 30
0.0
 70
0
  0
VERTEX
  5
111
  8
CUT
 10
73.14805029709527
 20
32.77163859753386
 30
0.0
 70
0
  0
VERTEX
  5
112
  8
CUT
 10
73.6667106990588
 20
32.49440883690764
 30
0.0
 70
0
  0
VERTEX
  5
113
  8
CUT
 10
74.12132034355965
 20
32.121320343559645
 30
0.0
 70
0
  0
VERTEX
  5
114
  8
CUT
 10
74.49440883690764
 20
31.666710699058807
 30
0.0
 70
0
  0
VERTEX
  5
115
  8
CUT
 10
74.77163859753387
 20
31.14805029709527
 30
0.0
 70
0
  0
VERTEX
  5
116
  8
CUT
 10
74.94235584120969
 20
30.585270966048384
 30
0.0
 70
0
  0
SEQEND
  5
F6
  8
CUT
  0
POLYLINE
  5
117
  8
ENGRAVE
 66
1
 10
0.0
 20
0.0
 30
0.0
 70
0
  0
VERTEX
  5
119
  8
ENGRAVE
 10
55.0
 20
71.0
 30
0.0
 70
0
  0
VERTEX
  5
11A
  8
ENGRAVE
 10
60.0
 20
71.0
 30
0.0
 70
0
  0
SEQEND
  5
118
  8
ENGRAVE
  0
POLYLINE
  5
11B
  8
ENGRAVE
 66
1
 10
0.0
 20
0.0
 30
0.0
 70
0
  0
VERTEX
  5
11D
  8
ENGRAVE
 10
60.0
 20
71.0
 30
0.0
 70
0
  0
VERTEX
  5
11E
  8
ENGRAVE
 10
65.0
 20
71.0
 30
0.0
 70
0
  0
SEQEND
  5
11C
  8
ENGRAVE
  0
POLYLINE
  5
11F
  8
CUT
 66
1
 10
0.0
 20
0.0
 30
0.0
 70
1
  0
VERTEX
  5
121
  8
CUT
 10
160.2
 20
40.0
 30
0.0
 70
0
  0
VERTEX
  5
122
  8
CUT
 10
160.1855541229248
 20
40.294051414728166
 30
0.0
 70
0
  0
VERTEX
  5
123
  8
CUT
 10
160.00738830566405
 20
43.92068552970886
 30
0.0
 70
0
  0
VERTEX
  5
124
  8
CUT
 10
159.9641900062561
 20
44.211905068159105
 30
0.0
 70
0
  0
VERTEX
  5
125
  8
CUT
 10
159.4314109802246
 20
47.80361270904541
 30
0.0
 70
0
  0
VERTEX
  5
126
  8
CUT
 10
159.3598762512207
 20
48.08919579982758
 30
0.0
 70
0
  0
VERTEX
  5
127
  8
CUT
 10
158.47761459350585
 20
51.61138725280762
 30
0.0
 70
0
  0
VERTEX
  5
128
  8
CUT
 10
158.3784320831299
 20
51.88858354091644
 30
0.0
 70
0
  0
VERTEX
  5
129
  8
CUT
 10
157.15518112182616
 20
55.30733776092529
 30
0.0
 70
0
  0
VERTEX
  5
12A
  8
CUT
 10
157.02930641174316
 20
55.57347762584686
 30
0.0
 70
0
  0
VERTEX
  5
12B
  8
CUT
 10
155.47685165405272
 20
58.85586929321289
 30
0.0
 70
0
  0
VERTEX
  5
12C
  8
CUT
 10
155.32549667358398
 20
59.10838975906372
 30
0.0
 70
0
  0
VERTEX
  5
12D
  8
CUT
 10
153.45878524780272
 20
62.222808837890625
 30
0.0
 70
0
  0
VERTEX
  5
12E
  8
CUT
 10
153.28340768814087
 20
62.45927796363831
 30
0.0
 70
0
  0
VERTEX
  5
12F
  8
CUT
 10
151.12041778564452
 20
65.37573051452637
 30
0.0
 70
0
  0
VERTEX
  5
130
  8
CUT
 10
150.92270679473876
 20
65.59387106895447
 30
0.0
 70
0
  0
VERTEX
  5
131
  8
CUT
 10
148.48427124023436
 20
68.28427124023438
 30
0.0
 70
0
  0
VERTEX
  5
132
  8
CUT
 10
148.26613068580627
 20
68.48198223114014
 30
0.0
 70
0
  0
VERTEX
  5
133
  8
CUT
 10
145.57573051452636
 20
70.92041778564453
 30
0.0
 70
0
  0
VERTEX
  5
134
  8
CUT
 10
145.33926138877868
 20
71.0957953453064
 30
0.0
 70
0
  0
VERTEX
  5
135
  8
CUT
 10
142.4228088378906
 20
73.25878524780273
 30
0.0
 70
0
  0
VERTEX
  5
136
  8
CUT
 10
142.1702883720398
 20
73.41014022827149
 30
0.0
 70
0
  0
VERTEX
  5
137
  8
CUT
 10
139.05586929321288
 20
75.27685165405273
 30
0.0
 70
0
  0
VERTEX
  5
138
  8
CUT
 10
138.7897294282913
 20
75.40272636413575
 30
0.0
 70
0
  0
VERTEX
  5
139
  8
CUT
 10
135.50733776092528
 20
76.95518112182617
 30
0.0
 70
0
  0
VERTEX
  5
13A
  8
CUT
 10
135.23014147281646
 20
77.05436363220215
 30
0.0
 70
0
  0
VERTEX
  5
13B
  8
CUT
 10
131.8113872528076
 20
78.27761459350586
 30
0.0
 70
0
  0
VERTEX
  5
13C
  8
CUT
 10
131.52580416202545
 20
78.34914932250976
 30
0.0
 70
0
  0
VERTEX
  5
13D
  8
CUT
 10
128.0036127090454
 20
79.23141098022461
 30
0.0
 70
0
  0
VERTEX
  5
13E
  8
CUT
 10
127.71239317059518
 20
79.27460927963257
 30
0.0
 70
0
  0
VERTEX
  5
13F
  8
CUT
 10
124.12068552970887
 20
79.80738830566406
 30
0.0
 70
0
  0
VERTEX
  5
140
  8
CUT
 10
123.8266341149807
 20
79.82183418273925
 30
0.0
 70
0
  0
VERTEX
  5
141
  8
CUT
 10
120.2
 20
80.0
 30
0.0
 70
0
  0
VERTEX
  5
142
  8
CUT
 10
119.90594858527184
 20
79.98555412292481
 30
0.0
 70
0
  0
VERTEX
  5
143
  8
CUT
 10
116.27931447029114
 20
79.80738830566406
 30
0.0
 70
0
  0
VERTEX
  5
144
  8
CUT
 10
115.9880949318409
 20
79.7641900062561
 30
0.0
 70
0
  0
VERTEX
  5
145
  8
CUT
 10
112.39638729095459
 20
79.23141098022461
 30
0.0
 70
0
  0
VERTEX
  5
146
  8
CUT
 10
112.11080420017242
 20
79.15987625122071
 30
0.0
 70
0
  0
VERTEX
  5
147
  8
CUT
 10
108.58861274719239
 20
78.27761459350586
 30
0.0
 70
0
  0
VERTEX
  5
148
  8
CUT
 10
108.31141645908356
 20
78.17843208312988
 30
0.0
 70
0
  0
VERTEX
  5
149
  8
CUT
 10
104.89266223907471
 20
76.95518112182617
 30
0.0
 70
0
  0
VERTEX
  5
14A
  8
CUT
 10
104.62652237415314
 20
76.82930641174316
 30
0.0
 70
0
  0
VERTEX
  5
14B
  8
CUT
 10
101.34413070678711
 20
75.27685165405273
 30
0.0
 70
0
  0
VERTEX
  5
14C
  8
CUT
 10
101.09161024093629
 20
75.12549667358398
 30
0.0
 70
0
  0
VERTEX
  5
14D
  8
CUT
 10
97.97719116210938
 20
73.25878524780273
 30
0.0
 70
0
  0
VERTEX
  5
14E
  8
CUT
 10
97.74072203636169
 20
73.08340768814087
 30
0.0
 70
0
  0
VERTEX
  5
14F
  8
CUT
 10
94.82426948547364
 20
70.92041778564453
 30
0.0
 70
0
  0
VERTEX
  5
150
  8
CUT
 10
94.60612893104553
 20
70.72270679473877
 30
0.0
 70
0
  0
VERTEX
  5
151
  8
CUT
 10
91.91572875976563
 20
68.28427124023438
 30
0.0
 70
0
  0
VERTEX
  5
152
  8
CUT
 10
91.71801776885987
 20
68.06613068580627
 30
0.0
 70
0
  0
VERTEX
  5
153
  8
CUT
 10
89.27958221435547
 20
65.37573051452637
 30
0.0
 70
0
  0
VERTEX
  5
154
  8
CUT
 10
89.1042046546936
 20
65.13926138877869
 30
0.0
 70
0
  0
VERTEX
  5
155
  8
CUT
 10
86.94121475219727
 20
62.222808837890625
 30
0.0
 70
0
  0
VERTEX
  5
156
  8
CUT
 10
86.78985977172852
 20
61.970288372039796
 30
0.0
 70
0
  0
VERTEX
  5
157
  8
CUT
 10
84.92314834594727
 20
58.85586929321289
 30
0.0
 70
0
  0
VERTEX
  5
158
  8
CUT
 10
84.79727363586426
 20
58.58972942829132
 30
0.0
 70
0
  0
VERTEX
  5
159
  8
CUT
 10
83.24481887817383
 20
55.30733776092529
 30
0.0
 70
0
  0
VERTEX
  5
15A
  8
CUT
 10
83.14563636779786
 20
55.03014147281647
 30
0.0
 70
0
  0
VERTEX
  5
15B
  8
CUT
 10
81.92238540649414
 20
51.61138725280762
 30
0.0
 70
0
  0
VERTEX
  5
15C
  8
CUT
 10
81.85085067749023
 20
51.32580416202545
 30
0.0
 70
0
  0
VERTEX
  5
15D
  8
CUT
 10
80.9685890197754
 20
47.80361270904541
 30
0.0
 70
0
  0
VERTEX
  5
15E
  8
CUT
 10
80.92539072036743
 20
47.51239317059517
 30
0.0
 70
0
  0
VERTEX
  5
15F
  8
CUT
 10
80.39261169433594
 20
43.92068552970886
 30
0.0
 70
0
  0
VERTEX
  5
160
  8
CUT
 10
80.37816581726074
 20
43.626634114980696
 30
0.0
 70
0
  0
VERTEX
  5
161
  8
CUT
 10
80.2
 20
39.99999999999999
 30
0.0
 70
0
  0
VERTEX
  5
162
  8
CUT
 10
80.2144458770752
 20
39.70594858527183
 30
0.0
 70
0
  0
VERTEX
  5
163
  8
CUT
 10
80.39261169433594
 20
36.07931447029114
 30
0.0
 70
0
  0
VERTEX
  5
164
  8
CUT
 10
80.4358099937439
 20
35.788094931840895
 30
0.0
 70
0
  0
VERTEX
  5
165
  8
CUT
 10
80.9685890197754
 20
32.19638729095459
 30
0.0
 70
0
  0
VERTEX
  5
166
  8
CUT
 10
81.04012374877931
 20
31.91080420017242
 30
0.0
 70
0
  0
VERTEX
  5
167
  8
CUT
 10
81.92238540649414
 20
28.388612747192383
 30
0.0
 70
0
  0
VERTEX
  5
168
  8
CUT
 10
82.02156791687011
 20
28.111416459083557
 30
0.0
 70
0
  0
VERTEX
  5
169
  8
CUT
 10
83.24481887817383
 20
24.692662239074707
 30
0.0
 70
0
  0
VERTEX
  5
16A
  8
CUT
 10
83.37069358825684
 20
24.426522374153137
 30
0.0
 70
0
  0
VERTEX
  5
16B
  8
CUT
 10
84.92314834594727
 20
21.14413070678711
 30
0.0
 70
0
  0
VERTEX
  5
16C
  8
CUT
 10
85.07450332641602
 20
20.89161024093628
 30
0.0
 70
0
  0
VERTEX
  5
16D
  8
CUT
 10
86.94121475219727
 20
17.777191162109375
 30
0.0
 70
0
  0
VERTEX
  5
16E
  8
CUT
 10
87.11659231185914
 20
17.540722036361693
 30
0.0
 70
0
  0
VERTEX
  5
16F
  8
CUT
 10
89.27958221435547
 20
14.624269485473633
 30
0.0
 70
0
  0
VERTEX
  5
170
  8
CUT
 10
89.47729320526123
 20
14.406128931045533
 30
0.0
 70
0
  0
VERTEX
  5
171
  8
CUT
 10
91.91572875976563
 20
11.715728759765625
 30
0.0
 70
0
  0
VERTEX
  5
172
  8
CUT
 10
92.13386931419373
 20
11.518017768859863
 30
0.0
 70
0
  0
VERTEX
  5
173
  8
CUT
 10
94.82426948547364
 20
9.079582214355469
 30
0.0
 70
0
  0
VERTEX
  5
174
  8
CUT
 10
95.06073861122132
 20
8.904204654693604
 30
0.0
 70
0
  0
VERTEX
  5
175
  8
CUT
 10
97.97719116210938
 20
6.741214752197266
 30
0.0
 70
0
  0
VERTEX
  5
176
  8
CUT
 10
98.2297116279602
 20
6.589859771728513
 30
0.0
 70
0
  0
VERTEX
  5
177
  8
CUT
 10
101.34413070678711
 20
4.723148345947266
 30
0.0
 70
0
  0
VERTEX
  5
178
  8
CUT
 10
101.61027057170868
 20
4.597273635864255
 30
0.0
 70
0
  0
VERTEX
  5
179
  8
CUT
 10
104.89266223907471
 20
3.044818878173828
 30
0.0
 70
0
  0
VERTEX
  5
17A
  8
CUT
 10
105.16985852718354
 20
2.945636367797853
 30
0.0
 70
0
  0
VERTEX
  5
17B
  8
CUT
 10
108.58861274719239
 20
1.7223854064941406
 30
0.0
 70
0
  0
VERTEX
  5
17C
  8
CUT
 10
108.87419583797455
 20
1.650850677490233
 30
0.0
 70
0
  0
VERTEX
  5
17D
  8
CUT
 10
112.39638729095459
 20
0.7685890197753906
 30
0.0
 70
0
  0
VERTEX
  5
17E
  8
CUT
 10
112.68760682940483
 20
0.7253907203674288
 30
0.0
 70
0
  0
VERTEX
  5
17F
  8
CUT
 10
116.27931447029114
 20
0.1926116943359375
 30
0.0
 70
0
  0
VERTEX
  5
180
  8
CUT
 10
116.5733658850193
 20
0.17816581726074077
 30
0.0
 70
0
  0
VERTEX
  5
181
  8
CUT
 10
120.2
 20
0.0
 30
0.0
 70
0
  0
VERTEX
  5
182
  8
CUT
 10
120.49405141472818
 20
0.014445877075196734
 30
0.0
 70
0
  0
VERTEX
  5
183
  8
CUT
 10
124.12068552970887
 20
0.1926116943359375
 30
0.0
 70
0
  0
VERTEX
  5
184
  8
CUT
 10
124.4119050681591
 20
0.23580999374389933
 30
0.0
 70
0
  0
VERTEX
  5
185
  8
CUT
 10
128.0036127090454
 20
0.7685890197753906
 30
0.0
 70
0
  0
VERTEX
  5
186
  8
CUT
 10
128.28919579982758
 20
0.8401237487792983
 30
0.0
 70
0
  0
VERTEX
  5
187
  8
CUT
 10
131.8113872528076
 20
1.7223854064941406
 30
0.0
 70
0
  0
VERTEX
  5
188
  8
CUT
 10
132.08858354091643
 20
1.8215679168701158
 30
0.0
 70
0
  0
VERTEX
  5
189
  8
CUT
 10
135.50733776092528
 20
3.044818878173828
 30
0.0
 70
0
  0
VERTEX
  5
18A
  8
CUT
 10
135.77347762584685
 20
3.170693588256839
 30
0.0
 70
0
  0
VERTEX
  5
18B
  8
CUT
 10
139.05586929321288
 20
4.723148345947266
 30
0.0
 70
0
  0
VERTEX
  5
18C
  8
CUT
 10
139.30838975906372
 20
4.8745033264160185
 30
0.0
 70
0
  0
VERTEX
  5
18D
  8
CUT
 10
142.4228088378906
 20
6.741214752197266
 30
0.0
 70
0
  0
VERTEX
  5
18E
  8
CUT
 10
142.65927796363832
 20
6.916592311859134
 30
0.0
 70
0
  0
VERTEX
  5
18F
  8
CUT
 10
145.57573051452636
 20
9.079582214355469
 30
0.0
 70
0
  0
VERTEX
  5
190
  8
CUT
 10
145.79387106895447
 20
9.27729320526123
 30
0.0
 70
0
  0
VERTEX
  5
191
  8
CUT
 10
148.48427124023436
 20
11.715728759765625
 30
0.0
 70
0
  0
VERTEX
  5
192
  8
CUT
 10
148.68198223114013
 20
11.933869314193725
 30
0.0
 70
0
  0
VERTEX
  5
193
  8
CUT
 10
151.12041778564452
 20
14.624269485473633
 30
0.0
 70
0
  0
VERTEX
  5
194
  8
CUT
 10
151.2957953453064
 20
14.860738611221315
 30
0.0
 70
0
  0
VERTEX
  5
195
  8
CUT
 10
153.45878524780272
 20
17.777191162109375
 30
0.0
 70
0
  0
VERTEX
  5
196
  8
CUT
 10
153.6101402282715
 20
18.029711627960204
 30
0.0
 70
0
  0
VERTEX
  5
197
  8
CUT
 10
155.47685165405272
 20
21.14413070678711
 30
0.0
 70
0
  0
VERTEX
  5
198
  8
CUT
 10
155.60272636413575
 20
21.41027057170868
 30
0.0
 70
0
  0
VERTEX
  5
199
  8
CUT
 10
157.15518112182616
 20
24.692662239074707
 30
0.0
 70
0
  0
VERTEX
  5
19A
  8
CUT
 10
157.25436363220214
 20
24.969858527183533
 30
0.0
 70
0
  0
VERTEX
  5
19B
  8
CUT
 10
158.47761459350585
 20
28.388612747192383
 30
0.0
 70
0
  0
VERTEX
  5
19C
  8
CUT
 10
158.54914932250978
 20
28.67419583797455
 30
0.0
 70
0
  0
VERTEX
  5
19D
  8
CUT
 10
159.4314109802246
 20
32.19638729095459
 30
0.0
 70
0
  0
VERTEX
  5
19E
  8
CUT
 10
159.47460927963257
 20
32.48760682940483
 30
0.0
 70
0
  0
VERTEX
  5
19F
  8
CUT
 10
160.00738830566405
 20
36.07931447029114
 30
0.0
 70
0
  0
VERTEX
  5
1A0
  8
CUT
 10
160.02183418273927
 20
36.373365885019304
 30
0.0
 70
0
  0
SEQEND
  5
120
  8
CUT
  0
POLYLINE
  5
1A1
  8
CUT
 66
1
 10
0.0
 20
0.0
 30
0.0
 70
1
  0
VERTEX
  5
1A3
  8
CUT
 10
113.2
 20
8.000000000000004
 30
0.0
 70
0
  0
VERTEX
  5
1A4
  8
CUT
 10
113.14235584120969
 20
7.414729033951616
 30
0.0
 70
0
  0
VERTEX
  5
1A5
  8
CUT
 10
112.97163859753387
 20
6.851949702904733
 30
0.0
 70
0
  0
VERTEX
  5
1A6
  8
CUT
 10
112.69440883690764
 20
6.333289300941196
 30
0.0
 70
0
  0
VERTEX
  5
1A7
  8
CUT
 10
112.32132034355965
 20
5.8786796564403545
 30
0.0
 70
0
  0
VERTEX
  5
1A8
  8
CUT
 10
111.86671069905881
 20
5.505591163092362
 30
0.0
 70
0
  0
VERTEX
  5
1A9
  8
CUT
 10
111.34805029709527
 20
5.228361402466142
 30
0.0
 70
0
  0
VERTEX
  5
1AA
  8
CUT
 10
110.78527096604839
 20
5.0576441587903105
 30
0.0
 70
0
  0
VERTEX
  5
1AB
  8
CUT
 10
110.2
 20
5.0
 30
0.0
 70
0
  0
VERTEX
  5
1AC
  8
CUT
 10
109.61472903395162
 20
5.0576441587903105
 30
0.0
 70
0
  0
VERTEX
  5
1AD
  8
CUT
 10
109.05194970290474
 20
5.228361402466142
 30
0.0
 70
0
  0
VERTEX
  5
1AE
  8
CUT
 10
108.53328930094119
 20
5.505591163092362
 30
0.0
 70
0
  0
VERTEX
  5
1AF
  8
CUT
 10
108.07867965644036
 20
5.8786796564403545
 30
0.0
 70
0
  0
VERTEX
  5
1B0
  8
CUT
 10
107.70559116309236
 20
6.333289300941196
 30
0.0
 70
0
  0
VERTEX
  5
1B1
  8
CUT
 10
107.42836140246614
 20
6.851949702904733
 30
0.0
 70
0
  0
VERTEX
  5
1B2
  8
CUT
 10
107.25764415879031
 20
7.414729033951616
 30
0.0
 70
0
  0
VERTEX
  5
1B3
  8
CUT
 10
107.2
 20
8.000000000000004
 30
0.0
 70
0
  0
VERTEX
  5
1B4
  8
CUT
 10
107.25764415879031
 20
8.585270966048384
 30
0.0
 70
0
  0
VERTEX
  5
1B5
  8
CUT
 10
107.42836140246614
 20
9.14805029709527
 30
0.0
 70
0
  0
VERTEX
  5
1B6
  8
CUT
 10
107.70559116309236
 20
9.666710699058807
 30
0.0
 70
0
  0
VERTEX
  5
1B7
  8
CUT
 10
108.07867965644036
 20
10.121320343559642
 30
0.0
 70
0
  0
VERTEX
  5
1B8
  8
CUT
 10
108.53328930094119
 20
10.494408836907635
 30
0.0
 70
0
  0
VERTEX
  5
1B9
  8
CUT
 10
109.05194970290474
 20
10.771638597533858
 30
0.0
 70
0
  0
VERTEX
  5
1BA
  8
CUT
 10
109.61472903395162
 20
10.94235584120969
 30
0.0
 70
0
  0
VERTEX
  5
1BB
  8
CUT
 10
110.2
 20
11.0
 30
0.0
 70
0
  0
VERTEX
  5
1BC
  8
CUT
 10
110.78527096604839
 20
10.94235584120969
 30
0.0
 70
0
  0
VERTEX
  5
1BD
  8
CUT
 10
111.34805029709527
 20
10.771638597533858
 30
0.0
 70
0
  0
VERTEX
  5
1BE
  8
CUT
 10
111.86671069905881
 20
10.494408836907638
 30
0.0
 70
0
  0
VERTEX
  5
1BF
  8
CUT
 10
112.32132034355965
 20
10.121320343559642
 30
0.0
 70
0
  0
VERTEX
  5
1C0
  8
CUT
 10
112.69440883690764
 20
9.666710699058807
 30
0.0
 70
0
  0
VERTEX
  5
1C1
  8
CUT
 10
112.97163859753387
 20
9.14805029709527
 30
0.0
 70
0
  0
VERTEX
  5
1C2
  8
CUT
 10
113.14235584120969
 20
8.585270966048387
 30
0.0
 70
0
  0
SEQEND
  5
1A2
  8
CUT
  0
POLYLINE
  5
1C3
  8
CUT
 66
1
 10
0.0
 20
0.0
 30
0.0
 70
1
  0
VERTEX
  5
1C5
  8
CUT
 10
133.2
 20
72.0
 30
0.0
 70
0
  0
VERTEX
  5
1C6
  8
CUT
 10
133.1423558412097
 20
71.41472903395162
 30
0.0
 70
0
  0
VERTEX
  5
1C7
  8
CUT
 10
132.97163859753385
 20
70.85194970290473
 30
0.0
 70
0
  0
VERTEX
  5
1C8
  8
CUT
 10
132.69440883690763
 20
70.33328930094119
 30
0.0
 70
0
  0
VERTEX
  5
1C9
  8
CUT
 10
132.32132034355965
 20
69.87867965644035
 30
0.0
 70
0
  0
VERTEX
  5
1CA
  8
CUT
 10
131.8667106990588
 20
69.50559116309236
 30
0.0
 70
0
  0
VERTEX
  5
1CB
  8
CUT
 10
131.34805029709528
 20
69.22836140246613
 30
0.0
 70
0
  0
VERTEX
  5
1CC
  8
CUT
 10
130.7852709660484
 20
69.05764415879031
 30
0.0
 70
0
  0
VERTEX
  5
1CD
  8
CUT
 10
130.2
 20
69.0
 30
0.0
 70
0
  0
VERTEX
  5
1CE
  8
CUT
 10
129.61472903395162
 20
69.05764415879031
 30
0.0
 70
0
  0
VERTEX
  5
1CF
  8
CUT
 10
129.05194970290472
 20
69.22836140246613
 30
0.0
 70
0
  0
VERTEX
  5
1D0
  8
CUT
 10
128.5332893009412
 20
69.50559116309236
 30
0.0
 70
0
  0
VERTEX
  5
1D1
  8
CUT
 10
128.07867965644036
 20
69.87867965644035
 30
0.0
 70
0
  0
VERTEX
  5
1D2
  8
CUT
 10
127.70559116309236
 20
70.33328930094119
 30
0.0
 70
0
  0
VERTEX
  5
1D3
  8
CUT
 10
127.42836140246614
 20
70.85194970290473
 30
0.0
 70
0
  0
VERTEX
  5
1D4
  8
CUT
 10
127.25764415879031
 20
71.41472903395162
 30
0.0
 70
0
  0
VERTEX
  5
1D5
  8
CUT
 10
127.2
 20
72.0
 30
0.0
 70
0
  0
VERTEX
  5
1D6
  8
CUT
 10
127.25764415879031
 20
72.58527096604838
 30
0.0
 70
0
  0
VERTEX
  5
1D7
  8
CUT
 10
127.42836140246614
 20
73.14805029709527
 30
0.0
 70
0
  0
VERTEX
  5
1D8
  8
CUT
 10
127.70559116309236
 20
73.6667106990588
 30
0.0
 70
0
  0
VERTEX
  5
1D9
  8
CUT
 10
128.07867965644036
 20
74.12132034355965
 30
0.0
 70
0
  0
VERTEX
  5
1DA
  8
CUT
 10
128.5332893009412
 20
74.49440883690764
 30
0.0
 70
0
  0
VERTEX
  5
1DB
  8
CUT
 10
129.05194970290472
 20
74.77163859753387
 30
0.0
 70
0
  0
VERTEX
  5
1DC
  8
CUT
 10
129.61472903395162
 20
74.94235584120969
 30
0.0
 70
0
  0
VERTEX
  5
1DD
  8
CUT
 10
130.2
 20
75.0
 30
0.0
 70
0
  0
VERTEX
  5
1DE
  8
CUT
 10
130.7852709660484
 20
74.94235584120969
 30
0.0
 70
0
  0
VERTEX
  5
1DF
  8
CUT
 10
131.34805029709528
 20
74.77163859753387
 30
0.0
 70
0
  0
VERTEX
  5
1E0
  8
CUT
 10
131.8667106990588
 20
74.49440883690764
 30
0.0
 70
0
  0
VERTEX
  5
1E1
  8
CUT
 10
132.32132034355965
 20
74.12132034355965
 30
0.0
 70
0
  0
VERTEX
  5
1E2
  8
CUT
 10
132.69440883690763
 20
73.6667106990588
 30
0.0
 70
0
  0
VERTEX
  5
1E3
  8
CUT
 10
132.97163859753385
 20
73.14805029709527
 30
0.0
 70
0
  0
VERTEX
  5
1E4
  8
CUT
 10
133.1423558412097
 20
72.58527096604838
 30
0.0
 70
0
  0
SEQEND
  5
1C4
  8
CUT
  0
POLYLINE
  5
1E5
  8
CUT
 66
1
 10
0.0
 20
0.0
 30
0.0
 70
1
  0
VERTEX
  5
1E7
  8
CUT
 10
155.2
 20
30.0
 30
0.0
 70
0
  0
VERTEX
  5
1E8
  8
CUT
 10
155.14235584120968
 20
29.414729033951616
 30
0.0
 70
0
  0
VERTEX
  5
1E9
  8
CUT
 10
154.97163859753385
 20
28.851949702904733
 30
0.0
 70
0
  0
VERTEX
  5
1EA
  8
CUT
 10
154.69440883690766
 20
28.333289300941193
 30
0.0
 70
0
  0
VERTEX
  5
1EB
  8
CUT
 10
154.32132034355965
 20
27.878679656440358
 30
0.0
 70
0
  0
VERTEX
  5
1EC
  8
CUT
 10
153.8667106990588
 20
27.505591163092365
 30
0.0
 70
0
  0
VERTEX
  5
1ED
  8
CUT
 10
153.34805029709526
 20
27.228361402466142
 30
0.0
 70
0
  0
VERTEX
  5
1EE
  8
CUT
 10
152.7852709660484
 20
27.05764415879031
 30
0.0
 70
0
  0
VERTEX
  5
1EF
  8
CUT
 10
152.2
 20
27.0
 30
0.0
 70
0
  0
VERTEX
  5
1F0
  8
CUT
 10
151.61472903395162
 20
27.05764415879031
 30
0.0
 70
0
  0
VERTEX
  5
1F1
  8
CUT
 10
151.05194970290472
 20
27.228361402466142
 30
0.0
 70
0
  0
VERTEX
  5
1F2
  8
CUT
 10
150.5332893009412
 20
27.50559116309236
 30
0.0
 70
0
  0
VERTEX
  5
1F3
  8
CUT
 10
150.07867965644036
 20
27.878679656440358
 30
0.0
 70
0
  0
VERTEX
  5
1F4
  8
CUT
 10
149.70559116309238
 20
28.333289300941193
 30
0.0
 70
0
  0
VERTEX
  5
1F5
  8
CUT
 10
149.42836140246615
 20
28.85194970290473
 30
0.0
 70
0
  0
VERTEX
  5
1F6
  8
CUT
 10
149.2576441587903
 20
29.414729033951616
 30
0.0
 70
0
  0
VERTEX
  5
1F7
  8
CUT
 10
149.2
 20
30.0
 30
0.0
 70
0
  0
VERTEX
  5
1F8
  8
CUT
 10
149.2576441587903
 20
30.585270966048384
 30
0.0
 70
0
  0
VERTEX
  5
1F9
  8
CUT
 10
149.42836140246615
 20
31.148050297095267
 30
0.0
 70
0
  0
VERTEX
  5
1FA
  8
CUT
 10
149.70559116309238
 20
31.666710699058804
 30
0.0
 70
0
  0
VERTEX
  5
1FB
  8
CUT
 10
150.07867965644036
 20
32.121320343559645
 30
0.0
 70
0
  0
VERTEX
  5
1FC
  8
CUT
 10
150.5332893009412
 20
32.49440883690764
 30
0.0
 70
0
  0
VERTEX
  5
1FD
  8
CUT
 10
151.05194970290472
 20
32.77163859753386
 30
0.0
 70
0
  0
VERTEX
  5
1FE
  8
CUT
 10
151.61472903395162
 20
32.94235584120969
 30
0.0
 70
0
  0
VERTEX
  5
1FF
  8
CUT
 10
152.2
 20
33.0
 30
0.0
 70
0
  0
VERTEX
  5
200
  8
CUT
 10
152.7852709660484
 20
32.94235584120969
 30
0.0
 70
0
  0
VERTEX
  5
201
  8
CUT
 10
153.34805029709526
 20
32.77163859753386
 30
0.0
 70
0
  0
VERTEX
  5
202
  8
CUT
 10
153.8667106990588
 20
32.49440883690764
 30
0.0
 70
0
  0
VERTEX
  5
203
  8
CUT
 10
154.32132034355965
 20
32.121320343559645
 30
0.0
 70
0
  0
VERTEX
  5
204
  8
CUT
 10
154.69440883690766
 20
31.666710699058807
 30
0.0
 70
0
  0
VERTEX
  5
205
  8
CUT
 10
154.97163859753385
 20
31.14805029709527
 30
0.0
 70
0
  0
VERTEX
  5
206
  8
CUT
 10
155.14235584120968
 20
30.585270966048384
 30
0.0
 70
0
  0
SEQEND
  5
1E6
  8
CUT
  0
POLYLINE
  5
207
  8
ENGRAVE
 66
1
 10
0.0
 20
0.0
 30
0.0
 70
0
  0
VERTEX
  5
209
  8
ENGRAVE
 10
135.2
 20
65.0
 30
0.0
 70
0
  0
VERTEX
  5
20A
  8
ENGRAVE
 10
135.2
 20
71.0
 30
0.0
 70
0
  0
SEQEND
  5
208
  8
ENGRAVE
  0
POLYLINE
  5
20B
  8
ENGRAVE
 66
1
 10
0.0
 20
0.0
 30
0.0
 70
0
  0
VERTEX
  5
20D
  8
ENGRAVE
 10
135.2
 20
71.0
 30
0.0
 70
0
  0
VERTEX
  5
20E
  8
ENGRAVE
 10
140.2
 20
71.0
 30
0.0
 70
0
  0
SEQEND
  5
20C
  8
ENGRAVE
  0
POLYLINE
  5
20F
  8
ENGRAVE
 66
1
 10
0.0
 20
0.0
 30
0.0
 70
0
  0
VERTEX
  5
211
  8
ENGRAVE
 10
140.2
 20
65.0
 30
0.0
 70
0
  0
VERTEX
  5
212
  8
ENGRAVE
 10
140.2
 20
71.0
 30
0.0
 70
0
  0
SEQEND
  5
210
  8
ENGRAVE
  0
POLYLINE
  5
213
  8
ENGRAVE
 66
1
 10
0.0
 20
0.0
 30
0.0
 70
0
  0
VERTEX
  5
215
  8
ENGRAVE
 10
140.2
 20
65.0
 30
0.0
 70
0
  0
VERTEX
  5
216
  8
ENGRAVE
 10
145.2
 20
65.0
 30
0.0
 70
0
  0
SEQEND
  5
214
  8
ENGRAVE
  0
POLYLINE
  5
217
  8
ENGRAVE
 66
1
 10
0.0
 20
0.0
 30
0.0
 70
0
  0
VERTEX
  5
219
  8
ENGRAVE
 10
145.2
 20
65.0
 30
0.0
 70
0
  0
VERTEX
  5
21A
  8
ENGRAVE
 10
145.2
 20
71.0
 30
0.0
 70
0
  0
SEQEND
  5
218
  8
ENGRAVE
  0
POLYLINE
  5
21B
  8
CUT
 66
1
 10
0.0
 20
0.0
 30
0.0
 70
1
  0
VERTEX
  5
21D
  8
CUT
 10
240.4
 20
40.0
 30
0.0
 70
0
  0
VERTEX
  5
21E
  8
CUT
 10
240.375923538208
 20
40.49008569121361
 30
0.0
 70
0
  0
VERTEX
  5
21F
  8
CUT
 10
240.20738830566407
 20
43.92068552970886
 30
0.0
 70
0
  0
VERTEX
  5
220
  8
CUT
 10
240.13539113998414
 20
44.40605142712593
 30
0.0
 70
0
  0
VERTEX
  5
221
  8
CUT
 10
239.63141098022462
 20
47.80361270904541
 30
0.0
 70
0
  0
VERTEX
  5
222
  8
CUT
 10
239.51218643188477
 20
48.279584527015686
 30
0.0
 70
0
  0
VERTEX
  5
223
  8
CUT
 10
238.67761459350587
 20
51.61138725280762
 30
0.0
 70
0
  0
VERTEX
  5
224
  8
CUT
 10
238.5123104095459
 20
52.07338106632233
 30
0.0
 70
0
  0
VERTEX
  5
225
  8
CUT
 10
237.35518112182618
 20
55.30733776092529
 30
0.0
 70
0
  0
VERTEX
  5
226
  8
CUT
 10
237.1453899383545
 20
55.75090420246124
 30
0.0
 70
0
  0
VERTEX
  5
227
  8
CUT
 10
235.67685165405274
 20
58.85586929321289
 30
0.0
 70
0
  0
VERTEX
  5
228
  8
CUT
 10
235.4245933532715
 20
59.27673673629761
 30
0.0
 70
0
  0
VERTEX
  5
229
  8
CUT
 10
233.65878524780274
 20
62.222808837890625
 30
0.0
 70
0
  0
VERTEX
  5
22A
  8
CUT
 10
233.36648931503296
 20
62.61692404747009
 30
0.0
 70
0
  0
VERTEX
  5
22B
  8
CUT
 10
231.32041778564454
 20
65.37573051452637
 30
0.0
 70
0
  0
VERTEX
  5
22C
  8
CUT
 10
230.99089946746827
 20
65.73929810523987
 30
0.0
 70
0
  0
VERTEX
  5
22D
  8
CUT
 10
228.68427124023438
 20
68.28427124023438
 30
0.0
 70
0
  0
VERTEX
  5
22E
  8
CUT
 10
228.32070364952088
 20
68.61378955841064
 30
0.0
 70
0
  0
VERTEX
  5
22F
  8
CUT
 10
225.77573051452637
 20
70.92041778564453
 30
0.0
 70
0
  0
VERTEX
  5
230
  8
CUT
 10
225.3816153049469
 20
71.2127137184143
 30
0.0
 70
0
  0
VERTEX
  5
231
  8
CUT
 10
222.62280883789063
 20
73.25878524780273
 30
0.0
 70
0
  0
VERTEX
  5
232
  8
CUT
 10
222.2019413948059
 20
73.51104354858398
 30
0.0
 70
0
  0
VERTEX
  5
233
  8
CUT
 10
219.2558692932129
 20
75.27685165405273
 30
0.0
 70
0
  0
VERTEX
  5
234
  8
CUT
 10
218.81230285167695
 20
75.48664283752441
 30
0.0
 70
0
  0
VERTEX
  5
235
  8
CUT
 10
215.7073377609253
 20
76.95518112182617
 30
0.0
 70
0
  0
VERTEX
  5
236
  8
CUT
 10
215.2453439474106
 20
77.12048530578613
 30
0.0
 70
0
  0
VERTEX
  5
237
  8
CUT
 10
212.01138725280762
 20
78.27761459350586
 30
0.0
 70
0
  0
VERTEX
  5
238
  8
CUT
 10
211.53541543483735
 20
78.3968391418457
 30
0.0
 70
0
  0
VERTEX
  5
239
  8
CUT
 10
208.20361270904542
 20
79.23141098022461
 30
0.0
 70
0
  0
VERTEX
  5
23A
  8
CUT
 10
207.71824681162835
 20
79.30340814590454
 30
0.0
 70
0
  0
VERTEX
  5
23B
  8
CUT
 10
204.32068552970887
 20
79.80738830566406
 30
0.0
 70
0
  0
VERTEX
  5
23C
  8
CUT
 10
203.83059983849526
 20
79.83146476745605
 30
0.0
 70
0
  0
VERTEX
  5
23D
  8
CUT
 10
200.4
 20
80.0
 30
0.0
 70
0
  0
VERTEX
  5
23E
  8
CUT
 10
199.9099143087864
 20
79.97592353820801
 30
0.0
 70
0
  0
VERTEX
  5
23F
  8
CUT
 10
196.47931447029114
 20
79.80738830566406
 30
0.0
 70
0
  0
VERTEX
  5
240
  8
CUT
 10
195.99394857287407
 20
79.73539113998413
 30
0.0
 70
0
  0
VERTEX
  5
241
  8
CUT
 10
192.5963872909546
 20
79.23141098022461
 30
0.0
 70
0
  0
VERTEX
  5
242
  8
CUT
 10
192.12041547298432
 20
79.11218643188477
 30
0.0
 70
0
  0
VERTEX
  5
243
  8
CUT
 10
188.7886127471924
 20
78.27761459350586
 30
0.0
 70
0
  0
VERTEX
  5
244
  8
CUT
 10
188.32661893367768
 20
78.1123104095459
 30
0.0
 70
0
  0
VERTEX
  5
245
  8
CUT
 10
185.0926622390747
 20
76.95518112182617
 30
0.0
 70
0
  0
VERTEX
  5
246
  8
CUT
 10
184.64909579753876
 20
76.74538993835449
 30
0.0
 70
0
  0
VERTEX
  5
247
  8
CUT
 10
181.54413070678712
 20
75.27685165405273
 30
0.0
 70
0
  0
VERTEX
  5
248
  8
CUT
 10
181.1232632637024
 20
75.02459335327148
 30
0.0
 70
0
  0
VERTEX
  5
249
  8
CUT
 10
178.17719116210938
 20
73.25878524780273
 30
0.0
 70
0
  0
VERTEX
  5
24A
  8
CUT
 10
177.7830759525299
 20
72.96648931503296
 30
0.0
 70
0
  0
VERTEX
  5
24B
  8
CUT
 10
175.02426948547364
 20
70.92041778564453
 30
0.0
 70
0
  0
VERTEX
  5
24C
  8
CUT
 10
174.66070189476014
 20
70.59089946746826
 30
0.0
 70
0
  0
VERTEX
  5
24D
  8
CUT
 10
172.11572875976563
 20
68.28427124023438
 30
0.0
 70
0
  0
VERTEX
  5
24E
  8
CUT
 10
171.78621044158936
 20
67.92070364952087
 30
0.0
 70
0
  0
VERTEX
  5
24F
  8
CUT
 10
169.47958221435547
 20
65.37573051452637
 30
0.0
 70
0
  0
VERTEX
  5
250
  8
CUT
 10
169.1872862815857
 20
64.9816153049469
 30
0.0
 70
0
  0
VERTEX
  5
251
  8
CUT
 10
167.14121475219727
 20
62.222808837890625
 30
0.0
 70
0
  0
VERTEX
  5
252
  8
CUT
 10
166.88895645141602
 20
61.80194139480591
 30
0.0
 70
0
  0
VERTEX
  5
253
  8
CUT
 10
165.12314834594727
 20
58.85586929321289
 30
0.0
 70
0
  0
VERTEX
  5
254
  8
CUT
 10
164.9133571624756
 20
58.41230285167694
 30
0.0
 70
0
  0
VERTEX
  5
255
  8
CUT
 10
163.44481887817383
 20
55.30733776092529
 30
0.0
 70
0
  0
VERTEX
  5
256
  8
CUT
 10
163.27951469421387
 20
54.84534394741058
 30
0.0
 70
0
  0
VERTEX
  5
257
  8
CUT
 10
162.12238540649415
 20
51.61138725280762
 30
0.0
 70
0
  0
VERTEX
  5
258
  8
CUT
 10
162.0031608581543
 20
51.13541543483734
 30
0.0
 70
0
  0
VERTEX
  5
259
  8
CUT
 10
161.1685890197754
 20
47.80361270904541
 30
0.0
 70
0
  0
VERTEX
  5
25A
  8
CUT
 10
161.09659185409546
 20
47.31824681162834
 30
0.0
 70
0
  0
VERTEX
  5
25B
  8
CUT
 10
160.59261169433594
 20
43.92068552970886
 30
0.0
 70
0
  0
VERTEX
  5
25C
  8
CUT
 10
160.56853523254395
 20
43.430599838495255
 30
0.0
 70
0
  0
VERTEX
  5
25D
  8
CUT
 10
160.4
 20
39.99999999999999
 30
0.0
 70
0
  0
VERTEX
  5
25E
  8
CUT
 10
160.424076461792
 20
39.509914308786385
 30
0.0
 70
0
  0
VERTEX
  5
25F
  8
CUT
 10
160.59261169433594
 20
36.07931447029114
 30
0.0
 70
0
  0
VERTEX
  5
260
  8
CUT
 10
160.66460886001587
 20
35.59394857287407
 30
0.0
 70
0
  0
VERTEX
  5
261
  8
CUT
 10
161.1685890197754
 20
32.19638729095459
 30
0.0
 70
0
  0
VERTEX
  5
262
  8
CUT
 10
161.28781356811524
 20
31.720415472984314
 30
0.0
 70
0
  0
VERTEX
  5
263
  8
CUT
 10
162.12238540649415
 20
28.388612747192383
 30
0.0
 70
0
  0
VERTEX
  5
264
  8
CUT
 10
162.2876895904541
 20
27.926618933677673
 30
0.0
 70
0
  0
VERTEX
  5
265
  8
CUT
 10
163.44481887817383
 20
24.692662239074707
 30
0.0
 70
0
  0
VERTEX
  5
266
  8
CUT
 10
163.6546100616455
 20
24.249095797538757
 30
0.0
 70
0
  0
VERTEX
  5
267
  8
CUT
 10
165.12314834594727
 20
21.14413070678711
 30
0.0
 70
0
  0
VERTEX
  5
268
  8
CUT
 10
165.37540664672852
 20
20.723263263702393
 30
0.0
 70
0
  0
VERTEX
  5
269
  8
CUT
 10
167.14121475219727
 20
17.777191162109375
 30
0.0
 70
0
  0
VERTEX
  5
26A
  8
CUT
 10
167.43351068496705
 20
17.383075952529907
 30
0.0
 70
0
  0
VERTEX
  5
26B
  8
CUT
 10
169.47958221435547
 20
14.624269485473633
 30
0.0
 70
0
  0
VERTEX
  5
26C
  8
CUT
 10
169.80910053253174
 20
14.260701894760132
 30
0.0
 70
0
  0
VERTEX
  5
26D
  8
CUT
 10
172.11572875976563
 20
11.715728759765625
 30
0.0
 70
0
  0
VERTEX
  5
26E
  8
CUT
 10
172.47929635047913
 20
11.386210441589355
 30
0.0
 70
0
  0
VERTEX
  5
26F
  8
CUT
 10
175.02426948547364
 20
9.079582214355469
 30
0.0
 70
0
  0
VERTEX
  5
270
  8
CUT
 10
175.4183846950531
 20
8.787286281585693
 30
0.0
 70
0
  0
VERTEX
  5
271
  8
CUT
 10
178.17719116210938
 20
6.741214752197266
 30
0.0
 70
0
  0
VERTEX
  5
272
  8
CUT
 10
178.5980586051941
 20
6.488956451416016
 30
0.0
 70
0
  0
VERTEX
  5
273
  8
CUT
 10
181.54413070678712
 20
4.723148345947266
 30
0.0
 70
0
  0
VERTEX
  5
274
  8
CUT
 10
181.98769714832306
 20
4.513357162475586
 30
0.0
 70
0
  0
VERTEX
  5
275
  8
CUT
 10
185.0926622390747
 20
3.044818878173828
 30
0.0
 70
0
  0
VERTEX
  5
276
  8
CUT
 10
185.55465605258942
 20
2.879514694213867
 30
0.0
 70
0
  0
VERTEX
  5
277
  8
CUT
 10
188.7886127471924
 20
1.7223854064941406
 30
0.0
 70
0
  0
VERTEX
  5
278
  8
CUT
 10
189.26458456516266
 20
1.6031608581542969
 30
0.0
 70
0
  0
VERTEX
  5
279
  8
CUT
 10
192.5963872909546
 20
0.7685890197753906
 30
0.0
 70
0
  0
VERTEX
  5
27A
  8
CUT
 10
193.08175318837166
 20
0.696591854095459
 30
0.0
 70
0
  0
VERTEX
  5
27B
  8
CUT
 10
196.47931447029114
 20
0.1926116943359375
 30
0.0
 70
0
  0
VERTEX
  5
27C
  8
CUT
 10
196.96940016150475
 20
0.1685352325439453
 30
0.0
 70
0
  0
VERTEX
  5
27D
  8
CUT
 10
200.4
 20
0.0
 30
0.0
 70
0
  0
VERTEX
  5
27E
  8
CUT
 10
200.8900856912136
 20
0.024076461791992188
 30
0.0
 70
0
  0
VERTEX
  5
27F
  8
CUT
 10
204.32068552970887
 20
0.1926116943359375
 30
0.0
 70
0
  0
VERTEX
  5
280
  8
CUT
 10
204.80605142712594
 20
0.26460886001586914
 30
0.0
 70
0
  0
VERTEX
  5
281
  8
CUT
 10
208.20361270904542
 20
0.7685890197753906
 30
0.0
 70
0
  0
VERTEX
  5
282
  8
CUT
 10
208.6795845270157
 20
0.8878135681152344
 30
0.0
 70
0
  0
VERTEX
  5
283
  8
CUT
 10
212.01138725280762
 20
1.7223854064941406
 30
0.0
 70
0
  0
VERTEX
  5
284
  8
CUT
 10
212.47338106632233
 20
1.8876895904541016
 30
0.0
 70
0
  0
VERTEX
  5
285
  8
CUT
 10
215.7073377609253
 20
3.044818878173828
 30
0.0
 70
0
  0
VERTEX
  5
286
  8
CUT
 10
216.15090420246125
 20
3.254610061645508
 30
0.0
 70
0
  0
VERTEX
  5
287
  8
CUT
 10
219.2558692932129
 20
4.723148345947266
 30
0.0
 70
0
  0
VERTEX
  5
288
  8
CUT
 10
219.6767367362976
 20
4.975406646728516
 30
0.0
 70
0
  0
VERTEX
  5
289
  8
CUT
 10
222.62280883789063
 20
6.741214752197266
 30
0.0
 70
0
  0
VERTEX
  5
28A
  8
CUT
 10
223.0169240474701
 20
7.033510684967041
 30
0.0
 70
0
  0
VERTEX
  5
28B
  8
CUT
 10
225.77573051452637
 20
9.079582214355469
 30
0.0
 70
0
  0
VERTEX
  5
28C
  8
CUT
 10
226.13929810523987
 20
9.409100532531738
 30
0.0
 70
0
  0
VERTEX
  5
28D
  8
CUT
 10
228.68427124023438
 20
11.715728759765625
 30
0.0
 70
0
  0
VERTEX
  5
28E
  8
CUT
 10
229.01378955841065
 20
12.079296350479126
 30
0.0
 70
0
  0
VERTEX
  5
28F
  8
CUT
 10
231.32041778564454
 20
14.624269485473633
 30
0.0
 70
0
  0
VERTEX
  5
290
  8
CUT
 10
231.6127137184143
 20
15.0183846950531
 30
0.0
 70
0
  0
VERTEX
  5
291
  8
CUT
 10
233.65878524780274
 20
17.777191162109375
 30
0.0
 70
0
  0
VERTEX
  5
292
  8
CUT
 10
233.911043548584
 20
18.198058605194092
 30
0.0
 70
0
  0
VERTEX
  5
293
  8
CUT
 10
235.67685165405274
 20
21.14413070678711
 30
0.0
 70
0
  0
VERTEX
  5
294
  8
CUT
 10
235.88664283752442
 20
21.58769714832306
 30
0.0
 70
0
  0
VERTEX
  5
295
  8
CUT
 10
237.35518112182618
 20
24.692662239074707
 30
0.0
 70
0
  0
VERTEX
  5
296
  8
CUT
 10
237.52048530578614
 20
25.154656052589417
 30
0.0
 70
0
  0
VERTEX
  5
297
  8
CUT
 10
238.67761459350587
 20
28.388612747192383
 30
0.0
 70
0
  0
VERTEX
  5
298
  8
CUT
 10
238.7968391418457
 20
28.86458456516266
 30
0.0
 70
0
  0
VERTEX
  5
299
  8
CUT
 10
239.63141098022462
 20
32.19638729095459
 30
0.0
 70
0
  0
VERTEX
  5
29A
  8
CUT
 10
239.70340814590455
 20
32.68175318837166
 30
0.0
 70
0
  0
VERTEX
  5
29B
  8
CUT
 10
240.20738830566407
 20
36.07931447029114
 30
0.0
 70
0
  0
VERTEX
  5
29C
  8
CUT
 10
240.23146476745606
 20
36.569400161504745
 30
0.0
 70
0
  0
SEQEND
  5
21C
  8
CUT
  0
POLYLINE
  5
29D
  8
CUT
 66
1
 10
0.0
 20
0.0
 30
0.0
 70
1
  0
VERTEX
  5
29F
  8
CUT
 10
193.4
 20
8.0
 30
0.0
 70
0
  0
VERTEX
  5
2A0
  8
CUT
 10
193.3423558412097
 20
7.414729033951616
 30
0.0
 70
0
  0
VERTEX
  5
2A1
  8
CUT
 10
193.17163859753387
 20
6.851949702904733
 30
0.0
 70
0
  0
VERTEX
  5
2A2
  8
CUT
 10
192.89440883690764
 20
6.333289300941196
 30
0.0
 70
0
  0
VERTEX
  5
2A3
  8
CUT
 10
192.52132034355964
 20
5.8786796564403545
 30
0.0
 70
0
  0
VERTEX
  5
2A4
  8
CUT
 10
192.0667106990588
 20
5.505591163092362
 30
0.0
 70
0
  0
VERTEX
  5
2A5
  8
CUT
 10
191.54805029709527
 20
5.228361402466142
 30
0.0
 70
0
  0
VERTEX
  5
2A6
  8
CUT
 10
190.9852709660484
 20
5.0576441587903105
 30
0.0
 70
0
  0
VERTEX
  5
2A7
  8
CUT
 10
190.4
 20
5.0
 30
0.0
 70
0
  0
VERTEX
  5
2A8
  8
CUT
 10
189.8147290339516
 20
5.0576441587903105
 30
0.0
 70
0
  0
VERTEX
  5
2A9
  8
CUT
 10
189.25194970290474
 20
5.228361402466142
 30
0.0
 70
0
  0
VERTEX
  5
2AA
  8
CUT
 10
188.7332893009412
 20
5.505591163092362
 30
0.0
 70
0
  0
VERTEX
  5
2AB
  8
CUT
 10
188.27867965644037
 20
5.8786796564403545
 30
0.0
 70
0
  0
VERTEX
  5
2AC
  8
CUT
 10
187.90559116309237
 20
6.333289300941196
 30
0.0
 70
0
  0
VERTEX
  5
2AD
  8
CUT
 10
187.62836140246614
 20
6.851949702904733
 30
0.0
 70
0
  0
VERTEX
  5
2AE
  8
CUT
 10
187.45764415879032
 20
7.414729033951616
 30
0.0
 70
0
  0
VERTEX
  5
2AF
  8
CUT
 10
187.4
 20
8.0
 30
0.0
 70
0
  0
VERTEX
  5
2B0
  8
CUT
 10
187.45764415879032
 20
8.585270966048384
 30
0.0
 70
0
  0
VERTEX
  5
2B1
  8
CUT
 10
187.62836140246614
 20
9.14805029709527
 30
0.0
 70
0
  0
VERTEX
  5
2B2
  8
CUT
 10
187.90559116309237
 20
9.666710699058807
 30
0.0
 70
0
  0
VERTEX
  5
2B3
  8
CUT
 10
188.27867965644037
 20
10.121320343559642
 30
0.0
 70
0
  0
VERTEX
  5
2B4
  8
CUT
 10
188.7332893009412
 20
10.494408836907635
 30
0.0
 70
0
  0
VERTEX
  5
2B5
  8
CUT
 10
189.25194970290474
 20
10.771638597533858
 30
0.0
 70
0
  0
VERTEX
  5
2B6
  8
CUT
 10
189.8147290339516
 20
10.94235584120969
 30
0.0
 70
0
  0
VERTEX
  5
2B7
  8
CUT
 10
190.4
 20
11.0
 30
0.0
 70
0
  0
VERTEX
  5
2B8
  8
CUT
 10
190.9852709660484
 20
10.94235584120969
 30
0.0
 70
0
  0
VERTEX
  5
2B9
  8
CUT
 10
191.54805029709527
 20
10.771638597533858
 30
0.0
 70
0
  0
VERTEX
  5
2BA
  8
CUT
 10
192.0667106990588
 20
10.494408836907638
 30
0.0
 70
0
  0
VERTEX
  5
2BB
  8
CUT
 10
192.52132034355964
 20
10.121320343559642
 30
0.0
 70
0
  0
VERTEX
  5
2BC
  8
CUT
 10
192.89440883690764
 20
9.666710699058807
 30
0.0
 70
0
  0
VERTEX
  5
2BD
  8
CUT
 10
193.17163859753387
 20
9.14805029709527
 30
0.0
 70
0
  0
VERTEX
  5
2BE
  8
CUT
 10
193.3423558412097
 20
8.585270966048387
 30
0.0
 70
0
  0
SEQEND
  5
29E
  8
CUT
  0
POLYLINE
  5
2BF
  8
CUT
 66
1
 10
0.0
 20
0.0
 30
0.0
 70
1
  0
VERTEX
  5
2C1
  8
CUT
 10
213.4
 20
72.0
 30
0.0
 70
0
  0
VERTEX
  5
2C2
  8
CUT
 10
213.3423558412097
 20
71.41472903395162
 30
0.0
 70
0
  0
VERTEX
  5
2C3
  8
CUT
 10
213.17163859753387
 20
70.85194970290473
 30
0.0
 70
0
  0
VERTEX
  5
2C4
  8
CUT
 10
212.89440883690764
 20
70.33328930094119
 30
0.0
 70
0
  0
VERTEX
  5
2C5
  8
CUT
 10
212.52132034355964
 20
69.87867965644035
 30
0.0
 70
0
  0
VERTEX
  5
2C6
  8
CUT
 10
212.0667106990588
 20
69.50559116309236
 30
0.0
 70
0
  0
VERTEX
  5
2C7
  8
CUT
 10
211.54805029709527
 20
69.22836140246613
 30
0.0
 70
0
  0
VERTEX
  5
2C8
  8
CUT
 10
210.9852709660484
 20
69.05764415879031
 30
0.0
 70
0
  0
VERTEX
  5
2C9
  8
CUT
 10
210.4
 20
69.0
 30
0.0
 70
0
  0
VERTEX
  5
2CA
  8
CUT
 10
209.8147290339516
 20
69.05764415879031
 30
0.0
 70
0
  0
VERTEX
  5
2CB
  8
CUT
 10
209.25194970290474
 20
69.22836140246613
 30
0.0
 70
0
  0
VERTEX
  5
2CC
  8
CUT
 10
208.7332893009412
 20
69.50559116309236
 30
0.0
 70
0
  0
VERTEX
  5
2CD
  8
CUT
 10
208.27867965644037
 20
69.87867965644035
 30
0.0
 70
0
  0
VERTEX
  5
2CE
  8
CUT
 10
207.90559116309237
 20
70.33328930094119
 30
0.0
 70
0
  0
VERTEX
  5
2CF
  8
CUT
 10
207.62836140246614
 20
70.85194970290473
 30
0.0
 70
0
  0
VERTEX
  5
2D0
  8
CUT
 10
207.45764415879032
 20
71.41472903395162
 30
0.0
 70
0
  0
VERTEX
  5
2D1
  8
CUT
 10
207.4
 20
72.0
 30
0.0
 70
0
  0
VERTEX
  5
2D2
  8
CUT
 10
207.45764415879032
 20
72.58527096604838
 30
0.0
 70
0
  0
VERTEX
  5
2D3
  8
CUT
 10
207.62836140246614
 20
73.14805029709527
 30
0.0
 70
0
  0
VERTEX
  5
2D4
  8
CUT
 10
207.90559116309237
 20
73.6667106990588
 30
0.0
 70
0
  0
VERTEX
  5
2D5
  8
CUT
 10
208.27867965644037
 20
74.12132034355965
 30
0.0
 70
0
  0
VERTEX
  5
2D6
  8
CUT
 10
208.7332893009412
 20
74.49440883690764
 30
0.0
 70
0
  0
VERTEX
  5
2D7
  8
CUT
 10
209.25194970290474
 20
74.77163859753387
 30
0.0
 70
0
  0
VERTEX
  5
2D8
  8
CUT
 10
209.8147290339516
 20
74.94235584120969
 30
0.0
 70
0
  0
VERTEX
  5
2D9
  8
CUT
 10
210.4
 20
75.0
 30
0.0
 70
0
  0
VERTEX
  5
2DA
  8
CUT
 10
210.9852709660484
 20
74.94235584120969
 30
0.0
 70
0
  0
VERTEX
  5
2DB
  8
CUT
 10
211.54805029709527
 20
74.77163859753387
 30
0.0
 70
0
  0
VERTEX
  5
2DC
  8
CUT
 10
212.0667106990588
 20
74.49440883690764
 30
0.0
 70
0
  0
VERTEX
  5
2DD
  8
CUT
 10
212.52132034355964
 20
74.12132034355965
 30
0.0
 70
0
  0
VERTEX
  5
2DE
  8
CUT
 10
212.89440883690764
 20
73.6667106990588
 30
0.0
 70
0
  0
VERTEX
  5
2DF
  8
CUT
 10
213.17163859753387
 20
73.14805029709527
 30
0.0
 70
0
  0
VERTEX
  5
2E0
  8
CUT
 10
213.3423558412097
 20
72.58527096604838
 30
0.0
 70
0
  0
SEQEND
  5
2C0
  8
CUT
  0
POLYLINE
  5
2E1
  8
CUT
 66
1
 10
0.0
 20
0.0
 30
0.0
 70
1
  0
VERTEX
  5
2E3
  8
CUT
 10
235.4
 20
30.0
 30
0.0
 70
0
  0
VERTEX
  5
2E4
  8
CUT
 10
235.3423558412097
 20
29.414729033951616
 30
0.0
 70
0
  0
VERTEX
  5
2E5
  8
CUT
 10
235.17163859753387
 20
28.851949702904733
 30
0.0
 70
0
  0
VERTEX
  5
2E6
  8
CUT
 10
234.89440883690764
 20
28.333289300941193
 30
0.0
 70
0
  0
VERTEX
  5
2E7
  8
CUT
 10
234.52132034355964
 20
27.878679656440358
 30
0.0
 70
0
  0
VERTEX
  5
2E8
  8
CUT
 10
234.0667106990588
 20
27.505591163092365
 30
0.0
 70
0
  0
VERTEX
  5
2E9
  8
CUT
 10
233.54805029709527
 20
27.228361402466142
 30
0.0
 70
0
  0
VERTEX
  5
2EA
  8
CUT
 10
232.9852709660484
 20
27.05764415879031
 30
0.0
 70
0
  0
VERTEX
  5
2EB
  8
CUT
 10
232.4
 20
27.0
 30
0.0
 70
0
  0
VERTEX
  5
2EC
  8
CUT
 10
231.8147290339516
 20
27.05764415879031
 30
0.0
 70
0
  0
VERTEX
  5
2ED
  8
CUT
 10
231.25194970290474
 20
27.228361402466142
 30
0.0
 70
0
  0
VERTEX
  5
2EE
  8
CUT
 10
230.7332893009412
 20
27.50559116309236
 30
0.0
 70
0
  0
VERTEX
  5
2EF
  8
CUT
 10
230.27867965644037
 20
27.878679656440358
 30
0.0
 70
0
  0
VERTEX
  5
2F0
  8
CUT
 10
229.90559116309237
 20
28.333289300941193
 30
0.0
 70
0
  0
VERTEX
  5
2F1
  8
CUT
 10
229.62836140246614
 20
28.85194970290473
 30
0.0
 70
0
  0
VERTEX
  5
2F2
  8
CUT
 10
229.45764415879032
 20
29.414729033951616
 30
0.0
 70
0
  0
VERTEX
  5
2F3
  8
CUT
 10
229.4
 20
30.0
 30
0.0
 70
0
  0
VERTEX
  5
2F4
  8
CUT
 10
229.45764415879032
 20
30.585270966048384
 30
0.0
 70
0
  0
VERTEX
  5
2F5
  8
CUT
 10
229.62836140246614
 20
31.148050297095267
 30
0.0
 70
0
  0
VERTEX
  5
2F6
  8
CUT
 10
229.90559116309237
 20
31.666710699058804
 30
0.0
 70
0
  0
VERTEX
  5
2F7
  8
CUT
 10
230.27867965644037
 20
32.121320343559645
 30
0.0
 70
0
  0
VERTEX
  5
2F8
  8
CUT
 10
230.7332893009412
 20
32.49440883690764
 30
0.0
 70
0
  0
VERTEX
  5
2F9
  8
CUT
 10
231.25194970290474
 20
32.77163859753386
 30
0.0
 70
0
  0
VERTEX
  5
2FA
  8
CUT
 10
231.8147290339516
 20
32.94235584120969
 30
0.0
 70
0
  0
VERTEX
  5
2FB
  8
CUT
 10
232.4
 20
33.0
 30
0.0
 70
0
  0
VERTEX
  5
2FC
  8
CUT
 10
232.9852709660484
 20
32.94235584120969
 30
0.0
 70
0
  0
VERTEX
  5
2FD
  8
CUT
 10
233.54805029709527
 20
32.77163859753386
 30
0.0
 70
0
  0
VERTEX
  5
2FE
  8
CUT
 10
234.0667106990588
 20
32.49440883690764
 30
0.0
 70
0
  0
VERTEX
  5
2FF
  8
CUT
 10
234.52132034355964
 20
32.121320343559645
 30
0.0
 70
0
  0
VERTEX
  5
300
  8
CUT
 10
234.89440883690764
 20
31.666710699058807
 30
0.0
 70
0
  0
VERTEX
  5
301
  8
CUT
 10
235.17163859753387
 20
31.14805029709527
 30
0.0
 70
0
  0
VERTEX
  5
302
  8
CUT
 10
235.3423558412097
 20
30.585270966048384
 30
0.0
 70
0
  0
SEQEND
  5
2E2
  8
CUT
  0
POLYLINE
  5
303
  8
ENGRAVE
 66
1
 10
0.0
 20
0.0
 30
0.0
 70
0
  0
VERTEX
  5
305
  8
ENGRAVE
 10
215.4
 20
65.0
 30
0.0
 70
0
  0
VERTEX
  5
306
  8
ENGRAVE
 10
215.4
 20
71.0
 30
0.0
 70
0
  0
SEQEND
  5
304
  8
ENGRAVE
  0
POLYLINE
  5
307
  8
ENGRAVE
 66
1
 10
0.0
 20
0.0
 30
0.0
 70
0
  0
VERTEX
  5
309
  8
ENGRAVE
 10
215.4
 20
71.0
 30
0.0
 70
0
  0
VERTEX
  5
30A
  8
ENGRAVE
 10
220.4
 20
71.0
 30
0.0
 70
0
  0
SEQEND
  5
308
  8
ENGRAVE
  0
POLYLINE
  5
30B
  8
ENGRAVE
 66
1
 10
0.0
 20
0.0
 30
0.0
 70
0
  0
VERTEX
  5
30D
  8
ENGRAVE
 10
220.4
 20
65.0
 30
0.0
 70
0
  0
VERTEX
  5
30E
  8
ENGRAVE
 10
220.4
 20
71.0
 30
0.0
 70
0
  0
SEQEND
  5
30C
  8
ENGRAVE
  0
POLYLINE
  5
30F
  8
ENGRAVE
 66
1
 10
0.0
 20
0.0
 30
0.0
 70
0
  0
VERTEX
  5
311
  8
ENGRAVE
 10
220.4
 20
71.0
 30
0.0
 70
0
  0
VERTEX
  5
312
  8
ENGRAVE
 10
225.4
 20
71.0
 30
0.0
 70
0
  0
SEQEND
  5
310
  8
ENGRAVE
  0
POLYLINE
  5
313
  8
ENGRAVE
 66
1
 10
0.0
 20
0.0
 30
0.0
 70
0
  0
VERTEX
  5
315
  8
ENGRAVE
 10
225.4
 20
65.0
 30
0.0
 70
0
  0
VERTEX
  5
316
  8
ENGRAVE
 10
225.4
 20
71.0
 30
0.0
 70
0
  0
SEQEND
  5
314
  8
ENGRAVE
  0
POLYLINE
  5
317
  8
CUT
 66
1
 10
0.0
 20
0.0
 30
0.0
 70
1
  0
VERTEX
  5
319
  8
CUT
 10
80.0
 20
120.2
 30
0.0
 70
0
  0
VERTEX
  5
31A
  8
CUT
 10
79.9662929534912
 20
120.88611996769906
 30
0.0
 70
0
  0
VERTEX
  5
31B
  8
CUT
 10
79.80738830566406
 20
124.12068552970887
 30
0.0
 70
0
  0
VERTEX
  5
31C
  8
CUT
 10
79.70659227371216
 20
124.80019778609277
 30
0.0
 70
0
  0
VERTEX
  5
31D
  8
CUT
 10
79.23141098022461
 20
128.0036127090454
 30
0.0
 70
0
  0
VERTEX
  5
31E
  8
CUT
 10
79.06449661254882
 20
128.6699732542038
 30
0.0
 70
0
  0
VERTEX
  5
31F
  8
CUT
 10
78.27761459350586
 20
131.8113872528076
 30
0.0
 70
0
  0
VERTEX
  5
320
  8
CUT
 10
78.04618873596192
 20
132.4581785917282
 30
0.0
 70
0
  0
VERTEX
  5
321
  8
CUT
 10
76.95518112182617
 20
135.50733776092528
 30
0.0
 70
0
  0
VERTEX
  5
322
  8
CUT
 10
76.66147346496582
 20
136.1283307790756
 30
0.0
 70
0
  0
VERTEX
  5
323
  8
CUT
 10
75.27685165405273
 20
139.05586929321288
 30
0.0
 70
0
  0
VERTEX
  5
324
  8
CUT
 10
74.92369003295899
 20
139.6450837135315
 30
0.0
 70
0
  0
VERTEX
  5
325
  8
CUT
 10
73.25878524780273
 20
142.4228088378906
 30
0.0
 70
0
  0
VERTEX
  5
326
  8
CUT
 10
72.84957094192505
 20
142.97457013130187
 30
0.0
 70
0
  0
VERTEX
  5
327
  8
CUT
 10
70.92041778564453
 20
145.57573051452636
 30
0.0
 70
0
  0
VERTEX
  5
328
  8
CUT
 10
70.45909214019775
 20
146.08472514152527
 30
0.0
 70
0
  0
VERTEX
  5
329
  8
CUT
 10
68.28427124023438
 20
148.48427124023436
 30
0.0
 70
0
  0
VERTEX
  5
32A
  8
CUT
 10
67.77527661323548
 20
148.94559688568114
 30
0.0
 70
0
  0
VERTEX
  5
32B
  8
CUT
 10
65.37573051452637
 20
151.12041778564452
 30
0.0
 70
0
  0
VERTEX
  5
32C
  8
CUT
 10
64.8239692211151
 20
151.52963209152222
 30
0.0
 70
0
  0
VERTEX
  5
32D
  8
CUT
 10
62.222808837890625
 20
153.45878524780272
 30
0.0
 70
0
  0
VERTEX
  5
32E
  8
CUT
 10
61.63359441757202
 20
153.81194686889648
 30
0.0
 70
0
  0
VERTEX
  5
32F
  8
CUT
 10
58.85586929321289
 20
155.47685165405272
 30
0.0
 70
0
  0
VERTEX
  5
330
  8
CUT
 10
58.23487627506256
 20
155.7705593109131
 30
0.0
 70
0
  0
VERTEX
  5
331
  8
CUT
 10
55.30733776092529
 20
157.15518112182616
 30
0.0
 70
0
  0
VERTEX
  5
332
  8
CUT
 10
54.6605464220047
 20
157.38660697937013
 30
0.0
 70
0
  0
VERTEX
  5
333
  8
CUT
 10
51.61138725280762
 20
158.47761459350585
 30
0.0
 70
0
  0
VERTEX
  5
334
  8
CUT
 10
50.945026707649234
 20
158.64452896118163
 30
0.0
 70
0
  0
VERTEX
  5
335
  8
CUT
 10
47.80361270904541
 20
159.4314109802246
 30
0.0
 70
0
  0
VERTEX
  5
336
  8
CUT
 10
47.124100452661516
 20
159.5322070121765
 30
0.0
 70
0
  0
VERTEX
  5
337
  8
CUT
 10
43.92068552970886
 20
160.00738830566405
 30
0.0
 70
0
  0
VERTEX
  5
338
  8
CUT
 10
43.23456556200981
 20
160.04109535217285
 30
0.0
 70
0
  0
VERTEX
  5
339
  8
CUT
 10
40.0
 20
160.2
 30
0.0
 70
0
  0
VERTEX
  5
33A
  8
CUT
 10
39.31388003230095
 20
160.16629295349122
 30
0.0
 70
0
  0
VERTEX
  5
33B
  8
CUT
 10
36.07931447029114
 20
160.00738830566405
 30
0.0
 70
0
  0
VERTEX
  5
33C
  8
CUT
 10
35.39980221390724
 20
159.90659227371216
 30
0.0
 70
0
  0
VERTEX
  5
33D
  8
CUT
 10
32.19638729095459
 20
159.4314109802246
 30
0.0
 70
0
  0
VERTEX
  5
33E
  8
CUT
 10
31.530026745796203
 20
159.26449661254884
 30
0.0
 70
0
  0
VERTEX
  5
33F
  8
CUT
 10
28.388612747192383
 20
158.47761459350585
 30
0.0
 70
0
  0
VERTEX
  5
340
  8
CUT
 10
27.74182140827179
 20
158.2461887359619
 30
0.0
 70
0
  0
VERTEX
  5
341
  8
CUT
 10
24.692662239074707
 20
157.15518112182616
 30
0.0
 70
0
  0
VERTEX
  5
342
  8
CUT
 10
24.071669220924377
 20
156.86147346496583
 30
0.0
 70
0
  0
VERTEX
  5
343
  8
CUT
 10
21.14413070678711
 20
155.47685165405272
 30
0.0
 70
0
  0
VERTEX
  5
344
  8
CUT
 10
20.554916286468504
 20
155.123690032959
 30
0.0
 70
0
  0
VERTEX
  5
345
  8
CUT
 10
17.777191162109375
 20
153.45878524780272
 30
0.0
 70
0
  0
VERTEX
  5
346
  8
CUT
 10
17.22542986869812
 20
153.04957094192505
 30
0.0
 70
0
  0
VERTEX
  5
347
  8
CUT
 10
14.624269485473633
 20
151.12041778564452
 30
0.0
 70
0
  0
VERTEX
  5
348
  8
CUT
 10
14.11527485847473
 20
150.65909214019774
 30
0.0
 70
0
  0
VERTEX
  5
349
  8
CUT
 10
11.715728759765625
 20
148.48427124023436
 30
0.0
 70
0
  0
VERTEX
  5
34A
  8
CUT
 10
11.254403114318848
 20
147.97527661323548
 30
0.0
 70
0
  0
VERTEX
  5
34B
  8
CUT
 10
9.079582214355469
 20
145.57573051452636
 30
0.0
 70
0
  0
VERTEX
  5
34C
  8
CUT
 10
8.670367908477782
 20
145.02396922111512
 30
0.0
 70
0
  0
VERTEX
  5
34D
  8
CUT
 10
6.741214752197266
 20
142.4228088378906
 30
0.0
 70
0
  0
VERTEX
  5
34E
  8
CUT
 10
6.3880531311035185
 20
141.83359441757202
 30
0.0
 70
0
  0
VERTEX
  5
34F
  8
CUT
 10
4.723148345947266
 20
139.05586929321288
 30
0.0
 70
0
  0
VERTEX
  5
350
  8
CUT
 10
4.429440689086917
 20
138.43487627506255
 30
0.0
 70
0
  0
VERTEX
  5
351
  8
CUT
 10
3.044818878173828
 20
135.50733776092528
 30
0.0
 70
0
  0
VERTEX
  5
352
  8
CUT
 10
2.8133930206298814
 20
134.8605464220047
 30
0.0
 70
0
  0
VERTEX
  5
353
  8
CUT
 10
1.7223854064941406
 20
131.8113872528076
 30
0.0
 70
0
  0
VERTEX
  5
354
  8
CUT
 10
1.5554710388183608
 20
131.14502670764924
 30
0.0
 70
0
  0
VERTEX
  5
355
  8
CUT
 10
0.7685890197753906
 20
128.0036127090454
 30
0.0
 70
0
  0
VERTEX
  5
356
  8
CUT
 10
0.6677929878234892
 20
127.32410045266151
 30
0.0
 70
0
  0
VERTEX
  5
357
  8
CUT
 10
0.1926116943359375
 20
124.12068552970887
 30
0.0
 70
0
  0
VERTEX
  5
358
  8
CUT
 10
0.15890464782714986
 20
123.43456556200981
 30
0.0
 70
0
  0
VERTEX
  5
359
  8
CUT
 10
0.0
 20
120.19999999999999
 30
0.0
 70
0
  0
VERTEX
  5
35A
  8
CUT
 10
0.03370704650878764
 20
119.51388003230095
 30
0.0
 70
0
  0
VERTEX
  5
35B
  8
CUT
 10
0.1926116943359375
 20
116.27931447029114
 30
0.0
 70
0
  0
VERTEX
  5
35C
  8
CUT
 10
0.29340772628783895
 20
115.59980221390724
 30
0.0
 70
0
  0
VERTEX
  5
35D
  8
CUT
 10
0.7685890197753906
 20
112.39638729095459
 30
0.0
 70
0
  0
VERTEX
  5
35E
  8
CUT
 10
0.9355033874511705
 20
111.73002674579621
 30
0.0
 70
0
  0
VERTEX
  5
35F
  8
CUT
 10
1.7223854064941406
 20
108.58861274719239
 30
0.0
 70
0
  0
VERTEX
  5
360
  8
CUT
 10
1.9538112640380874
 20
107.94182140827179
 30
0.0
 70
0
  0
VERTEX
  5
361
  8
CUT
 10
3.044818878173828
 20
104.89266223907471
 30
0.0
 70
0
  0
VERTEX
  5
362
  8
CUT
 10
3.338526535034177
 20
104.27166922092438
 30
0.0
 70
0
  0
VERTEX
  5
363
  8
CUT
 10
4.723148345947266
 20
101.34413070678711
 30
0.0
 70
0
  0
VERTEX
  5
364
  8
CUT
 10
5.076309967041013
 20
100.7549162864685
 30
0.0
 70
0
  0
VERTEX
  5
365
  8
CUT
 10
6.741214752197266
 20
97.97719116210938
 30
0.0
 70
0
  0
VERTEX
  5
366
  8
CUT
 10
7.150429058074948
 20
97.42542986869813
 30
0.0
 70
0
  0
VERTEX
  5
367
  8
CUT
 10
9.079582214355469
 20
94.82426948547364
 30
0.0
 70
0
  0
VERTEX
  5
368
  8
CUT
 10
9.540907859802246
 20
94.31527485847474
 30
0.0
 70
0
  0
VERTEX
  5
369
  8
CUT
 10
11.715728759765625
 20
91.91572875976563
 30
0.0
 70
0
  0
VERTEX
  5
36A
  8
CUT
 10
12.224723386764527
 20
91.45440311431885
 30
0.0
 70
0
  0
VERTEX
  5
36B
  8
CUT
 10
14.624269485473633
 20
89.27958221435547
 30
0.0
 70
0
  0
VERTEX
  5
36C
  8
CUT
 10
15.176030778884886
 20
88.87036790847779
 30
0.0
 70
0
  0
VERTEX
  5
36D
  8
CUT
 10
17.777191162109375
 20
86.94121475219727
 30
0.0
 70
0
  0
VERTEX
  5
36E
  8
CUT
 10
18.36640558242798
 20
86.58805313110352
 30
0.0
 70
0
  0
VERTEX
  5
36F
  8
CUT
 10
21.14413070678711
 20
84.92314834594727
 30
0.0
 70
0
  0
VERTEX
  5
370
  8
CUT
 10
21.76512372493744
 20
84.62944068908692
 30
0.0
 70
0
  0
VERTEX
  5
371
  8
CUT
 10
24.692662239074707
 20
83.24481887817383
 30
0.0
 70
0
  0
VERTEX
  5
372
  8
CUT
 10
25.3394535779953
 20
83.01339302062988
 30
0.0
 70
0
  0
VERTEX
  5
373
  8
CUT
 10
28.388612747192383
 20
81.92238540649414
 30
0.0
 70
0
  0
VERTEX
  5
374
  8
CUT
 10
29.05497329235077
 20
81.75547103881837
 30
0.0
 70
0
  0
VERTEX
  5
375
  8
CUT
 10
32.19638729095459
 20
80.9685890197754
 30
0.0
 70
0
  0
VERTEX
  5
376
  8
CUT
 10
32.875899547338484
 20
80.86779298782349
 30
0.0
 70
0
  0
VERTEX
  5
377
  8
CUT
 10
36.07931447029114
 20
80.39261169433594
 30
0.0
 70
0
  0
VERTEX
  5
378
  8
CUT
 10
36.76543443799019
 20
80.35890464782716
 30
0.0
 70
0
  0
VERTEX
  5
379
  8
CUT
 10
40.00000000000001
 20
80.2
 30
0.0
 70
0
  0
VERTEX
  5
37A
  8
CUT
 10
40.68611996769906
 20
80.23370704650878
 30
0.0
 70
0
  0
VERTEX
  5
37B
  8
CUT
 10
43.92068552970886
 20
80.39261169433594
 30
0.0
 70
0
  0
VERTEX
  5
37C
  8
CUT
 10
44.60019778609276
 20
80.49340772628784
 30
0.0
 70
0
  0
VERTEX
  5
37D
  8
CUT
 10
47.80361270904541
 20
80.9685890197754
 30
0.0
 70
0
  0
VERTEX
  5
37E
  8
CUT
 10
48.46997325420379
 20
81.13550338745117
 30
0.0
 70
0
  0
VERTEX
  5
37F
  8
CUT
 10
51.61138725280762
 20
81.92238540649414
 30
0.0
 70
0
  0
VERTEX
  5
380
  8
CUT
 10
52.25817859172821
 20
82.1538112640381
 30
0.0
 70
0
  0
VERTEX
  5
381
  8
CUT
 10
55.30733776092529
 20
83.24481887817383
 30
0.0
 70
0
  0
VERTEX
  5
382
  8
CUT
 10
55.92833077907562
 20
83.53852653503418
 30
0.0
 70
0
  0
VERTEX
  5
383
  8
CUT
 10
58.85586929321289
 20
84.92314834594727
 30
0.0
 70
0
  0
VERTEX
  5
384
  8
CUT
 10
59.445083713531496
 20
85.27630996704102
 30
0.0
 70
0
  0
VERTEX
  5
385
  8
CUT
 10
62.222808837890625
 20
86.94121475219727
 30
0.0
 70
0
  0
VERTEX
  5
386
  8
CUT
 10
62.77457013130188
 20
87.35042905807495
 30
0.0
 70
0
  0
VERTEX
  5
387
  8
CUT
 10
65.37573051452637
 20
89.27958221435547
 30
0.0
 70
0
  0
VERTEX
  5
388
  8
CUT
 10
65.88472514152527
 20
89.74090785980225
 30
0.0
 70
0
  0
VERTEX
  5
389
  8
CUT
 10
68.28427124023438
 20
91.91572875976563
 30
0.0
 70
0
  0
VERTEX
  5
38A
  8
CUT
 10
68.74559688568115
 20
92.42472338676453
 30
0.0
 70
0
  0
VERTEX
  5
38B
  8
CUT
 10
70.92041778564453
 20
94.82426948547364
 30
0.0
 70
0
  0
VERTEX
  5
38C
  8
CUT
 10
71.32963209152221
 20
95.37603077888488
 30
0.0
 70
0
  0
VERTEX
  5
38D
  8
CUT
 10
73.25878524780273
 20
97.97719116210938
 30
0.0
 70
0
  0
VERTEX
  5
38E
  8
CUT
 10
73.61194686889648
 20
98.56640558242799
 30
0.0
 70
0
  0
VERTEX
  5
38F
  8
CUT
 10
75.27685165405273
 20
101.34413070678711
 30
0.0
 70
0
  0
VERTEX
  5
390
  8
CUT
 10
75.57055931091308
 20
101.96512372493744
 30
0.0
 70
0
  0
VERTEX
  5
391
  8
CUT
 10
76.95518112182617
 20
104.89266223907471
 30
0.0
 70
0
  0
VERTEX
  5
392
  8
CUT
 10
77.18660697937011
 20
105.5394535779953
 30
0.0
 70
0
  0
VERTEX
  5
393
  8
CUT
 10
78.27761459350586
 20
108.58861274719239
 30
0.0
 70
0
  0
VERTEX
  5
394
  8
CUT
 10
78.44452896118165
 20
109.25497329235077
 30
0.0
 70
0
  0
VERTEX
  5
395
  8
CUT
 10
79.23141098022461
 20
112.39638729095459
 30
0.0
 70
0
  0
VERTEX
  5
396
  8
CUT
 10
79.33220701217651
 20
113.0758995473385
 30
0.0
 70
0
  0
VERTEX
  5
397
  8
CUT
 10
79.80738830566406
 20
116.27931447029114
 30
0.0
 70
0
  0
VERTEX
  5
398
  8
CUT
 10
79.84109535217286
 20
116.9654344379902
 30
0.0
 70
0
  0
SEQEND
  5
318
  8
CUT
  0
POLYLINE
  5
399
  8
CUT
 66
1
 10
0.0
 20
0.0
 30
0.0
 70
1
  0
VERTEX
  5
39B
  8
CUT
 10
33.0
 20
88.2
 30
0.0
 70
0
  0
VERTEX
  5
39C
  8
CUT
 10
32.94235584120969
 20
87.61472903395162
 30
0.0
 70
0
  0
VERTEX
  5
39D
  8
CUT
 10
32.77163859753386
 20
87.05194970290474
 30
0.0
 70
0
  0
VERTEX
  5
39E
  8
CUT
 10
32.49440883690764
 20
86.53328930094119
 30
0.0
 70
0
  0
VERTEX
  5
39F
  8
CUT
 10
32.121320343559645
 20
86.07867965644036
 30
0.0
 70
0
  0
VERTEX
  5
3A0
  8
CUT
 10
31.666710699058807
 20
85.70559116309236
 30
0.0
 70
0
  0
VERTEX
  5
3A1
  8
CUT
 10
31.148050297095267
 20
85.42836140246615
 30
0.0
 70
0
  0
VERTEX
  5
3A2
  8
CUT
 10
30.585270966048384
 20
85.25764415879031
 30
0.0
 70
0
  0
VERTEX
  5
3A3
  8
CUT
 10
30.0
 20
85.2
 30
0.0
 70
0
  0
VERTEX
  5
3A4
  8
CUT
 10
29.414729033951616
 20
85.25764415879031
 30
0.0
 70
0
  0
VERTEX
  5
3A5
  8
CUT
 10
28.851949702904733
 20
85.42836140246615
 30
0.0
 70
0
  0
VERTEX
  5
3A6
  8
CUT
 10
28.333289300941196
 20
85.70559116309236
 30
0.0
 70
0
  0
VERTEX
  5
3A7
  8
CUT
 10
27.878679656440358
 20
86.07867965644036
 30
0.0
 70
0
  0
VERTEX
  5
3A8
  8
CUT
 10
27.50559116309236
 20
86.53328930094119
 30
0.0
 70
0
  0
VERTEX
  5
3A9
  8
CUT
 10
27.228361402466142
 20
87.05194970290474
 30
0.0
 70
0
  0
VERTEX
  5
3AA
  8
CUT
 10
27.05764415879031
 20
87.61472903395162
 30
0.0
 70
0
  0
VERTEX
  5
3AB
  8
CUT
 10
27.0
 20
88.2
 30
0.0
 70
0
  0
VERTEX
  5
3AC
  8
CUT
 10
27.05764415879031
 20
88.78527096604839
 30
0.0
 70
0
  0
VERTEX
  5
3AD
  8
CUT
 10
27.228361402466142
 20
89.34805029709527
 30
0.0
 70
0
  0
VERTEX
  5
3AE
  8
CUT
 10
27.50559116309236
 20
89.86671069905881
 30
0.0
 70
0
  0
VERTEX
  5
3AF
  8
CUT
 10
27.878679656440358
 20
90.32132034355965
 30
0.0
 70
0
  0
VERTEX
  5
3B0
  8
CUT
 10
28.333289300941193
 20
90.69440883690764
 30
0.0
 70
0
  0
VERTEX
  5
3B1
  8
CUT
 10
28.85194970290473
 20
90.97163859753385
 30
0.0
 70
0
  0
VERTEX
  5
3B2
  8
CUT
 10
29.414729033951616
 20
91.14235584120969
 30
0.0
 70
0
  0
VERTEX
  5
3B3
  8
CUT
 10
30.0
 20
91.2
 30
0.0
 70
0
  0
VERTEX
  5
3B4
  8
CUT
 10
30.585270966048384
 20
91.14235584120969
 30
0.0
 70
0
  0
VERTEX
  5
3B5
  8
CUT
 10
31.14805029709527
 20
90.97163859753385
 30
0.0
 70
0
  0
VERTEX
  5
3B6
  8
CUT
 10
31.666710699058804
 20
90.69440883690764
 30
0.0
 70
0
  0
VERTEX
  5
3B7
  8
CUT
 10
32.121320343559645
 20
90.32132034355965
 30
0.0
 70
0
  0
VERTEX
  5
3B8
  8
CUT
 10
32.49440883690764
 20
89.86671069905881
 30
0.0
 70
0
  0
VERTEX
  5
3B9
  8
CUT
 10
32.77163859753386
 20
89.34805029709527
 30
0.0
 70
0
  0
VERTEX
  5
3BA
  8
CUT
 10
32.94235584120969
 20
88.78527096604839
 30
0.0
 70
0
  0
SEQEND
  5
39A
  8
CUT
  0
POLYLINE
  5
3BB
  8
CUT
 66
1
 10
0.0
 20
0.0
 30
0.0
 70
1
  0
VERTEX
  5
3BD
  8
CUT
 10
53.0
 20
152.2
 30
0.0
 70
0
  0
VERTEX
  5
3BE
  8
CUT
 10
52.94235584120969
 20
151.61472903395162
 30
0.0
 70
0
  0
VERTEX
  5
3BF
  8
CUT
 10
52.77163859753386
 20
151.05194970290472
 30
0.0
 70
0
  0
VERTEX
  5
3C0
  8
CUT
 10
52.49440883690764
 20
150.5332893009412
 30
0.0
 70
0
  0
VERTEX
  5
3C1
  8
CUT
 10
52.121320343559645
 20
150.07867965644036
 30
0.0
 70
0
  0
VERTEX
  5
3C2
  8
CUT
 10
51.66671069905881
 20
149.70559116309238
 30
0.0
 70
0
  0
VERTEX
  5
3C3
  8
CUT
 10
51.14805029709527
 20
149.42836140246615
 30
0.0
 70
0
  0
VERTEX
  5
3C4
  8
CUT
 10
50.585270966048384
 20
149.2576441587903
 30
0.0
 70
0
  0
VERTEX
  5
3C5
  8
CUT
 10
50.0
 20
149.2
 30
0.0
 70
0
  0
VERTEX
  5
3C6
  8
CUT
 10
49.414729033951616
 20
149.2576441587903
 30
0.0
 70
0
  0
VERTEX
  5
3C7
  8
CUT
 10
48.85194970290473
 20
149.42836140246615
 30
0.0
 70
0
  0
VERTEX
  5
3C8
  8
CUT
 10
48.333289300941196
 20
149.70559116309238
 30
0.0
 70
0
  0
VERTEX
  5
3C9
  8
CUT
 10
47.87867965644036
 20
150.07867965644036
 30
0.0
 70
0
  0
VERTEX
  5
3CA
  8
CUT
 10
47.50559116309236
 20
150.5332893009412
 30
0.0
 70
0
  0
VERTEX
  5
3CB
  8
CUT
 10
47.22836140246614
 20
151.05194970290472
 30
0.0
 70
0
  0
VERTEX
  5
3CC
  8
CUT
 10
47.05764415879031
 20
151.61472903395162
 30
0.0
 70
0
  0
VERTEX
  5
3CD
  8
CUT
 10
47.0
 20
152.2
 30
0.0
 70
0
  0
VERTEX
  5
3CE
  8
CUT
 10
47.05764415879031
 20
152.7852709660484
 30
0.0
 70
0
  0
VERTEX
  5
3CF
  8
CUT
 10
47.22836140246614
 20
153.34805029709526
 30
0.0
 70
0
  0
VERTEX
  5
3D0
  8
CUT
 10
47.50559116309236
 20
153.8667106990588
 30
0.0
 70
0
  0
VERTEX
  5
3D1
  8
CUT
 10
47.878679656440355
 20
154.32132034355965
 30
0.0
 70
0
  0
VERTEX
  5
3D2
  8
CUT
 10
48.33328930094119
 20
154.69440883690766
 30
0.0
 70
0
  0
VERTEX
  5
3D3
  8
CUT
 10
48.85194970290473
 20
154.97163859753385
 30
0.0
 70
0
  0
VERTEX
  5
3D4
  8
CUT
 10
49.414729033951616
 20
155.14235584120968
 30
0.0
 70
0
  0
VERTEX
  5
3D5
  8
CUT
 10
50.0
 20
155.2
 30
0.0
 70
0
  0
VERTEX
  5
3D6
  8
CUT
 10
50.585270966048384
 20
155.14235584120968
 30
0.0
 70
0
  0
VERTEX
  5
3D7
  8
CUT
 10
51.14805029709527
 20
154.97163859753385
 30
0.0
 70
0
  0
VERTEX
  5
3D8
  8
CUT
 10
51.666710699058804
 20
154.69440883690766
 30
0.0
 70
0
  0
VERTEX
  5
3D9
  8
CUT
 10
52.121320343559645
 20
154.32132034355965
 30
0.0
 70
0
  0
VERTEX
  5
3DA
  8
CUT
 10
52.49440883690764
 20
153.8667106990588
 30
0.0
 70
0
  0
VERTEX
  5
3DB
  8
CUT
 10
52.77163859753386
 20
153.34805029709528
 30
0.0
 70
0
  0
VERTEX
  5
3DC
  8
CUT
 10
52.94235584120969
 20
152.7852709660484
 30
0.0
 70
0
  0
SEQEND
  5
3BC
  8
CUT
  0
POLYLINE
  5
3DD
  8
CUT
 66
1
 10
0.0
 20
0.0
 30
0.0
 70
1
  0
VERTEX
  5
3DF
  8
CUT
 10
75.0
 20
110.2
 30
0.0
 70
0
  0
VERTEX
  5
3E0
  8
CUT
 10
74.94235584120969
 20
109.61472903395162
 30
0.0
 70
0
  0
VERTEX
  5
3E1
  8
CUT
 10
74.77163859753387
 20
109.05194970290474
 30
0.0
 70
0
  0
VERTEX
  5
3E2
  8
CUT
 10
74.49440883690764
 20
108.53328930094119
 30
0.0
 70
0
  0
VERTEX
  5
3E3
  8
CUT
 10
74.12132034355965
 20
108.07867965644036
 30
0.0
 70
0
  0
VERTEX
  5
3E4
  8
CUT
 10
73.6667106990588
 20
107.70559116309236
 30
0.0
 70
0
  0
VERTEX
  5
3E5
  8
CUT
 10
73.14805029709527
 20
107.42836140246614
 30
0.0
 70
0
  0
VERTEX
  5
3E6
  8
CUT
 10
72.58527096604838
 20
107.25764415879031
 30
0.0
 70
0
  0
VERTEX
  5
3E7
  8
CUT
 10
72.0
 20
107.2
 30
0.0
 70
0
  0
VERTEX
  5
3E8
  8
CUT
 10
71.41472903395162
 20
107.25764415879031
 30
0.0
 70
0
  0
VERTEX
  5
3E9
  8
CUT
 10
70.85194970290473
 20
107.42836140246614
 30
0.0
 70
0
  0
VERTEX
  5
3EA
  8
CUT
 10
70.33328930094119
 20
107.70559116309236
 30
0.0
 70
0
  0
VERTEX
  5
3EB
  8
CUT
 10
69.87867965644035
 20
108.07867965644036
 30
0.0
 70
0
  0
VERTEX
  5
3EC
  8
CUT
 10
69.50559116309236
 20
108.53328930094119
 30
0.0
 70
0
  0
VERTEX
  5
3ED
  8
CUT
 10
69.22836140246613
 20
109.05194970290474
 30
0.0
 70
0
  0
VERTEX
  5
3EE
  8
CUT
 10
69.05764415879031
 20
109.61472903395162
 30
0.0
 70
0
  0
VERTEX
  5
3EF
  8
CUT
 10
69.0
 20
110.2
 30
0.0
 70
0
  0
VERTEX
  5
3F0
  8
CUT
 10
69.05764415879031
 20
110.78527096604839
 30
0.0
 70
0
  0
VERTEX
  5
3F1
  8
CUT
 10
69.22836140246613
 20
111.34805029709527
 30
0.0
 70
0
  0
VERTEX
  5
3F2
  8
CUT
 10
69.50559116309236
 20
111.86671069905881
 30
0.0
 70
0
  0
VERTEX
  5
3F3
  8
CUT
 10
69.87867965644035
 20
112.32132034355965
 30
0.0
 70
0
  0
VERTEX
  5
3F4
  8
CUT
 10
70.33328930094119
 20
112.69440883690764
 30
0.0
 70
0
  0
VERTEX
  5
3F5
  8
CUT
 10
70.85194970290473
 20
112.97163859753387
 30
0.0
 70
0
  0
VERTEX
  5
3F6
  8
CUT
 10
71.41472903395162
 20
113.14235584120969
 30
0.0
 70
0
  0
VERTEX
  5
3F7
  8
CUT
 10
72.0
 20
113.2
 30
0.0
 70
0
  0
VERTEX
  5
3F8
  8
CUT
 10
72.58527096604838
 20
113.14235584120969
 30
0.0
 70
0
  0
VERTEX
  5
3F9
  8
CUT
 10
73.14805029709527
 20
112.97163859753387
 30
0.0
 70
0
  0
VERTEX
  5
3FA
  8
CUT
 10
73.6667106990588
 20
112.69440883690764
 30
0.0
 70
0
  0
VERTEX
  5
3FB
  8
CUT
 10
74.12132034355965
 20
112.32132034355965
 30
0.0
 70
0
  0
VERTEX
  5
3FC
  8
CUT
 10
74.49440883690764
 20
111.86671069905881
 30
0.0
 70
0
  0
VERTEX
  5
3FD
  8
CUT
 10
74.77163859753387
 20
111.34805029709527
 30
0.0
 70
0
  0
VERTEX
  5
3FE
  8
CUT
 10
74.94235584120969
 20
110.78527096604839
 30
0.0
 70
0
  0
SEQEND
  5
3DE
  8
CUT
  0
POLYLINE
  5
3FF
  8
ENGRAVE
 66
1
 10
0.0
 20
0.0
 30
0.0
 70
0
  0
VERTEX
  5
401
  8
ENGRAVE
 10
55.0
 20
145.2
 30
0.0
 70
0
  0
VERTEX
  5
402
  8
ENGRAVE
 10
60.0
 20
145.2
 30
0.0
 70
0
  0
SEQEND
  5
400
  8
ENGRAVE
  0
POLYLINE
  5
403
  8
ENGRAVE
 66
1
 10
0.0
 20
0.0
 30
0.0
 70
0
  0
VERTEX
  5
405
  8
ENGRAVE
 10
60.0
 20
145.2
 30
0.0
 70
0
  0
VERTEX
  5
406
  8
ENGRAVE
 10
60.0
 20
151.2
 30
0.0
 70
0
  0
SEQEND
  5
404
  8
ENGRAVE
  0
POLYLINE
  5
407
  8
ENGRAVE
 66
1
 10
0.0
 20
0.0
 30
0.0
 70
0
  0
VERTEX
  5
409
  8
ENGRAVE
 10
55.0
 20
151.2
 30
0.0
 70
0
  0
VERTEX
  5
40A
  8
ENGRAVE
 10
60.0
 20
151.2
 30
0.0
 70
0
  0
SEQEND
  5
408
  8
ENGRAVE
  0
POLYLINE
  5
40B
  8
ENGRAVE
 66
1
 10
0.0
 20
0.0
 30
0.0
 70
0
  0
VERTEX
  5
40D
  8
ENGRAVE
 10
60.0
 20
151.2
 30
0.0
 70
0
  0
VERTEX
  5
40E
  8
ENGRAVE
 10
65.0
 20
151.2
 30
0.0
 70
0
  0
SEQEND
  5
40C
  8
ENGRAVE
  0
POLYLINE
  5
40F
  8
CUT
 66
1
 10
0.0
 20
0.0
 30
0.0
 70
1
  0
VERTEX
  5
411
  8
CUT
 10
160.2
 20
120.2
 30
0.0
 70
0
  0
VERTEX
  5
412
  8
CUT
 10
160.15666236877442
 20
121.0821542441845
 30
0.0
 70
0
  0
VERTEX
  5
413
  8
CUT
 10
160.00738830566405
 20
124.12068552970887
 30
0.0
 70
0
  0
VERTEX
  5
414
  8
CUT
 10
159.87779340744018
 20
124.99434414505959
 30
0.0
 70
0
  0
VERTEX
  5
415
  8
CUT
 10
159.4314109802246
 20
128.0036127090454
 30
0.0
 70
0
  0
VERTEX
  5
416
  8
CUT
 10
159.2168067932129
 20
128.86036198139192
 30
0.0
 70
0
  0
VERTEX
  5
417
  8
CUT
 10
158.47761459350585
 20
131.8113872528076
 30
0.0
 70
0
  0
VERTEX
  5
418
  8
CUT
 10
158.18006706237793
 20
132.64297611713408
 30
0.0
 70
0
  0
VERTEX
  5
419
  8
CUT
 10
157.15518112182616
 20
135.50733776092528
 30
0.0
 70
0
  0
VERTEX
  5
41A
  8
CUT
 10
156.77755699157714
 20
136.30575735569
 30
0.0
 70
0
  0
VERTEX
  5
41B
  8
CUT
 10
155.47685165405272
 20
139.05586929321288
 30
0.0
 70
0
  0
VERTEX
  5
41C
  8
CUT
 10
155.02278671264648
 20
139.8134306907654
 30
0.0
 70
0
  0
VERTEX
  5
41D
  8
CUT
 10
153.45878524780272
 20
142.4228088378906
 30
0.0
 70
0
  0
VERTEX
  5
41E
  8
CUT
 10
152.93265256881713
 20
143.13221621513367
 30
0.0
 70
0
  0
VERTEX
  5
41F
  8
CUT
 10
151.12041778564452
 20
145.57573051452636
 30
0.0
 70
0
  0
VERTEX
  5
420
  8
CUT
 10
150.52728481292723
 20
146.23015217781068
 30
0.0
 70
0
  0
VERTEX
  5
421
  8
CUT
 10
148.48427124023436
 20
148.48427124023436
 30
0.0
 70
0
  0
VERTEX
  5
422
  8
CUT
 10
147.82984957695007
 20
149.07740421295165
 30
0.0
 70
0
  0
VERTEX
  5
423
  8
CUT
 10
145.57573051452636
 20
151.12041778564452
 30
0.0
 70
0
  0
VERTEX
  5
424
  8
CUT
 10
144.86632313728333
 20
151.64655046463014
 30
0.0
 70
0
  0
VERTEX
  5
425
  8
CUT
 10
142.4228088378906
 20
153.45878524780272
 30
0.0
 70
0
  0
VERTEX
  5
426
  8
CUT
 10
141.66524744033813
 20
153.912850189209
 30
0.0
 70
0
  0
VERTEX
  5
427
  8
CUT
 10
139.05586929321288
 20
155.47685165405272
 30
0.0
 70
0
  0
VERTEX
  5
428
  8
CUT
 10
138.25744969844817
 20
155.85447578430177
 30
0.0
 70
0
  0
VERTEX
  5
429
  8
CUT
 10
135.50733776092528
 20
157.15518112182616
 30
0.0
 70
0
  0
VERTEX
  5
42A
  8
CUT
 10
134.6757488965988
 20
157.4527286529541
 30
0.0
 70
0
  0
VERTEX
  5
42B
  8
CUT
 10
131.8113872528076
 20
158.47761459350585
 30
0.0
 70
0
  0
VERTEX
  5
42C
  8
CUT
 10
130.95463798046111
 20
158.69221878051758
 30
0.0
 70
0
  0
VERTEX
  5
42D
  8
CUT
 10
128.0036127090454
 20
159.4314109802246
 30
0.0
 70
0
  0
VERTEX
  5
42E
  8
CUT
 10
127.12995409369469
 20
159.5610058784485
 30
0.0
 70
0
  0
VERTEX
  5
42F
  8
CUT
 10
124.12068552970887
 20
160.00738830566405
 30
0.0
 70
0
  0
VERTEX
  5
430
  8
CUT
 10
123.23853128552437
 20
160.05072593688965
 30
0.0
 70
0
  0
VERTEX
  5
431
  8
CUT
 10
120.2
 20
160.2
 30
0.0
 70
0
  0
VERTEX
  5
432
  8
CUT
 10
119.31784575581551
 20
160.15666236877442
 30
0.0
 70
0
  0
VERTEX
  5
433
  8
CUT
 10
116.27931447029114
 20
160.00738830566405
 30
0.0
 70
0
  0
VERTEX
  5
434
  8
CUT
 10
115.40565585494042
 20
159.87779340744018
 30
0.0
 70
0
  0
VERTEX
  5
435
  8
CUT
 10
112.39638729095459
 20
159.4314109802246
 30
0.0
 70
0
  0
VERTEX
  5
436
  8
CUT
 10
111.53963801860809
 20
159.2168067932129
 30
0.0
 70
0
  0
VERTEX
  5
437
  8
CUT
 10
108.58861274719239
 20
158.47761459350585
 30
0.0
 70
0
  0
VERTEX
  5
438
  8
CUT
 10
107.75702388286591
 20
158.18006706237793
 30
0.0
 70
0
  0
VERTEX
  5
439
  8
CUT
 10
104.89266223907471
 20
157.15518112182616
 30
0.0
 70
0
  0
VERTEX
  5
43A
  8
CUT
 10
104.09424264431
 20
156.77755699157714
 30
0.0
 70
0
  0
VERTEX
  5
43B
  8
CUT
 10
101.34413070678711
 20
155.47685165405272
 30
0.0
 70
0
  0
VERTEX
  5
43C
  8
CUT
 10
100.58656930923462
 20
155.02278671264648
 30
0.0
 70
0
  0
VERTEX
  5
43D
  8
CUT
 10
97.97719116210938
 20
153.45878524780272
 30
0.0
 70
0
  0
VERTEX
  5
43E
  8
CUT
 10
97.26778378486634
 20
152.93265256881713
 30
0.0
 70
0
  0
VERTEX
  5
43F
  8
CUT
 10
94.82426948547364
 20
151.12041778564452
 30
0.0
 70
0
  0
VERTEX
  5
440
  8
CUT
 10
94.16984782218933
 20
150.52728481292723
 30
0.0
 70
0
  0
VERTEX
  5
441
  8
CUT
 10
91.91572875976563
 20
148.48427124023436
 30
0.0
 70
0
  0
VERTEX
  5
442
  8
CUT
 10
91.32259578704834
 20
147.82984957695007
 30
0.0
 70
0
  0
VERTEX
  5
443
  8
CUT
 10
89.27958221435547
 20
145.57573051452636
 30
0.0
 70
0
  0
VERTEX
  5
444
  8
CUT
 10
88.75344953536987
 20
144.86632313728333
 30
0.0
 70
0
  0
VERTEX
  5
445
  8
CUT
 10
86.94121475219727
 20
142.4228088378906
 30
0.0
 70
0
  0
VERTEX
  5
446
  8
CUT
 10
86.48714981079101
 20
141.66524744033813
 30
0.0
 70
0
  0
VERTEX
  5
447
  8
CUT
 10
84.92314834594727
 20
139.05586929321288
 30
0.0
 70
0
  0
VERTEX
  5
448
  8
CUT
 10
84.54552421569824
 20
138.25744969844817
 30
0.0
 70
0
  0
VERTEX
  5
449
  8
CUT
 10
83.24481887817383
 20
135.50733776092528
 30
0.0
 70
0
  0
VERTEX
  5
44A
  8
CUT
 10
82.9472713470459
 20
134.6757488965988
 30
0.0
 70
0
  0
VERTEX
  5
44B
  8
CUT
 10
81.92238540649414
 20
131.8113872528076
 30
0.0
 70
0
  0
VERTEX
  5
44C
  8
CUT
 10
81.70778121948243
 20
130.95463798046111
 30
0.0
 70
0
  0
VERTEX
  5
44D
  8
CUT
 10
80.9685890197754
 20
128.0036127090454
 30
0.0
 70
0
  0
VERTEX
  5
44E
  8
CUT
 10
80.83899412155151
 20
127.12995409369469
 30
0.0
 70
0
  0
VERTEX
  5
44F
  8
CUT
 10
80.39261169433594
 20
124.12068552970887
 30
0.0
 70
0
  0
VERTEX
  5
450
  8
CUT
 10
80.34927406311036
 20
123.23853128552437
 30
0.0
 70
0
  0
VERTEX
  5
451
  8
CUT
 10
80.2
 20
120.19999999999999
 30
0.0
 70
0
  0
VERTEX
  5
452
  8
CUT
 10
80.24333763122559
 20
119.3178457558155
 30
0.0
 70
0
  0
VERTEX
  5
453
  8
CUT
 10
80.39261169433594
 20
116.27931447029114
 30
0.0
 70
0
  0
VERTEX
  5
454
  8
CUT
 10
80.52220659255983
 20
115.40565585494042
 30
0.0
 70
0
  0
VERTEX
  5
455
  8
CUT
 10
80.9685890197754
 20
112.39638729095459
 30
0.0
 70
0
  0
VERTEX
  5
456
  8
CUT
 10
81.18319320678711
 20
111.53963801860809
 30
0.0
 70
0
  0
VERTEX
  5
457
  8
CUT
 10
81.92238540649414
 20
108.58861274719239
 30
0.0
 70
0
  0
VERTEX
  5
458
  8
CUT
 10
82.21993293762208
 20
107.75702388286591
 30
0.0
 70
0
  0
VERTEX
  5
459
  8
CUT
 10
83.24481887817383
 20
104.89266223907471
 30
0.0
 70
0
  0
VERTEX
  5
45A
  8
CUT
 10
83.62244300842286
 20
104.09424264431
 30
0.0
 70
0
  0
VERTEX
  5
45B
  8
CUT
 10
84.92314834594727
 20
101.34413070678711
 30
0.0
 70
0
  0
VERTEX
  5
45C
  8
CUT
 10
85.37721328735353
 20
100.58656930923462
 30
0.0
 70
0
  0
VERTEX
  5
45D
  8
CUT
 10
86.94121475219727
 20
97.97719116210938
 30
0.0
 70
0
  0
VERTEX
  5
45E
  8
CUT
 10
87.46734743118287
 20
97.26778378486634
 30
0.0
 70
0
  0
VERTEX
  5
45F
  8
CUT
 10
89.27958221435547
 20
94.82426948547364
 30
0.0
 70
0
  0
VERTEX
  5
460
  8
CUT
 10
89.87271518707276
 20
94.16984782218933
 30
0.0
 70
0
  0
VERTEX
  5
461
  8
CUT
 10
91.91572875976563
 20
91.91572875976563
 30
0.0
 70
0
  0
VERTEX
  5
462
  8
CUT
 10
92.57015042304994
 20
91.32259578704834
 30
0.0
 70
0
  0
VERTEX
  5
463
  8
CUT
 10
94.82426948547364
 20
89.27958221435547
 30
0.0
 70
0
  0
VERTEX
  5
464
  8
CUT
 10
95.53367686271667
 20
88.75344953536987
 30
0.0
 70
0
  0
VERTEX
  5
465
  8
CUT
 10
97.97719116210938
 20
86.94121475219727
 30
0.0
 70
0
  0
VERTEX
  5
466
  8
CUT
 10
98.73475255966187
 20
86.48714981079101
 30
0.0
 70
0
  0
VERTEX
  5
467
  8
CUT
 10
101.34413070678711
 20
84.92314834594727
 30
0.0
 70
0
  0
VERTEX
  5
468
  8
CUT
 10
102.14255030155182
 20
84.54552421569824
 30
0.0
 70
0
  0
VERTEX
  5
469
  8
CUT
 10
104.89266223907471
 20
83.24481887817383
 30
0.0
 70
0
  0
VERTEX
  5
46A
  8
CUT
 10
105.72425110340119
 20
82.9472713470459
 30
0.0
 70
0
  0
VERTEX
  5
46B
  8
CUT
 10
108.58861274719239
 20
81.92238540649414
 30
0.0
 70
0
  0
VERTEX
  5
46C
  8
CUT
 10
109.44536201953889
 20
81.70778121948243
 30
0.0
 70
0
  0
VERTEX
  5
46D
  8
CUT
 10
112.39638729095459
 20
80.9685890197754
 30
0.0
 70
0
  0
VERTEX
  5
46E
  8
CUT
 10
113.27004590630531
 20
80.83899412155151
 30
0.0
 70
0
  0
VERTEX
  5
46F
  8
CUT
 10
116.27931447029114
 20
80.39261169433594
 30
0.0
 70
0
  0
VERTEX
  5
470
  8
CUT
 10
117.16146871447563
 20
80.34927406311036
 30
0.0
 70
0
  0
VERTEX
  5
471
  8
CUT
 10
120.2
 20
80.2
 30
0.0
 70
0
  0
VERTEX
  5
472
  8
CUT
 10
121.0821542441845
 20
80.24333763122559
 30
0.0
 70
0
  0
VERTEX
  5
473
  8
CUT
 10
124.12068552970887
 20
80.39261169433594
 30
0.0
 70
0
  0
VERTEX
  5
474
  8
CUT
 10
124.99434414505959
 20
80.52220659255983
 30
0.0
 70
0
  0
VERTEX
  5
475
  8
CUT
 10
128.0036127090454
 20
80.9685890197754
 30
0.0
 70
0
  0
VERTEX
  5
476
  8
CUT
 10
128.86036198139192
 20
81.18319320678711
 30
0.0
 70
0
  0
VERTEX
  5
477
  8
CUT
 10
131.8113872528076
 20
81.92238540649414
 30
0.0
 70
0
  0
VERTEX
  5
478
  8
CUT
 10
132.64297611713408
 20
82.21993293762208
 30
0.0
 70
0
  0
VERTEX
  5
479
  8
CUT
 10
135.50733776092528
 20
83.24481887817383
 30
0.0
 70
0
  0
VERTEX
  5
47A
  8
CUT
 10
136.30575735569
 20
83.62244300842286
 30
0.0
 70
0
  0
VERTEX
  5
47B
  8
CUT
 10
139.05586929321288
 20
84.92314834594727
 30
0.0
 70
0
  0
VERTEX
  5
47C
  8
CUT
 10
139.8134306907654
 20
85.37721328735353
 30
0.0
 70
0
  0
VERTEX
  5
47D
  8
CUT
 10
142.4228088378906
 20
86.94121475219727
 30
0.0
 70
0
  0
VERTEX
  5
47E
  8
CUT
 10
143.13221621513367
 20
87.46734743118287
 30
0.0
 70
0
  0
VERTEX
  5
47F
  8
CUT
 10
145.57573051452636
 20
89.27958221435547
 30
0.0
 70
0
  0
VERTEX
  5
480
  8
CUT
 10
146.23015217781068
 20
89.87271518707276
 30
0.0
 70
0
  0
VERTEX
  5
481
  8
CUT
 10
148.48427124023436
 20
91.91572875976563
 30
0.0
 70
0
  0
VERTEX
  5
482
  8
CUT
 10
149.07740421295165
 20
92.57015042304994
 30
0.0
 70
0
  0
VERTEX
  5
483
  8
CUT
 10
151.12041778564452
 20
94.82426948547364
 30
0.0
 70
0
  0
VERTEX
  5
484
  8
CUT
 10
151.64655046463014
 20
95.53367686271667
 30
0.0
 70
0
  0
VERTEX
  5
485
  8
CUT
 10
153.45878524780272
 20
97.97719116210938
 30
0.0
 70
0
  0
VERTEX
  5
486
  8
CUT
 10
153.912850189209
 20
98.73475255966187
 30
0.0
 70
0
  0
VERTEX
  5
487
  8
CUT
 10
155.47685165405272
 20
101.34413070678711
 30
0.0
 70
0
  0
VERTEX
  5
488
  8
CUT
 10
155.85447578430177
 20
102.14255030155182
 30
0.0
 70
0
  0
VERTEX
  5
489
  8
CUT
 10
157.15518112182616
 20
104.89266223907471
 30
0.0
 70
0
  0
VERTEX
  5
48A
  8
CUT
 10
157.4527286529541
 20
105.72425110340119
 30
0.0
 70
0
  0
VERTEX
  5
48B
  8
CUT
 10
158.47761459350585
 20
108.58861274719239
 30
0.0
 70
0
  0
VERTEX
  5
48C
  8
CUT
 10
158.69221878051758
 20
109.44536201953889
 30
0.0
 70
0
  0
VERTEX
  5
48D
  8
CUT
 10
159.4314109802246
 20
112.39638729095459
 30
0.0
 70
0
  0
VERTEX
  5
48E
  8
CUT
 10
159.5610058784485
 20
113.27004590630531
 30
0.0
 70
0
  0
VERTEX
  5
48F
  8
CUT
 10
160.00738830566405
 20
116.27931447029114
 30
0.0
 70
0
  0
VERTEX
  5
490
  8
CUT
 10
160.05072593688965
 20
117.16146871447563
 30
0.0
 70
0
  0
SEQEND
  5
410
  8
CUT
  0
POLYLINE
  5
491
  8
CUT
 66
1
 10
0.0
 20
0.0
 30
0.0
 70
1
  0
VERTEX
  5
493
  8
CUT
 10
113.2
 20
88.2
 30
0.0
 70
0
  0
VERTEX
  5
494
  8
CUT
 10
113.14235584120969
 20
87.61472903395162
 30
0.0
 70
0
  0
VERTEX
  5
495
  8
CUT
 10
112.97163859753387
 20
87.05194970290474
 30
0.0
 70
0
  0
VERTEX
  5
496
  8
CUT
 10
112.69440883690764
 20
86.53328930094119
 30
0.0
 70
0
  0
VERTEX
  5
497
  8
CUT
 10
112.32132034355965
 20
86.07867965644036
 30
0.0
 70
0
  0
VERTEX
  5
498
  8
CUT
 10
111.86671069905881
 20
85.70559116309236
 30
0.0
 70
0
  0
VERTEX
  5
499
  8
CUT
 10
111.34805029709527
 20
85.42836140246615
 30
0.0
 70
0
  0
VERTEX
  5
49A
  8
CUT
 10
110.78527096604839
 20
85.25764415879031
 30
0.0
 70
0
  0
VERTEX
  5
49B
  8
CUT
 10
110.2
 20
85.2
 30
0.0
 70
0
  0
VERTEX
  5
49C
  8
CUT
 10
109.61472903395162
 20
85.25764415879031
 30
0.0
 70
0
  0
VERTEX
  5
49D
  8
CUT
 10
109.05194970290474
 20
85.42836140246615
 30
0.0
 70
0
  0
VERTEX
  5
49E
  8
CUT
 10
108.53328930094119
 20
85.70559116309236
 30
0.0
 70
0
  0
VERTEX
  5
49F
  8
CUT
 10
108.07867965644036
 20
86.07867965644036
 30
0.0
 70
0
  0
VERTEX
  5
4A0
  8
CUT
 10
107.70559116309236
 20
86.53328930094119
 30
0.0
 70
0
  0
VERTEX
  5
4A1
  8
CUT
 10
107.42836140246614
 20
87.05194970290474
 30
0.0
 70
0
  0
VERTEX
  5
4A2
  8
CUT
 10
107.25764415879031
 20
87.61472903395162
 30
0.0
 70
0
  0
VERTEX
  5
4A3
  8
CUT
 10
107.2
 20
88.2
 30
0.0
 70
0
  0
VERTEX
  5
4A4
  8
CUT
 10
107.25764415879031
 20
88.78527096604839
 30
0.0
 70
0
  0
VERTEX
  5
4A5
  8
CUT
 10
107.42836140246614
 20
89.34805029709527
 30
0.0
 70
0
  0
VERTEX
  5
4A6
  8
CUT
 10
107.70559116309236
 20
89.86671069905881
 30
0.0
 70
0
  0
VERTEX
  5
4A7
  8
CUT
 10
108.07867965644036
 20
90.32132034355965
 30
0.0
 70
0
  0
VERTEX
  5
4A8
  8
CUT
 10
108.53328930094119
 20
90.69440883690764
 30
0.0
 70
0
  0
VERTEX
  5
4A9
  8
CUT
 10
109.05194970290474
 20
90.97163859753385
 30
0.0
 70
0
  0
VERTEX
  5
4AA
  8
CUT
 10
109.61472903395162
 20
91.14235584120969
 30
0.0
 70
0
  0
VERTEX
  5
4AB
  8
CUT
 10
110.2
 20
91.2
 30
0.0
 70
0
  0
VERTEX
  5
4AC
  8
CUT
 10
110.78527096604839
 20
91.14235584120969
 30
0.0
 70
0
  0
VERTEX
  5
4AD
  8
CUT
 10
111.34805029709527
 20
90.97163859753385
 30
0.0
 70
0
  0
VERTEX
  5
4AE
  8
CUT
 10
111.86671069905881
 20
90.69440883690764
 30
0.0
 70
0
  0
VERTEX
  5
4AF
  8
CUT
 10
112.32132034355965
 20
90.32132034355965
 30
0.0
 70
0
  0
VERTEX
  5
4B0
  8
CUT
 10
112.69440883690764
 20
89.86671069905881
 30
0.0
 70
0
  0
VERTEX
  5
4B1
  8
CUT
 10
112.97163859753387
 20
89.34805029709527
 30
0.0
 70
0
  0
VERTEX
  5
4B2
  8
CUT
 10
113.14235584120969
 20
88.78527096604839
 30
0.0
 70
0
  0
SEQEND
  5
492
  8
CUT
  0
POLYLINE
  5
4B3
  8
CUT
 66
1
 10
0.0
 20
0.0
 30
0.0
 70
1
  0
VERTEX
  5
4B5
  8
CUT
 10
133.2
 20
152.2
 30
0.0
 70
0
  0
VERTEX
  5
4B6
  8
CUT
 10
133.1423558412097
 20
151.61472903395162
 30
0.0
 70
0
  0
VERTEX
  5
4B7
  8
CUT
 10
132.97163859753385
 20
151.05194970290472
 30
0.0
 70
0
  0
VERTEX
  5
4B8
  8
CUT
 10
132.69440883690763
 20
150.5332893009412
 30
0.0
 70
0
  0
VERTEX
  5
4B9
  8
CUT
 10
132.32132034355965
 20
150.07867965644036
 30
0.0
 70
0
  0
VERTEX
  5
4BA
  8
CUT
 10
131.8667106990588
 20
149.70559116309238
 30
0.0
 70
0
  0
VERTEX
  5
4BB
  8
CUT
 10
131.34805029709528
 20
149.42836140246615
 30
0.0
 70
0
  0
VERTEX
  5
4BC
  8
CUT
 10
130.7852709660484
 20
149.2576441587903
 30
0.0
 70
0
  0
VERTEX
  5
4BD
  8
CUT
 10
130.2
 20
149.2
 30
0.0
 70
0
  0
VERTEX
  5
4BE
  8
CUT
 10
129.61472903395162
 20
149.2576441587903
 30
0.0
 70
0
  0
VERTEX
  5
4BF
  8
CUT
 10
129.05194970290472
 20
149.42836140246615
 30
0.0
 70
0
  0
VERTEX
  5
4C0
  8
CUT
 10
128.5332893009412
 20
149.70559116309238
 30
0.0
 70
0
  0
VERTEX
  5
4C1
  8
CUT
 10
128.07867965644036
 20
150.07867965644036
 30
0.0
 70
0
  0
VERTEX
  5
4C2
  8
CUT
 10
127.70559116309236
 20
150.5332893009412
 30
0.0
 70
0
  0
VERTEX
  5
4C3
  8
CUT
 10
127.42836140246614
 20
151.05194970290472
 30
0.0
 70
0
  0
VERTEX
  5
4C4
  8
CUT
 10
127.25764415879031
 20
151.61472903395162
 30
0.0
 70
0
  0
VERTEX
  5
4C5
  8
CUT
 10
127.2
 20
152.2
 30
0.0
 70
0
  0
VERTEX
  5
4C6
  8
CUT
 10
127.25764415879031
 20
152.7852709660484
 30
0.0
 70
0
  0
VERTEX
  5
4C7
  8
CUT
 10
127.42836140246614
 20
153.34805029709526
 30
0.0
 70
0
  0
VERTEX
  5
4C8
  8
CUT
 10
127.70559116309236
 20
153.8667106990588
 30
0.0
 70
0
  0
VERTEX
  5
4C9
  8
CUT
 10
128.07867965644036
 20
154.32132034355965
 30
0.0
 70
0
  0
VERTEX
  5
4CA
  8
CUT
 10
128.5332893009412
 20
154.69440883690766
 30
0.0
 70
0
  0
VERTEX
  5
4CB
  8
CUT
 10
129.05194970290472
 20
154.97163859753385
 30
0.0
 70
0
  0
VERTEX
  5
4CC
  8
CUT
 10
129.61472903395162
 20
155.14235584120968
 30
0.0
 70
0
  0
VERTEX
  5
4CD
  8
CUT
 10
130.2
 20
155.2
 30
0.0
 70
0
  0
VERTEX
  5
4CE
  8
CUT
 10
130.7852709660484
 20
155.14235584120968
 30
0.0
 70
0
  0
VERTEX
  5
4CF
  8
CUT
 10
131.34805029709528
 20
154.97163859753385
 30
0.0
 70
0
  0
VERTEX
  5
4D0
  8
CUT
 10
131.8667106990588
 20
154.69440883690766
 30
0.0
 70
0
  0
VERTEX
  5
4D1
  8
CUT
 10
132.32132034355965
 20
154.32132034355965
 30
0.0
 70
0
  0
VERTEX
  5
4D2
  8
CUT
 10
132.69440883690763
 20
153.8667106990588
 30
0.0
 70
0
  0
VERTEX
  5
4D3
  8
CUT
 10
132.97163859753385
 20
153.34805029709528
 30
0.0
 70
0
  0
VERTEX
  5
4D4
  8
CUT
 10
133.1423558412097
 20
152.7852709660484
 30
0.0
 70
0
  0
SEQEND
  5
4B4
  8
CUT
  0
POLYLINE
  5
4D5
  8
CUT
 66
1
 10
0.0
 20
0.0
 30
0.0
 70
1
  0
VERTEX
  5
4D7
  8
CUT
 10
155.2
 20
110.2
 30
0.0
 70
0
  0
VERTEX
  5
4D8
  8
CUT
 10
155.14235584120968
 20
109.61472903395162
 30
0.0
 70
0
  0
VERTEX
  5
4D9
  8
CUT
 10
154.97163859753385
 20
109.05194970290474
 30
0.0
 70
0
  0
VERTEX
  5
4DA
  8
CUT
 10
154.69440883690766
 20
108.53328930094119
 30
0.0
 70
0
  0
VERTEX
  5
4DB
  8
CUT
 10
154.32132034355965
 20
108.07867965644036
 30
0.0
 70
0
  0
VERTEX
  5
4DC
  8
CUT
 10
153.8667106990588
 20
107.70559116309236
 30
0.0
 70
0
  0
VERTEX
  5
4DD
  8
CUT
 10
153.34805029709526
 20
107.42836140246614
 30
0.0
 70
0
  0
VERTEX
  5
4DE
  8
CUT
 10
152.7852709660484
 20
107.25764415879031
 30
0.0
 70
0
  0
VERTEX
  5
4DF
  8
CUT
 10
152.2
 20
107.2
 30
0.0
 70
0
  0
VERTEX
  5
4E0
  8
CUT
 10
151.61472903395162
 20
107.25764415879031
 30
0.0
 70
0
  0
VERTEX
  5
4E1
  8
CUT
 10
151.05194970290472
 20
107.42836140246614
 30
0.0
 70
0
  0
VERTEX
  5
4E2
  8
CUT
 10
150.5332893009412
 20
107.70559116309236
 30
0.0
 70
0
  0
VERTEX
  5
4E3
  8
CUT
 10
150.07867965644036
 20
108.07867965644036
 30
0.0
 70
0
  0
VERTEX
  5
4E4
  8
CUT
 10
149.70559116309238
 20
108.53328930094119
 30
0.0
 70
0
  0
VERTEX
  5
4E5
  8
CUT
 10
149.42836140246615
 20
109.05194970290474
 30
0.0
 70
0
  0
VERTEX
  5
4E6
  8
CUT
 10
149.2576441587903
 20
109.61472903395162
 30
0.0
 70
0
  0
VERTEX
  5
4E7
  8
CUT
 10
149.2
 20
110.2
 30
0.0
 70
0
  0
VERTEX
  5
4E8
  8
CUT
 10
149.2576441587903
 20
110.78527096604839
 30
0.0
 70
0
  0
VERTEX
  5
4E9
  8
CUT
 10
149.42836140246615
 20
111.34805029709527
 30
0.0
 70
0
  0
VERTEX
  5
4EA
  8
CUT
 10
149.70559116309238
 20
111.86671069905881
 30
0.0
 70
0
  0
VERTEX
  5
4EB
  8
CUT
 10
150.07867965644036
 20
112.32132034355965
 30
0.0
 70
0
  0
VERTEX
  5
4EC
  8
CUT
 10
150.5332893009412
 20
112.69440883690764
 30
0.0
 70
0
  0
VERTEX
  5
4ED
  8
CUT
 10
151.05194970290472
 20
112.97163859753387
 30
0.0
 70
0
  0
VERTEX
  5
4EE
  8
CUT
 10
151.61472903395162
 20
113.14235584120969
 30
0.0
 70
0
  0
VERTEX
  5
4EF
  8
CUT
 10
152.2
 20
113.2
 30
0.0
 70
0
  0
VERTEX
  5
4F0
  8
CUT
 10
152.7852709660484
 20
113.14235584120969
 30
0.0
 70
0
  0
VERTEX
  5
4F1
  8
CUT
 10
153.34805029709526
 20
112.97163859753387
 30
0.0
 70
0
  0
VERTEX
  5
4F2
  8
CUT
 10
153.8667106990588
 20
112.69440883690764
 30
0.0
 70
0
  0
VERTEX
  5
4F3
  8
CUT
 10
154.32132034355965
 20
112.32132034355965
 30
0.0
 70
0
  0
VERTEX
  5
4F4
  8
CUT
 10
154.69440883690766
 20
111.86671069905881
 30
0.0
 70
0
  0
VERTEX
  5
4F5
  8
CUT
 10
154.97163859753385
 20
111.34805029709527
 30
0.0
 70
0
  0
VERTEX
  5
4F6
  8
CUT
 10
155.14235584120968
 20
110.78527096604839
 30
0.0
 70
0
  0
SEQEND
  5
4D6
  8
CUT
  0
POLYLINE
  5
4F7
  8
ENGRAVE
 66
1
 10
0.0
 20
0.0
 30
0.0
 70
0
  0
VERTEX
  5
4F9
  8
ENGRAVE
 10
135.2
 20
145.2
 30
0.0
 70
0
  0
VERTEX
  5
4FA
  8
ENGRAVE
 10
135.2
 20
151.2
 30
0.0
 70
0
  0
SEQEND
  5
4F8
  8
ENGRAVE
  0
POLYLINE
  5
4FB
  8
ENGRAVE
 66
1
 10
0.0
 20
0.0
 30
0.0
 70
0
  0
VERTEX
  5
4FD
  8
ENGRAVE
 10
135.2
 20
145.2
 30
0.0
 70
0
  0
VERTEX
  5
4FE
  8
ENGRAVE
 10
140.2
 20
145.2
 30
0.0
 70
0
  0
SEQEND
  5
4FC
  8
ENGRAVE
  0
POLYLINE
  5
4FF
  8
ENGRAVE
 66
1
 10
0.0
 20
0.0
 30
0.0
 70
0
  0
VERTEX
  5
501
  8
ENGRAVE
 10
140.2
 20
145.2
 30
0.0
 70
0
  0
VERTEX
  5
502
  8
ENGRAVE
 10
140.2
 20
151.2
 30
0.0
 70
0
  0
SEQEND
  5
500
  8
ENGRAVE
  0
POLYLINE
  5
503
  8
ENGRAVE
 66
1
 10
0.0
 20
0.0
 30
0.0
 70
0
  0
VERTEX
  5
505
  8
ENGRAVE
 10
140.2
 20
151.2
 30
0.0
 70
0
  0
VERTEX
  5
506
  8
ENGRAVE
 10
145.2
 20
151.2
 30
0.0
 70
0
  0
SEQEND
  5
504
  8
ENGRAVE
  0
POLYLINE
  5
507
  8
ENGRAVE
 66
1
 10
0.0
 20
0.0
 30
0.0
 70
0
  0
VERTEX
  5
509
  8
ENGRAVE
 10
145.2
 20
145.2
 30
0.0
 70
0
  0
VERTEX
  5
50A
  8
ENGRAVE
 10
145.2
 20
151.2
 30
0.0
 70
0
  0
SEQEND
  5
508
  8
ENGRAVE
  0
POLYLINE
  5
50B
  8
CUT
 66
1
 10
0.0
 20
0.0
 30
0.0
 70
1
  0
VERTEX
  5
50D
  8
CUT
 10
240.4
 20
120.2
 30
0.0
 70
0
  0
VERTEX
  5
50E
  8
CUT
 10
240.3470317840576
 20
121.27818852066994
 30
0.0
 70
0
  0
VERTEX
  5
50F
  8
CUT
 10
240.20738830566407
 20
124.12068552970887
 30
0.0
 70
0
  0
VERTEX
  5
510
  8
CUT
 10
240.0489945411682
 20
125.18849050402642
 30
0.0
 70
0
  0
VERTEX
  5
511
  8
CUT
 10
239.63141098022462
 20
128.0036127090454
 30
0.0
 70
0
  0
VERTEX
  5
512
  8
CUT
 10
239.36911697387694
 20
129.05075070858
 30
0.0
 70
0
  0
VERTEX
  5
513
  8
CUT
 10
238.67761459350587
 20
131.8113872528076
 30
0.0
 70
0
  0
VERTEX
  5
514
  8
CUT
 10
238.31394538879397
 20
132.82777364253997
 30
0.0
 70
0
  0
VERTEX
  5
515
  8
CUT
 10
237.35518112182618
 20
135.50733776092528
 30
0.0
 70
0
  0
VERTEX
  5
516
  8
CUT
 10
236.89364051818848
 20
136.48318393230437
 30
0.0
 70
0
  0
VERTEX
  5
517
  8
CUT
 10
235.67685165405274
 20
139.05586929321288
 30
0.0
 70
0
  0
VERTEX
  5
518
  8
CUT
 10
235.12188339233398
 20
139.98177766799927
 30
0.0
 70
0
  0
VERTEX
  5
519
  8
CUT
 10
233.65878524780274
 20
142.4228088378906
 30
0.0
 70
0
  0
VERTEX
  5
51A
  8
CUT
 10
233.01573419570923
 20
143.28986229896546
 30
0.0
 70
0
  0
VERTEX
  5
51B
  8
CUT
 10
231.32041778564454
 20
145.57573051452636
 30
0.0
 70
0
  0
VERTEX
  5
51C
  8
CUT
 10
230.59547748565674
 20
146.37557921409606
 30
0.0
 70
0
  0
VERTEX
  5
51D
  8
CUT
 10
228.68427124023438
 20
148.48427124023436
 30
0.0
 70
0
  0
VERTEX
  5
51E
  8
CUT
 10
227.88442254066467
 20
149.20921154022216
 30
0.0
 70
0
  0
VERTEX
  5
51F
  8
CUT
 10
225.77573051452637
 20
151.12041778564452
 30
0.0
 70
0
  0
VERTEX
  5
520
  8
CUT
 10
224.90867705345156
 20
151.76346883773803
 30
0.0
 70
0
  0
VERTEX
  5
521
  8
CUT
 10
222.62280883789063
 20
153.45878524780272
 30
0.0
 70
0
  0
VERTEX
  5
522
  8
CUT
 10
221.69690046310424
 20
154.01375350952148
 30
0.0
 70
0
  0
VERTEX
  5
523
  8
CUT
 10
219.2558692932129
 20
155.47685165405272
 30
0.0
 70
0
  0
VERTEX
  5
524
  8
CUT
 10
218.2800231218338
 20
155.93839225769042
 30
0.0
 70
0
  0
VERTEX
  5
525
  8
CUT
 10
215.7073377609253
 20
157.15518112182616
 30
0.0
 70
0
  0
VERTEX
  5
526
  8
CUT
 10
214.69095137119294
 20
157.5188503265381
 30
0.0
 70
0
  0
VERTEX
  5
527
  8
CUT
 10
212.01138725280762
 20
158.47761459350585
 30
0.0
 70
0
  0
VERTEX
  5
528
  8
CUT
 10
210.964249253273
 20
158.73990859985352
 30
0.0
 70
0
  0
VERTEX
  5
529
  8
CUT
 10
208.20361270904542
 20
159.4314109802246
 30
0.0
 70
0
  0
VERTEX
  5
52A
  8
CUT
 10
207.13580773472788
 20
159.58980474472045
 30
0.0
 70
0
  0
VERTEX
  5
52B
  8
CUT
 10
204.32068552970887
 20
160.00738830566405
 30
0.0
 70
0
  0
VERTEX
  5
52C
  8
CUT
 10
203.24249700903894
 20
160.06035652160645
 30
0.0
 70
0
  0
VERTEX
  5
52D
  8
CUT
 10
200.4
 20
160.2
 30
0.0
 70
0
  0
VERTEX
  5
52E
  8
CUT
 10
199.32181147933008
 20
160.14703178405762
 30
0.0
 70
0
  0
VERTEX
  5
52F
  8
CUT
 10
196.47931447029114
 20
160.00738830566405
 30
0.0
 70
0
  0
VERTEX
  5
530
  8
CUT
 10
195.4115094959736
 20
159.84899454116822
 30
0.0
 70
0
  0
VERTEX
  5
531
  8
CUT
 10
192.5963872909546
 20
159.4314109802246
 30
0.0
 70
0
  0
VERTEX
  5
532
  8
CUT
 10
191.54924929141998
 20
159.16911697387695
 30
0.0
 70
0
  0
VERTEX
  5
533
  8
CUT
 10
188.7886127471924
 20
158.47761459350585
 30
0.0
 70
0
  0
VERTEX
  5
534
  8
CUT
 10
187.77222635746003
 20
158.11394538879395
 30
0.0
 70
0
  0
VERTEX
  5
535
  8
CUT
 10
185.0926622390747
 20
157.15518112182616
 30
0.0
 70
0
  0
VERTEX
  5
536
  8
CUT
 10
184.11681606769562
 20
156.6936405181885
 30
0.0
 70
0
  0
VERTEX
  5
537
  8
CUT
 10
181.54413070678712
 20
155.47685165405272
 30
0.0
 70
0
  0
VERTEX
  5
538
  8
CUT
 10
180.61822233200073
 20
154.921883392334
 30
0.0
 70
0
  0
VERTEX
  5
539
  8
CUT
 10
178.17719116210938
 20
153.45878524780272
 30
0.0
 70
0
  0
VERTEX
  5
53A
  8
CUT
 10
177.31013770103456
 20
152.81573419570924
 30
0.0
 70
0
  0
VERTEX
  5
53B
  8
CUT
 10
175.02426948547364
 20
151.12041778564452
 30
0.0
 70
0
  0
VERTEX
  5
53C
  8
CUT
 10
174.22442078590393
 20
150.39547748565673
 30
0.0
 70
0
  0
VERTEX
  5
53D
  8
CUT
 10
172.11572875976563
 20
148.48427124023436
 30
0.0
 70
0
  0
VERTEX
  5
53E
  8
CUT
 10
171.39078845977784
 20
147.68442254066468
 30
0.0
 70
0
  0
VERTEX
  5
53F
  8
CUT
 10
169.47958221435547
 20
145.57573051452636
 30
0.0
 70
0
  0
VERTEX
  5
540
  8
CUT
 10
168.83653116226196
 20
144.70867705345154
 30
0.0
 70
0
  0
VERTEX
  5
541
  8
CUT
 10
167.14121475219727
 20
142.4228088378906
 30
0.0
 70
0
  0
VERTEX
  5
542
  8
CUT
 10
166.58624649047852
 20
141.49690046310425
 30
0.0
 70
0
  0
VERTEX
  5
543
  8
CUT
 10
165.12314834594727
 20
139.05586929321288
 30
0.0
 70
0
  0
VERTEX
  5
544
  8
CUT
 10
164.66160774230957
 20
138.0800231218338
 30
0.0
 70
0
  0
VERTEX
  5
545
  8
CUT
 10
163.44481887817383
 20
135.50733776092528
 30
0.0
 70
0
  0
VERTEX
  5
546
  8
CUT
 10
163.08114967346194
 20
134.49095137119292
 30
0.0
 70
0
  0
VERTEX
  5
547
  8
CUT
 10
162.12238540649415
 20
131.8113872528076
 30
0.0
 70
0
  0
VERTEX
  5
548
  8
CUT
 10
161.86009140014647
 20
130.76424925327302
 30
0.0
 70
0
  0
VERTEX
  5
549
  8
CUT
 10
161.1685890197754
 20
128.0036127090454
 30
0.0
 70
0
  0
VERTEX
  5
54A
  8
CUT
 10
161.01019525527954
 20
126.93580773472786
 30
0.0
 70
0
  0
VERTEX
  5
54B
  8
CUT
 10
160.59261169433594
 20
124.12068552970887
 30
0.0
 70
0
  0
VERTEX
  5
54C
  8
CUT
 10
160.53964347839354
 20
123.04249700903893
 30
0.0
 70
0
  0
VERTEX
  5
54D
  8
CUT
 10
160.4
 20
120.19999999999999
 30
0.0
 70
0
  0
VERTEX
  5
54E
  8
CUT
 10
160.4529682159424
 20
119.12181147933006
 30
0.0
 70
0
  0
VERTEX
  5
54F
  8
CUT
 10
160.59261169433594
 20
116.27931447029114
 30
0.0
 70
0
  0
VERTEX
  5
550
  8
CUT
 10
160.7510054588318
 20
115.21150949597359
 30
0.0
 70
0
  0
VERTEX
  5
551
  8
CUT
 10
161.1685890197754
 20
112.39638729095459
 30
0.0
 70
0
  0
VERTEX
  5
552
  8
CUT
 10
161.43088302612307
 20
111.34924929141998
 30
0.0
 70
0
  0
VERTEX
  5
553
  8
CUT
 10
162.12238540649415
 20
108.58861274719239
 30
0.0
 70
0
  0
VERTEX
  5
554
  8
CUT
 10
162.48605461120604
 20
107.57222635746002
 30
0.0
 70
0
  0
VERTEX
  5
555
  8
CUT
 10
163.44481887817383
 20
104.89266223907471
 30
0.0
 70
0
  0
VERTEX
  5
556
  8
CUT
 10
163.90635948181153
 20
103.91681606769562
 30
0.0
 70
0
  0
VERTEX
  5
557
  8
CUT
 10
165.12314834594727
 20
101.34413070678711
 30
0.0
 70
0
  0
VERTEX
  5
558
  8
CUT
 10
165.67811660766603
 20
100.41822233200074
 30
0.0
 70
0
  0
VERTEX
  5
559
  8
CUT
 10
167.14121475219727
 20
97.97719116210938
 30
0.0
 70
0
  0
VERTEX
  5
55A
  8
CUT
 10
167.78426580429078
 20
97.11013770103455
 30
0.0
 70
0
  0
VERTEX
  5
55B
  8
CUT
 10
169.47958221435547
 20
94.82426948547364
 30
0.0
 70
0
  0
VERTEX
  5
55C
  8
CUT
 10
170.20452251434327
 20
94.02442078590394
 30
0.0
 70
0
  0
VERTEX
  5
55D
  8
CUT
 10
172.11572875976563
 20
91.91572875976563
 30
0.0
 70
0
  0
VERTEX
  5
55E
  8
CUT
 10
172.91557745933534
 20
91.19078845977783
 30
0.0
 70
0
  0
VERTEX
  5
55F
  8
CUT
 10
175.02426948547364
 20
89.27958221435547
 30
0.0
 70
0
  0
VERTEX
  5
560
  8
CUT
 10
175.89132294654846
 20
88.63653116226197
 30
0.0
 70
0
  0
VERTEX
  5
561
  8
CUT
 10
178.17719116210938
 20
86.94121475219727
 30
0.0
 70
0
  0
VERTEX
  5
562
  8
CUT
 10
179.10309953689577
 20
86.38624649047853
 30
0.0
 70
0
  0
VERTEX
  5
563
  8
CUT
 10
181.54413070678712
 20
84.92314834594727
 30
0.0
 70
0
  0
VERTEX
  5
564
  8
CUT
 10
182.5199768781662
 20
84.46160774230958
 30
0.0
 70
0
  0
VERTEX
  5
565
  8
CUT
 10
185.0926622390747
 20
83.24481887817383
 30
0.0
 70
0
  0
VERTEX
  5
566
  8
CUT
 10
186.10904862880707
 20
82.88114967346192
 30
0.0
 70
0
  0
VERTEX
  5
567
  8
CUT
 10
188.7886127471924
 20
81.92238540649414
 30
0.0
 70
0
  0
VERTEX
  5
568
  8
CUT
 10
189.835750746727
 20
81.66009140014648
 30
0.0
 70
0
  0
VERTEX
  5
569
  8
CUT
 10
192.5963872909546
 20
80.9685890197754
 30
0.0
 70
0
  0
VERTEX
  5
56A
  8
CUT
 10
193.66419226527213
 20
80.81019525527955
 30
0.0
 70
0
  0
VERTEX
  5
56B
  8
CUT
 10
196.47931447029114
 20
80.39261169433594
 30
0.0
 70
0
  0
VERTEX
  5
56C
  8
CUT
 10
197.55750299096107
 20
80.33964347839355
 30
0.0
 70
0
  0
VERTEX
  5
56D
  8
CUT
 10
200.4
 20
80.2
 30
0.0
 70
0
  0
VERTEX
  5
56E
  8
CUT
 10
201.47818852066996
 20
80.25296821594239
 30
0.0
 70
0
  0
VERTEX
  5
56F
  8
CUT
 10
204.32068552970887
 20
80.39261169433594
 30
0.0
 70
0
  0
VERTEX
  5
570
  8
CUT
 10
205.3884905040264
 20
80.55100545883178
 30
0.0
 70
0
  0
VERTEX
  5
571
  8
CUT
 10
208.20361270904542
 20
80.9685890197754
 30
0.0
 70
0
  0
VERTEX
  5
572
  8
CUT
 10
209.25075070858003
 20
81.23088302612305
 30
0.0
 70
0
  0
VERTEX
  5
573
  8
CUT
 10
212.01138725280762
 20
81.92238540649414
 30
0.0
 70
0
  0
VERTEX
  5
574
  8
CUT
 10
213.02777364253998
 20
82.28605461120605
 30
0.0
 70
0
  0
VERTEX
  5
575
  8
CUT
 10
215.7073377609253
 20
83.24481887817383
 30
0.0
 70
0
  0
VERTEX
  5
576
  8
CUT
 10
216.6831839323044
 20
83.70635948181152
 30
0.0
 70
0
  0
VERTEX
  5
577
  8
CUT
 10
219.2558692932129
 20
84.92314834594727
 30
0.0
 70
0
  0
VERTEX
  5
578
  8
CUT
 10
220.18177766799928
 20
85.47811660766601
 30
0.0
 70
0
  0
VERTEX
  5
579
  8
CUT
 10
222.62280883789063
 20
86.94121475219727
 30
0.0
 70
0
  0
VERTEX
  5
57A
  8
CUT
 10
223.48986229896545
 20
87.58426580429077
 30
0.0
 70
0
  0
VERTEX
  5
57B
  8
CUT
 10
225.77573051452637
 20
89.27958221435547
 30
0.0
 70
0
  0
VERTEX
  5
57C
  8
CUT
 10
226.57557921409608
 20
90.00452251434326
 30
0.0
 70
0
  0
VERTEX
  5
57D
  8
CUT
 10
228.68427124023438
 20
91.91572875976563
 30
0.0
 70
0
  0
VERTEX
  5
57E
  8
CUT
 10
229.40921154022217
 20
92.71557745933532
 30
0.0
 70
0
  0
VERTEX
  5
57F
  8
CUT
 10
231.32041778564454
 20
94.82426948547364
 30
0.0
 70
0
  0
VERTEX
  5
580
  8
CUT
 10
231.96346883773805
 20
95.69132294654847
 30
0.0
 70
0
  0
VERTEX
  5
581
  8
CUT
 10
233.65878524780274
 20
97.97719116210938
 30
0.0
 70
0
  0
VERTEX
  5
582
  8
CUT
 10
234.2137535095215
 20
98.90309953689575
 30
0.0
 70
0
  0
VERTEX
  5
583
  8
CUT
 10
235.67685165405274
 20
101.34413070678711
 30
0.0
 70
0
  0
VERTEX
  5
584
  8
CUT
 10
236.13839225769044
 20
102.3199768781662
 30
0.0
 70
0
  0
VERTEX
  5
585
  8
CUT
 10
237.35518112182618
 20
104.89266223907471
 30
0.0
 70
0
  0
VERTEX
  5
586
  8
CUT
 10
237.71885032653807
 20
105.90904862880707
 30
0.0
 70
0
  0
VERTEX
  5
587
  8
CUT
 10
238.67761459350587
 20
108.58861274719239
 30
0.0
 70
0
  0
VERTEX
  5
588
  8
CUT
 10
238.93990859985354
 20
109.635750746727
 30
0.0
 70
0
  0
VERTEX
  5
589
  8
CUT
 10
239.63141098022462
 20
112.39638729095459
 30
0.0
 70
0
  0
VERTEX
  5
58A
  8
CUT
 10
239.78980474472047
 20
113.46419226527215
 30
0.0
 70
0
  0
VERTEX
  5
58B
  8
CUT
 10
240.20738830566407
 20
116.27931447029114
 30
0.0
 70
0
  0
VERTEX
  5
58C
  8
CUT
 10
240.26035652160647
 20
117.35750299096108
 30
0.0
 70
0
  0
SEQEND
  5
50C
  8
CUT
  0
POLYLINE
  5
58D
  8
CUT
 66
1
 10
0.0
 20
0.0
 30
0.0
 70
1
  0
VERTEX
  5
58F
  8
CUT
 10
193.4
 20
88.2
 30
0.0
 70
0
  0
VERTEX
  5
590
  8
CUT
 10
193.3423558412097
 20
87.61472903395162
 30
0.0
 70
0
  0
VERTEX
  5
591
  8
CUT
 10
193.17163859753387
 20
87.05194970290474
 30
0.0
 70
0
  0
VERTEX
  5
592
  8
CUT
 10
192.89440883690764
 20
86.53328930094119
 30
0.0
 70
0
  0
VERTEX
  5
593
  8
CUT
 10
192.52132034355964
 20
86.07867965644036
 30
0.0
 70
0
  0
VERTEX
  5
594
  8
CUT
 10
192.0667106990588
 20
85.70559116309236
 30
0.0
 70
0
  0
VERTEX
  5
595
  8
CUT
 10
191.54805029709527
 20
85.42836140246615
 30
0.0
 70
0
  0
VERTEX
  5
596
  8
CUT
 10
190.9852709660484
 20
85.25764415879031
 30
0.0
 70
0
  0
VERTEX
  5
597
  8
CUT
 10
190.4
 20
85.2
 30
0.0
 70
0
  0
VERTEX
  5
598
  8
CUT
 10
189.8147290339516
 20
85.25764415879031
 30
0.0
 70
0
  0
VERTEX
  5
599
  8
CUT
 10
189.25194970290474
 20
85.42836140246615
 30
0.0
 70
0
  0
VERTEX
  5
59A
  8
CUT
 10
188.7332893009412
 20
85.70559116309236
 30
0.0
 70
0
  0
VERTEX
  5
59B
  8
CUT
 10
188.27867965644037
 20
86.07867965644036
 30
0.0
 70
0
  0
VERTEX
  5
59C
  8
CUT
 10
187.90559116309237
 20
86.53328930094119
 30
0.0
 70
0
  0
VERTEX
  5
59D
  8
CUT
 10
187.62836140246614
 20
87.05194970290474
 30
0.0
 70
0
  0
VERTEX
  5
59E
  8
CUT
 10
187.45764415879032
 20
87.61472903395162
 30
0.0
 70
0
  0
VERTEX
  5
59F
  8
CUT
 10
187.4
 20
88.2
 30
0.0
 70
0
  0
VERTEX
  5
5A0
  8
CUT
 10
187.45764415879032
 20
88.78527096604839
 30
0.0
 70
0
  0
VERTEX
  5
5A1
  8
CUT
 10
187.62836140246614
 20
89.34805029709527
 30
0.0
 70
0
  0
VERTEX
  5
5A2
  8
CUT
 10
187.90559116309237
 20
89.86671069905881
 30
0.0
 70
0
  0
VERTEX
  5
5A3
  8
CUT
 10
188.27867965644037
 20
90.32132034355965
 30
0.0
 70
0
  0
VERTEX
  5
5A4
  8
CUT
 10
188.7332893009412
 20
90.69440883690764
 30
0.0
 70
0
  0
VERTEX
  5
5A5
  8
CUT
 10
189.25194970290474
 20
90.97163859753385
 30
0.0
 70
0
  0
VERTEX
  5
5A6
  8
CUT
 10
189.8147290339516
 20
91.14235584120969
 30
0.0
 70
0
  0
VERTEX
  5
5A7
  8
CUT
 10
190.4
 20
91.2
 30
0.0
 70
0
  0
VERTEX
  5
5A8
  8
CUT
 10
190.9852709660484
 20
91.14235584120969
 30
0.0
 70
0
  0
VERTEX
  5
5A9
  8
CUT
 10
191.54805029709527
 20
90.97163859753385
 30
0.0
 70
0
  0
VERTEX
  5
5AA
  8
CUT
 10
192.0667106990588
 20
90.69440883690764
 30
0.0
 70
0
  0
VERTEX
  5
5AB
  8
CUT
 10
192.52132034355964
 20
90.32132034355965
 30
0.0
 70
0
  0
VERTEX
  5
5AC
  8
CUT
 10
192.89440883690764
 20
89.86671069905881
 30
0.0
 70
0
  0
VERTEX
  5
5AD
  8
CUT
 10
193.17163859753387
 20
89.34805029709527
 30
0.0
 70
0
  0
VERTEX
  5
5AE
  8
CUT
 10
193.3423558412097
 20
88.78527096604839
 30
0.0
 70
0
  0
SEQEND
  5
58E
  8
CUT
  0
POLYLINE
  5
5AF
  8
CUT
 66
1
 10
0.0
 20
0.0
 30
0.0
 70
1
  0
VERTEX
  5
5B1
  8
CUT
 10
213.4
 20
152.2
 30
0.0
 70
0
  0
VERTEX
  5
5B2
  8
CUT
 10
213.3423558412097
 20
151.61472903395162
 30
0.0
 70
0
  0
VERTEX
  5
5B3
  8
CUT
 10
213.17163859753387
 20
151.05194970290472
 30
0.0
 70
0
  0
VERTEX
  5
5B4
  8
CUT
 10
212.89440883690764
 20
150.5332893009412
 30
0.0
 70
0
  0
VERTEX
  5
5B5
  8
CUT
 10
212.52132034355964
 20
150.07867965644036
 30
0.0
 70
0
  0
VERTEX
  5
5B6
  8
CUT
 10
212.0667106990588
 20
149.70559116309238
 30
0.0
 70
0
  0
VERTEX
  5
5B7
  8
CUT
 10
211.54805029709527
 20
149.42836140246615
 30
0.0
 70
0
  0
VERTEX
  5
5B8
  8
CUT
 10
210.9852709660484
 20
149.2576441587903
 30
0.0
 70
0
  0
VERTEX
  5
5B9
  8
CUT
 10
210.4
 20
149.2
 30
0.0
 70
0
  0
VERTEX
  5
5BA
  8
CUT
 10
209.8147290339516
 20
149.2576441587903
 30
0.0
 70
0
  0
VERTEX
  5
5BB
  8
CUT
 10
209.25194970290474
 20
149.42836140246615
 30
0.0
 70
0
  0
VERTEX
  5
5BC
  8
CUT
 10
208.7332893009412
 20
149.70559116309238
 30
0.0
 70
0
  0
VERTEX
  5
5BD
  8
CUT
 10
208.27867965644037
 20
150.07867965644036
 30
0.0
 70
0
  0
VERTEX
  5
5BE
  8
CUT
 10
207.90559116309237
 20
150.5332893009412
 30
0.0
 70
0
  0
VERTEX
  5
5BF
  8
CUT
 10
207.62836140246614
 20
151.05194970290472
 30
0.0
 70
0
  0
VERTEX
  5
5C0
  8
CUT
 10
207.45764415879032
 20
151.61472903395162
 30
0.0
 70
0
  0
VERTEX
  5
5C1
  8
CUT
 10
207.4
 20
152.2
 30
0.0
 70
0
  0
VERTEX
  5
5C2
  8
CUT
 10
207.45764415879032
 20
152.7852709660484
 30
0.0
 70
0
  0
VERTEX
  5
5C3
  8
CUT
 10
207.62836140246614
 20
153.34805029709526
 30
0.0
 70
0
  0
VERTEX
  5
5C4
  8
CUT
 10
207.90559116309237
 20
153.8667106990588
 30
0.0
 70
0
  0
VERTEX
  5
5C5
  8
CUT
 10
208.27867965644037
 20
154.32132034355965
 30
0.0
 70
0
  0
VERTEX
  5
5C6
  8
CUT
 10
208.7332893009412
 20
154.69440883690766
 30
0.0
 70
0
  0
VERTEX
  5
5C7
  8
CUT
 10
209.25194970290474
 20
154.97163859753385
 30
0.0
 70
0
  0
VERTEX
  5
5C8
  8
CUT
 10
209.8147290339516
 20
155.14235584120968
 30
0.0
 70
0
  0
VERTEX
  5
5C9
  8
CUT
 10
210.4
 20
155.2
 30
0.0
 70
0
  0
VERTEX
  5
5CA
  8
CUT
 10
210.9852709660484
 20
155.14235584120968
 30
0.0
 70
0
  0
VERTEX
  5
5CB
  8
CUT
 10
211.54805029709527
 20
154.97163859753385
 30
0.0
 70
0
  0
VERTEX
  5
5CC
  8
CUT
 10
212.0667106990588
 20
154.69440883690766
 30
0.0
 70
0
  0
VERTEX
  5
5CD
  8
CUT
 10
212.52132034355964
 20
154.32132034355965
 30
0.0
 70
0
  0
VERTEX
  5
5CE
  8
CUT
 10
212.89440883690764
 20
153.8667106990588
 30
0.0
 70
0
  0
VERTEX
  5
5CF
  8
CUT
 10
213.17163859753387
 20
153.34805029709528
 30
0.0
 70
0
  0
VERTEX
  5
5D0
  8
CUT
 10
213.3423558412097
 20
152.7852709660484
 30
0.0
 70
0
  0
SEQEND
  5
5B0
  8
CUT
  0
POLYLINE
  5
5D1
  8
CUT
 66
1
 10
0.0
 20
0.0
 30
0.0
 70
1
  0
VERTEX
  5
5D3
  8
CUT
 10
235.4
 20
110.2
 30
0.0
 70
0
  0
VERTEX
  5
5D4
  8
CUT
 10
235.3423558412097
 20
109.61472903395162
 30
0.0
 70
0
  0
VERTEX
  5
5D5
  8
CUT
 10
235.17163859753387
 20
109.05194970290474
 30
0.0
 70
0
  0
VERTEX
  5
5D6
  8
CUT
 10
234.89440883690764
 20
108.53328930094119
 30
0.0
 70
0
  0
VERTEX
  5
5D7
  8
CUT
 10
234.52132034355964
 20
108.07867965644036
 30
0.0
 70
0
  0
VERTEX
  5
5D8
  8
CUT
 10
234.0667106990588
 20
107.70559116309236
 30
0.0
 70
0
  0
VERTEX
  5
5D9
  8
CUT
 10
233.54805029709527
 20
107.42836140246614
 30
0.0
 70
0
  0
VERTEX
  5
5DA
  8
CUT
 10
232.9852709660484
 20
107.25764415879031
 30
0.0
 70
0
  0
VERTEX
  5
5DB
  8
CUT
 10
232.4
 20
107.2
 30
0.0
 70
0
  0
VERTEX
  5
5DC
  8
CUT
 10
231.8147290339516
 20
107.25764415879031
 30
0.0
 70
0
  0
VERTEX
  5
5DD
  8
CUT
 10
231.25194970290474
 20
107.42836140246614
 30
0.0
 70
0
  0
VERTEX
  5
5DE
  8
CUT
 10
230.7332893009412
 20
107.70559116309236
 30
0.0
 70
0
  0
VERTEX
  5
5DF
  8
CUT
 10
230.27867965644037
 20
108.07867965644036
 30
0.0
 70
0
  0
VERTEX
  5
5E0
  8
CUT
 10
229.90559116309237
 20
108.53328930094119
 30
0.0
 70
0
  0
VERTEX
  5
5E1
  8
CUT
 10
229.62836140246614
 20
109.05194970290474
 30
0.0
 70
0
  0
VERTEX
  5
5E2
  8
CUT
 10
229.45764415879032
 20
109.61472903395162
 30
0.0
 70
0
  0
VERTEX
  5
5E3
  8
CUT
 10
229.4
 20
110.2
 30
0.0
 70
0
  0
VERTEX
  5
5E4
  8
CUT
 10
229.45764415879032
 20
110.78527096604839
 30
0.0
 70
0
  0
VERTEX
  5
5E5
  8
CUT
 10
229.62836140246614
 20
111.34805029709527
 30
0.0
 70
0
  0
VERTEX
  5
5E6
  8
CUT
 10
229.90559116309237
 20
111.86671069905881
 30
0.0
 70
0
  0
VERTEX
  5
5E7
  8
CUT
 10
230.27867965644037
 20
112.32132034355965
 30
0.0
 70
0
  0
VERTEX
  5
5E8
  8
CUT
 10
230.7332893009412
 20
112.69440883690764
 30
0.0
 70
0
  0
VERTEX
  5
5E9
  8
CUT
 10
231.25194970290474
 20
112.97163859753387
 30
0.0
 70
0
  0
VERTEX
  5
5EA
  8
CUT
 10
231.8147290339516
 20
113.14235584120969
 30
0.0
 70
0
  0
VERTEX
  5
5EB
  8
CUT
 10
232.4
 20
113.2
 30
0.0
 70
0
  0
VERTEX
  5
5EC
  8
CUT
 10
232.9852709660484
 20
113.14235584120969
 30
0.0
 70
0
  0
VERTEX
  5
5ED
  8
CUT
 10
233.54805029709527
 20
112.97163859753387
 30
0.0
 70
0
  0
VERTEX
  5
5EE
  8
CUT
 10
234.0667106990588
 20
112.69440883690764
 30
0.0
 70
0
  0
VERTEX
  5
5EF
  8
CUT
 10
234.52132034355964
 20
112.32132034355965
 30
0.0
 70
0
  0
VERTEX
  5
5F0
  8
CUT
 10
234.89440883690764
 20
111.86671069905881
 30
0.0
 70
0
  0
VERTEX
  5
5F1
  8
CUT
 10
235.17163859753387
 20
111.34805029709527
 30
0.0
 70
0
  0
VERTEX
  5
5F2
  8
CUT
 10
235.3423558412097
 20
110.78527096604839
 30
0.0
 70
0
  0
SEQEND
  5
5D2
  8
CUT
  0
POLYLINE
  5
5F3
  8
ENGRAVE
 66
1
 10
0.0
 20
0.0
 30
0.0
 70
0
  0
VERTEX
  5
5F5
  8
ENGRAVE
 10
215.4
 20
145.2
 30
0.0
 70
0
  0
VERTEX
  5
5F6
  8
ENGRAVE
 10
215.4
 20
151.2
 30
0.0
 70
0
  0
SEQEND
  5
5F4
  8
ENGRAVE
  0
POLYLINE
  5
5F7
  8
ENGRAVE
 66
1
 10
0.0
 20
0.0
 30
0.0
 70
0
  0
VERTEX
  5
5F9
  8
ENGRAVE
 10
215.4
 20
145.2
 30
0.0
 70
0
  0
VERTEX
  5
5FA
  8
ENGRAVE
 10
220.4
 20
145.2
 30
0.0
 70
0
  0
SEQEND
  5
5F8
  8
ENGRAVE
  0
POLYLINE
  5
5FB
  8
ENGRAVE
 66
1
 10
0.0
 20
0.0
 30
0.0
 70
0
  0
VERTEX
  5
5FD
  8
ENGRAVE
 10
220.4
 20
145.2
 30
0.0
 70
0
  0
VERTEX
  5
5FE
  8
ENGRAVE
 10
220.4
 20
151.2
 30
0.0
 70
0
  0
SEQEND
  5
5FC
  8
ENGRAVE
  0
POLYLINE
  5
5FF
  8
ENGRAVE
 66
1
 10
0.0
 20
0.0
 30
0.0
 70
0
  0
VERTEX
  5
601
  8
ENGRAVE
 10
220.4
 20
145.2
 30
0.0
 70
0
  0
VERTEX
  5
602
  8
ENGRAVE
 10
225.4
 20
145.2
 30
0.0
 70
0
  0
SEQEND
  5
600
  8
ENGRAVE
  0
POLYLINE
  5
603
  8
ENGRAVE
 66
1
 10
0.0
 20
0.0
 30
0.0
 70
0
  0
VERTEX
  5
605
  8
ENGRAVE
 10
220.4
 20
151.2
 30
0.0
 70
0
  0
VERTEX
  5
606
  8
ENGRAVE
 10
225.4
 20
151.2
 30
0.0
 70
0
  0
SEQEND
  5
604
  8
ENGRAVE
  0
POLYLINE
  5
607
  8
ENGRAVE
 66
1
 10
0.0
 20
0.0
 30
0.0
 70
0
  0
VERTEX
  5
609
  8
ENGRAVE
 10
225.4
 20
145.2
 30
0.0
 70
0
  0
VERTEX
  5
60A
  8
ENGRAVE
 10
225.4
 20
151.2
 30
0.0
 70
0
  0
SEQEND
  5
608
  8
ENGRAVE
  0
ENDSEC
  0
EOF
