  0
SECTION
  2
HEADER
  9
$ACADVER
  1
AC1009
  9
$DWGCODEPAGE
  3
ANSI_1252
  9
$INSBASE
 10
0.0
 20
0.0
 30
0.0
  9
$EXTMIN
 10
1e+20
 20
1e+20
 30
1e+20
  9
$EXTMAX
 10
-1e+20
 20
-1e+20
 30
-1e+20
  9
$LIMMIN
 10
0.0
 20
0.0
  9
$LIMMAX
 10
420.0
 20
297.0
  9
$ORTHOMODE
 70
0
  9
$REGENMODE
 70
1
  9
$FILLMODE
 70
1
  9
$DRAGMODE
 70
2
  9
$QTEXTMODE
 70
0
  9
$MIRRTEXT
 70
1
  9
$OSMODE
 70
20583
  9
$LTSCALE
 40
1.0
  9
$ATTMODE
 70
1
  9
$TEXTSIZE
 40
2.5
  9
$TRACEWID
 40
1.0
  9
$TEXTSTYLE
  7
Standard
  9
$CLAYER
  8
0
  9
$CELTYPE
  6
ByLayer
  9
$CECOLOR
 62
256
  9
$DIMSCALE
 40
1.0
  9
$DIMASZ
 40
2.5
  9
$DIMEXO
 40
0.625
  9
$DIMDLI
 40
3.75
  9
$DIMRND
 40
0.0
  9
$DIMDLE
 40
0.0
  9
$DIMEXE
 40
1.25
  9
$DIMTP
 40
0.0
  9
$DIMTM
 40
0.0
  9
$DIMTXT
 40
2.5
  9
$DIMCEN
 40
2.5
  9
$DIMTSZ
 40
0.0
  9
$DIMTOL
 70
0
  9
$DIMLIM
 70
0
  9
$DIMTIH
 70
0
  9
$DIMTOH
 70
0
  9
$DIMSE1
 70
0
  9
$DIMSE2
 70
0
  9
$DIMTAD
 70
1
  9
$DIMZIN
 70
8
  9
$DIMBLK
  1

  9
$DIMASO
 70
1
  9
$DIMSHO
 70
1
  9
$DIMPOST
  1

  9
$DIMAPOST
  1

  9
$DIMALT
 70
0
  9
$DIMALTD
 70
3
  9
$DIMALTF
 40
0.03937007874
  9
$DIMLFAC
 40
1.0
  9
$DIMTOFL
 70
1
  9
$DIMTVP
 40
0.0
  9
$DIMTIX
 70
0
  9
$DIMSOXD
 70
0
  9
$DIMSAH
 70
0
  9
$DIMBLK1
  1

  9
$DIMBLK2
  1

  9
$DIMSTYLE
  2
ISO-25
  9
$DIMCLRD
 70
0
  9
$DIMCLRE
 70
0
  9
$DIMCLRT
 70
0
  9
$DIMTFAC
 40
1.0
  9
$DIMGAP
 40
0.625
  9
$COORDS
 70
1
  9
$ATTDIA
 70
0
  9
$ATTREQ
 70
1
  9
$HANDLING
 70
1
  9
$LUNITS
 70
2
  9
$LUPREC
 70
4
  9
$SKETCHINC
 40
1.0
  9
$FILLETRAD
 40
10.0
  9
$AUNITS
 70
0
  9
$AUPREC
 70
2
  9
$MENU
  1
.
  9
$ELEVATION
 40
0.0
  9
$PELEVATION
 40
0.0
  9
$THICKNESS
 40
0.0
  9
$LIMCHECK
 70
0
  9
$CHAMFERA
 40
0.0
  9
$CHAMFERB
 40
0.0
  9
$SKPOLY
 70
0
  9
$TDCREATE
 40
2461262.7422916666
  9
$TDUPDATE
 40
2461262.7422916666
  9
$TDINDWG
 40
0.0
  9
$TDUSRTIMER
 40
0.0
  9
$USRTIMER
 70
1
  9
$ANGBASE
 50
0.0
  9
$ANGDIR
 70
0
  9
$PDMODE
 70
0
  9
$PDSIZE
 40
0.0
  9
$PLINEWID
 40
0.0
  9
$SPLFRAME
 70
0
  9
$SPLINETYPE
 70
6
  9
$SPLINESEGS
 70
8
  9
$HANDSEED
  5
24D
  9
$SURFTAB1
 70
6
  9
$SURFTAB2
 70
6
  9
$SURFTYPE
 70
6
  9
$SURFU
 70
6
  9
$SURFV
 70
6
  9
$UCSNAME
  2

  9
$UCSORG
 10
0.0
 20
0.0
 30
0.0
  9
$UCSXDIR
 10
1.0
 20
0.0
 30
0.0
  9
$UCSYDIR
 10
0.0
 20
1.0
 30
0.0
  9
$PUCSNAME
  2

  9
$PUCSORG
 10
0.0
 20
0.0
 30
0.0
  9
$PUCSXDIR
 10
1.0
 20
0.0
 30
0.0
  9
$PUCSYDIR
 10
0.0
 20
1.0
 30
0.0
  9
$USERI1
 70
0
  9
$USERI2
 70
0
  9
$USERI3
 70
0
  9
$USERI4
 70
0
  9
$USERI5
 70
0
  9
$USERR1
 40
0.0
  9
$USERR2
 40
0.0
  9
$USERR3
 40
0.0
  9
$USERR4
 40
0.0
  9
$USERR5
 40
0.0
  9
$WORLDVIEW
 70
1
  9
$SHADEDGE
 70
3
  9
$SHADEDIF
 70
70
  9
$TILEMODE
 70
1
  9
$MAXACTVP
 70
64
  9
$PLIMCHECK
 70
0
  9
$PEXTMIN
 10
1e+20
 20
1e+20
 30
1e+20
  9
$PEXTMAX
 10
-1e+20
 20
-1e+20
 30
-1e+20
  9
$PLIMMIN
 10
0.0
 20
0.0
  9
$PLIMMAX
 10
420.0
 20
297.0
  9
$UNITMODE
 70
0
  9
$VISRETAIN
 70
1
  9
$PLINEGEN
 70
0
  9
$PSLTSCALE
 70
1
  0
ENDSEC
  0
SECTION
  2
TABLES
  0
TABLE
  2
VPORT
 70
1
  0
VPORT
  5
23
  2
*Active
 70
0
 10
0.0
 20
0.0
 11
1.0
 21
1.0
 12
0.0
 22
0.0
 13
0.0
 23
0.0
 14
0.5
 24
0.5
 15
0.5
 25
0.5
 16
0.0
 26
0.0
 36
1.0
 17
0.0
 27
0.0
 37
0.0
 40
1000.0
 41
1.34
 42
50.0
 43
0.0
 44
0.0
 50
0.0
 51
0.0
 71
0
 72
1000
 73
1
 74
3
 75
0
 76
0
 77
0
 78
0
  0
ENDTAB
  0
TABLE
  2
LTYPE
 70
3
  0
LTYPE
  5
24
  2
ByBlock
 70
0
  3

 72
65
 73
0
 40
0.0
  0
LTYPE
  5
25
  2
ByLayer
 70
0
  3

 72
65
 73
0
 40
0.0
  0
LTYPE
  5
26
  2
Continuous
 70
0
  3

 72
65
 73
0
 40
0.0
  0
ENDTAB
  0
TABLE
  2
LAYER
 70
4
  0
LAYER
  5
27
  2
0
 70
0
 62
7
  6
Continuous
  0
LAYER
  5
28
  2
Defpoints
 70
0
 62
7
  6
Continuous
  0
LAYER
  5
2D
  2
CUT
 70
0
 62
1
  6
Continuous
  0
LAYER
  5
2E
  2
ENGRAVE
 70
0
 62
5
  6
Continuous
  0
ENDTAB
  0
TABLE
  2
STYLE
 70
1
  0
STYLE
  5
29
  2
Standard
 70
0
 40
0.0
 41
1.0
 50
0.0
 71
0
 42
2.5
  3
txt
  4

  0
ENDTAB
  0
TABLE
  2
VIEW
 70
0
  0
ENDTAB
  0
TABLE
  2
UCS
 70
0
  0
ENDTAB
  0
TABLE
  2
APPID
 70
3
  0
APPID
  5
2A
  2
ACAD
 70
0
  0
APPID
  5
24B
  2
HATCHBACKGROUNDCOLOR
 70
0
  0
APPID
  5
24C
  2
EZDXF
 70
0
  0
ENDTAB
  0
TABLE
  2
DIMSTYLE
 70
1
  0
DIMSTYLE
105
2B
  2
Standard
 70
0
  3

  4

  5

  6

  7

 40
1.0
 41
2.5
 42
0.625
 43
3.75
 44
1.25
 45
0.0
 46
0.0
 47
0.0
 48
0.0
140
2.5
141
2.5
142
0.0
143
0.03937007874
144
1.0
145
0.0
146
1.0
147
0.625
 71
0
 72
0
 73
0
 74
0
 75
0
 76
0
 77
1
 78
8
170
0
171
3
172
1
173
0
174
0
175
0
176
0
177
0
178
0
  0
ENDTAB
  0
ENDSEC
  0
SECTION
  2
BLOCKS
  0
BLOCK
  5
18
  8
0
  2
$Model_Space
 70
0
 10
0.0
 20
0.0
 30
0.0
  3
$Model_Space
  1

1001
EZDXF
1000
CREATED_BY_EZDXF
1000
1.4.4 @ 2026-08-09T15:48:54.664953+00:00
1000
WRITTEN_BY_EZDXF
1000
1.4.4 @ 2026-08-09T15:48:54.689478+00:00
  0
ENDBLK
  5
19
  8
0
  0
BLOCK
  5
1C
  8
0
  2
$Paper_Space
 70
0
 10
0.0
 20
0.0
 30
0.0
  3
$Paper_Space
  1

  0
ENDBLK
  5
1D
  8
0
  0
ENDSEC
  0
SECTION
  2
ENTITIES
  0
POLYLINE
  5
2F
  8
CUT
 66
1
 10
0.0
 20
0.0
 30
0.0
 70
1
  0
VERTEX
  5
31
  8
CUT
 10
80.0
 20
40.0
 30
0.0
 70
0
  0
VERTEX
  5
32
  8
CUT
 10
79.82183418273925
 20
43.626634114980696
 30
0.0
 70
0
  0
VERTEX
  5
33
  8
CUT
 10
79.80738830566406
 20
43.92068552970886
 30
0.0
 70
0
  0
VERTEX
  5
34
  8
CUT
 10
79.27460927963257
 20
47.51239317059517
 30
0.0
 70
0
  0
VERTEX
  5
35
  8
CUT
 10
79.23141098022461
 20
47.80361270904541
 30
0.0
 70
0
  0
VERTEX
  5
36
  8
CUT
 10
78.34914932250976
 20
51.32580416202545
 30
0.0
 70
0
  0
VERTEX
  5
37
  8
CUT
 10
78.27761459350586
 20
51.61138725280762
 30
0.0
 70
0
  0
VERTEX
  5
38
  8
CUT
 10
77.05436363220215
 20
55.03014147281647
 30
0.0
 70
0
  0
VERTEX
  5
39
  8
CUT
 10
76.95518112182617
 20
55.30733776092529
 30
0.0
 70
0
  0
VERTEX
  5
3A
  8
CUT
 10
75.40272636413575
 20
58.58972942829132
 30
0.0
 70
0
  0
VERTEX
  5
3B
  8
CUT
 10
75.27685165405273
 20
58.85586929321289
 30
0.0
 70
0
  0
VERTEX
  5
3C
  8
CUT
 10
73.41014022827149
 20
61.970288372039796
 30
0.0
 70
0
  0
VERTEX
  5
3D
  8
CUT
 10
73.25878524780273
 20
62.222808837890625
 30
0.0
 70
0
  0
VERTEX
  5
3E
  8
CUT
 10
71.0957953453064
 20
65.13926138877869
 30
0.0
 70
0
  0
VERTEX
  5
3F
  8
CUT
 10
70.92041778564453
 20
65.37573051452637
 30
0.0
 70
0
  0
VERTEX
  5
40
  8
CUT
 10
68.48198223114014
 20
68.06613068580627
 30
0.0
 70
0
  0
VERTEX
  5
41
  8
CUT
 10
68.28427124023438
 20
68.28427124023438
 30
0.0
 70
0
  0
VERTEX
  5
42
  8
CUT
 10
65.59387106895447
 20
70.72270679473877
 30
0.0
 70
0
  0
VERTEX
  5
43
  8
CUT
 10
65.37573051452637
 20
70.92041778564453
 30
0.0
 70
0
  0
VERTEX
  5
44
  8
CUT
 10
62.45927796363831
 20
73.08340768814087
 30
0.0
 70
0
  0
VERTEX
  5
45
  8
CUT
 10
62.222808837890625
 20
73.25878524780273
 30
0.0
 70
0
  0
VERTEX
  5
46
  8
CUT
 10
59.10838975906372
 20
75.12549667358398
 30
0.0
 70
0
  0
VERTEX
  5
47
  8
CUT
 10
58.85586929321289
 20
75.27685165405273
 30
0.0
 70
0
  0
VERTEX
  5
48
  8
CUT
 10
55.57347762584686
 20
76.82930641174316
 30
0.0
 70
0
  0
VERTEX
  5
49
  8
CUT
 10
55.30733776092529
 20
76.95518112182617
 30
0.0
 70
0
  0
VERTEX
  5
4A
  8
CUT
 10
51.88858354091644
 20
78.17843208312988
 30
0.0
 70
0
  0
VERTEX
  5
4B
  8
CUT
 10
51.61138725280762
 20
78.27761459350586
 30
0.0
 70
0
  0
VERTEX
  5
4C
  8
CUT
 10
48.08919579982758
 20
79.15987625122071
 30
0.0
 70
0
  0
VERTEX
  5
4D
  8
CUT
 10
47.80361270904541
 20
79.23141098022461
 30
0.0
 70
0
  0
VERTEX
  5
4E
  8
CUT
 10
44.211905068159105
 20
79.7641900062561
 30
0.0
 70
0
  0
VERTEX
  5
4F
  8
CUT
 10
43.92068552970886
 20
79.80738830566406
 30
0.0
 70
0
  0
VERTEX
  5
50
  8
CUT
 10
40.294051414728166
 20
79.98555412292481
 30
0.0
 70
0
  0
VERTEX
  5
51
  8
CUT
 10
40.0
 20
80.0
 30
0.0
 70
0
  0
VERTEX
  5
52
  8
CUT
 10
36.373365885019304
 20
79.82183418273925
 30
0.0
 70
0
  0
VERTEX
  5
53
  8
CUT
 10
36.07931447029114
 20
79.80738830566406
 30
0.0
 70
0
  0
VERTEX
  5
54
  8
CUT
 10
32.48760682940483
 20
79.27460927963257
 30
0.0
 70
0
  0
VERTEX
  5
55
  8
CUT
 10
32.19638729095459
 20
79.23141098022461
 30
0.0
 70
0
  0
VERTEX
  5
56
  8
CUT
 10
28.674195837974548
 20
78.34914932250976
 30
0.0
 70
0
  0
VERTEX
  5
57
  8
CUT
 10
28.388612747192383
 20
78.27761459350586
 30
0.0
 70
0
  0
VERTEX
  5
58
  8
CUT
 10
24.969858527183533
 20
77.05436363220215
 30
0.0
 70
0
  0
VERTEX
  5
59
  8
CUT
 10
24.692662239074707
 20
76.95518112182617
 30
0.0
 70
0
  0
VERTEX
  5
5A
  8
CUT
 10
21.41027057170868
 20
75.40272636413575
 30
0.0
 70
0
  0
VERTEX
  5
5B
  8
CUT
 10
21.14413070678711
 20
75.27685165405273
 30
0.0
 70
0
  0
VERTEX
  5
5C
  8
CUT
 10
18.029711627960204
 20
73.41014022827149
 30
0.0
 70
0
  0
VERTEX
  5
5D
  8
CUT
 10
17.777191162109375
 20
73.25878524780273
 30
0.0
 70
0
  0
VERTEX
  5
5E
  8
CUT
 10
14.860738611221315
 20
71.0957953453064
 30
0.0
 70
0
  0
VERTEX
  5
5F
  8
CUT
 10
14.624269485473633
 20
70.92041778564453
 30
0.0
 70
0
  0
VERTEX
  5
60
  8
CUT
 10
11.933869314193725
 20
68.48198223114014
 30
0.0
 70
0
  0
VERTEX
  5
61
  8
CUT
 10
11.715728759765625
 20
68.28427124023438
 30
0.0
 70
0
  0
VERTEX
  5
62
  8
CUT
 10
9.27729320526123
 20
65.59387106895447
 30
0.0
 70
0
  0
VERTEX
  5
63
  8
CUT
 10
9.079582214355469
 20
65.37573051452637
 30
0.0
 70
0
  0
VERTEX
  5
64
  8
CUT
 10
6.916592311859134
 20
62.45927796363831
 30
0.0
 70
0
  0
VERTEX
  5
65
  8
CUT
 10
6.741214752197266
 20
62.222808837890625
 30
0.0
 70
0
  0
VERTEX
  5
66
  8
CUT
 10
4.8745033264160185
 20
59.10838975906372
 30
0.0
 70
0
  0
VERTEX
  5
67
  8
CUT
 10
4.723148345947266
 20
58.85586929321289
 30
0.0
 70
0
  0
VERTEX
  5
68
  8
CUT
 10
3.170693588256839
 20
55.57347762584686
 30
0.0
 70
0
  0
VERTEX
  5
69
  8
CUT
 10
3.044818878173828
 20
55.30733776092529
 30
0.0
 70
0
  0
VERTEX
  5
6A
  8
CUT
 10
1.8215679168701158
 20
51.88858354091644
 30
0.0
 70
0
  0
VERTEX
  5
6B
  8
CUT
 10
1.7223854064941406
 20
51.61138725280762
 30
0.0
 70
0
  0
VERTEX
  5
6C
  8
CUT
 10
0.8401237487792983
 20
48.08919579982758
 30
0.0
 70
0
  0
VERTEX
  5
6D
  8
CUT
 10
0.7685890197753906
 20
47.80361270904541
 30
0.0
 70
0
  0
VERTEX
  5
6E
  8
CUT
 10
0.23580999374389933
 20
44.211905068159105
 30
0.0
 70
0
  0
VERTEX
  5
6F
  8
CUT
 10
0.1926116943359375
 20
43.92068552970886
 30
0.0
 70
0
  0
VERTEX
  5
70
  8
CUT
 10
0.014445877075196734
 20
40.29405141472816
 30
0.0
 70
0
  0
VERTEX
  5
71
  8
CUT
 10
0.0
 20
39.99999999999999
 30
0.0
 70
0
  0
VERTEX
  5
72
  8
CUT
 10
0.17816581726074077
 20
36.373365885019304
 30
0.0
 70
0
  0
VERTEX
  5
73
  8
CUT
 10
0.1926116943359375
 20
36.07931447029114
 30
0.0
 70
0
  0
VERTEX
  5
74
  8
CUT
 10
0.7253907203674288
 20
32.48760682940483
 30
0.0
 70
0
  0
VERTEX
  5
75
  8
CUT
 10
0.7685890197753906
 20
32.19638729095459
 30
0.0
 70
0
  0
VERTEX
  5
76
  8
CUT
 10
1.650850677490233
 20
28.674195837974548
 30
0.0
 70
0
  0
VERTEX
  5
77
  8
CUT
 10
1.7223854064941406
 20
28.388612747192383
 30
0.0
 70
0
  0
VERTEX
  5
78
  8
CUT
 10
2.945636367797853
 20
24.969858527183533
 30
0.0
 70
0
  0
VERTEX
  5
79
  8
CUT
 10
3.044818878173828
 20
24.692662239074707
 30
0.0
 70
0
  0
VERTEX
  5
7A
  8
CUT
 10
4.597273635864255
 20
21.41027057170868
 30
0.0
 70
0
  0
VERTEX
  5
7B
  8
CUT
 10
4.723148345947266
 20
21.14413070678711
 30
0.0
 70
0
  0
VERTEX
  5
7C
  8
CUT
 10
6.589859771728513
 20
18.029711627960204
 30
0.0
 70
0
  0
VERTEX
  5
7D
  8
CUT
 10
6.741214752197266
 20
17.777191162109375
 30
0.0
 70
0
  0
VERTEX
  5
7E
  8
CUT
 10
8.904204654693604
 20
14.860738611221315
 30
0.0
 70
0
  0
VERTEX
  5
7F
  8
CUT
 10
9.079582214355469
 20
14.624269485473633
 30
0.0
 70
0
  0
VERTEX
  5
80
  8
CUT
 10
11.518017768859863
 20
11.933869314193725
 30
0.0
 70
0
  0
VERTEX
  5
81
  8
CUT
 10
11.715728759765625
 20
11.715728759765625
 30
0.0
 70
0
  0
VERTEX
  5
82
  8
CUT
 10
14.406128931045533
 20
9.27729320526123
 30
0.0
 70
0
  0
VERTEX
  5
83
  8
CUT
 10
14.624269485473633
 20
9.079582214355469
 30
0.0
 70
0
  0
VERTEX
  5
84
  8
CUT
 10
17.540722036361693
 20
6.916592311859134
 30
0.0
 70
0
  0
VERTEX
  5
85
  8
CUT
 10
17.777191162109375
 20
6.741214752197266
 30
0.0
 70
0
  0
VERTEX
  5
86
  8
CUT
 10
20.89161024093628
 20
4.8745033264160185
 30
0.0
 70
0
  0
VERTEX
  5
87
  8
CUT
 10
21.14413070678711
 20
4.723148345947266
 30
0.0
 70
0
  0
VERTEX
  5
88
  8
CUT
 10
24.426522374153137
 20
3.170693588256839
 30
0.0
 70
0
  0
VERTEX
  5
89
  8
CUT
 10
24.692662239074707
 20
3.044818878173828
 30
0.0
 70
0
  0
VERTEX
  5
8A
  8
CUT
 10
28.111416459083557
 20
1.8215679168701158
 30
0.0
 70
0
  0
VERTEX
  5
8B
  8
CUT
 10
28.388612747192383
 20
1.7223854064941406
 30
0.0
 70
0
  0
VERTEX
  5
8C
  8
CUT
 10
31.910804200172425
 20
0.8401237487792983
 30
0.0
 70
0
  0
VERTEX
  5
8D
  8
CUT
 10
32.19638729095459
 20
0.7685890197753906
 30
0.0
 70
0
  0
VERTEX
  5
8E
  8
CUT
 10
35.788094931840895
 20
0.23580999374389933
 30
0.0
 70
0
  0
VERTEX
  5
8F
  8
CUT
 10
36.07931447029114
 20
0.1926116943359375
 30
0.0
 70
0
  0
VERTEX
  5
90
  8
CUT
 10
39.70594858527184
 20
0.014445877075196734
 30
0.0
 70
0
  0
VERTEX
  5
91
  8
CUT
 10
40.00000000000001
 20
0.0
 30
0.0
 70
0
  0
VERTEX
  5
92
  8
CUT
 10
43.626634114980696
 20
0.17816581726074077
 30
0.0
 70
0
  0
VERTEX
  5
93
  8
CUT
 10
43.92068552970886
 20
0.1926116943359375
 30
0.0
 70
0
  0
VERTEX
  5
94
  8
CUT
 10
47.51239317059517
 20
0.7253907203674288
 30
0.0
 70
0
  0
VERTEX
  5
95
  8
CUT
 10
47.80361270904541
 20
0.7685890197753906
 30
0.0
 70
0
  0
VERTEX
  5
96
  8
CUT
 10
51.32580416202545
 20
1.650850677490233
 30
0.0
 70
0
  0
VERTEX
  5
97
  8
CUT
 10
51.61138725280762
 20
1.7223854064941406
 30
0.0
 70
0
  0
VERTEX
  5
98
  8
CUT
 10
55.03014147281647
 20
2.945636367797853
 30
0.0
 70
0
  0
VERTEX
  5
99
  8
CUT
 10
55.30733776092529
 20
3.044818878173828
 30
0.0
 70
0
  0
VERTEX
  5
9A
  8
CUT
 10
58.58972942829132
 20
4.597273635864255
 30
0.0
 70
0
  0
VERTEX
  5
9B
  8
CUT
 10
58.85586929321289
 20
4.723148345947266
 30
0.0
 70
0
  0
VERTEX
  5
9C
  8
CUT
 10
61.970288372039796
 20
6.589859771728513
 30
0.0
 70
0
  0
VERTEX
  5
9D
  8
CUT
 10
62.222808837890625
 20
6.741214752197266
 30
0.0
 70
0
  0
VERTEX
  5
9E
  8
CUT
 10
65.13926138877869
 20
8.904204654693604
 30
0.0
 70
0
  0
VERTEX
  5
9F
  8
CUT
 10
65.37573051452637
 20
9.079582214355469
 30
0.0
 70
0
  0
VERTEX
  5
A0
  8
CUT
 10
68.06613068580627
 20
11.518017768859863
 30
0.0
 70
0
  0
VERTEX
  5
A1
  8
CUT
 10
68.28427124023438
 20
11.715728759765625
 30
0.0
 70
0
  0
VERTEX
  5
A2
  8
CUT
 10
70.72270679473877
 20
14.406128931045533
 30
0.0
 70
0
  0
VERTEX
  5
A3
  8
CUT
 10
70.92041778564453
 20
14.624269485473633
 30
0.0
 70
0
  0
VERTEX
  5
A4
  8
CUT
 10
73.08340768814087
 20
17.540722036361693
 30
0.0
 70
0
  0
VERTEX
  5
A5
  8
CUT
 10
73.25878524780273
 20
17.777191162109375
 30
0.0
 70
0
  0
VERTEX
  5
A6
  8
CUT
 10
75.12549667358398
 20
20.89161024093628
 30
0.0
 70
0
  0
VERTEX
  5
A7
  8
CUT
 10
75.27685165405273
 20
21.14413070678711
 30
0.0
 70
0
  0
VERTEX
  5
A8
  8
CUT
 10
76.82930641174316
 20
24.426522374153137
 30
0.0
 70
0
  0
VERTEX
  5
A9
  8
CUT
 10
76.95518112182617
 20
24.692662239074707
 30
0.0
 70
0
  0
VERTEX
  5
AA
  8
CUT
 10
78.17843208312988
 20
28.111416459083557
 30
0.0
 70
0
  0
VERTEX
  5
AB
  8
CUT
 10
78.27761459350586
 20
28.388612747192383
 30
0.0
 70
0
  0
VERTEX
  5
AC
  8
CUT
 10
79.15987625122071
 20
31.910804200172425
 30
0.0
 70
0
  0
VERTEX
  5
AD
  8
CUT
 10
79.23141098022461
 20
32.19638729095459
 30
0.0
 70
0
  0
VERTEX
  5
AE
  8
CUT
 10
79.7641900062561
 20
35.788094931840895
 30
0.0
 70
0
  0
VERTEX
  5
AF
  8
CUT
 10
79.80738830566406
 20
36.07931447029114
 30
0.0
 70
0
  0
VERTEX
  5
B0
  8
CUT
 10
79.98555412292481
 20
39.70594858527184
 30
0.0
 70
0
  0
SEQEND
  5
30
  8
CUT
  0
POLYLINE
  5
B1
  8
CUT
 66
1
 10
0.0
 20
0.0
 30
0.0
 70
1
  0
VERTEX
  5
B3
  8
CUT
 10
33.0
 20
8.000000000000004
 30
0.0
 70
0
  0
VERTEX
  5
B4
  8
CUT
 10
32.94235584120969
 20
7.414729033951616
 30
0.0
 70
0
  0
VERTEX
  5
B5
  8
CUT
 10
32.77163859753386
 20
6.851949702904733
 30
0.0
 70
0
  0
VERTEX
  5
B6
  8
CUT
 10
32.49440883690764
 20
6.333289300941196
 30
0.0
 70
0
  0
VERTEX
  5
B7
  8
CUT
 10
32.121320343559645
 20
5.8786796564403545
 30
0.0
 70
0
  0
VERTEX
  5
B8
  8
CUT
 10
31.666710699058807
 20
5.505591163092362
 30
0.0
 70
0
  0
VERTEX
  5
B9
  8
CUT
 10
31.148050297095267
 20
5.228361402466142
 30
0.0
 70
0
  0
VERTEX
  5
BA
  8
CUT
 10
30.585270966048384
 20
5.0576441587903105
 30
0.0
 70
0
  0
VERTEX
  5
BB
  8
CUT
 10
30.0
 20
5.0
 30
0.0
 70
0
  0
VERTEX
  5
BC
  8
CUT
 10
29.414729033951616
 20
5.0576441587903105
 30
0.0
 70
0
  0
VERTEX
  5
BD
  8
CUT
 10
28.851949702904733
 20
5.228361402466142
 30
0.0
 70
0
  0
VERTEX
  5
BE
  8
CUT
 10
28.333289300941196
 20
5.505591163092362
 30
0.0
 70
0
  0
VERTEX
  5
BF
  8
CUT
 10
27.878679656440358
 20
5.8786796564403545
 30
0.0
 70
0
  0
VERTEX
  5
C0
  8
CUT
 10
27.50559116309236
 20
6.333289300941196
 30
0.0
 70
0
  0
VERTEX
  5
C1
  8
CUT
 10
27.228361402466142
 20
6.851949702904733
 30
0.0
 70
0
  0
VERTEX
  5
C2
  8
CUT
 10
27.05764415879031
 20
7.414729033951616
 30
0.0
 70
0
  0
VERTEX
  5
C3
  8
CUT
 10
27.0
 20
8.000000000000004
 30
0.0
 70
0
  0
VERTEX
  5
C4
  8
CUT
 10
27.05764415879031
 20
8.585270966048384
 30
0.0
 70
0
  0
VERTEX
  5
C5
  8
CUT
 10
27.228361402466142
 20
9.14805029709527
 30
0.0
 70
0
  0
VERTEX
  5
C6
  8
CUT
 10
27.50559116309236
 20
9.666710699058807
 30
0.0
 70
0
  0
VERTEX
  5
C7
  8
CUT
 10
27.878679656440358
 20
10.121320343559642
 30
0.0
 70
0
  0
VERTEX
  5
C8
  8
CUT
 10
28.333289300941193
 20
10.494408836907635
 30
0.0
 70
0
  0
VERTEX
  5
C9
  8
CUT
 10
28.85194970290473
 20
10.771638597533858
 30
0.0
 70
0
  0
VERTEX
  5
CA
  8
CUT
 10
29.414729033951616
 20
10.94235584120969
 30
0.0
 70
0
  0
VERTEX
  5
CB
  8
CUT
 10
30.0
 20
11.0
 30
0.0
 70
0
  0
VERTEX
  5
CC
  8
CUT
 10
30.585270966048384
 20
10.94235584120969
 30
0.0
 70
0
  0
VERTEX
  5
CD
  8
CUT
 10
31.14805029709527
 20
10.771638597533858
 30
0.0
 70
0
  0
VERTEX
  5
CE
  8
CUT
 10
31.666710699058804
 20
10.494408836907638
 30
0.0
 70
0
  0
VERTEX
  5
CF
  8
CUT
 10
32.121320343559645
 20
10.121320343559642
 30
0.0
 70
0
  0
VERTEX
  5
D0
  8
CUT
 10
32.49440883690764
 20
9.666710699058807
 30
0.0
 70
0
  0
VERTEX
  5
D1
  8
CUT
 10
32.77163859753386
 20
9.14805029709527
 30
0.0
 70
0
  0
VERTEX
  5
D2
  8
CUT
 10
32.94235584120969
 20
8.585270966048387
 30
0.0
 70
0
  0
SEQEND
  5
B2
  8
CUT
  0
POLYLINE
  5
D3
  8
CUT
 66
1
 10
0.0
 20
0.0
 30
0.0
 70
1
  0
VERTEX
  5
D5
  8
CUT
 10
53.0
 20
72.0
 30
0.0
 70
0
  0
VERTEX
  5
D6
  8
CUT
 10
52.94235584120969
 20
71.41472903395162
 30
0.0
 70
0
  0
VERTEX
  5
D7
  8
CUT
 10
52.77163859753386
 20
70.85194970290473
 30
0.0
 70
0
  0
VERTEX
  5
D8
  8
CUT
 10
52.49440883690764
 20
70.33328930094119
 30
0.0
 70
0
  0
VERTEX
  5
D9
  8
CUT
 10
52.121320343559645
 20
69.87867965644035
 30
0.0
 70
0
  0
VERTEX
  5
DA
  8
CUT
 10
51.66671069905881
 20
69.50559116309236
 30
0.0
 70
0
  0
VERTEX
  5
DB
  8
CUT
 10
51.14805029709527
 20
69.22836140246613
 30
0.0
 70
0
  0
VERTEX
  5
DC
  8
CUT
 10
50.585270966048384
 20
69.05764415879031
 30
0.0
 70
0
  0
VERTEX
  5
DD
  8
CUT
 10
50.0
 20
69.0
 30
0.0
 70
0
  0
VERTEX
  5
DE
  8
CUT
 10
49.414729033951616
 20
69.05764415879031
 30
0.0
 70
0
  0
VERTEX
  5
DF
  8
CUT
 10
48.85194970290473
 20
69.22836140246613
 30
0.0
 70
0
  0
VERTEX
  5
E0
  8
CUT
 10
48.333289300941196
 20
69.50559116309236
 30
0.0
 70
0
  0
VERTEX
  5
E1
  8
CUT
 10
47.878679656440355
 20
69.87867965644035
 30
0.0
 70
0
  0
VERTEX
  5
E2
  8
CUT
 10
47.50559116309236
 20
70.33328930094119
 30
0.0
 70
0
  0
VERTEX
  5
E3
  8
CUT
 10
47.22836140246614
 20
70.85194970290473
 30
0.0
 70
0
  0
VERTEX
  5
E4
  8
CUT
 10
47.05764415879031
 20
71.41472903395162
 30
0.0
 70
0
  0
VERTEX
  5
E5
  8
CUT
 10
47.0
 20
72.0
 30
0.0
 70
0
  0
VERTEX
  5
E6
  8
CUT
 10
47.05764415879031
 20
72.58527096604838
 30
0.0
 70
0
  0
VERTEX
  5
E7
  8
CUT
 10
47.22836140246614
 20
73.14805029709527
 30
0.0
 70
0
  0
VERTEX
  5
E8
  8
CUT
 10
47.50559116309236
 20
73.6667106990588
 30
0.0
 70
0
  0
VERTEX
  5
E9
  8
CUT
 10
47.878679656440355
 20
74.12132034355965
 30
0.0
 70
0
  0
VERTEX
  5
EA
  8
CUT
 10
48.33328930094119
 20
74.49440883690764
 30
0.0
 70
0
  0
VERTEX
  5
EB
  8
CUT
 10
48.85194970290473
 20
74.77163859753387
 30
0.0
 70
0
  0
VERTEX
  5
EC
  8
CUT
 10
49.414729033951616
 20
74.94235584120969
 30
0.0
 70
0
  0
VERTEX
  5
ED
  8
CUT
 10
50.0
 20
75.0
 30
0.0
 70
0
  0
VERTEX
  5
EE
  8
CUT
 10
50.585270966048384
 20
74.94235584120969
 30
0.0
 70
0
  0
VERTEX
  5
EF
  8
CUT
 10
51.14805029709527
 20
74.77163859753387
 30
0.0
 70
0
  0
VERTEX
  5
F0
  8
CUT
 10
51.666710699058804
 20
74.49440883690764
 30
0.0
 70
0
  0
VERTEX
  5
F1
  8
CUT
 10
52.121320343559645
 20
74.12132034355965
 30
0.0
 70
0
  0
VERTEX
  5
F2
  8
CUT
 10
52.49440883690764
 20
73.6667106990588
 30
0.0
 70
0
  0
VERTEX
  5
F3
  8
CUT
 10
52.77163859753386
 20
73.14805029709527
 30
0.0
 70
0
  0
VERTEX
  5
F4
  8
CUT
 10
52.94235584120969
 20
72.58527096604838
 30
0.0
 70
0
  0
SEQEND
  5
D4
  8
CUT
  0
POLYLINE
  5
F5
  8
CUT
 66
1
 10
0.0
 20
0.0
 30
0.0
 70
1
  0
VERTEX
  5
F7
  8
CUT
 10
75.0
 20
30.0
 30
0.0
 70
0
  0
VERTEX
  5
F8
  8
CUT
 10
74.94235584120969
 20
29.414729033951616
 30
0.0
 70
0
  0
VERTEX
  5
F9
  8
CUT
 10
74.77163859753387
 20
28.851949702904733
 30
0.0
 70
0
  0
VERTEX
  5
FA
  8
CUT
 10
74.49440883690764
 20
28.333289300941193
 30
0.0
 70
0
  0
VERTEX
  5
FB
  8
CUT
 10
74.12132034355965
 20
27.878679656440358
 30
0.0
 70
0
  0
VERTEX
  5
FC
  8
CUT
 10
73.6667106990588
 20
27.505591163092365
 30
0.0
 70
0
  0
VERTEX
  5
FD
  8
CUT
 10
73.14805029709527
 20
27.228361402466142
 30
0.0
 70
0
  0
VERTEX
  5
FE
  8
CUT
 10
72.58527096604838
 20
27.05764415879031
 30
0.0
 70
0
  0
VERTEX
  5
FF
  8
CUT
 10
72.0
 20
27.0
 30
0.0
 70
0
  0
VERTEX
  5
100
  8
CUT
 10
71.41472903395162
 20
27.05764415879031
 30
0.0
 70
0
  0
VERTEX
  5
101
  8
CUT
 10
70.85194970290473
 20
27.228361402466142
 30
0.0
 70
0
  0
VERTEX
  5
102
  8
CUT
 10
70.33328930094119
 20
27.50559116309236
 30
0.0
 70
0
  0
VERTEX
  5
103
  8
CUT
 10
69.87867965644035
 20
27.878679656440358
 30
0.0
 70
0
  0
VERTEX
  5
104
  8
CUT
 10
69.50559116309236
 20
28.333289300941193
 30
0.0
 70
0
  0
VERTEX
  5
105
  8
CUT
 10
69.22836140246613
 20
28.85194970290473
 30
0.0
 70
0
  0
VERTEX
  5
106
  8
CUT
 10
69.05764415879031
 20
29.414729033951616
 30
0.0
 70
0
  0
VERTEX
  5
107
  8
CUT
 10
69.0
 20
30.0
 30
0.0
 70
0
  0
VERTEX
  5
108
  8
CUT
 10
69.05764415879031
 20
30.585270966048384
 30
0.0
 70
0
  0
VERTEX
  5
109
  8
CUT
 10
69.22836140246613
 20
31.148050297095267
 30
0.0
 70
0
  0
VERTEX
  5
10A
  8
CUT
 10
69.50559116309236
 20
31.666710699058804
 30
0.0
 70
0
  0
VERTEX
  5
10B
  8
CUT
 10
69.87867965644035
 20
32.121320343559645
 30
0.0
 70
0
  0
VERTEX
  5
10C
  8
CUT
 10
70.33328930094119
 20
32.49440883690764
 30
0.0
 70
0
  0
VERTEX
  5
10D
  8
CUT
 10
70.85194970290473
 20
32.77163859753386
 30
0.0
 70
0
  0
VERTEX
  5
10E
  8
CUT
 10
71.41472903395162
 20
32.94235584120969
 30
0.0
 70
0
  0
VERTEX
  5
10F
  8
CUT
 10
72.0
 20
33.0
 30
0.0
 70
0
  0
VERTEX
  5
110
  8
CUT
 10
72.58527096604838
 20
32.94235584120969
 30
0.0
 70
0
  0
VERTEX
  5
111
  8
CUT
 10
73.14805029709527
 20
32.77163859753386
 30
0.0
 70
0
  0
VERTEX
  5
112
  8
CUT
 10
73.6667106990588
 20
32.49440883690764
 30
0.0
 70
0
  0
VERTEX
  5
113
  8
CUT
 10
74.12132034355965
 20
32.121320343559645
 30
0.0
 70
0
  0
VERTEX
  5
114
  8
CUT
 10
74.49440883690764
 20
31.666710699058807
 30
0.0
 70
0
  0
VERTEX
  5
115
  8
CUT
 10
74.77163859753387
 20
31.14805029709527
 30
0.0
 70
0
  0
VERTEX
  5
116
  8
CUT
 10
74.94235584120969
 20
30.585270966048384
 30
0.0
 70
0
  0
SEQEND
  5
F6
  8
CUT
  0
POLYLINE
  5
117
  8
ENGRAVE
 66
1
 10
0.0
 20
0.0
 30
0.0
 70
0
  0
VERTEX
  5
119
  8
ENGRAVE
 10
55.0
 20
63.0
 30
0.0
 70
0
  0
VERTEX
  5
11A
  8
ENGRAVE
 10
60.0
 20
63.0
 30
0.0
 70
0
  0
SEQEND
  5
118
  8
ENGRAVE
  0
POLYLINE
  5
11B
  8
ENGRAVE
 66
1
 10
0.0
 20
0.0
 30
0.0
 70
0
  0
VERTEX
  5
11D
  8
ENGRAVE
 10
60.0
 20
63.0
 30
0.0
 70
0
  0
VERTEX
  5
11E
  8
ENGRAVE
 10
65.0
 20
63.0
 30
0.0
 70
0
  0
SEQEND
  5
11C
  8
ENGRAVE
  0
POLYLINE
  5
11F
  8
ENGRAVE
 66
1
 10
0.0
 20
0.0
 30
0.0
 70
0
  0
VERTEX
  5
121
  8
ENGRAVE
 10
55.0
 20
65.0
 30
0.0
 70
0
  0
VERTEX
  5
122
  8
ENGRAVE
 10
55.0
 20
71.0
 30
0.0
 70
0
  0
SEQEND
  5
120
  8
ENGRAVE
  0
POLYLINE
  5
123
  8
ENGRAVE
 66
1
 10
0.0
 20
0.0
 30
0.0
 70
0
  0
VERTEX
  5
125
  8
ENGRAVE
 10
55.0
 20
71.0
 30
0.0
 70
0
  0
VERTEX
  5
126
  8
ENGRAVE
 10
60.0
 20
71.0
 30
0.0
 70
0
  0
SEQEND
  5
124
  8
ENGRAVE
  0
POLYLINE
  5
127
  8
ENGRAVE
 66
1
 10
0.0
 20
0.0
 30
0.0
 70
0
  0
VERTEX
  5
129
  8
ENGRAVE
 10
60.0
 20
71.0
 30
0.0
 70
0
  0
VERTEX
  5
12A
  8
ENGRAVE
 10
65.0
 20
71.0
 30
0.0
 70
0
  0
SEQEND
  5
128
  8
ENGRAVE
  0
POLYLINE
  5
12B
  8
ENGRAVE
 66
1
 10
0.0
 20
0.0
 30
0.0
 70
0
  0
VERTEX
  5
12D
  8
ENGRAVE
 10
65.0
 20
65.0
 30
0.0
 70
0
  0
VERTEX
  5
12E
  8
ENGRAVE
 10
65.0
 20
71.0
 30
0.0
 70
0
  0
SEQEND
  5
12C
  8
ENGRAVE
  0
POLYLINE
  5
12F
  8
ENGRAVE
 66
1
 10
0.0
 20
0.0
 30
0.0
 70
0
  0
VERTEX
  5
131
  8
ENGRAVE
 10
55.0
 20
65.0
 30
0.0
 70
0
  0
VERTEX
  5
132
  8
ENGRAVE
 10
60.0
 20
65.0
 30
0.0
 70
0
  0
SEQEND
  5
130
  8
ENGRAVE
  0
POLYLINE
  5
133
  8
ENGRAVE
 66
1
 10
0.0
 20
0.0
 30
0.0
 70
0
  0
VERTEX
  5
135
  8
ENGRAVE
 10
60.0
 20
65.0
 30
0.0
 70
0
  0
VERTEX
  5
136
  8
ENGRAVE
 10
60.0
 20
71.0
 30
0.0
 70
0
  0
SEQEND
  5
134
  8
ENGRAVE
  0
POLYLINE
  5
137
  8
CUT
 66
1
 10
0.0
 20
0.0
 30
0.0
 70
1
  0
VERTEX
  5
139
  8
CUT
 10
160.2
 20
40.0
 30
0.0
 70
0
  0
VERTEX
  5
13A
  8
CUT
 10
160.01220359802247
 20
43.82266839146614
 30
0.0
 70
0
  0
VERTEX
  5
13B
  8
CUT
 10
160.00738830566405
 20
43.92068552970886
 30
0.0
 70
0
  0
VERTEX
  5
13C
  8
CUT
 10
159.4458104133606
 20
47.706539529561994
 30
0.0
 70
0
  0
VERTEX
  5
13D
  8
CUT
 10
159.4314109802246
 20
47.80361270904541
 30
0.0
 70
0
  0
VERTEX
  5
13E
  8
CUT
 10
158.50145950317383
 20
51.51619288921356
 30
0.0
 70
0
  0
VERTEX
  5
13F
  8
CUT
 10
158.47761459350585
 20
51.61138725280762
 30
0.0
 70
0
  0
VERTEX
  5
140
  8
CUT
 10
157.18824195861816
 20
55.21493899822235
 30
0.0
 70
0
  0
VERTEX
  5
141
  8
CUT
 10
157.15518112182616
 20
55.30733776092529
 30
0.0
 70
0
  0
VERTEX
  5
142
  8
CUT
 10
155.51880989074706
 20
58.7671560049057
 30
0.0
 70
0
  0
VERTEX
  5
143
  8
CUT
 10
155.47685165405272
 20
58.85586929321289
 30
0.0
 70
0
  0
VERTEX
  5
144
  8
CUT
 10
153.50923690795898
 20
62.138635349273684
 30
0.0
 70
0
  0
VERTEX
  5
145
  8
CUT
 10
153.45878524780272
 20
62.222808837890625
 30
0.0
 70
0
  0
VERTEX
  5
146
  8
CUT
 10
151.17887697219848
 20
65.29690747261047
 30
0.0
 70
0
  0
VERTEX
  5
147
  8
CUT
 10
151.12041778564452
 20
65.37573051452637
 30
0.0
 70
0
  0
VERTEX
  5
148
  8
CUT
 10
148.55017490386962
 20
68.21155772209167
 30
0.0
 70
0
  0
VERTEX
  5
149
  8
CUT
 10
148.48427124023436
 20
68.28427124023438
 30
0.0
 70
0
  0
VERTEX
  5
14A
  8
CUT
 10
145.64844403266906
 20
70.85451412200928
 30
0.0
 70
0
  0
VERTEX
  5
14B
  8
CUT
 10
145.57573051452636
 20
70.92041778564453
 30
0.0
 70
0
  0
VERTEX
  5
14C
  8
CUT
 10
142.50163187980652
 20
73.20032606124877
 30
0.0
 70
0
  0
VERTEX
  5
14D
  8
CUT
 10
142.4228088378906
 20
73.25878524780273
 30
0.0
 70
0
  0
VERTEX
  5
14E
  8
CUT
 10
139.14004278182983
 20
75.22639999389648
 30
0.0
 70
0
  0
VERTEX
  5
14F
  8
CUT
 10
139.05586929321288
 20
75.27685165405273
 30
0.0
 70
0
  0
VERTEX
  5
150
  8
CUT
 10
135.59605104923247
 20
76.91322288513183
 30
0.0
 70
0
  0
VERTEX
  5
151
  8
CUT
 10
135.50733776092528
 20
76.95518112182617
 30
0.0
 70
0
  0
VERTEX
  5
152
  8
CUT
 10
131.90378601551055
 20
78.24455375671387
 30
0.0
 70
0
  0
VERTEX
  5
153
  8
CUT
 10
131.8113872528076
 20
78.27761459350586
 30
0.0
 70
0
  0
VERTEX
  5
154
  8
CUT
 10
128.09880707263946
 20
79.20756607055664
 30
0.0
 70
0
  0
VERTEX
  5
155
  8
CUT
 10
128.0036127090454
 20
79.23141098022461
 30
0.0
 70
0
  0
VERTEX
  5
156
  8
CUT
 10
124.21775870919228
 20
79.79298887252807
 30
0.0
 70
0
  0
VERTEX
  5
157
  8
CUT
 10
124.12068552970887
 20
79.80738830566406
 30
0.0
 70
0
  0
VERTEX
  5
158
  8
CUT
 10
120.29801713824273
 20
79.9951847076416
 30
0.0
 70
0
  0
VERTEX
  5
159
  8
CUT
 10
120.2
 20
80.0
 30
0.0
 70
0
  0
VERTEX
  5
15A
  8
CUT
 10
116.37733160853386
 20
79.81220359802246
 30
0.0
 70
0
  0
VERTEX
  5
15B
  8
CUT
 10
116.27931447029114
 20
79.80738830566406
 30
0.0
 70
0
  0
VERTEX
  5
15C
  8
CUT
 10
112.49346047043801
 20
79.2458104133606
 30
0.0
 70
0
  0
VERTEX
  5
15D
  8
CUT
 10
112.39638729095459
 20
79.23141098022461
 30
0.0
 70
0
  0
VERTEX
  5
15E
  8
CUT
 10
108.68380711078645
 20
78.30145950317383
 30
0.0
 70
0
  0
VERTEX
  5
15F
  8
CUT
 10
108.58861274719239
 20
78.27761459350586
 30
0.0
 70
0
  0
VERTEX
  5
160
  8
CUT
 10
104.98506100177765
 20
76.98824195861816
 30
0.0
 70
0
  0
VERTEX
  5
161
  8
CUT
 10
104.89266223907471
 20
76.95518112182617
 30
0.0
 70
0
  0
VERTEX
  5
162
  8
CUT
 10
101.4328439950943
 20
75.31880989074708
 30
0.0
 70
0
  0
VERTEX
  5
163
  8
CUT
 10
101.34413070678711
 20
75.27685165405273
 30
0.0
 70
0
  0
VERTEX
  5
164
  8
CUT
 10
98.06136465072632
 20
73.30923690795899
 30
0.0
 70
0
  0
VERTEX
  5
165
  8
CUT
 10
97.97719116210938
 20
73.25878524780273
 30
0.0
 70
0
  0
VERTEX
  5
166
  8
CUT
 10
94.90309252738953
 20
70.97887697219849
 30
0.0
 70
0
  0
VERTEX
  5
167
  8
CUT
 10
94.82426948547364
 20
70.92041778564453
 30
0.0
 70
0
  0
VERTEX
  5
168
  8
CUT
 10
91.98844227790832
 20
68.35017490386963
 30
0.0
 70
0
  0
VERTEX
  5
169
  8
CUT
 10
91.91572875976563
 20
68.28427124023438
 30
0.0
 70
0
  0
VERTEX
  5
16A
  8
CUT
 10
89.34548587799073
 20
65.44844403266907
 30
0.0
 70
0
  0
VERTEX
  5
16B
  8
CUT
 10
89.27958221435547
 20
65.37573051452637
 30
0.0
 70
0
  0
VERTEX
  5
16C
  8
CUT
 10
86.99967393875122
 20
62.30163187980652
 30
0.0
 70
0
  0
VERTEX
  5
16D
  8
CUT
 10
86.94121475219727
 20
62.222808837890625
 30
0.0
 70
0
  0
VERTEX
  5
16E
  8
CUT
 10
84.97360000610351
 20
58.94004278182983
 30
0.0
 70
0
  0
VERTEX
  5
16F
  8
CUT
 10
84.92314834594727
 20
58.85586929321289
 30
0.0
 70
0
  0
VERTEX
  5
170
  8
CUT
 10
83.28677711486816
 20
55.39605104923248
 30
0.0
 70
0
  0
VERTEX
  5
171
  8
CUT
 10
83.24481887817383
 20
55.30733776092529
 30
0.0
 70
0
  0
VERTEX
  5
172
  8
CUT
 10
81.95544624328613
 20
51.70378601551056
 30
0.0
 70
0
  0
VERTEX
  5
173
  8
CUT
 10
81.92238540649414
 20
51.61138725280762
 30
0.0
 70
0
  0
VERTEX
  5
174
  8
CUT
 10
80.99243392944337
 20
47.898807072639464
 30
0.0
 70
0
  0
VERTEX
  5
175
  8
CUT
 10
80.9685890197754
 20
47.80361270904541
 30
0.0
 70
0
  0
VERTEX
  5
176
  8
CUT
 10
80.40701112747192
 20
44.01775870919228
 30
0.0
 70
0
  0
VERTEX
  5
177
  8
CUT
 10
80.39261169433594
 20
43.92068552970886
 30
0.0
 70
0
  0
VERTEX
  5
178
  8
CUT
 10
80.2048152923584
 20
40.09801713824272
 30
0.0
 70
0
  0
VERTEX
  5
179
  8
CUT
 10
80.2
 20
39.99999999999999
 30
0.0
 70
0
  0
VERTEX
  5
17A
  8
CUT
 10
80.38779640197754
 20
36.17733160853386
 30
0.0
 70
0
  0
VERTEX
  5
17B
  8
CUT
 10
80.39261169433594
 20
36.07931447029114
 30
0.0
 70
0
  0
VERTEX
  5
17C
  8
CUT
 10
80.95418958663942
 20
32.293460470438006
 30
0.0
 70
0
  0
VERTEX
  5
17D
  8
CUT
 10
80.9685890197754
 20
32.19638729095459
 30
0.0
 70
0
  0
VERTEX
  5
17E
  8
CUT
 10
81.89854049682617
 20
28.483807110786437
 30
0.0
 70
0
  0
VERTEX
  5
17F
  8
CUT
 10
81.92238540649414
 20
28.388612747192383
 30
0.0
 70
0
  0
VERTEX
  5
180
  8
CUT
 10
83.21175804138184
 20
24.78506100177765
 30
0.0
 70
0
  0
VERTEX
  5
181
  8
CUT
 10
83.24481887817383
 20
24.692662239074707
 30
0.0
 70
0
  0
VERTEX
  5
182
  8
CUT
 10
84.88119010925294
 20
21.2328439950943
 30
0.0
 70
0
  0
VERTEX
  5
183
  8
CUT
 10
84.92314834594727
 20
21.14413070678711
 30
0.0
 70
0
  0
VERTEX
  5
184
  8
CUT
 10
86.89076309204103
 20
17.86136465072632
 30
0.0
 70
0
  0
VERTEX
  5
185
  8
CUT
 10
86.94121475219727
 20
17.777191162109375
 30
0.0
 70
0
  0
VERTEX
  5
186
  8
CUT
 10
89.22112302780153
 20
14.703092527389526
 30
0.0
 70
0
  0
VERTEX
  5
187
  8
CUT
 10
89.27958221435547
 20
14.624269485473633
 30
0.0
 70
0
  0
VERTEX
  5
188
  8
CUT
 10
91.84982509613037
 20
11.788442277908324
 30
0.0
 70
0
  0
VERTEX
  5
189
  8
CUT
 10
91.91572875976563
 20
11.715728759765625
 30
0.0
 70
0
  0
VERTEX
  5
18A
  8
CUT
 10
94.75155596733094
 20
9.145485877990723
 30
0.0
 70
0
  0
VERTEX
  5
18B
  8
CUT
 10
94.82426948547364
 20
9.079582214355469
 30
0.0
 70
0
  0
VERTEX
  5
18C
  8
CUT
 10
97.89836812019348
 20
6.799673938751219
 30
0.0
 70
0
  0
VERTEX
  5
18D
  8
CUT
 10
97.97719116210938
 20
6.741214752197266
 30
0.0
 70
0
  0
VERTEX
  5
18E
  8
CUT
 10
101.25995721817017
 20
4.773600006103514
 30
0.0
 70
0
  0
VERTEX
  5
18F
  8
CUT
 10
101.34413070678711
 20
4.723148345947266
 30
0.0
 70
0
  0
VERTEX
  5
190
  8
CUT
 10
104.80394895076752
 20
3.0867771148681626
 30
0.0
 70
0
  0
VERTEX
  5
191
  8
CUT
 10
104.89266223907471
 20
3.044818878173828
 30
0.0
 70
0
  0
VERTEX
  5
192
  8
CUT
 10
108.49621398448944
 20
1.75544624328613
 30
0.0
 70
0
  0
VERTEX
  5
193
  8
CUT
 10
108.58861274719239
 20
1.7223854064941406
 30
0.0
 70
0
  0
VERTEX
  5
194
  8
CUT
 10
112.30119292736053
 20
0.7924339294433622
 30
0.0
 70
0
  0
VERTEX
  5
195
  8
CUT
 10
112.39638729095459
 20
0.7685890197753906
 30
0.0
 70
0
  0
VERTEX
  5
196
  8
CUT
 10
116.18224129080772
 20
0.2070111274719224
 30
0.0
 70
0
  0
VERTEX
  5
197
  8
CUT
 10
116.27931447029114
 20
0.1926116943359375
 30
0.0
 70
0
  0
VERTEX
  5
198
  8
CUT
 10
120.10198286175729
 20
0.00481529235840128
 30
0.0
 70
0
  0
VERTEX
  5
199
  8
CUT
 10
120.2
 20
0.0
 30
0.0
 70
0
  0
VERTEX
  5
19A
  8
CUT
 10
124.02266839146614
 20
0.18779640197753622
 30
0.0
 70
0
  0
VERTEX
  5
19B
  8
CUT
 10
124.12068552970887
 20
0.1926116943359375
 30
0.0
 70
0
  0
VERTEX
  5
19C
  8
CUT
 10
127.906539529562
 20
0.7541895866394057
 30
0.0
 70
0
  0
VERTEX
  5
19D
  8
CUT
 10
128.0036127090454
 20
0.7685890197753906
 30
0.0
 70
0
  0
VERTEX
  5
19E
  8
CUT
 10
131.71619288921357
 20
1.698540496826169
 30
0.0
 70
0
  0
VERTEX
  5
19F
  8
CUT
 10
131.8113872528076
 20
1.7223854064941406
 30
0.0
 70
0
  0
VERTEX
  5
1A0
  8
CUT
 10
135.41493899822234
 20
3.011758041381839
 30
0.0
 70
0
  0
VERTEX
  5
1A1
  8
CUT
 10
135.50733776092528
 20
3.044818878173828
 30
0.0
 70
0
  0
VERTEX
  5
1A2
  8
CUT
 10
138.9671560049057
 20
4.681190109252931
 30
0.0
 70
0
  0
VERTEX
  5
1A3
  8
CUT
 10
139.05586929321288
 20
4.723148345947266
 30
0.0
 70
0
  0
VERTEX
  5
1A4
  8
CUT
 10
142.3386353492737
 20
6.690763092041017
 30
0.0
 70
0
  0
VERTEX
  5
1A5
  8
CUT
 10
142.4228088378906
 20
6.741214752197266
 30
0.0
 70
0
  0
VERTEX
  5
1A6
  8
CUT
 10
145.49690747261047
 20
9.021123027801515
 30
0.0
 70
0
  0
VERTEX
  5
1A7
  8
CUT
 10
145.57573051452636
 20
9.079582214355469
 30
0.0
 70
0
  0
VERTEX
  5
1A8
  8
CUT
 10
148.4115577220917
 20
11.649825096130371
 30
0.0
 70
0
  0
VERTEX
  5
1A9
  8
CUT
 10
148.48427124023436
 20
11.715728759765625
 30
0.0
 70
0
  0
VERTEX
  5
1AA
  8
CUT
 10
151.05451412200927
 20
14.551555967330934
 30
0.0
 70
0
  0
VERTEX
  5
1AB
  8
CUT
 10
151.12041778564452
 20
14.624269485473633
 30
0.0
 70
0
  0
VERTEX
  5
1AC
  8
CUT
 10
153.4003260612488
 20
17.698368120193482
 30
0.0
 70
0
  0
VERTEX
  5
1AD
  8
CUT
 10
153.45878524780272
 20
17.777191162109375
 30
0.0
 70
0
  0
VERTEX
  5
1AE
  8
CUT
 10
155.4263999938965
 20
21.059957218170165
 30
0.0
 70
0
  0
VERTEX
  5
1AF
  8
CUT
 10
155.47685165405272
 20
21.14413070678711
 30
0.0
 70
0
  0
VERTEX
  5
1B0
  8
CUT
 10
157.11322288513185
 20
24.603948950767517
 30
0.0
 70
0
  0
VERTEX
  5
1B1
  8
CUT
 10
157.15518112182616
 20
24.692662239074707
 30
0.0
 70
0
  0
VERTEX
  5
1B2
  8
CUT
 10
158.44455375671387
 20
28.29621398448944
 30
0.0
 70
0
  0
VERTEX
  5
1B3
  8
CUT
 10
158.47761459350585
 20
28.388612747192383
 30
0.0
 70
0
  0
VERTEX
  5
1B4
  8
CUT
 10
159.40756607055664
 20
32.101192927360536
 30
0.0
 70
0
  0
VERTEX
  5
1B5
  8
CUT
 10
159.4314109802246
 20
32.19638729095459
 30
0.0
 70
0
  0
VERTEX
  5
1B6
  8
CUT
 10
159.9929888725281
 20
35.98224129080772
 30
0.0
 70
0
  0
VERTEX
  5
1B7
  8
CUT
 10
160.00738830566405
 20
36.07931447029114
 30
0.0
 70
0
  0
VERTEX
  5
1B8
  8
CUT
 10
160.1951847076416
 20
39.90198286175728
 30
0.0
 70
0
  0
SEQEND
  5
138
  8
CUT
  0
POLYLINE
  5
1B9
  8
CUT
 66
1
 10
0.0
 20
0.0
 30
0.0
 70
1
  0
VERTEX
  5
1BB
  8
CUT
 10
113.2
 20
8.000000000000004
 30
0.0
 70
0
  0
VERTEX
  5
1BC
  8
CUT
 10
113.14235584120969
 20
7.414729033951616
 30
0.0
 70
0
  0
VERTEX
  5
1BD
  8
CUT
 10
112.97163859753387
 20
6.851949702904733
 30
0.0
 70
0
  0
VERTEX
  5
1BE
  8
CUT
 10
112.69440883690764
 20
6.333289300941196
 30
0.0
 70
0
  0
VERTEX
  5
1BF
  8
CUT
 10
112.32132034355965
 20
5.8786796564403545
 30
0.0
 70
0
  0
VERTEX
  5
1C0
  8
CUT
 10
111.86671069905881
 20
5.505591163092362
 30
0.0
 70
0
  0
VERTEX
  5
1C1
  8
CUT
 10
111.34805029709527
 20
5.228361402466142
 30
0.0
 70
0
  0
VERTEX
  5
1C2
  8
CUT
 10
110.78527096604839
 20
5.0576441587903105
 30
0.0
 70
0
  0
VERTEX
  5
1C3
  8
CUT
 10
110.2
 20
5.0
 30
0.0
 70
0
  0
VERTEX
  5
1C4
  8
CUT
 10
109.61472903395162
 20
5.0576441587903105
 30
0.0
 70
0
  0
VERTEX
  5
1C5
  8
CUT
 10
109.05194970290474
 20
5.228361402466142
 30
0.0
 70
0
  0
VERTEX
  5
1C6
  8
CUT
 10
108.53328930094119
 20
5.505591163092362
 30
0.0
 70
0
  0
VERTEX
  5
1C7
  8
CUT
 10
108.07867965644036
 20
5.8786796564403545
 30
0.0
 70
0
  0
VERTEX
  5
1C8
  8
CUT
 10
107.70559116309236
 20
6.333289300941196
 30
0.0
 70
0
  0
VERTEX
  5
1C9
  8
CUT
 10
107.42836140246614
 20
6.851949702904733
 30
0.0
 70
0
  0
VERTEX
  5
1CA
  8
CUT
 10
107.25764415879031
 20
7.414729033951616
 30
0.0
 70
0
  0
VERTEX
  5
1CB
  8
CUT
 10
107.2
 20
8.000000000000004
 30
0.0
 70
0
  0
VERTEX
  5
1CC
  8
CUT
 10
107.25764415879031
 20
8.585270966048384
 30
0.0
 70
0
  0
VERTEX
  5
1CD
  8
CUT
 10
107.42836140246614
 20
9.14805029709527
 30
0.0
 70
0
  0
VERTEX
  5
1CE
  8
CUT
 10
107.70559116309236
 20
9.666710699058807
 30
0.0
 70
0
  0
VERTEX
  5
1CF
  8
CUT
 10
108.07867965644036
 20
10.121320343559642
 30
0.0
 70
0
  0
VERTEX
  5
1D0
  8
CUT
 10
108.53328930094119
 20
10.494408836907635
 30
0.0
 70
0
  0
VERTEX
  5
1D1
  8
CUT
 10
109.05194970290474
 20
10.771638597533858
 30
0.0
 70
0
  0
VERTEX
  5
1D2
  8
CUT
 10
109.61472903395162
 20
10.94235584120969
 30
0.0
 70
0
  0
VERTEX
  5
1D3
  8
CUT
 10
110.2
 20
11.0
 30
0.0
 70
0
  0
VERTEX
  5
1D4
  8
CUT
 10
110.78527096604839
 20
10.94235584120969
 30
0.0
 70
0
  0
VERTEX
  5
1D5
  8
CUT
 10
111.34805029709527
 20
10.771638597533858
 30
0.0
 70
0
  0
VERTEX
  5
1D6
  8
CUT
 10
111.86671069905881
 20
10.494408836907638
 30
0.0
 70
0
  0
VERTEX
  5
1D7
  8
CUT
 10
112.32132034355965
 20
10.121320343559642
 30
0.0
 70
0
  0
VERTEX
  5
1D8
  8
CUT
 10
112.69440883690764
 20
9.666710699058807
 30
0.0
 70
0
  0
VERTEX
  5
1D9
  8
CUT
 10
112.97163859753387
 20
9.14805029709527
 30
0.0
 70
0
  0
VERTEX
  5
1DA
  8
CUT
 10
113.14235584120969
 20
8.585270966048387
 30
0.0
 70
0
  0
SEQEND
  5
1BA
  8
CUT
  0
POLYLINE
  5
1DB
  8
CUT
 66
1
 10
0.0
 20
0.0
 30
0.0
 70
1
  0
VERTEX
  5
1DD
  8
CUT
 10
133.2
 20
72.0
 30
0.0
 70
0
  0
VERTEX
  5
1DE
  8
CUT
 10
133.1423558412097
 20
71.41472903395162
 30
0.0
 70
0
  0
VERTEX
  5
1DF
  8
CUT
 10
132.97163859753385
 20
70.85194970290473
 30
0.0
 70
0
  0
VERTEX
  5
1E0
  8
CUT
 10
132.69440883690763
 20
70.33328930094119
 30
0.0
 70
0
  0
VERTEX
  5
1E1
  8
CUT
 10
132.32132034355965
 20
69.87867965644035
 30
0.0
 70
0
  0
VERTEX
  5
1E2
  8
CUT
 10
131.8667106990588
 20
69.50559116309236
 30
0.0
 70
0
  0
VERTEX
  5
1E3
  8
CUT
 10
131.34805029709528
 20
69.22836140246613
 30
0.0
 70
0
  0
VERTEX
  5
1E4
  8
CUT
 10
130.7852709660484
 20
69.05764415879031
 30
0.0
 70
0
  0
VERTEX
  5
1E5
  8
CUT
 10
130.2
 20
69.0
 30
0.0
 70
0
  0
VERTEX
  5
1E6
  8
CUT
 10
129.61472903395162
 20
69.05764415879031
 30
0.0
 70
0
  0
VERTEX
  5
1E7
  8
CUT
 10
129.05194970290472
 20
69.22836140246613
 30
0.0
 70
0
  0
VERTEX
  5
1E8
  8
CUT
 10
128.5332893009412
 20
69.50559116309236
 30
0.0
 70
0
  0
VERTEX
  5
1E9
  8
CUT
 10
128.07867965644036
 20
69.87867965644035
 30
0.0
 70
0
  0
VERTEX
  5
1EA
  8
CUT
 10
127.70559116309236
 20
70.33328930094119
 30
0.0
 70
0
  0
VERTEX
  5
1EB
  8
CUT
 10
127.42836140246614
 20
70.85194970290473
 30
0.0
 70
0
  0
VERTEX
  5
1EC
  8
CUT
 10
127.25764415879031
 20
71.41472903395162
 30
0.0
 70
0
  0
VERTEX
  5
1ED
  8
CUT
 10
127.2
 20
72.0
 30
0.0
 70
0
  0
VERTEX
  5
1EE
  8
CUT
 10
127.25764415879031
 20
72.58527096604838
 30
0.0
 70
0
  0
VERTEX
  5
1EF
  8
CUT
 10
127.42836140246614
 20
73.14805029709527
 30
0.0
 70
0
  0
VERTEX
  5
1F0
  8
CUT
 10
127.70559116309236
 20
73.6667106990588
 30
0.0
 70
0
  0
VERTEX
  5
1F1
  8
CUT
 10
128.07867965644036
 20
74.12132034355965
 30
0.0
 70
0
  0
VERTEX
  5
1F2
  8
CUT
 10
128.5332893009412
 20
74.49440883690764
 30
0.0
 70
0
  0
VERTEX
  5
1F3
  8
CUT
 10
129.05194970290472
 20
74.77163859753387
 30
0.0
 70
0
  0
VERTEX
  5
1F4
  8
CUT
 10
129.61472903395162
 20
74.94235584120969
 30
0.0
 70
0
  0
VERTEX
  5
1F5
  8
CUT
 10
130.2
 20
75.0
 30
0.0
 70
0
  0
VERTEX
  5
1F6
  8
CUT
 10
130.7852709660484
 20
74.94235584120969
 30
0.0
 70
0
  0
VERTEX
  5
1F7
  8
CUT
 10
131.34805029709528
 20
74.77163859753387
 30
0.0
 70
0
  0
VERTEX
  5
1F8
  8
CUT
 10
131.8667106990588
 20
74.49440883690764
 30
0.0
 70
0
  0
VERTEX
  5
1F9
  8
CUT
 10
132.32132034355965
 20
74.12132034355965
 30
0.0
 70
0
  0
VERTEX
  5
1FA
  8
CUT
 10
132.69440883690763
 20
73.6667106990588
 30
0.0
 70
0
  0
VERTEX
  5
1FB
  8
CUT
 10
132.97163859753385
 20
73.14805029709527
 30
0.0
 70
0
  0
VERTEX
  5
1FC
  8
CUT
 10
133.1423558412097
 20
72.58527096604838
 30
0.0
 70
0
  0
SEQEND
  5
1DC
  8
CUT
  0
POLYLINE
  5
1FD
  8
CUT
 66
1
 10
0.0
 20
0.0
 30
0.0
 70
1
  0
VERTEX
  5
1FF
  8
CUT
 10
155.2
 20
30.0
 30
0.0
 70
0
  0
VERTEX
  5
200
  8
CUT
 10
155.14235584120968
 20
29.414729033951616
 30
0.0
 70
0
  0
VERTEX
  5
201
  8
CUT
 10
154.97163859753385
 20
28.851949702904733
 30
0.0
 70
0
  0
VERTEX
  5
202
  8
CUT
 10
154.69440883690766
 20
28.333289300941193
 30
0.0
 70
0
  0
VERTEX
  5
203
  8
CUT
 10
154.32132034355965
 20
27.878679656440358
 30
0.0
 70
0
  0
VERTEX
  5
204
  8
CUT
 10
153.8667106990588
 20
27.505591163092365
 30
0.0
 70
0
  0
VERTEX
  5
205
  8
CUT
 10
153.34805029709526
 20
27.228361402466142
 30
0.0
 70
0
  0
VERTEX
  5
206
  8
CUT
 10
152.7852709660484
 20
27.05764415879031
 30
0.0
 70
0
  0
VERTEX
  5
207
  8
CUT
 10
152.2
 20
27.0
 30
0.0
 70
0
  0
VERTEX
  5
208
  8
CUT
 10
151.61472903395162
 20
27.05764415879031
 30
0.0
 70
0
  0
VERTEX
  5
209
  8
CUT
 10
151.05194970290472
 20
27.228361402466142
 30
0.0
 70
0
  0
VERTEX
  5
20A
  8
CUT
 10
150.5332893009412
 20
27.50559116309236
 30
0.0
 70
0
  0
VERTEX
  5
20B
  8
CUT
 10
150.07867965644036
 20
27.878679656440358
 30
0.0
 70
0
  0
VERTEX
  5
20C
  8
CUT
 10
149.70559116309238
 20
28.333289300941193
 30
0.0
 70
0
  0
VERTEX
  5
20D
  8
CUT
 10
149.42836140246615
 20
28.85194970290473
 30
0.0
 70
0
  0
VERTEX
  5
20E
  8
CUT
 10
149.2576441587903
 20
29.414729033951616
 30
0.0
 70
0
  0
VERTEX
  5
20F
  8
CUT
 10
149.2
 20
30.0
 30
0.0
 70
0
  0
VERTEX
  5
210
  8
CUT
 10
149.2576441587903
 20
30.585270966048384
 30
0.0
 70
0
  0
VERTEX
  5
211
  8
CUT
 10
149.42836140246615
 20
31.148050297095267
 30
0.0
 70
0
  0
VERTEX
  5
212
  8
CUT
 10
149.70559116309238
 20
31.666710699058804
 30
0.0
 70
0
  0
VERTEX
  5
213
  8
CUT
 10
150.07867965644036
 20
32.121320343559645
 30
0.0
 70
0
  0
VERTEX
  5
214
  8
CUT
 10
150.5332893009412
 20
32.49440883690764
 30
0.0
 70
0
  0
VERTEX
  5
215
  8
CUT
 10
151.05194970290472
 20
32.77163859753386
 30
0.0
 70
0
  0
VERTEX
  5
216
  8
CUT
 10
151.61472903395162
 20
32.94235584120969
 30
0.0
 70
0
  0
VERTEX
  5
217
  8
CUT
 10
152.2
 20
33.0
 30
0.0
 70
0
  0
VERTEX
  5
218
  8
CUT
 10
152.7852709660484
 20
32.94235584120969
 30
0.0
 70
0
  0
VERTEX
  5
219
  8
CUT
 10
153.34805029709526
 20
32.77163859753386
 30
0.0
 70
0
  0
VERTEX
  5
21A
  8
CUT
 10
153.8667106990588
 20
32.49440883690764
 30
0.0
 70
0
  0
VERTEX
  5
21B
  8
CUT
 10
154.32132034355965
 20
32.121320343559645
 30
0.0
 70
0
  0
VERTEX
  5
21C
  8
CUT
 10
154.69440883690766
 20
31.666710699058807
 30
0.0
 70
0
  0
VERTEX
  5
21D
  8
CUT
 10
154.97163859753385
 20
31.14805029709527
 30
0.0
 70
0
  0
VERTEX
  5
21E
  8
CUT
 10
155.14235584120968
 20
30.585270966048384
 30
0.0
 70
0
  0
SEQEND
  5
1FE
  8
CUT
  0
POLYLINE
  5
21F
  8
ENGRAVE
 66
1
 10
0.0
 20
0.0
 30
0.0
 70
0
  0
VERTEX
  5
221
  8
ENGRAVE
 10
135.2
 20
57.0
 30
0.0
 70
0
  0
VERTEX
  5
222
  8
ENGRAVE
 10
135.2
 20
63.0
 30
0.0
 70
0
  0
SEQEND
  5
220
  8
ENGRAVE
  0
POLYLINE
  5
223
  8
ENGRAVE
 66
1
 10
0.0
 20
0.0
 30
0.0
 70
0
  0
VERTEX
  5
225
  8
ENGRAVE
 10
135.2
 20
63.0
 30
0.0
 70
0
  0
VERTEX
  5
226
  8
ENGRAVE
 10
140.2
 20
63.0
 30
0.0
 70
0
  0
SEQEND
  5
224
  8
ENGRAVE
  0
POLYLINE
  5
227
  8
ENGRAVE
 66
1
 10
0.0
 20
0.0
 30
0.0
 70
0
  0
VERTEX
  5
229
  8
ENGRAVE
 10
140.2
 20
57.0
 30
0.0
 70
0
  0
VERTEX
  5
22A
  8
ENGRAVE
 10
140.2
 20
63.0
 30
0.0
 70
0
  0
SEQEND
  5
228
  8
ENGRAVE
  0
POLYLINE
  5
22B
  8
ENGRAVE
 66
1
 10
0.0
 20
0.0
 30
0.0
 70
0
  0
VERTEX
  5
22D
  8
ENGRAVE
 10
140.2
 20
57.0
 30
0.0
 70
0
  0
VERTEX
  5
22E
  8
ENGRAVE
 10
145.2
 20
57.0
 30
0.0
 70
0
  0
SEQEND
  5
22C
  8
ENGRAVE
  0
POLYLINE
  5
22F
  8
ENGRAVE
 66
1
 10
0.0
 20
0.0
 30
0.0
 70
0
  0
VERTEX
  5
231
  8
ENGRAVE
 10
145.2
 20
57.0
 30
0.0
 70
0
  0
VERTEX
  5
232
  8
ENGRAVE
 10
145.2
 20
63.0
 30
0.0
 70
0
  0
SEQEND
  5
230
  8
ENGRAVE
  0
POLYLINE
  5
233
  8
ENGRAVE
 66
1
 10
0.0
 20
0.0
 30
0.0
 70
0
  0
VERTEX
  5
235
  8
ENGRAVE
 10
135.2
 20
65.0
 30
0.0
 70
0
  0
VERTEX
  5
236
  8
ENGRAVE
 10
135.2
 20
71.0
 30
0.0
 70
0
  0
SEQEND
  5
234
  8
ENGRAVE
  0
POLYLINE
  5
237
  8
ENGRAVE
 66
1
 10
0.0
 20
0.0
 30
0.0
 70
0
  0
VERTEX
  5
239
  8
ENGRAVE
 10
135.2
 20
71.0
 30
0.0
 70
0
  0
VERTEX
  5
23A
  8
ENGRAVE
 10
140.2
 20
71.0
 30
0.0
 70
0
  0
SEQEND
  5
238
  8
ENGRAVE
  0
POLYLINE
  5
23B
  8
ENGRAVE
 66
1
 10
0.0
 20
0.0
 30
0.0
 70
0
  0
VERTEX
  5
23D
  8
ENGRAVE
 10
140.2
 20
71.0
 30
0.0
 70
0
  0
VERTEX
  5
23E
  8
ENGRAVE
 10
145.2
 20
71.0
 30
0.0
 70
0
  0
SEQEND
  5
23C
  8
ENGRAVE
  0
POLYLINE
  5
23F
  8
ENGRAVE
 66
1
 10
0.0
 20
0.0
 30
0.0
 70
0
  0
VERTEX
  5
241
  8
ENGRAVE
 10
145.2
 20
65.0
 30
0.0
 70
0
  0
VERTEX
  5
242
  8
ENGRAVE
 10
145.2
 20
71.0
 30
0.0
 70
0
  0
SEQEND
  5
240
  8
ENGRAVE
  0
POLYLINE
  5
243
  8
ENGRAVE
 66
1
 10
0.0
 20
0.0
 30
0.0
 70
0
  0
VERTEX
  5
245
  8
ENGRAVE
 10
140.2
 20
65.0
 30
0.0
 70
0
  0
VERTEX
  5
246
  8
ENGRAVE
 10
145.2
 20
65.0
 30
0.0
 70
0
  0
SEQEND
  5
244
  8
ENGRAVE
  0
POLYLINE
  5
247
  8
ENGRAVE
 66
1
 10
0.0
 20
0.0
 30
0.0
 70
0
  0
VERTEX
  5
249
  8
ENGRAVE
 10
135.2
 20
65.0
 30
0.0
 70
0
  0
VERTEX
  5
24A
  8
ENGRAVE
 10
140.2
 20
65.0
 30
0.0
 70
0
  0
SEQEND
  5
248
  8
ENGRAVE
  0
ENDSEC
  0
EOF
