  0
SECTION
  2
HEADER
  9
$ACADVER
  1
AC1009
  9
$DWGCODEPAGE
  3
ANSI_1252
  9
$INSBASE
 10
0.0
 20
0.0
 30
0.0
  9
$EXTMIN
 10
1e+20
 20
1e+20
 30
1e+20
  9
$EXTMAX
 10
-1e+20
 20
-1e+20
 30
-1e+20
  9
$LIMMIN
 10
0.0
 20
0.0
  9
$LIMMAX
 10
420.0
 20
297.0
  9
$ORTHOMODE
 70
0
  9
$REGENMODE
 70
1
  9
$FILLMODE
 70
1
  9
$DRAGMODE
 70
2
  9
$QTEXTMODE
 70
0
  9
$MIRRTEXT
 70
1
  9
$OSMODE
 70
20583
  9
$LTSCALE
 40
1.0
  9
$ATTMODE
 70
1
  9
$TEXTSIZE
 40
2.5
  9
$TRACEWID
 40
1.0
  9
$TEXTSTYLE
  7
Standard
  9
$CLAYER
  8
0
  9
$CELTYPE
  6
ByLayer
  9
$CECOLOR
 62
256
  9
$DIMSCALE
 40
1.0
  9
$DIMASZ
 40
2.5
  9
$DIMEXO
 40
0.625
  9
$DIMDLI
 40
3.75
  9
$DIMRND
 40
0.0
  9
$DIMDLE
 40
0.0
  9
$DIMEXE
 40
1.25
  9
$DIMTP
 40
0.0
  9
$DIMTM
 40
0.0
  9
$DIMTXT
 40
2.5
  9
$DIMCEN
 40
2.5
  9
$DIMTSZ
 40
0.0
  9
$DIMTOL
 70
0
  9
$DIMLIM
 70
0
  9
$DIMTIH
 70
0
  9
$DIMTOH
 70
0
  9
$DIMSE1
 70
0
  9
$DIMSE2
 70
0
  9
$DIMTAD
 70
1
  9
$DIMZIN
 70
8
  9
$DIMBLK
  1

  9
$DIMASO
 70
1
  9
$DIMSHO
 70
1
  9
$DIMPOST
  1

  9
$DIMAPOST
  1

  9
$DIMALT
 70
0
  9
$DIMALTD
 70
3
  9
$DIMALTF
 40
0.03937007874
  9
$DIMLFAC
 40
1.0
  9
$DIMTOFL
 70
1
  9
$DIMTVP
 40
0.0
  9
$DIMTIX
 70
0
  9
$DIMSOXD
 70
0
  9
$DIMSAH
 70
0
  9
$DIMBLK1
  1

  9
$DIMBLK2
  1

  9
$DIMSTYLE
  2
ISO-25
  9
$DIMCLRD
 70
0
  9
$DIMCLRE
 70
0
  9
$DIMCLRT
 70
0
  9
$DIMTFAC
 40
1.0
  9
$DIMGAP
 40
0.625
  9
$COORDS
 70
1
  9
$ATTDIA
 70
0
  9
$ATTREQ
 70
1
  9
$HANDLING
 70
1
  9
$LUNITS
 70
2
  9
$LUPREC
 70
4
  9
$SKETCHINC
 40
1.0
  9
$FILLETRAD
 40
10.0
  9
$AUNITS
 70
0
  9
$AUPREC
 70
2
  9
$MENU
  1
.
  9
$ELEVATION
 40
0.0
  9
$PELEVATION
 40
0.0
  9
$THICKNESS
 40
0.0
  9
$LIMCHECK
 70
0
  9
$CHAMFERA
 40
0.0
  9
$CHAMFERB
 40
0.0
  9
$SKPOLY
 70
0
  9
$TDCREATE
 40
2461262.742164352
  9
$TDUPDATE
 40
2461262.742164352
  9
$TDINDWG
 40
0.0
  9
$TDUSRTIMER
 40
0.0
  9
$USRTIMER
 70
1
  9
$ANGBASE
 50
0.0
  9
$ANGDIR
 70
0
  9
$PDMODE
 70
0
  9
$PDSIZE
 40
0.0
  9
$PLINEWID
 40
0.0
  9
$SPLFRAME
 70
0
  9
$SPLINETYPE
 70
6
  9
$SPLINESEGS
 70
8
  9
$HANDSEED
  5
42D
  9
$SURFTAB1
 70
6
  9
$SURFTAB2
 70
6
  9
$SURFTYPE
 70
6
  9
$SURFU
 70
6
  9
$SURFV
 70
6
  9
$UCSNAME
  2

  9
$UCSORG
 10
0.0
 20
0.0
 30
0.0
  9
$UCSXDIR
 10
1.0
 20
0.0
 30
0.0
  9
$UCSYDIR
 10
0.0
 20
1.0
 30
0.0
  9
$PUCSNAME
  2

  9
$PUCSORG
 10
0.0
 20
0.0
 30
0.0
  9
$PUCSXDIR
 10
1.0
 20
0.0
 30
0.0
  9
$PUCSYDIR
 10
0.0
 20
1.0
 30
0.0
  9
$USERI1
 70
0
  9
$USERI2
 70
0
  9
$USERI3
 70
0
  9
$USERI4
 70
0
  9
$USERI5
 70
0
  9
$USERR1
 40
0.0
  9
$USERR2
 40
0.0
  9
$USERR3
 40
0.0
  9
$USERR4
 40
0.0
  9
$USERR5
 40
0.0
  9
$WORLDVIEW
 70
1
  9
$SHADEDGE
 70
3
  9
$SHADEDIF
 70
70
  9
$TILEMODE
 70
1
  9
$MAXACTVP
 70
64
  9
$PLIMCHECK
 70
0
  9
$PEXTMIN
 10
1e+20
 20
1e+20
 30
1e+20
  9
$PEXTMAX
 10
-1e+20
 20
-1e+20
 30
-1e+20
  9
$PLIMMIN
 10
0.0
 20
0.0
  9
$PLIMMAX
 10
420.0
 20
297.0
  9
$UNITMODE
 70
0
  9
$VISRETAIN
 70
1
  9
$PLINEGEN
 70
0
  9
$PSLTSCALE
 70
1
  0
ENDSEC
  0
SECTION
  2
TABLES
  0
TABLE
  2
VPORT
 70
1
  0
VPORT
  5
23
  2
*Active
 70
0
 10
0.0
 20
0.0
 11
1.0
 21
1.0
 12
0.0
 22
0.0
 13
0.0
 23
0.0
 14
0.5
 24
0.5
 15
0.5
 25
0.5
 16
0.0
 26
0.0
 36
1.0
 17
0.0
 27
0.0
 37
0.0
 40
1000.0
 41
1.34
 42
50.0
 43
0.0
 44
0.0
 50
0.0
 51
0.0
 71
0
 72
1000
 73
1
 74
3
 75
0
 76
0
 77
0
 78
0
  0
ENDTAB
  0
TABLE
  2
LTYPE
 70
3
  0
LTYPE
  5
24
  2
ByBlock
 70
0
  3

 72
65
 73
0
 40
0.0
  0
LTYPE
  5
25
  2
ByLayer
 70
0
  3

 72
65
 73
0
 40
0.0
  0
LTYPE
  5
26
  2
Continuous
 70
0
  3

 72
65
 73
0
 40
0.0
  0
ENDTAB
  0
TABLE
  2
LAYER
 70
4
  0
LAYER
  5
27
  2
0
 70
0
 62
7
  6
Continuous
  0
LAYER
  5
28
  2
Defpoints
 70
0
 62
7
  6
Continuous
  0
LAYER
  5
2D
  2
CUT
 70
0
 62
1
  6
Continuous
  0
LAYER
  5
2E
  2
ENGRAVE
 70
0
 62
5
  6
Continuous
  0
ENDTAB
  0
TABLE
  2
STYLE
 70
1
  0
STYLE
  5
29
  2
Standard
 70
0
 40
0.0
 41
1.0
 50
0.0
 71
0
 42
2.5
  3
txt
  4

  0
ENDTAB
  0
TABLE
  2
VIEW
 70
0
  0
ENDTAB
  0
TABLE
  2
UCS
 70
0
  0
ENDTAB
  0
TABLE
  2
APPID
 70
3
  0
APPID
  5
2A
  2
ACAD
 70
0
  0
APPID
  5
42B
  2
HATCHBACKGROUNDCOLOR
 70
0
  0
APPID
  5
42C
  2
EZDXF
 70
0
  0
ENDTAB
  0
TABLE
  2
DIMSTYLE
 70
1
  0
DIMSTYLE
105
2B
  2
Standard
 70
0
  3

  4

  5

  6

  7

 40
1.0
 41
2.5
 42
0.625
 43
3.75
 44
1.25
 45
0.0
 46
0.0
 47
0.0
 48
0.0
140
2.5
141
2.5
142
0.0
143
0.03937007874
144
1.0
145
0.0
146
1.0
147
0.625
 71
0
 72
0
 73
0
 74
0
 75
0
 76
0
 77
1
 78
8
170
0
171
3
172
1
173
0
174
0
175
0
176
0
177
0
178
0
  0
ENDTAB
  0
ENDSEC
  0
SECTION
  2
BLOCKS
  0
BLOCK
  5
18
  8
0
  2
$Model_Space
 70
0
 10
0.0
 20
0.0
 30
0.0
  3
$Model_Space
  1

1001
EZDXF
1000
CREATED_BY_EZDXF
1000
1.4.4 @ 2026-08-09T15:48:43.769339+00:00
1000
WRITTEN_BY_EZDXF
1000
1.4.4 @ 2026-08-09T15:48:43.804365+00:00
  0
ENDBLK
  5
19
  8
0
  0
BLOCK
  5
1C
  8
0
  2
$Paper_Space
 70
0
 10
0.0
 20
0.0
 30
0.0
  3
$Paper_Space
  1

  0
ENDBLK
  5
1D
  8
0
  0
ENDSEC
  0
SECTION
  2
ENTITIES
  0
POLYLINE
  5
2F
  8
CUT
 66
1
 10
0.0
 20
0.0
 30
0.0
 70
1
  0
VERTEX
  5
31
  8
CUT
 10
20.0
 20
10.0
 30
0.0
 70
0
  0
VERTEX
  5
32
  8
CUT
 10
19.807852804032304
 20
11.95090322016128
 30
0.0
 70
0
  0
VERTEX
  5
33
  8
CUT
 10
19.238795325112868
 20
13.8268343236509
 30
0.0
 70
0
  0
VERTEX
  5
34
  8
CUT
 10
18.314696123025453
 20
15.55570233019602
 30
0.0
 70
0
  0
VERTEX
  5
35
  8
CUT
 10
17.071067811865476
 20
17.071067811865476
 30
0.0
 70
0
  0
VERTEX
  5
36
  8
CUT
 10
15.555702330196024
 20
18.314696123025453
 30
0.0
 70
0
  0
VERTEX
  5
37
  8
CUT
 10
13.826834323650898
 20
19.238795325112868
 30
0.0
 70
0
  0
VERTEX
  5
38
  8
CUT
 10
11.950903220161283
 20
19.807852804032304
 30
0.0
 70
0
  0
VERTEX
  5
39
  8
CUT
 10
10.0
 20
20.0
 30
0.0
 70
0
  0
VERTEX
  5
3A
  8
CUT
 10
8.049096779838717
 20
19.807852804032304
 30
0.0
 70
0
  0
VERTEX
  5
3B
  8
CUT
 10
6.173165676349104
 20
19.238795325112868
 30
0.0
 70
0
  0
VERTEX
  5
3C
  8
CUT
 10
4.44429766980398
 20
18.314696123025453
 30
0.0
 70
0
  0
VERTEX
  5
3D
  8
CUT
 10
2.9289321881345245
 20
17.071067811865476
 30
0.0
 70
0
  0
VERTEX
  5
3E
  8
CUT
 10
1.6853038769745474
 20
15.55570233019602
 30
0.0
 70
0
  0
VERTEX
  5
3F
  8
CUT
 10
0.7612046748871322
 20
13.8268343236509
 30
0.0
 70
0
  0
VERTEX
  5
40
  8
CUT
 10
0.1921471959676957
 20
11.950903220161287
 30
0.0
 70
0
  0
VERTEX
  5
41
  8
CUT
 10
0.0
 20
10.0
 30
0.0
 70
0
  0
VERTEX
  5
42
  8
CUT
 10
0.1921471959676957
 20
8.049096779838713
 30
0.0
 70
0
  0
VERTEX
  5
43
  8
CUT
 10
0.7612046748871322
 20
6.1731656763491
 30
0.0
 70
0
  0
VERTEX
  5
44
  8
CUT
 10
1.6853038769745439
 20
4.44429766980398
 30
0.0
 70
0
  0
VERTEX
  5
45
  8
CUT
 10
2.9289321881345245
 20
2.9289321881345245
 30
0.0
 70
0
  0
VERTEX
  5
46
  8
CUT
 10
4.44429766980398
 20
1.6853038769745439
 30
0.0
 70
0
  0
VERTEX
  5
47
  8
CUT
 10
6.173165676349097
 20
0.7612046748871393
 30
0.0
 70
0
  0
VERTEX
  5
48
  8
CUT
 10
8.049096779838713
 20
0.19214719596769925
 30
0.0
 70
0
  0
VERTEX
  5
49
  8
CUT
 10
9.999999999999996
 20
0.0
 30
0.0
 70
0
  0
VERTEX
  5
4A
  8
CUT
 10
11.950903220161283
 20
0.19214719596769214
 30
0.0
 70
0
  0
VERTEX
  5
4B
  8
CUT
 10
13.8268343236509
 20
0.7612046748871322
 30
0.0
 70
0
  0
VERTEX
  5
4C
  8
CUT
 10
15.555702330196018
 20
1.6853038769745439
 30
0.0
 70
0
  0
VERTEX
  5
4D
  8
CUT
 10
17.071067811865476
 20
2.9289321881345245
 30
0.0
 70
0
  0
VERTEX
  5
4E
  8
CUT
 10
18.314696123025453
 20
4.44429766980398
 30
0.0
 70
0
  0
VERTEX
  5
4F
  8
CUT
 10
19.238795325112864
 20
6.173165676349093
 30
0.0
 70
0
  0
VERTEX
  5
50
  8
CUT
 10
19.8078528040323
 20
8.049096779838713
 30
0.0
 70
0
  0
SEQEND
  5
30
  8
CUT
  0
POLYLINE
  5
51
  8
CUT
 66
1
 10
0.0
 20
0.0
 30
0.0
 70
1
  0
VERTEX
  5
53
  8
CUT
 10
13.0
 20
10.0
 30
0.0
 70
0
  0
VERTEX
  5
54
  8
CUT
 10
12.942355841209691
 20
9.414729033951616
 30
0.0
 70
0
  0
VERTEX
  5
55
  8
CUT
 10
12.77163859753386
 20
8.851949702904733
 30
0.0
 70
0
  0
VERTEX
  5
56
  8
CUT
 10
12.494408836907635
 20
8.333289300941196
 30
0.0
 70
0
  0
VERTEX
  5
57
  8
CUT
 10
12.121320343559642
 20
7.8786796564403545
 30
0.0
 70
0
  0
VERTEX
  5
58
  8
CUT
 10
11.666710699058807
 20
7.505591163092362
 30
0.0
 70
0
  0
VERTEX
  5
59
  8
CUT
 10
11.148050297095269
 20
7.228361402466142
 30
0.0
 70
0
  0
VERTEX
  5
5A
  8
CUT
 10
10.585270966048386
 20
7.0576441587903105
 30
0.0
 70
0
  0
VERTEX
  5
5B
  8
CUT
 10
10.0
 20
7.0
 30
0.0
 70
0
  0
VERTEX
  5
5C
  8
CUT
 10
9.414729033951616
 20
7.0576441587903105
 30
0.0
 70
0
  0
VERTEX
  5
5D
  8
CUT
 10
8.85194970290473
 20
7.228361402466142
 30
0.0
 70
0
  0
VERTEX
  5
5E
  8
CUT
 10
8.333289300941193
 20
7.505591163092362
 30
0.0
 70
0
  0
VERTEX
  5
5F
  8
CUT
 10
7.878679656440358
 20
7.8786796564403545
 30
0.0
 70
0
  0
VERTEX
  5
60
  8
CUT
 10
7.505591163092365
 20
8.333289300941196
 30
0.0
 70
0
  0
VERTEX
  5
61
  8
CUT
 10
7.228361402466142
 20
8.851949702904733
 30
0.0
 70
0
  0
VERTEX
  5
62
  8
CUT
 10
7.0576441587903105
 20
9.414729033951616
 30
0.0
 70
0
  0
VERTEX
  5
63
  8
CUT
 10
7.0
 20
10.0
 30
0.0
 70
0
  0
VERTEX
  5
64
  8
CUT
 10
7.0576441587903105
 20
10.585270966048384
 30
0.0
 70
0
  0
VERTEX
  5
65
  8
CUT
 10
7.228361402466138
 20
11.148050297095267
 30
0.0
 70
0
  0
VERTEX
  5
66
  8
CUT
 10
7.505591163092362
 20
11.666710699058804
 30
0.0
 70
0
  0
VERTEX
  5
67
  8
CUT
 10
7.878679656440358
 20
12.121320343559645
 30
0.0
 70
0
  0
VERTEX
  5
68
  8
CUT
 10
8.333289300941193
 20
12.494408836907638
 30
0.0
 70
0
  0
VERTEX
  5
69
  8
CUT
 10
8.85194970290473
 20
12.771638597533858
 30
0.0
 70
0
  0
VERTEX
  5
6A
  8
CUT
 10
9.414729033951613
 20
12.94235584120969
 30
0.0
 70
0
  0
VERTEX
  5
6B
  8
CUT
 10
10.0
 20
13.0
 30
0.0
 70
0
  0
VERTEX
  5
6C
  8
CUT
 10
10.585270966048386
 20
12.94235584120969
 30
0.0
 70
0
  0
VERTEX
  5
6D
  8
CUT
 10
11.14805029709527
 20
12.771638597533858
 30
0.0
 70
0
  0
VERTEX
  5
6E
  8
CUT
 10
11.666710699058806
 20
12.494408836907638
 30
0.0
 70
0
  0
VERTEX
  5
6F
  8
CUT
 10
12.121320343559642
 20
12.121320343559645
 30
0.0
 70
0
  0
VERTEX
  5
70
  8
CUT
 10
12.494408836907635
 20
11.666710699058804
 30
0.0
 70
0
  0
VERTEX
  5
71
  8
CUT
 10
12.77163859753386
 20
11.148050297095274
 30
0.0
 70
0
  0
VERTEX
  5
72
  8
CUT
 10
12.942355841209691
 20
10.585270966048384
 30
0.0
 70
0
  0
SEQEND
  5
52
  8
CUT
  0
POLYLINE
  5
73
  8
CUT
 66
1
 10
0.0
 20
0.0
 30
0.0
 70
1
  0
VERTEX
  5
75
  8
CUT
 10
40.2
 20
10.0
 30
0.0
 70
0
  0
VERTEX
  5
76
  8
CUT
 10
40.007852804032304
 20
11.95090322016128
 30
0.0
 70
0
  0
VERTEX
  5
77
  8
CUT
 10
39.438795325112864
 20
13.8268343236509
 30
0.0
 70
0
  0
VERTEX
  5
78
  8
CUT
 10
38.51469612302545
 20
15.55570233019602
 30
0.0
 70
0
  0
VERTEX
  5
79
  8
CUT
 10
37.27106781186548
 20
17.071067811865476
 30
0.0
 70
0
  0
VERTEX
  5
7A
  8
CUT
 10
35.75570233019602
 20
18.314696123025456
 30
0.0
 70
0
  0
VERTEX
  5
7B
  8
CUT
 10
34.0268343236509
 20
19.238795325112868
 30
0.0
 70
0
  0
VERTEX
  5
7C
  8
CUT
 10
32.15090322016128
 20
19.807852804032308
 30
0.0
 70
0
  0
VERTEX
  5
7D
  8
CUT
 10
30.2
 20
20.0
 30
0.0
 70
0
  0
VERTEX
  5
7E
  8
CUT
 10
28.249096779838716
 20
19.807852804032308
 30
0.0
 70
0
  0
VERTEX
  5
7F
  8
CUT
 10
26.373165676349103
 20
19.238795325112868
 30
0.0
 70
0
  0
VERTEX
  5
80
  8
CUT
 10
24.64429766980398
 20
18.314696123025456
 30
0.0
 70
0
  0
VERTEX
  5
81
  8
CUT
 10
23.128932188134524
 20
17.071067811865476
 30
0.0
 70
0
  0
VERTEX
  5
82
  8
CUT
 10
21.885303876974547
 20
15.55570233019602
 30
0.0
 70
0
  0
VERTEX
  5
83
  8
CUT
 10
20.96120467488713
 20
13.8268343236509
 30
0.0
 70
0
  0
VERTEX
  5
84
  8
CUT
 10
20.392147195967695
 20
11.950903220161287
 30
0.0
 70
0
  0
VERTEX
  5
85
  8
CUT
 10
20.2
 20
10.0
 30
0.0
 70
0
  0
VERTEX
  5
86
  8
CUT
 10
20.392147195967695
 20
8.049096779838713
 30
0.0
 70
0
  0
VERTEX
  5
87
  8
CUT
 10
20.96120467488713
 20
6.1731656763491
 30
0.0
 70
0
  0
VERTEX
  5
88
  8
CUT
 10
21.885303876974547
 20
4.44429766980398
 30
0.0
 70
0
  0
VERTEX
  5
89
  8
CUT
 10
23.12893218813452
 20
2.9289321881345245
 30
0.0
 70
0
  0
VERTEX
  5
8A
  8
CUT
 10
24.644297669803976
 20
1.6853038769745474
 30
0.0
 70
0
  0
VERTEX
  5
8B
  8
CUT
 10
26.373165676349096
 20
0.7612046748871357
 30
0.0
 70
0
  0
VERTEX
  5
8C
  8
CUT
 10
28.249096779838712
 20
0.19214719596769925
 30
0.0
 70
0
  0
VERTEX
  5
8D
  8
CUT
 10
30.199999999999996
 20
0.0
 30
0.0
 70
0
  0
VERTEX
  5
8E
  8
CUT
 10
32.15090322016128
 20
0.1921471959676957
 30
0.0
 70
0
  0
VERTEX
  5
8F
  8
CUT
 10
34.0268343236509
 20
0.7612046748871322
 30
0.0
 70
0
  0
VERTEX
  5
90
  8
CUT
 10
35.755702330196016
 20
1.6853038769745439
 30
0.0
 70
0
  0
VERTEX
  5
91
  8
CUT
 10
37.27106781186548
 20
2.9289321881345245
 30
0.0
 70
0
  0
VERTEX
  5
92
  8
CUT
 10
38.51469612302545
 20
4.44429766980398
 30
0.0
 70
0
  0
VERTEX
  5
93
  8
CUT
 10
39.438795325112864
 20
6.173165676349093
 30
0.0
 70
0
  0
VERTEX
  5
94
  8
CUT
 10
40.0078528040323
 20
8.049096779838713
 30
0.0
 70
0
  0
SEQEND
  5
74
  8
CUT
  0
POLYLINE
  5
95
  8
CUT
 66
1
 10
0.0
 20
0.0
 30
0.0
 70
1
  0
VERTEX
  5
97
  8
CUT
 10
33.2
 20
10.0
 30
0.0
 70
0
  0
VERTEX
  5
98
  8
CUT
 10
33.14235584120969
 20
9.414729033951616
 30
0.0
 70
0
  0
VERTEX
  5
99
  8
CUT
 10
32.971638597533854
 20
8.851949702904733
 30
0.0
 70
0
  0
VERTEX
  5
9A
  8
CUT
 10
32.694408836907634
 20
8.333289300941196
 30
0.0
 70
0
  0
VERTEX
  5
9B
  8
CUT
 10
32.32132034355964
 20
7.8786796564403545
 30
0.0
 70
0
  0
VERTEX
  5
9C
  8
CUT
 10
31.866710699058807
 20
7.505591163092362
 30
0.0
 70
0
  0
VERTEX
  5
9D
  8
CUT
 10
31.34805029709527
 20
7.228361402466142
 30
0.0
 70
0
  0
VERTEX
  5
9E
  8
CUT
 10
30.785270966048383
 20
7.0576441587903105
 30
0.0
 70
0
  0
VERTEX
  5
9F
  8
CUT
 10
30.2
 20
7.0
 30
0.0
 70
0
  0
VERTEX
  5
A0
  8
CUT
 10
29.614729033951615
 20
7.0576441587903105
 30
0.0
 70
0
  0
VERTEX
  5
A1
  8
CUT
 10
29.05194970290473
 20
7.228361402466142
 30
0.0
 70
0
  0
VERTEX
  5
A2
  8
CUT
 10
28.533289300941192
 20
7.505591163092362
 30
0.0
 70
0
  0
VERTEX
  5
A3
  8
CUT
 10
28.078679656440357
 20
7.8786796564403545
 30
0.0
 70
0
  0
VERTEX
  5
A4
  8
CUT
 10
27.705591163092365
 20
8.333289300941196
 30
0.0
 70
0
  0
VERTEX
  5
A5
  8
CUT
 10
27.428361402466138
 20
8.851949702904733
 30
0.0
 70
0
  0
VERTEX
  5
A6
  8
CUT
 10
27.257644158790306
 20
9.414729033951616
 30
0.0
 70
0
  0
VERTEX
  5
A7
  8
CUT
 10
27.2
 20
10.0
 30
0.0
 70
0
  0
VERTEX
  5
A8
  8
CUT
 10
27.257644158790306
 20
10.585270966048384
 30
0.0
 70
0
  0
VERTEX
  5
A9
  8
CUT
 10
27.428361402466138
 20
11.148050297095267
 30
0.0
 70
0
  0
VERTEX
  5
AA
  8
CUT
 10
27.705591163092365
 20
11.666710699058804
 30
0.0
 70
0
  0
VERTEX
  5
AB
  8
CUT
 10
28.078679656440357
 20
12.121320343559645
 30
0.0
 70
0
  0
VERTEX
  5
AC
  8
CUT
 10
28.533289300941192
 20
12.494408836907638
 30
0.0
 70
0
  0
VERTEX
  5
AD
  8
CUT
 10
29.05194970290473
 20
12.771638597533858
 30
0.0
 70
0
  0
VERTEX
  5
AE
  8
CUT
 10
29.614729033951612
 20
12.94235584120969
 30
0.0
 70
0
  0
VERTEX
  5
AF
  8
CUT
 10
30.2
 20
13.0
 30
0.0
 70
0
  0
VERTEX
  5
B0
  8
CUT
 10
30.785270966048383
 20
12.94235584120969
 30
0.0
 70
0
  0
VERTEX
  5
B1
  8
CUT
 10
31.34805029709527
 20
12.771638597533858
 30
0.0
 70
0
  0
VERTEX
  5
B2
  8
CUT
 10
31.866710699058803
 20
12.494408836907638
 30
0.0
 70
0
  0
VERTEX
  5
B3
  8
CUT
 10
32.32132034355964
 20
12.121320343559645
 30
0.0
 70
0
  0
VERTEX
  5
B4
  8
CUT
 10
32.694408836907634
 20
11.666710699058804
 30
0.0
 70
0
  0
VERTEX
  5
B5
  8
CUT
 10
32.971638597533854
 20
11.148050297095274
 30
0.0
 70
0
  0
VERTEX
  5
B6
  8
CUT
 10
33.14235584120969
 20
10.585270966048384
 30
0.0
 70
0
  0
SEQEND
  5
96
  8
CUT
  0
POLYLINE
  5
B7
  8
CUT
 66
1
 10
0.0
 20
0.0
 30
0.0
 70
1
  0
VERTEX
  5
B9
  8
CUT
 10
60.4
 20
10.0
 30
0.0
 70
0
  0
VERTEX
  5
BA
  8
CUT
 10
60.2078528040323
 20
11.950903220161283
 30
0.0
 70
0
  0
VERTEX
  5
BB
  8
CUT
 10
59.638795325112866
 20
13.826834323650898
 30
0.0
 70
0
  0
VERTEX
  5
BC
  8
CUT
 10
58.71469612302545
 20
15.555702330196022
 30
0.0
 70
0
  0
VERTEX
  5
BD
  8
CUT
 10
57.471067811865474
 20
17.071067811865476
 30
0.0
 70
0
  0
VERTEX
  5
BE
  8
CUT
 10
55.95570233019602
 20
18.314696123025453
 30
0.0
 70
0
  0
VERTEX
  5
BF
  8
CUT
 10
54.2268343236509
 20
19.238795325112868
 30
0.0
 70
0
  0
VERTEX
  5
C0
  8
CUT
 10
52.350903220161285
 20
19.807852804032304
 30
0.0
 70
0
  0
VERTEX
  5
C1
  8
CUT
 10
50.4
 20
20.0
 30
0.0
 70
0
  0
VERTEX
  5
C2
  8
CUT
 10
48.44909677983872
 20
19.807852804032304
 30
0.0
 70
0
  0
VERTEX
  5
C3
  8
CUT
 10
46.573165676349106
 20
19.238795325112868
 30
0.0
 70
0
  0
VERTEX
  5
C4
  8
CUT
 10
44.84429766980398
 20
18.314696123025453
 30
0.0
 70
0
  0
VERTEX
  5
C5
  8
CUT
 10
43.32893218813452
 20
17.071067811865476
 30
0.0
 70
0
  0
VERTEX
  5
C6
  8
CUT
 10
42.08530387697455
 20
15.555702330196022
 30
0.0
 70
0
  0
VERTEX
  5
C7
  8
CUT
 10
41.16120467488713
 20
13.8268343236509
 30
0.0
 70
0
  0
VERTEX
  5
C8
  8
CUT
 10
40.5921471959677
 20
11.950903220161287
 30
0.0
 70
0
  0
VERTEX
  5
C9
  8
CUT
 10
40.4
 20
10.0
 30
0.0
 70
0
  0
VERTEX
  5
CA
  8
CUT
 10
40.5921471959677
 20
8.049096779838717
 30
0.0
 70
0
  0
VERTEX
  5
CB
  8
CUT
 10
41.16120467488713
 20
6.173165676349104
 30
0.0
 70
0
  0
VERTEX
  5
CC
  8
CUT
 10
42.08530387697454
 20
4.44429766980398
 30
0.0
 70
0
  0
VERTEX
  5
CD
  8
CUT
 10
43.32893218813452
 20
2.9289321881345245
 30
0.0
 70
0
  0
VERTEX
  5
CE
  8
CUT
 10
44.84429766980398
 20
1.6853038769745474
 30
0.0
 70
0
  0
VERTEX
  5
CF
  8
CUT
 10
46.57316567634909
 20
0.7612046748871357
 30
0.0
 70
0
  0
VERTEX
  5
D0
  8
CUT
 10
48.44909677983871
 20
0.19214719596769925
 30
0.0
 70
0
  0
VERTEX
  5
D1
  8
CUT
 10
50.4
 20
0.0
 30
0.0
 70
0
  0
VERTEX
  5
D2
  8
CUT
 10
52.350903220161285
 20
0.1921471959676957
 30
0.0
 70
0
  0
VERTEX
  5
D3
  8
CUT
 10
54.2268343236509
 20
0.7612046748871322
 30
0.0
 70
0
  0
VERTEX
  5
D4
  8
CUT
 10
55.95570233019602
 20
1.6853038769745439
 30
0.0
 70
0
  0
VERTEX
  5
D5
  8
CUT
 10
57.471067811865474
 20
2.9289321881345227
 30
0.0
 70
0
  0
VERTEX
  5
D6
  8
CUT
 10
58.71469612302545
 20
4.444297669803978
 30
0.0
 70
0
  0
VERTEX
  5
D7
  8
CUT
 10
59.638795325112866
 20
6.173165676349097
 30
0.0
 70
0
  0
VERTEX
  5
D8
  8
CUT
 10
60.2078528040323
 20
8.049096779838713
 30
0.0
 70
0
  0
SEQEND
  5
B8
  8
CUT
  0
POLYLINE
  5
D9
  8
CUT
 66
1
 10
0.0
 20
0.0
 30
0.0
 70
1
  0
VERTEX
  5
DB
  8
CUT
 10
53.4
 20
10.0
 30
0.0
 70
0
  0
VERTEX
  5
DC
  8
CUT
 10
53.34235584120969
 20
9.414729033951616
 30
0.0
 70
0
  0
VERTEX
  5
DD
  8
CUT
 10
53.17163859753386
 20
8.851949702904731
 30
0.0
 70
0
  0
VERTEX
  5
DE
  8
CUT
 10
52.89440883690763
 20
8.333289300941193
 30
0.0
 70
0
  0
VERTEX
  5
DF
  8
CUT
 10
52.52132034355964
 20
7.878679656440358
 30
0.0
 70
0
  0
VERTEX
  5
E0
  8
CUT
 10
52.0667106990588
 20
7.505591163092365
 30
0.0
 70
0
  0
VERTEX
  5
E1
  8
CUT
 10
51.54805029709527
 20
7.22836140246614
 30
0.0
 70
0
  0
VERTEX
  5
E2
  8
CUT
 10
50.98527096604838
 20
7.057644158790309
 30
0.0
 70
0
  0
VERTEX
  5
E3
  8
CUT
 10
50.4
 20
7.0
 30
0.0
 70
0
  0
VERTEX
  5
E4
  8
CUT
 10
49.814729033951615
 20
7.057644158790309
 30
0.0
 70
0
  0
VERTEX
  5
E5
  8
CUT
 10
49.25194970290473
 20
7.22836140246614
 30
0.0
 70
0
  0
VERTEX
  5
E6
  8
CUT
 10
48.733289300941195
 20
7.5055911630923635
 30
0.0
 70
0
  0
VERTEX
  5
E7
  8
CUT
 10
48.27867965644036
 20
7.878679656440358
 30
0.0
 70
0
  0
VERTEX
  5
E8
  8
CUT
 10
47.90559116309236
 20
8.333289300941193
 30
0.0
 70
0
  0
VERTEX
  5
E9
  8
CUT
 10
47.62836140246614
 20
8.85194970290473
 30
0.0
 70
0
  0
VERTEX
  5
EA
  8
CUT
 10
47.45764415879031
 20
9.414729033951614
 30
0.0
 70
0
  0
VERTEX
  5
EB
  8
CUT
 10
47.4
 20
10.0
 30
0.0
 70
0
  0
VERTEX
  5
EC
  8
CUT
 10
47.45764415879031
 20
10.585270966048384
 30
0.0
 70
0
  0
VERTEX
  5
ED
  8
CUT
 10
47.62836140246614
 20
11.148050297095269
 30
0.0
 70
0
  0
VERTEX
  5
EE
  8
CUT
 10
47.90559116309236
 20
11.666710699058806
 30
0.0
 70
0
  0
VERTEX
  5
EF
  8
CUT
 10
48.27867965644036
 20
12.121320343559642
 30
0.0
 70
0
  0
VERTEX
  5
F0
  8
CUT
 10
48.733289300941195
 20
12.494408836907635
 30
0.0
 70
0
  0
VERTEX
  5
F1
  8
CUT
 10
49.251949702904724
 20
12.77163859753386
 30
0.0
 70
0
  0
VERTEX
  5
F2
  8
CUT
 10
49.814729033951615
 20
12.942355841209691
 30
0.0
 70
0
  0
VERTEX
  5
F3
  8
CUT
 10
50.4
 20
13.0
 30
0.0
 70
0
  0
VERTEX
  5
F4
  8
CUT
 10
50.98527096604838
 20
12.942355841209691
 30
0.0
 70
0
  0
VERTEX
  5
F5
  8
CUT
 10
51.54805029709527
 20
12.77163859753386
 30
0.0
 70
0
  0
VERTEX
  5
F6
  8
CUT
 10
52.0667106990588
 20
12.494408836907636
 30
0.0
 70
0
  0
VERTEX
  5
F7
  8
CUT
 10
52.52132034355964
 20
12.121320343559642
 30
0.0
 70
0
  0
VERTEX
  5
F8
  8
CUT
 10
52.89440883690763
 20
11.666710699058807
 30
0.0
 70
0
  0
VERTEX
  5
F9
  8
CUT
 10
53.17163859753386
 20
11.14805029709527
 30
0.0
 70
0
  0
VERTEX
  5
FA
  8
CUT
 10
53.34235584120969
 20
10.585270966048386
 30
0.0
 70
0
  0
SEQEND
  5
DA
  8
CUT
  0
POLYLINE
  5
FB
  8
CUT
 66
1
 10
0.0
 20
0.0
 30
0.0
 70
1
  0
VERTEX
  5
FD
  8
CUT
 10
80.6
 20
10.0
 30
0.0
 70
0
  0
VERTEX
  5
FE
  8
CUT
 10
80.4078528040323
 20
11.95090322016128
 30
0.0
 70
0
  0
VERTEX
  5
FF
  8
CUT
 10
79.83879532511287
 20
13.8268343236509
 30
0.0
 70
0
  0
VERTEX
  5
100
  8
CUT
 10
78.91469612302545
 20
15.55570233019602
 30
0.0
 70
0
  0
VERTEX
  5
101
  8
CUT
 10
77.67106781186547
 20
17.071067811865476
 30
0.0
 70
0
  0
VERTEX
  5
102
  8
CUT
 10
76.15570233019602
 20
18.314696123025453
 30
0.0
 70
0
  0
VERTEX
  5
103
  8
CUT
 10
74.4268343236509
 20
19.238795325112868
 30
0.0
 70
0
  0
VERTEX
  5
104
  8
CUT
 10
72.55090322016127
 20
19.807852804032304
 30
0.0
 70
0
  0
VERTEX
  5
105
  8
CUT
 10
70.6
 20
20.0
 30
0.0
 70
0
  0
VERTEX
  5
106
  8
CUT
 10
68.64909677983871
 20
19.807852804032304
 30
0.0
 70
0
  0
VERTEX
  5
107
  8
CUT
 10
66.7731656763491
 20
19.238795325112868
 30
0.0
 70
0
  0
VERTEX
  5
108
  8
CUT
 10
65.04429766980397
 20
18.314696123025453
 30
0.0
 70
0
  0
VERTEX
  5
109
  8
CUT
 10
63.52893218813452
 20
17.071067811865476
 30
0.0
 70
0
  0
VERTEX
  5
10A
  8
CUT
 10
62.28530387697454
 20
15.55570233019602
 30
0.0
 70
0
  0
VERTEX
  5
10B
  8
CUT
 10
61.36120467488713
 20
13.8268343236509
 30
0.0
 70
0
  0
VERTEX
  5
10C
  8
CUT
 10
60.79214719596769
 20
11.950903220161287
 30
0.0
 70
0
  0
VERTEX
  5
10D
  8
CUT
 10
60.599999999999994
 20
10.0
 30
0.0
 70
0
  0
VERTEX
  5
10E
  8
CUT
 10
60.79214719596769
 20
8.049096779838713
 30
0.0
 70
0
  0
VERTEX
  5
10F
  8
CUT
 10
61.36120467488713
 20
6.1731656763491
 30
0.0
 70
0
  0
VERTEX
  5
110
  8
CUT
 10
62.28530387697454
 20
4.44429766980398
 30
0.0
 70
0
  0
VERTEX
  5
111
  8
CUT
 10
63.52893218813452
 20
2.9289321881345245
 30
0.0
 70
0
  0
VERTEX
  5
112
  8
CUT
 10
65.04429766980397
 20
1.6853038769745439
 30
0.0
 70
0
  0
VERTEX
  5
113
  8
CUT
 10
66.7731656763491
 20
0.7612046748871393
 30
0.0
 70
0
  0
VERTEX
  5
114
  8
CUT
 10
68.64909677983871
 20
0.19214719596769925
 30
0.0
 70
0
  0
VERTEX
  5
115
  8
CUT
 10
70.6
 20
0.0
 30
0.0
 70
0
  0
VERTEX
  5
116
  8
CUT
 10
72.55090322016127
 20
0.19214719596769214
 30
0.0
 70
0
  0
VERTEX
  5
117
  8
CUT
 10
74.4268343236509
 20
0.7612046748871322
 30
0.0
 70
0
  0
VERTEX
  5
118
  8
CUT
 10
76.15570233019601
 20
1.6853038769745439
 30
0.0
 70
0
  0
VERTEX
  5
119
  8
CUT
 10
77.67106781186547
 20
2.9289321881345245
 30
0.0
 70
0
  0
VERTEX
  5
11A
  8
CUT
 10
78.91469612302545
 20
4.44429766980398
 30
0.0
 70
0
  0
VERTEX
  5
11B
  8
CUT
 10
79.83879532511286
 20
6.173165676349093
 30
0.0
 70
0
  0
VERTEX
  5
11C
  8
CUT
 10
80.4078528040323
 20
8.049096779838713
 30
0.0
 70
0
  0
SEQEND
  5
FC
  8
CUT
  0
POLYLINE
  5
11D
  8
CUT
 66
1
 10
0.0
 20
0.0
 30
0.0
 70
1
  0
VERTEX
  5
11F
  8
CUT
 10
73.6
 20
10.0
 30
0.0
 70
0
  0
VERTEX
  5
120
  8
CUT
 10
73.54235584120968
 20
9.414729033951616
 30
0.0
 70
0
  0
VERTEX
  5
121
  8
CUT
 10
73.37163859753386
 20
8.851949702904733
 30
0.0
 70
0
  0
VERTEX
  5
122
  8
CUT
 10
73.09440883690763
 20
8.333289300941196
 30
0.0
 70
0
  0
VERTEX
  5
123
  8
CUT
 10
72.72132034355964
 20
7.8786796564403545
 30
0.0
 70
0
  0
VERTEX
  5
124
  8
CUT
 10
72.2667106990588
 20
7.505591163092362
 30
0.0
 70
0
  0
VERTEX
  5
125
  8
CUT
 10
71.74805029709526
 20
7.228361402466142
 30
0.0
 70
0
  0
VERTEX
  5
126
  8
CUT
 10
71.18527096604838
 20
7.0576441587903105
 30
0.0
 70
0
  0
VERTEX
  5
127
  8
CUT
 10
70.6
 20
7.0
 30
0.0
 70
0
  0
VERTEX
  5
128
  8
CUT
 10
70.01472903395161
 20
7.0576441587903105
 30
0.0
 70
0
  0
VERTEX
  5
129
  8
CUT
 10
69.45194970290473
 20
7.228361402466142
 30
0.0
 70
0
  0
VERTEX
  5
12A
  8
CUT
 10
68.93328930094118
 20
7.505591163092362
 30
0.0
 70
0
  0
VERTEX
  5
12B
  8
CUT
 10
68.47867965644035
 20
7.8786796564403545
 30
0.0
 70
0
  0
VERTEX
  5
12C
  8
CUT
 10
68.10559116309236
 20
8.333289300941196
 30
0.0
 70
0
  0
VERTEX
  5
12D
  8
CUT
 10
67.82836140246613
 20
8.851949702904733
 30
0.0
 70
0
  0
VERTEX
  5
12E
  8
CUT
 10
67.6576441587903
 20
9.414729033951616
 30
0.0
 70
0
  0
VERTEX
  5
12F
  8
CUT
 10
67.6
 20
10.0
 30
0.0
 70
0
  0
VERTEX
  5
130
  8
CUT
 10
67.6576441587903
 20
10.585270966048384
 30
0.0
 70
0
  0
VERTEX
  5
131
  8
CUT
 10
67.82836140246613
 20
11.148050297095267
 30
0.0
 70
0
  0
VERTEX
  5
132
  8
CUT
 10
68.10559116309236
 20
11.666710699058804
 30
0.0
 70
0
  0
VERTEX
  5
133
  8
CUT
 10
68.47867965644035
 20
12.121320343559645
 30
0.0
 70
0
  0
VERTEX
  5
134
  8
CUT
 10
68.93328930094118
 20
12.494408836907638
 30
0.0
 70
0
  0
VERTEX
  5
135
  8
CUT
 10
69.45194970290473
 20
12.771638597533858
 30
0.0
 70
0
  0
VERTEX
  5
136
  8
CUT
 10
70.01472903395161
 20
12.94235584120969
 30
0.0
 70
0
  0
VERTEX
  5
137
  8
CUT
 10
70.6
 20
13.0
 30
0.0
 70
0
  0
VERTEX
  5
138
  8
CUT
 10
71.18527096604838
 20
12.94235584120969
 30
0.0
 70
0
  0
VERTEX
  5
139
  8
CUT
 10
71.74805029709526
 20
12.771638597533858
 30
0.0
 70
0
  0
VERTEX
  5
13A
  8
CUT
 10
72.2667106990588
 20
12.494408836907638
 30
0.0
 70
0
  0
VERTEX
  5
13B
  8
CUT
 10
72.72132034355964
 20
12.121320343559645
 30
0.0
 70
0
  0
VERTEX
  5
13C
  8
CUT
 10
73.09440883690763
 20
11.666710699058804
 30
0.0
 70
0
  0
VERTEX
  5
13D
  8
CUT
 10
73.37163859753386
 20
11.148050297095274
 30
0.0
 70
0
  0
VERTEX
  5
13E
  8
CUT
 10
73.54235584120968
 20
10.585270966048384
 30
0.0
 70
0
  0
SEQEND
  5
11E
  8
CUT
  0
POLYLINE
  5
13F
  8
CUT
 66
1
 10
0.0
 20
0.0
 30
0.0
 70
1
  0
VERTEX
  5
141
  8
CUT
 10
100.8
 20
10.0
 30
0.0
 70
0
  0
VERTEX
  5
142
  8
CUT
 10
100.6078528040323
 20
11.95090322016128
 30
0.0
 70
0
  0
VERTEX
  5
143
  8
CUT
 10
100.03879532511286
 20
13.8268343236509
 30
0.0
 70
0
  0
VERTEX
  5
144
  8
CUT
 10
99.11469612302545
 20
15.55570233019602
 30
0.0
 70
0
  0
VERTEX
  5
145
  8
CUT
 10
97.87106781186547
 20
17.071067811865476
 30
0.0
 70
0
  0
VERTEX
  5
146
  8
CUT
 10
96.35570233019602
 20
18.314696123025456
 30
0.0
 70
0
  0
VERTEX
  5
147
  8
CUT
 10
94.6268343236509
 20
19.238795325112868
 30
0.0
 70
0
  0
VERTEX
  5
148
  8
CUT
 10
92.75090322016128
 20
19.807852804032308
 30
0.0
 70
0
  0
VERTEX
  5
149
  8
CUT
 10
90.8
 20
20.0
 30
0.0
 70
0
  0
VERTEX
  5
14A
  8
CUT
 10
88.84909677983872
 20
19.807852804032308
 30
0.0
 70
0
  0
VERTEX
  5
14B
  8
CUT
 10
86.9731656763491
 20
19.238795325112868
 30
0.0
 70
0
  0
VERTEX
  5
14C
  8
CUT
 10
85.24429766980398
 20
18.314696123025456
 30
0.0
 70
0
  0
VERTEX
  5
14D
  8
CUT
 10
83.72893218813452
 20
17.071067811865476
 30
0.0
 70
0
  0
VERTEX
  5
14E
  8
CUT
 10
82.48530387697454
 20
15.55570233019602
 30
0.0
 70
0
  0
VERTEX
  5
14F
  8
CUT
 10
81.56120467488714
 20
13.8268343236509
 30
0.0
 70
0
  0
VERTEX
  5
150
  8
CUT
 10
80.99214719596769
 20
11.950903220161287
 30
0.0
 70
0
  0
VERTEX
  5
151
  8
CUT
 10
80.8
 20
10.0
 30
0.0
 70
0
  0
VERTEX
  5
152
  8
CUT
 10
80.99214719596769
 20
8.049096779838713
 30
0.0
 70
0
  0
VERTEX
  5
153
  8
CUT
 10
81.56120467488714
 20
6.1731656763491
 30
0.0
 70
0
  0
VERTEX
  5
154
  8
CUT
 10
82.48530387697454
 20
4.44429766980398
 30
0.0
 70
0
  0
VERTEX
  5
155
  8
CUT
 10
83.72893218813452
 20
2.9289321881345245
 30
0.0
 70
0
  0
VERTEX
  5
156
  8
CUT
 10
85.24429766980397
 20
1.6853038769745474
 30
0.0
 70
0
  0
VERTEX
  5
157
  8
CUT
 10
86.9731656763491
 20
0.7612046748871357
 30
0.0
 70
0
  0
VERTEX
  5
158
  8
CUT
 10
88.8490967798387
 20
0.19214719596769925
 30
0.0
 70
0
  0
VERTEX
  5
159
  8
CUT
 10
90.8
 20
0.0
 30
0.0
 70
0
  0
VERTEX
  5
15A
  8
CUT
 10
92.75090322016128
 20
0.1921471959676957
 30
0.0
 70
0
  0
VERTEX
  5
15B
  8
CUT
 10
94.6268343236509
 20
0.7612046748871322
 30
0.0
 70
0
  0
VERTEX
  5
15C
  8
CUT
 10
96.35570233019601
 20
1.6853038769745439
 30
0.0
 70
0
  0
VERTEX
  5
15D
  8
CUT
 10
97.87106781186547
 20
2.9289321881345245
 30
0.0
 70
0
  0
VERTEX
  5
15E
  8
CUT
 10
99.11469612302545
 20
4.44429766980398
 30
0.0
 70
0
  0
VERTEX
  5
15F
  8
CUT
 10
100.03879532511286
 20
6.173165676349093
 30
0.0
 70
0
  0
VERTEX
  5
160
  8
CUT
 10
100.60785280403229
 20
8.049096779838713
 30
0.0
 70
0
  0
SEQEND
  5
140
  8
CUT
  0
POLYLINE
  5
161
  8
CUT
 66
1
 10
0.0
 20
0.0
 30
0.0
 70
1
  0
VERTEX
  5
163
  8
CUT
 10
93.8
 20
10.0
 30
0.0
 70
0
  0
VERTEX
  5
164
  8
CUT
 10
93.74235584120969
 20
9.414729033951616
 30
0.0
 70
0
  0
VERTEX
  5
165
  8
CUT
 10
93.57163859753385
 20
8.851949702904733
 30
0.0
 70
0
  0
VERTEX
  5
166
  8
CUT
 10
93.29440883690764
 20
8.333289300941196
 30
0.0
 70
0
  0
VERTEX
  5
167
  8
CUT
 10
92.92132034355964
 20
7.8786796564403545
 30
0.0
 70
0
  0
VERTEX
  5
168
  8
CUT
 10
92.46671069905881
 20
7.505591163092362
 30
0.0
 70
0
  0
VERTEX
  5
169
  8
CUT
 10
91.94805029709526
 20
7.228361402466142
 30
0.0
 70
0
  0
VERTEX
  5
16A
  8
CUT
 10
91.38527096604838
 20
7.0576441587903105
 30
0.0
 70
0
  0
VERTEX
  5
16B
  8
CUT
 10
90.8
 20
7.0
 30
0.0
 70
0
  0
VERTEX
  5
16C
  8
CUT
 10
90.21472903395161
 20
7.0576441587903105
 30
0.0
 70
0
  0
VERTEX
  5
16D
  8
CUT
 10
89.65194970290473
 20
7.228361402466142
 30
0.0
 70
0
  0
VERTEX
  5
16E
  8
CUT
 10
89.13328930094119
 20
7.505591163092362
 30
0.0
 70
0
  0
VERTEX
  5
16F
  8
CUT
 10
88.67867965644035
 20
7.8786796564403545
 30
0.0
 70
0
  0
VERTEX
  5
170
  8
CUT
 10
88.30559116309236
 20
8.333289300941196
 30
0.0
 70
0
  0
VERTEX
  5
171
  8
CUT
 10
88.02836140246613
 20
8.851949702904733
 30
0.0
 70
0
  0
VERTEX
  5
172
  8
CUT
 10
87.85764415879031
 20
9.414729033951616
 30
0.0
 70
0
  0
VERTEX
  5
173
  8
CUT
 10
87.8
 20
10.0
 30
0.0
 70
0
  0
VERTEX
  5
174
  8
CUT
 10
87.85764415879031
 20
10.585270966048384
 30
0.0
 70
0
  0
VERTEX
  5
175
  8
CUT
 10
88.02836140246613
 20
11.148050297095267
 30
0.0
 70
0
  0
VERTEX
  5
176
  8
CUT
 10
88.30559116309236
 20
11.666710699058804
 30
0.0
 70
0
  0
VERTEX
  5
177
  8
CUT
 10
88.67867965644035
 20
12.121320343559645
 30
0.0
 70
0
  0
VERTEX
  5
178
  8
CUT
 10
89.13328930094119
 20
12.494408836907638
 30
0.0
 70
0
  0
VERTEX
  5
179
  8
CUT
 10
89.65194970290473
 20
12.771638597533858
 30
0.0
 70
0
  0
VERTEX
  5
17A
  8
CUT
 10
90.21472903395161
 20
12.94235584120969
 30
0.0
 70
0
  0
VERTEX
  5
17B
  8
CUT
 10
90.8
 20
13.0
 30
0.0
 70
0
  0
VERTEX
  5
17C
  8
CUT
 10
91.38527096604838
 20
12.94235584120969
 30
0.0
 70
0
  0
VERTEX
  5
17D
  8
CUT
 10
91.94805029709526
 20
12.771638597533858
 30
0.0
 70
0
  0
VERTEX
  5
17E
  8
CUT
 10
92.46671069905881
 20
12.494408836907638
 30
0.0
 70
0
  0
VERTEX
  5
17F
  8
CUT
 10
92.92132034355964
 20
12.121320343559645
 30
0.0
 70
0
  0
VERTEX
  5
180
  8
CUT
 10
93.29440883690764
 20
11.666710699058804
 30
0.0
 70
0
  0
VERTEX
  5
181
  8
CUT
 10
93.57163859753385
 20
11.148050297095274
 30
0.0
 70
0
  0
VERTEX
  5
182
  8
CUT
 10
93.74235584120969
 20
10.585270966048384
 30
0.0
 70
0
  0
SEQEND
  5
162
  8
CUT
  0
POLYLINE
  5
183
  8
CUT
 66
1
 10
0.0
 20
0.0
 30
0.0
 70
1
  0
VERTEX
  5
185
  8
CUT
 10
121.0
 20
10.0
 30
0.0
 70
0
  0
VERTEX
  5
186
  8
CUT
 10
120.80785280403231
 20
11.950903220161283
 30
0.0
 70
0
  0
VERTEX
  5
187
  8
CUT
 10
120.23879532511287
 20
13.826834323650898
 30
0.0
 70
0
  0
VERTEX
  5
188
  8
CUT
 10
119.31469612302546
 20
15.555702330196022
 30
0.0
 70
0
  0
VERTEX
  5
189
  8
CUT
 10
118.07106781186548
 20
17.071067811865476
 30
0.0
 70
0
  0
VERTEX
  5
18A
  8
CUT
 10
116.55570233019603
 20
18.314696123025453
 30
0.0
 70
0
  0
VERTEX
  5
18B
  8
CUT
 10
114.8268343236509
 20
19.238795325112868
 30
0.0
 70
0
  0
VERTEX
  5
18C
  8
CUT
 10
112.95090322016128
 20
19.807852804032304
 30
0.0
 70
0
  0
VERTEX
  5
18D
  8
CUT
 10
111.0
 20
20.0
 30
0.0
 70
0
  0
VERTEX
  5
18E
  8
CUT
 10
109.04909677983872
 20
19.807852804032304
 30
0.0
 70
0
  0
VERTEX
  5
18F
  8
CUT
 10
107.1731656763491
 20
19.238795325112868
 30
0.0
 70
0
  0
VERTEX
  5
190
  8
CUT
 10
105.44429766980397
 20
18.314696123025453
 30
0.0
 70
0
  0
VERTEX
  5
191
  8
CUT
 10
103.92893218813452
 20
17.071067811865476
 30
0.0
 70
0
  0
VERTEX
  5
192
  8
CUT
 10
102.68530387697454
 20
15.555702330196022
 30
0.0
 70
0
  0
VERTEX
  5
193
  8
CUT
 10
101.76120467488713
 20
13.8268343236509
 30
0.0
 70
0
  0
VERTEX
  5
194
  8
CUT
 10
101.19214719596769
 20
11.950903220161287
 30
0.0
 70
0
  0
VERTEX
  5
195
  8
CUT
 10
101.0
 20
10.0
 30
0.0
 70
0
  0
VERTEX
  5
196
  8
CUT
 10
101.19214719596769
 20
8.049096779838717
 30
0.0
 70
0
  0
VERTEX
  5
197
  8
CUT
 10
101.76120467488713
 20
6.173165676349104
 30
0.0
 70
0
  0
VERTEX
  5
198
  8
CUT
 10
102.68530387697454
 20
4.44429766980398
 30
0.0
 70
0
  0
VERTEX
  5
199
  8
CUT
 10
103.92893218813452
 20
2.9289321881345245
 30
0.0
 70
0
  0
VERTEX
  5
19A
  8
CUT
 10
105.44429766980397
 20
1.6853038769745474
 30
0.0
 70
0
  0
VERTEX
  5
19B
  8
CUT
 10
107.1731656763491
 20
0.7612046748871357
 30
0.0
 70
0
  0
VERTEX
  5
19C
  8
CUT
 10
109.04909677983872
 20
0.19214719596769925
 30
0.0
 70
0
  0
VERTEX
  5
19D
  8
CUT
 10
111.0
 20
0.0
 30
0.0
 70
0
  0
VERTEX
  5
19E
  8
CUT
 10
112.95090322016128
 20
0.1921471959676957
 30
0.0
 70
0
  0
VERTEX
  5
19F
  8
CUT
 10
114.8268343236509
 20
0.7612046748871322
 30
0.0
 70
0
  0
VERTEX
  5
1A0
  8
CUT
 10
116.55570233019603
 20
1.6853038769745439
 30
0.0
 70
0
  0
VERTEX
  5
1A1
  8
CUT
 10
118.07106781186548
 20
2.9289321881345227
 30
0.0
 70
0
  0
VERTEX
  5
1A2
  8
CUT
 10
119.31469612302546
 20
4.444297669803978
 30
0.0
 70
0
  0
VERTEX
  5
1A3
  8
CUT
 10
120.23879532511286
 20
6.173165676349097
 30
0.0
 70
0
  0
VERTEX
  5
1A4
  8
CUT
 10
120.80785280403231
 20
8.049096779838713
 30
0.0
 70
0
  0
SEQEND
  5
184
  8
CUT
  0
POLYLINE
  5
1A5
  8
CUT
 66
1
 10
0.0
 20
0.0
 30
0.0
 70
1
  0
VERTEX
  5
1A7
  8
CUT
 10
114.0
 20
10.0
 30
0.0
 70
0
  0
VERTEX
  5
1A8
  8
CUT
 10
113.94235584120969
 20
9.414729033951616
 30
0.0
 70
0
  0
VERTEX
  5
1A9
  8
CUT
 10
113.77163859753387
 20
8.851949702904731
 30
0.0
 70
0
  0
VERTEX
  5
1AA
  8
CUT
 10
113.49440883690764
 20
8.333289300941193
 30
0.0
 70
0
  0
VERTEX
  5
1AB
  8
CUT
 10
113.12132034355965
 20
7.878679656440358
 30
0.0
 70
0
  0
VERTEX
  5
1AC
  8
CUT
 10
112.66671069905881
 20
7.505591163092365
 30
0.0
 70
0
  0
VERTEX
  5
1AD
  8
CUT
 10
112.14805029709527
 20
7.22836140246614
 30
0.0
 70
0
  0
VERTEX
  5
1AE
  8
CUT
 10
111.58527096604838
 20
7.057644158790309
 30
0.0
 70
0
  0
VERTEX
  5
1AF
  8
CUT
 10
111.0
 20
7.0
 30
0.0
 70
0
  0
VERTEX
  5
1B0
  8
CUT
 10
110.41472903395162
 20
7.057644158790309
 30
0.0
 70
0
  0
VERTEX
  5
1B1
  8
CUT
 10
109.85194970290473
 20
7.22836140246614
 30
0.0
 70
0
  0
VERTEX
  5
1B2
  8
CUT
 10
109.33328930094119
 20
7.5055911630923635
 30
0.0
 70
0
  0
VERTEX
  5
1B3
  8
CUT
 10
108.87867965644035
 20
7.878679656440358
 30
0.0
 70
0
  0
VERTEX
  5
1B4
  8
CUT
 10
108.50559116309236
 20
8.333289300941193
 30
0.0
 70
0
  0
VERTEX
  5
1B5
  8
CUT
 10
108.22836140246613
 20
8.85194970290473
 30
0.0
 70
0
  0
VERTEX
  5
1B6
  8
CUT
 10
108.05764415879031
 20
9.414729033951614
 30
0.0
 70
0
  0
VERTEX
  5
1B7
  8
CUT
 10
108.0
 20
10.0
 30
0.0
 70
0
  0
VERTEX
  5
1B8
  8
CUT
 10
108.05764415879031
 20
10.585270966048384
 30
0.0
 70
0
  0
VERTEX
  5
1B9
  8
CUT
 10
108.22836140246613
 20
11.148050297095269
 30
0.0
 70
0
  0
VERTEX
  5
1BA
  8
CUT
 10
108.50559116309236
 20
11.666710699058806
 30
0.0
 70
0
  0
VERTEX
  5
1BB
  8
CUT
 10
108.87867965644035
 20
12.121320343559642
 30
0.0
 70
0
  0
VERTEX
  5
1BC
  8
CUT
 10
109.33328930094119
 20
12.494408836907635
 30
0.0
 70
0
  0
VERTEX
  5
1BD
  8
CUT
 10
109.85194970290473
 20
12.77163859753386
 30
0.0
 70
0
  0
VERTEX
  5
1BE
  8
CUT
 10
110.41472903395162
 20
12.942355841209691
 30
0.0
 70
0
  0
VERTEX
  5
1BF
  8
CUT
 10
111.0
 20
13.0
 30
0.0
 70
0
  0
VERTEX
  5
1C0
  8
CUT
 10
111.58527096604838
 20
12.942355841209691
 30
0.0
 70
0
  0
VERTEX
  5
1C1
  8
CUT
 10
112.14805029709527
 20
12.77163859753386
 30
0.0
 70
0
  0
VERTEX
  5
1C2
  8
CUT
 10
112.6667106990588
 20
12.494408836907636
 30
0.0
 70
0
  0
VERTEX
  5
1C3
  8
CUT
 10
113.12132034355965
 20
12.121320343559642
 30
0.0
 70
0
  0
VERTEX
  5
1C4
  8
CUT
 10
113.49440883690764
 20
11.666710699058807
 30
0.0
 70
0
  0
VERTEX
  5
1C5
  8
CUT
 10
113.77163859753387
 20
11.14805029709527
 30
0.0
 70
0
  0
VERTEX
  5
1C6
  8
CUT
 10
113.94235584120969
 20
10.585270966048386
 30
0.0
 70
0
  0
SEQEND
  5
1A6
  8
CUT
  0
POLYLINE
  5
1C7
  8
CUT
 66
1
 10
0.0
 20
0.0
 30
0.0
 70
1
  0
VERTEX
  5
1C9
  8
CUT
 10
141.2
 20
10.0
 30
0.0
 70
0
  0
VERTEX
  5
1CA
  8
CUT
 10
141.0078528040323
 20
11.95090322016128
 30
0.0
 70
0
  0
VERTEX
  5
1CB
  8
CUT
 10
140.43879532511286
 20
13.8268343236509
 30
0.0
 70
0
  0
VERTEX
  5
1CC
  8
CUT
 10
139.51469612302543
 20
15.55570233019602
 30
0.0
 70
0
  0
VERTEX
  5
1CD
  8
CUT
 10
138.27106781186546
 20
17.071067811865476
 30
0.0
 70
0
  0
VERTEX
  5
1CE
  8
CUT
 10
136.75570233019602
 20
18.314696123025453
 30
0.0
 70
0
  0
VERTEX
  5
1CF
  8
CUT
 10
135.0268343236509
 20
19.238795325112868
 30
0.0
 70
0
  0
VERTEX
  5
1D0
  8
CUT
 10
133.15090322016127
 20
19.807852804032304
 30
0.0
 70
0
  0
VERTEX
  5
1D1
  8
CUT
 10
131.2
 20
20.0
 30
0.0
 70
0
  0
VERTEX
  5
1D2
  8
CUT
 10
129.2490967798387
 20
19.807852804032304
 30
0.0
 70
0
  0
VERTEX
  5
1D3
  8
CUT
 10
127.37316567634909
 20
19.238795325112868
 30
0.0
 70
0
  0
VERTEX
  5
1D4
  8
CUT
 10
125.64429766980396
 20
18.314696123025453
 30
0.0
 70
0
  0
VERTEX
  5
1D5
  8
CUT
 10
124.12893218813451
 20
17.071067811865476
 30
0.0
 70
0
  0
VERTEX
  5
1D6
  8
CUT
 10
122.88530387697453
 20
15.55570233019602
 30
0.0
 70
0
  0
VERTEX
  5
1D7
  8
CUT
 10
121.96120467488711
 20
13.8268343236509
 30
0.0
 70
0
  0
VERTEX
  5
1D8
  8
CUT
 10
121.39214719596768
 20
11.950903220161287
 30
0.0
 70
0
  0
VERTEX
  5
1D9
  8
CUT
 10
121.19999999999999
 20
10.0
 30
0.0
 70
0
  0
VERTEX
  5
1DA
  8
CUT
 10
121.39214719596768
 20
8.049096779838713
 30
0.0
 70
0
  0
VERTEX
  5
1DB
  8
CUT
 10
121.96120467488711
 20
6.1731656763491
 30
0.0
 70
0
  0
VERTEX
  5
1DC
  8
CUT
 10
122.88530387697453
 20
4.44429766980398
 30
0.0
 70
0
  0
VERTEX
  5
1DD
  8
CUT
 10
124.12893218813451
 20
2.9289321881345245
 30
0.0
 70
0
  0
VERTEX
  5
1DE
  8
CUT
 10
125.64429766980396
 20
1.6853038769745439
 30
0.0
 70
0
  0
VERTEX
  5
1DF
  8
CUT
 10
127.37316567634909
 20
0.7612046748871393
 30
0.0
 70
0
  0
VERTEX
  5
1E0
  8
CUT
 10
129.2490967798387
 20
0.19214719596769925
 30
0.0
 70
0
  0
VERTEX
  5
1E1
  8
CUT
 10
131.2
 20
0.0
 30
0.0
 70
0
  0
VERTEX
  5
1E2
  8
CUT
 10
133.15090322016127
 20
0.19214719596769214
 30
0.0
 70
0
  0
VERTEX
  5
1E3
  8
CUT
 10
135.0268343236509
 20
0.7612046748871322
 30
0.0
 70
0
  0
VERTEX
  5
1E4
  8
CUT
 10
136.75570233019602
 20
1.6853038769745439
 30
0.0
 70
0
  0
VERTEX
  5
1E5
  8
CUT
 10
138.27106781186546
 20
2.9289321881345245
 30
0.0
 70
0
  0
VERTEX
  5
1E6
  8
CUT
 10
139.51469612302543
 20
4.44429766980398
 30
0.0
 70
0
  0
VERTEX
  5
1E7
  8
CUT
 10
140.43879532511286
 20
6.173165676349093
 30
0.0
 70
0
  0
VERTEX
  5
1E8
  8
CUT
 10
141.0078528040323
 20
8.049096779838713
 30
0.0
 70
0
  0
SEQEND
  5
1C8
  8
CUT
  0
POLYLINE
  5
1E9
  8
CUT
 66
1
 10
0.0
 20
0.0
 30
0.0
 70
1
  0
VERTEX
  5
1EB
  8
CUT
 10
134.2
 20
10.0
 30
0.0
 70
0
  0
VERTEX
  5
1EC
  8
CUT
 10
134.14235584120968
 20
9.414729033951616
 30
0.0
 70
0
  0
VERTEX
  5
1ED
  8
CUT
 10
133.97163859753385
 20
8.851949702904733
 30
0.0
 70
0
  0
VERTEX
  5
1EE
  8
CUT
 10
133.69440883690763
 20
8.333289300941196
 30
0.0
 70
0
  0
VERTEX
  5
1EF
  8
CUT
 10
133.32132034355962
 20
7.8786796564403545
 30
0.0
 70
0
  0
VERTEX
  5
1F0
  8
CUT
 10
132.86671069905879
 20
7.505591163092362
 30
0.0
 70
0
  0
VERTEX
  5
1F1
  8
CUT
 10
132.34805029709526
 20
7.228361402466142
 30
0.0
 70
0
  0
VERTEX
  5
1F2
  8
CUT
 10
131.7852709660484
 20
7.0576441587903105
 30
0.0
 70
0
  0
VERTEX
  5
1F3
  8
CUT
 10
131.2
 20
7.0
 30
0.0
 70
0
  0
VERTEX
  5
1F4
  8
CUT
 10
130.61472903395162
 20
7.0576441587903105
 30
0.0
 70
0
  0
VERTEX
  5
1F5
  8
CUT
 10
130.05194970290472
 20
7.228361402466142
 30
0.0
 70
0
  0
VERTEX
  5
1F6
  8
CUT
 10
129.5332893009412
 20
7.505591163092362
 30
0.0
 70
0
  0
VERTEX
  5
1F7
  8
CUT
 10
129.07867965644036
 20
7.8786796564403545
 30
0.0
 70
0
  0
VERTEX
  5
1F8
  8
CUT
 10
128.70559116309235
 20
8.333289300941196
 30
0.0
 70
0
  0
VERTEX
  5
1F9
  8
CUT
 10
128.42836140246612
 20
8.851949702904733
 30
0.0
 70
0
  0
VERTEX
  5
1FA
  8
CUT
 10
128.2576441587903
 20
9.414729033951616
 30
0.0
 70
0
  0
VERTEX
  5
1FB
  8
CUT
 10
128.2
 20
10.0
 30
0.0
 70
0
  0
VERTEX
  5
1FC
  8
CUT
 10
128.2576441587903
 20
10.585270966048384
 30
0.0
 70
0
  0
VERTEX
  5
1FD
  8
CUT
 10
128.42836140246612
 20
11.148050297095267
 30
0.0
 70
0
  0
VERTEX
  5
1FE
  8
CUT
 10
128.70559116309235
 20
11.666710699058804
 30
0.0
 70
0
  0
VERTEX
  5
1FF
  8
CUT
 10
129.07867965644036
 20
12.121320343559645
 30
0.0
 70
0
  0
VERTEX
  5
200
  8
CUT
 10
129.5332893009412
 20
12.494408836907638
 30
0.0
 70
0
  0
VERTEX
  5
201
  8
CUT
 10
130.05194970290472
 20
12.771638597533858
 30
0.0
 70
0
  0
VERTEX
  5
202
  8
CUT
 10
130.6147290339516
 20
12.94235584120969
 30
0.0
 70
0
  0
VERTEX
  5
203
  8
CUT
 10
131.2
 20
13.0
 30
0.0
 70
0
  0
VERTEX
  5
204
  8
CUT
 10
131.7852709660484
 20
12.94235584120969
 30
0.0
 70
0
  0
VERTEX
  5
205
  8
CUT
 10
132.34805029709526
 20
12.771638597533858
 30
0.0
 70
0
  0
VERTEX
  5
206
  8
CUT
 10
132.86671069905879
 20
12.494408836907638
 30
0.0
 70
0
  0
VERTEX
  5
207
  8
CUT
 10
133.32132034355962
 20
12.121320343559645
 30
0.0
 70
0
  0
VERTEX
  5
208
  8
CUT
 10
133.69440883690763
 20
11.666710699058804
 30
0.0
 70
0
  0
VERTEX
  5
209
  8
CUT
 10
133.97163859753385
 20
11.148050297095274
 30
0.0
 70
0
  0
VERTEX
  5
20A
  8
CUT
 10
134.14235584120968
 20
10.585270966048384
 30
0.0
 70
0
  0
SEQEND
  5
1EA
  8
CUT
  0
POLYLINE
  5
20B
  8
CUT
 66
1
 10
0.0
 20
0.0
 30
0.0
 70
1
  0
VERTEX
  5
20D
  8
CUT
 10
161.4
 20
10.0
 30
0.0
 70
0
  0
VERTEX
  5
20E
  8
CUT
 10
161.2078528040323
 20
11.95090322016128
 30
0.0
 70
0
  0
VERTEX
  5
20F
  8
CUT
 10
160.63879532511288
 20
13.8268343236509
 30
0.0
 70
0
  0
VERTEX
  5
210
  8
CUT
 10
159.71469612302545
 20
15.55570233019602
 30
0.0
 70
0
  0
VERTEX
  5
211
  8
CUT
 10
158.47106781186548
 20
17.071067811865476
 30
0.0
 70
0
  0
VERTEX
  5
212
  8
CUT
 10
156.95570233019603
 20
18.314696123025456
 30
0.0
 70
0
  0
VERTEX
  5
213
  8
CUT
 10
155.2268343236509
 20
19.238795325112868
 30
0.0
 70
0
  0
VERTEX
  5
214
  8
CUT
 10
153.35090322016129
 20
19.807852804032308
 30
0.0
 70
0
  0
VERTEX
  5
215
  8
CUT
 10
151.4
 20
20.0
 30
0.0
 70
0
  0
VERTEX
  5
216
  8
CUT
 10
149.44909677983873
 20
19.807852804032308
 30
0.0
 70
0
  0
VERTEX
  5
217
  8
CUT
 10
147.5731656763491
 20
19.238795325112868
 30
0.0
 70
0
  0
VERTEX
  5
218
  8
CUT
 10
145.84429766980398
 20
18.314696123025456
 30
0.0
 70
0
  0
VERTEX
  5
219
  8
CUT
 10
144.32893218813453
 20
17.071067811865476
 30
0.0
 70
0
  0
VERTEX
  5
21A
  8
CUT
 10
143.08530387697456
 20
15.55570233019602
 30
0.0
 70
0
  0
VERTEX
  5
21B
  8
CUT
 10
142.16120467488713
 20
13.8268343236509
 30
0.0
 70
0
  0
VERTEX
  5
21C
  8
CUT
 10
141.5921471959677
 20
11.950903220161287
 30
0.0
 70
0
  0
VERTEX
  5
21D
  8
CUT
 10
141.4
 20
10.0
 30
0.0
 70
0
  0
VERTEX
  5
21E
  8
CUT
 10
141.5921471959677
 20
8.049096779838713
 30
0.0
 70
0
  0
VERTEX
  5
21F
  8
CUT
 10
142.16120467488713
 20
6.1731656763491
 30
0.0
 70
0
  0
VERTEX
  5
220
  8
CUT
 10
143.08530387697456
 20
4.44429766980398
 30
0.0
 70
0
  0
VERTEX
  5
221
  8
CUT
 10
144.32893218813453
 20
2.9289321881345245
 30
0.0
 70
0
  0
VERTEX
  5
222
  8
CUT
 10
145.84429766980398
 20
1.6853038769745474
 30
0.0
 70
0
  0
VERTEX
  5
223
  8
CUT
 10
147.5731656763491
 20
0.7612046748871357
 30
0.0
 70
0
  0
VERTEX
  5
224
  8
CUT
 10
149.44909677983873
 20
0.19214719596769925
 30
0.0
 70
0
  0
VERTEX
  5
225
  8
CUT
 10
151.4
 20
0.0
 30
0.0
 70
0
  0
VERTEX
  5
226
  8
CUT
 10
153.35090322016129
 20
0.1921471959676957
 30
0.0
 70
0
  0
VERTEX
  5
227
  8
CUT
 10
155.2268343236509
 20
0.7612046748871322
 30
0.0
 70
0
  0
VERTEX
  5
228
  8
CUT
 10
156.95570233019603
 20
1.6853038769745439
 30
0.0
 70
0
  0
VERTEX
  5
229
  8
CUT
 10
158.47106781186548
 20
2.9289321881345245
 30
0.0
 70
0
  0
VERTEX
  5
22A
  8
CUT
 10
159.71469612302545
 20
4.44429766980398
 30
0.0
 70
0
  0
VERTEX
  5
22B
  8
CUT
 10
160.63879532511288
 20
6.173165676349093
 30
0.0
 70
0
  0
VERTEX
  5
22C
  8
CUT
 10
161.2078528040323
 20
8.049096779838713
 30
0.0
 70
0
  0
SEQEND
  5
20C
  8
CUT
  0
POLYLINE
  5
22D
  8
CUT
 66
1
 10
0.0
 20
0.0
 30
0.0
 70
1
  0
VERTEX
  5
22F
  8
CUT
 10
154.4
 20
10.0
 30
0.0
 70
0
  0
VERTEX
  5
230
  8
CUT
 10
154.3423558412097
 20
9.414729033951616
 30
0.0
 70
0
  0
VERTEX
  5
231
  8
CUT
 10
154.17163859753387
 20
8.851949702904733
 30
0.0
 70
0
  0
VERTEX
  5
232
  8
CUT
 10
153.89440883690764
 20
8.333289300941196
 30
0.0
 70
0
  0
VERTEX
  5
233
  8
CUT
 10
153.52132034355964
 20
7.8786796564403545
 30
0.0
 70
0
  0
VERTEX
  5
234
  8
CUT
 10
153.0667106990588
 20
7.505591163092362
 30
0.0
 70
0
  0
VERTEX
  5
235
  8
CUT
 10
152.54805029709527
 20
7.228361402466142
 30
0.0
 70
0
  0
VERTEX
  5
236
  8
CUT
 10
151.9852709660484
 20
7.0576441587903105
 30
0.0
 70
0
  0
VERTEX
  5
237
  8
CUT
 10
151.4
 20
7.0
 30
0.0
 70
0
  0
VERTEX
  5
238
  8
CUT
 10
150.8147290339516
 20
7.0576441587903105
 30
0.0
 70
0
  0
VERTEX
  5
239
  8
CUT
 10
150.25194970290474
 20
7.228361402466142
 30
0.0
 70
0
  0
VERTEX
  5
23A
  8
CUT
 10
149.7332893009412
 20
7.505591163092362
 30
0.0
 70
0
  0
VERTEX
  5
23B
  8
CUT
 10
149.27867965644037
 20
7.8786796564403545
 30
0.0
 70
0
  0
VERTEX
  5
23C
  8
CUT
 10
148.90559116309237
 20
8.333289300941196
 30
0.0
 70
0
  0
VERTEX
  5
23D
  8
CUT
 10
148.62836140246614
 20
8.851949702904733
 30
0.0
 70
0
  0
VERTEX
  5
23E
  8
CUT
 10
148.45764415879032
 20
9.414729033951616
 30
0.0
 70
0
  0
VERTEX
  5
23F
  8
CUT
 10
148.4
 20
10.0
 30
0.0
 70
0
  0
VERTEX
  5
240
  8
CUT
 10
148.45764415879032
 20
10.585270966048384
 30
0.0
 70
0
  0
VERTEX
  5
241
  8
CUT
 10
148.62836140246614
 20
11.148050297095267
 30
0.0
 70
0
  0
VERTEX
  5
242
  8
CUT
 10
148.90559116309237
 20
11.666710699058804
 30
0.0
 70
0
  0
VERTEX
  5
243
  8
CUT
 10
149.27867965644037
 20
12.121320343559645
 30
0.0
 70
0
  0
VERTEX
  5
244
  8
CUT
 10
149.7332893009412
 20
12.494408836907638
 30
0.0
 70
0
  0
VERTEX
  5
245
  8
CUT
 10
150.25194970290474
 20
12.771638597533858
 30
0.0
 70
0
  0
VERTEX
  5
246
  8
CUT
 10
150.8147290339516
 20
12.94235584120969
 30
0.0
 70
0
  0
VERTEX
  5
247
  8
CUT
 10
151.4
 20
13.0
 30
0.0
 70
0
  0
VERTEX
  5
248
  8
CUT
 10
151.9852709660484
 20
12.94235584120969
 30
0.0
 70
0
  0
VERTEX
  5
249
  8
CUT
 10
152.54805029709527
 20
12.771638597533858
 30
0.0
 70
0
  0
VERTEX
  5
24A
  8
CUT
 10
153.0667106990588
 20
12.494408836907638
 30
0.0
 70
0
  0
VERTEX
  5
24B
  8
CUT
 10
153.52132034355964
 20
12.121320343559645
 30
0.0
 70
0
  0
VERTEX
  5
24C
  8
CUT
 10
153.89440883690764
 20
11.666710699058804
 30
0.0
 70
0
  0
VERTEX
  5
24D
  8
CUT
 10
154.17163859753387
 20
11.148050297095274
 30
0.0
 70
0
  0
VERTEX
  5
24E
  8
CUT
 10
154.3423558412097
 20
10.585270966048384
 30
0.0
 70
0
  0
SEQEND
  5
22E
  8
CUT
  0
POLYLINE
  5
24F
  8
CUT
 66
1
 10
0.0
 20
0.0
 30
0.0
 70
1
  0
VERTEX
  5
251
  8
CUT
 10
181.6
 20
10.0
 30
0.0
 70
0
  0
VERTEX
  5
252
  8
CUT
 10
181.4078528040323
 20
11.950903220161283
 30
0.0
 70
0
  0
VERTEX
  5
253
  8
CUT
 10
180.83879532511287
 20
13.826834323650898
 30
0.0
 70
0
  0
VERTEX
  5
254
  8
CUT
 10
179.91469612302544
 20
15.555702330196022
 30
0.0
 70
0
  0
VERTEX
  5
255
  8
CUT
 10
178.67106781186547
 20
17.071067811865476
 30
0.0
 70
0
  0
VERTEX
  5
256
  8
CUT
 10
177.15570233019602
 20
18.314696123025453
 30
0.0
 70
0
  0
VERTEX
  5
257
  8
CUT
 10
175.4268343236509
 20
19.238795325112868
 30
0.0
 70
0
  0
VERTEX
  5
258
  8
CUT
 10
173.55090322016127
 20
19.807852804032304
 30
0.0
 70
0
  0
VERTEX
  5
259
  8
CUT
 10
171.6
 20
20.0
 30
0.0
 70
0
  0
VERTEX
  5
25A
  8
CUT
 10
169.64909677983871
 20
19.807852804032304
 30
0.0
 70
0
  0
VERTEX
  5
25B
  8
CUT
 10
167.7731656763491
 20
19.238795325112868
 30
0.0
 70
0
  0
VERTEX
  5
25C
  8
CUT
 10
166.04429766980397
 20
18.314696123025453
 30
0.0
 70
0
  0
VERTEX
  5
25D
  8
CUT
 10
164.52893218813452
 20
17.071067811865476
 30
0.0
 70
0
  0
VERTEX
  5
25E
  8
CUT
 10
163.28530387697455
 20
15.555702330196022
 30
0.0
 70
0
  0
VERTEX
  5
25F
  8
CUT
 10
162.36120467488712
 20
13.8268343236509
 30
0.0
 70
0
  0
VERTEX
  5
260
  8
CUT
 10
161.7921471959677
 20
11.950903220161287
 30
0.0
 70
0
  0
VERTEX
  5
261
  8
CUT
 10
161.6
 20
10.0
 30
0.0
 70
0
  0
VERTEX
  5
262
  8
CUT
 10
161.7921471959677
 20
8.049096779838717
 30
0.0
 70
0
  0
VERTEX
  5
263
  8
CUT
 10
162.36120467488712
 20
6.173165676349104
 30
0.0
 70
0
  0
VERTEX
  5
264
  8
CUT
 10
163.28530387697455
 20
4.44429766980398
 30
0.0
 70
0
  0
VERTEX
  5
265
  8
CUT
 10
164.52893218813452
 20
2.9289321881345245
 30
0.0
 70
0
  0
VERTEX
  5
266
  8
CUT
 10
166.04429766980397
 20
1.6853038769745474
 30
0.0
 70
0
  0
VERTEX
  5
267
  8
CUT
 10
167.7731656763491
 20
0.7612046748871357
 30
0.0
 70
0
  0
VERTEX
  5
268
  8
CUT
 10
169.64909677983871
 20
0.19214719596769925
 30
0.0
 70
0
  0
VERTEX
  5
269
  8
CUT
 10
171.6
 20
0.0
 30
0.0
 70
0
  0
VERTEX
  5
26A
  8
CUT
 10
173.55090322016127
 20
0.1921471959676957
 30
0.0
 70
0
  0
VERTEX
  5
26B
  8
CUT
 10
175.4268343236509
 20
0.7612046748871322
 30
0.0
 70
0
  0
VERTEX
  5
26C
  8
CUT
 10
177.15570233019602
 20
1.6853038769745439
 30
0.0
 70
0
  0
VERTEX
  5
26D
  8
CUT
 10
178.67106781186547
 20
2.9289321881345227
 30
0.0
 70
0
  0
VERTEX
  5
26E
  8
CUT
 10
179.91469612302544
 20
4.444297669803978
 30
0.0
 70
0
  0
VERTEX
  5
26F
  8
CUT
 10
180.83879532511287
 20
6.173165676349097
 30
0.0
 70
0
  0
VERTEX
  5
270
  8
CUT
 10
181.4078528040323
 20
8.049096779838713
 30
0.0
 70
0
  0
SEQEND
  5
250
  8
CUT
  0
POLYLINE
  5
271
  8
CUT
 66
1
 10
0.0
 20
0.0
 30
0.0
 70
1
  0
VERTEX
  5
273
  8
CUT
 10
174.6
 20
10.0
 30
0.0
 70
0
  0
VERTEX
  5
274
  8
CUT
 10
174.54235584120968
 20
9.414729033951616
 30
0.0
 70
0
  0
VERTEX
  5
275
  8
CUT
 10
174.37163859753386
 20
8.851949702904731
 30
0.0
 70
0
  0
VERTEX
  5
276
  8
CUT
 10
174.09440883690763
 20
8.333289300941193
 30
0.0
 70
0
  0
VERTEX
  5
277
  8
CUT
 10
173.72132034355963
 20
7.878679656440358
 30
0.0
 70
0
  0
VERTEX
  5
278
  8
CUT
 10
173.2667106990588
 20
7.505591163092365
 30
0.0
 70
0
  0
VERTEX
  5
279
  8
CUT
 10
172.74805029709526
 20
7.22836140246614
 30
0.0
 70
0
  0
VERTEX
  5
27A
  8
CUT
 10
172.1852709660484
 20
7.057644158790309
 30
0.0
 70
0
  0
VERTEX
  5
27B
  8
CUT
 10
171.6
 20
7.0
 30
0.0
 70
0
  0
VERTEX
  5
27C
  8
CUT
 10
171.0147290339516
 20
7.057644158790309
 30
0.0
 70
0
  0
VERTEX
  5
27D
  8
CUT
 10
170.45194970290473
 20
7.22836140246614
 30
0.0
 70
0
  0
VERTEX
  5
27E
  8
CUT
 10
169.9332893009412
 20
7.5055911630923635
 30
0.0
 70
0
  0
VERTEX
  5
27F
  8
CUT
 10
169.47867965644036
 20
7.878679656440358
 30
0.0
 70
0
  0
VERTEX
  5
280
  8
CUT
 10
169.10559116309236
 20
8.333289300941193
 30
0.0
 70
0
  0
VERTEX
  5
281
  8
CUT
 10
168.82836140246613
 20
8.85194970290473
 30
0.0
 70
0
  0
VERTEX
  5
282
  8
CUT
 10
168.6576441587903
 20
9.414729033951614
 30
0.0
 70
0
  0
VERTEX
  5
283
  8
CUT
 10
168.6
 20
10.0
 30
0.0
 70
0
  0
VERTEX
  5
284
  8
CUT
 10
168.6576441587903
 20
10.585270966048384
 30
0.0
 70
0
  0
VERTEX
  5
285
  8
CUT
 10
168.82836140246613
 20
11.148050297095269
 30
0.0
 70
0
  0
VERTEX
  5
286
  8
CUT
 10
169.10559116309236
 20
11.666710699058806
 30
0.0
 70
0
  0
VERTEX
  5
287
  8
CUT
 10
169.47867965644036
 20
12.121320343559642
 30
0.0
 70
0
  0
VERTEX
  5
288
  8
CUT
 10
169.9332893009412
 20
12.494408836907635
 30
0.0
 70
0
  0
VERTEX
  5
289
  8
CUT
 10
170.45194970290473
 20
12.77163859753386
 30
0.0
 70
0
  0
VERTEX
  5
28A
  8
CUT
 10
171.0147290339516
 20
12.942355841209691
 30
0.0
 70
0
  0
VERTEX
  5
28B
  8
CUT
 10
171.6
 20
13.0
 30
0.0
 70
0
  0
VERTEX
  5
28C
  8
CUT
 10
172.1852709660484
 20
12.942355841209691
 30
0.0
 70
0
  0
VERTEX
  5
28D
  8
CUT
 10
172.74805029709526
 20
12.77163859753386
 30
0.0
 70
0
  0
VERTEX
  5
28E
  8
CUT
 10
173.2667106990588
 20
12.494408836907636
 30
0.0
 70
0
  0
VERTEX
  5
28F
  8
CUT
 10
173.72132034355963
 20
12.121320343559642
 30
0.0
 70
0
  0
VERTEX
  5
290
  8
CUT
 10
174.09440883690763
 20
11.666710699058807
 30
0.0
 70
0
  0
VERTEX
  5
291
  8
CUT
 10
174.37163859753386
 20
11.14805029709527
 30
0.0
 70
0
  0
VERTEX
  5
292
  8
CUT
 10
174.54235584120968
 20
10.585270966048386
 30
0.0
 70
0
  0
SEQEND
  5
272
  8
CUT
  0
POLYLINE
  5
293
  8
CUT
 66
1
 10
0.0
 20
0.0
 30
0.0
 70
1
  0
VERTEX
  5
295
  8
CUT
 10
201.79999999999998
 20
10.0
 30
0.0
 70
0
  0
VERTEX
  5
296
  8
CUT
 10
201.6078528040323
 20
11.95090322016128
 30
0.0
 70
0
  0
VERTEX
  5
297
  8
CUT
 10
201.03879532511286
 20
13.8268343236509
 30
0.0
 70
0
  0
VERTEX
  5
298
  8
CUT
 10
200.11469612302542
 20
15.55570233019602
 30
0.0
 70
0
  0
VERTEX
  5
299
  8
CUT
 10
198.87106781186546
 20
17.071067811865476
 30
0.0
 70
0
  0
VERTEX
  5
29A
  8
CUT
 10
197.355702330196
 20
18.314696123025453
 30
0.0
 70
0
  0
VERTEX
  5
29B
  8
CUT
 10
195.62683432365088
 20
19.238795325112868
 30
0.0
 70
0
  0
VERTEX
  5
29C
  8
CUT
 10
193.75090322016126
 20
19.807852804032304
 30
0.0
 70
0
  0
VERTEX
  5
29D
  8
CUT
 10
191.79999999999998
 20
20.0
 30
0.0
 70
0
  0
VERTEX
  5
29E
  8
CUT
 10
189.8490967798387
 20
19.807852804032304
 30
0.0
 70
0
  0
VERTEX
  5
29F
  8
CUT
 10
187.97316567634908
 20
19.238795325112868
 30
0.0
 70
0
  0
VERTEX
  5
2A0
  8
CUT
 10
186.24429766980396
 20
18.314696123025453
 30
0.0
 70
0
  0
VERTEX
  5
2A1
  8
CUT
 10
184.7289321881345
 20
17.071067811865476
 30
0.0
 70
0
  0
VERTEX
  5
2A2
  8
CUT
 10
183.48530387697454
 20
15.55570233019602
 30
0.0
 70
0
  0
VERTEX
  5
2A3
  8
CUT
 10
182.5612046748871
 20
13.8268343236509
 30
0.0
 70
0
  0
VERTEX
  5
2A4
  8
CUT
 10
181.99214719596768
 20
11.950903220161287
 30
0.0
 70
0
  0
VERTEX
  5
2A5
  8
CUT
 10
181.79999999999998
 20
10.0
 30
0.0
 70
0
  0
VERTEX
  5
2A6
  8
CUT
 10
181.99214719596768
 20
8.049096779838713
 30
0.0
 70
0
  0
VERTEX
  5
2A7
  8
CUT
 10
182.5612046748871
 20
6.1731656763491
 30
0.0
 70
0
  0
VERTEX
  5
2A8
  8
CUT
 10
183.4853038769745
 20
4.44429766980398
 30
0.0
 70
0
  0
VERTEX
  5
2A9
  8
CUT
 10
184.7289321881345
 20
2.9289321881345245
 30
0.0
 70
0
  0
VERTEX
  5
2AA
  8
CUT
 10
186.24429766980396
 20
1.6853038769745439
 30
0.0
 70
0
  0
VERTEX
  5
2AB
  8
CUT
 10
187.97316567634908
 20
0.7612046748871393
 30
0.0
 70
0
  0
VERTEX
  5
2AC
  8
CUT
 10
189.8490967798387
 20
0.19214719596769925
 30
0.0
 70
0
  0
VERTEX
  5
2AD
  8
CUT
 10
191.79999999999998
 20
0.0
 30
0.0
 70
0
  0
VERTEX
  5
2AE
  8
CUT
 10
193.75090322016126
 20
0.19214719596769214
 30
0.0
 70
0
  0
VERTEX
  5
2AF
  8
CUT
 10
195.62683432365088
 20
0.7612046748871322
 30
0.0
 70
0
  0
VERTEX
  5
2B0
  8
CUT
 10
197.355702330196
 20
1.6853038769745439
 30
0.0
 70
0
  0
VERTEX
  5
2B1
  8
CUT
 10
198.87106781186546
 20
2.9289321881345245
 30
0.0
 70
0
  0
VERTEX
  5
2B2
  8
CUT
 10
200.11469612302542
 20
4.44429766980398
 30
0.0
 70
0
  0
VERTEX
  5
2B3
  8
CUT
 10
201.03879532511286
 20
6.173165676349093
 30
0.0
 70
0
  0
VERTEX
  5
2B4
  8
CUT
 10
201.6078528040323
 20
8.049096779838713
 30
0.0
 70
0
  0
SEQEND
  5
294
  8
CUT
  0
POLYLINE
  5
2B5
  8
CUT
 66
1
 10
0.0
 20
0.0
 30
0.0
 70
1
  0
VERTEX
  5
2B7
  8
CUT
 10
194.79999999999998
 20
10.0
 30
0.0
 70
0
  0
VERTEX
  5
2B8
  8
CUT
 10
194.74235584120967
 20
9.414729033951616
 30
0.0
 70
0
  0
VERTEX
  5
2B9
  8
CUT
 10
194.57163859753385
 20
8.851949702904733
 30
0.0
 70
0
  0
VERTEX
  5
2BA
  8
CUT
 10
194.29440883690762
 20
8.333289300941196
 30
0.0
 70
0
  0
VERTEX
  5
2BB
  8
CUT
 10
193.92132034355961
 20
7.8786796564403545
 30
0.0
 70
0
  0
VERTEX
  5
2BC
  8
CUT
 10
193.46671069905878
 20
7.505591163092362
 30
0.0
 70
0
  0
VERTEX
  5
2BD
  8
CUT
 10
192.94805029709525
 20
7.228361402466142
 30
0.0
 70
0
  0
VERTEX
  5
2BE
  8
CUT
 10
192.38527096604838
 20
7.0576441587903105
 30
0.0
 70
0
  0
VERTEX
  5
2BF
  8
CUT
 10
191.79999999999998
 20
7.0
 30
0.0
 70
0
  0
VERTEX
  5
2C0
  8
CUT
 10
191.21472903395158
 20
7.0576441587903105
 30
0.0
 70
0
  0
VERTEX
  5
2C1
  8
CUT
 10
190.65194970290472
 20
7.228361402466142
 30
0.0
 70
0
  0
VERTEX
  5
2C2
  8
CUT
 10
190.1332893009412
 20
7.505591163092362
 30
0.0
 70
0
  0
VERTEX
  5
2C3
  8
CUT
 10
189.67867965644035
 20
7.8786796564403545
 30
0.0
 70
0
  0
VERTEX
  5
2C4
  8
CUT
 10
189.30559116309234
 20
8.333289300941196
 30
0.0
 70
0
  0
VERTEX
  5
2C5
  8
CUT
 10
189.02836140246612
 20
8.851949702904733
 30
0.0
 70
0
  0
VERTEX
  5
2C6
  8
CUT
 10
188.8576441587903
 20
9.414729033951616
 30
0.0
 70
0
  0
VERTEX
  5
2C7
  8
CUT
 10
188.79999999999998
 20
10.0
 30
0.0
 70
0
  0
VERTEX
  5
2C8
  8
CUT
 10
188.8576441587903
 20
10.585270966048384
 30
0.0
 70
0
  0
VERTEX
  5
2C9
  8
CUT
 10
189.02836140246612
 20
11.148050297095267
 30
0.0
 70
0
  0
VERTEX
  5
2CA
  8
CUT
 10
189.30559116309234
 20
11.666710699058804
 30
0.0
 70
0
  0
VERTEX
  5
2CB
  8
CUT
 10
189.67867965644035
 20
12.121320343559645
 30
0.0
 70
0
  0
VERTEX
  5
2CC
  8
CUT
 10
190.1332893009412
 20
12.494408836907638
 30
0.0
 70
0
  0
VERTEX
  5
2CD
  8
CUT
 10
190.65194970290472
 20
12.771638597533858
 30
0.0
 70
0
  0
VERTEX
  5
2CE
  8
CUT
 10
191.21472903395158
 20
12.94235584120969
 30
0.0
 70
0
  0
VERTEX
  5
2CF
  8
CUT
 10
191.79999999999998
 20
13.0
 30
0.0
 70
0
  0
VERTEX
  5
2D0
  8
CUT
 10
192.38527096604838
 20
12.94235584120969
 30
0.0
 70
0
  0
VERTEX
  5
2D1
  8
CUT
 10
192.94805029709525
 20
12.771638597533858
 30
0.0
 70
0
  0
VERTEX
  5
2D2
  8
CUT
 10
193.46671069905878
 20
12.494408836907638
 30
0.0
 70
0
  0
VERTEX
  5
2D3
  8
CUT
 10
193.92132034355961
 20
12.121320343559645
 30
0.0
 70
0
  0
VERTEX
  5
2D4
  8
CUT
 10
194.29440883690762
 20
11.666710699058804
 30
0.0
 70
0
  0
VERTEX
  5
2D5
  8
CUT
 10
194.57163859753385
 20
11.148050297095274
 30
0.0
 70
0
  0
VERTEX
  5
2D6
  8
CUT
 10
194.74235584120967
 20
10.585270966048384
 30
0.0
 70
0
  0
SEQEND
  5
2B6
  8
CUT
  0
POLYLINE
  5
2D7
  8
CUT
 66
1
 10
0.0
 20
0.0
 30
0.0
 70
1
  0
VERTEX
  5
2D9
  8
CUT
 10
221.99999999999997
 20
10.0
 30
0.0
 70
0
  0
VERTEX
  5
2DA
  8
CUT
 10
221.80785280403228
 20
11.95090322016128
 30
0.0
 70
0
  0
VERTEX
  5
2DB
  8
CUT
 10
221.23879532511285
 20
13.8268343236509
 30
0.0
 70
0
  0
VERTEX
  5
2DC
  8
CUT
 10
220.3146961230254
 20
15.55570233019602
 30
0.0
 70
0
  0
VERTEX
  5
2DD
  8
CUT
 10
219.07106781186545
 20
17.071067811865476
 30
0.0
 70
0
  0
VERTEX
  5
2DE
  8
CUT
 10
217.555702330196
 20
18.314696123025456
 30
0.0
 70
0
  0
VERTEX
  5
2DF
  8
CUT
 10
215.82683432365087
 20
19.238795325112868
 30
0.0
 70
0
  0
VERTEX
  5
2E0
  8
CUT
 10
213.95090322016125
 20
19.807852804032308
 30
0.0
 70
0
  0
VERTEX
  5
2E1
  8
CUT
 10
211.99999999999997
 20
20.0
 30
0.0
 70
0
  0
VERTEX
  5
2E2
  8
CUT
 10
210.0490967798387
 20
19.807852804032308
 30
0.0
 70
0
  0
VERTEX
  5
2E3
  8
CUT
 10
208.17316567634907
 20
19.238795325112868
 30
0.0
 70
0
  0
VERTEX
  5
2E4
  8
CUT
 10
206.44429766980394
 20
18.314696123025456
 30
0.0
 70
0
  0
VERTEX
  5
2E5
  8
CUT
 10
204.9289321881345
 20
17.071067811865476
 30
0.0
 70
0
  0
VERTEX
  5
2E6
  8
CUT
 10
203.68530387697453
 20
15.55570233019602
 30
0.0
 70
0
  0
VERTEX
  5
2E7
  8
CUT
 10
202.7612046748871
 20
13.8268343236509
 30
0.0
 70
0
  0
VERTEX
  5
2E8
  8
CUT
 10
202.19214719596766
 20
11.950903220161287
 30
0.0
 70
0
  0
VERTEX
  5
2E9
  8
CUT
 10
201.99999999999997
 20
10.0
 30
0.0
 70
0
  0
VERTEX
  5
2EA
  8
CUT
 10
202.19214719596766
 20
8.049096779838713
 30
0.0
 70
0
  0
VERTEX
  5
2EB
  8
CUT
 10
202.7612046748871
 20
6.1731656763491
 30
0.0
 70
0
  0
VERTEX
  5
2EC
  8
CUT
 10
203.68530387697453
 20
4.44429766980398
 30
0.0
 70
0
  0
VERTEX
  5
2ED
  8
CUT
 10
204.9289321881345
 20
2.9289321881345245
 30
0.0
 70
0
  0
VERTEX
  5
2EE
  8
CUT
 10
206.44429766980394
 20
1.6853038769745474
 30
0.0
 70
0
  0
VERTEX
  5
2EF
  8
CUT
 10
208.17316567634907
 20
0.7612046748871357
 30
0.0
 70
0
  0
VERTEX
  5
2F0
  8
CUT
 10
210.0490967798387
 20
0.19214719596769925
 30
0.0
 70
0
  0
VERTEX
  5
2F1
  8
CUT
 10
211.99999999999997
 20
0.0
 30
0.0
 70
0
  0
VERTEX
  5
2F2
  8
CUT
 10
213.95090322016125
 20
0.1921471959676957
 30
0.0
 70
0
  0
VERTEX
  5
2F3
  8
CUT
 10
215.82683432365087
 20
0.7612046748871322
 30
0.0
 70
0
  0
VERTEX
  5
2F4
  8
CUT
 10
217.555702330196
 20
1.6853038769745439
 30
0.0
 70
0
  0
VERTEX
  5
2F5
  8
CUT
 10
219.07106781186545
 20
2.9289321881345245
 30
0.0
 70
0
  0
VERTEX
  5
2F6
  8
CUT
 10
220.3146961230254
 20
4.44429766980398
 30
0.0
 70
0
  0
VERTEX
  5
2F7
  8
CUT
 10
221.23879532511285
 20
6.173165676349093
 30
0.0
 70
0
  0
VERTEX
  5
2F8
  8
CUT
 10
221.80785280403228
 20
8.049096779838713
 30
0.0
 70
0
  0
SEQEND
  5
2D8
  8
CUT
  0
POLYLINE
  5
2F9
  8
CUT
 66
1
 10
0.0
 20
0.0
 30
0.0
 70
1
  0
VERTEX
  5
2FB
  8
CUT
 10
214.99999999999997
 20
10.0
 30
0.0
 70
0
  0
VERTEX
  5
2FC
  8
CUT
 10
214.94235584120966
 20
9.414729033951616
 30
0.0
 70
0
  0
VERTEX
  5
2FD
  8
CUT
 10
214.77163859753384
 20
8.851949702904733
 30
0.0
 70
0
  0
VERTEX
  5
2FE
  8
CUT
 10
214.4944088369076
 20
8.333289300941196
 30
0.0
 70
0
  0
VERTEX
  5
2FF
  8
CUT
 10
214.1213203435596
 20
7.8786796564403545
 30
0.0
 70
0
  0
VERTEX
  5
300
  8
CUT
 10
213.66671069905877
 20
7.505591163092362
 30
0.0
 70
0
  0
VERTEX
  5
301
  8
CUT
 10
213.14805029709524
 20
7.228361402466142
 30
0.0
 70
0
  0
VERTEX
  5
302
  8
CUT
 10
212.58527096604837
 20
7.0576441587903105
 30
0.0
 70
0
  0
VERTEX
  5
303
  8
CUT
 10
211.99999999999997
 20
7.0
 30
0.0
 70
0
  0
VERTEX
  5
304
  8
CUT
 10
211.41472903395157
 20
7.0576441587903105
 30
0.0
 70
0
  0
VERTEX
  5
305
  8
CUT
 10
210.8519497029047
 20
7.228361402466142
 30
0.0
 70
0
  0
VERTEX
  5
306
  8
CUT
 10
210.33328930094117
 20
7.505591163092362
 30
0.0
 70
0
  0
VERTEX
  5
307
  8
CUT
 10
209.87867965644034
 20
7.8786796564403545
 30
0.0
 70
0
  0
VERTEX
  5
308
  8
CUT
 10
209.50559116309233
 20
8.333289300941196
 30
0.0
 70
0
  0
VERTEX
  5
309
  8
CUT
 10
209.2283614024661
 20
8.851949702904733
 30
0.0
 70
0
  0
VERTEX
  5
30A
  8
CUT
 10
209.05764415879028
 20
9.414729033951616
 30
0.0
 70
0
  0
VERTEX
  5
30B
  8
CUT
 10
208.99999999999997
 20
10.0
 30
0.0
 70
0
  0
VERTEX
  5
30C
  8
CUT
 10
209.05764415879028
 20
10.585270966048384
 30
0.0
 70
0
  0
VERTEX
  5
30D
  8
CUT
 10
209.2283614024661
 20
11.148050297095267
 30
0.0
 70
0
  0
VERTEX
  5
30E
  8
CUT
 10
209.50559116309233
 20
11.666710699058804
 30
0.0
 70
0
  0
VERTEX
  5
30F
  8
CUT
 10
209.87867965644034
 20
12.121320343559645
 30
0.0
 70
0
  0
VERTEX
  5
310
  8
CUT
 10
210.33328930094117
 20
12.494408836907638
 30
0.0
 70
0
  0
VERTEX
  5
311
  8
CUT
 10
210.8519497029047
 20
12.771638597533858
 30
0.0
 70
0
  0
VERTEX
  5
312
  8
CUT
 10
211.41472903395157
 20
12.94235584120969
 30
0.0
 70
0
  0
VERTEX
  5
313
  8
CUT
 10
211.99999999999997
 20
13.0
 30
0.0
 70
0
  0
VERTEX
  5
314
  8
CUT
 10
212.58527096604837
 20
12.94235584120969
 30
0.0
 70
0
  0
VERTEX
  5
315
  8
CUT
 10
213.14805029709524
 20
12.771638597533858
 30
0.0
 70
0
  0
VERTEX
  5
316
  8
CUT
 10
213.66671069905877
 20
12.494408836907638
 30
0.0
 70
0
  0
VERTEX
  5
317
  8
CUT
 10
214.1213203435596
 20
12.121320343559645
 30
0.0
 70
0
  0
VERTEX
  5
318
  8
CUT
 10
214.4944088369076
 20
11.666710699058804
 30
0.0
 70
0
  0
VERTEX
  5
319
  8
CUT
 10
214.77163859753384
 20
11.148050297095274
 30
0.0
 70
0
  0
VERTEX
  5
31A
  8
CUT
 10
214.94235584120966
 20
10.585270966048384
 30
0.0
 70
0
  0
SEQEND
  5
2FA
  8
CUT
  0
POLYLINE
  5
31B
  8
CUT
 66
1
 10
0.0
 20
0.0
 30
0.0
 70
1
  0
VERTEX
  5
31D
  8
CUT
 10
242.19999999999996
 20
10.0
 30
0.0
 70
0
  0
VERTEX
  5
31E
  8
CUT
 10
242.00785280403227
 20
11.950903220161283
 30
0.0
 70
0
  0
VERTEX
  5
31F
  8
CUT
 10
241.43879532511284
 20
13.826834323650898
 30
0.0
 70
0
  0
VERTEX
  5
320
  8
CUT
 10
240.5146961230254
 20
15.555702330196022
 30
0.0
 70
0
  0
VERTEX
  5
321
  8
CUT
 10
239.27106781186544
 20
17.071067811865476
 30
0.0
 70
0
  0
VERTEX
  5
322
  8
CUT
 10
237.755702330196
 20
18.314696123025453
 30
0.0
 70
0
  0
VERTEX
  5
323
  8
CUT
 10
236.02683432365086
 20
19.238795325112868
 30
0.0
 70
0
  0
VERTEX
  5
324
  8
CUT
 10
234.15090322016124
 20
19.807852804032304
 30
0.0
 70
0
  0
VERTEX
  5
325
  8
CUT
 10
232.19999999999996
 20
20.0
 30
0.0
 70
0
  0
VERTEX
  5
326
  8
CUT
 10
230.24909677983868
 20
19.807852804032304
 30
0.0
 70
0
  0
VERTEX
  5
327
  8
CUT
 10
228.37316567634906
 20
19.238795325112868
 30
0.0
 70
0
  0
VERTEX
  5
328
  8
CUT
 10
226.64429766980393
 20
18.314696123025453
 30
0.0
 70
0
  0
VERTEX
  5
329
  8
CUT
 10
225.12893218813448
 20
17.071067811865476
 30
0.0
 70
0
  0
VERTEX
  5
32A
  8
CUT
 10
223.88530387697452
 20
15.555702330196022
 30
0.0
 70
0
  0
VERTEX
  5
32B
  8
CUT
 10
222.96120467488709
 20
13.8268343236509
 30
0.0
 70
0
  0
VERTEX
  5
32C
  8
CUT
 10
222.39214719596765
 20
11.950903220161287
 30
0.0
 70
0
  0
VERTEX
  5
32D
  8
CUT
 10
222.19999999999996
 20
10.0
 30
0.0
 70
0
  0
VERTEX
  5
32E
  8
CUT
 10
222.39214719596765
 20
8.049096779838717
 30
0.0
 70
0
  0
VERTEX
  5
32F
  8
CUT
 10
222.96120467488709
 20
6.173165676349104
 30
0.0
 70
0
  0
VERTEX
  5
330
  8
CUT
 10
223.88530387697452
 20
4.44429766980398
 30
0.0
 70
0
  0
VERTEX
  5
331
  8
CUT
 10
225.12893218813448
 20
2.9289321881345245
 30
0.0
 70
0
  0
VERTEX
  5
332
  8
CUT
 10
226.64429766980393
 20
1.6853038769745474
 30
0.0
 70
0
  0
VERTEX
  5
333
  8
CUT
 10
228.37316567634906
 20
0.7612046748871357
 30
0.0
 70
0
  0
VERTEX
  5
334
  8
CUT
 10
230.24909677983868
 20
0.19214719596769925
 30
0.0
 70
0
  0
VERTEX
  5
335
  8
CUT
 10
232.19999999999996
 20
0.0
 30
0.0
 70
0
  0
VERTEX
  5
336
  8
CUT
 10
234.15090322016124
 20
0.1921471959676957
 30
0.0
 70
0
  0
VERTEX
  5
337
  8
CUT
 10
236.02683432365086
 20
0.7612046748871322
 30
0.0
 70
0
  0
VERTEX
  5
338
  8
CUT
 10
237.755702330196
 20
1.6853038769745439
 30
0.0
 70
0
  0
VERTEX
  5
339
  8
CUT
 10
239.27106781186544
 20
2.9289321881345227
 30
0.0
 70
0
  0
VERTEX
  5
33A
  8
CUT
 10
240.5146961230254
 20
4.444297669803978
 30
0.0
 70
0
  0
VERTEX
  5
33B
  8
CUT
 10
241.43879532511284
 20
6.173165676349097
 30
0.0
 70
0
  0
VERTEX
  5
33C
  8
CUT
 10
242.00785280403227
 20
8.049096779838713
 30
0.0
 70
0
  0
SEQEND
  5
31C
  8
CUT
  0
POLYLINE
  5
33D
  8
CUT
 66
1
 10
0.0
 20
0.0
 30
0.0
 70
1
  0
VERTEX
  5
33F
  8
CUT
 10
235.19999999999996
 20
10.0
 30
0.0
 70
0
  0
VERTEX
  5
340
  8
CUT
 10
235.14235584120965
 20
9.414729033951616
 30
0.0
 70
0
  0
VERTEX
  5
341
  8
CUT
 10
234.97163859753383
 20
8.851949702904731
 30
0.0
 70
0
  0
VERTEX
  5
342
  8
CUT
 10
234.6944088369076
 20
8.333289300941193
 30
0.0
 70
0
  0
VERTEX
  5
343
  8
CUT
 10
234.3213203435596
 20
7.878679656440358
 30
0.0
 70
0
  0
VERTEX
  5
344
  8
CUT
 10
233.86671069905876
 20
7.505591163092365
 30
0.0
 70
0
  0
VERTEX
  5
345
  8
CUT
 10
233.34805029709523
 20
7.22836140246614
 30
0.0
 70
0
  0
VERTEX
  5
346
  8
CUT
 10
232.78527096604836
 20
7.057644158790309
 30
0.0
 70
0
  0
VERTEX
  5
347
  8
CUT
 10
232.19999999999996
 20
7.0
 30
0.0
 70
0
  0
VERTEX
  5
348
  8
CUT
 10
231.61472903395156
 20
7.057644158790309
 30
0.0
 70
0
  0
VERTEX
  5
349
  8
CUT
 10
231.0519497029047
 20
7.22836140246614
 30
0.0
 70
0
  0
VERTEX
  5
34A
  8
CUT
 10
230.53328930094116
 20
7.5055911630923635
 30
0.0
 70
0
  0
VERTEX
  5
34B
  8
CUT
 10
230.07867965644033
 20
7.878679656440358
 30
0.0
 70
0
  0
VERTEX
  5
34C
  8
CUT
 10
229.70559116309232
 20
8.333289300941193
 30
0.0
 70
0
  0
VERTEX
  5
34D
  8
CUT
 10
229.4283614024661
 20
8.85194970290473
 30
0.0
 70
0
  0
VERTEX
  5
34E
  8
CUT
 10
229.25764415879027
 20
9.414729033951614
 30
0.0
 70
0
  0
VERTEX
  5
34F
  8
CUT
 10
229.19999999999996
 20
10.0
 30
0.0
 70
0
  0
VERTEX
  5
350
  8
CUT
 10
229.25764415879027
 20
10.585270966048384
 30
0.0
 70
0
  0
VERTEX
  5
351
  8
CUT
 10
229.4283614024661
 20
11.148050297095269
 30
0.0
 70
0
  0
VERTEX
  5
352
  8
CUT
 10
229.70559116309232
 20
11.666710699058806
 30
0.0
 70
0
  0
VERTEX
  5
353
  8
CUT
 10
230.07867965644033
 20
12.121320343559642
 30
0.0
 70
0
  0
VERTEX
  5
354
  8
CUT
 10
230.53328930094116
 20
12.494408836907635
 30
0.0
 70
0
  0
VERTEX
  5
355
  8
CUT
 10
231.0519497029047
 20
12.77163859753386
 30
0.0
 70
0
  0
VERTEX
  5
356
  8
CUT
 10
231.61472903395156
 20
12.942355841209691
 30
0.0
 70
0
  0
VERTEX
  5
357
  8
CUT
 10
232.19999999999996
 20
13.0
 30
0.0
 70
0
  0
VERTEX
  5
358
  8
CUT
 10
232.78527096604836
 20
12.942355841209691
 30
0.0
 70
0
  0
VERTEX
  5
359
  8
CUT
 10
233.34805029709523
 20
12.77163859753386
 30
0.0
 70
0
  0
VERTEX
  5
35A
  8
CUT
 10
233.86671069905876
 20
12.494408836907636
 30
0.0
 70
0
  0
VERTEX
  5
35B
  8
CUT
 10
234.3213203435596
 20
12.121320343559642
 30
0.0
 70
0
  0
VERTEX
  5
35C
  8
CUT
 10
234.6944088369076
 20
11.666710699058807
 30
0.0
 70
0
  0
VERTEX
  5
35D
  8
CUT
 10
234.97163859753383
 20
11.14805029709527
 30
0.0
 70
0
  0
VERTEX
  5
35E
  8
CUT
 10
235.14235584120965
 20
10.585270966048386
 30
0.0
 70
0
  0
SEQEND
  5
33E
  8
CUT
  0
POLYLINE
  5
35F
  8
CUT
 66
1
 10
0.0
 20
0.0
 30
0.0
 70
1
  0
VERTEX
  5
361
  8
CUT
 10
262.4
 20
10.0
 30
0.0
 70
0
  0
VERTEX
  5
362
  8
CUT
 10
262.20785280403226
 20
11.95090322016128
 30
0.0
 70
0
  0
VERTEX
  5
363
  8
CUT
 10
261.6387953251128
 20
13.8268343236509
 30
0.0
 70
0
  0
VERTEX
  5
364
  8
CUT
 10
260.7146961230254
 20
15.55570233019602
 30
0.0
 70
0
  0
VERTEX
  5
365
  8
CUT
 10
259.47106781186545
 20
17.071067811865476
 30
0.0
 70
0
  0
VERTEX
  5
366
  8
CUT
 10
257.955702330196
 20
18.314696123025453
 30
0.0
 70
0
  0
VERTEX
  5
367
  8
CUT
 10
256.22683432365085
 20
19.238795325112868
 30
0.0
 70
0
  0
VERTEX
  5
368
  8
CUT
 10
254.35090322016126
 20
19.807852804032304
 30
0.0
 70
0
  0
VERTEX
  5
369
  8
CUT
 10
252.39999999999998
 20
20.0
 30
0.0
 70
0
  0
VERTEX
  5
36A
  8
CUT
 10
250.4490967798387
 20
19.807852804032304
 30
0.0
 70
0
  0
VERTEX
  5
36B
  8
CUT
 10
248.57316567634908
 20
19.238795325112868
 30
0.0
 70
0
  0
VERTEX
  5
36C
  8
CUT
 10
246.84429766980395
 20
18.314696123025453
 30
0.0
 70
0
  0
VERTEX
  5
36D
  8
CUT
 10
245.3289321881345
 20
17.071067811865476
 30
0.0
 70
0
  0
VERTEX
  5
36E
  8
CUT
 10
244.08530387697454
 20
15.55570233019602
 30
0.0
 70
0
  0
VERTEX
  5
36F
  8
CUT
 10
243.1612046748871
 20
13.8268343236509
 30
0.0
 70
0
  0
VERTEX
  5
370
  8
CUT
 10
242.59214719596767
 20
11.950903220161287
 30
0.0
 70
0
  0
VERTEX
  5
371
  8
CUT
 10
242.39999999999998
 20
10.0
 30
0.0
 70
0
  0
VERTEX
  5
372
  8
CUT
 10
242.59214719596767
 20
8.049096779838713
 30
0.0
 70
0
  0
VERTEX
  5
373
  8
CUT
 10
243.1612046748871
 20
6.1731656763491
 30
0.0
 70
0
  0
VERTEX
  5
374
  8
CUT
 10
244.08530387697454
 20
4.44429766980398
 30
0.0
 70
0
  0
VERTEX
  5
375
  8
CUT
 10
245.3289321881345
 20
2.9289321881345245
 30
0.0
 70
0
  0
VERTEX
  5
376
  8
CUT
 10
246.84429766980395
 20
1.6853038769745439
 30
0.0
 70
0
  0
VERTEX
  5
377
  8
CUT
 10
248.57316567634908
 20
0.7612046748871393
 30
0.0
 70
0
  0
VERTEX
  5
378
  8
CUT
 10
250.4490967798387
 20
0.19214719596769925
 30
0.0
 70
0
  0
VERTEX
  5
379
  8
CUT
 10
252.39999999999998
 20
0.0
 30
0.0
 70
0
  0
VERTEX
  5
37A
  8
CUT
 10
254.35090322016126
 20
0.19214719596769214
 30
0.0
 70
0
  0
VERTEX
  5
37B
  8
CUT
 10
256.2268343236509
 20
0.7612046748871322
 30
0.0
 70
0
  0
VERTEX
  5
37C
  8
CUT
 10
257.955702330196
 20
1.6853038769745439
 30
0.0
 70
0
  0
VERTEX
  5
37D
  8
CUT
 10
259.47106781186545
 20
2.9289321881345245
 30
0.0
 70
0
  0
VERTEX
  5
37E
  8
CUT
 10
260.7146961230254
 20
4.44429766980398
 30
0.0
 70
0
  0
VERTEX
  5
37F
  8
CUT
 10
261.6387953251128
 20
6.173165676349093
 30
0.0
 70
0
  0
VERTEX
  5
380
  8
CUT
 10
262.20785280403226
 20
8.049096779838713
 30
0.0
 70
0
  0
SEQEND
  5
360
  8
CUT
  0
POLYLINE
  5
381
  8
CUT
 66
1
 10
0.0
 20
0.0
 30
0.0
 70
1
  0
VERTEX
  5
383
  8
CUT
 10
255.39999999999998
 20
10.0
 30
0.0
 70
0
  0
VERTEX
  5
384
  8
CUT
 10
255.34235584120967
 20
9.414729033951616
 30
0.0
 70
0
  0
VERTEX
  5
385
  8
CUT
 10
255.17163859753384
 20
8.851949702904733
 30
0.0
 70
0
  0
VERTEX
  5
386
  8
CUT
 10
254.89440883690762
 20
8.333289300941196
 30
0.0
 70
0
  0
VERTEX
  5
387
  8
CUT
 10
254.5213203435596
 20
7.8786796564403545
 30
0.0
 70
0
  0
VERTEX
  5
388
  8
CUT
 10
254.06671069905877
 20
7.505591163092362
 30
0.0
 70
0
  0
VERTEX
  5
389
  8
CUT
 10
253.54805029709524
 20
7.228361402466142
 30
0.0
 70
0
  0
VERTEX
  5
38A
  8
CUT
 10
252.98527096604838
 20
7.0576441587903105
 30
0.0
 70
0
  0
VERTEX
  5
38B
  8
CUT
 10
252.39999999999998
 20
7.0
 30
0.0
 70
0
  0
VERTEX
  5
38C
  8
CUT
 10
251.8147290339516
 20
7.0576441587903105
 30
0.0
 70
0
  0
VERTEX
  5
38D
  8
CUT
 10
251.2519497029047
 20
7.228361402466142
 30
0.0
 70
0
  0
VERTEX
  5
38E
  8
CUT
 10
250.73328930094118
 20
7.505591163092362
 30
0.0
 70
0
  0
VERTEX
  5
38F
  8
CUT
 10
250.27867965644035
 20
7.8786796564403545
 30
0.0
 70
0
  0
VERTEX
  5
390
  8
CUT
 10
249.90559116309234
 20
8.333289300941196
 30
0.0
 70
0
  0
VERTEX
  5
391
  8
CUT
 10
249.6283614024661
 20
8.851949702904733
 30
0.0
 70
0
  0
VERTEX
  5
392
  8
CUT
 10
249.4576441587903
 20
9.414729033951616
 30
0.0
 70
0
  0
VERTEX
  5
393
  8
CUT
 10
249.39999999999998
 20
10.0
 30
0.0
 70
0
  0
VERTEX
  5
394
  8
CUT
 10
249.4576441587903
 20
10.585270966048384
 30
0.0
 70
0
  0
VERTEX
  5
395
  8
CUT
 10
249.6283614024661
 20
11.148050297095267
 30
0.0
 70
0
  0
VERTEX
  5
396
  8
CUT
 10
249.90559116309234
 20
11.666710699058804
 30
0.0
 70
0
  0
VERTEX
  5
397
  8
CUT
 10
250.27867965644035
 20
12.121320343559645
 30
0.0
 70
0
  0
VERTEX
  5
398
  8
CUT
 10
250.73328930094118
 20
12.494408836907638
 30
0.0
 70
0
  0
VERTEX
  5
399
  8
CUT
 10
251.2519497029047
 20
12.771638597533858
 30
0.0
 70
0
  0
VERTEX
  5
39A
  8
CUT
 10
251.81472903395158
 20
12.94235584120969
 30
0.0
 70
0
  0
VERTEX
  5
39B
  8
CUT
 10
252.39999999999998
 20
13.0
 30
0.0
 70
0
  0
VERTEX
  5
39C
  8
CUT
 10
252.98527096604838
 20
12.94235584120969
 30
0.0
 70
0
  0
VERTEX
  5
39D
  8
CUT
 10
253.54805029709524
 20
12.771638597533858
 30
0.0
 70
0
  0
VERTEX
  5
39E
  8
CUT
 10
254.06671069905877
 20
12.494408836907638
 30
0.0
 70
0
  0
VERTEX
  5
39F
  8
CUT
 10
254.5213203435596
 20
12.121320343559645
 30
0.0
 70
0
  0
VERTEX
  5
3A0
  8
CUT
 10
254.89440883690762
 20
11.666710699058804
 30
0.0
 70
0
  0
VERTEX
  5
3A1
  8
CUT
 10
255.17163859753384
 20
11.148050297095274
 30
0.0
 70
0
  0
VERTEX
  5
3A2
  8
CUT
 10
255.34235584120967
 20
10.585270966048384
 30
0.0
 70
0
  0
SEQEND
  5
382
  8
CUT
  0
POLYLINE
  5
3A3
  8
CUT
 66
1
 10
0.0
 20
0.0
 30
0.0
 70
1
  0
VERTEX
  5
3A5
  8
CUT
 10
282.59999999999997
 20
10.0
 30
0.0
 70
0
  0
VERTEX
  5
3A6
  8
CUT
 10
282.40785280403225
 20
11.95090322016128
 30
0.0
 70
0
  0
VERTEX
  5
3A7
  8
CUT
 10
281.8387953251128
 20
13.8268343236509
 30
0.0
 70
0
  0
VERTEX
  5
3A8
  8
CUT
 10
280.9146961230254
 20
15.55570233019602
 30
0.0
 70
0
  0
VERTEX
  5
3A9
  8
CUT
 10
279.67106781186544
 20
17.071067811865476
 30
0.0
 70
0
  0
VERTEX
  5
3AA
  8
CUT
 10
278.155702330196
 20
18.314696123025456
 30
0.0
 70
0
  0
VERTEX
  5
3AB
  8
CUT
 10
276.42683432365084
 20
19.238795325112868
 30
0.0
 70
0
  0
VERTEX
  5
3AC
  8
CUT
 10
274.5509032201613
 20
19.807852804032308
 30
0.0
 70
0
  0
VERTEX
  5
3AD
  8
CUT
 10
272.59999999999997
 20
20.0
 30
0.0
 70
0
  0
VERTEX
  5
3AE
  8
CUT
 10
270.64909677983866
 20
19.807852804032308
 30
0.0
 70
0
  0
VERTEX
  5
3AF
  8
CUT
 10
268.7731656763491
 20
19.238795325112868
 30
0.0
 70
0
  0
VERTEX
  5
3B0
  8
CUT
 10
267.04429766980394
 20
18.314696123025456
 30
0.0
 70
0
  0
VERTEX
  5
3B1
  8
CUT
 10
265.5289321881345
 20
17.071067811865476
 30
0.0
 70
0
  0
VERTEX
  5
3B2
  8
CUT
 10
264.2853038769745
 20
15.55570233019602
 30
0.0
 70
0
  0
VERTEX
  5
3B3
  8
CUT
 10
263.3612046748871
 20
13.8268343236509
 30
0.0
 70
0
  0
VERTEX
  5
3B4
  8
CUT
 10
262.7921471959677
 20
11.950903220161287
 30
0.0
 70
0
  0
VERTEX
  5
3B5
  8
CUT
 10
262.59999999999997
 20
10.0
 30
0.0
 70
0
  0
VERTEX
  5
3B6
  8
CUT
 10
262.7921471959677
 20
8.049096779838713
 30
0.0
 70
0
  0
VERTEX
  5
3B7
  8
CUT
 10
263.3612046748871
 20
6.1731656763491
 30
0.0
 70
0
  0
VERTEX
  5
3B8
  8
CUT
 10
264.2853038769745
 20
4.44429766980398
 30
0.0
 70
0
  0
VERTEX
  5
3B9
  8
CUT
 10
265.5289321881345
 20
2.9289321881345245
 30
0.0
 70
0
  0
VERTEX
  5
3BA
  8
CUT
 10
267.04429766980394
 20
1.6853038769745474
 30
0.0
 70
0
  0
VERTEX
  5
3BB
  8
CUT
 10
268.77316567634904
 20
0.7612046748871357
 30
0.0
 70
0
  0
VERTEX
  5
3BC
  8
CUT
 10
270.64909677983866
 20
0.19214719596769925
 30
0.0
 70
0
  0
VERTEX
  5
3BD
  8
CUT
 10
272.59999999999997
 20
0.0
 30
0.0
 70
0
  0
VERTEX
  5
3BE
  8
CUT
 10
274.5509032201613
 20
0.1921471959676957
 30
0.0
 70
0
  0
VERTEX
  5
3BF
  8
CUT
 10
276.42683432365084
 20
0.7612046748871322
 30
0.0
 70
0
  0
VERTEX
  5
3C0
  8
CUT
 10
278.155702330196
 20
1.6853038769745439
 30
0.0
 70
0
  0
VERTEX
  5
3C1
  8
CUT
 10
279.67106781186544
 20
2.9289321881345245
 30
0.0
 70
0
  0
VERTEX
  5
3C2
  8
CUT
 10
280.9146961230254
 20
4.44429766980398
 30
0.0
 70
0
  0
VERTEX
  5
3C3
  8
CUT
 10
281.8387953251128
 20
6.173165676349093
 30
0.0
 70
0
  0
VERTEX
  5
3C4
  8
CUT
 10
282.40785280403225
 20
8.049096779838713
 30
0.0
 70
0
  0
SEQEND
  5
3A4
  8
CUT
  0
POLYLINE
  5
3C5
  8
CUT
 66
1
 10
0.0
 20
0.0
 30
0.0
 70
1
  0
VERTEX
  5
3C7
  8
CUT
 10
275.59999999999997
 20
10.0
 30
0.0
 70
0
  0
VERTEX
  5
3C8
  8
CUT
 10
275.54235584120966
 20
9.414729033951616
 30
0.0
 70
0
  0
VERTEX
  5
3C9
  8
CUT
 10
275.37163859753383
 20
8.851949702904733
 30
0.0
 70
0
  0
VERTEX
  5
3CA
  8
CUT
 10
275.0944088369076
 20
8.333289300941196
 30
0.0
 70
0
  0
VERTEX
  5
3CB
  8
CUT
 10
274.7213203435596
 20
7.8786796564403545
 30
0.0
 70
0
  0
VERTEX
  5
3CC
  8
CUT
 10
274.26671069905876
 20
7.505591163092362
 30
0.0
 70
0
  0
VERTEX
  5
3CD
  8
CUT
 10
273.74805029709523
 20
7.228361402466142
 30
0.0
 70
0
  0
VERTEX
  5
3CE
  8
CUT
 10
273.18527096604834
 20
7.0576441587903105
 30
0.0
 70
0
  0
VERTEX
  5
3CF
  8
CUT
 10
272.59999999999997
 20
7.0
 30
0.0
 70
0
  0
VERTEX
  5
3D0
  8
CUT
 10
272.0147290339516
 20
7.0576441587903105
 30
0.0
 70
0
  0
VERTEX
  5
3D1
  8
CUT
 10
271.4519497029047
 20
7.228361402466142
 30
0.0
 70
0
  0
VERTEX
  5
3D2
  8
CUT
 10
270.93328930094117
 20
7.505591163092362
 30
0.0
 70
0
  0
VERTEX
  5
3D3
  8
CUT
 10
270.4786796564403
 20
7.8786796564403545
 30
0.0
 70
0
  0
VERTEX
  5
3D4
  8
CUT
 10
270.10559116309236
 20
8.333289300941196
 30
0.0
 70
0
  0
VERTEX
  5
3D5
  8
CUT
 10
269.8283614024661
 20
8.851949702904733
 30
0.0
 70
0
  0
VERTEX
  5
3D6
  8
CUT
 10
269.6576441587903
 20
9.414729033951616
 30
0.0
 70
0
  0
VERTEX
  5
3D7
  8
CUT
 10
269.59999999999997
 20
10.0
 30
0.0
 70
0
  0
VERTEX
  5
3D8
  8
CUT
 10
269.6576441587903
 20
10.585270966048384
 30
0.0
 70
0
  0
VERTEX
  5
3D9
  8
CUT
 10
269.8283614024661
 20
11.148050297095267
 30
0.0
 70
0
  0
VERTEX
  5
3DA
  8
CUT
 10
270.10559116309236
 20
11.666710699058804
 30
0.0
 70
0
  0
VERTEX
  5
3DB
  8
CUT
 10
270.4786796564403
 20
12.121320343559645
 30
0.0
 70
0
  0
VERTEX
  5
3DC
  8
CUT
 10
270.93328930094117
 20
12.494408836907638
 30
0.0
 70
0
  0
VERTEX
  5
3DD
  8
CUT
 10
271.4519497029047
 20
12.771638597533858
 30
0.0
 70
0
  0
VERTEX
  5
3DE
  8
CUT
 10
272.0147290339516
 20
12.94235584120969
 30
0.0
 70
0
  0
VERTEX
  5
3DF
  8
CUT
 10
272.59999999999997
 20
13.0
 30
0.0
 70
0
  0
VERTEX
  5
3E0
  8
CUT
 10
273.18527096604834
 20
12.94235584120969
 30
0.0
 70
0
  0
VERTEX
  5
3E1
  8
CUT
 10
273.74805029709523
 20
12.771638597533858
 30
0.0
 70
0
  0
VERTEX
  5
3E2
  8
CUT
 10
274.26671069905876
 20
12.494408836907638
 30
0.0
 70
0
  0
VERTEX
  5
3E3
  8
CUT
 10
274.7213203435596
 20
12.121320343559645
 30
0.0
 70
0
  0
VERTEX
  5
3E4
  8
CUT
 10
275.0944088369076
 20
11.666710699058804
 30
0.0
 70
0
  0
VERTEX
  5
3E5
  8
CUT
 10
275.37163859753383
 20
11.148050297095274
 30
0.0
 70
0
  0
VERTEX
  5
3E6
  8
CUT
 10
275.54235584120966
 20
10.585270966048384
 30
0.0
 70
0
  0
SEQEND
  5
3C6
  8
CUT
  0
POLYLINE
  5
3E7
  8
CUT
 66
1
 10
0.0
 20
0.0
 30
0.0
 70
1
  0
VERTEX
  5
3E9
  8
CUT
 10
302.79999999999995
 20
10.0
 30
0.0
 70
0
  0
VERTEX
  5
3EA
  8
CUT
 10
302.60785280403223
 20
11.950903220161283
 30
0.0
 70
0
  0
VERTEX
  5
3EB
  8
CUT
 10
302.0387953251128
 20
13.826834323650898
 30
0.0
 70
0
  0
VERTEX
  5
3EC
  8
CUT
 10
301.1146961230254
 20
15.555702330196022
 30
0.0
 70
0
  0
VERTEX
  5
3ED
  8
CUT
 10
299.87106781186543
 20
17.071067811865476
 30
0.0
 70
0
  0
VERTEX
  5
3EE
  8
CUT
 10
298.355702330196
 20
18.314696123025453
 30
0.0
 70
0
  0
VERTEX
  5
3EF
  8
CUT
 10
296.6268343236509
 20
19.238795325112868
 30
0.0
 70
0
  0
VERTEX
  5
3F0
  8
CUT
 10
294.75090322016126
 20
19.807852804032304
 30
0.0
 70
0
  0
VERTEX
  5
3F1
  8
CUT
 10
292.79999999999995
 20
20.0
 30
0.0
 70
0
  0
VERTEX
  5
3F2
  8
CUT
 10
290.84909677983865
 20
19.807852804032304
 30
0.0
 70
0
  0
VERTEX
  5
3F3
  8
CUT
 10
288.9731656763491
 20
19.238795325112868
 30
0.0
 70
0
  0
VERTEX
  5
3F4
  8
CUT
 10
287.2442976698039
 20
18.314696123025453
 30
0.0
 70
0
  0
VERTEX
  5
3F5
  8
CUT
 10
285.7289321881345
 20
17.071067811865476
 30
0.0
 70
0
  0
VERTEX
  5
3F6
  8
CUT
 10
284.4853038769745
 20
15.555702330196022
 30
0.0
 70
0
  0
VERTEX
  5
3F7
  8
CUT
 10
283.5612046748871
 20
13.8268343236509
 30
0.0
 70
0
  0
VERTEX
  5
3F8
  8
CUT
 10
282.9921471959677
 20
11.950903220161287
 30
0.0
 70
0
  0
VERTEX
  5
3F9
  8
CUT
 10
282.79999999999995
 20
10.0
 30
0.0
 70
0
  0
VERTEX
  5
3FA
  8
CUT
 10
282.9921471959677
 20
8.049096779838717
 30
0.0
 70
0
  0
VERTEX
  5
3FB
  8
CUT
 10
283.5612046748871
 20
6.173165676349104
 30
0.0
 70
0
  0
VERTEX
  5
3FC
  8
CUT
 10
284.4853038769745
 20
4.44429766980398
 30
0.0
 70
0
  0
VERTEX
  5
3FD
  8
CUT
 10
285.7289321881345
 20
2.9289321881345245
 30
0.0
 70
0
  0
VERTEX
  5
3FE
  8
CUT
 10
287.2442976698039
 20
1.6853038769745474
 30
0.0
 70
0
  0
VERTEX
  5
3FF
  8
CUT
 10
288.973165676349
 20
0.7612046748871357
 30
0.0
 70
0
  0
VERTEX
  5
400
  8
CUT
 10
290.84909677983865
 20
0.19214719596769925
 30
0.0
 70
0
  0
VERTEX
  5
401
  8
CUT
 10
292.79999999999995
 20
0.0
 30
0.0
 70
0
  0
VERTEX
  5
402
  8
CUT
 10
294.75090322016126
 20
0.1921471959676957
 30
0.0
 70
0
  0
VERTEX
  5
403
  8
CUT
 10
296.6268343236509
 20
0.7612046748871322
 30
0.0
 70
0
  0
VERTEX
  5
404
  8
CUT
 10
298.355702330196
 20
1.6853038769745439
 30
0.0
 70
0
  0
VERTEX
  5
405
  8
CUT
 10
299.87106781186543
 20
2.9289321881345227
 30
0.0
 70
0
  0
VERTEX
  5
406
  8
CUT
 10
301.1146961230254
 20
4.444297669803978
 30
0.0
 70
0
  0
VERTEX
  5
407
  8
CUT
 10
302.0387953251128
 20
6.173165676349097
 30
0.0
 70
0
  0
VERTEX
  5
408
  8
CUT
 10
302.60785280403223
 20
8.049096779838713
 30
0.0
 70
0
  0
SEQEND
  5
3E8
  8
CUT
  0
POLYLINE
  5
409
  8
CUT
 66
1
 10
0.0
 20
0.0
 30
0.0
 70
1
  0
VERTEX
  5
40B
  8
CUT
 10
295.79999999999995
 20
10.0
 30
0.0
 70
0
  0
VERTEX
  5
40C
  8
CUT
 10
295.74235584120964
 20
9.414729033951616
 30
0.0
 70
0
  0
VERTEX
  5
40D
  8
CUT
 10
295.5716385975338
 20
8.851949702904731
 30
0.0
 70
0
  0
VERTEX
  5
40E
  8
CUT
 10
295.29440883690756
 20
8.333289300941193
 30
0.0
 70
0
  0
VERTEX
  5
40F
  8
CUT
 10
294.9213203435596
 20
7.878679656440358
 30
0.0
 70
0
  0
VERTEX
  5
410
  8
CUT
 10
294.46671069905875
 20
7.505591163092365
 30
0.0
 70
0
  0
VERTEX
  5
411
  8
CUT
 10
293.9480502970952
 20
7.22836140246614
 30
0.0
 70
0
  0
VERTEX
  5
412
  8
CUT
 10
293.3852709660483
 20
7.057644158790309
 30
0.0
 70
0
  0
VERTEX
  5
413
  8
CUT
 10
292.79999999999995
 20
7.0
 30
0.0
 70
0
  0
VERTEX
  5
414
  8
CUT
 10
292.2147290339516
 20
7.057644158790309
 30
0.0
 70
0
  0
VERTEX
  5
415
  8
CUT
 10
291.6519497029047
 20
7.22836140246614
 30
0.0
 70
0
  0
VERTEX
  5
416
  8
CUT
 10
291.13328930094116
 20
7.5055911630923635
 30
0.0
 70
0
  0
VERTEX
  5
417
  8
CUT
 10
290.6786796564403
 20
7.878679656440358
 30
0.0
 70
0
  0
VERTEX
  5
418
  8
CUT
 10
290.30559116309234
 20
8.333289300941193
 30
0.0
 70
0
  0
VERTEX
  5
419
  8
CUT
 10
290.0283614024661
 20
8.85194970290473
 30
0.0
 70
0
  0
VERTEX
  5
41A
  8
CUT
 10
289.85764415879027
 20
9.414729033951614
 30
0.0
 70
0
  0
VERTEX
  5
41B
  8
CUT
 10
289.79999999999995
 20
10.0
 30
0.0
 70
0
  0
VERTEX
  5
41C
  8
CUT
 10
289.85764415879027
 20
10.585270966048384
 30
0.0
 70
0
  0
VERTEX
  5
41D
  8
CUT
 10
290.0283614024661
 20
11.148050297095269
 30
0.0
 70
0
  0
VERTEX
  5
41E
  8
CUT
 10
290.30559116309234
 20
11.666710699058806
 30
0.0
 70
0
  0
VERTEX
  5
41F
  8
CUT
 10
290.6786796564403
 20
12.121320343559642
 30
0.0
 70
0
  0
VERTEX
  5
420
  8
CUT
 10
291.13328930094116
 20
12.494408836907635
 30
0.0
 70
0
  0
VERTEX
  5
421
  8
CUT
 10
291.6519497029047
 20
12.77163859753386
 30
0.0
 70
0
  0
VERTEX
  5
422
  8
CUT
 10
292.2147290339516
 20
12.942355841209691
 30
0.0
 70
0
  0
VERTEX
  5
423
  8
CUT
 10
292.79999999999995
 20
13.0
 30
0.0
 70
0
  0
VERTEX
  5
424
  8
CUT
 10
293.3852709660483
 20
12.942355841209691
 30
0.0
 70
0
  0
VERTEX
  5
425
  8
CUT
 10
293.9480502970952
 20
12.77163859753386
 30
0.0
 70
0
  0
VERTEX
  5
426
  8
CUT
 10
294.46671069905875
 20
12.494408836907636
 30
0.0
 70
0
  0
VERTEX
  5
427
  8
CUT
 10
294.9213203435596
 20
12.121320343559642
 30
0.0
 70
0
  0
VERTEX
  5
428
  8
CUT
 10
295.29440883690756
 20
11.666710699058807
 30
0.0
 70
0
  0
VERTEX
  5
429
  8
CUT
 10
295.5716385975338
 20
11.14805029709527
 30
0.0
 70
0
  0
VERTEX
  5
42A
  8
CUT
 10
295.74235584120964
 20
10.585270966048386
 30
0.0
 70
0
  0
SEQEND
  5
40A
  8
CUT
  0
ENDSEC
  0
EOF
