  0
SECTION
  2
HEADER
  9
$ACADVER
  1
AC1009
  9
$DWGCODEPAGE
  3
ANSI_1252
  9
$INSBASE
 10
0.0
 20
0.0
 30
0.0
  9
$EXTMIN
 10
1e+20
 20
1e+20
 30
1e+20
  9
$EXTMAX
 10
-1e+20
 20
-1e+20
 30
-1e+20
  9
$LIMMIN
 10
0.0
 20
0.0
  9
$LIMMAX
 10
420.0
 20
297.0
  9
$ORTHOMODE
 70
0
  9
$REGENMODE
 70
1
  9
$FILLMODE
 70
1
  9
$DRAGMODE
 70
2
  9
$QTEXTMODE
 70
0
  9
$MIRRTEXT
 70
1
  9
$OSMODE
 70
20583
  9
$LTSCALE
 40
1.0
  9
$ATTMODE
 70
1
  9
$TEXTSIZE
 40
2.5
  9
$TRACEWID
 40
1.0
  9
$TEXTSTYLE
  7
Standard
  9
$CLAYER
  8
0
  9
$CELTYPE
  6
ByLayer
  9
$CECOLOR
 62
256
  9
$DIMSCALE
 40
1.0
  9
$DIMASZ
 40
2.5
  9
$DIMEXO
 40
0.625
  9
$DIMDLI
 40
3.75
  9
$DIMRND
 40
0.0
  9
$DIMDLE
 40
0.0
  9
$DIMEXE
 40
1.25
  9
$DIMTP
 40
0.0
  9
$DIMTM
 40
0.0
  9
$DIMTXT
 40
2.5
  9
$DIMCEN
 40
2.5
  9
$DIMTSZ
 40
0.0
  9
$DIMTOL
 70
0
  9
$DIMLIM
 70
0
  9
$DIMTIH
 70
0
  9
$DIMTOH
 70
0
  9
$DIMSE1
 70
0
  9
$DIMSE2
 70
0
  9
$DIMTAD
 70
1
  9
$DIMZIN
 70
8
  9
$DIMBLK
  1

  9
$DIMASO
 70
1
  9
$DIMSHO
 70
1
  9
$DIMPOST
  1

  9
$DIMAPOST
  1

  9
$DIMALT
 70
0
  9
$DIMALTD
 70
3
  9
$DIMALTF
 40
0.03937007874
  9
$DIMLFAC
 40
1.0
  9
$DIMTOFL
 70
1
  9
$DIMTVP
 40
0.0
  9
$DIMTIX
 70
0
  9
$DIMSOXD
 70
0
  9
$DIMSAH
 70
0
  9
$DIMBLK1
  1

  9
$DIMBLK2
  1

  9
$DIMSTYLE
  2
ISO-25
  9
$DIMCLRD
 70
0
  9
$DIMCLRE
 70
0
  9
$DIMCLRT
 70
0
  9
$DIMTFAC
 40
1.0
  9
$DIMGAP
 40
0.625
  9
$COORDS
 70
1
  9
$ATTDIA
 70
0
  9
$ATTREQ
 70
1
  9
$HANDLING
 70
1
  9
$LUNITS
 70
2
  9
$LUPREC
 70
4
  9
$SKETCHINC
 40
1.0
  9
$FILLETRAD
 40
10.0
  9
$AUNITS
 70
0
  9
$AUPREC
 70
2
  9
$MENU
  1
.
  9
$ELEVATION
 40
0.0
  9
$PELEVATION
 40
0.0
  9
$THICKNESS
 40
0.0
  9
$LIMCHECK
 70
0
  9
$CHAMFERA
 40
0.0
  9
$CHAMFERB
 40
0.0
  9
$SKPOLY
 70
0
  9
$TDCREATE
 40
2461262.742164352
  9
$TDUPDATE
 40
2461262.742164352
  9
$TDINDWG
 40
0.0
  9
$TDUSRTIMER
 40
0.0
  9
$USRTIMER
 70
1
  9
$ANGBASE
 50
0.0
  9
$ANGDIR
 70
0
  9
$PDMODE
 70
0
  9
$PDSIZE
 40
0.0
  9
$PLINEWID
 40
0.0
  9
$SPLFRAME
 70
0
  9
$SPLINETYPE
 70
6
  9
$SPLINESEGS
 70
8
  9
$HANDSEED
  5
353
  9
$SURFTAB1
 70
6
  9
$SURFTAB2
 70
6
  9
$SURFTYPE
 70
6
  9
$SURFU
 70
6
  9
$SURFV
 70
6
  9
$UCSNAME
  2

  9
$UCSORG
 10
0.0
 20
0.0
 30
0.0
  9
$UCSXDIR
 10
1.0
 20
0.0
 30
0.0
  9
$UCSYDIR
 10
0.0
 20
1.0
 30
0.0
  9
$PUCSNAME
  2

  9
$PUCSORG
 10
0.0
 20
0.0
 30
0.0
  9
$PUCSXDIR
 10
1.0
 20
0.0
 30
0.0
  9
$PUCSYDIR
 10
0.0
 20
1.0
 30
0.0
  9
$USERI1
 70
0
  9
$USERI2
 70
0
  9
$USERI3
 70
0
  9
$USERI4
 70
0
  9
$USERI5
 70
0
  9
$USERR1
 40
0.0
  9
$USERR2
 40
0.0
  9
$USERR3
 40
0.0
  9
$USERR4
 40
0.0
  9
$USERR5
 40
0.0
  9
$WORLDVIEW
 70
1
  9
$SHADEDGE
 70
3
  9
$SHADEDIF
 70
70
  9
$TILEMODE
 70
1
  9
$MAXACTVP
 70
64
  9
$PLIMCHECK
 70
0
  9
$PEXTMIN
 10
1e+20
 20
1e+20
 30
1e+20
  9
$PEXTMAX
 10
-1e+20
 20
-1e+20
 30
-1e+20
  9
$PLIMMIN
 10
0.0
 20
0.0
  9
$PLIMMAX
 10
420.0
 20
297.0
  9
$UNITMODE
 70
0
  9
$VISRETAIN
 70
1
  9
$PLINEGEN
 70
0
  9
$PSLTSCALE
 70
1
  0
ENDSEC
  0
SECTION
  2
TABLES
  0
TABLE
  2
VPORT
 70
1
  0
VPORT
  5
23
  2
*Active
 70
0
 10
0.0
 20
0.0
 11
1.0
 21
1.0
 12
0.0
 22
0.0
 13
0.0
 23
0.0
 14
0.5
 24
0.5
 15
0.5
 25
0.5
 16
0.0
 26
0.0
 36
1.0
 17
0.0
 27
0.0
 37
0.0
 40
1000.0
 41
1.34
 42
50.0
 43
0.0
 44
0.0
 50
0.0
 51
0.0
 71
0
 72
1000
 73
1
 74
3
 75
0
 76
0
 77
0
 78
0
  0
ENDTAB
  0
TABLE
  2
LTYPE
 70
3
  0
LTYPE
  5
24
  2
ByBlock
 70
0
  3

 72
65
 73
0
 40
0.0
  0
LTYPE
  5
25
  2
ByLayer
 70
0
  3

 72
65
 73
0
 40
0.0
  0
LTYPE
  5
26
  2
Continuous
 70
0
  3

 72
65
 73
0
 40
0.0
  0
ENDTAB
  0
TABLE
  2
LAYER
 70
4
  0
LAYER
  5
27
  2
0
 70
0
 62
7
  6
Continuous
  0
LAYER
  5
28
  2
Defpoints
 70
0
 62
7
  6
Continuous
  0
LAYER
  5
2D
  2
CUT
 70
0
 62
1
  6
Continuous
  0
LAYER
  5
2E
  2
ENGRAVE
 70
0
 62
5
  6
Continuous
  0
ENDTAB
  0
TABLE
  2
STYLE
 70
1
  0
STYLE
  5
29
  2
Standard
 70
0
 40
0.0
 41
1.0
 50
0.0
 71
0
 42
2.5
  3
txt
  4

  0
ENDTAB
  0
TABLE
  2
VIEW
 70
0
  0
ENDTAB
  0
TABLE
  2
UCS
 70
0
  0
ENDTAB
  0
TABLE
  2
APPID
 70
3
  0
APPID
  5
2A
  2
ACAD
 70
0
  0
APPID
  5
351
  2
HATCHBACKGROUNDCOLOR
 70
0
  0
APPID
  5
352
  2
EZDXF
 70
0
  0
ENDTAB
  0
TABLE
  2
DIMSTYLE
 70
1
  0
DIMSTYLE
105
2B
  2
Standard
 70
0
  3

  4

  5

  6

  7

 40
1.0
 41
2.5
 42
0.625
 43
3.75
 44
1.25
 45
0.0
 46
0.0
 47
0.0
 48
0.0
140
2.5
141
2.5
142
0.0
143
0.03937007874
144
1.0
145
0.0
146
1.0
147
0.625
 71
0
 72
0
 73
0
 74
0
 75
0
 76
0
 77
1
 78
8
170
0
171
3
172
1
173
0
174
0
175
0
176
0
177
0
178
0
  0
ENDTAB
  0
ENDSEC
  0
SECTION
  2
BLOCKS
  0
BLOCK
  5
18
  8
0
  2
$Model_Space
 70
0
 10
0.0
 20
0.0
 30
0.0
  3
$Model_Space
  1

1001
EZDXF
1000
CREATED_BY_EZDXF
1000
1.4.4 @ 2026-08-09T15:48:43.656171+00:00
1000
WRITTEN_BY_EZDXF
1000
1.4.4 @ 2026-08-09T15:48:43.685435+00:00
  0
ENDBLK
  5
19
  8
0
  0
BLOCK
  5
1C
  8
0
  2
$Paper_Space
 70
0
 10
0.0
 20
0.0
 30
0.0
  3
$Paper_Space
  1

  0
ENDBLK
  5
1D
  8
0
  0
ENDSEC
  0
SECTION
  2
ENTITIES
  0
POLYLINE
  5
2F
  8
CUT
 66
1
 10
0.0
 20
0.0
 30
0.0
 70
1
  0
VERTEX
  5
31
  8
CUT
 10
6.0
 20
56.25000000000001
 30
0.0
 70
0
  0
VERTEX
  5
32
  8
CUT
 10
6.0
 20
37.50000000000001
 30
0.0
 70
0
  0
VERTEX
  5
33
  8
CUT
 10
0.0
 20
37.50000000000001
 30
0.0
 70
0
  0
VERTEX
  5
34
  8
CUT
 10
0.0
 20
22.500000000000007
 30
0.0
 70
0
  0
VERTEX
  5
35
  8
CUT
 10
6.0
 20
22.500000000000007
 30
0.0
 70
0
  0
VERTEX
  5
36
  8
CUT
 10
6.0
 20
7.105427357601002e-15
 30
0.0
 70
0
  0
VERTEX
  5
37
  8
CUT
 10
12.250000000000014
 20
7.105427357601002e-15
 30
0.0
 70
0
  0
VERTEX
  5
38
  8
CUT
 10
106.0
 20
0.0
 30
0.0
 70
0
  0
VERTEX
  5
39
  8
CUT
 10
106.0
 20
3.75
 30
0.0
 70
0
  0
VERTEX
  5
3A
  8
CUT
 10
106.0
 20
60.0
 30
0.0
 70
0
  0
VERTEX
  5
3B
  8
CUT
 10
99.75
 20
60.0
 30
0.0
 70
0
  0
VERTEX
  5
3C
  8
CUT
 10
6.0
 20
60.00000000000001
 30
0.0
 70
0
  0
SEQEND
  5
30
  8
CUT
  0
POLYLINE
  5
3D
  8
CUT
 66
1
 10
0.0
 20
0.0
 30
0.0
 70
1
  0
VERTEX
  5
3F
  8
CUT
 10
91.41472903395162
 20
16.942355841209693
 30
0.0
 70
0
  0
VERTEX
  5
40
  8
CUT
 10
92.0
 20
17.0
 30
0.0
 70
0
  0
VERTEX
  5
41
  8
CUT
 10
92.58527096604838
 20
16.942355841209693
 30
0.0
 70
0
  0
VERTEX
  5
42
  8
CUT
 10
93.14805029709527
 20
16.77163859753386
 30
0.0
 70
0
  0
VERTEX
  5
43
  8
CUT
 10
93.6667106990588
 20
16.49440883690764
 30
0.0
 70
0
  0
VERTEX
  5
44
  8
CUT
 10
94.12132034355965
 20
16.121320343559645
 30
0.0
 70
0
  0
VERTEX
  5
45
  8
CUT
 10
94.49440883690764
 20
15.66671069905881
 30
0.0
 70
0
  0
VERTEX
  5
46
  8
CUT
 10
94.77163859753387
 20
15.14805029709527
 30
0.0
 70
0
  0
VERTEX
  5
47
  8
CUT
 10
94.94235584120969
 20
14.585270966048387
 30
0.0
 70
0
  0
VERTEX
  5
48
  8
CUT
 10
95.0
 20
14.000000000000002
 30
0.0
 70
0
  0
VERTEX
  5
49
  8
CUT
 10
94.94235584120969
 20
13.414729033951616
 30
0.0
 70
0
  0
VERTEX
  5
4A
  8
CUT
 10
94.77163859753387
 20
12.85194970290473
 30
0.0
 70
0
  0
VERTEX
  5
4B
  8
CUT
 10
94.49440883690764
 20
12.333289300941193
 30
0.0
 70
0
  0
VERTEX
  5
4C
  8
CUT
 10
94.12132034355965
 20
11.878679656440358
 30
0.0
 70
0
  0
VERTEX
  5
4D
  8
CUT
 10
93.6667106990588
 20
11.505591163092365
 30
0.0
 70
0
  0
VERTEX
  5
4E
  8
CUT
 10
93.14805029709527
 20
11.228361402466142
 30
0.0
 70
0
  0
VERTEX
  5
4F
  8
CUT
 10
92.58527096604838
 20
11.05764415879031
 30
0.0
 70
0
  0
VERTEX
  5
50
  8
CUT
 10
92.0
 20
11.0
 30
0.0
 70
0
  0
VERTEX
  5
51
  8
CUT
 10
91.41472903395162
 20
11.05764415879031
 30
0.0
 70
0
  0
VERTEX
  5
52
  8
CUT
 10
90.85194970290473
 20
11.228361402466138
 30
0.0
 70
0
  0
VERTEX
  5
53
  8
CUT
 10
90.3332893009412
 20
11.505591163092362
 30
0.0
 70
0
  0
VERTEX
  5
54
  8
CUT
 10
89.87867965644035
 20
11.878679656440358
 30
0.0
 70
0
  0
VERTEX
  5
55
  8
CUT
 10
89.50559116309236
 20
12.333289300941193
 30
0.0
 70
0
  0
VERTEX
  5
56
  8
CUT
 10
89.22836140246613
 20
12.85194970290473
 30
0.0
 70
0
  0
VERTEX
  5
57
  8
CUT
 10
89.05764415879031
 20
13.414729033951613
 30
0.0
 70
0
  0
VERTEX
  5
58
  8
CUT
 10
89.0
 20
14.000000000000002
 30
0.0
 70
0
  0
VERTEX
  5
59
  8
CUT
 10
89.05764415879031
 20
14.585270966048387
 30
0.0
 70
0
  0
VERTEX
  5
5A
  8
CUT
 10
89.22836140246613
 20
15.148050297095272
 30
0.0
 70
0
  0
VERTEX
  5
5B
  8
CUT
 10
89.50559116309236
 20
15.666710699058807
 30
0.0
 70
0
  0
VERTEX
  5
5C
  8
CUT
 10
89.87867965644035
 20
16.121320343559645
 30
0.0
 70
0
  0
VERTEX
  5
5D
  8
CUT
 10
90.3332893009412
 20
16.49440883690764
 30
0.0
 70
0
  0
VERTEX
  5
5E
  8
CUT
 10
90.85194970290473
 20
16.77163859753386
 30
0.0
 70
0
  0
SEQEND
  5
3E
  8
CUT
  0
POLYLINE
  5
5F
  8
CUT
 66
1
 10
0.0
 20
0.0
 30
0.0
 70
1
  0
VERTEX
  5
61
  8
CUT
 10
19.414729033951616
 20
48.9423558412097
 30
0.0
 70
0
  0
VERTEX
  5
62
  8
CUT
 10
20.0
 20
49.00000000000001
 30
0.0
 70
0
  0
VERTEX
  5
63
  8
CUT
 10
20.585270966048384
 20
48.9423558412097
 30
0.0
 70
0
  0
VERTEX
  5
64
  8
CUT
 10
21.148050297095267
 20
48.771638597533865
 30
0.0
 70
0
  0
VERTEX
  5
65
  8
CUT
 10
21.666710699058804
 20
48.49440883690764
 30
0.0
 70
0
  0
VERTEX
  5
66
  8
CUT
 10
22.121320343559645
 20
48.121320343559645
 30
0.0
 70
0
  0
VERTEX
  5
67
  8
CUT
 10
22.49440883690764
 20
47.66671069905881
 30
0.0
 70
0
  0
VERTEX
  5
68
  8
CUT
 10
22.771638597533858
 20
47.14805029709528
 30
0.0
 70
0
  0
VERTEX
  5
69
  8
CUT
 10
22.94235584120969
 20
46.58527096604839
 30
0.0
 70
0
  0
VERTEX
  5
6A
  8
CUT
 10
23.0
 20
46.00000000000001
 30
0.0
 70
0
  0
VERTEX
  5
6B
  8
CUT
 10
22.94235584120969
 20
45.41472903395162
 30
0.0
 70
0
  0
VERTEX
  5
6C
  8
CUT
 10
22.771638597533858
 20
44.85194970290473
 30
0.0
 70
0
  0
VERTEX
  5
6D
  8
CUT
 10
22.49440883690764
 20
44.3332893009412
 30
0.0
 70
0
  0
VERTEX
  5
6E
  8
CUT
 10
22.121320343559645
 20
43.87867965644036
 30
0.0
 70
0
  0
VERTEX
  5
6F
  8
CUT
 10
21.666710699058804
 20
43.50559116309237
 30
0.0
 70
0
  0
VERTEX
  5
70
  8
CUT
 10
21.148050297095267
 20
43.22836140246615
 30
0.0
 70
0
  0
VERTEX
  5
71
  8
CUT
 10
20.585270966048384
 20
43.05764415879031
 30
0.0
 70
0
  0
VERTEX
  5
72
  8
CUT
 10
20.0
 20
43.00000000000001
 30
0.0
 70
0
  0
VERTEX
  5
73
  8
CUT
 10
19.414729033951616
 20
43.05764415879031
 30
0.0
 70
0
  0
VERTEX
  5
74
  8
CUT
 10
18.851949702904733
 20
43.22836140246615
 30
0.0
 70
0
  0
VERTEX
  5
75
  8
CUT
 10
18.333289300941196
 20
43.50559116309237
 30
0.0
 70
0
  0
VERTEX
  5
76
  8
CUT
 10
17.878679656440355
 20
43.87867965644036
 30
0.0
 70
0
  0
VERTEX
  5
77
  8
CUT
 10
17.50559116309236
 20
44.333289300941196
 30
0.0
 70
0
  0
VERTEX
  5
78
  8
CUT
 10
17.228361402466142
 20
44.85194970290473
 30
0.0
 70
0
  0
VERTEX
  5
79
  8
CUT
 10
17.05764415879031
 20
45.414729033951616
 30
0.0
 70
0
  0
VERTEX
  5
7A
  8
CUT
 10
17.0
 20
46.00000000000001
 30
0.0
 70
0
  0
VERTEX
  5
7B
  8
CUT
 10
17.05764415879031
 20
46.58527096604839
 30
0.0
 70
0
  0
VERTEX
  5
7C
  8
CUT
 10
17.228361402466142
 20
47.14805029709528
 30
0.0
 70
0
  0
VERTEX
  5
7D
  8
CUT
 10
17.50559116309236
 20
47.66671069905881
 30
0.0
 70
0
  0
VERTEX
  5
7E
  8
CUT
 10
17.878679656440355
 20
48.121320343559645
 30
0.0
 70
0
  0
VERTEX
  5
7F
  8
CUT
 10
18.333289300941196
 20
48.49440883690764
 30
0.0
 70
0
  0
VERTEX
  5
80
  8
CUT
 10
18.851949702904726
 20
48.771638597533865
 30
0.0
 70
0
  0
SEQEND
  5
60
  8
CUT
  0
POLYLINE
  5
81
  8
CUT
 66
1
 10
0.0
 20
0.0
 30
0.0
 70
1
  0
VERTEX
  5
83
  8
CUT
 10
63.414729033951616
 20
48.94235584120969
 30
0.0
 70
0
  0
VERTEX
  5
84
  8
CUT
 10
64.0
 20
49.0
 30
0.0
 70
0
  0
VERTEX
  5
85
  8
CUT
 10
64.58527096604838
 20
48.94235584120969
 30
0.0
 70
0
  0
VERTEX
  5
86
  8
CUT
 10
65.14805029709527
 20
48.771638597533865
 30
0.0
 70
0
  0
VERTEX
  5
87
  8
CUT
 10
65.66671069905881
 20
48.49440883690764
 30
0.0
 70
0
  0
VERTEX
  5
88
  8
CUT
 10
66.12132034355965
 20
48.121320343559645
 30
0.0
 70
0
  0
VERTEX
  5
89
  8
CUT
 10
66.49440883690764
 20
47.66671069905881
 30
0.0
 70
0
  0
VERTEX
  5
8A
  8
CUT
 10
66.77163859753387
 20
47.148050297095274
 30
0.0
 70
0
  0
VERTEX
  5
8B
  8
CUT
 10
66.94235584120969
 20
46.585270966048384
 30
0.0
 70
0
  0
VERTEX
  5
8C
  8
CUT
 10
67.0
 20
46.0
 30
0.0
 70
0
  0
VERTEX
  5
8D
  8
CUT
 10
66.94235584120969
 20
45.414729033951616
 30
0.0
 70
0
  0
VERTEX
  5
8E
  8
CUT
 10
66.77163859753387
 20
44.85194970290473
 30
0.0
 70
0
  0
VERTEX
  5
8F
  8
CUT
 10
66.49440883690764
 20
44.333289300941196
 30
0.0
 70
0
  0
VERTEX
  5
90
  8
CUT
 10
66.12132034355965
 20
43.87867965644036
 30
0.0
 70
0
  0
VERTEX
  5
91
  8
CUT
 10
65.66671069905881
 20
43.50559116309237
 30
0.0
 70
0
  0
VERTEX
  5
92
  8
CUT
 10
65.14805029709527
 20
43.22836140246614
 30
0.0
 70
0
  0
VERTEX
  5
93
  8
CUT
 10
64.58527096604838
 20
43.05764415879031
 30
0.0
 70
0
  0
VERTEX
  5
94
  8
CUT
 10
64.0
 20
43.0
 30
0.0
 70
0
  0
VERTEX
  5
95
  8
CUT
 10
63.414729033951616
 20
43.05764415879031
 30
0.0
 70
0
  0
VERTEX
  5
96
  8
CUT
 10
62.85194970290473
 20
43.22836140246614
 30
0.0
 70
0
  0
VERTEX
  5
97
  8
CUT
 10
62.333289300941196
 20
43.50559116309237
 30
0.0
 70
0
  0
VERTEX
  5
98
  8
CUT
 10
61.87867965644036
 20
43.87867965644036
 30
0.0
 70
0
  0
VERTEX
  5
99
  8
CUT
 10
61.50559116309237
 20
44.333289300941196
 30
0.0
 70
0
  0
VERTEX
  5
9A
  8
CUT
 10
61.22836140246614
 20
44.85194970290473
 30
0.0
 70
0
  0
VERTEX
  5
9B
  8
CUT
 10
61.05764415879031
 20
45.414729033951616
 30
0.0
 70
0
  0
VERTEX
  5
9C
  8
CUT
 10
61.00000000000001
 20
46.0
 30
0.0
 70
0
  0
VERTEX
  5
9D
  8
CUT
 10
61.05764415879031
 20
46.585270966048384
 30
0.0
 70
0
  0
VERTEX
  5
9E
  8
CUT
 10
61.22836140246614
 20
47.148050297095274
 30
0.0
 70
0
  0
VERTEX
  5
9F
  8
CUT
 10
61.50559116309237
 20
47.66671069905881
 30
0.0
 70
0
  0
VERTEX
  5
A0
  8
CUT
 10
61.87867965644036
 20
48.121320343559645
 30
0.0
 70
0
  0
VERTEX
  5
A1
  8
CUT
 10
62.333289300941196
 20
48.49440883690764
 30
0.0
 70
0
  0
VERTEX
  5
A2
  8
CUT
 10
62.85194970290473
 20
48.771638597533865
 30
0.0
 70
0
  0
SEQEND
  5
82
  8
CUT
  0
POLYLINE
  5
A3
  8
ENGRAVE
 66
1
 10
0.0
 20
0.0
 30
0.0
 70
0
  0
VERTEX
  5
A5
  8
ENGRAVE
 10
6.0
 20
41.00000000000001
 30
0.0
 70
0
  0
VERTEX
  5
A6
  8
ENGRAVE
 10
6.0
 20
48.50000000000001
 30
0.0
 70
0
  0
SEQEND
  5
A4
  8
ENGRAVE
  0
POLYLINE
  5
A7
  8
ENGRAVE
 66
1
 10
0.0
 20
0.0
 30
0.0
 70
0
  0
VERTEX
  5
A9
  8
ENGRAVE
 10
6.0
 20
48.50000000000001
 30
0.0
 70
0
  0
VERTEX
  5
AA
  8
ENGRAVE
 10
6.0
 20
56.00000000000001
 30
0.0
 70
0
  0
SEQEND
  5
A8
  8
ENGRAVE
  0
POLYLINE
  5
AB
  8
CUT
 66
1
 10
0.0
 20
0.0
 30
0.0
 70
1
  0
VERTEX
  5
AD
  8
CUT
 10
112.20000000000002
 20
45.75000000000001
 30
0.0
 70
0
  0
VERTEX
  5
AE
  8
CUT
 10
112.20000000000002
 20
37.50000000000001
 30
0.0
 70
0
  0
VERTEX
  5
AF
  8
CUT
 10
106.20000000000002
 20
37.50000000000001
 30
0.0
 70
0
  0
VERTEX
  5
B0
  8
CUT
 10
106.20000000000002
 20
22.500000000000007
 30
0.0
 70
0
  0
VERTEX
  5
B1
  8
CUT
 10
112.20000000000002
 20
22.500000000000007
 30
0.0
 70
0
  0
VERTEX
  5
B2
  8
CUT
 10
112.20000000000002
 20
7.105427357601002e-15
 30
0.0
 70
0
  0
VERTEX
  5
B3
  8
CUT
 10
135.95000000000002
 20
3.552713678800501e-15
 30
0.0
 70
0
  0
VERTEX
  5
B4
  8
CUT
 10
212.20000000000002
 20
0.0
 30
0.0
 70
0
  0
VERTEX
  5
B5
  8
CUT
 10
212.20000000000002
 20
14.25
 30
0.0
 70
0
  0
VERTEX
  5
B6
  8
CUT
 10
212.20000000000002
 20
60.0
 30
0.0
 70
0
  0
VERTEX
  5
B7
  8
CUT
 10
188.45000000000002
 20
60.0
 30
0.0
 70
0
  0
VERTEX
  5
B8
  8
CUT
 10
112.20000000000002
 20
60.00000000000001
 30
0.0
 70
0
  0
SEQEND
  5
AC
  8
CUT
  0
POLYLINE
  5
B9
  8
CUT
 66
1
 10
0.0
 20
0.0
 30
0.0
 70
1
  0
VERTEX
  5
BB
  8
CUT
 10
197.61472903395162
 20
16.942355841209693
 30
0.0
 70
0
  0
VERTEX
  5
BC
  8
CUT
 10
198.20000000000002
 20
17.0
 30
0.0
 70
0
  0
VERTEX
  5
BD
  8
CUT
 10
198.78527096604842
 20
16.942355841209693
 30
0.0
 70
0
  0
VERTEX
  5
BE
  8
CUT
 10
199.34805029709528
 20
16.77163859753386
 30
0.0
 70
0
  0
VERTEX
  5
BF
  8
CUT
 10
199.8667106990588
 20
16.49440883690764
 30
0.0
 70
0
  0
VERTEX
  5
C0
  8
CUT
 10
200.32132034355965
 20
16.121320343559645
 30
0.0
 70
0
  0
VERTEX
  5
C1
  8
CUT
 10
200.69440883690766
 20
15.66671069905881
 30
0.0
 70
0
  0
VERTEX
  5
C2
  8
CUT
 10
200.97163859753388
 20
15.14805029709527
 30
0.0
 70
0
  0
VERTEX
  5
C3
  8
CUT
 10
201.1423558412097
 20
14.585270966048387
 30
0.0
 70
0
  0
VERTEX
  5
C4
  8
CUT
 10
201.20000000000002
 20
14.000000000000002
 30
0.0
 70
0
  0
VERTEX
  5
C5
  8
CUT
 10
201.1423558412097
 20
13.414729033951616
 30
0.0
 70
0
  0
VERTEX
  5
C6
  8
CUT
 10
200.97163859753388
 20
12.85194970290473
 30
0.0
 70
0
  0
VERTEX
  5
C7
  8
CUT
 10
200.69440883690766
 20
12.333289300941193
 30
0.0
 70
0
  0
VERTEX
  5
C8
  8
CUT
 10
200.32132034355965
 20
11.878679656440358
 30
0.0
 70
0
  0
VERTEX
  5
C9
  8
CUT
 10
199.8667106990588
 20
11.505591163092365
 30
0.0
 70
0
  0
VERTEX
  5
CA
  8
CUT
 10
199.34805029709528
 20
11.228361402466142
 30
0.0
 70
0
  0
VERTEX
  5
CB
  8
CUT
 10
198.78527096604842
 20
11.05764415879031
 30
0.0
 70
0
  0
VERTEX
  5
CC
  8
CUT
 10
198.20000000000002
 20
11.0
 30
0.0
 70
0
  0
VERTEX
  5
CD
  8
CUT
 10
197.61472903395162
 20
11.05764415879031
 30
0.0
 70
0
  0
VERTEX
  5
CE
  8
CUT
 10
197.05194970290475
 20
11.228361402466138
 30
0.0
 70
0
  0
VERTEX
  5
CF
  8
CUT
 10
196.53328930094122
 20
11.505591163092362
 30
0.0
 70
0
  0
VERTEX
  5
D0
  8
CUT
 10
196.07867965644039
 20
11.878679656440358
 30
0.0
 70
0
  0
VERTEX
  5
D1
  8
CUT
 10
195.70559116309238
 20
12.333289300941193
 30
0.0
 70
0
  0
VERTEX
  5
D2
  8
CUT
 10
195.42836140246615
 20
12.85194970290473
 30
0.0
 70
0
  0
VERTEX
  5
D3
  8
CUT
 10
195.25764415879033
 20
13.414729033951613
 30
0.0
 70
0
  0
VERTEX
  5
D4
  8
CUT
 10
195.20000000000002
 20
14.000000000000002
 30
0.0
 70
0
  0
VERTEX
  5
D5
  8
CUT
 10
195.25764415879033
 20
14.585270966048387
 30
0.0
 70
0
  0
VERTEX
  5
D6
  8
CUT
 10
195.42836140246615
 20
15.148050297095272
 30
0.0
 70
0
  0
VERTEX
  5
D7
  8
CUT
 10
195.70559116309238
 20
15.666710699058807
 30
0.0
 70
0
  0
VERTEX
  5
D8
  8
CUT
 10
196.07867965644039
 20
16.121320343559645
 30
0.0
 70
0
  0
VERTEX
  5
D9
  8
CUT
 10
196.53328930094122
 20
16.49440883690764
 30
0.0
 70
0
  0
VERTEX
  5
DA
  8
CUT
 10
197.05194970290475
 20
16.77163859753386
 30
0.0
 70
0
  0
SEQEND
  5
BA
  8
CUT
  0
POLYLINE
  5
DB
  8
CUT
 66
1
 10
0.0
 20
0.0
 30
0.0
 70
1
  0
VERTEX
  5
DD
  8
CUT
 10
125.61472903395163
 20
48.9423558412097
 30
0.0
 70
0
  0
VERTEX
  5
DE
  8
CUT
 10
126.20000000000002
 20
49.00000000000001
 30
0.0
 70
0
  0
VERTEX
  5
DF
  8
CUT
 10
126.7852709660484
 20
48.9423558412097
 30
0.0
 70
0
  0
VERTEX
  5
E0
  8
CUT
 10
127.34805029709528
 20
48.771638597533865
 30
0.0
 70
0
  0
VERTEX
  5
E1
  8
CUT
 10
127.86671069905881
 20
48.49440883690764
 30
0.0
 70
0
  0
VERTEX
  5
E2
  8
CUT
 10
128.32132034355965
 20
48.121320343559645
 30
0.0
 70
0
  0
VERTEX
  5
E3
  8
CUT
 10
128.69440883690766
 20
47.66671069905881
 30
0.0
 70
0
  0
VERTEX
  5
E4
  8
CUT
 10
128.97163859753388
 20
47.14805029709528
 30
0.0
 70
0
  0
VERTEX
  5
E5
  8
CUT
 10
129.1423558412097
 20
46.58527096604839
 30
0.0
 70
0
  0
VERTEX
  5
E6
  8
CUT
 10
129.20000000000002
 20
46.00000000000001
 30
0.0
 70
0
  0
VERTEX
  5
E7
  8
CUT
 10
129.1423558412097
 20
45.41472903395162
 30
0.0
 70
0
  0
VERTEX
  5
E8
  8
CUT
 10
128.97163859753388
 20
44.85194970290473
 30
0.0
 70
0
  0
VERTEX
  5
E9
  8
CUT
 10
128.69440883690766
 20
44.3332893009412
 30
0.0
 70
0
  0
VERTEX
  5
EA
  8
CUT
 10
128.32132034355965
 20
43.87867965644036
 30
0.0
 70
0
  0
VERTEX
  5
EB
  8
CUT
 10
127.86671069905881
 20
43.50559116309237
 30
0.0
 70
0
  0
VERTEX
  5
EC
  8
CUT
 10
127.34805029709528
 20
43.22836140246615
 30
0.0
 70
0
  0
VERTEX
  5
ED
  8
CUT
 10
126.7852709660484
 20
43.05764415879031
 30
0.0
 70
0
  0
VERTEX
  5
EE
  8
CUT
 10
126.20000000000002
 20
43.00000000000001
 30
0.0
 70
0
  0
VERTEX
  5
EF
  8
CUT
 10
125.61472903395163
 20
43.05764415879031
 30
0.0
 70
0
  0
VERTEX
  5
F0
  8
CUT
 10
125.05194970290475
 20
43.22836140246615
 30
0.0
 70
0
  0
VERTEX
  5
F1
  8
CUT
 10
124.53328930094122
 20
43.50559116309237
 30
0.0
 70
0
  0
VERTEX
  5
F2
  8
CUT
 10
124.07867965644037
 20
43.87867965644036
 30
0.0
 70
0
  0
VERTEX
  5
F3
  8
CUT
 10
123.70559116309238
 20
44.333289300941196
 30
0.0
 70
0
  0
VERTEX
  5
F4
  8
CUT
 10
123.42836140246615
 20
44.85194970290473
 30
0.0
 70
0
  0
VERTEX
  5
F5
  8
CUT
 10
123.25764415879033
 20
45.414729033951616
 30
0.0
 70
0
  0
VERTEX
  5
F6
  8
CUT
 10
123.20000000000002
 20
46.00000000000001
 30
0.0
 70
0
  0
VERTEX
  5
F7
  8
CUT
 10
123.25764415879033
 20
46.58527096604839
 30
0.0
 70
0
  0
VERTEX
  5
F8
  8
CUT
 10
123.42836140246615
 20
47.14805029709528
 30
0.0
 70
0
  0
VERTEX
  5
F9
  8
CUT
 10
123.70559116309238
 20
47.66671069905881
 30
0.0
 70
0
  0
VERTEX
  5
FA
  8
CUT
 10
124.07867965644037
 20
48.121320343559645
 30
0.0
 70
0
  0
VERTEX
  5
FB
  8
CUT
 10
124.53328930094122
 20
48.49440883690764
 30
0.0
 70
0
  0
VERTEX
  5
FC
  8
CUT
 10
125.05194970290475
 20
48.771638597533865
 30
0.0
 70
0
  0
SEQEND
  5
DC
  8
CUT
  0
POLYLINE
  5
FD
  8
CUT
 66
1
 10
0.0
 20
0.0
 30
0.0
 70
1
  0
VERTEX
  5
FF
  8
CUT
 10
169.61472903395165
 20
48.94235584120969
 30
0.0
 70
0
  0
VERTEX
  5
100
  8
CUT
 10
170.20000000000002
 20
49.0
 30
0.0
 70
0
  0
VERTEX
  5
101
  8
CUT
 10
170.78527096604842
 20
48.94235584120969
 30
0.0
 70
0
  0
VERTEX
  5
102
  8
CUT
 10
171.34805029709528
 20
48.771638597533865
 30
0.0
 70
0
  0
VERTEX
  5
103
  8
CUT
 10
171.86671069905884
 20
48.49440883690764
 30
0.0
 70
0
  0
VERTEX
  5
104
  8
CUT
 10
172.32132034355968
 20
48.121320343559645
 30
0.0
 70
0
  0
VERTEX
  5
105
  8
CUT
 10
172.69440883690766
 20
47.66671069905881
 30
0.0
 70
0
  0
VERTEX
  5
106
  8
CUT
 10
172.97163859753388
 20
47.148050297095274
 30
0.0
 70
0
  0
VERTEX
  5
107
  8
CUT
 10
173.1423558412097
 20
46.585270966048384
 30
0.0
 70
0
  0
VERTEX
  5
108
  8
CUT
 10
173.20000000000002
 20
46.0
 30
0.0
 70
0
  0
VERTEX
  5
109
  8
CUT
 10
173.1423558412097
 20
45.414729033951616
 30
0.0
 70
0
  0
VERTEX
  5
10A
  8
CUT
 10
172.97163859753388
 20
44.85194970290473
 30
0.0
 70
0
  0
VERTEX
  5
10B
  8
CUT
 10
172.69440883690766
 20
44.333289300941196
 30
0.0
 70
0
  0
VERTEX
  5
10C
  8
CUT
 10
172.32132034355965
 20
43.87867965644036
 30
0.0
 70
0
  0
VERTEX
  5
10D
  8
CUT
 10
171.86671069905884
 20
43.50559116309237
 30
0.0
 70
0
  0
VERTEX
  5
10E
  8
CUT
 10
171.34805029709528
 20
43.22836140246614
 30
0.0
 70
0
  0
VERTEX
  5
10F
  8
CUT
 10
170.78527096604842
 20
43.05764415879031
 30
0.0
 70
0
  0
VERTEX
  5
110
  8
CUT
 10
170.20000000000002
 20
43.0
 30
0.0
 70
0
  0
VERTEX
  5
111
  8
CUT
 10
169.61472903395165
 20
43.05764415879031
 30
0.0
 70
0
  0
VERTEX
  5
112
  8
CUT
 10
169.05194970290475
 20
43.22836140246614
 30
0.0
 70
0
  0
VERTEX
  5
113
  8
CUT
 10
168.53328930094122
 20
43.50559116309237
 30
0.0
 70
0
  0
VERTEX
  5
114
  8
CUT
 10
168.07867965644039
 20
43.87867965644036
 30
0.0
 70
0
  0
VERTEX
  5
115
  8
CUT
 10
167.70559116309238
 20
44.333289300941196
 30
0.0
 70
0
  0
VERTEX
  5
116
  8
CUT
 10
167.42836140246615
 20
44.85194970290473
 30
0.0
 70
0
  0
VERTEX
  5
117
  8
CUT
 10
167.25764415879033
 20
45.414729033951616
 30
0.0
 70
0
  0
VERTEX
  5
118
  8
CUT
 10
167.20000000000002
 20
46.0
 30
0.0
 70
0
  0
VERTEX
  5
119
  8
CUT
 10
167.25764415879033
 20
46.585270966048384
 30
0.0
 70
0
  0
VERTEX
  5
11A
  8
CUT
 10
167.42836140246615
 20
47.148050297095274
 30
0.0
 70
0
  0
VERTEX
  5
11B
  8
CUT
 10
167.70559116309238
 20
47.66671069905881
 30
0.0
 70
0
  0
VERTEX
  5
11C
  8
CUT
 10
168.07867965644039
 20
48.121320343559645
 30
0.0
 70
0
  0
VERTEX
  5
11D
  8
CUT
 10
168.53328930094122
 20
48.49440883690764
 30
0.0
 70
0
  0
VERTEX
  5
11E
  8
CUT
 10
169.05194970290475
 20
48.771638597533865
 30
0.0
 70
0
  0
SEQEND
  5
FE
  8
CUT
  0
POLYLINE
  5
11F
  8
ENGRAVE
 66
1
 10
0.0
 20
0.0
 30
0.0
 70
0
  0
VERTEX
  5
121
  8
ENGRAVE
 10
121.20000000000002
 20
41.00000000000001
 30
0.0
 70
0
  0
VERTEX
  5
122
  8
ENGRAVE
 10
112.20000000000002
 20
41.00000000000001
 30
0.0
 70
0
  0
SEQEND
  5
120
  8
ENGRAVE
  0
POLYLINE
  5
123
  8
ENGRAVE
 66
1
 10
0.0
 20
0.0
 30
0.0
 70
0
  0
VERTEX
  5
125
  8
ENGRAVE
 10
112.20000000000002
 20
41.00000000000001
 30
0.0
 70
0
  0
VERTEX
  5
126
  8
ENGRAVE
 10
112.20000000000002
 20
48.50000000000001
 30
0.0
 70
0
  0
SEQEND
  5
124
  8
ENGRAVE
  0
POLYLINE
  5
127
  8
ENGRAVE
 66
1
 10
0.0
 20
0.0
 30
0.0
 70
0
  0
VERTEX
  5
129
  8
ENGRAVE
 10
121.20000000000002
 20
48.50000000000001
 30
0.0
 70
0
  0
VERTEX
  5
12A
  8
ENGRAVE
 10
112.20000000000002
 20
48.50000000000001
 30
0.0
 70
0
  0
SEQEND
  5
128
  8
ENGRAVE
  0
POLYLINE
  5
12B
  8
ENGRAVE
 66
1
 10
0.0
 20
0.0
 30
0.0
 70
0
  0
VERTEX
  5
12D
  8
ENGRAVE
 10
121.20000000000002
 20
48.50000000000001
 30
0.0
 70
0
  0
VERTEX
  5
12E
  8
ENGRAVE
 10
121.20000000000002
 20
56.00000000000001
 30
0.0
 70
0
  0
SEQEND
  5
12C
  8
ENGRAVE
  0
POLYLINE
  5
12F
  8
ENGRAVE
 66
1
 10
0.0
 20
0.0
 30
0.0
 70
0
  0
VERTEX
  5
131
  8
ENGRAVE
 10
121.20000000000002
 20
56.00000000000001
 30
0.0
 70
0
  0
VERTEX
  5
132
  8
ENGRAVE
 10
112.20000000000002
 20
56.00000000000001
 30
0.0
 70
0
  0
SEQEND
  5
130
  8
ENGRAVE
  0
POLYLINE
  5
133
  8
CUT
 66
1
 10
0.0
 20
0.0
 30
0.0
 70
1
  0
VERTEX
  5
135
  8
CUT
 10
218.4
 20
60.00000000000001
 30
0.0
 70
0
  0
VERTEX
  5
136
  8
CUT
 10
218.4
 20
37.50000000000001
 30
0.0
 70
0
  0
VERTEX
  5
137
  8
CUT
 10
212.4
 20
37.50000000000001
 30
0.0
 70
0
  0
VERTEX
  5
138
  8
CUT
 10
212.4
 20
22.500000000000007
 30
0.0
 70
0
  0
VERTEX
  5
139
  8
CUT
 10
218.4
 20
22.500000000000007
 30
0.0
 70
0
  0
VERTEX
  5
13A
  8
CUT
 10
218.4
 20
7.105427357601002e-15
 30
0.0
 70
0
  0
VERTEX
  5
13B
  8
CUT
 10
259.65000000000003
 20
3.552713678800501e-15
 30
0.0
 70
0
  0
VERTEX
  5
13C
  8
CUT
 10
318.4
 20
0.0
 30
0.0
 70
0
  0
VERTEX
  5
13D
  8
CUT
 10
318.4
 20
24.75
 30
0.0
 70
0
  0
VERTEX
  5
13E
  8
CUT
 10
318.4
 20
60.0
 30
0.0
 70
0
  0
VERTEX
  5
13F
  8
CUT
 10
277.15000000000003
 20
60.0
 30
0.0
 70
0
  0
SEQEND
  5
134
  8
CUT
  0
POLYLINE
  5
140
  8
CUT
 66
1
 10
0.0
 20
0.0
 30
0.0
 70
1
  0
VERTEX
  5
142
  8
CUT
 10
303.8147290339516
 20
16.942355841209697
 30
0.0
 70
0
  0
VERTEX
  5
143
  8
CUT
 10
304.4
 20
17.000000000000004
 30
0.0
 70
0
  0
VERTEX
  5
144
  8
CUT
 10
304.9852709660484
 20
16.942355841209697
 30
0.0
 70
0
  0
VERTEX
  5
145
  8
CUT
 10
305.5480502970953
 20
16.771638597533865
 30
0.0
 70
0
  0
VERTEX
  5
146
  8
CUT
 10
306.06671069905883
 20
16.49440883690764
 30
0.0
 70
0
  0
VERTEX
  5
147
  8
CUT
 10
306.52132034355964
 20
16.121320343559645
 30
0.0
 70
0
  0
VERTEX
  5
148
  8
CUT
 10
306.89440883690764
 20
15.666710699058811
 30
0.0
 70
0
  0
VERTEX
  5
149
  8
CUT
 10
307.17163859753384
 20
15.148050297095272
 30
0.0
 70
0
  0
VERTEX
  5
14A
  8
CUT
 10
307.3423558412097
 20
14.58527096604839
 30
0.0
 70
0
  0
VERTEX
  5
14B
  8
CUT
 10
307.4
 20
14.000000000000004
 30
0.0
 70
0
  0
VERTEX
  5
14C
  8
CUT
 10
307.3423558412097
 20
13.414729033951618
 30
0.0
 70
0
  0
VERTEX
  5
14D
  8
CUT
 10
307.17163859753384
 20
12.85194970290473
 30
0.0
 70
0
  0
VERTEX
  5
14E
  8
CUT
 10
306.89440883690764
 20
12.333289300941193
 30
0.0
 70
0
  0
VERTEX
  5
14F
  8
CUT
 10
306.52132034355964
 20
11.878679656440358
 30
0.0
 70
0
  0
VERTEX
  5
150
  8
CUT
 10
306.06671069905883
 20
11.505591163092365
 30
0.0
 70
0
  0
VERTEX
  5
151
  8
CUT
 10
305.5480502970953
 20
11.228361402466142
 30
0.0
 70
0
  0
VERTEX
  5
152
  8
CUT
 10
304.9852709660484
 20
11.05764415879031
 30
0.0
 70
0
  0
VERTEX
  5
153
  8
CUT
 10
304.4
 20
11.0
 30
0.0
 70
0
  0
VERTEX
  5
154
  8
CUT
 10
303.8147290339516
 20
11.05764415879031
 30
0.0
 70
0
  0
VERTEX
  5
155
  8
CUT
 10
303.25194970290477
 20
11.228361402466138
 30
0.0
 70
0
  0
VERTEX
  5
156
  8
CUT
 10
302.7332893009412
 20
11.505591163092362
 30
0.0
 70
0
  0
VERTEX
  5
157
  8
CUT
 10
302.2786796564404
 20
11.878679656440358
 30
0.0
 70
0
  0
VERTEX
  5
158
  8
CUT
 10
301.90559116309237
 20
12.333289300941193
 30
0.0
 70
0
  0
VERTEX
  5
159
  8
CUT
 10
301.62836140246617
 20
12.85194970290473
 30
0.0
 70
0
  0
VERTEX
  5
15A
  8
CUT
 10
301.45764415879034
 20
13.414729033951614
 30
0.0
 70
0
  0
VERTEX
  5
15B
  8
CUT
 10
301.4
 20
14.000000000000004
 30
0.0
 70
0
  0
VERTEX
  5
15C
  8
CUT
 10
301.45764415879034
 20
14.58527096604839
 30
0.0
 70
0
  0
VERTEX
  5
15D
  8
CUT
 10
301.62836140246617
 20
15.148050297095274
 30
0.0
 70
0
  0
VERTEX
  5
15E
  8
CUT
 10
301.90559116309237
 20
15.66671069905881
 30
0.0
 70
0
  0
VERTEX
  5
15F
  8
CUT
 10
302.2786796564404
 20
16.121320343559645
 30
0.0
 70
0
  0
VERTEX
  5
160
  8
CUT
 10
302.7332893009412
 20
16.49440883690764
 30
0.0
 70
0
  0
VERTEX
  5
161
  8
CUT
 10
303.2519497029047
 20
16.771638597533865
 30
0.0
 70
0
  0
SEQEND
  5
141
  8
CUT
  0
POLYLINE
  5
162
  8
CUT
 66
1
 10
0.0
 20
0.0
 30
0.0
 70
1
  0
VERTEX
  5
164
  8
CUT
 10
231.8147290339516
 20
48.9423558412097
 30
0.0
 70
0
  0
VERTEX
  5
165
  8
CUT
 10
232.4
 20
49.00000000000001
 30
0.0
 70
0
  0
VERTEX
  5
166
  8
CUT
 10
232.9852709660484
 20
48.9423558412097
 30
0.0
 70
0
  0
VERTEX
  5
167
  8
CUT
 10
233.54805029709527
 20
48.771638597533865
 30
0.0
 70
0
  0
VERTEX
  5
168
  8
CUT
 10
234.0667106990588
 20
48.49440883690764
 30
0.0
 70
0
  0
VERTEX
  5
169
  8
CUT
 10
234.52132034355964
 20
48.121320343559645
 30
0.0
 70
0
  0
VERTEX
  5
16A
  8
CUT
 10
234.89440883690764
 20
47.66671069905881
 30
0.0
 70
0
  0
VERTEX
  5
16B
  8
CUT
 10
235.17163859753387
 20
47.14805029709528
 30
0.0
 70
0
  0
VERTEX
  5
16C
  8
CUT
 10
235.3423558412097
 20
46.58527096604839
 30
0.0
 70
0
  0
VERTEX
  5
16D
  8
CUT
 10
235.4
 20
46.00000000000001
 30
0.0
 70
0
  0
VERTEX
  5
16E
  8
CUT
 10
235.3423558412097
 20
45.41472903395162
 30
0.0
 70
0
  0
VERTEX
  5
16F
  8
CUT
 10
235.17163859753387
 20
44.85194970290474
 30
0.0
 70
0
  0
VERTEX
  5
170
  8
CUT
 10
234.89440883690764
 20
44.3332893009412
 30
0.0
 70
0
  0
VERTEX
  5
171
  8
CUT
 10
234.52132034355964
 20
43.87867965644037
 30
0.0
 70
0
  0
VERTEX
  5
172
  8
CUT
 10
234.0667106990588
 20
43.50559116309237
 30
0.0
 70
0
  0
VERTEX
  5
173
  8
CUT
 10
233.54805029709527
 20
43.22836140246615
 30
0.0
 70
0
  0
VERTEX
  5
174
  8
CUT
 10
232.9852709660484
 20
43.05764415879032
 30
0.0
 70
0
  0
VERTEX
  5
175
  8
CUT
 10
232.4
 20
43.00000000000001
 30
0.0
 70
0
  0
VERTEX
  5
176
  8
CUT
 10
231.8147290339516
 20
43.05764415879032
 30
0.0
 70
0
  0
VERTEX
  5
177
  8
CUT
 10
231.25194970290474
 20
43.22836140246615
 30
0.0
 70
0
  0
VERTEX
  5
178
  8
CUT
 10
230.7332893009412
 20
43.50559116309237
 30
0.0
 70
0
  0
VERTEX
  5
179
  8
CUT
 10
230.27867965644037
 20
43.87867965644037
 30
0.0
 70
0
  0
VERTEX
  5
17A
  8
CUT
 10
229.90559116309237
 20
44.3332893009412
 30
0.0
 70
0
  0
VERTEX
  5
17B
  8
CUT
 10
229.62836140246614
 20
44.85194970290473
 30
0.0
 70
0
  0
VERTEX
  5
17C
  8
CUT
 10
229.45764415879032
 20
45.414729033951616
 30
0.0
 70
0
  0
VERTEX
  5
17D
  8
CUT
 10
229.4
 20
46.00000000000001
 30
0.0
 70
0
  0
VERTEX
  5
17E
  8
CUT
 10
229.45764415879032
 20
46.58527096604839
 30
0.0
 70
0
  0
VERTEX
  5
17F
  8
CUT
 10
229.62836140246614
 20
47.14805029709528
 30
0.0
 70
0
  0
VERTEX
  5
180
  8
CUT
 10
229.90559116309237
 20
47.66671069905881
 30
0.0
 70
0
  0
VERTEX
  5
181
  8
CUT
 10
230.27867965644037
 20
48.121320343559645
 30
0.0
 70
0
  0
VERTEX
  5
182
  8
CUT
 10
230.7332893009412
 20
48.49440883690764
 30
0.0
 70
0
  0
VERTEX
  5
183
  8
CUT
 10
231.25194970290474
 20
48.771638597533865
 30
0.0
 70
0
  0
SEQEND
  5
163
  8
CUT
  0
POLYLINE
  5
184
  8
CUT
 66
1
 10
0.0
 20
0.0
 30
0.0
 70
1
  0
VERTEX
  5
186
  8
CUT
 10
275.8147290339516
 20
48.94235584120969
 30
0.0
 70
0
  0
VERTEX
  5
187
  8
CUT
 10
276.40000000000003
 20
49.0
 30
0.0
 70
0
  0
VERTEX
  5
188
  8
CUT
 10
276.9852709660484
 20
48.94235584120969
 30
0.0
 70
0
  0
VERTEX
  5
189
  8
CUT
 10
277.5480502970953
 20
48.771638597533865
 30
0.0
 70
0
  0
VERTEX
  5
18A
  8
CUT
 10
278.06671069905883
 20
48.49440883690764
 30
0.0
 70
0
  0
VERTEX
  5
18B
  8
CUT
 10
278.52132034355964
 20
48.121320343559645
 30
0.0
 70
0
  0
VERTEX
  5
18C
  8
CUT
 10
278.89440883690764
 20
47.66671069905881
 30
0.0
 70
0
  0
VERTEX
  5
18D
  8
CUT
 10
279.1716385975339
 20
47.148050297095274
 30
0.0
 70
0
  0
VERTEX
  5
18E
  8
CUT
 10
279.3423558412097
 20
46.585270966048384
 30
0.0
 70
0
  0
VERTEX
  5
18F
  8
CUT
 10
279.40000000000003
 20
46.0
 30
0.0
 70
0
  0
VERTEX
  5
190
  8
CUT
 10
279.3423558412097
 20
45.414729033951616
 30
0.0
 70
0
  0
VERTEX
  5
191
  8
CUT
 10
279.1716385975339
 20
44.85194970290473
 30
0.0
 70
0
  0
VERTEX
  5
192
  8
CUT
 10
278.89440883690764
 20
44.3332893009412
 30
0.0
 70
0
  0
VERTEX
  5
193
  8
CUT
 10
278.52132034355964
 20
43.87867965644036
 30
0.0
 70
0
  0
VERTEX
  5
194
  8
CUT
 10
278.06671069905883
 20
43.50559116309237
 30
0.0
 70
0
  0
VERTEX
  5
195
  8
CUT
 10
277.5480502970953
 20
43.22836140246615
 30
0.0
 70
0
  0
VERTEX
  5
196
  8
CUT
 10
276.9852709660484
 20
43.05764415879031
 30
0.0
 70
0
  0
VERTEX
  5
197
  8
CUT
 10
276.40000000000003
 20
43.00000000000001
 30
0.0
 70
0
  0
VERTEX
  5
198
  8
CUT
 10
275.8147290339516
 20
43.05764415879031
 30
0.0
 70
0
  0
VERTEX
  5
199
  8
CUT
 10
275.25194970290477
 20
43.22836140246615
 30
0.0
 70
0
  0
VERTEX
  5
19A
  8
CUT
 10
274.7332893009412
 20
43.50559116309237
 30
0.0
 70
0
  0
VERTEX
  5
19B
  8
CUT
 10
274.2786796564404
 20
43.87867965644036
 30
0.0
 70
0
  0
VERTEX
  5
19C
  8
CUT
 10
273.90559116309237
 20
44.333289300941196
 30
0.0
 70
0
  0
VERTEX
  5
19D
  8
CUT
 10
273.62836140246617
 20
44.85194970290473
 30
0.0
 70
0
  0
VERTEX
  5
19E
  8
CUT
 10
273.45764415879034
 20
45.414729033951616
 30
0.0
 70
0
  0
VERTEX
  5
19F
  8
CUT
 10
273.40000000000003
 20
46.0
 30
0.0
 70
0
  0
VERTEX
  5
1A0
  8
CUT
 10
273.45764415879034
 20
46.585270966048384
 30
0.0
 70
0
  0
VERTEX
  5
1A1
  8
CUT
 10
273.62836140246617
 20
47.148050297095274
 30
0.0
 70
0
  0
VERTEX
  5
1A2
  8
CUT
 10
273.90559116309237
 20
47.66671069905881
 30
0.0
 70
0
  0
VERTEX
  5
1A3
  8
CUT
 10
274.2786796564404
 20
48.121320343559645
 30
0.0
 70
0
  0
VERTEX
  5
1A4
  8
CUT
 10
274.7332893009412
 20
48.49440883690764
 30
0.0
 70
0
  0
VERTEX
  5
1A5
  8
CUT
 10
275.25194970290477
 20
48.771638597533865
 30
0.0
 70
0
  0
SEQEND
  5
185
  8
CUT
  0
POLYLINE
  5
1A6
  8
ENGRAVE
 66
1
 10
0.0
 20
0.0
 30
0.0
 70
0
  0
VERTEX
  5
1A8
  8
ENGRAVE
 10
227.4
 20
41.00000000000001
 30
0.0
 70
0
  0
VERTEX
  5
1A9
  8
ENGRAVE
 10
218.4
 20
41.00000000000001
 30
0.0
 70
0
  0
SEQEND
  5
1A7
  8
ENGRAVE
  0
POLYLINE
  5
1AA
  8
ENGRAVE
 66
1
 10
0.0
 20
0.0
 30
0.0
 70
0
  0
VERTEX
  5
1AC
  8
ENGRAVE
 10
218.4
 20
41.00000000000001
 30
0.0
 70
0
  0
VERTEX
  5
1AD
  8
ENGRAVE
 10
218.4
 20
48.50000000000001
 30
0.0
 70
0
  0
SEQEND
  5
1AB
  8
ENGRAVE
  0
POLYLINE
  5
1AE
  8
ENGRAVE
 66
1
 10
0.0
 20
0.0
 30
0.0
 70
0
  0
VERTEX
  5
1B0
  8
ENGRAVE
 10
227.4
 20
48.50000000000001
 30
0.0
 70
0
  0
VERTEX
  5
1B1
  8
ENGRAVE
 10
218.4
 20
48.50000000000001
 30
0.0
 70
0
  0
SEQEND
  5
1AF
  8
ENGRAVE
  0
POLYLINE
  5
1B2
  8
ENGRAVE
 66
1
 10
0.0
 20
0.0
 30
0.0
 70
0
  0
VERTEX
  5
1B4
  8
ENGRAVE
 10
218.4
 20
48.50000000000001
 30
0.0
 70
0
  0
VERTEX
  5
1B5
  8
ENGRAVE
 10
218.4
 20
56.00000000000001
 30
0.0
 70
0
  0
SEQEND
  5
1B3
  8
ENGRAVE
  0
POLYLINE
  5
1B6
  8
ENGRAVE
 66
1
 10
0.0
 20
0.0
 30
0.0
 70
0
  0
VERTEX
  5
1B8
  8
ENGRAVE
 10
227.4
 20
56.00000000000001
 30
0.0
 70
0
  0
VERTEX
  5
1B9
  8
ENGRAVE
 10
218.4
 20
56.00000000000001
 30
0.0
 70
0
  0
SEQEND
  5
1B7
  8
ENGRAVE
  0
POLYLINE
  5
1BA
  8
CUT
 66
1
 10
0.0
 20
0.0
 30
0.0
 70
1
  0
VERTEX
  5
1BC
  8
CUT
 10
324.6
 20
60.00000000000001
 30
0.0
 70
0
  0
VERTEX
  5
1BD
  8
CUT
 10
324.6
 20
37.50000000000001
 30
0.0
 70
0
  0
VERTEX
  5
1BE
  8
CUT
 10
318.6
 20
37.50000000000001
 30
0.0
 70
0
  0
VERTEX
  5
1BF
  8
CUT
 10
318.6
 20
22.500000000000007
 30
0.0
 70
0
  0
VERTEX
  5
1C0
  8
CUT
 10
324.6
 20
22.500000000000007
 30
0.0
 70
0
  0
VERTEX
  5
1C1
  8
CUT
 10
324.6
 20
7.105427357601002e-15
 30
0.0
 70
0
  0
VERTEX
  5
1C2
  8
CUT
 10
383.3500000000001
 20
3.552713678800501e-15
 30
0.0
 70
0
  0
VERTEX
  5
1C3
  8
CUT
 10
424.6
 20
0.0
 30
0.0
 70
0
  0
VERTEX
  5
1C4
  8
CUT
 10
424.6
 20
35.25
 30
0.0
 70
0
  0
VERTEX
  5
1C5
  8
CUT
 10
424.6
 20
60.0
 30
0.0
 70
0
  0
VERTEX
  5
1C6
  8
CUT
 10
365.8500000000001
 20
60.0
 30
0.0
 70
0
  0
SEQEND
  5
1BB
  8
CUT
  0
POLYLINE
  5
1C7
  8
CUT
 66
1
 10
0.0
 20
0.0
 30
0.0
 70
1
  0
VERTEX
  5
1C9
  8
CUT
 10
410.01472903395165
 20
16.942355841209693
 30
0.0
 70
0
  0
VERTEX
  5
1CA
  8
CUT
 10
410.6
 20
17.0
 30
0.0
 70
0
  0
VERTEX
  5
1CB
  8
CUT
 10
411.18527096604845
 20
16.942355841209693
 30
0.0
 70
0
  0
VERTEX
  5
1CC
  8
CUT
 10
411.74805029709535
 20
16.77163859753386
 30
0.0
 70
0
  0
VERTEX
  5
1CD
  8
CUT
 10
412.2667106990589
 20
16.49440883690764
 30
0.0
 70
0
  0
VERTEX
  5
1CE
  8
CUT
 10
412.7213203435597
 20
16.121320343559645
 30
0.0
 70
0
  0
VERTEX
  5
1CF
  8
CUT
 10
413.0944088369077
 20
15.66671069905881
 30
0.0
 70
0
  0
VERTEX
  5
1D0
  8
CUT
 10
413.3716385975339
 20
15.14805029709527
 30
0.0
 70
0
  0
VERTEX
  5
1D1
  8
CUT
 10
413.54235584120977
 20
14.585270966048387
 30
0.0
 70
0
  0
VERTEX
  5
1D2
  8
CUT
 10
413.6
 20
14.000000000000002
 30
0.0
 70
0
  0
VERTEX
  5
1D3
  8
CUT
 10
413.54235584120977
 20
13.414729033951616
 30
0.0
 70
0
  0
VERTEX
  5
1D4
  8
CUT
 10
413.3716385975339
 20
12.85194970290473
 30
0.0
 70
0
  0
VERTEX
  5
1D5
  8
CUT
 10
413.0944088369077
 20
12.333289300941193
 30
0.0
 70
0
  0
VERTEX
  5
1D6
  8
CUT
 10
412.7213203435597
 20
11.878679656440358
 30
0.0
 70
0
  0
VERTEX
  5
1D7
  8
CUT
 10
412.2667106990589
 20
11.505591163092365
 30
0.0
 70
0
  0
VERTEX
  5
1D8
  8
CUT
 10
411.74805029709535
 20
11.228361402466142
 30
0.0
 70
0
  0
VERTEX
  5
1D9
  8
CUT
 10
411.18527096604845
 20
11.05764415879031
 30
0.0
 70
0
  0
VERTEX
  5
1DA
  8
CUT
 10
410.6
 20
11.0
 30
0.0
 70
0
  0
VERTEX
  5
1DB
  8
CUT
 10
410.01472903395165
 20
11.05764415879031
 30
0.0
 70
0
  0
VERTEX
  5
1DC
  8
CUT
 10
409.4519497029048
 20
11.228361402466138
 30
0.0
 70
0
  0
VERTEX
  5
1DD
  8
CUT
 10
408.9332893009412
 20
11.505591163092362
 30
0.0
 70
0
  0
VERTEX
  5
1DE
  8
CUT
 10
408.4786796564404
 20
11.878679656440358
 30
0.0
 70
0
  0
VERTEX
  5
1DF
  8
CUT
 10
408.1055911630924
 20
12.333289300941193
 30
0.0
 70
0
  0
VERTEX
  5
1E0
  8
CUT
 10
407.8283614024662
 20
12.85194970290473
 30
0.0
 70
0
  0
VERTEX
  5
1E1
  8
CUT
 10
407.6576441587904
 20
13.414729033951613
 30
0.0
 70
0
  0
VERTEX
  5
1E2
  8
CUT
 10
407.6
 20
14.000000000000002
 30
0.0
 70
0
  0
VERTEX
  5
1E3
  8
CUT
 10
407.6576441587904
 20
14.585270966048387
 30
0.0
 70
0
  0
VERTEX
  5
1E4
  8
CUT
 10
407.8283614024662
 20
15.148050297095272
 30
0.0
 70
0
  0
VERTEX
  5
1E5
  8
CUT
 10
408.1055911630924
 20
15.666710699058807
 30
0.0
 70
0
  0
VERTEX
  5
1E6
  8
CUT
 10
408.4786796564404
 20
16.121320343559645
 30
0.0
 70
0
  0
VERTEX
  5
1E7
  8
CUT
 10
408.9332893009412
 20
16.49440883690764
 30
0.0
 70
0
  0
VERTEX
  5
1E8
  8
CUT
 10
409.45194970290476
 20
16.77163859753386
 30
0.0
 70
0
  0
SEQEND
  5
1C8
  8
CUT
  0
POLYLINE
  5
1E9
  8
CUT
 66
1
 10
0.0
 20
0.0
 30
0.0
 70
1
  0
VERTEX
  5
1EB
  8
CUT
 10
338.01472903395165
 20
48.9423558412097
 30
0.0
 70
0
  0
VERTEX
  5
1EC
  8
CUT
 10
338.6
 20
49.00000000000001
 30
0.0
 70
0
  0
VERTEX
  5
1ED
  8
CUT
 10
339.18527096604845
 20
48.9423558412097
 30
0.0
 70
0
  0
VERTEX
  5
1EE
  8
CUT
 10
339.74805029709535
 20
48.771638597533865
 30
0.0
 70
0
  0
VERTEX
  5
1EF
  8
CUT
 10
340.2667106990589
 20
48.49440883690764
 30
0.0
 70
0
  0
VERTEX
  5
1F0
  8
CUT
 10
340.7213203435597
 20
48.121320343559645
 30
0.0
 70
0
  0
VERTEX
  5
1F1
  8
CUT
 10
341.0944088369077
 20
47.66671069905881
 30
0.0
 70
0
  0
VERTEX
  5
1F2
  8
CUT
 10
341.3716385975339
 20
47.14805029709528
 30
0.0
 70
0
  0
VERTEX
  5
1F3
  8
CUT
 10
341.54235584120977
 20
46.58527096604839
 30
0.0
 70
0
  0
VERTEX
  5
1F4
  8
CUT
 10
341.6
 20
46.00000000000001
 30
0.0
 70
0
  0
VERTEX
  5
1F5
  8
CUT
 10
341.54235584120977
 20
45.414729033951616
 30
0.0
 70
0
  0
VERTEX
  5
1F6
  8
CUT
 10
341.3716385975339
 20
44.85194970290473
 30
0.0
 70
0
  0
VERTEX
  5
1F7
  8
CUT
 10
341.0944088369077
 20
44.3332893009412
 30
0.0
 70
0
  0
VERTEX
  5
1F8
  8
CUT
 10
340.7213203435597
 20
43.87867965644036
 30
0.0
 70
0
  0
VERTEX
  5
1F9
  8
CUT
 10
340.2667106990589
 20
43.50559116309237
 30
0.0
 70
0
  0
VERTEX
  5
1FA
  8
CUT
 10
339.74805029709535
 20
43.22836140246615
 30
0.0
 70
0
  0
VERTEX
  5
1FB
  8
CUT
 10
339.18527096604845
 20
43.05764415879031
 30
0.0
 70
0
  0
VERTEX
  5
1FC
  8
CUT
 10
338.6
 20
43.00000000000001
 30
0.0
 70
0
  0
VERTEX
  5
1FD
  8
CUT
 10
338.01472903395165
 20
43.05764415879031
 30
0.0
 70
0
  0
VERTEX
  5
1FE
  8
CUT
 10
337.4519497029048
 20
43.22836140246615
 30
0.0
 70
0
  0
VERTEX
  5
1FF
  8
CUT
 10
336.9332893009412
 20
43.50559116309237
 30
0.0
 70
0
  0
VERTEX
  5
200
  8
CUT
 10
336.4786796564404
 20
43.87867965644036
 30
0.0
 70
0
  0
VERTEX
  5
201
  8
CUT
 10
336.1055911630924
 20
44.333289300941196
 30
0.0
 70
0
  0
VERTEX
  5
202
  8
CUT
 10
335.8283614024662
 20
44.85194970290473
 30
0.0
 70
0
  0
VERTEX
  5
203
  8
CUT
 10
335.6576441587904
 20
45.414729033951616
 30
0.0
 70
0
  0
VERTEX
  5
204
  8
CUT
 10
335.6
 20
46.00000000000001
 30
0.0
 70
0
  0
VERTEX
  5
205
  8
CUT
 10
335.6576441587904
 20
46.58527096604839
 30
0.0
 70
0
  0
VERTEX
  5
206
  8
CUT
 10
335.8283614024662
 20
47.14805029709528
 30
0.0
 70
0
  0
VERTEX
  5
207
  8
CUT
 10
336.1055911630924
 20
47.66671069905881
 30
0.0
 70
0
  0
VERTEX
  5
208
  8
CUT
 10
336.4786796564404
 20
48.121320343559645
 30
0.0
 70
0
  0
VERTEX
  5
209
  8
CUT
 10
336.9332893009412
 20
48.49440883690764
 30
0.0
 70
0
  0
VERTEX
  5
20A
  8
CUT
 10
337.45194970290476
 20
48.771638597533865
 30
0.0
 70
0
  0
SEQEND
  5
1EA
  8
CUT
  0
POLYLINE
  5
20B
  8
CUT
 66
1
 10
0.0
 20
0.0
 30
0.0
 70
1
  0
VERTEX
  5
20D
  8
CUT
 10
382.01472903395165
 20
48.94235584120969
 30
0.0
 70
0
  0
VERTEX
  5
20E
  8
CUT
 10
382.6000000000001
 20
49.0
 30
0.0
 70
0
  0
VERTEX
  5
20F
  8
CUT
 10
383.18527096604845
 20
48.94235584120969
 30
0.0
 70
0
  0
VERTEX
  5
210
  8
CUT
 10
383.74805029709535
 20
48.771638597533865
 30
0.0
 70
0
  0
VERTEX
  5
211
  8
CUT
 10
384.2667106990589
 20
48.49440883690764
 30
0.0
 70
0
  0
VERTEX
  5
212
  8
CUT
 10
384.7213203435597
 20
48.121320343559645
 30
0.0
 70
0
  0
VERTEX
  5
213
  8
CUT
 10
385.0944088369077
 20
47.66671069905881
 30
0.0
 70
0
  0
VERTEX
  5
214
  8
CUT
 10
385.37163859753394
 20
47.148050297095274
 30
0.0
 70
0
  0
VERTEX
  5
215
  8
CUT
 10
385.54235584120977
 20
46.585270966048384
 30
0.0
 70
0
  0
VERTEX
  5
216
  8
CUT
 10
385.6000000000001
 20
46.0
 30
0.0
 70
0
  0
VERTEX
  5
217
  8
CUT
 10
385.54235584120977
 20
45.414729033951616
 30
0.0
 70
0
  0
VERTEX
  5
218
  8
CUT
 10
385.37163859753394
 20
44.85194970290473
 30
0.0
 70
0
  0
VERTEX
  5
219
  8
CUT
 10
385.0944088369077
 20
44.333289300941196
 30
0.0
 70
0
  0
VERTEX
  5
21A
  8
CUT
 10
384.7213203435597
 20
43.87867965644036
 30
0.0
 70
0
  0
VERTEX
  5
21B
  8
CUT
 10
384.2667106990589
 20
43.50559116309237
 30
0.0
 70
0
  0
VERTEX
  5
21C
  8
CUT
 10
383.74805029709535
 20
43.22836140246614
 30
0.0
 70
0
  0
VERTEX
  5
21D
  8
CUT
 10
383.18527096604845
 20
43.05764415879031
 30
0.0
 70
0
  0
VERTEX
  5
21E
  8
CUT
 10
382.6000000000001
 20
43.0
 30
0.0
 70
0
  0
VERTEX
  5
21F
  8
CUT
 10
382.01472903395165
 20
43.05764415879031
 30
0.0
 70
0
  0
VERTEX
  5
220
  8
CUT
 10
381.4519497029048
 20
43.22836140246614
 30
0.0
 70
0
  0
VERTEX
  5
221
  8
CUT
 10
380.9332893009412
 20
43.50559116309237
 30
0.0
 70
0
  0
VERTEX
  5
222
  8
CUT
 10
380.4786796564404
 20
43.87867965644036
 30
0.0
 70
0
  0
VERTEX
  5
223
  8
CUT
 10
380.1055911630924
 20
44.333289300941196
 30
0.0
 70
0
  0
VERTEX
  5
224
  8
CUT
 10
379.8283614024662
 20
44.85194970290473
 30
0.0
 70
0
  0
VERTEX
  5
225
  8
CUT
 10
379.6576441587904
 20
45.414729033951616
 30
0.0
 70
0
  0
VERTEX
  5
226
  8
CUT
 10
379.6000000000001
 20
46.0
 30
0.0
 70
0
  0
VERTEX
  5
227
  8
CUT
 10
379.6576441587904
 20
46.585270966048384
 30
0.0
 70
0
  0
VERTEX
  5
228
  8
CUT
 10
379.8283614024662
 20
47.148050297095274
 30
0.0
 70
0
  0
VERTEX
  5
229
  8
CUT
 10
380.1055911630924
 20
47.66671069905881
 30
0.0
 70
0
  0
VERTEX
  5
22A
  8
CUT
 10
380.4786796564404
 20
48.121320343559645
 30
0.0
 70
0
  0
VERTEX
  5
22B
  8
CUT
 10
380.9332893009412
 20
48.49440883690764
 30
0.0
 70
0
  0
VERTEX
  5
22C
  8
CUT
 10
381.4519497029048
 20
48.771638597533865
 30
0.0
 70
0
  0
SEQEND
  5
20C
  8
CUT
  0
POLYLINE
  5
22D
  8
ENGRAVE
 66
1
 10
0.0
 20
0.0
 30
0.0
 70
0
  0
VERTEX
  5
22F
  8
ENGRAVE
 10
333.6
 20
41.00000000000001
 30
0.0
 70
0
  0
VERTEX
  5
230
  8
ENGRAVE
 10
333.6
 20
48.50000000000001
 30
0.0
 70
0
  0
SEQEND
  5
22E
  8
ENGRAVE
  0
POLYLINE
  5
231
  8
ENGRAVE
 66
1
 10
0.0
 20
0.0
 30
0.0
 70
0
  0
VERTEX
  5
233
  8
ENGRAVE
 10
333.6
 20
48.50000000000001
 30
0.0
 70
0
  0
VERTEX
  5
234
  8
ENGRAVE
 10
324.6
 20
48.50000000000001
 30
0.0
 70
0
  0
SEQEND
  5
232
  8
ENGRAVE
  0
POLYLINE
  5
235
  8
ENGRAVE
 66
1
 10
0.0
 20
0.0
 30
0.0
 70
0
  0
VERTEX
  5
237
  8
ENGRAVE
 10
324.6
 20
41.00000000000001
 30
0.0
 70
0
  0
VERTEX
  5
238
  8
ENGRAVE
 10
324.6
 20
48.50000000000001
 30
0.0
 70
0
  0
SEQEND
  5
236
  8
ENGRAVE
  0
POLYLINE
  5
239
  8
ENGRAVE
 66
1
 10
0.0
 20
0.0
 30
0.0
 70
0
  0
VERTEX
  5
23B
  8
ENGRAVE
 10
324.6
 20
48.50000000000001
 30
0.0
 70
0
  0
VERTEX
  5
23C
  8
ENGRAVE
 10
324.6
 20
56.00000000000001
 30
0.0
 70
0
  0
SEQEND
  5
23A
  8
ENGRAVE
  0
POLYLINE
  5
23D
  8
CUT
 66
1
 10
0.0
 20
0.0
 30
0.0
 70
1
  0
VERTEX
  5
23F
  8
CUT
 10
430.79999999999995
 20
60.00000000000001
 30
0.0
 70
0
  0
VERTEX
  5
240
  8
CUT
 10
430.79999999999995
 20
37.50000000000001
 30
0.0
 70
0
  0
VERTEX
  5
241
  8
CUT
 10
424.79999999999995
 20
37.50000000000001
 30
0.0
 70
0
  0
VERTEX
  5
242
  8
CUT
 10
424.79999999999995
 20
22.500000000000007
 30
0.0
 70
0
  0
VERTEX
  5
243
  8
CUT
 10
430.79999999999995
 20
22.500000000000007
 30
0.0
 70
0
  0
VERTEX
  5
244
  8
CUT
 10
430.79999999999995
 20
14.250000000000009
 30
0.0
 70
0
  0
VERTEX
  5
245
  8
CUT
 10
430.79999999999995
 20
7.105427357601002e-15
 30
0.0
 70
0
  0
VERTEX
  5
246
  8
CUT
 10
507.05
 20
3.552713678800501e-15
 30
0.0
 70
0
  0
VERTEX
  5
247
  8
CUT
 10
530.8
 20
0.0
 30
0.0
 70
0
  0
VERTEX
  5
248
  8
CUT
 10
530.8
 20
45.75
 30
0.0
 70
0
  0
VERTEX
  5
249
  8
CUT
 10
530.8
 20
60.0
 30
0.0
 70
0
  0
VERTEX
  5
24A
  8
CUT
 10
454.55
 20
60.0
 30
0.0
 70
0
  0
SEQEND
  5
23E
  8
CUT
  0
POLYLINE
  5
24B
  8
CUT
 66
1
 10
0.0
 20
0.0
 30
0.0
 70
1
  0
VERTEX
  5
24D
  8
CUT
 10
516.2147290339516
 20
16.942355841209697
 30
0.0
 70
0
  0
VERTEX
  5
24E
  8
CUT
 10
516.8
 20
17.000000000000004
 30
0.0
 70
0
  0
VERTEX
  5
24F
  8
CUT
 10
517.3852709660483
 20
16.942355841209697
 30
0.0
 70
0
  0
VERTEX
  5
250
  8
CUT
 10
517.9480502970953
 20
16.771638597533865
 30
0.0
 70
0
  0
VERTEX
  5
251
  8
CUT
 10
518.4667106990588
 20
16.49440883690764
 30
0.0
 70
0
  0
VERTEX
  5
252
  8
CUT
 10
518.9213203435596
 20
16.121320343559645
 30
0.0
 70
0
  0
VERTEX
  5
253
  8
CUT
 10
519.2944088369077
 20
15.666710699058811
 30
0.0
 70
0
  0
VERTEX
  5
254
  8
CUT
 10
519.5716385975338
 20
15.148050297095272
 30
0.0
 70
0
  0
VERTEX
  5
255
  8
CUT
 10
519.7423558412097
 20
14.58527096604839
 30
0.0
 70
0
  0
VERTEX
  5
256
  8
CUT
 10
519.8
 20
14.000000000000004
 30
0.0
 70
0
  0
VERTEX
  5
257
  8
CUT
 10
519.7423558412097
 20
13.414729033951618
 30
0.0
 70
0
  0
VERTEX
  5
258
  8
CUT
 10
519.5716385975338
 20
12.85194970290473
 30
0.0
 70
0
  0
VERTEX
  5
259
  8
CUT
 10
519.2944088369077
 20
12.333289300941193
 30
0.0
 70
0
  0
VERTEX
  5
25A
  8
CUT
 10
518.9213203435596
 20
11.878679656440358
 30
0.0
 70
0
  0
VERTEX
  5
25B
  8
CUT
 10
518.4667106990588
 20
11.505591163092365
 30
0.0
 70
0
  0
VERTEX
  5
25C
  8
CUT
 10
517.9480502970953
 20
11.228361402466142
 30
0.0
 70
0
  0
VERTEX
  5
25D
  8
CUT
 10
517.3852709660483
 20
11.05764415879031
 30
0.0
 70
0
  0
VERTEX
  5
25E
  8
CUT
 10
516.8
 20
11.0
 30
0.0
 70
0
  0
VERTEX
  5
25F
  8
CUT
 10
516.2147290339516
 20
11.05764415879031
 30
0.0
 70
0
  0
VERTEX
  5
260
  8
CUT
 10
515.6519497029047
 20
11.228361402466138
 30
0.0
 70
0
  0
VERTEX
  5
261
  8
CUT
 10
515.1332893009412
 20
11.505591163092362
 30
0.0
 70
0
  0
VERTEX
  5
262
  8
CUT
 10
514.6786796564403
 20
11.878679656440358
 30
0.0
 70
0
  0
VERTEX
  5
263
  8
CUT
 10
514.3055911630923
 20
12.333289300941193
 30
0.0
 70
0
  0
VERTEX
  5
264
  8
CUT
 10
514.0283614024661
 20
12.85194970290473
 30
0.0
 70
0
  0
VERTEX
  5
265
  8
CUT
 10
513.8576441587903
 20
13.414729033951614
 30
0.0
 70
0
  0
VERTEX
  5
266
  8
CUT
 10
513.8
 20
14.000000000000004
 30
0.0
 70
0
  0
VERTEX
  5
267
  8
CUT
 10
513.8576441587903
 20
14.58527096604839
 30
0.0
 70
0
  0
VERTEX
  5
268
  8
CUT
 10
514.0283614024661
 20
15.148050297095274
 30
0.0
 70
0
  0
VERTEX
  5
269
  8
CUT
 10
514.3055911630923
 20
15.66671069905881
 30
0.0
 70
0
  0
VERTEX
  5
26A
  8
CUT
 10
514.6786796564403
 20
16.121320343559645
 30
0.0
 70
0
  0
VERTEX
  5
26B
  8
CUT
 10
515.1332893009412
 20
16.49440883690764
 30
0.0
 70
0
  0
VERTEX
  5
26C
  8
CUT
 10
515.6519497029047
 20
16.771638597533865
 30
0.0
 70
0
  0
SEQEND
  5
24C
  8
CUT
  0
POLYLINE
  5
26D
  8
CUT
 66
1
 10
0.0
 20
0.0
 30
0.0
 70
1
  0
VERTEX
  5
26F
  8
CUT
 10
444.2147290339516
 20
48.9423558412097
 30
0.0
 70
0
  0
VERTEX
  5
270
  8
CUT
 10
444.79999999999995
 20
49.00000000000001
 30
0.0
 70
0
  0
VERTEX
  5
271
  8
CUT
 10
445.3852709660484
 20
48.9423558412097
 30
0.0
 70
0
  0
VERTEX
  5
272
  8
CUT
 10
445.9480502970953
 20
48.771638597533865
 30
0.0
 70
0
  0
VERTEX
  5
273
  8
CUT
 10
446.4667106990588
 20
48.49440883690764
 30
0.0
 70
0
  0
VERTEX
  5
274
  8
CUT
 10
446.9213203435596
 20
48.121320343559645
 30
0.0
 70
0
  0
VERTEX
  5
275
  8
CUT
 10
447.2944088369076
 20
47.66671069905881
 30
0.0
 70
0
  0
VERTEX
  5
276
  8
CUT
 10
447.5716385975338
 20
47.14805029709528
 30
0.0
 70
0
  0
VERTEX
  5
277
  8
CUT
 10
447.7423558412097
 20
46.58527096604839
 30
0.0
 70
0
  0
VERTEX
  5
278
  8
CUT
 10
447.79999999999995
 20
46.00000000000001
 30
0.0
 70
0
  0
VERTEX
  5
279
  8
CUT
 10
447.7423558412097
 20
45.41472903395162
 30
0.0
 70
0
  0
VERTEX
  5
27A
  8
CUT
 10
447.5716385975338
 20
44.85194970290474
 30
0.0
 70
0
  0
VERTEX
  5
27B
  8
CUT
 10
447.2944088369076
 20
44.3332893009412
 30
0.0
 70
0
  0
VERTEX
  5
27C
  8
CUT
 10
446.9213203435596
 20
43.87867965644037
 30
0.0
 70
0
  0
VERTEX
  5
27D
  8
CUT
 10
446.4667106990588
 20
43.50559116309237
 30
0.0
 70
0
  0
VERTEX
  5
27E
  8
CUT
 10
445.9480502970953
 20
43.22836140246615
 30
0.0
 70
0
  0
VERTEX
  5
27F
  8
CUT
 10
445.3852709660484
 20
43.05764415879032
 30
0.0
 70
0
  0
VERTEX
  5
280
  8
CUT
 10
444.79999999999995
 20
43.00000000000001
 30
0.0
 70
0
  0
VERTEX
  5
281
  8
CUT
 10
444.2147290339516
 20
43.05764415879032
 30
0.0
 70
0
  0
VERTEX
  5
282
  8
CUT
 10
443.65194970290474
 20
43.22836140246615
 30
0.0
 70
0
  0
VERTEX
  5
283
  8
CUT
 10
443.13328930094116
 20
43.50559116309237
 30
0.0
 70
0
  0
VERTEX
  5
284
  8
CUT
 10
442.67867965644035
 20
43.87867965644037
 30
0.0
 70
0
  0
VERTEX
  5
285
  8
CUT
 10
442.30559116309234
 20
44.3332893009412
 30
0.0
 70
0
  0
VERTEX
  5
286
  8
CUT
 10
442.02836140246615
 20
44.85194970290473
 30
0.0
 70
0
  0
VERTEX
  5
287
  8
CUT
 10
441.8576441587903
 20
45.414729033951616
 30
0.0
 70
0
  0
VERTEX
  5
288
  8
CUT
 10
441.79999999999995
 20
46.00000000000001
 30
0.0
 70
0
  0
VERTEX
  5
289
  8
CUT
 10
441.8576441587903
 20
46.58527096604839
 30
0.0
 70
0
  0
VERTEX
  5
28A
  8
CUT
 10
442.02836140246615
 20
47.14805029709528
 30
0.0
 70
0
  0
VERTEX
  5
28B
  8
CUT
 10
442.30559116309234
 20
47.66671069905881
 30
0.0
 70
0
  0
VERTEX
  5
28C
  8
CUT
 10
442.67867965644035
 20
48.121320343559645
 30
0.0
 70
0
  0
VERTEX
  5
28D
  8
CUT
 10
443.13328930094116
 20
48.49440883690764
 30
0.0
 70
0
  0
VERTEX
  5
28E
  8
CUT
 10
443.6519497029047
 20
48.771638597533865
 30
0.0
 70
0
  0
SEQEND
  5
26E
  8
CUT
  0
POLYLINE
  5
28F
  8
CUT
 66
1
 10
0.0
 20
0.0
 30
0.0
 70
1
  0
VERTEX
  5
291
  8
CUT
 10
488.2147290339516
 20
48.94235584120969
 30
0.0
 70
0
  0
VERTEX
  5
292
  8
CUT
 10
488.8
 20
49.0
 30
0.0
 70
0
  0
VERTEX
  5
293
  8
CUT
 10
489.3852709660484
 20
48.94235584120969
 30
0.0
 70
0
  0
VERTEX
  5
294
  8
CUT
 10
489.9480502970953
 20
48.771638597533865
 30
0.0
 70
0
  0
VERTEX
  5
295
  8
CUT
 10
490.4667106990588
 20
48.49440883690764
 30
0.0
 70
0
  0
VERTEX
  5
296
  8
CUT
 10
490.9213203435596
 20
48.121320343559645
 30
0.0
 70
0
  0
VERTEX
  5
297
  8
CUT
 10
491.2944088369076
 20
47.66671069905881
 30
0.0
 70
0
  0
VERTEX
  5
298
  8
CUT
 10
491.5716385975339
 20
47.148050297095274
 30
0.0
 70
0
  0
VERTEX
  5
299
  8
CUT
 10
491.7423558412097
 20
46.585270966048384
 30
0.0
 70
0
  0
VERTEX
  5
29A
  8
CUT
 10
491.8
 20
46.0
 30
0.0
 70
0
  0
VERTEX
  5
29B
  8
CUT
 10
491.7423558412097
 20
45.414729033951616
 30
0.0
 70
0
  0
VERTEX
  5
29C
  8
CUT
 10
491.5716385975339
 20
44.85194970290473
 30
0.0
 70
0
  0
VERTEX
  5
29D
  8
CUT
 10
491.2944088369076
 20
44.3332893009412
 30
0.0
 70
0
  0
VERTEX
  5
29E
  8
CUT
 10
490.9213203435596
 20
43.87867965644036
 30
0.0
 70
0
  0
VERTEX
  5
29F
  8
CUT
 10
490.4667106990588
 20
43.50559116309237
 30
0.0
 70
0
  0
VERTEX
  5
2A0
  8
CUT
 10
489.9480502970953
 20
43.22836140246615
 30
0.0
 70
0
  0
VERTEX
  5
2A1
  8
CUT
 10
489.3852709660484
 20
43.05764415879031
 30
0.0
 70
0
  0
VERTEX
  5
2A2
  8
CUT
 10
488.8
 20
43.00000000000001
 30
0.0
 70
0
  0
VERTEX
  5
2A3
  8
CUT
 10
488.2147290339516
 20
43.05764415879031
 30
0.0
 70
0
  0
VERTEX
  5
2A4
  8
CUT
 10
487.65194970290474
 20
43.22836140246615
 30
0.0
 70
0
  0
VERTEX
  5
2A5
  8
CUT
 10
487.13328930094116
 20
43.50559116309237
 30
0.0
 70
0
  0
VERTEX
  5
2A6
  8
CUT
 10
486.67867965644035
 20
43.87867965644036
 30
0.0
 70
0
  0
VERTEX
  5
2A7
  8
CUT
 10
486.30559116309234
 20
44.333289300941196
 30
0.0
 70
0
  0
VERTEX
  5
2A8
  8
CUT
 10
486.02836140246615
 20
44.85194970290473
 30
0.0
 70
0
  0
VERTEX
  5
2A9
  8
CUT
 10
485.8576441587903
 20
45.414729033951616
 30
0.0
 70
0
  0
VERTEX
  5
2AA
  8
CUT
 10
485.8
 20
46.0
 30
0.0
 70
0
  0
VERTEX
  5
2AB
  8
CUT
 10
485.8576441587903
 20
46.585270966048384
 30
0.0
 70
0
  0
VERTEX
  5
2AC
  8
CUT
 10
486.02836140246615
 20
47.148050297095274
 30
0.0
 70
0
  0
VERTEX
  5
2AD
  8
CUT
 10
486.30559116309234
 20
47.66671069905881
 30
0.0
 70
0
  0
VERTEX
  5
2AE
  8
CUT
 10
486.67867965644035
 20
48.121320343559645
 30
0.0
 70
0
  0
VERTEX
  5
2AF
  8
CUT
 10
487.13328930094116
 20
48.49440883690764
 30
0.0
 70
0
  0
VERTEX
  5
2B0
  8
CUT
 10
487.65194970290474
 20
48.771638597533865
 30
0.0
 70
0
  0
SEQEND
  5
290
  8
CUT
  0
POLYLINE
  5
2B1
  8
ENGRAVE
 66
1
 10
0.0
 20
0.0
 30
0.0
 70
0
  0
VERTEX
  5
2B3
  8
ENGRAVE
 10
439.79999999999995
 20
41.00000000000001
 30
0.0
 70
0
  0
VERTEX
  5
2B4
  8
ENGRAVE
 10
430.79999999999995
 20
41.00000000000001
 30
0.0
 70
0
  0
SEQEND
  5
2B2
  8
ENGRAVE
  0
POLYLINE
  5
2B5
  8
ENGRAVE
 66
1
 10
0.0
 20
0.0
 30
0.0
 70
0
  0
VERTEX
  5
2B7
  8
ENGRAVE
 10
439.79999999999995
 20
41.00000000000001
 30
0.0
 70
0
  0
VERTEX
  5
2B8
  8
ENGRAVE
 10
439.79999999999995
 20
48.50000000000001
 30
0.0
 70
0
  0
SEQEND
  5
2B6
  8
ENGRAVE
  0
POLYLINE
  5
2B9
  8
ENGRAVE
 66
1
 10
0.0
 20
0.0
 30
0.0
 70
0
  0
VERTEX
  5
2BB
  8
ENGRAVE
 10
439.79999999999995
 20
48.50000000000001
 30
0.0
 70
0
  0
VERTEX
  5
2BC
  8
ENGRAVE
 10
430.79999999999995
 20
48.50000000000001
 30
0.0
 70
0
  0
SEQEND
  5
2BA
  8
ENGRAVE
  0
POLYLINE
  5
2BD
  8
ENGRAVE
 66
1
 10
0.0
 20
0.0
 30
0.0
 70
0
  0
VERTEX
  5
2BF
  8
ENGRAVE
 10
430.79999999999995
 20
48.50000000000001
 30
0.0
 70
0
  0
VERTEX
  5
2C0
  8
ENGRAVE
 10
430.79999999999995
 20
56.00000000000001
 30
0.0
 70
0
  0
SEQEND
  5
2BE
  8
ENGRAVE
  0
POLYLINE
  5
2C1
  8
ENGRAVE
 66
1
 10
0.0
 20
0.0
 30
0.0
 70
0
  0
VERTEX
  5
2C3
  8
ENGRAVE
 10
439.79999999999995
 20
56.00000000000001
 30
0.0
 70
0
  0
VERTEX
  5
2C4
  8
ENGRAVE
 10
430.79999999999995
 20
56.00000000000001
 30
0.0
 70
0
  0
SEQEND
  5
2C2
  8
ENGRAVE
  0
POLYLINE
  5
2C5
  8
CUT
 66
1
 10
0.0
 20
0.0
 30
0.0
 70
1
  0
VERTEX
  5
2C7
  8
CUT
 10
6.0
 20
120.20000000000002
 30
0.0
 70
0
  0
VERTEX
  5
2C8
  8
CUT
 10
6.0
 20
97.70000000000002
 30
0.0
 70
0
  0
VERTEX
  5
2C9
  8
CUT
 10
0.0
 20
97.70000000000002
 30
0.0
 70
0
  0
VERTEX
  5
2CA
  8
CUT
 10
0.0
 20
82.70000000000002
 30
0.0
 70
0
  0
VERTEX
  5
2CB
  8
CUT
 10
6.0
 20
82.70000000000002
 30
0.0
 70
0
  0
VERTEX
  5
2CC
  8
CUT
 10
6.0
 20
63.95000000000002
 30
0.0
 70
0
  0
VERTEX
  5
2CD
  8
CUT
 10
6.0
 20
60.20000000000002
 30
0.0
 70
0
  0
VERTEX
  5
2CE
  8
CUT
 10
99.75
 20
60.20000000000001
 30
0.0
 70
0
  0
VERTEX
  5
2CF
  8
CUT
 10
106.0
 20
60.20000000000001
 30
0.0
 70
0
  0
VERTEX
  5
2D0
  8
CUT
 10
106.0
 20
116.45000000000002
 30
0.0
 70
0
  0
VERTEX
  5
2D1
  8
CUT
 10
106.0
 20
120.20000000000002
 30
0.0
 70
0
  0
VERTEX
  5
2D2
  8
CUT
 10
12.250000000000014
 20
120.20000000000002
 30
0.0
 70
0
  0
SEQEND
  5
2C6
  8
CUT
  0
POLYLINE
  5
2D3
  8
CUT
 66
1
 10
0.0
 20
0.0
 30
0.0
 70
1
  0
VERTEX
  5
2D5
  8
CUT
 10
91.41472903395162
 20
77.1423558412097
 30
0.0
 70
0
  0
VERTEX
  5
2D6
  8
CUT
 10
92.0
 20
77.20000000000002
 30
0.0
 70
0
  0
VERTEX
  5
2D7
  8
CUT
 10
92.58527096604838
 20
77.1423558412097
 30
0.0
 70
0
  0
VERTEX
  5
2D8
  8
CUT
 10
93.14805029709527
 20
76.97163859753387
 30
0.0
 70
0
  0
VERTEX
  5
2D9
  8
CUT
 10
93.6667106990588
 20
76.69440883690766
 30
0.0
 70
0
  0
VERTEX
  5
2DA
  8
CUT
 10
94.12132034355965
 20
76.32132034355965
 30
0.0
 70
0
  0
VERTEX
  5
2DB
  8
CUT
 10
94.49440883690764
 20
75.86671069905881
 30
0.0
 70
0
  0
VERTEX
  5
2DC
  8
CUT
 10
94.77163859753387
 20
75.34805029709528
 30
0.0
 70
0
  0
VERTEX
  5
2DD
  8
CUT
 10
94.94235584120969
 20
74.7852709660484
 30
0.0
 70
0
  0
VERTEX
  5
2DE
  8
CUT
 10
95.0
 20
74.20000000000002
 30
0.0
 70
0
  0
VERTEX
  5
2DF
  8
CUT
 10
94.94235584120969
 20
73.61472903395163
 30
0.0
 70
0
  0
VERTEX
  5
2E0
  8
CUT
 10
94.77163859753387
 20
73.05194970290474
 30
0.0
 70
0
  0
VERTEX
  5
2E1
  8
CUT
 10
94.49440883690764
 20
72.5332893009412
 30
0.0
 70
0
  0
VERTEX
  5
2E2
  8
CUT
 10
94.12132034355965
 20
72.07867965644037
 30
0.0
 70
0
  0
VERTEX
  5
2E3
  8
CUT
 10
93.6667106990588
 20
71.70559116309238
 30
0.0
 70
0
  0
VERTEX
  5
2E4
  8
CUT
 10
93.14805029709527
 20
71.42836140246615
 30
0.0
 70
0
  0
VERTEX
  5
2E5
  8
CUT
 10
92.58527096604838
 20
71.25764415879033
 30
0.0
 70
0
  0
VERTEX
  5
2E6
  8
CUT
 10
92.0
 20
71.20000000000002
 30
0.0
 70
0
  0
VERTEX
  5
2E7
  8
CUT
 10
91.41472903395162
 20
71.25764415879033
 30
0.0
 70
0
  0
VERTEX
  5
2E8
  8
CUT
 10
90.85194970290473
 20
71.42836140246615
 30
0.0
 70
0
  0
VERTEX
  5
2E9
  8
CUT
 10
90.3332893009412
 20
71.70559116309238
 30
0.0
 70
0
  0
VERTEX
  5
2EA
  8
CUT
 10
89.87867965644035
 20
72.07867965644037
 30
0.0
 70
0
  0
VERTEX
  5
2EB
  8
CUT
 10
89.50559116309236
 20
72.5332893009412
 30
0.0
 70
0
  0
VERTEX
  5
2EC
  8
CUT
 10
89.22836140246613
 20
73.05194970290474
 30
0.0
 70
0
  0
VERTEX
  5
2ED
  8
CUT
 10
89.05764415879031
 20
73.61472903395162
 30
0.0
 70
0
  0
VERTEX
  5
2EE
  8
CUT
 10
89.0
 20
74.20000000000002
 30
0.0
 70
0
  0
VERTEX
  5
2EF
  8
CUT
 10
89.05764415879031
 20
74.7852709660484
 30
0.0
 70
0
  0
VERTEX
  5
2F0
  8
CUT
 10
89.22836140246613
 20
75.34805029709528
 30
0.0
 70
0
  0
VERTEX
  5
2F1
  8
CUT
 10
89.50559116309236
 20
75.86671069905881
 30
0.0
 70
0
  0
VERTEX
  5
2F2
  8
CUT
 10
89.87867965644035
 20
76.32132034355965
 30
0.0
 70
0
  0
VERTEX
  5
2F3
  8
CUT
 10
90.3332893009412
 20
76.69440883690766
 30
0.0
 70
0
  0
VERTEX
  5
2F4
  8
CUT
 10
90.85194970290473
 20
76.97163859753387
 30
0.0
 70
0
  0
SEQEND
  5
2D4
  8
CUT
  0
POLYLINE
  5
2F5
  8
CUT
 66
1
 10
0.0
 20
0.0
 30
0.0
 70
1
  0
VERTEX
  5
2F7
  8
CUT
 10
19.414729033951616
 20
109.1423558412097
 30
0.0
 70
0
  0
VERTEX
  5
2F8
  8
CUT
 10
20.0
 20
109.20000000000002
 30
0.0
 70
0
  0
VERTEX
  5
2F9
  8
CUT
 10
20.585270966048384
 20
109.1423558412097
 30
0.0
 70
0
  0
VERTEX
  5
2FA
  8
CUT
 10
21.148050297095267
 20
108.97163859753388
 30
0.0
 70
0
  0
VERTEX
  5
2FB
  8
CUT
 10
21.666710699058804
 20
108.69440883690766
 30
0.0
 70
0
  0
VERTEX
  5
2FC
  8
CUT
 10
22.121320343559645
 20
108.32132034355966
 30
0.0
 70
0
  0
VERTEX
  5
2FD
  8
CUT
 10
22.49440883690764
 20
107.86671069905883
 30
0.0
 70
0
  0
VERTEX
  5
2FE
  8
CUT
 10
22.771638597533858
 20
107.34805029709528
 30
0.0
 70
0
  0
VERTEX
  5
2FF
  8
CUT
 10
22.94235584120969
 20
106.7852709660484
 30
0.0
 70
0
  0
VERTEX
  5
300
  8
CUT
 10
23.0
 20
106.20000000000002
 30
0.0
 70
0
  0
VERTEX
  5
301
  8
CUT
 10
22.94235584120969
 20
105.61472903395163
 30
0.0
 70
0
  0
VERTEX
  5
302
  8
CUT
 10
22.771638597533858
 20
105.05194970290475
 30
0.0
 70
0
  0
VERTEX
  5
303
  8
CUT
 10
22.49440883690764
 20
104.5332893009412
 30
0.0
 70
0
  0
VERTEX
  5
304
  8
CUT
 10
22.121320343559645
 20
104.07867965644037
 30
0.0
 70
0
  0
VERTEX
  5
305
  8
CUT
 10
21.666710699058804
 20
103.70559116309238
 30
0.0
 70
0
  0
VERTEX
  5
306
  8
CUT
 10
21.148050297095267
 20
103.42836140246615
 30
0.0
 70
0
  0
VERTEX
  5
307
  8
CUT
 10
20.585270966048384
 20
103.25764415879033
 30
0.0
 70
0
  0
VERTEX
  5
308
  8
CUT
 10
20.0
 20
103.20000000000002
 30
0.0
 70
0
  0
VERTEX
  5
309
  8
CUT
 10
19.414729033951616
 20
103.25764415879033
 30
0.0
 70
0
  0
VERTEX
  5
30A
  8
CUT
 10
18.851949702904733
 20
103.42836140246615
 30
0.0
 70
0
  0
VERTEX
  5
30B
  8
CUT
 10
18.333289300941196
 20
103.70559116309238
 30
0.0
 70
0
  0
VERTEX
  5
30C
  8
CUT
 10
17.878679656440355
 20
104.07867965644037
 30
0.0
 70
0
  0
VERTEX
  5
30D
  8
CUT
 10
17.50559116309236
 20
104.5332893009412
 30
0.0
 70
0
  0
VERTEX
  5
30E
  8
CUT
 10
17.228361402466142
 20
105.05194970290475
 30
0.0
 70
0
  0
VERTEX
  5
30F
  8
CUT
 10
17.05764415879031
 20
105.61472903395163
 30
0.0
 70
0
  0
VERTEX
  5
310
  8
CUT
 10
17.0
 20
106.20000000000002
 30
0.0
 70
0
  0
VERTEX
  5
311
  8
CUT
 10
17.05764415879031
 20
106.7852709660484
 30
0.0
 70
0
  0
VERTEX
  5
312
  8
CUT
 10
17.228361402466142
 20
107.34805029709528
 30
0.0
 70
0
  0
VERTEX
  5
313
  8
CUT
 10
17.50559116309236
 20
107.86671069905881
 30
0.0
 70
0
  0
VERTEX
  5
314
  8
CUT
 10
17.878679656440355
 20
108.32132034355966
 30
0.0
 70
0
  0
VERTEX
  5
315
  8
CUT
 10
18.333289300941196
 20
108.69440883690766
 30
0.0
 70
0
  0
VERTEX
  5
316
  8
CUT
 10
18.851949702904726
 20
108.97163859753388
 30
0.0
 70
0
  0
SEQEND
  5
2F6
  8
CUT
  0
POLYLINE
  5
317
  8
CUT
 66
1
 10
0.0
 20
0.0
 30
0.0
 70
1
  0
VERTEX
  5
319
  8
CUT
 10
63.41472903395162
 20
109.1423558412097
 30
0.0
 70
0
  0
VERTEX
  5
31A
  8
CUT
 10
64.0
 20
109.20000000000002
 30
0.0
 70
0
  0
VERTEX
  5
31B
  8
CUT
 10
64.5852709660484
 20
109.1423558412097
 30
0.0
 70
0
  0
VERTEX
  5
31C
  8
CUT
 10
65.14805029709528
 20
108.97163859753387
 30
0.0
 70
0
  0
VERTEX
  5
31D
  8
CUT
 10
65.66671069905881
 20
108.69440883690766
 30
0.0
 70
0
  0
VERTEX
  5
31E
  8
CUT
 10
66.12132034355965
 20
108.32132034355965
 30
0.0
 70
0
  0
VERTEX
  5
31F
  8
CUT
 10
66.49440883690764
 20
107.86671069905881
 30
0.0
 70
0
  0
VERTEX
  5
320
  8
CUT
 10
66.77163859753387
 20
107.34805029709528
 30
0.0
 70
0
  0
VERTEX
  5
321
  8
CUT
 10
66.9423558412097
 20
106.7852709660484
 30
0.0
 70
0
  0
VERTEX
  5
322
  8
CUT
 10
67.0
 20
106.20000000000002
 30
0.0
 70
0
  0
VERTEX
  5
323
  8
CUT
 10
66.9423558412097
 20
105.61472903395163
 30
0.0
 70
0
  0
VERTEX
  5
324
  8
CUT
 10
66.77163859753387
 20
105.05194970290475
 30
0.0
 70
0
  0
VERTEX
  5
325
  8
CUT
 10
66.49440883690764
 20
104.5332893009412
 30
0.0
 70
0
  0
VERTEX
  5
326
  8
CUT
 10
66.12132034355965
 20
104.07867965644037
 30
0.0
 70
0
  0
VERTEX
  5
327
  8
CUT
 10
65.66671069905881
 20
103.70559116309238
 30
0.0
 70
0
  0
VERTEX
  5
328
  8
CUT
 10
65.14805029709528
 20
103.42836140246615
 30
0.0
 70
0
  0
VERTEX
  5
329
  8
CUT
 10
64.5852709660484
 20
103.25764415879033
 30
0.0
 70
0
  0
VERTEX
  5
32A
  8
CUT
 10
64.0
 20
103.20000000000002
 30
0.0
 70
0
  0
VERTEX
  5
32B
  8
CUT
 10
63.414729033951616
 20
103.25764415879033
 30
0.0
 70
0
  0
VERTEX
  5
32C
  8
CUT
 10
62.85194970290474
 20
103.42836140246615
 30
0.0
 70
0
  0
VERTEX
  5
32D
  8
CUT
 10
62.3332893009412
 20
103.70559116309238
 30
0.0
 70
0
  0
VERTEX
  5
32E
  8
CUT
 10
61.87867965644036
 20
104.07867965644037
 30
0.0
 70
0
  0
VERTEX
  5
32F
  8
CUT
 10
61.50559116309237
 20
104.5332893009412
 30
0.0
 70
0
  0
VERTEX
  5
330
  8
CUT
 10
61.22836140246615
 20
105.05194970290475
 30
0.0
 70
0
  0
VERTEX
  5
331
  8
CUT
 10
61.05764415879032
 20
105.61472903395163
 30
0.0
 70
0
  0
VERTEX
  5
332
  8
CUT
 10
61.00000000000001
 20
106.20000000000002
 30
0.0
 70
0
  0
VERTEX
  5
333
  8
CUT
 10
61.05764415879032
 20
106.7852709660484
 30
0.0
 70
0
  0
VERTEX
  5
334
  8
CUT
 10
61.22836140246615
 20
107.34805029709528
 30
0.0
 70
0
  0
VERTEX
  5
335
  8
CUT
 10
61.50559116309237
 20
107.86671069905881
 30
0.0
 70
0
  0
VERTEX
  5
336
  8
CUT
 10
61.87867965644036
 20
108.32132034355965
 30
0.0
 70
0
  0
VERTEX
  5
337
  8
CUT
 10
62.333289300941196
 20
108.69440883690766
 30
0.0
 70
0
  0
VERTEX
  5
338
  8
CUT
 10
62.85194970290473
 20
108.97163859753387
 30
0.0
 70
0
  0
SEQEND
  5
318
  8
CUT
  0
POLYLINE
  5
339
  8
ENGRAVE
 66
1
 10
0.0
 20
0.0
 30
0.0
 70
0
  0
VERTEX
  5
33B
  8
ENGRAVE
 10
15.0
 20
101.20000000000002
 30
0.0
 70
0
  0
VERTEX
  5
33C
  8
ENGRAVE
 10
6.0
 20
101.20000000000002
 30
0.0
 70
0
  0
SEQEND
  5
33A
  8
ENGRAVE
  0
POLYLINE
  5
33D
  8
ENGRAVE
 66
1
 10
0.0
 20
0.0
 30
0.0
 70
0
  0
VERTEX
  5
33F
  8
ENGRAVE
 10
15.0
 20
101.20000000000002
 30
0.0
 70
0
  0
VERTEX
  5
340
  8
ENGRAVE
 10
15.0
 20
108.70000000000002
 30
0.0
 70
0
  0
SEQEND
  5
33E
  8
ENGRAVE
  0
POLYLINE
  5
341
  8
ENGRAVE
 66
1
 10
0.0
 20
0.0
 30
0.0
 70
0
  0
VERTEX
  5
343
  8
ENGRAVE
 10
15.0
 20
108.70000000000002
 30
0.0
 70
0
  0
VERTEX
  5
344
  8
ENGRAVE
 10
6.0
 20
108.70000000000002
 30
0.0
 70
0
  0
SEQEND
  5
342
  8
ENGRAVE
  0
POLYLINE
  5
345
  8
ENGRAVE
 66
1
 10
0.0
 20
0.0
 30
0.0
 70
0
  0
VERTEX
  5
347
  8
ENGRAVE
 10
15.0
 20
108.70000000000002
 30
0.0
 70
0
  0
VERTEX
  5
348
  8
ENGRAVE
 10
15.0
 20
116.20000000000002
 30
0.0
 70
0
  0
SEQEND
  5
346
  8
ENGRAVE
  0
POLYLINE
  5
349
  8
ENGRAVE
 66
1
 10
0.0
 20
0.0
 30
0.0
 70
0
  0
VERTEX
  5
34B
  8
ENGRAVE
 10
6.0
 20
108.70000000000002
 30
0.0
 70
0
  0
VERTEX
  5
34C
  8
ENGRAVE
 10
6.0
 20
116.20000000000002
 30
0.0
 70
0
  0
SEQEND
  5
34A
  8
ENGRAVE
  0
POLYLINE
  5
34D
  8
ENGRAVE
 66
1
 10
0.0
 20
0.0
 30
0.0
 70
0
  0
VERTEX
  5
34F
  8
ENGRAVE
 10
15.0
 20
116.20000000000002
 30
0.0
 70
0
  0
VERTEX
  5
350
  8
ENGRAVE
 10
6.0
 20
116.20000000000002
 30
0.0
 70
0
  0
SEQEND
  5
34E
  8
ENGRAVE
  0
ENDSEC
  0
EOF
